<svg xmlns="http://www.w3.org/2000/svg" viewBox="0 0 212.9 83.3" enable-background="new 0 0 212.9 83.3"><path fill="#9cf" d="M0 61.8h12.5V68H0z"/><path fill="#CC3232" d="M75.2 61.8h12.5V68H75.2z"/><path fill="#69c" d="M12.6 61.8h12.5V68H12.6z"/><path fill="#f66" d="M87.7 61.8h12.5V68H87.7z"/><path fill="#069" d="M25.1 61.8h12.5V68H25.1z"/><path fill="#f63" d="M100.2 61.8h12.5V68h-12.5z"/><path fill="#669" d="M200.3 61.8h12.5V68h-12.5z"/><path fill="#c66" d="M150.3 61.8h12.5V68h-12.5z"/><path fill="#6cc" d="M37.6 61.8h12.5V68H37.6z"/><path fill="#939" d="M112.7 61.8h12.5V68h-12.5z"/><path fill="#969" d="M162.8 61.8h12.5V68h-12.5z"/><path fill="#336" d="M50.1 61.8h12.5V68H50.1z"/><path fill="#303" d="M125.2 61.8h12.5V68h-12.5z"/><path fill="#336" d="M175.3 61.8h12.5V68h-12.5z"/><path fill="#6598CB" d="M62.6 61.8h12.5V68H62.6z"/><path fill="#603" d="M137.8 61.8h12.5V68h-12.5z"/><path fill="#336" d="M187.8 61.8h12.5V68h-12.5z"/><path d="M13.6 6.6v50.9h-6V6.6H0V.8h20.9v5.8h-7.3zM42.5 57.4V32.2h-9.6v25.3h-6.2V.8h6.2v25.6h9.6V.8h6v56.7h-6zM56.5 57.4V.8h18v5.8H62.6v18.8h8.6v5.5h-8.6v20.8h11.9v5.8h-18zM107.1 57.4l-1.5-12.3h-7.8L96 57.4h-5.8L98.8.7h6.4l8.3 56.7h-6.4zm-5.2-43.3l-3.3 25.3h6.3l-3-25.3zM128.7 6.6v50.9h-6V6.6h-7.6V.8H136v5.8h-7.3zM141.8 57.4V.8h6v50.9h11.5v5.8h-17.5zM180.1 57.4l-1.5-12.3h-7.8L169 57.4h-5.8L171.8.7h6.4l8.3 56.7h-6.4zm-5.3-43.3l-3.3 25.3h6.3l-3-25.3zM211.1 51.8c-.7 1.6-1.5 2.8-2.5 3.8s-2.2 1.7-3.4 2.1c-1.3.4-2.6.6-3.9.6-3.3 0-6-1-7.9-3.1-1.9-2-2.9-4.7-2.9-8v-6.5h6V47c0 1.9.4 3.4 1.3 4.5.8 1.1 2 1.7 3.5 1.7 1.7 0 2.9-.5 3.7-1.5.8-1 1.2-2.4 1.2-4.3 0-2.7-.5-5.3-1.6-7.7-1.1-2.4-2.7-5.1-4.9-8-1-1.2-2-2.7-3.1-4.2-1-1.6-1.9-3.2-2.8-4.9-.8-1.7-1.5-3.4-2-5.1-.5-1.8-.8-3.5-.8-5.1 0-1.8.2-3.4.6-4.9.4-1.5 1.1-2.8 2-3.9.9-1.1 2-2 3.4-2.6 1.3-.6 2.9-.9 4.7-.9 3.1 0 5.5 1 7.4 3.1 1.8 2.1 2.8 4.8 2.8 8.1V18H206v-6.2c0-2-.4-3.5-1.1-4.6-.7-1.1-1.9-1.6-3.4-1.6-3 0-4.6 1.7-4.6 5.2 0 1.5.1 2.9.4 4.2.3 1.3.7 2.6 1.3 3.8.6 1.3 1.3 2.6 2.2 4 .9 1.4 2 2.9 3.2 4.5 2.5 3.2 4.4 6.4 5.8 9.4 1.4 3 2.1 6.2 2.1 9.4.2 2.2-.2 4.1-.8 5.7z"/><g fill="#989897"><path d="M3.3 83.3c-1.9 0-2.9-1-2.9-2.4v-5.3c0-1.4 1-2.4 2.9-2.4s2.9 1 2.9 2.4v5.3c0 1.4-1 2.4-2.9 2.4zm1.4-7.8c0-.7-.5-1.2-1.4-1.2-.9 0-1.4.5-1.4 1.2V81c0 .7.4 1.2 1.4 1.2.9 0 1.4-.5 1.4-1.2v-5.5zM12.8 74.5v3.2h2.5v1.1h-2.5v4.4h-1.6v-9.8H16v1.1h-3.2zM26.8 83.1v-9.8h4.9v1.1h-3.3v3h2.4v1.1h-2.4V82h3.3v1.1h-4.9zM39.2 83.3c-1.9 0-2.9-1.1-2.9-2.3v-5.4c0-1.3 1-2.3 2.9-2.3s2.8 1 2.8 2.3v1.3h-1.4v-1.4c0-.7-.5-1.1-1.4-1.1-.9 0-1.4.5-1.4 1.1v5.7c0 .6.5 1.1 1.4 1.1.9 0 1.4-.4 1.4-1.1v-1.4H42v1.3c.1 1.2-.9 2.2-2.8 2.2zM49.7 83.3c-1.9 0-2.9-1-2.9-2.4v-5.3c0-1.4 1-2.4 2.9-2.4s2.9 1 2.9 2.4v5.3c.1 1.4-1 2.4-2.9 2.4zm1.4-7.8c0-.7-.5-1.2-1.4-1.2-.9 0-1.4.5-1.4 1.2V81c0 .7.4 1.2 1.4 1.2.9 0 1.4-.5 1.4-1.2v-5.5zM62.6 83.1L60 78.3l-.8-1.6v6.5h-1.5v-9.8H59l2.4 4.9.8 1.7v-6.6h1.5v9.8h-1.1zM71.6 83.3c-1.9 0-2.9-1-2.9-2.4v-5.3c0-1.4 1-2.4 2.9-2.4s2.9 1 2.9 2.4v5.3c.1 1.4-1 2.4-2.9 2.4zm1.4-7.8c0-.7-.5-1.2-1.4-1.2-.9 0-1.4.5-1.4 1.2V81c0 .7.4 1.2 1.4 1.2.9 0 1.4-.5 1.4-1.2v-5.5zM86.1 83.1v-7.5l-.4 1.8-1.4 5.7h-1.5l-1.4-5.7-.4-1.7v7.5h-1.4v-9.8h2.2l1.4 6.1.4 1.8.4-1.8 1.4-6h2.2v9.8h-1.5zM92.7 83.1v-9.8h1.6v9.8h-1.6zM102.3 83.3c-1.9 0-2.9-1.1-2.9-2.3v-5.4c0-1.3 1-2.3 2.9-2.3s2.8 1 2.8 2.3v1.3h-1.4v-1.4c0-.7-.5-1.1-1.4-1.1-.9 0-1.4.5-1.4 1.1v5.7c0 .6.5 1.1 1.4 1.1.9 0 1.4-.4 1.4-1.1v-1.4h1.4v1.3c0 1.2-.9 2.2-2.8 2.2zM118.8 83.3c-1.9 0-2.9-1.1-2.9-2.3v-5.4c0-1.3 1-2.3 2.9-2.3s2.8 1 2.8 2.3v1.3h-1.4v-1.4c0-.7-.5-1.1-1.4-1.1-.9 0-1.4.5-1.4 1.1v5.7c0 .6.5 1.1 1.4 1.1.9 0 1.4-.4 1.4-1.1v-1.4h1.4v1.3c.1 1.2-.9 2.2-2.8 2.2zM129.3 83.3c-1.9 0-2.9-1-2.9-2.4v-5.3c0-1.4 1-2.4 2.9-2.4s2.9 1 2.9 2.4v5.3c.1 1.4-1 2.4-2.9 2.4zm1.4-7.8c0-.7-.5-1.2-1.4-1.2-.9 0-1.4.5-1.4 1.2V81c0 .7.4 1.2 1.4 1.2.9 0 1.4-.5 1.4-1.2v-5.5zM143.8 83.1v-7.5l-.4 1.8-1.4 5.7h-1.5l-1.4-5.7-.4-1.8v7.5h-1.4v-9.8h2.2l1.4 6.1.4 1.8.4-1.8 1.4-6h2.2v9.8h-1.5zM153.5 79.1H152v4h-1.5v-9.8h3c1.6 0 2.5.7 2.5 2V77c-.1 1.5-1 2.1-2.5 2.1zm.9-3.8c0-.6-.3-.8-.9-.8H152v3.6h1.5c.7 0 .9-.3.9-.9v-1.9zM160.7 83.1v-9.8h1.5V82h3.2v1.1h-4.7zM170.1 83.1v-9.8h4.9v1.1h-3.3v3h2.4v1.1h-2.4V82h3.3v1.1h-4.9zM183.9 83.1l-1.6-3.8-1.6 3.8h-1.6l2.4-4.9-2.2-4.8h1.6l1.5 3.7 1.5-3.7h1.6l-2.3 4.7 2.3 5h-1.6zM190 83.1v-9.8h1.6v9.8H190zM199.8 74.5v8.6h-1.5v-8.6h-2.1v-1.1h5.7v1.1h-2.1zM209.6 79.3v3.9H208v-3.9l-2.4-5.9h1.6l1.7 4.5 1.7-4.5h1.5l-2.5 5.9z"/></g></svg>