<svg xmlns="http://www.w3.org/2000/svg" viewBox="0 0 1748.8 191.3" enable-background="new 0 0 1748.8 191.3"><path d="M239.2 83.1c-10.1 0-18.1-3.9-24.1-11-5.7-6.9-8.7-16.2-8.7-27.2 0-9.1 1.7-16.7 5.1-23.1 5.7-10.9 16.2-17.5 28.1-17.5 7.4 0 14.4 2.2 18.9 5.9l-5.8 8.4c-4.1-3-8.3-4.3-13-4.3-6.5 0-11.9 3.3-15.2 9.1-2.6 4.6-4 11-4 20 0 9.4 1 14.6 3 18.9 3.3 7.3 9.6 10.8 16.9 10.8 5.4 0 9.4-1.4 13.6-4.8l5.9 8c-5.8 4.6-12.5 6.8-20.7 6.8zM271.1 57.3v.9c0 7.7 2.9 15.8 13.8 15.8 5.2 0 9.7-1.9 13.9-5.5l4.7 7.4c-5.8 4.9-12.5 7.4-20 7.4-15.7 0-25.6-11.3-25.6-29.2 0-9.8 2.1-16.3 6.9-21.8 4.5-5.2 10-7.5 17.1-7.5 5.5 0 10.6 1.4 15.3 5.7 4.8 4.4 7.3 11.2 7.3 24.2v2.5h-33.4zM281.8 34c-6.8 0-10.6 5.4-10.6 14.4h20.6c0-9-4-14.4-10-14.4zM343.6 81.9v-37c0-7.6-1.8-9.7-6.4-9.7-3.5 0-8.6 2.6-12.2 6.3v40.4h-11.9v-41c0-5.8-.5-9.2-2.1-13.2l11-3.1c1.3 2.5 2 5 2 7.9 5.9-5.1 11.1-7.7 17-7.7 8.6 0 14.5 5.2 14.5 15.4v41.6h-11.9zM383.3 83.3c-10.8 0-14.5-6.4-14.5-14.3V34.6h-6.2v-8.4h6.2c0-4.7 0-9.6.6-13.8l12.4-3c-.5 4.5-1 11.2-1 16.7h13.3l-3.2 8.4h-10.2v31.2c0 6.9 1.5 8.9 6.8 8.9 1.7 0 3.1-.3 5.2-1.1l1.5 7.3c-3.6 1.7-7.1 2.5-10.9 2.5zM410.8 57.3v.9c0 7.7 2.9 15.8 13.8 15.8 5.2 0 9.7-1.9 13.9-5.5l4.7 7.4c-5.8 4.9-12.5 7.4-20 7.4-15.7 0-25.6-11.3-25.6-29.2 0-9.8 2.1-16.3 6.9-21.8 4.5-5.2 10-7.5 17-7.5 5.5 0 10.6 1.4 15.3 5.7 4.8 4.4 7.3 11.2 7.3 24.2v2.5h-33.3zM421.5 34c-6.8 0-10.6 5.4-10.6 14.4h20.6c0-9-4-14.4-10-14.4zM478.8 36.8c-1.2-.4-2.1-.8-3.4-.8-5.1 0-9.4 3.7-10.5 8.2v37.6h-12.1V42.6c0-7-.8-11.6-2-15l11.1-2.9c1.3 2.5 2.1 5.7 2.1 8.8 4.4-6 8.8-8.9 14.2-8.9 1.8 0 2.9.2 4.3.9l-3.7 11.3zM530.5 11.9c-2.8-1.3-4.4-2-6.7-2-4.2 0-6.8 2.9-6.8 7.8v8.5h14.5l-3.1 8.4h-11.3v47.3h-12V34.6h-5.2v-8.4h5.4s-.3-3.1-.3-8.2c0-11.6 7-17 16.9-17 4.7 0 8.7 1 12.5 3.2l-3.9 7.7zM552.9 83.3c-15.1 0-24.5-11.3-24.5-29.2 0-17.8 9.6-29.3 24.3-29.3 15.8 0 24.9 11.8 24.9 29.4 0 18-9.6 29.1-24.7 29.1zm-.1-49.3c-7.7 0-11 5.8-11 19.4 0 16.2 4.1 20.9 11.3 20.9 7.2 0 11.1-5.8 11.1-19.8.1-15.8-4.3-20.5-11.4-20.5zM610.7 36.8c-1.2-.4-2.1-.8-3.4-.8-5.1 0-9.4 3.7-10.5 8.2v37.6h-12.1V42.6c0-7-.8-11.6-2-15l11.1-2.9c1.3 2.5 2.1 5.7 2.1 8.8 4.4-6 8.8-8.9 14.2-8.9 1.8 0 2.9.2 4.3.9l-3.7 11.3zM637 81.9V5.7h13v76.1h-13zM693.6 81.9v-37c0-7.6-1.8-9.7-6.4-9.7-3.5 0-8.6 2.6-12.2 6.3v40.4h-11.9v-41c0-5.8-.5-9.2-2.1-13.2l11-3.1c1.3 2.5 2 5 2 7.9 5.9-5.1 11.1-7.7 17-7.7 8.6 0 14.5 5.2 14.5 15.4v41.6h-11.9zM731.1 83.3c-10.8 0-14.5-6.4-14.5-14.3V34.6h-6.2v-8.4h6.2c0-4.7 0-9.6.6-13.8l12.4-3c-.5 4.5-1 11.2-1 16.7h13.3l-3.2 8.4h-10.2v31.2c0 6.9 1.5 8.9 6.8 8.9 1.7 0 3.1-.3 5.2-1.1l1.5 7.3c-3.6 1.7-7.1 2.5-10.9 2.5zM756.4 57.3v.9c0 7.7 2.9 15.8 13.8 15.8 5.2 0 9.7-1.9 13.9-5.5l4.7 7.4c-5.8 4.9-12.5 7.4-20 7.4-15.7 0-25.6-11.3-25.6-29.2 0-9.8 2.1-16.3 6.9-21.8 4.5-5.2 10-7.5 17-7.5 5.5 0 10.6 1.4 15.3 5.7 4.8 4.4 7.3 11.2 7.3 24.2v2.5h-33.3zM767.1 34c-6.8 0-10.6 5.4-10.6 14.4h20.6c0-9-4-14.4-10-14.4zM822.2 36.8c-1.2-.4-2.1-.8-3.4-.8-5.1 0-9.4 3.7-10.5 8.2v37.6h-12.1V42.6c0-7-.8-11.6-2-15l11.1-2.9c1.3 2.5 2.1 5.7 2.1 8.8 4.4-6 8.8-8.9 14.2-8.9 1.8 0 2.9.2 4.3.9l-3.7 11.3zM859.7 81.9v-37c0-7.6-1.8-9.7-6.4-9.7-3.5 0-8.6 2.6-12.2 6.3v40.4h-11.9v-41c0-5.8-.5-9.2-2.1-13.2l11-3.1c1.3 2.5 2 5 2 7.9 5.9-5.1 11.1-7.7 17-7.7 8.6 0 14.5 5.2 14.5 15.4v41.6h-11.9zM920.2 84.2c-3.4-1.3-6.3-4-7.6-7.5-4.5 5.1-9.4 6.8-15.3 6.8-12.8 0-18.5-7-18.5-16.7 0-12.9 9.7-19.4 27.5-19.4h3.7v-3c0-6.4-1.1-9.8-7.7-9.8-8 0-16.6 6.4-16.6 6.4l-5.4-8.7c8.4-5.3 15.3-7.6 23.7-7.6 8.7 0 14.5 3.2 16.9 9.2 1 2.4 1 5.4.9 13.6l-.2 16c-.1 7.5.5 9.9 4.8 12.9l-6.2 7.8zm-12.5-28.6c-12.1 0-15.7 3.5-15.7 10.6 0 5.3 2.9 8.6 7.7 8.6 3.9 0 7.6-2.3 10-5.8l.2-13.2c0-.1-1.3-.2-2.2-.2zM949.5 83.3c-10.8 0-14.5-6.4-14.5-14.3V34.6h-6.2v-8.4h6.2c0-4.7 0-9.6.6-13.8l12.4-3c-.5 4.5-1 11.2-1 16.7h13.3l-3.2 8.4h-10.2v31.2c0 6.9 1.5 8.9 6.8 8.9 1.7 0 3.1-.3 5.2-1.1l1.5 7.3c-3.7 1.7-7.2 2.5-10.9 2.5zM973 17.9c-4.4 0-7.8-3.6-7.8-8 0-4.5 3.5-8.1 8-8.1 4.3 0 7.9 3.5 7.9 8.1.1 4.4-3.6 8-8.1 8zm-6 64V27.1l12.2-2.2v57H967zM1013 83.3c-15.1 0-24.5-11.3-24.5-29.2 0-17.8 9.6-29.3 24.3-29.3 15.8 0 24.9 11.8 24.9 29.4 0 18-9.6 29.1-24.7 29.1zm-.1-49.3c-7.7 0-11 5.8-11 19.4 0 16.2 4.1 20.9 11.3 20.9 7.2 0 11.1-5.8 11.1-19.8.1-15.8-4.3-20.5-11.4-20.5zM1075.3 81.9v-37c0-7.6-1.8-9.7-6.4-9.7-3.5 0-8.6 2.6-12.2 6.3v40.4h-11.9v-41c0-5.8-.5-9.2-2.1-13.2l11-3.1c1.3 2.5 2 5 2 7.9 5.9-5.1 11.1-7.7 17-7.7 8.6 0 14.5 5.2 14.5 15.4v41.6h-11.9zM1138 84.2c-3.4-1.3-6.3-4-7.6-7.5-4.5 5.1-9.4 6.8-15.3 6.8-12.8 0-18.5-7-18.5-16.7 0-12.9 9.7-19.4 27.5-19.4h3.7v-3c0-6.4-1.1-9.8-7.7-9.8-8 0-16.6 6.4-16.6 6.4l-5.4-8.7c8.4-5.3 15.3-7.6 23.7-7.6 8.7 0 14.5 3.2 16.9 9.2 1 2.4 1 5.4.9 13.6l-.2 16c-.1 7.5.5 9.9 4.8 12.9l-6.2 7.8zm-12.5-28.6c-12.1 0-15.7 3.5-15.7 10.6 0 5.3 2.9 8.6 7.7 8.6 3.9 0 7.6-2.3 10-5.8l.2-13.2c0-.1-1.4-.2-2.2-.2zM1162.8 83.1c-12.2 0-12.2-11-12.2-15.7V19.9c0-7.6-.3-11.7-1.1-16.3l12.4-2.8c.9 3.4 1 8 1 15.3v47.2c0 7.5.3 8.7 1.2 10 .7 1 2.5 1.5 4 .9l2 7.5c-2.3.9-4.6 1.4-7.3 1.4zM1241.3 71.2c-6.4 8.1-13 10.7-27.2 10.7h-18.8V5.7h15.8c14.3 0 22.8 2.6 29.9 10.8 5.6 6.5 8.2 15.6 8.2 27.5.1 11.6-2.7 20.6-7.9 27.2zm-10.9-48.9c-3.5-4.8-7.5-6.6-14.3-6.6h-8v55.8h8.4c13.4 0 18.8-8.9 18.8-26.2-.1-9.8-.9-17.6-4.9-23zM1267 57.3v.9c0 7.7 2.9 15.8 13.8 15.8 5.2 0 9.7-1.9 13.9-5.5l4.7 7.4c-5.8 4.9-12.5 7.4-20 7.4-15.7 0-25.6-11.3-25.6-29.2 0-9.8 2.1-16.3 6.9-21.8 4.5-5.2 10-7.5 17-7.5 5.5 0 10.6 1.4 15.3 5.7 4.8 4.4 7.3 11.2 7.3 24.2v2.5H1267zm10.7-23.3c-6.8 0-10.6 5.4-10.6 14.4h20.6c0-9-3.9-14.4-10-14.4zM1331.5 82.1h-10.7l-20-55.4 12.4-1.8 9.7 30c1.9 5.8 3.4 12.4 3.4 12.4h.2s1.2-6.6 3.3-12.9l9.2-28.3h12.7l-20.2 56zM1366.7 57.3v.9c0 7.7 2.9 15.8 13.8 15.8 5.2 0 9.7-1.9 13.9-5.5l4.7 7.4c-5.8 4.9-12.5 7.4-20 7.4-15.7 0-25.6-11.3-25.6-29.2 0-9.8 2.1-16.3 6.9-21.8 4.5-5.2 10-7.5 17-7.5 5.5 0 10.6 1.4 15.3 5.7 4.8 4.4 7.3 11.2 7.3 24.2v2.5h-33.3zm10.7-23.3c-6.8 0-10.6 5.4-10.6 14.4h20.6c0-9-4-14.4-10-14.4zM1420.9 83.1c-12.2 0-12.2-11-12.2-15.7V19.9c0-7.6-.3-11.7-1.1-16.3L1420 .8c.9 3.4 1 8 1 15.3v47.2c0 7.5.3 8.7 1.2 10 .7 1 2.5 1.5 4 .9l2 7.5c-2.2.9-4.5 1.4-7.3 1.4zM1452.7 83.3c-15.1 0-24.5-11.3-24.5-29.2 0-17.8 9.6-29.3 24.3-29.3 15.8 0 24.9 11.8 24.9 29.4 0 18-9.6 29.1-24.7 29.1zm-.1-49.3c-7.7 0-11 5.8-11 19.4 0 16.2 4.1 20.9 11.3 20.9 7.2 0 11.1-5.8 11.1-19.8 0-15.8-4.4-20.5-11.4-20.5zM1509.1 83c-4.7 0-9.3-1.5-13.2-4.5 0 0 .2 2.4.2 5.5v18.6l-11.7 3v-65c0-6.9-.3-9.8-1.1-13.9l11.1-2c.5 1.9.8 3.4.9 6.8 3.5-4.3 9-6.6 14.8-6.6 11.2 0 21 8.5 21 27.8.2 18.6-7.8 30.3-22 30.3zm-1.2-48c-4.4 0-8.5 2-11.8 5.7v27.7c2.9 2.9 6.7 4.9 10.3 4.9 8.1 0 11.8-6 11.8-19.2.1-12.4-2.3-19.1-10.3-19.1zM1597.3 81.9V43.4c0-6.5-1.4-8.4-5.7-8.4-4.1 0-7.9 2.8-11.8 6.4v40.5h-11.5V43.7c0-6.5-1.4-8.6-6-8.6-3.4 0-7.4 1.8-11.4 5.5v41.2H1539V41.9c0-6.9-.7-11.1-2-14.1l11-3.1c1.1 1.8 1.8 4.1 2 7.1 4.4-4.5 9.6-7 14.7-7 5 0 9.2 1.7 13.3 8.1 5.4-5.5 10.7-8.1 16.6-8.1 9.1 0 14.5 4.7 14.5 16.3v40.7h-11.8zM1627.9 57.3v.9c0 7.7 2.9 15.8 13.8 15.8 5.2 0 9.7-1.9 13.9-5.5l4.7 7.4c-5.8 4.9-12.5 7.4-20 7.4-15.7 0-25.6-11.3-25.6-29.2 0-9.8 2.1-16.3 6.9-21.8 4.5-5.2 10-7.5 17-7.5 5.5 0 10.6 1.4 15.3 5.7 4.8 4.4 7.3 11.2 7.3 24.2v2.5h-33.3zm10.7-23.3c-6.8 0-10.6 5.4-10.6 14.4h20.6c0-9-3.9-14.4-10-14.4zM1700.4 81.9v-37c0-7.6-1.8-9.7-6.4-9.7-3.5 0-8.6 2.6-12.2 6.3v40.4H1670v-41c0-5.8-.5-9.2-2.1-13.2l11-3.1c1.3 2.5 2 5 2 7.9 5.9-5.1 11.1-7.7 17-7.7 8.6 0 14.5 5.2 14.5 15.4v41.6h-12zM1737.9 83.3c-10.8 0-14.5-6.4-14.5-14.3V34.6h-6.2v-8.4h6.2c0-4.7 0-9.6.6-13.8l12.4-3c-.5 4.5-1 11.2-1 16.7h13.3l-3.2 8.4h-10.2v31.2c0 6.9 1.5 8.9 6.8 8.9 1.7 0 3.1-.3 5.2-1.1l1.5 7.3c-3.6 1.7-7.1 2.5-10.9 2.5z"/><path fill="#B3525A" d="M245.2 164c-4.9 5.9-10.5 8.8-12.9 8.8-1.7 0-3.3-1.1-2-7.7l1.1-5.3h-.2c-2.8 4-5.9 7-8.5 9.2-2.4 2-5.5 3.8-8 3.8-2.7 0-5.1-3.1-5.1-9.3 0-7.6 3.6-15.7 8.9-20.4 3.7-3.2 10.1-6.6 16-6.6 1.6 0 3.2.2 4.9.5 1.6.3 2.8.5 4 .5l.4.3c-1.6 6-3.6 15.2-5.2 24.6-.5 2.5-.3 3.2.2 3.2.7 0 3.4-2 5.4-3.9l1 2.3zm-12.8-10.4c1-3.6 2.3-9.8 2.7-12.2-1-.5-3-1.1-4.8-1.1-1.6 0-3 .5-4.1 1.3-5.1 3.7-7.8 13.2-7.8 20.2 0 3.3.7 4.7 1.8 4.7 2.9 0 10.4-9.1 12.2-12.9zM271.1 141l-7.4.4-4.2 20.4c-.8 3.6-.4 4.6.4 4.6 1.2 0 4.7-2.3 6.6-4.2l1.2 1.9c-2.8 3.7-9.4 8.8-13.7 8.8-2.5 0-4.1-2.6-2.4-10.8l4.4-20.7h-5.7l-.3-.8 2.1-2.7h4.7l1.7-7.3 8-5.4.9.6-2.7 12h8.7l-2.3 3.2zM349.8 123.7c-5.9.5-6.4 1.2-7.6 7.3l-6 31c-1.2 6.2-.8 6.9 5.5 7.4l-.5 2.4H319l.5-2.4c6.2-.5 6.7-1.2 7.9-7.4l2.8-15.1h-22.4L305 162c-1.2 6.2-.7 6.9 5.5 7.4l-.5 2.4h-21.8l.5-2.4c5.9-.5 6.2-1.2 7.4-7.4l6.1-31c1.2-6.2.5-6.8-5.8-7.3l.5-2.4h21.8l-.6 2.4c-5.5.5-6.1 1.2-7.3 7.3l-2.3 12.2H331l2.3-12.2c1.2-6.2.7-6.8-5.3-7.3l.6-2.4h21.7l-.5 2.4zM383.8 164c-4.9 5.9-10.5 8.8-12.9 8.8-1.7 0-3.3-1.1-2-7.7l1.1-5.3h-.2c-2.8 4-5.9 7-8.5 9.2-2.4 2-5.5 3.8-8 3.8-2.7 0-5.1-3.1-5.1-9.3 0-7.6 3.6-15.7 8.9-20.4 3.7-3.2 10.1-6.6 16-6.6 1.6 0 3.2.2 4.9.5 1.6.3 2.8.5 4 .5l.4.3c-1.6 6-3.6 15.2-5.2 24.6-.5 2.5-.3 3.2.2 3.2.7 0 3.4-2 5.4-3.9l1 2.3zM371 153.6c1-3.6 2.3-9.8 2.7-12.2-1-.5-3-1.1-4.8-1.1-1.6 0-3 .5-4.1 1.3-5.1 3.7-7.8 13.2-7.8 20.2 0 3.3.7 4.7 1.8 4.7 2.8 0 10.4-9.1 12.2-12.9zM391.1 144.6c4.4-4.6 9.4-8 12.1-8 2.3 0 2.7 2.9 1.4 9l-.7 3.6h.3c3.7-7.2 8-12.6 11.3-12.6 1.4 0 2.8.8 3.6 2 .9 1.2.7 2.8-.2 4.3-.9 1.3-1.6 2.3-2.5 2.9-.7.5-1.3.5-1.9.1-1-.9-2-1.4-3-1.4-.9 0-1.8.5-3.4 2.7-1.9 2.7-4 6.3-4.8 9-1 4.5-2.2 10.5-3 15.1-2.5.2-5.6.9-7.7 1.6l-.5-.7c2-8.2 3.8-16.8 5.4-25.1.5-2.6.4-3.6-.2-3.6-.7 0-3.4 1.6-5.1 3.2l-1.1-2.1zM438.2 163.4c3.6-4.5 10.1-12.9 10.1-18.2 0-1.5-.4-2.7-.9-3.7-.2-.5-.2-1.2 0-1.9.5-1.7 2.1-3.1 4.2-3.1s3.8 1.9 3.9 4.8c0 2.5-1.2 5.4-5 10.5-4.7 6.4-12.1 15.8-16.5 20.9h-2.8c-.3-6.6-1.3-19.3-2-24.6-.5-3.8-.9-4.9-1.5-4.9s-2.3 1.3-4.3 3.7l-1.4-2c3.4-4.6 7.8-8.3 10.7-8.3 2.6 0 3.7 3.1 4.2 9.2.4 6 .9 12.9 1.2 17.6h.1zM491.5 164c-4.9 5.9-10.5 8.8-12.9 8.8-1.7 0-3.3-1.1-2-7.7l1.1-5.3h-.2c-2.8 4-5.9 7-8.5 9.2-2.4 2-5.5 3.8-8 3.8-2.7 0-5.1-3.1-5.1-9.3 0-7.6 3.6-15.7 8.9-20.4 3.7-3.2 10.1-6.6 16-6.6 1.6 0 3.2.2 4.9.5 1.6.3 2.8.5 4 .5l.4.3c-1.6 6-3.6 15.2-5.2 24.6-.5 2.5-.3 3.2.2 3.2.7 0 3.4-2 5.4-3.9l1 2.3zm-12.8-10.4c1-3.6 2.3-9.8 2.7-12.2-1-.5-3-1.1-4.8-1.1-1.6 0-3 .5-4.1 1.3-5.1 3.7-7.8 13.2-7.8 20.2 0 3.3.7 4.7 1.8 4.7 2.8 0 10.4-9.1 12.2-12.9zM498 144.6c4.4-4.6 9.4-8 12.1-8 2.3 0 2.7 2.9 1.4 9l-.7 3.6h.3c3.7-7.2 8-12.6 11.3-12.6 1.4 0 2.8.8 3.6 2 .9 1.2.7 2.8-.2 4.3-.9 1.3-1.6 2.3-2.5 2.9-.7.5-1.3.5-1.9.1-1-.9-2-1.4-3-1.4-.9 0-1.8.5-3.4 2.7-1.9 2.7-4 6.3-4.8 9-1 4.5-2.2 10.5-3 15.1-2.5.2-5.6.9-7.7 1.6l-.5-.7c2-8.2 3.8-16.8 5.4-25.1.5-2.6.4-3.6-.2-3.6-.7 0-3.4 1.6-5.1 3.2l-1.1-2.1zM562 164.4c-4.8 5.8-10.4 8.4-12.7 8.4-1.9 0-3.3-1.2-2-7.4l1.1-5.6h-.2c-3.1 4.1-6.6 7.3-9.4 9.6-2.7 2.1-5.2 3.4-7.6 3.4-3.1 0-5.8-3.3-5.8-9.7 0-7.4 3.4-15.7 9-20.4 3.8-3.2 10.5-6.1 14-6.1 1.3 0 2.5 0 4.4.6l2.3-11.5c.7-3.4.2-3.8-3.3-3.8l-1.8-.1.4-2.3c7.4-.7 12.1-2.7 13.5-2.7.9 0 1 .6.5 2.5-3.5 15.2-6.4 29.3-9 43.7-.5 2.2-.4 3 .2 3 .8 0 3-1.5 5.1-3.6l1.3 2zm-12.6-10.9l2.3-11.2c-1.4-1.3-3.9-2.2-5.8-2.2-1.7 0-2.9.4-4 1.2-4.9 3.6-7.6 14-7.6 20.1 0 3.4 1 5 2.3 5 3.4.1 10.3-8.3 12.8-12.9zM640.7 123.7c-4.7.2-6 1.4-7 4.8-.9 2.5-1.8 6.4-3 13l-1.4 7.1c-1.5 7.4-3.7 14.4-8.9 19.2-3.7 3.7-8.8 5.3-13.7 5.3-4.8 0-9.4-1.2-12.7-4.2-3.7-3.4-5.4-9-3.6-18.9l3.6-18.8c1.2-6.2.7-6.9-5.3-7.5l.6-2.4h21.5l-.5 2.4c-5.5.5-6.2 1-7.3 7.5l-3.6 18.8c-2.5 13 2.3 18.3 9.8 18.3 8.8 0 14.1-6.8 16.7-20.6l1.2-6.2c1.2-6.6 1.7-10.5 1.9-13.2.2-3.4-1.6-4.3-7-4.6l.6-2.4h18.9l-.8 2.4zM672.1 164.8c-5.5 5.7-10.1 8-12.6 8-2.1 0-3.4-1.8-2-8.3 1.3-5.5 2.7-11.1 3.9-16.6 1-4.1.6-5.1-.4-5.1-2.9 0-10.7 8.7-13.8 14.2-1.1 4.1-2.3 9.3-3.2 14.2-2.7.3-5.7.9-7.7 1.6l-.5-.7c2-8.1 4.1-16.8 6-25.7.5-2.4.5-3-.1-3-.7 0-3.3 1.6-5 3.3l-1.1-2.2c5-5.1 9.8-7.8 12.5-7.8 2 0 2.8 2.4 1.2 9.4l-1.2 4.9h.2c4.3-5.9 9-9.9 12.4-12.2 2.2-1.4 4.3-2.2 6-2.2 2.4 0 4.8 1.3 2.4 11.7-1.2 4.8-2.3 9.8-3.4 14.8-.5 2-.4 2.8.2 2.8.6 0 2.9-1.5 4.8-3.4l1.4 2.3zM695.4 164.5c-4.4 5-10.4 8.3-12.9 8.3-2 0-3.5-1.5-1.9-8.1l4.4-18.4c.4-1.9.5-2.7-.1-2.7s-2.9 1.3-4.9 3l-1-2c5.1-4.8 10.8-8 13.3-8 2 0 2.3 2.8 1.2 7.2l-4.8 19.3c-.5 2.1-.3 2.9.2 2.9.8 0 3-1.5 5.1-3.3l1.4 1.8zm1.4-39c0 2.9-2.3 5.5-5.3 5.5-2.4 0-3.9-1.6-3.9-4.3-.1-2.3 1.8-5.4 5.2-5.4 2.7 0 4 2 4 4.2zM715.4 163.4c3.6-4.5 10.1-12.9 10.1-18.2 0-1.5-.4-2.7-.9-3.7-.2-.5-.2-1.2 0-1.9.5-1.7 2.1-3.1 4.2-3.1s3.8 1.9 3.9 4.8c0 2.5-1.2 5.4-5 10.5-4.7 6.4-12.1 15.8-16.5 20.9h-2.8c-.3-6.6-1.3-19.3-2-24.6-.5-3.8-.9-4.9-1.5-4.9s-2.3 1.3-4.3 3.7l-1.4-2c3.4-4.6 7.8-8.3 10.7-8.3 2.6 0 3.7 3.1 4.2 9.2.4 6 .9 12.9 1.2 17.6h.1zM760.3 163.4c-6.9 7.3-12.9 9.4-17.7 9.4-4.2 0-9.2-2.3-9.2-11.6 0-7.3 3.3-15.2 9.2-19.8 3.2-2.5 8.1-4.8 12-4.8 5 0 7.6 3 7.6 6.6 0 7.9-12.6 11.9-20.3 13.9-.1.9-.1 1.6-.1 2.3 0 4.1 1.4 7.9 5.7 7.9 3.1 0 7.5-2.3 11.2-5.9l1.6 2zm-11.6-22.5c-1.9 1.2-5.2 5.2-6.4 13.4 9.4-2.7 12.4-6.1 12.4-10.1 0-3-1.9-4.2-3.3-4.2-.8 0-1.9.3-2.7.9zM768.5 144.6c4.4-4.6 9.4-8 12.1-8 2.3 0 2.7 2.9 1.4 9l-.7 3.6h.3c3.7-7.2 8-12.6 11.3-12.6 1.4 0 2.8.8 3.6 2 .9 1.2.7 2.8-.2 4.3-.9 1.3-1.6 2.3-2.5 2.9-.7.5-1.3.5-1.9.1-1-.9-2-1.4-3-1.4-.9 0-1.8.5-3.4 2.7-1.9 2.7-4 6.3-4.8 9-1 4.5-2.2 10.5-3 15.1-2.5.2-5.6.9-7.7 1.6l-.5-.7c2-8.2 3.8-16.8 5.4-25.1.5-2.6.4-3.6-.2-3.6-.7 0-3.4 1.6-5.1 3.2l-1.1-2.1zM794.8 166.7c-.1-1.6 1.2-3.2 2.5-4 1.2-.7 1.9-.6 2.4.2 2.6 3.4 5.9 5.5 8.4 5.5 2.4 0 4.1-1.6 4.1-3.5 0-1.7-1-3.2-4.8-6.1-3.4-2.6-7.5-5.5-7.5-10 0-2.7 1-5.4 4.6-8.3 2.7-2.3 6.4-3.9 9.3-3.9 3.9 0 6.8 2.3 6.8 4.8 0 1.5-.9 3-2.4 3.9-.9.6-1.6.5-2-.2-1.6-2.1-3.8-4.1-6.7-4.1-2 0-3.4 1.3-3.4 3.4.1 2.3 2.4 4.4 5.4 6.4 4.5 3.1 7.2 5.8 7.2 9.7 0 6.6-8.6 12.4-15.1 12.4-4.2-.1-8.7-2.8-8.8-6.2zM843.4 164.5c-4.4 5-10.4 8.3-12.9 8.3-2 0-3.5-1.5-1.9-8.1l4.4-18.4c.4-1.9.5-2.7-.1-2.7s-2.9 1.3-4.9 3l-1-2c5.1-4.8 10.8-8 13.3-8 2 0 2.3 2.8 1.2 7.2l-4.8 19.3c-.5 2.1-.3 2.9.2 2.9.8 0 3-1.5 5.1-3.3l1.4 1.8zm1.4-39c0 2.9-2.3 5.5-5.3 5.5-2.4 0-3.9-1.6-3.9-4.3-.1-2.3 1.8-5.4 5.2-5.4 2.7 0 4 2 4 4.2zM870.3 141l-7.4.4-4.2 20.4c-.8 3.6-.4 4.6.4 4.6 1.2 0 4.7-2.3 6.6-4.2l1.2 1.9c-2.8 3.7-9.4 8.8-13.7 8.8-2.5 0-4.1-2.6-2.4-10.8l4.4-20.7h-5.7l-.3-.8 2.1-2.7h4.7l1.7-7.3 8-5.4.9.6-2.7 12h8.7l-2.3 3.2zM889.8 165c3.8-5.8 9.2-14 9.1-19.5 0-1.9-.6-3-1-4.1-.3-.8-.2-1.6.2-2.4.8-1.5 2.3-2.4 3.8-2.4 1.9 0 3.7 1.7 3.8 4.9 0 2.2-.9 5-3 8.5-3.5 6-8.8 13.9-13.2 20-4.5 6.6-9.4 13.1-14.4 18.9l-9.5 2.3-.6-2c8.2-5.4 13.5-10.3 17.6-15.8.1-6.2-1.3-19-2.7-26.1-.5-3.1-1.1-4-1.6-4s-2.2 1.3-4.3 4.2l-1.6-2c3-4.8 7.3-9.1 10.5-9.1 2.6 0 4.1 2.8 4.9 10 .8 6.2 1.2 11.8 1.6 18.4h.4z"/><path d="M5 5v59.5c0 2.3.4 9.8 1.7 15.5 4.7 21.4 21.2 62.4 70.4 95.6 49.2-33.2 65.7-74.2 70.4-95.6 1.2-5.7 1.7-13.2 1.7-15.5V5H5z"/><path stroke="#000" stroke-width="10" d="M5 5v59.5c0 2.3.4 9.8 1.7 15.5 4.7 21.4 21.2 62.4 70.4 95.6 49.2-33.2 65.7-74.2 70.4-95.6 1.2-5.7 1.7-13.2 1.7-15.5V5H5z" fill="none"/><path fill="#B3525A" d="M5 5v59.5c0 2.3.4 9.8 1.7 15.5 4.7 21.4 21.2 62.4 70.4 95.6 49.2-33.2 65.7-74.2 70.4-95.6 1.2-5.7 1.7-13.2 1.7-15.5V5H5z"/><path fill="#fff" d="M85 70.4c-.3 0-.6-.3-.6-.6v-8.9h-.3c-1.2 0-2.3 0-3.1-.4-1-.4-1.4-1.2-1.4-2.4 0-2.9 2.3-2.9 4.1-2.9h.8V34.8h-.9c-1.2 0-2.1-.1-2.7-.4-.8-.4-1.2-1.2-1.2-2.4 0-2.7 2.2-2.7 3.4-2.7h1.4V23c0-.3.3-.6.6-.6h55.4c.3 0 .6.3.6.6v6.3h1.2c1.6 0 3.7 0 3.7 2.7 0 2.9-2.3 2.9-4 2.9h-.8v20.4h.9c1.7 0 3.9 0 3.9 2.9 0 2.8-2.3 2.8-3.7 2.8h-1.2v8.9c0 .3-.3.6-.6.6H85z"/><path d="M140.4 23.1V30h1.8c2 0 3.1.2 3.1 2 0 2.1-1.3 2.2-3.4 2.2h-1.4v21.7h1.5c2.1 0 3.3.3 3.3 2.3 0 1.9-1.2 2.1-3.1 2.1h-1.8v9.5H85v-9.5h-1c-2.4 0-3.9-.1-3.9-2.1 0-2.1 1.4-2.2 3.4-2.2h1.4V34.3h-1.5c-2.1 0-3.3-.2-3.3-2.2 0-1.8 1.1-2.1 2.8-2.1H85v-6.9h55.4m0-1.2H85c-.7 0-1.2.6-1.2 1.2v5.6H83c-1.2 0-4 0-4 3.3 0 3.5 2.9 3.5 4.5 3.5h.3v19.1h-.1c-1.6 0-4.7 0-4.7 3.5 0 3.2 2.8 3.4 4.9 3.4v8.2c0 .7.6 1.2 1.2 1.2h55.4c.7 0 1.2-.6 1.2-1.2v-8.2h.5c1.4 0 4.4 0 4.4-3.4 0-3.5-3-3.5-4.6-3.5h-.3V35.5h.2c1.6 0 4.6 0 4.6-3.5 0-3.3-2.8-3.3-4.3-3.3h-.5v-5.6c0-.7-.6-1.2-1.3-1.2z"/><path fill="#fff" d="M14 70.4c-.3 0-.6-.3-.6-.6v-8.9h-.3c-1.2 0-2.3 0-3.1-.4-1-.4-1.5-1.2-1.5-2.4 0-2.9 2.3-2.9 4-2.9h.8V34.8h-.9c-1.2 0-2.1-.1-2.7-.4-.8-.4-1.2-1.2-1.2-2.4 0-2.7 2.2-2.7 3.4-2.7h1.4V23c0-.3.3-.6.6-.6h55.4c.3 0 .6.3.6.6v6.3H71c1.6 0 3.7 0 3.7 2.7 0 2.9-2.4 2.9-4.1 2.9h-.7v20.4h.9c2.1 0 3.9.2 3.9 2.9 0 2.8-2.3 2.8-3.8 2.8h-1.1v8.9c0 .3-.3.6-.6.6H14z"/><path d="M69.3 23.1V30h1.8c2 0 3.1.2 3.1 2 0 2.1-1.4 2.2-3.4 2.2h-1.4v21.7h1.5c2.1 0 3.3.3 3.3 2.3 0 1.9-1.2 2.2-3.2 2.2h-1.7v9.5H14v-9.5h-.9c-2.4 0-4-.1-4-2.1 0-2.1 1.3-2.2 3.4-2.2h1.4V34.4h-1.5c-2.1 0-3.3-.2-3.3-2.2 0-1.8 1.1-2.1 2.8-2.1H14v-6.9h55.3m0-1.4H14c-.7 0-1.2.6-1.2 1.2v5.6H12c-1.2 0-4 0-4 3.3 0 3.5 2.9 3.5 4.5 3.5h.3v19.1h-.2c-1.6 0-4.7 0-4.7 3.5 0 3.2 2.8 3.4 4.9 3.4v8.2c0 .7.6 1.2 1.2 1.2h55.4c.7 0 1.2-.6 1.2-1.2v-8.2h.5c1.4 0 4.4 0 4.4-3.4 0-3.5-3-3.5-4.6-3.5h-.2V35.4h.1c1.6 0 4.7 0 4.7-3.5 0-3.3-2.8-3.3-4.4-3.3h-.5V23c0-.6-.6-1.2-1.3-1.2z"/><path fill="#fff" d="M49.4 141c-.3 0-.6-.3-.6-.6v-8.9h-.3c-1.2 0-2.3 0-3.1-.4-1-.4-1.5-1.2-1.5-2.4 0-2.9 2.3-2.9 4-2.9h.8v-20.4h-.9c-1.2 0-2.1-.1-2.7-.4-.8-.4-1.2-1.2-1.2-2.4 0-2.7 2.2-2.7 3.4-2.7h1.4v-6.3c0-.3.3-.6.6-.6h55.4c.3 0 .6.3.6.6v6.3h1.2c1.6 0 3.7 0 3.7 2.7 0 2.9-2.4 2.9-4.1 2.9h-.7v20.4h.9c1.6 0 3.9 0 3.9 2.9 0 2.8-2.3 2.8-3.8 2.8h-1.1v8.9c0 .3-.3.6-.6.6H49.4z"/><path d="M104.8 93.7v6.9h1.8c2 0 3.1.2 3.1 2 0 2.1-1.4 2.2-3.4 2.2h-1.4v21.7h1.5c2.1 0 3.3.3 3.3 2.3 0 1.9-1.2 2.1-3.2 2.1h-1.7v9.5H49.4v-9.5h-.9c-2.4 0-4-.1-4-2.1 0-2.1 1.4-2.2 3.4-2.2h1.4v-21.7h-1.5c-2.1 0-3.3-.2-3.3-2.2 0-1.8 1.1-2.1 2.8-2.1h2.1v-6.9h55.4m0-1.2H49.4c-.7 0-1.2.6-1.2 1.2v5.6h-.8c-1.2 0-4 0-4 3.3 0 3.5 2.9 3.5 4.5 3.5h.3v19.1h-.1c-1.6 0-4.7 0-4.7 3.5 0 3.2 2.8 3.4 4.9 3.4v8.2c0 .7.6 1.2 1.2 1.2h55.4c.7 0 1.2-.6 1.2-1.2v-8.2h.5c1.4 0 4.4 0 4.4-3.4 0-3.5-3.1-3.5-4.5-3.5h-.3v-19.1h.1c1.6 0 4.7 0 4.7-3.5 0-3.3-2.8-3.3-4.3-3.3h-.5v-5.6c-.2-.7-.7-1.2-1.4-1.2z"/><path fill="#fff" d="M140.4 23.1V30c3 0 4.9-.3 4.9 2 0 2.5-1.9 2.2-4.8 2.2v21.7c3.1 0 4.8-.2 4.8 2.2 0 2.5-2 2.1-4.9 2.1v9.5H85v-9.5c-3 0-4.9.1-4.9-2.1 0-2.5 2-2.2 4.8-2.2V34.2c-3 0-4.8.3-4.8-2.2s2-2 4.9-2v-6.9h55.4M137.2 23.4v42.9H87.7V23.4l3.3-2.9c3.3.7 7.8 1.7 10 .9 3.6-1.4 9-1 11.8 1 2.8-2.1 7.5-2.4 11.1-1 2.1.8 6.7-.2 10-.9l3.3 2.9"/><path fill="#fff" stroke="#000" stroke-width="1.25" stroke-linecap="round" stroke-linejoin="round" stroke-miterlimit="3.864" d="M137.2 23.4v42.9H87.7V23.4l3.3-2.9c3.3.7 7.8 1.7 10 .9 3.6-1.4 9-1 11.8 1 2.8-2.1 7.5-2.4 11.1-1 2.1.8 6.7-.2 10-.9l3.3 2.9z"/><path stroke="#000" stroke-width="1.25" stroke-linejoin="round" stroke-miterlimit="3.864" fill="none" d="M87.7 66.5l3.3-3.6"/><path stroke="#000" stroke-width="1.25" stroke-miterlimit="3.864" fill="none" d="M136.8 66.2l-3-3.3"/><path fill="#fff" stroke="#000" stroke-width="1.25" stroke-linecap="round" stroke-linejoin="round" stroke-miterlimit="3.864" d="M133.8 20.5c-3.3.7-7.8 1.7-10 .9-3.6-1.4-8.4-1-11.1 1-2.8-2.1-8.2-2.4-11.8-1-2.1.8-6.7-.2-10-.9v42.4c3.3.7 4.3 1.7 6.5 1.2 3.6-.9 12.1-1.9 14.9.2 2.7-2.1 11.3-1.1 14.9-.2 2.2.6 3.3-.5 6.5-1.2V20.5z"/><path stroke="#000" stroke-width="1.25" stroke-miterlimit="3.864" fill="none" d="M112.7 22.4v41.4"/><path fill="#fff" d="M69.3 23.1V30c3 0 4.9-.3 4.9 2 0 2.5-2 2.2-4.8 2.2v21.7c3.1-.1 4.8-.2 4.8 2.2 0 2.5-2 2.1-4.9 2.1v9.5H14v-9.5c-3 0-4.9.1-4.9-2.1 0-2.5 2-2.2 4.8-2.2V34.2c-3 0-4.8.3-4.8-2.2s2-2 4.9-2v-6.9h55.3M66.1 23.4v42.9H16.6V23.4l3.3-2.9c3.3.7 7.8 1.7 10 .9 3.6-1.4 9-1 11.8 1 2.7-2.1 7.5-2.4 11.1-1 2.1.8 6.7-.2 10-.9l3.3 2.9"/><path fill="#fff" stroke="#000" stroke-width="1.25" stroke-linecap="round" stroke-linejoin="round" stroke-miterlimit="3.864" d="M66.1 23.4v42.9H16.6V23.4l3.3-2.9c3.3.7 7.8 1.7 10 .9 3.6-1.4 9-1 11.8 1 2.7-2.1 7.5-2.4 11.1-1 2.1.8 6.7-.2 10-.9l3.3 2.9z"/><path stroke="#000" stroke-width="1.25" stroke-linejoin="round" stroke-miterlimit="3.864" fill="none" d="M16.6 66.5l3.3-3.6"/><path stroke="#000" stroke-width="1.25" stroke-miterlimit="3.864" fill="none" d="M65.7 66.2l-3-3.3"/><path fill="#fff" stroke="#000" stroke-width="1.25" stroke-linecap="round" stroke-linejoin="round" stroke-miterlimit="3.864" d="M62.8 20.5c-3.3.7-7.8 1.7-10 .9-3.6-1.4-8.4-1-11.1 1-2.7-2.1-8.2-2.4-11.8-1-2.1.8-6.7-.2-10-.9v42.4c3.3.7 4.3 1.7 6.5 1.2 3.6-.9 12.1-1.9 14.9.2 2.7-2.1 11.3-1.1 14.9-.2 2.2.6 3.2-.5 6.5-1.2V20.5z"/><path stroke="#000" stroke-width="1.25" stroke-miterlimit="3.864" fill="none" d="M41.7 22.4v41.4"/><path fill="#fff" d="M104.8 93.7v6.9c3 0 4.9-.3 4.9 2 0 2.5-2 2.2-4.8 2.2v21.7c3.1-.1 4.8-.2 4.8 2.2 0 2.5-2 2.1-4.9 2.1v9.5H49.4v-9.5c-3 0-4.9.1-4.9-2.1 0-2.5 2-2.2 4.8-2.2v-21.7c-3 0-4.8.3-4.8-2.2s2-2 4.9-2v-6.9h55.4M101.5 94v42.9H52V94l3.3-2.9c3.3.7 7.8 1.7 10 .9 3.6-1.4 9-1 11.8 1 2.7-2.1 7.5-2.4 11.1-1 2.2.8 6.7-.2 10-.9l3.3 2.9"/><path fill="#fff" stroke="#000" stroke-width="1.25" stroke-linecap="round" stroke-linejoin="round" stroke-miterlimit="3.864" d="M101.5 94v42.9H52V94l3.3-2.9c3.3.7 7.8 1.7 10 .9 3.6-1.4 9-1 11.8 1 2.7-2.1 7.5-2.4 11.1-1 2.2.8 6.7-.2 10-.9l3.3 2.9z"/><path stroke="#000" stroke-width="1.25" stroke-linejoin="round" stroke-miterlimit="3.864" fill="none" d="M52 137.1l3.4-3.6"/><path stroke="#000" stroke-width="1.25" stroke-miterlimit="3.864" fill="none" d="M101.1 136.8l-3-3.3"/><path fill="#fff" stroke="#000" stroke-width="1.25" stroke-linecap="round" stroke-linejoin="round" stroke-miterlimit="3.864" d="M98.2 91.1c-3.3.7-7.8 1.7-10 .9-3.6-1.4-8.4-1-11.1 1-2.8-2.1-8.2-2.4-11.8-1-2.1.8-6.7-.2-10-.9v42.4c3.3.7 4.3 1.7 6.5 1.2 3.6-.9 12.1-1.9 14.9.2 2.7-2.1 11.3-1.1 14.9-.2 2.2.6 3.2-.5 6.5-1.2V91.1z"/><path stroke="#000" stroke-width="1.25" stroke-miterlimit="3.864" fill="none" d="M77.1 93v41.4"/><path fill="#fff" d="M109.7 67.2c0-2 1.3-3.6 3-3.6s3 1.6 3 3.6-1.3 3.6-3 3.6c-1.6 0-3-1.6-3-3.6M38.7 67.2c0-2 1.3-3.6 3-3.6 1.6 0 3 1.6 3 3.6s-1.3 3.6-3 3.6-3-1.6-3-3.6"/><path stroke="#000" stroke-width="1.25" stroke-miterlimit="3.864" d="M109.7 67.2c0-2 1.3-3.6 3-3.6s3 1.6 3 3.6-1.3 3.6-3 3.6c-1.6 0-3-1.6-3-3.6zM38.7 67.2c0-2 1.3-3.6 3-3.6 1.6 0 3 1.6 3 3.6s-1.3 3.6-3 3.6-3-1.6-3-3.6z" fill="none"/><path fill="#fff" d="M74.1 137.8c0-2 1.3-3.6 3-3.6 1.6 0 3 1.6 3 3.6s-1.3 3.6-3 3.6-3-1.6-3-3.6"/><path stroke="#000" stroke-width="1.25" stroke-miterlimit="3.864" d="M74.1 137.8c0-2 1.3-3.6 3-3.6 1.6 0 3 1.6 3 3.6s-1.3 3.6-3 3.6-3-1.6-3-3.6z" fill="none"/><path fill-rule="evenodd" clip-rule="evenodd" fill="#fff" d="M78 114.5h-3.4c.1-.2.1-.4.1-.4s1.4-3.7 1.6-4.4c.3.7 1.6 4.3 1.6 4.3l.1.2s0 .2.1.4c0-.1-.1-.1-.1-.1z"/><path fill-rule="evenodd" clip-rule="evenodd" d="M57.1 48c0 2.4-1.1 5-2.9 5h-5.5l-1.5.1c-.5 0-.7-.4-.7-.8 0-.9.4-1.1.7-1.2.4-.2.7-.3.7-2V35.8c0-1.1-.4-1.3-1.1-1.5-.4-.2-1-.4-1-1.2 0-.5.2-1 .7-1h1l3.8.1 1.8-.1 2.3-.1c.4 0 .7.5.7 1l.1 2.9c0 .4.1 1-.2 1.4l-.5.3c-.5 0-.6-.8-.7-1.3-.1-.9-.2-2-2.2-2-1.9 0-1.9 0-1.9 1.5v4.7s.1.1.4.1h1.1c.8 0 1.1-.9 1.4-1.7.2-.5.3-.9.6-.9.4 0 .6.4.6 1.2l.1 5.1c0 .4.1 1.1-.2 1.5l-.5.3c-.4 0-.6-.7-.7-1.2-.2-.9-.3-1.7-1.3-1.7h-1.3c-.3 0-.4.1-.4.1v5.2c0 .8 0 1.4.2 1.7.1.2.4.3.8.3 3 0 3.7-1.7 4.2-2.7.2-.5.4-.9.7-.9.2 0 .7.1.7 1.1zm-19-15.9c-.2-.3-.4-.3-.7-.2h-.1l-1.6.1-1.6-.1c-.3 0-.7 0-.9.3l-.2.6c0 .8.5.9.9 1 .6.2 1 .4 1 1.5 0 .3 0 1.2-.6 3 0 0-2.3 7.7-2.5 8.1-.2-.6-2.3-8.6-2.3-8.6-.6-2-.7-3.1-.7-3.6 0-.2 0-.3.4-.5.3-.1.7-.3.7-1l-.2-.7c-.2-.2-.4-.2-.8-.2h-.5l-1.5.2-1.9-.1h-.2c-.3 0-.6-.1-.8.3l-.2.7c0 .6.5.9.5.9.7.3.9.5 1.1 1.4l4.6 16c.3 1.1.6 1.7 1 1.7.5 0 .6-.6.8-1.2l5-16.5c.2-.8.6-1.1.8-1.3.2-.2.5-.5.5-1v-.8zm71.1 18.5c0 1.3-1.5 2-2.3 2-1.6 0-2.3-1.9-2.9-3.7l-1.6-4.5c-.4-1.1-.6-1.2-1.4-1.2-.4 0-.5 0-.5.1v5.5c0 1.5.5 1.7 1 1.8.3.1.8.3.8 1.1 0 .4-.1.9-.9.9h-.5l-1.1-.1s-2.8.1-2.9.1c-.2 0-.5 0-.7-.3l-.2-.7c0-.7.4-.9.6-1 .4-.2.9-.5.9-2.6V35.5c0-1.6-.6-1.8-1.2-2.1-.4-.1-.9-.3-.9-1.1 0-.6.3-1 .7-1l.9.1 1.2.1 1.9-.1 1.9-.1c4.5 0 4.7 4.9 4.7 5.9 0 1.7-.4 3-1.2 4l-.7.7-.2.2c.2.6.9 2.5 1.6 4.3l1.2 3.2c.1.2.2.2.4.2l.2-.1.4-.1c.5.1.8.5.8 1zm-8.7-15.7v5.8c.1.2.7.2.9.2 2.6 0 2.6-1.3 2.6-2.8 0-2.7-1-4.4-2.6-4.4-.6 0-.9 0-.9 1.2zm24.6 15.8c-.6-.1-1.2-.3-1.2-2.1V35.5c0-1.2.3-1.4.7-1.5.2-.1.7-.3.7-1 0-.9-.5-.9-1-.9l-1.5.1-.9.1-2.1-.1c-.2 0-.6 0-.8.3l-.1.6c0 .8.5.9.9 1.1.7.3 1.1.5 1.1 1.6V49c0 1.3-.3 1.5-.7 1.8-.2.2-.6.4-.6 1.1 0 .5.2.8.5.8h.8l1.3-.1 1.9.1h.9c.2 0 .9 0 .9-.9s-.4-1-.8-1.1zm-57.7 70.8c-.7-.2-1.4-.5-1.4-2.4V107c0-.7.1-.8.1-.9H68c.9-.1 1.1.6 1.3 1.6.1.6.3 1.3.8 1.3.2 0 .4-.1.5-.3.3-.4.2-1 .1-1.5v-.1l-.2-2.4c0-.7-.3-1.1-.7-1.1l-2.1.1-3.3.1-3.3-.1-2.1-.1c-.4 0-.6.4-.7 1l-.3 3.6c0 .4-.1.9.1 1.2l.5.3c.6 0 .8-.8.9-1.5.2-1.2.5-2 1.3-2h1.9s.1.2.1.9v12.4c0 1.6-.5 1.8-1.1 1.9-.3.1-.9.2-.9 1l.2.8.8.3c.1 0 1-.1 1-.1l1.5-.1 1.5.1.9.1h.2c.3 0 .6 0 .9-.3l.2-.8c.3-.7-.2-.8-.6-.9zm18 .2c-.1-.2-.1-.4-.1-.6v-.2l-.6-3.7c0-.2-.1-.4-.1-.6 0-.2 0-.4.2-.6.1-.2.3-.3.6-.3.6 0 .8.6.8.9.5 2.1 1.6 4.5 3.6 4.5 1.4 0 2.3-1.1 2.3-2.8 0-1.5-.6-1.9-3-3.2l-1.2-.7c-1.6-.9-3.1-2-3.1-5.1 0-3.2 1.8-5.6 4.3-5.6 1.1 0 1.9.4 2.4.7.2.1.5.3.6.3l.3-.2.7-.3c.7 0 .7.7.7 1.1v.3l.2 3.5c0 .4 0 .8-.2 1.1l-.7.3c-.4 0-.6-.4-.8-1.2-.4-1.4-1.2-3.6-3.3-3.6-1.1 0-1.8.8-1.8 2.2 0 1.2.5 1.5 2.5 2.6l1 .6c2.1 1.2 3.7 2.4 3.7 6s-2 6.2-4.8 6.2c-.9 0-1.7-.3-2.4-.6l-1.1-.4c-.3-.1-.5-.3-.6-.5l-.1-.1zm-.7.3c-.2-.3-.5-.4-.7-.4-.3-.1-.7-.1-1-1l-5.5-16.2c-.3-.8-.4-1.1-.8-1.1-.5 0-.7.6-.8 1l-.1.2-5.5 16c-.2.7-.6.9-.9 1.2-.3.2-.6.4-.6 1l.2.5.7.2h.1l1.8-.1 2.2.1c.3 0 .7.1 1-.2l.2-.6c0-.6-.5-.8-1-1-.7-.2-1.2-.5-1.2-1.2 0-.5.2-1.2.3-1.7l.1-.2c.4-1.5.7-1.5.9-1.5h4c.2 0 .3 0 .9 2 .2.7.3 1.1.3 1.6 0 .6-.2.8-.7 1-.3.2-.7.4-.7 1.1l.2.6.7.2h.1l.9-.1 1.3-.1 1.7.1.9.1h.2c.3 0 .6 0 .8-.2l.2-.7c0-.2 0-.3-.1-.4l-.1-.2zm-7.3-7.5h-3c.1-.2.1-.4.1-.4s1.2-3.7 1.5-4.4c.2.7 1.5 4.3 1.5 4.3l.1.2s0 .2.1.4c-.2-.1-.3-.1-.3-.1z"/></svg>