<svg width="748" height="520" style="z-index: 10; position: absolute; "><rect id="svgbg" fill="#ffffff" width="748" height="520"></rect><g class="titles"></g><clipPath id="clipping"><rect width="748" height="520"></rect></clipPath><g class="parent" width="748" height="520" clip-path="url(#clipping)" transform="translate(0,0)"><g class="axes_labels"><text class="x_axis_label" x="374" y="510" font-family="sans-serif" font-size="14px" font-weight="lighter" fill="#333" text-anchor="middle">Year</text><text class="y_axis_label" y="15" x="-228.62316063391137" transform="rotate(-90)" font-family="sans-serif" font-size="14px" font-weight="lighter" fill="#333" text-anchor="middle">Current</text></g><g class="chart" transform="translate(78,5)"><rect style="fill: #fafafa; " id="background" x="0" y="0" width="660" height="447.24632126782274" stroke-width="1" stroke="#ccc" shape-rendering="crispEdges"></rect><g transform="translate(0,447.24632126782274)" class="xaxis"><g class="tick" style="opacity: 1; " transform="translate(660,0)"><line y2="0" x2="0"></line><text style="font-family: sans-serif; font-size: 12px; font-weight: lighter; fill: #888888; text-anchor: end; " transform="translate(-22,3)rotate(-65)" y="20" x="0" dy=".71em">2005</text><line class="tick" x1="0" x2="0" y1="10" y2="-447.24632126782274" stroke="#ccc" stroke-width="1" shape-rendering="crispEdges" opacity="1"></line></g><g class="tick" style="opacity: 1; " transform="translate(0,0)"><line y2="0" x2="0"></line><text style="font-family: sans-serif; font-size: 12px; font-weight: lighter; fill: #888888; text-anchor: end; " transform="translate(-22,3)rotate(-65)" y="20" x="0" dy=".71em">2001</text><line class="tick" x1="0" x2="0" y1="10" y2="-447.24632126782274" stroke="#ccc" stroke-width="1" shape-rendering="crispEdges" opacity="1"></line></g><g class="tick" style="opacity: 1; " transform="translate(82.5,0)"><line y2="0" x2="0"></line><text y="20" x="0" dy=".71em" style="text-anchor: end; "></text></g><g class="tick" style="opacity: 1; " transform="translate(165,0)"><line y2="0" x2="0"></line><text style="font-family: sans-serif; font-size: 12px; font-weight: lighter; fill: #888888; text-anchor: end; " transform="translate(-22,3)rotate(-65)" y="20" x="0" dy=".71em">2002</text><line class="tick" x1="0" x2="0" y1="10" y2="-447.24632126782274" stroke="#ccc" stroke-width="1" shape-rendering="crispEdges" opacity="1"></line></g><g class="tick" style="opacity: 1; " transform="translate(247.5,0)"><line y2="0" x2="0"></line><text y="20" x="0" dy=".71em" style="text-anchor: end; "></text></g><g class="tick" style="opacity: 1; " transform="translate(330,0)"><line y2="0" x2="0"></line><text style="font-family: sans-serif; font-size: 12px; font-weight: lighter; fill: #888888; text-anchor: end; " transform="translate(-22,3)rotate(-65)" y="20" x="0" dy=".71em">2003</text><line class="tick" x1="0" x2="0" y1="10" y2="-447.24632126782274" stroke="#ccc" stroke-width="1" shape-rendering="crispEdges" opacity="1"></line></g><g class="tick" style="opacity: 1; " transform="translate(412.5,0)"><line y2="0" x2="0"></line><text y="20" x="0" dy=".71em" style="text-anchor: end; "></text></g><g class="tick" style="opacity: 1; " transform="translate(495,0)"><line y2="0" x2="0"></line><text style="font-family: sans-serif; font-size: 12px; font-weight: lighter; fill: #888888; text-anchor: end; " transform="translate(-22,3)rotate(-65)" y="20" x="0" dy=".71em">2004</text><line class="tick" x1="0" x2="0" y1="10" y2="-447.24632126782274" stroke="#ccc" stroke-width="1" shape-rendering="crispEdges" opacity="1"></line></g><g class="tick" style="opacity: 1; " transform="translate(577.5,0)"><line y2="0" x2="0"></line><text y="20" x="0" dy=".71em" style="text-anchor: end; "></text></g><path class="domain" d="M0,0V0H660V0"></path></g><g class="yaxis"><g class="tick" style="opacity: 1; " transform="translate(0,447.24632126782274)"><line x2="0" y2="0"></line><text style="font-family: sans-serif; font-size: 12px; font-weight: lighter; fill: #888888; text-anchor: end; " x="-15" y="0" dy=".32em">0</text><line class="tick" x1="-10" x2="660" y1="0" y2="0" stroke="#ccc" stroke-width="1" shape-rendering="crispEdges" opacity="1"></line></g><g class="tick" style="opacity: 1; " transform="translate(0,196.19854545208347)"><line x2="0" y2="0"></line><text style="font-family: sans-serif; font-size: 12px; font-weight: lighter; fill: #888888; text-anchor: end; " x="-15" y="0" dy=".32em">$1B</text><line class="tick" x1="-10" x2="660" y1="0" y2="0" stroke="#ccc" stroke-width="1" shape-rendering="crispEdges" opacity="1"></line></g><g class="tick" style="opacity: 1; " transform="translate(0,397.0367661046749)"><line x2="0" y2="0"></line><text style="font-family: sans-serif; font-size: 12px; font-weight: lighter; fill: #888888; text-anchor: end; " x="-15" y="0" dy=".32em">$200M</text><line class="tick" x1="-10" x2="660" y1="0" y2="0" stroke="#ccc" stroke-width="1" shape-rendering="crispEdges" opacity="1"></line></g><g class="tick" style="opacity: 1; " transform="translate(0,346.827210941527)"><line x2="0" y2="0"></line><text style="font-family: sans-serif; font-size: 12px; font-weight: lighter; fill: #888888; text-anchor: end; " x="-15" y="0" dy=".32em">$400M</text><line class="tick" x1="-10" x2="660" y1="0" y2="0" stroke="#ccc" stroke-width="1" shape-rendering="crispEdges" opacity="1"></line></g><g class="tick" style="opacity: 1; " transform="translate(0,296.6176557783792)"><line x2="0" y2="0"></line><text style="font-family: sans-serif; font-size: 12px; font-weight: lighter; fill: #888888; text-anchor: end; " x="-15" y="0" dy=".32em">$600M</text><line class="tick" x1="-10" x2="660" y1="0" y2="0" stroke="#ccc" stroke-width="1" shape-rendering="crispEdges" opacity="1"></line></g><g class="tick" style="opacity: 1; " transform="translate(0,246.40810061523132)"><line x2="0" y2="0"></line><text style="font-family: sans-serif; font-size: 12px; font-weight: lighter; fill: #888888; text-anchor: end; " x="-15" y="0" dy=".32em">$800M</text><line class="tick" x1="-10" x2="660" y1="0" y2="0" stroke="#ccc" stroke-width="1" shape-rendering="crispEdges" opacity="1"></line></g><g class="tick" style="opacity: 1; " transform="translate(0,145.9889902889356)"><line x2="0" y2="0"></line><text style="font-family: sans-serif; font-size: 12px; font-weight: lighter; fill: #888888; text-anchor: end; " x="-15" y="0" dy=".32em">$1.2B</text><line class="tick" x1="-10" x2="660" y1="0" y2="0" stroke="#ccc" stroke-width="1" shape-rendering="crispEdges" opacity="1"></line></g><g class="tick" style="opacity: 1; " transform="translate(0,95.77943512578776)"><line x2="0" y2="0"></line><text style="font-family: sans-serif; font-size: 12px; font-weight: lighter; fill: #888888; text-anchor: end; " x="-15" y="0" dy=".32em">$1.4B</text><line class="tick" x1="-10" x2="660" y1="0" y2="0" stroke="#ccc" stroke-width="1" shape-rendering="crispEdges" opacity="1"></line></g><g class="tick" style="opacity: 1; " transform="translate(0,45.5698799626399)"><line x2="0" y2="0"></line><text style="font-family: sans-serif; font-size: 12px; font-weight: lighter; fill: #888888; text-anchor: end; " x="-15" y="0" dy=".32em">$1.6B</text><line class="tick" x1="-10" x2="660" y1="0" y2="0" stroke="#ccc" stroke-width="1" shape-rendering="crispEdges" opacity="1"></line></g><path class="domain" d="M0,0H0V447.24632126782274H0"></path></g><clipPath id="path_clipping"><rect width="660" height="447.24632126782274" y="1" x="1"></rect></clipPath><g class="layers" clip-path="url(#path_clipping)"><path opacity="0.85" id="path_8000" class="layer" fill="#5493c9" d="M-6435,448.24632126782274C-6407.5,448.24632126782274,-6325,448.24632126782274,-6270,448.24632126782274S-6160,448.24632126782274,-6105,448.24632126782274S-5995,448.24632126782274,-5940,448.24632126782274S-5830,448.24632126782274,-5775,448.24632126782274S-5665,448.24632126782274,-5610,448.24632126782274S-5500,448.24632126782274,-5445,448.24632126782274S-5335,448.24632126782274,-5280,448.24632126782274S-5170,448.24632126782274,-5115,448.24632126782274S-5005,448.24632126782274,-4950,448.24632126782274S-4840,448.24632126782274,-4785,448.24632126782274S-4675,448.24632126782274,-4620,448.24632126782274S-4510,448.24632126782274,-4455,448.24632126782274S-4345,448.24632126782274,-4290,448.24632126782274S-4180,448.24632126782274,-4125,448.24632126782274S-4015.0000000000005,448.24632126782274,-3960,448.24632126782274S-3850,448.24632126782274,-3795,448.24632126782274S-3685,448.24632126782274,-3630,448.24632126782274S-3520,448.24632126782274,-3465,448.24632126782274S-3355,448.24632126782274,-3300,448.24632126782274S-3190,448.24632126782274,-3135,448.24632126782274S-3025,448.24632126782274,-2970,448.24632126782274S-2860,448.24632126782274,-2805,448.24632126782274S-2695,448.24632126782274,-2640,448.24632126782274S-2530,448.24632126782274,-2475,448.24632126782274S-2365,448.24632126782274,-2310,448.24632126782274S-2200,448.24632126782274,-2145,448.24632126782274S-2034.9999999999998,448.24632126782274,-1980,448.24632126782274S-1870,448.24632126782274,-1815,448.24632126782274S-1705,448.24632126782274,-1650,448.24632126782274S-1540,448.24632126782274,-1485,448.24632126782274S-1375,448.24632126782274,-1320,448.24632126782274S-1210,448.24632126782274,-1155,448.24632126782274S-1045,448.24632126782274,-990,448.24632126782274S-879.9999999999999,448.24632126782274,-825,448.24632126782274S-714.9999999999999,448.24632126782274,-660,448.24632126782274S-550,448.24632126782274,-495,448.24632126782274S-385,448.24632126782274,-330.00000000000006,448.24632126782274S-220,448.24632126782274,-165,448.24632126782274S-54.99968056990281,446.465046642266,0,446.33250022282226S110.00004015608033,446.52012772741034,165,446.47313216587867S275.0014725255482,445.9883844715621,330,445.70380278413353S440.00003068443635,444.7245153921027,495,444.76559632512266S605.0061182315139,445.37023222895664,660,445.9502885197671S770,448.24632126782274,825,448.24632126782274S935,448.24632126782274,990,448.24632126782274S1100,448.24632126782274,1155,448.24632126782274S1265,448.24632126782274,1320,448.24632126782274S1457.5,448.24632126782274,1485,448.24632126782274L1485,447.24632126782274C1457.5,447.24632126782274,1375,447.24632126782274,1320,447.24632126782274S1210,447.24632126782274,1155,447.24632126782274S1045,447.24632126782274,990,447.24632126782274S880,447.24632126782274,825,447.24632126782274S715,447.24632126782274,660,447.24632126782274S550,447.24632126782274,495,447.24632126782274S385,447.24632126782274,330,447.24632126782274S220,447.24632126782274,165,447.24632126782274S55,447.24632126782274,0,447.24632126782274S-110,447.24632126782274,-165,447.24632126782274S-275,447.24632126782274,-330.00000000000006,447.24632126782274S-439.99999999999994,447.24632126782274,-495,447.24632126782274S-605.0000000000001,447.24632126782274,-660,447.24632126782274S-770,447.24632126782274,-825,447.24632126782274S-935,447.24632126782274,-990,447.24632126782274S-1100,447.24632126782274,-1155,447.24632126782274S-1265,447.24632126782274,-1320,447.24632126782274S-1430,447.24632126782274,-1485,447.24632126782274S-1595,447.24632126782274,-1650,447.24632126782274S-1759.9999999999998,447.24632126782274,-1815,447.24632126782274S-1925.0000000000002,447.24632126782274,-1980,447.24632126782274S-2090,447.24632126782274,-2145,447.24632126782274S-2255,447.24632126782274,-2310,447.24632126782274S-2420,447.24632126782274,-2475,447.24632126782274S-2585,447.24632126782274,-2640,447.24632126782274S-2750,447.24632126782274,-2805,447.24632126782274S-2915,447.24632126782274,-2970,447.24632126782274S-3080,447.24632126782274,-3135,447.24632126782274S-3245,447.24632126782274,-3300,447.24632126782274S-3410,447.24632126782274,-3465,447.24632126782274S-3575,447.24632126782274,-3630,447.24632126782274S-3740,447.24632126782274,-3795,447.24632126782274S-3904.9999999999995,447.24632126782274,-3960,447.24632126782274S-4069.9999999999995,447.24632126782274,-4125,447.24632126782274S-4235,447.24632126782274,-4290,447.24632126782274S-4400,447.24632126782274,-4455,447.24632126782274S-4565,447.24632126782274,-4620,447.24632126782274S-4730,447.24632126782274,-4785,447.24632126782274S-4895,447.24632126782274,-4950,447.24632126782274S-5060,447.24632126782274,-5115,447.24632126782274S-5225,447.24632126782274,-5280,447.24632126782274S-5390,447.24632126782274,-5445,447.24632126782274S-5555,447.24632126782274,-5610,447.24632126782274S-5720,447.24632126782274,-5775,447.24632126782274S-5885,447.24632126782274,-5940,447.24632126782274S-6050,447.24632126782274,-6105,447.24632126782274S-6215,447.24632126782274,-6270,447.24632126782274S-6407.5,447.24632126782274,-6435,447.24632126782274Z"></path><path opacity="0.85" id="path_7000" class="layer" fill="#9edae5" d="M-6435,448.24632126782274C-6407.5,448.24632126782274,-6325,448.24632126782274,-6270,448.24632126782274S-6160,448.24632126782274,-6105,448.24632126782274S-5995,448.24632126782274,-5940,448.24632126782274S-5830,448.24632126782274,-5775,448.24632126782274S-5665,448.24632126782274,-5610,448.24632126782274S-5500,448.24632126782274,-5445,448.24632126782274S-5335,448.24632126782274,-5280,448.24632126782274S-5170,448.24632126782274,-5115,448.24632126782274S-5005,448.24632126782274,-4950,448.24632126782274S-4840,448.24632126782274,-4785,448.24632126782274S-4675,448.24632126782274,-4620,448.24632126782274S-4510,448.24632126782274,-4455,448.24632126782274S-4345,448.24632126782274,-4290,448.24632126782274S-4180,448.24632126782274,-4125,448.24632126782274S-4015.0000000000005,448.24632126782274,-3960,448.24632126782274S-3850,448.24632126782274,-3795,448.24632126782274S-3685,448.24632126782274,-3630,448.24632126782274S-3520,448.24632126782274,-3465,448.24632126782274S-3355,448.24632126782274,-3300,448.24632126782274S-3190,448.24632126782274,-3135,448.24632126782274S-3025,448.24632126782274,-2970,448.24632126782274S-2860,448.24632126782274,-2805,448.24632126782274S-2695,448.24632126782274,-2640,448.24632126782274S-2530,448.24632126782274,-2475,448.24632126782274S-2365,448.24632126782274,-2310,448.24632126782274S-2200,448.24632126782274,-2145,448.24632126782274S-2034.9999999999998,448.24632126782274,-1980,448.24632126782274S-1870,448.24632126782274,-1815,448.24632126782274S-1705,448.24632126782274,-1650,448.24632126782274S-1540,448.24632126782274,-1485,448.24632126782274S-1375,448.24632126782274,-1320,448.24632126782274S-1210,448.24632126782274,-1155,448.24632126782274S-1045,448.24632126782274,-990,448.24632126782274S-880,448.24632126782274,-825,448.24632126782274S-714.9999999999999,448.24632126782274,-660,448.24632126782274S-550,448.24632126782274,-495,448.24632126782274S-385.00000000000006,448.24632126782274,-330.00000000000006,448.24632126782274S-220,448.24632126782274,-165,448.24632126782274S-54.99841206625581,441.08389215978207,0,440.78836917523626S110.0096007815925,445.7465299276625,165,446.47313216587867S275.0011587486582,445.9562504688192,330,445.70380278413353S440.00000960936376,444.7885857773799,495,444.76559632512266S605.0001649037141,444.7683321142372,660,444.8635669664914S770,448.24632126782274,825,448.24632126782274S935,448.24632126782274,990,448.24632126782274S1100,448.24632126782274,1155,448.24632126782274S1265,448.24632126782274,1320,448.24632126782274S1457.5,448.24632126782274,1485,448.24632126782274L1485,447.24632126782274C1457.5,447.24632126782274,1375,447.24632126782274,1320,447.24632126782274S1210,447.24632126782274,1155,447.24632126782274S1045,447.24632126782274,990,447.24632126782274S880,447.24632126782274,825,447.24632126782274S714.9938817684861,445.5303448105776,660,444.9502885197671S549.9999693155637,443.8066772581426,495,443.76559632512266S384.9985274744518,444.419221096705,330,444.70380278413353S219.99995984391967,445.426136604347,165,445.47313216587867S54.999680569902864,445.19995380337855,0,445.33250022282226S-110,447.24632126782274,-165,447.24632126782274S-275,447.24632126782274,-330.00000000000006,447.24632126782274S-439.99999999999994,447.24632126782274,-495,447.24632126782274S-605.0000000000001,447.24632126782274,-660,447.24632126782274S-770,447.24632126782274,-825,447.24632126782274S-935,447.24632126782274,-990,447.24632126782274S-1100,447.24632126782274,-1155,447.24632126782274S-1265,447.24632126782274,-1320,447.24632126782274S-1430,447.24632126782274,-1485,447.24632126782274S-1595,447.24632126782274,-1650,447.24632126782274S-1759.9999999999998,447.24632126782274,-1815,447.24632126782274S-1925.0000000000002,447.24632126782274,-1980,447.24632126782274S-2090,447.24632126782274,-2145,447.24632126782274S-2255,447.24632126782274,-2310,447.24632126782274S-2420,447.24632126782274,-2475,447.24632126782274S-2585,447.24632126782274,-2640,447.24632126782274S-2750,447.24632126782274,-2805,447.24632126782274S-2915,447.24632126782274,-2970,447.24632126782274S-3080,447.24632126782274,-3135,447.24632126782274S-3245,447.24632126782274,-3300,447.24632126782274S-3410,447.24632126782274,-3465,447.24632126782274S-3575,447.24632126782274,-3630,447.24632126782274S-3740,447.24632126782274,-3795,447.24632126782274S-3904.9999999999995,447.24632126782274,-3960,447.24632126782274S-4069.9999999999995,447.24632126782274,-4125,447.24632126782274S-4235,447.24632126782274,-4290,447.24632126782274S-4400,447.24632126782274,-4455,447.24632126782274S-4565,447.24632126782274,-4620,447.24632126782274S-4730,447.24632126782274,-4785,447.24632126782274S-4895,447.24632126782274,-4950,447.24632126782274S-5060,447.24632126782274,-5115,447.24632126782274S-5225,447.24632126782274,-5280,447.24632126782274S-5390,447.24632126782274,-5445,447.24632126782274S-5555,447.24632126782274,-5610,447.24632126782274S-5720,447.24632126782274,-5775,447.24632126782274S-5885,447.24632126782274,-5940,447.24632126782274S-6050,447.24632126782274,-6105,447.24632126782274S-6215,447.24632126782274,-6270,447.24632126782274S-6407.5,447.24632126782274,-6435,447.24632126782274Z"></path><path opacity="0.85" id="path_9000" class="layer" fill="#9c9a87" d="M-6435,448.24632126782274C-6407.5,448.24632126782274,-6325,448.24632126782274,-6270,448.24632126782274S-6160,448.24632126782274,-6105,448.24632126782274S-5995,448.24632126782274,-5940,448.24632126782274S-5830,448.24632126782274,-5775,448.24632126782274S-5665,448.24632126782274,-5610,448.24632126782274S-5500,448.24632126782274,-5445,448.24632126782274S-5335,448.24632126782274,-5280,448.24632126782274S-5170,448.24632126782274,-5115,448.24632126782274S-5005,448.24632126782274,-4950,448.24632126782274S-4840,448.24632126782274,-4785,448.24632126782274S-4675,448.24632126782274,-4620,448.24632126782274S-4510,448.24632126782274,-4455,448.24632126782274S-4345,448.24632126782274,-4290,448.24632126782274S-4180,448.24632126782274,-4125,448.24632126782274S-4015.0000000000005,448.24632126782274,-3960,448.24632126782274S-3850,448.24632126782274,-3795,448.24632126782274S-3685,448.24632126782274,-3630,448.24632126782274S-3520,448.24632126782274,-3465,448.24632126782274S-3355,448.24632126782274,-3300,448.24632126782274S-3190,448.24632126782274,-3135,448.24632126782274S-3025,448.24632126782274,-2970,448.24632126782274S-2860,448.24632126782274,-2805,448.24632126782274S-2695,448.24632126782274,-2640,448.24632126782274S-2530,448.24632126782274,-2475,448.24632126782274S-2365,448.24632126782274,-2310,448.24632126782274S-2200,448.24632126782274,-2145,448.24632126782274S-2035,448.24632126782274,-1980,448.24632126782274S-1870,448.24632126782274,-1815,448.24632126782274S-1705,448.24632126782274,-1650,448.24632126782274S-1540,448.24632126782274,-1485,448.24632126782274S-1375,448.24632126782274,-1320,448.24632126782274S-1210,448.24632126782274,-1155,448.24632126782274S-1045,448.24632126782274,-990,448.24632126782274S-880,448.24632126782274,-825,448.24632126782274S-714.9999999999999,448.24632126782274,-660,448.24632126782274S-550,448.24632126782274,-495,448.24632126782274S-385.00000000000006,448.24632126782274,-330.00000000000006,448.24632126782274S-220,448.24632126782274,-165,448.24632126782274S-54.99841206625581,441.08389215978207,0,440.78836917523626S110.0000048087469,446.48939503937413,165,446.47313216587867S275.02767953485846,441.9243267896767,330,440.6907919257322S440.00000747755814,439.08847602801904,495,439.068196342589S605.0002812313385,439.06983953304916,660,439.19420851842085S770,448.24632126782274,825,448.24632126782274S935,448.24632126782274,990,448.24632126782274S1100,448.24632126782274,1155,448.24632126782274S1265,448.24632126782274,1320,448.24632126782274S1457.5,448.24632126782274,1485,448.24632126782274L1485,447.24632126782274C1457.5,447.24632126782274,1375,447.24632126782274,1320,447.24632126782274S1210,447.24632126782274,1155,447.24632126782274S1045,447.24632126782274,990,447.24632126782274S880,447.24632126782274,825,447.24632126782274S714.9998350962859,443.95880181874566,660,443.8635669664914S549.9999903906362,443.7426068728654,495,443.76559632512266S384.9988412513418,444.4513550994479,330,444.70380278413353S219.9903992184075,446.19973440409484,165,445.47313216587867S54.99841206625587,439.49284619069044,0,439.78836917523626S-110,447.24632126782274,-165,447.24632126782274S-275,447.24632126782274,-330.00000000000006,447.24632126782274S-439.99999999999994,447.24632126782274,-495,447.24632126782274S-605.0000000000001,447.24632126782274,-660,447.24632126782274S-769.9999999999999,447.24632126782274,-825,447.24632126782274S-935,447.24632126782274,-990,447.24632126782274S-1100,447.24632126782274,-1155,447.24632126782274S-1265,447.24632126782274,-1320,447.24632126782274S-1430,447.24632126782274,-1485,447.24632126782274S-1595,447.24632126782274,-1650,447.24632126782274S-1759.9999999999998,447.24632126782274,-1815,447.24632126782274S-1925.0000000000002,447.24632126782274,-1980,447.24632126782274S-2090,447.24632126782274,-2145,447.24632126782274S-2255,447.24632126782274,-2310,447.24632126782274S-2420,447.24632126782274,-2475,447.24632126782274S-2585,447.24632126782274,-2640,447.24632126782274S-2750,447.24632126782274,-2805,447.24632126782274S-2915,447.24632126782274,-2970,447.24632126782274S-3080,447.24632126782274,-3135,447.24632126782274S-3245,447.24632126782274,-3300,447.24632126782274S-3410,447.24632126782274,-3465,447.24632126782274S-3575,447.24632126782274,-3630,447.24632126782274S-3740,447.24632126782274,-3795,447.24632126782274S-3904.9999999999995,447.24632126782274,-3960,447.24632126782274S-4069.9999999999995,447.24632126782274,-4125,447.24632126782274S-4235,447.24632126782274,-4290,447.24632126782274S-4400,447.24632126782274,-4455,447.24632126782274S-4565,447.24632126782274,-4620,447.24632126782274S-4730,447.24632126782274,-4785,447.24632126782274S-4895,447.24632126782274,-4950,447.24632126782274S-5060,447.24632126782274,-5115,447.24632126782274S-5225,447.24632126782274,-5280,447.24632126782274S-5390,447.24632126782274,-5445,447.24632126782274S-5555,447.24632126782274,-5610,447.24632126782274S-5720,447.24632126782274,-5775,447.24632126782274S-5885,447.24632126782274,-5940,447.24632126782274S-6050,447.24632126782274,-6105,447.24632126782274S-6215,447.24632126782274,-6270,447.24632126782274S-6407.5,447.24632126782274,-6435,447.24632126782274Z"></path><path opacity="0.85" id="path_0000" class="layer" fill="#ffe999" d="M-6435,448.24632126782274C-6407.5,448.24632126782274,-6325,448.24632126782274,-6270,448.24632126782274S-6160,448.24632126782274,-6105,448.24632126782274S-5995,448.24632126782274,-5940,448.24632126782274S-5830,448.24632126782274,-5775,448.24632126782274S-5665,448.24632126782274,-5610,448.24632126782274S-5500,448.24632126782274,-5445,448.24632126782274S-5335,448.24632126782274,-5280,448.24632126782274S-5170,448.24632126782274,-5115,448.24632126782274S-5005,448.24632126782274,-4950,448.24632126782274S-4840,448.24632126782274,-4785,448.24632126782274S-4675,448.24632126782274,-4620,448.24632126782274S-4510,448.24632126782274,-4455,448.24632126782274S-4345,448.24632126782274,-4290,448.24632126782274S-4180,448.24632126782274,-4125,448.24632126782274S-4014.9999999999995,448.24632126782274,-3960,448.24632126782274S-3850,448.24632126782274,-3795,448.24632126782274S-3685,448.24632126782274,-3630,448.24632126782274S-3520,448.24632126782274,-3465,448.24632126782274S-3355,448.24632126782274,-3300,448.24632126782274S-3190,448.24632126782274,-3135,448.24632126782274S-3025,448.24632126782274,-2970,448.24632126782274S-2860,448.24632126782274,-2805,448.24632126782274S-2695,448.24632126782274,-2640,448.24632126782274S-2530,448.24632126782274,-2475,448.24632126782274S-2365,448.24632126782274,-2310,448.24632126782274S-2200,448.24632126782274,-2145,448.24632126782274S-2035,448.24632126782274,-1980,448.24632126782274S-1870,448.24632126782274,-1815,448.24632126782274S-1705,448.24632126782274,-1650,448.24632126782274S-1540,448.24632126782274,-1485,448.24632126782274S-1375,448.24632126782274,-1320,448.24632126782274S-1210,448.24632126782274,-1155,448.24632126782274S-1045,448.24632126782274,-990,448.24632126782274S-880,448.24632126782274,-825,448.24632126782274S-714.9999999999999,448.24632126782274,-660,448.24632126782274S-550,448.24632126782274,-495,448.24632126782274S-384.99999999999994,448.24632126782274,-330.00000000000006,448.24632126782274S-220,448.24632126782274,-165,448.24632126782274S-42.04239107942044,320.7717992460017,0,297.4315151497617S115.30134789918668,278.2374078417054,165,262.0056536263701S282.0476875688744,206.2488013938446,330,187.86530563760647S440.01845375500505,136.50071302801243,495,135.49343154590133S605.864162878616,135.67528769332685,660,142.51503775039026S770,448.24632126782274,825,448.24632126782274S935,448.24632126782274,990,448.24632126782274S1100,448.24632126782274,1155,448.24632126782274S1265,448.24632126782274,1320,448.24632126782274S1457.5,448.24632126782274,1485,448.24632126782274L1485,447.24632126782274C1457.5,447.24632126782274,1375,447.24632126782274,1320,447.24632126782274S1210,447.24632126782274,1155,447.24632126782274S1045,447.24632126782274,990,447.24632126782274S880,447.24632126782274,825,447.24632126782274S714.9997187686615,438.31857750379254,660,438.19420851842085S549.9999925224419,438.0479166571589,495,438.068196342589S384.97232046514154,438.4572570617877,330,439.6907919257322S219.9999951912531,445.4568692923832,165,445.47313216587867S54.99841206625587,439.49284619069044,0,439.78836917523626S-110,447.24632126782274,-165,447.24632126782274S-275,447.24632126782274,-330.00000000000006,447.24632126782274S-439.99999999999994,447.24632126782274,-495,447.24632126782274S-605.0000000000001,447.24632126782274,-660,447.24632126782274S-769.9999999999999,447.24632126782274,-825,447.24632126782274S-935,447.24632126782274,-990,447.24632126782274S-1100,447.24632126782274,-1155,447.24632126782274S-1265,447.24632126782274,-1320,447.24632126782274S-1430,447.24632126782274,-1485,447.24632126782274S-1595,447.24632126782274,-1650,447.24632126782274S-1760,447.24632126782274,-1815,447.24632126782274S-1925,447.24632126782274,-1980,447.24632126782274S-2090,447.24632126782274,-2145,447.24632126782274S-2255,447.24632126782274,-2310,447.24632126782274S-2420,447.24632126782274,-2475,447.24632126782274S-2585,447.24632126782274,-2640,447.24632126782274S-2750,447.24632126782274,-2805,447.24632126782274S-2915,447.24632126782274,-2970,447.24632126782274S-3080,447.24632126782274,-3135,447.24632126782274S-3245,447.24632126782274,-3300,447.24632126782274S-3410,447.24632126782274,-3465,447.24632126782274S-3575,447.24632126782274,-3630,447.24632126782274S-3740,447.24632126782274,-3795,447.24632126782274S-3904.9999999999995,447.24632126782274,-3960,447.24632126782274S-4069.9999999999995,447.24632126782274,-4125,447.24632126782274S-4235,447.24632126782274,-4290,447.24632126782274S-4400,447.24632126782274,-4455,447.24632126782274S-4565,447.24632126782274,-4620,447.24632126782274S-4730,447.24632126782274,-4785,447.24632126782274S-4895,447.24632126782274,-4950,447.24632126782274S-5060,447.24632126782274,-5115,447.24632126782274S-5225,447.24632126782274,-5280,447.24632126782274S-5390,447.24632126782274,-5445,447.24632126782274S-5555,447.24632126782274,-5610,447.24632126782274S-5720,447.24632126782274,-5775,447.24632126782274S-5885,447.24632126782274,-5940,447.24632126782274S-6050,447.24632126782274,-6105,447.24632126782274S-6215,447.24632126782274,-6270,447.24632126782274S-6407.5,447.24632126782274,-6435,447.24632126782274Z"></path><path opacity="0.85" id="path_4000" class="layer" fill="#ffc41c" d="M-6435,448.24632126782274C-6407.5,448.24632126782274,-6325,448.24632126782274,-6270,448.24632126782274S-6160,448.24632126782274,-6105,448.24632126782274S-5995,448.24632126782274,-5940,448.24632126782274S-5830,448.24632126782274,-5775,448.24632126782274S-5665,448.24632126782274,-5610,448.24632126782274S-5500,448.24632126782274,-5445,448.24632126782274S-5335,448.24632126782274,-5280,448.24632126782274S-5170,448.24632126782274,-5115,448.24632126782274S-5005,448.24632126782274,-4950,448.24632126782274S-4840,448.24632126782274,-4785,448.24632126782274S-4675,448.24632126782274,-4620,448.24632126782274S-4510,448.24632126782274,-4455,448.24632126782274S-4345,448.24632126782274,-4290,448.24632126782274S-4180,448.24632126782274,-4125,448.24632126782274S-4014.9999999999995,448.24632126782274,-3960,448.24632126782274S-3850,448.24632126782274,-3795,448.24632126782274S-3685,448.24632126782274,-3630,448.24632126782274S-3520,448.24632126782274,-3465,448.24632126782274S-3355,448.24632126782274,-3300,448.24632126782274S-3190,448.24632126782274,-3135,448.24632126782274S-3025,448.24632126782274,-2970,448.24632126782274S-2860,448.24632126782274,-2805,448.24632126782274S-2695,448.24632126782274,-2640,448.24632126782274S-2530,448.24632126782274,-2475,448.24632126782274S-2365,448.24632126782274,-2310,448.24632126782274S-2200,448.24632126782274,-2145,448.24632126782274S-2035,448.24632126782274,-1980,448.24632126782274S-1870,448.24632126782274,-1815,448.24632126782274S-1705,448.24632126782274,-1650,448.24632126782274S-1540,448.24632126782274,-1485,448.24632126782274S-1375,448.24632126782274,-1320,448.24632126782274S-1210,448.24632126782274,-1155,448.24632126782274S-1045,448.24632126782274,-990,448.24632126782274S-879.9999999999999,448.24632126782274,-825,448.24632126782274S-714.9999999999999,448.24632126782274,-660,448.24632126782274S-550,448.24632126782274,-495,448.24632126782274S-385,448.24632126782274,-330.00000000000006,448.24632126782274S-220,448.24632126782274,-165,448.24632126782274S-42.09739541970623,320.73743815145247,0,297.4315151497617S115.37799103736955,278.34170943728407,165,262.0056536263701S282.2536479685732,205.2934939429243,330,186.68340986413682S440.0233561242111,134.51478894346099,495,133.38163347174918S606.103775107926,133.62081078898166,660,141.33374223215253S770,448.24632126782274,825,448.24632126782274S935,448.24632126782274,990,448.24632126782274S1100,448.24632126782274,1155,448.24632126782274S1265,448.24632126782274,1320,448.24632126782274S1457.5,448.24632126782274,1485,448.24632126782274L1485,447.24632126782274C1457.5,447.24632126782274,1375,447.24632126782274,1320,447.24632126782274S1210,447.24632126782274,1155,447.24632126782274S1045,447.24632126782274,990,447.24632126782274S880,447.24632126782274,825,447.24632126782274S714.135837121384,148.35478780745368,660,141.51503775039026S549.981546244995,133.48615006379023,495,134.49343154590133S377.9523124311256,168.48180988136835,330,186.86530563760647S214.69865210081332,244.77389941103473,165,261.0056536263701S42.04239107942038,273.0912310535217,0,296.4315151497617S-110,447.24632126782274,-165,447.24632126782274S-274.99999999999994,447.24632126782274,-330.00000000000006,447.24632126782274S-439.99999999999994,447.24632126782274,-495,447.24632126782274S-605.0000000000001,447.24632126782274,-660,447.24632126782274S-770,447.24632126782274,-825,447.24632126782274S-934.9999999999999,447.24632126782274,-990,447.24632126782274S-1100,447.24632126782274,-1155,447.24632126782274S-1265,447.24632126782274,-1320,447.24632126782274S-1430,447.24632126782274,-1485,447.24632126782274S-1595,447.24632126782274,-1650,447.24632126782274S-1759.9999999999998,447.24632126782274,-1815,447.24632126782274S-1925,447.24632126782274,-1980,447.24632126782274S-2090,447.24632126782274,-2145,447.24632126782274S-2255,447.24632126782274,-2310,447.24632126782274S-2420,447.24632126782274,-2475,447.24632126782274S-2585,447.24632126782274,-2640,447.24632126782274S-2750,447.24632126782274,-2805,447.24632126782274S-2915,447.24632126782274,-2970,447.24632126782274S-3080,447.24632126782274,-3135,447.24632126782274S-3245,447.24632126782274,-3300,447.24632126782274S-3410,447.24632126782274,-3465,447.24632126782274S-3575,447.24632126782274,-3630,447.24632126782274S-3740,447.24632126782274,-3795,447.24632126782274S-3905.0000000000005,447.24632126782274,-3960,447.24632126782274S-4070,447.24632126782274,-4125,447.24632126782274S-4235,447.24632126782274,-4290,447.24632126782274S-4400,447.24632126782274,-4455,447.24632126782274S-4565,447.24632126782274,-4620,447.24632126782274S-4730,447.24632126782274,-4785,447.24632126782274S-4895,447.24632126782274,-4950,447.24632126782274S-5060,447.24632126782274,-5115,447.24632126782274S-5225,447.24632126782274,-5280,447.24632126782274S-5390,447.24632126782274,-5445,447.24632126782274S-5555,447.24632126782274,-5610,447.24632126782274S-5720,447.24632126782274,-5775,447.24632126782274S-5885,447.24632126782274,-5940,447.24632126782274S-6050,447.24632126782274,-6105,447.24632126782274S-6215,447.24632126782274,-6270,447.24632126782274S-6407.5,447.24632126782274,-6435,447.24632126782274Z"></path><path opacity="0.85" id="path_2000" class="layer" fill="#d66011" d="M-6435,448.24632126782274C-6407.5,448.24632126782274,-6325,448.24632126782274,-6270,448.24632126782274S-6160,448.24632126782274,-6105,448.24632126782274S-5995,448.24632126782274,-5940,448.24632126782274S-5830,448.24632126782274,-5775,448.24632126782274S-5665,448.24632126782274,-5610,448.24632126782274S-5500,448.24632126782274,-5445,448.24632126782274S-5335,448.24632126782274,-5280,448.24632126782274S-5170,448.24632126782274,-5115,448.24632126782274S-5005,448.24632126782274,-4950,448.24632126782274S-4840,448.24632126782274,-4785,448.24632126782274S-4675,448.24632126782274,-4620,448.24632126782274S-4510,448.24632126782274,-4455,448.24632126782274S-4345,448.24632126782274,-4290,448.24632126782274S-4180,448.24632126782274,-4125,448.24632126782274S-4015,448.24632126782274,-3960,448.24632126782274S-3850,448.24632126782274,-3795,448.24632126782274S-3685,448.24632126782274,-3630,448.24632126782274S-3520,448.24632126782274,-3465,448.24632126782274S-3355,448.24632126782274,-3300,448.24632126782274S-3190,448.24632126782274,-3135,448.24632126782274S-3025,448.24632126782274,-2970,448.24632126782274S-2860,448.24632126782274,-2805,448.24632126782274S-2695,448.24632126782274,-2640,448.24632126782274S-2530,448.24632126782274,-2475,448.24632126782274S-2365,448.24632126782274,-2310,448.24632126782274S-2200,448.24632126782274,-2145,448.24632126782274S-2035,448.24632126782274,-1980,448.24632126782274S-1869.9999999999998,448.24632126782274,-1815,448.24632126782274S-1705,448.24632126782274,-1650,448.24632126782274S-1540,448.24632126782274,-1485,448.24632126782274S-1375,448.24632126782274,-1320,448.24632126782274S-1210,448.24632126782274,-1155,448.24632126782274S-1045,448.24632126782274,-990,448.24632126782274S-880,448.24632126782274,-825,448.24632126782274S-714.9999999999999,448.24632126782274,-660,448.24632126782274S-550,448.24632126782274,-495,448.24632126782274S-385,448.24632126782274,-330.00000000000006,448.24632126782274S-220,448.24632126782274,-165,448.24632126782274S-41.978255547387676,269.57688370394345,0,246.19676145651843S114.04609032781838,226.22491090413402,165,211.86649451899092S284.54191133457914,147.42748743240435,330,126.60065254361524S440.0083034142396,61.35119443844411,495,60.67545866427696S605.2552840320501,53.120952559237935,660,56.85932811898823S770,448.24632126782274,825,448.24632126782274S935,448.24632126782274,990,448.24632126782274S1100,448.24632126782274,1155,448.24632126782274S1265,448.24632126782274,1320,448.24632126782274S1457.5,448.24632126782274,1485,448.24632126782274L1485,447.24632126782274C1457.5,447.24632126782274,1375,447.24632126782274,1320,447.24632126782274S1210,447.24632126782274,1155,447.24632126782274S1045,447.24632126782274,990,447.24632126782274S880,447.24632126782274,825,447.24632126782274S713.896224892074,148.0466736753234,660,140.33374223215253S549.9766438757889,131.24847800003738,495,132.38163347174918S377.7463520314268,167.07332578534934,330,185.68340986413682S214.62200896263045,244.66959781545606,165,261.0056536263701S42.09739541970623,273.12559214807095,0,296.4315151497617S-110,447.24632126782274,-165,447.24632126782274S-275,447.24632126782274,-330.00000000000006,447.24632126782274S-439.99999999999994,447.24632126782274,-495,447.24632126782274S-605.0000000000001,447.24632126782274,-660,447.24632126782274S-770,447.24632126782274,-825,447.24632126782274S-935,447.24632126782274,-990,447.24632126782274S-1100,447.24632126782274,-1155,447.24632126782274S-1265,447.24632126782274,-1320,447.24632126782274S-1430,447.24632126782274,-1485,447.24632126782274S-1595,447.24632126782274,-1650,447.24632126782274S-1759.9999999999998,447.24632126782274,-1815,447.24632126782274S-1925,447.24632126782274,-1980,447.24632126782274S-2090,447.24632126782274,-2145,447.24632126782274S-2255,447.24632126782274,-2310,447.24632126782274S-2420,447.24632126782274,-2475,447.24632126782274S-2585,447.24632126782274,-2640,447.24632126782274S-2750,447.24632126782274,-2805,447.24632126782274S-2915,447.24632126782274,-2970,447.24632126782274S-3080,447.24632126782274,-3135,447.24632126782274S-3245,447.24632126782274,-3300,447.24632126782274S-3410,447.24632126782274,-3465,447.24632126782274S-3575,447.24632126782274,-3630,447.24632126782274S-3740,447.24632126782274,-3795,447.24632126782274S-3905.0000000000005,447.24632126782274,-3960,447.24632126782274S-4070,447.24632126782274,-4125,447.24632126782274S-4235,447.24632126782274,-4290,447.24632126782274S-4400,447.24632126782274,-4455,447.24632126782274S-4565,447.24632126782274,-4620,447.24632126782274S-4730,447.24632126782274,-4785,447.24632126782274S-4895,447.24632126782274,-4950,447.24632126782274S-5060,447.24632126782274,-5115,447.24632126782274S-5225,447.24632126782274,-5280,447.24632126782274S-5390,447.24632126782274,-5445,447.24632126782274S-5555,447.24632126782274,-5610,447.24632126782274S-5720,447.24632126782274,-5775,447.24632126782274S-5885,447.24632126782274,-5940,447.24632126782274S-6050,447.24632126782274,-6105,447.24632126782274S-6215,447.24632126782274,-6270,447.24632126782274S-6407.5,447.24632126782274,-6435,447.24632126782274Z"></path><path opacity="0.85" id="path_6000" class="layer" fill="red" d="M-6435,448.24632126782274C-6407.5,448.24632126782274,-6325,448.24632126782274,-6270,448.24632126782274S-6160,448.24632126782274,-6105,448.24632126782274S-5995,448.24632126782274,-5940,448.24632126782274S-5830,448.24632126782274,-5775,448.24632126782274S-5665,448.24632126782274,-5610,448.24632126782274S-5500,448.24632126782274,-5445,448.24632126782274S-5335,448.24632126782274,-5280,448.24632126782274S-5170,448.24632126782274,-5115,448.24632126782274S-5005,448.24632126782274,-4950,448.24632126782274S-4840,448.24632126782274,-4785,448.24632126782274S-4675,448.24632126782274,-4620,448.24632126782274S-4510,448.24632126782274,-4455,448.24632126782274S-4345,448.24632126782274,-4290,448.24632126782274S-4180,448.24632126782274,-4125,448.24632126782274S-4015.0000000000005,448.24632126782274,-3960,448.24632126782274S-3850,448.24632126782274,-3795,448.24632126782274S-3685,448.24632126782274,-3630,448.24632126782274S-3520,448.24632126782274,-3465,448.24632126782274S-3355,448.24632126782274,-3300,448.24632126782274S-3190,448.24632126782274,-3135,448.24632126782274S-3025,448.24632126782274,-2970,448.24632126782274S-2860,448.24632126782274,-2805,448.24632126782274S-2695,448.24632126782274,-2640,448.24632126782274S-2530,448.24632126782274,-2475,448.24632126782274S-2365,448.24632126782274,-2310,448.24632126782274S-2200,448.24632126782274,-2145,448.24632126782274S-2034.9999999999998,448.24632126782274,-1980,448.24632126782274S-1870,448.24632126782274,-1815,448.24632126782274S-1705,448.24632126782274,-1650,448.24632126782274S-1540,448.24632126782274,-1485,448.24632126782274S-1375,448.24632126782274,-1320,448.24632126782274S-1210,448.24632126782274,-1155,448.24632126782274S-1045,448.24632126782274,-990,448.24632126782274S-880,448.24632126782274,-825,448.24632126782274S-714.9999999999999,448.24632126782274,-660,448.24632126782274S-550,448.24632126782274,-495,448.24632126782274S-384.99999999999994,448.24632126782274,-330.00000000000006,448.24632126782274S-220,448.24632126782274,-165,448.24632126782274S-45.87053873003367,195.3865642665035,0,174.92261286975878S111.1367464199019,156.94253473901156,165,149.11764747647265S281.3022452476722,95.03483210860801,330,77.51612229709042S440.00478498238294,30.91521356876231,495,30.40223098133208S605.3153839742936,22.041073583686767,660,26.193982387754545S770,448.24632126782274,825,448.24632126782274S935,448.24632126782274,990,448.24632126782274S1100,448.24632126782274,1155,448.24632126782274S1265,448.24632126782274,1320,448.24632126782274S1457.5,448.24632126782274,1485,448.24632126782274L1485,447.24632126782274C1457.5,447.24632126782274,1375,447.24632126782274,1320,447.24632126782274S1210,447.24632126782274,1155,447.24632126782274S1045,447.24632126782274,990,447.24632126782274S880,447.24632126782274,825,447.24632126782274S714.7447159679499,59.597703678738526,660,55.85932811898823S549.9916965857605,58.99972289010981,495,59.67545866427696S375.45808866542086,104.77381765482613,330,125.60065254361524S215.95390967218162,196.50807813384782,165,210.86649451899092S41.978255547387676,221.8166392090934,0,245.19676145651843S-110,447.24632126782274,-165,447.24632126782274S-275,447.24632126782274,-330.00000000000006,447.24632126782274S-439.99999999999994,447.24632126782274,-495,447.24632126782274S-605.0000000000001,447.24632126782274,-660,447.24632126782274S-770,447.24632126782274,-825,447.24632126782274S-935,447.24632126782274,-990,447.24632126782274S-1100,447.24632126782274,-1155,447.24632126782274S-1265,447.24632126782274,-1320,447.24632126782274S-1430,447.24632126782274,-1485,447.24632126782274S-1595,447.24632126782274,-1650,447.24632126782274S-1760,447.24632126782274,-1815,447.24632126782274S-1925,447.24632126782274,-1980,447.24632126782274S-2090,447.24632126782274,-2145,447.24632126782274S-2255,447.24632126782274,-2310,447.24632126782274S-2420,447.24632126782274,-2475,447.24632126782274S-2585,447.24632126782274,-2640,447.24632126782274S-2750,447.24632126782274,-2805,447.24632126782274S-2915,447.24632126782274,-2970,447.24632126782274S-3080,447.24632126782274,-3135,447.24632126782274S-3245,447.24632126782274,-3300,447.24632126782274S-3410,447.24632126782274,-3465,447.24632126782274S-3575,447.24632126782274,-3630,447.24632126782274S-3740,447.24632126782274,-3795,447.24632126782274S-3905,447.24632126782274,-3960,447.24632126782274S-4070,447.24632126782274,-4125,447.24632126782274S-4235,447.24632126782274,-4290,447.24632126782274S-4400,447.24632126782274,-4455,447.24632126782274S-4565,447.24632126782274,-4620,447.24632126782274S-4730,447.24632126782274,-4785,447.24632126782274S-4895,447.24632126782274,-4950,447.24632126782274S-5060,447.24632126782274,-5115,447.24632126782274S-5225,447.24632126782274,-5280,447.24632126782274S-5390,447.24632126782274,-5445,447.24632126782274S-5555,447.24632126782274,-5610,447.24632126782274S-5720,447.24632126782274,-5775,447.24632126782274S-5885,447.24632126782274,-5940,447.24632126782274S-6050,447.24632126782274,-6105,447.24632126782274S-6215,447.24632126782274,-6270,447.24632126782274S-6407.5,447.24632126782274,-6435,447.24632126782274Z"></path><path opacity="0.85" id="path_3000" class="layer" fill="#330000" d="M-6435,448.24632126782274C-6407.5,448.24632126782274,-6325,448.24632126782274,-6270,448.24632126782274S-6160,448.24632126782274,-6105,448.24632126782274S-5995,448.24632126782274,-5940,448.24632126782274S-5830,448.24632126782274,-5775,448.24632126782274S-5665,448.24632126782274,-5610,448.24632126782274S-5500,448.24632126782274,-5445,448.24632126782274S-5335,448.24632126782274,-5280,448.24632126782274S-5170,448.24632126782274,-5115,448.24632126782274S-5005,448.24632126782274,-4950,448.24632126782274S-4840,448.24632126782274,-4785,448.24632126782274S-4675,448.24632126782274,-4620,448.24632126782274S-4510,448.24632126782274,-4455,448.24632126782274S-4345,448.24632126782274,-4290,448.24632126782274S-4180,448.24632126782274,-4125,448.24632126782274S-4015.0000000000005,448.24632126782274,-3960,448.24632126782274S-3850,448.24632126782274,-3795,448.24632126782274S-3685,448.24632126782274,-3630,448.24632126782274S-3520,448.24632126782274,-3465,448.24632126782274S-3355,448.24632126782274,-3300,448.24632126782274S-3190,448.24632126782274,-3135,448.24632126782274S-3025,448.24632126782274,-2970,448.24632126782274S-2860,448.24632126782274,-2805,448.24632126782274S-2695,448.24632126782274,-2640,448.24632126782274S-2530,448.24632126782274,-2475,448.24632126782274S-2365,448.24632126782274,-2310,448.24632126782274S-2200,448.24632126782274,-2145,448.24632126782274S-2035,448.24632126782274,-1980,448.24632126782274S-1870,448.24632126782274,-1815,448.24632126782274S-1705,448.24632126782274,-1650,448.24632126782274S-1540,448.24632126782274,-1485,448.24632126782274S-1375,448.24632126782274,-1320,448.24632126782274S-1210,448.24632126782274,-1155,448.24632126782274S-1045,448.24632126782274,-990,448.24632126782274S-880,448.24632126782274,-825,448.24632126782274S-714.9999999999999,448.24632126782274,-660,448.24632126782274S-550,448.24632126782274,-495,448.24632126782274S-385,448.24632126782274,-330.00000000000006,448.24632126782274S-220,448.24632126782274,-165,448.24632126782274S-46.37673714856737,179.612347510334,0,159.61437774778318S110.90377709063875,141.8476468036934,165,134.85544207588634S282.34069754031907,84.3793127369616,330,65.6749676711994S440.0071616981327,5.971382047898061,495,5.34381363937473S605.3338659096021,-3.272137472333611,660,1.0000000000000568S770,448.24632126782274,825,448.24632126782274S935,448.24632126782274,990,448.24632126782274S1100,448.24632126782274,1155,448.24632126782274S1265,448.24632126782274,1320,448.24632126782274S1457.5,448.24632126782274,1485,448.24632126782274L1485,447.24632126782274C1457.5,447.24632126782274,1375,447.24632126782274,1320,447.24632126782274S1210,447.24632126782274,1155,447.24632126782274S1045,447.24632126782274,990,447.24632126782274S880,447.24632126782274,825,447.24632126782274S714.6846160257064,29.346891191822323,660,25.193982387754545S549.995215017617,28.889248393901852,495,29.40223098133208S378.6977547523278,58.99741248557282,330,76.51612229709042S218.8632535800981,140.29276021393375,165,148.11764747647265S45.87053873003373,153.45866147301405,0,173.92261286975878S-110,447.24632126782274,-165,447.24632126782274S-274.99999999999994,447.24632126782274,-330.00000000000006,447.24632126782274S-439.99999999999994,447.24632126782274,-495,447.24632126782274S-605.0000000000001,447.24632126782274,-660,447.24632126782274S-770,447.24632126782274,-825,447.24632126782274S-935,447.24632126782274,-990,447.24632126782274S-1100,447.24632126782274,-1155,447.24632126782274S-1265,447.24632126782274,-1320,447.24632126782274S-1430,447.24632126782274,-1485,447.24632126782274S-1595,447.24632126782274,-1650,447.24632126782274S-1760,447.24632126782274,-1815,447.24632126782274S-1925,447.24632126782274,-1980,447.24632126782274S-2090,447.24632126782274,-2145,447.24632126782274S-2255,447.24632126782274,-2310,447.24632126782274S-2420,447.24632126782274,-2475,447.24632126782274S-2585,447.24632126782274,-2640,447.24632126782274S-2750,447.24632126782274,-2805,447.24632126782274S-2915,447.24632126782274,-2970,447.24632126782274S-3080,447.24632126782274,-3135,447.24632126782274S-3245,447.24632126782274,-3300,447.24632126782274S-3410,447.24632126782274,-3465,447.24632126782274S-3575,447.24632126782274,-3630,447.24632126782274S-3740,447.24632126782274,-3795,447.24632126782274S-3904.9999999999995,447.24632126782274,-3960,447.24632126782274S-4069.9999999999995,447.24632126782274,-4125,447.24632126782274S-4235,447.24632126782274,-4290,447.24632126782274S-4400,447.24632126782274,-4455,447.24632126782274S-4565,447.24632126782274,-4620,447.24632126782274S-4730,447.24632126782274,-4785,447.24632126782274S-4895,447.24632126782274,-4950,447.24632126782274S-5060,447.24632126782274,-5115,447.24632126782274S-5225,447.24632126782274,-5280,447.24632126782274S-5390,447.24632126782274,-5445,447.24632126782274S-5555,447.24632126782274,-5610,447.24632126782274S-5720,447.24632126782274,-5775,447.24632126782274S-5885,447.24632126782274,-5940,447.24632126782274S-6050,447.24632126782274,-6105,447.24632126782274S-6215,447.24632126782274,-6270,447.24632126782274S-6407.5,447.24632126782274,-6435,447.24632126782274Z"></path></g><g class="text_layers"><text class="label" style="font-weight: lighter; " font-size="18px" font-family="PT Sans Narrow" dy="6" opacity="1" pointer-events="none" text-anchor="middle" fill="#333333" x="495" y="262.28081394424515"><tspan x="495" dy="11px">Food/Live</tspan><tspan x="495" dy="11px">Animals</tspan><tspan x="495" dy="11px">for</tspan><tspan x="495" dy="11px">Food</tspan></text><text class="label" style="font-weight: lighter; " font-size="18px" font-family="PT Sans Narrow" dy="6" opacity="1" pointer-events="none" text-anchor="middle" fill="#ffffff" x="495" y="72.02854606801307"><tspan x="495" dy="11px">Crude</tspan><tspan x="495" dy="11px">Materials,</tspan><tspan x="495" dy="11px">Inedible,</tspan><tspan x="495" dy="11px">exc....</tspan></text></g></g></g></svg>