<svg width="748" height="520" style="z-index: 10; position: absolute; "><rect id="svgbg" fill="#ffffff" width="748" height="520"></rect><g class="titles"></g><clipPath id="clipping"><rect width="748" height="520"></rect></clipPath><g class="parent" width="748" height="520" clip-path="url(#clipping)" transform="translate(0,0)"><g class="axes_labels"><text class="x_axis_label" x="374" y="510" font-family="sans-serif" font-size="14px" font-weight="lighter" fill="#333" text-anchor="middle">Year</text><text class="y_axis_label" y="15" x="-228.62316063391137" transform="rotate(-90)" font-family="sans-serif" font-size="14px" font-weight="lighter" fill="#333" text-anchor="middle">Current</text></g><g class="chart" transform="translate(76,5)"><rect style="fill: #fafafa; " id="background" x="0" y="0" width="662" height="447.24632126782274" stroke-width="1" stroke="#ccc" shape-rendering="crispEdges"></rect><g transform="translate(0,447.24632126782274)" class="xaxis"><g class="tick" style="opacity: 1; " transform="translate(662,0)"><line y2="0" x2="0"></line><text style="font-family: sans-serif; font-size: 12px; font-weight: lighter; fill: #888888; text-anchor: end; " transform="translate(-22,3)rotate(-65)" y="20" x="0" dy=".71em">2005</text><line class="tick" x1="0" x2="0" y1="10" y2="-447.24632126782274" stroke="#ccc" stroke-width="1" shape-rendering="crispEdges" opacity="1"></line></g><g class="tick" style="opacity: 1; " transform="translate(0,0)"><line y2="0" x2="0"></line><text style="font-family: sans-serif; font-size: 12px; font-weight: lighter; fill: #888888; text-anchor: end; " transform="translate(-22,3)rotate(-65)" y="20" x="0" dy=".71em">2001</text><line class="tick" x1="0" x2="0" y1="10" y2="-447.24632126782274" stroke="#ccc" stroke-width="1" shape-rendering="crispEdges" opacity="1"></line></g><g class="tick" style="opacity: 1; " transform="translate(82.75,0)"><line y2="0" x2="0"></line><text y="20" x="0" dy=".71em" style="text-anchor: end; "></text></g><g class="tick" style="opacity: 1; " transform="translate(165.5,0)"><line y2="0" x2="0"></line><text style="font-family: sans-serif; font-size: 12px; font-weight: lighter; fill: #888888; text-anchor: end; " transform="translate(-22,3)rotate(-65)" y="20" x="0" dy=".71em">2002</text><line class="tick" x1="0" x2="0" y1="10" y2="-447.24632126782274" stroke="#ccc" stroke-width="1" shape-rendering="crispEdges" opacity="1"></line></g><g class="tick" style="opacity: 1; " transform="translate(248.25,0)"><line y2="0" x2="0"></line><text y="20" x="0" dy=".71em" style="text-anchor: end; "></text></g><g class="tick" style="opacity: 1; " transform="translate(331,0)"><line y2="0" x2="0"></line><text style="font-family: sans-serif; font-size: 12px; font-weight: lighter; fill: #888888; text-anchor: end; " transform="translate(-22,3)rotate(-65)" y="20" x="0" dy=".71em">2003</text><line class="tick" x1="0" x2="0" y1="10" y2="-447.24632126782274" stroke="#ccc" stroke-width="1" shape-rendering="crispEdges" opacity="1"></line></g><g class="tick" style="opacity: 1; " transform="translate(413.75,0)"><line y2="0" x2="0"></line><text y="20" x="0" dy=".71em" style="text-anchor: end; "></text></g><g class="tick" style="opacity: 1; " transform="translate(496.5,0)"><line y2="0" x2="0"></line><text style="font-family: sans-serif; font-size: 12px; font-weight: lighter; fill: #888888; text-anchor: end; " transform="translate(-22,3)rotate(-65)" y="20" x="0" dy=".71em">2004</text><line class="tick" x1="0" x2="0" y1="10" y2="-447.24632126782274" stroke="#ccc" stroke-width="1" shape-rendering="crispEdges" opacity="1"></line></g><g class="tick" style="opacity: 1; " transform="translate(579.25,0)"><line y2="0" x2="0"></line><text y="20" x="0" dy=".71em" style="text-anchor: end; "></text></g><path class="domain" d="M0,0V0H662V0"></path></g><g class="yaxis"><g class="tick" style="opacity: 1; " transform="translate(0,447.24632126782274)"><line x2="0" y2="0"></line><text style="font-family: sans-serif; font-size: 12px; font-weight: lighter; fill: #888888; text-anchor: end; " x="-15" y="0" dy=".32em">0</text><line class="tick" x1="-10" x2="662" y1="0" y2="0" stroke="#ccc" stroke-width="1" shape-rendering="crispEdges" opacity="1"></line></g><g class="tick" style="opacity: 1; " transform="translate(0,375.7503887346069)"><line x2="0" y2="0"></line><text style="font-family: sans-serif; font-size: 12px; font-weight: lighter; fill: #888888; text-anchor: end; " x="-15" y="0" dy=".32em">$100B</text><line class="tick" x1="-10" x2="662" y1="0" y2="0" stroke="#ccc" stroke-width="1" shape-rendering="crispEdges" opacity="1"></line></g><g class="tick" style="opacity: 1; " transform="translate(0,304.25445620139106)"><line x2="0" y2="0"></line><text style="font-family: sans-serif; font-size: 12px; font-weight: lighter; fill: #888888; text-anchor: end; " x="-15" y="0" dy=".32em">$200B</text><line class="tick" x1="-10" x2="662" y1="0" y2="0" stroke="#ccc" stroke-width="1" shape-rendering="crispEdges" opacity="1"></line></g><g class="tick" style="opacity: 1; " transform="translate(0,232.75852366817526)"><line x2="0" y2="0"></line><text style="font-family: sans-serif; font-size: 12px; font-weight: lighter; fill: #888888; text-anchor: end; " x="-15" y="0" dy=".32em">$300B</text><line class="tick" x1="-10" x2="662" y1="0" y2="0" stroke="#ccc" stroke-width="1" shape-rendering="crispEdges" opacity="1"></line></g><g class="tick" style="opacity: 1; " transform="translate(0,161.2625911349594)"><line x2="0" y2="0"></line><text style="font-family: sans-serif; font-size: 12px; font-weight: lighter; fill: #888888; text-anchor: end; " x="-15" y="0" dy=".32em">$400B</text><line class="tick" x1="-10" x2="662" y1="0" y2="0" stroke="#ccc" stroke-width="1" shape-rendering="crispEdges" opacity="1"></line></g><g class="tick" style="opacity: 1; " transform="translate(0,89.76665860174364)"><line x2="0" y2="0"></line><text style="font-family: sans-serif; font-size: 12px; font-weight: lighter; fill: #888888; text-anchor: end; " x="-15" y="0" dy=".32em">$500B</text><line class="tick" x1="-10" x2="662" y1="0" y2="0" stroke="#ccc" stroke-width="1" shape-rendering="crispEdges" opacity="1"></line></g><g class="tick" style="opacity: 1; " transform="translate(0,18.27072606852778)"><line x2="0" y2="0"></line><text style="font-family: sans-serif; font-size: 12px; font-weight: lighter; fill: #888888; text-anchor: end; " x="-15" y="0" dy=".32em">$600B</text><line class="tick" x1="-10" x2="662" y1="0" y2="0" stroke="#ccc" stroke-width="1" shape-rendering="crispEdges" opacity="1"></line></g><g class="tick" style="opacity: 1; " transform="translate(0,411.4983550012148)"><line x2="0" y2="0"></line><text style="font-family: sans-serif; font-size: 12px; font-weight: lighter; fill: #888888; text-anchor: end; " x="-15" y="0" dy=".32em">$50B</text><line class="tick" x1="-10" x2="662" y1="0" y2="0" stroke="#ccc" stroke-width="1" shape-rendering="crispEdges" opacity="1"></line></g><g class="tick" style="opacity: 1; " transform="translate(0,340.002422467999)"><line x2="0" y2="0"></line><text style="font-family: sans-serif; font-size: 12px; font-weight: lighter; fill: #888888; text-anchor: end; " x="-15" y="0" dy=".32em">$150B</text><line class="tick" x1="-10" x2="662" y1="0" y2="0" stroke="#ccc" stroke-width="1" shape-rendering="crispEdges" opacity="1"></line></g><g class="tick" style="opacity: 1; " transform="translate(0,268.5064899347832)"><line x2="0" y2="0"></line><text style="font-family: sans-serif; font-size: 12px; font-weight: lighter; fill: #888888; text-anchor: end; " x="-15" y="0" dy=".32em">$250B</text><line class="tick" x1="-10" x2="662" y1="0" y2="0" stroke="#ccc" stroke-width="1" shape-rendering="crispEdges" opacity="1"></line></g><g class="tick" style="opacity: 1; " transform="translate(0,197.01055740156733)"><line x2="0" y2="0"></line><text style="font-family: sans-serif; font-size: 12px; font-weight: lighter; fill: #888888; text-anchor: end; " x="-15" y="0" dy=".32em">$350B</text><line class="tick" x1="-10" x2="662" y1="0" y2="0" stroke="#ccc" stroke-width="1" shape-rendering="crispEdges" opacity="1"></line></g><g class="tick" style="opacity: 1; " transform="translate(0,125.51462486835158)"><line x2="0" y2="0"></line><text style="font-family: sans-serif; font-size: 12px; font-weight: lighter; fill: #888888; text-anchor: end; " x="-15" y="0" dy=".32em">$450B</text><line class="tick" x1="-10" x2="662" y1="0" y2="0" stroke="#ccc" stroke-width="1" shape-rendering="crispEdges" opacity="1"></line></g><g class="tick" style="opacity: 1; " transform="translate(0,54.01869233513571)"><line x2="0" y2="0"></line><text style="font-family: sans-serif; font-size: 12px; font-weight: lighter; fill: #888888; text-anchor: end; " x="-15" y="0" dy=".32em">$550B</text><line class="tick" x1="-10" x2="662" y1="0" y2="0" stroke="#ccc" stroke-width="1" shape-rendering="crispEdges" opacity="1"></line></g><path class="domain" d="M0,0H0V447.24632126782274H0"></path></g><clipPath id="path_clipping"><rect width="662" height="447.24632126782274" y="1" x="1"></rect></clipPath><g class="layers" clip-path="url(#path_clipping)"><path opacity="0.85" id="path_5000" class="layer" fill="#71144b" d="M-5627,448.24632126782274C-5599.416666666667,448.24632126782274,-5516.666666666667,448.24632126782274,-5461.5,448.24632126782274S-5351.166666666667,448.24632126782274,-5296,448.24632126782274S-5185.666666666667,448.24632126782274,-5130.5,448.24632126782274S-5020.166666666667,448.24632126782274,-4965,448.24632126782274S-4854.666666666667,448.24632126782274,-4799.5,448.24632126782274S-4689.166666666667,448.24632126782274,-4634,448.24632126782274S-4523.666666666667,448.24632126782274,-4468.5,448.24632126782274S-4358.166666666667,448.24632126782274,-4303,448.24632126782274S-4192.666666666667,448.24632126782274,-4137.5,448.24632126782274S-4027.1666666666665,448.24632126782274,-3972.0000000000005,448.24632126782274S-3861.6666666666665,448.24632126782274,-3806.5,448.24632126782274S-3696.1666666666665,448.24632126782274,-3641,448.24632126782274S-3530.6666666666665,448.24632126782274,-3475.5,448.24632126782274S-3365.1666666666665,448.24632126782274,-3310,448.24632126782274S-3199.6666666666665,448.24632126782274,-3144.5,448.24632126782274S-3034.166666666666,448.24632126782274,-2979,448.24632126782274S-2868.6666666666665,448.24632126782274,-2813.5,448.24632126782274S-2703.1666666666665,448.24632126782274,-2648,448.24632126782274S-2537.6666666666665,448.24632126782274,-2482.5,448.24632126782274S-2372.1666666666665,448.24632126782274,-2317,448.24632126782274S-2206.6666666666665,448.24632126782274,-2151.5,448.24632126782274S-2041.166666666667,448.24632126782274,-1985.9999999999998,448.24632126782274S-1875.666666666667,448.24632126782274,-1820.5,448.24632126782274S-1710.166666666667,448.24632126782274,-1655,448.24632126782274S-1544.666666666667,448.24632126782274,-1489.5,448.24632126782274S-1379.1666666666667,448.24632126782274,-1324,448.24632126782274S-1213.6666666666667,448.24632126782274,-1158.5,448.24632126782274S-1048.166666666667,448.24632126782274,-993,448.24632126782274S-882.6666666666667,448.24632126782274,-827.4999999999999,448.24632126782274S-717.1666666666667,448.24632126782274,-662,448.24632126782274S-551.6666666666666,448.24632126782274,-496.5,448.24632126782274S-386.16666666666663,448.24632126782274,-331,448.24632126782274S-220.66666666666669,448.24632126782274,-165.49999999999994,448.24632126782274S-55.0025090255682,420.03705600996045,0,417.0322128965625S110.35427780253212,414.90708783175955,165.5,413.83237955505905S276.08284540219637,408.4574201108693,331,404.7557322715492S441.42261827075214,393.73890428902354,496.5,391.5213424339926S607.5481263462954,378.58306074852834,662,384.82179610357883S772.3333333333334,448.24632126782274,827.5,448.24632126782274S937.8333333333334,448.24632126782274,993,448.24632126782274S1103.3333333333333,448.24632126782274,1158.5,448.24632126782274S1268.8333333333333,448.24632126782274,1324,448.24632126782274S1461.9166666666667,448.24632126782274,1489.5,448.24632126782274L1489.5,447.24632126782274C1461.9166666666667,447.24632126782274,1379.1666666666667,447.24632126782274,1324,447.24632126782274S1213.6666666666667,447.24632126782274,1158.5,447.24632126782274S1048.1666666666667,447.24632126782274,993,447.24632126782274S882.6666666666666,447.24632126782274,827.5,447.24632126782274S717.1666666666666,447.24632126782274,662,447.24632126782274S551.6666666666666,447.24632126782274,496.5,447.24632126782274S386.1666666666667,447.24632126782274,331,447.24632126782274S220.66666666666663,447.24632126782274,165.5,447.24632126782274S55.166666666666686,447.24632126782274,0,447.24632126782274S-110.33333333333337,447.24632126782274,-165.49999999999994,447.24632126782274S-275.8333333333333,447.24632126782274,-331,447.24632126782274S-441.33333333333326,447.24632126782274,-496.5,447.24632126782274S-606.8333333333333,447.24632126782274,-662,447.24632126782274S-772.3333333333334,447.24632126782274,-827.4999999999999,447.24632126782274S-937.8333333333334,447.24632126782274,-993,447.24632126782274S-1103.3333333333333,447.24632126782274,-1158.5,447.24632126782274S-1268.833333333333,447.24632126782274,-1324,447.24632126782274S-1434.3333333333333,447.24632126782274,-1489.5,447.24632126782274S-1599.8333333333333,447.24632126782274,-1655,447.24632126782274S-1765.3333333333333,447.24632126782274,-1820.5,447.24632126782274S-1930.8333333333335,447.24632126782274,-1985.9999999999998,447.24632126782274S-2096.3333333333335,447.24632126782274,-2151.5,447.24632126782274S-2261.833333333333,447.24632126782274,-2317,447.24632126782274S-2427.3333333333335,447.24632126782274,-2482.5,447.24632126782274S-2592.8333333333335,447.24632126782274,-2648,447.24632126782274S-2758.333333333333,447.24632126782274,-2813.5,447.24632126782274S-2923.8333333333335,447.24632126782274,-2979,447.24632126782274S-3089.3333333333335,447.24632126782274,-3144.5,447.24632126782274S-3254.8333333333335,447.24632126782274,-3310,447.24632126782274S-3420.3333333333335,447.24632126782274,-3475.5,447.24632126782274S-3585.8333333333335,447.24632126782274,-3641,447.24632126782274S-3751.3333333333335,447.24632126782274,-3806.5,447.24632126782274S-3916.8333333333335,447.24632126782274,-3972.0000000000005,447.24632126782274S-4082.333333333333,447.24632126782274,-4137.5,447.24632126782274S-4247.833333333333,447.24632126782274,-4303,447.24632126782274S-4413.333333333333,447.24632126782274,-4468.5,447.24632126782274S-4578.833333333333,447.24632126782274,-4634,447.24632126782274S-4744.333333333333,447.24632126782274,-4799.5,447.24632126782274S-4909.833333333333,447.24632126782274,-4965,447.24632126782274S-5075.333333333333,447.24632126782274,-5130.5,447.24632126782274S-5240.833333333333,447.24632126782274,-5296,447.24632126782274S-5406.333333333333,447.24632126782274,-5461.5,447.24632126782274S-5599.416666666667,447.24632126782274,-5627,447.24632126782274Z"></path><path opacity="0.85" id="path_8000" class="layer" fill="#5493c9" d="M-5627,448.24632126782274C-5599.416666666667,448.24632126782274,-5516.666666666667,448.24632126782274,-5461.5,448.24632126782274S-5351.166666666667,448.24632126782274,-5296,448.24632126782274S-5185.666666666667,448.24632126782274,-5130.5,448.24632126782274S-5020.166666666667,448.24632126782274,-4965,448.24632126782274S-4854.666666666667,448.24632126782274,-4799.5,448.24632126782274S-4689.166666666667,448.24632126782274,-4634,448.24632126782274S-4523.666666666667,448.24632126782274,-4468.5,448.24632126782274S-4358.166666666667,448.24632126782274,-4303,448.24632126782274S-4192.666666666667,448.24632126782274,-4137.5,448.24632126782274S-4027.1666666666665,448.24632126782274,-3972.0000000000005,448.24632126782274S-3861.6666666666665,448.24632126782274,-3806.5,448.24632126782274S-3696.1666666666665,448.24632126782274,-3641,448.24632126782274S-3530.6666666666665,448.24632126782274,-3475.5,448.24632126782274S-3365.1666666666665,448.24632126782274,-3310,448.24632126782274S-3199.6666666666665,448.24632126782274,-3144.5,448.24632126782274S-3034.1666666666665,448.24632126782274,-2979,448.24632126782274S-2868.6666666666665,448.24632126782274,-2813.5,448.24632126782274S-2703.1666666666665,448.24632126782274,-2648,448.24632126782274S-2537.6666666666665,448.24632126782274,-2482.5,448.24632126782274S-2372.166666666667,448.24632126782274,-2317,448.24632126782274S-2206.6666666666665,448.24632126782274,-2151.5,448.24632126782274S-2041.1666666666667,448.24632126782274,-1985.9999999999998,448.24632126782274S-1875.6666666666665,448.24632126782274,-1820.5,448.24632126782274S-1710.1666666666665,448.24632126782274,-1655,448.24632126782274S-1544.6666666666667,448.24632126782274,-1489.5,448.24632126782274S-1379.1666666666667,448.24632126782274,-1324,448.24632126782274S-1213.6666666666667,448.24632126782274,-1158.5,448.24632126782274S-1048.166666666667,448.24632126782274,-993,448.24632126782274S-882.6666666666667,448.24632126782274,-827.4999999999999,448.24632126782274S-717.1666666666667,448.24632126782274,-662,448.24632126782274S-551.6666666666666,448.24632126782274,-496.5,448.24632126782274S-386.1666666666667,448.24632126782274,-331,448.24632126782274S-220.66666666666663,448.24632126782274,-165.49999999999994,448.24632126782274S-55.16586053927142,371.2164080129882,0,371.0055272138107S110.33335249355696,371.25141412835694,165.5,371.2189025103915S276.3428853720908,364.407704708502,331,359.13033375401596S441.48987802967946,342.1940236534392,496.5,339.25948061579123S608.7411167972182,318.3315909389612,662,328.41159176630435S772.3333333333334,448.24632126782274,827.5,448.24632126782274S937.8333333333334,448.24632126782274,993,448.24632126782274S1103.3333333333333,448.24632126782274,1158.5,448.24632126782274S1268.8333333333333,448.24632126782274,1324,448.24632126782274S1461.9166666666667,448.24632126782274,1489.5,448.24632126782274L1489.5,447.24632126782274C1461.9166666666667,447.24632126782274,1379.1666666666667,447.24632126782274,1324,447.24632126782274S1213.6666666666667,447.24632126782274,1158.5,447.24632126782274S1048.1666666666667,447.24632126782274,993,447.24632126782274S882.6666666666666,447.24632126782274,827.5,447.24632126782274S716.4518736537046,390.0605314586293,662,383.82179610357883S551.5773817292478,388.3037805789616,496.5,390.5213424339926S385.91715459780363,400.05404443222915,331,403.7557322715492S220.64572219746788,411.75767127835854,165.5,412.83237955505905S55.0025090255682,413.02736978316454,0,416.0322128965625S-110.33333333333337,447.24632126782274,-165.49999999999994,447.24632126782274S-275.83333333333337,447.24632126782274,-331,447.24632126782274S-441.33333333333326,447.24632126782274,-496.5,447.24632126782274S-606.8333333333333,447.24632126782274,-662,447.24632126782274S-772.3333333333333,447.24632126782274,-827.4999999999999,447.24632126782274S-937.8333333333335,447.24632126782274,-993,447.24632126782274S-1103.3333333333333,447.24632126782274,-1158.5,447.24632126782274S-1268.833333333333,447.24632126782274,-1324,447.24632126782274S-1434.333333333333,447.24632126782274,-1489.5,447.24632126782274S-1599.8333333333333,447.24632126782274,-1655,447.24632126782274S-1765.333333333333,447.24632126782274,-1820.5,447.24632126782274S-1930.8333333333333,447.24632126782274,-1985.9999999999998,447.24632126782274S-2096.3333333333335,447.24632126782274,-2151.5,447.24632126782274S-2261.8333333333335,447.24632126782274,-2317,447.24632126782274S-2427.3333333333335,447.24632126782274,-2482.5,447.24632126782274S-2592.8333333333335,447.24632126782274,-2648,447.24632126782274S-2758.333333333333,447.24632126782274,-2813.5,447.24632126782274S-2923.8333333333335,447.24632126782274,-2979,447.24632126782274S-3089.3333333333335,447.24632126782274,-3144.5,447.24632126782274S-3254.8333333333335,447.24632126782274,-3310,447.24632126782274S-3420.3333333333335,447.24632126782274,-3475.5,447.24632126782274S-3585.8333333333335,447.24632126782274,-3641,447.24632126782274S-3751.3333333333335,447.24632126782274,-3806.5,447.24632126782274S-3916.8333333333335,447.24632126782274,-3972.0000000000005,447.24632126782274S-4082.333333333333,447.24632126782274,-4137.5,447.24632126782274S-4247.833333333333,447.24632126782274,-4303,447.24632126782274S-4413.333333333333,447.24632126782274,-4468.5,447.24632126782274S-4578.833333333333,447.24632126782274,-4634,447.24632126782274S-4744.333333333333,447.24632126782274,-4799.5,447.24632126782274S-4909.833333333333,447.24632126782274,-4965,447.24632126782274S-5075.333333333333,447.24632126782274,-5130.5,447.24632126782274S-5240.833333333333,447.24632126782274,-5296,447.24632126782274S-5406.333333333333,447.24632126782274,-5461.5,447.24632126782274S-5599.416666666667,447.24632126782274,-5627,447.24632126782274Z"></path><path opacity="0.85" id="path_7000" class="layer" fill="#9edae5" d="M-5627,448.24632126782274C-5599.416666666667,448.24632126782274,-5516.666666666667,448.24632126782274,-5461.5,448.24632126782274S-5351.166666666667,448.24632126782274,-5296,448.24632126782274S-5185.666666666667,448.24632126782274,-5130.5,448.24632126782274S-5020.166666666667,448.24632126782274,-4965,448.24632126782274S-4854.666666666667,448.24632126782274,-4799.5,448.24632126782274S-4689.166666666667,448.24632126782274,-4634,448.24632126782274S-4523.666666666667,448.24632126782274,-4468.5,448.24632126782274S-4358.166666666667,448.24632126782274,-4303,448.24632126782274S-4192.666666666667,448.24632126782274,-4137.5,448.24632126782274S-4027.166666666667,448.24632126782274,-3972.0000000000005,448.24632126782274S-3861.6666666666665,448.24632126782274,-3806.5,448.24632126782274S-3696.1666666666665,448.24632126782274,-3641,448.24632126782274S-3530.6666666666665,448.24632126782274,-3475.5,448.24632126782274S-3365.1666666666665,448.24632126782274,-3310,448.24632126782274S-3199.6666666666665,448.24632126782274,-3144.5,448.24632126782274S-3034.1666666666665,448.24632126782274,-2979,448.24632126782274S-2868.6666666666665,448.24632126782274,-2813.5,448.24632126782274S-2703.1666666666665,448.24632126782274,-2648,448.24632126782274S-2537.6666666666665,448.24632126782274,-2482.5,448.24632126782274S-2372.166666666666,448.24632126782274,-2317,448.24632126782274S-2206.6666666666665,448.24632126782274,-2151.5,448.24632126782274S-2041.1666666666667,448.24632126782274,-1985.9999999999998,448.24632126782274S-1875.6666666666665,448.24632126782274,-1820.5,448.24632126782274S-1710.1666666666665,448.24632126782274,-1655,448.24632126782274S-1544.6666666666667,448.24632126782274,-1489.5,448.24632126782274S-1379.1666666666667,448.24632126782274,-1324,448.24632126782274S-1213.6666666666667,448.24632126782274,-1158.5,448.24632126782274S-1048.1666666666667,448.24632126782274,-993,448.24632126782274S-882.6666666666667,448.24632126782274,-827.4999999999999,448.24632126782274S-717.1666666666667,448.24632126782274,-662,448.24632126782274S-551.6666666666666,448.24632126782274,-496.5,448.24632126782274S-386.16666666666663,448.24632126782274,-331,448.24632126782274S-220.66666666666663,448.24632126782274,-165.49999999999994,448.24632126782274S-51.047433090862455,170.7898654444956,0,156.28895856435537S110.33399752775597,171.76975582334583,165.5,171.96117408569955S277.31035377635413,168.5688536550486,331,159.66375932366282S442.4248048863948,124.74326261161175,496.5,117.06071503982628S621.7898544129122,57.99107183988886,662,82.51460931078026S772.3333333333334,448.24632126782274,827.5,448.24632126782274S937.8333333333334,448.24632126782274,993,448.24632126782274S1103.3333333333333,448.24632126782274,1158.5,448.24632126782274S1268.8333333333333,448.24632126782274,1324,448.24632126782274S1461.9166666666667,448.24632126782274,1489.5,448.24632126782274L1489.5,447.24632126782274C1461.9166666666667,447.24632126782274,1379.1666666666667,447.24632126782274,1324,447.24632126782274S1213.6666666666667,447.24632126782274,1158.5,447.24632126782274S1048.1666666666667,447.24632126782274,993,447.24632126782274S882.6666666666666,447.24632126782274,827.5,447.24632126782274S715.2588832027818,337.4915925936475,662,327.41159176630435S551.5101219703205,335.32493757814325,496.5,338.25948061579123S385.6571146279092,352.8529627995299,331,358.13033375401596S220.66664750644304,370.18639089242606,165.5,370.2189025103915S55.16586053927142,369.7946464146332,0,370.0055272138107S-110.33333333333337,447.24632126782274,-165.49999999999994,447.24632126782274S-275.8333333333333,447.24632126782274,-331,447.24632126782274S-441.33333333333326,447.24632126782274,-496.5,447.24632126782274S-606.8333333333333,447.24632126782274,-662,447.24632126782274S-772.3333333333333,447.24632126782274,-827.4999999999999,447.24632126782274S-937.8333333333335,447.24632126782274,-993,447.24632126782274S-1103.3333333333333,447.24632126782274,-1158.5,447.24632126782274S-1268.833333333333,447.24632126782274,-1324,447.24632126782274S-1434.3333333333333,447.24632126782274,-1489.5,447.24632126782274S-1599.8333333333333,447.24632126782274,-1655,447.24632126782274S-1765.3333333333335,447.24632126782274,-1820.5,447.24632126782274S-1930.8333333333333,447.24632126782274,-1985.9999999999998,447.24632126782274S-2096.3333333333335,447.24632126782274,-2151.5,447.24632126782274S-2261.833333333333,447.24632126782274,-2317,447.24632126782274S-2427.3333333333335,447.24632126782274,-2482.5,447.24632126782274S-2592.8333333333335,447.24632126782274,-2648,447.24632126782274S-2758.333333333334,447.24632126782274,-2813.5,447.24632126782274S-2923.8333333333335,447.24632126782274,-2979,447.24632126782274S-3089.3333333333335,447.24632126782274,-3144.5,447.24632126782274S-3254.8333333333335,447.24632126782274,-3310,447.24632126782274S-3420.3333333333335,447.24632126782274,-3475.5,447.24632126782274S-3585.8333333333335,447.24632126782274,-3641,447.24632126782274S-3751.3333333333335,447.24632126782274,-3806.5,447.24632126782274S-3916.8333333333335,447.24632126782274,-3972.0000000000005,447.24632126782274S-4082.333333333333,447.24632126782274,-4137.5,447.24632126782274S-4247.833333333333,447.24632126782274,-4303,447.24632126782274S-4413.333333333333,447.24632126782274,-4468.5,447.24632126782274S-4578.833333333333,447.24632126782274,-4634,447.24632126782274S-4744.333333333333,447.24632126782274,-4799.5,447.24632126782274S-4909.833333333333,447.24632126782274,-4965,447.24632126782274S-5075.333333333333,447.24632126782274,-5130.5,447.24632126782274S-5240.833333333333,447.24632126782274,-5296,447.24632126782274S-5406.333333333333,447.24632126782274,-5461.5,447.24632126782274S-5599.416666666667,447.24632126782274,-5627,447.24632126782274Z"></path><path opacity="0.85" id="path_9000" class="layer" fill="#9c9a87" d="M-5627,448.24632126782274C-5599.416666666667,448.24632126782274,-5516.666666666667,448.24632126782274,-5461.5,448.24632126782274S-5351.166666666667,448.24632126782274,-5296,448.24632126782274S-5185.666666666667,448.24632126782274,-5130.5,448.24632126782274S-5020.166666666667,448.24632126782274,-4965,448.24632126782274S-4854.666666666667,448.24632126782274,-4799.5,448.24632126782274S-4689.166666666667,448.24632126782274,-4634,448.24632126782274S-4523.666666666667,448.24632126782274,-4468.5,448.24632126782274S-4358.166666666667,448.24632126782274,-4303,448.24632126782274S-4192.666666666667,448.24632126782274,-4137.5,448.24632126782274S-4027.166666666667,448.24632126782274,-3972.0000000000005,448.24632126782274S-3861.6666666666665,448.24632126782274,-3806.5,448.24632126782274S-3696.1666666666665,448.24632126782274,-3641,448.24632126782274S-3530.6666666666665,448.24632126782274,-3475.5,448.24632126782274S-3365.1666666666665,448.24632126782274,-3310,448.24632126782274S-3199.6666666666665,448.24632126782274,-3144.5,448.24632126782274S-3034.1666666666665,448.24632126782274,-2979,448.24632126782274S-2868.6666666666665,448.24632126782274,-2813.5,448.24632126782274S-2703.1666666666665,448.24632126782274,-2648,448.24632126782274S-2537.6666666666665,448.24632126782274,-2482.5,448.24632126782274S-2372.1666666666665,448.24632126782274,-2317,448.24632126782274S-2206.6666666666665,448.24632126782274,-2151.5,448.24632126782274S-2041.166666666667,448.24632126782274,-1985.9999999999998,448.24632126782274S-1875.6666666666667,448.24632126782274,-1820.5,448.24632126782274S-1710.166666666667,448.24632126782274,-1655,448.24632126782274S-1544.6666666666667,448.24632126782274,-1489.5,448.24632126782274S-1379.1666666666667,448.24632126782274,-1324,448.24632126782274S-1213.6666666666667,448.24632126782274,-1158.5,448.24632126782274S-1048.1666666666667,448.24632126782274,-993,448.24632126782274S-882.6666666666667,448.24632126782274,-827.4999999999999,448.24632126782274S-717.1666666666667,448.24632126782274,-662,448.24632126782274S-551.6666666666666,448.24632126782274,-496.5,448.24632126782274S-386.16666666666674,448.24632126782274,-331,448.24632126782274S-220.66666666666663,448.24632126782274,-165.49999999999994,448.24632126782274S-50.957409297951585,169.6464798083812,0,155.00090537177977S110.33390783144972,170.67922931989582,165.5,170.85725408232912S277.393474524397,167.26062691542361,331,158.11547800989496S442.36795800625373,121.87316062620154,496.5,114.38942183851714S621.2860557625078,56.390138741756886,662,80.64765994779441S772.3333333333334,448.24632126782274,827.5,448.24632126782274S937.8333333333334,448.24632126782274,993,448.24632126782274S1103.3333333333333,448.24632126782274,1158.5,448.24632126782274S1268.8333333333333,448.24632126782274,1324,448.24632126782274S1461.9166666666667,448.24632126782274,1489.5,448.24632126782274L1489.5,447.24632126782274C1461.9166666666667,447.24632126782274,1379.1666666666667,447.24632126782274,1324,447.24632126782274S1213.6666666666667,447.24632126782274,1158.5,447.24632126782274S1048.1666666666667,447.24632126782274,993,447.24632126782274S882.6666666666666,447.24632126782274,827.5,447.24632126782274S702.2101455870878,106.03814678167166,662,81.51460931078026S550.5751951136052,108.3781674680408,496.5,116.06071503982628S384.68964622364587,149.75866499227703,331,158.66375932366282S220.66600247224403,171.15259234805328,165.5,170.96117408569955S51.04743309086251,140.78805168421513,0,155.28895856435537S-110.33333333333337,447.24632126782274,-165.49999999999994,447.24632126782274S-275.83333333333337,447.24632126782274,-331,447.24632126782274S-441.33333333333326,447.24632126782274,-496.5,447.24632126782274S-606.8333333333333,447.24632126782274,-662,447.24632126782274S-772.3333333333333,447.24632126782274,-827.4999999999999,447.24632126782274S-937.8333333333335,447.24632126782274,-993,447.24632126782274S-1103.3333333333333,447.24632126782274,-1158.5,447.24632126782274S-1268.8333333333333,447.24632126782274,-1324,447.24632126782274S-1434.3333333333333,447.24632126782274,-1489.5,447.24632126782274S-1599.833333333333,447.24632126782274,-1655,447.24632126782274S-1765.3333333333335,447.24632126782274,-1820.5,447.24632126782274S-1930.8333333333335,447.24632126782274,-1985.9999999999998,447.24632126782274S-2096.3333333333335,447.24632126782274,-2151.5,447.24632126782274S-2261.833333333334,447.24632126782274,-2317,447.24632126782274S-2427.3333333333335,447.24632126782274,-2482.5,447.24632126782274S-2592.8333333333335,447.24632126782274,-2648,447.24632126782274S-2758.3333333333335,447.24632126782274,-2813.5,447.24632126782274S-2923.8333333333335,447.24632126782274,-2979,447.24632126782274S-3089.3333333333335,447.24632126782274,-3144.5,447.24632126782274S-3254.8333333333335,447.24632126782274,-3310,447.24632126782274S-3420.3333333333335,447.24632126782274,-3475.5,447.24632126782274S-3585.8333333333335,447.24632126782274,-3641,447.24632126782274S-3751.3333333333335,447.24632126782274,-3806.5,447.24632126782274S-3916.8333333333335,447.24632126782274,-3972.0000000000005,447.24632126782274S-4082.3333333333335,447.24632126782274,-4137.5,447.24632126782274S-4247.833333333333,447.24632126782274,-4303,447.24632126782274S-4413.333333333333,447.24632126782274,-4468.5,447.24632126782274S-4578.833333333333,447.24632126782274,-4634,447.24632126782274S-4744.333333333333,447.24632126782274,-4799.5,447.24632126782274S-4909.833333333333,447.24632126782274,-4965,447.24632126782274S-5075.333333333333,447.24632126782274,-5130.5,447.24632126782274S-5240.833333333333,447.24632126782274,-5296,447.24632126782274S-5406.333333333333,447.24632126782274,-5461.5,447.24632126782274S-5599.416666666667,447.24632126782274,-5627,447.24632126782274Z"></path><path opacity="0.85" id="path_0000" class="layer" fill="#ffe999" d="M-5627,448.24632126782274C-5599.416666666667,448.24632126782274,-5516.666666666667,448.24632126782274,-5461.5,448.24632126782274S-5351.166666666667,448.24632126782274,-5296,448.24632126782274S-5185.666666666667,448.24632126782274,-5130.5,448.24632126782274S-5020.166666666667,448.24632126782274,-4965,448.24632126782274S-4854.666666666667,448.24632126782274,-4799.5,448.24632126782274S-4689.166666666667,448.24632126782274,-4634,448.24632126782274S-4523.666666666667,448.24632126782274,-4468.5,448.24632126782274S-4358.166666666667,448.24632126782274,-4303,448.24632126782274S-4192.666666666667,448.24632126782274,-4137.5,448.24632126782274S-4027.1666666666665,448.24632126782274,-3972.0000000000005,448.24632126782274S-3861.6666666666665,448.24632126782274,-3806.5,448.24632126782274S-3696.1666666666665,448.24632126782274,-3641,448.24632126782274S-3530.6666666666665,448.24632126782274,-3475.5,448.24632126782274S-3365.1666666666665,448.24632126782274,-3310,448.24632126782274S-3199.6666666666665,448.24632126782274,-3144.5,448.24632126782274S-3034.1666666666665,448.24632126782274,-2979,448.24632126782274S-2868.6666666666665,448.24632126782274,-2813.5,448.24632126782274S-2703.1666666666665,448.24632126782274,-2648,448.24632126782274S-2537.6666666666665,448.24632126782274,-2482.5,448.24632126782274S-2372.1666666666665,448.24632126782274,-2317,448.24632126782274S-2206.6666666666665,448.24632126782274,-2151.5,448.24632126782274S-2041.1666666666667,448.24632126782274,-1985.9999999999998,448.24632126782274S-1875.6666666666665,448.24632126782274,-1820.5,448.24632126782274S-1710.1666666666667,448.24632126782274,-1655,448.24632126782274S-1544.6666666666667,448.24632126782274,-1489.5,448.24632126782274S-1379.1666666666667,448.24632126782274,-1324,448.24632126782274S-1213.666666666667,448.24632126782274,-1158.5,448.24632126782274S-1048.1666666666667,448.24632126782274,-993,448.24632126782274S-882.6666666666667,448.24632126782274,-827.4999999999999,448.24632126782274S-717.1666666666667,448.24632126782274,-662,448.24632126782274S-551.6666666666666,448.24632126782274,-496.5,448.24632126782274S-386.1666666666667,448.24632126782274,-331,448.24632126782274S-220.66666666666663,448.24632126782274,-165.49999999999994,448.24632126782274S-50.422382808299176,155.39408949031593,0,139.9274125085645S110.33364417027337,156.7189192531721,165.5,156.8498686374307S277.54087394326,151.73662398075516,331,142.182377348337S442.3934080401274,105.2667952237541,496.5,97.69335283554739S622.0704539016565,38.08492514895187,662,62.750920124603624S772.3333333333334,448.24632126782274,827.5,448.24632126782274S937.8333333333334,448.24632126782274,993,448.24632126782274S1103.3333333333333,448.24632126782274,1158.5,448.24632126782274S1268.8333333333333,448.24632126782274,1324,448.24632126782274S1461.9166666666667,448.24632126782274,1489.5,448.24632126782274L1489.5,447.24632126782274C1461.9166666666667,447.24632126782274,1379.1666666666667,447.24632126782274,1324,447.24632126782274S1213.6666666666667,447.24632126782274,1158.5,447.24632126782274S1048.1666666666667,447.24632126782274,993,447.24632126782274S882.6666666666666,447.24632126782274,827.5,447.24632126782274S702.7139442374922,103.90518115383193,662,79.64765994779441S550.6320419937463,105.90568305083274,496.5,113.38942183851714S384.606525475603,147.9703291043663,331,157.11547800989496S220.66609216855028,170.03527884476242,165.5,169.85725408232912S50.957409297951585,139.35533093517833,0,154.00090537177977S-110.33333333333337,447.24632126782274,-165.49999999999994,447.24632126782274S-275.83333333333326,447.24632126782274,-331,447.24632126782274S-441.33333333333326,447.24632126782274,-496.5,447.24632126782274S-606.8333333333333,447.24632126782274,-662,447.24632126782274S-772.3333333333335,447.24632126782274,-827.4999999999999,447.24632126782274S-937.8333333333334,447.24632126782274,-993,447.24632126782274S-1103.333333333333,447.24632126782274,-1158.5,447.24632126782274S-1268.833333333333,447.24632126782274,-1324,447.24632126782274S-1434.3333333333333,447.24632126782274,-1489.5,447.24632126782274S-1599.8333333333333,447.24632126782274,-1655,447.24632126782274S-1765.3333333333333,447.24632126782274,-1820.5,447.24632126782274S-1930.8333333333333,447.24632126782274,-1985.9999999999998,447.24632126782274S-2096.3333333333335,447.24632126782274,-2151.5,447.24632126782274S-2261.8333333333335,447.24632126782274,-2317,447.24632126782274S-2427.3333333333335,447.24632126782274,-2482.5,447.24632126782274S-2592.8333333333335,447.24632126782274,-2648,447.24632126782274S-2758.333333333334,447.24632126782274,-2813.5,447.24632126782274S-2923.8333333333335,447.24632126782274,-2979,447.24632126782274S-3089.3333333333335,447.24632126782274,-3144.5,447.24632126782274S-3254.8333333333335,447.24632126782274,-3310,447.24632126782274S-3420.3333333333335,447.24632126782274,-3475.5,447.24632126782274S-3585.8333333333335,447.24632126782274,-3641,447.24632126782274S-3751.3333333333335,447.24632126782274,-3806.5,447.24632126782274S-3916.8333333333335,447.24632126782274,-3972.0000000000005,447.24632126782274S-4082.3333333333335,447.24632126782274,-4137.5,447.24632126782274S-4247.833333333333,447.24632126782274,-4303,447.24632126782274S-4413.333333333333,447.24632126782274,-4468.5,447.24632126782274S-4578.833333333333,447.24632126782274,-4634,447.24632126782274S-4744.333333333333,447.24632126782274,-4799.5,447.24632126782274S-4909.833333333333,447.24632126782274,-4965,447.24632126782274S-5075.333333333333,447.24632126782274,-5130.5,447.24632126782274S-5240.833333333333,447.24632126782274,-5296,447.24632126782274S-5406.333333333333,447.24632126782274,-5461.5,447.24632126782274S-5599.416666666667,447.24632126782274,-5627,447.24632126782274Z"></path><path opacity="0.85" id="path_1000" class="layer" fill="#6e451e" d="M-5627,448.24632126782274C-5599.416666666667,448.24632126782274,-5516.666666666667,448.24632126782274,-5461.5,448.24632126782274S-5351.166666666667,448.24632126782274,-5296,448.24632126782274S-5185.666666666667,448.24632126782274,-5130.5,448.24632126782274S-5020.166666666667,448.24632126782274,-4965,448.24632126782274S-4854.666666666667,448.24632126782274,-4799.5,448.24632126782274S-4689.166666666667,448.24632126782274,-4634,448.24632126782274S-4523.666666666667,448.24632126782274,-4468.5,448.24632126782274S-4358.166666666667,448.24632126782274,-4303,448.24632126782274S-4192.666666666667,448.24632126782274,-4137.5,448.24632126782274S-4027.1666666666665,448.24632126782274,-3972.0000000000005,448.24632126782274S-3861.6666666666665,448.24632126782274,-3806.5,448.24632126782274S-3696.1666666666665,448.24632126782274,-3641,448.24632126782274S-3530.6666666666665,448.24632126782274,-3475.5,448.24632126782274S-3365.1666666666665,448.24632126782274,-3310,448.24632126782274S-3199.6666666666665,448.24632126782274,-3144.5,448.24632126782274S-3034.1666666666665,448.24632126782274,-2979,448.24632126782274S-2868.6666666666665,448.24632126782274,-2813.5,448.24632126782274S-2703.1666666666665,448.24632126782274,-2648,448.24632126782274S-2537.6666666666665,448.24632126782274,-2482.5,448.24632126782274S-2372.1666666666665,448.24632126782274,-2317,448.24632126782274S-2206.6666666666665,448.24632126782274,-2151.5,448.24632126782274S-2041.1666666666665,448.24632126782274,-1985.9999999999998,448.24632126782274S-1875.666666666667,448.24632126782274,-1820.5,448.24632126782274S-1710.166666666667,448.24632126782274,-1655,448.24632126782274S-1544.666666666667,448.24632126782274,-1489.5,448.24632126782274S-1379.166666666667,448.24632126782274,-1324,448.24632126782274S-1213.6666666666667,448.24632126782274,-1158.5,448.24632126782274S-1048.1666666666667,448.24632126782274,-993,448.24632126782274S-882.6666666666667,448.24632126782274,-827.4999999999999,448.24632126782274S-717.1666666666667,448.24632126782274,-662,448.24632126782274S-551.6666666666666,448.24632126782274,-496.5,448.24632126782274S-386.1666666666667,448.24632126782274,-331,448.24632126782274S-220.66666666666669,448.24632126782274,-165.49999999999994,448.24632126782274S-50.35562537229589,152.41066299214427,0,136.84586318392383S110.33402104163633,153.70407937610273,165.5,153.89885643269287S277.49510792600864,149.63749537667067,331,140.2081226386572S442.4082890684092,103.19081970042859,496.5,95.56545447075081S622.2432509939619,35.59863456042953,662,60.35036639150195S772.3333333333334,448.24632126782274,827.5,448.24632126782274S937.8333333333334,448.24632126782274,993,448.24632126782274S1103.3333333333333,448.24632126782274,1158.5,448.24632126782274S1268.8333333333333,448.24632126782274,1324,448.24632126782274S1461.9166666666667,448.24632126782274,1489.5,448.24632126782274L1489.5,447.24632126782274C1461.9166666666667,447.24632126782274,1379.1666666666667,447.24632126782274,1324,447.24632126782274S1213.6666666666667,447.24632126782274,1158.5,447.24632126782274S1048.1666666666667,447.24632126782274,993,447.24632126782274S882.6666666666666,447.24632126782274,827.5,447.24632126782274S701.9295460983435,86.41691510025538,662,61.750920124603624S550.6065919598726,89.11991044734067,496.5,96.69335283554739S384.45912605674,131.62813071591887,331,141.182377348337S220.66635582972663,155.9808180216893,165.5,155.8498686374307S50.422382808299176,123.46073552681302,0,138.9274125085645S-110.33333333333337,447.24632126782274,-165.49999999999994,447.24632126782274S-275.8333333333333,447.24632126782274,-331,447.24632126782274S-441.33333333333326,447.24632126782274,-496.5,447.24632126782274S-606.8333333333333,447.24632126782274,-662,447.24632126782274S-772.3333333333335,447.24632126782274,-827.4999999999999,447.24632126782274S-937.8333333333334,447.24632126782274,-993,447.24632126782274S-1103.3333333333333,447.24632126782274,-1158.5,447.24632126782274S-1268.8333333333333,447.24632126782274,-1324,447.24632126782274S-1434.3333333333333,447.24632126782274,-1489.5,447.24632126782274S-1599.8333333333333,447.24632126782274,-1655,447.24632126782274S-1765.3333333333335,447.24632126782274,-1820.5,447.24632126782274S-1930.8333333333335,447.24632126782274,-1985.9999999999998,447.24632126782274S-2096.3333333333335,447.24632126782274,-2151.5,447.24632126782274S-2261.8333333333335,447.24632126782274,-2317,447.24632126782274S-2427.3333333333335,447.24632126782274,-2482.5,447.24632126782274S-2592.8333333333335,447.24632126782274,-2648,447.24632126782274S-2758.3333333333335,447.24632126782274,-2813.5,447.24632126782274S-2923.8333333333335,447.24632126782274,-2979,447.24632126782274S-3089.3333333333335,447.24632126782274,-3144.5,447.24632126782274S-3254.8333333333335,447.24632126782274,-3310,447.24632126782274S-3420.3333333333335,447.24632126782274,-3475.5,447.24632126782274S-3585.833333333334,447.24632126782274,-3641,447.24632126782274S-3751.333333333334,447.24632126782274,-3806.5,447.24632126782274S-3916.8333333333335,447.24632126782274,-3972.0000000000005,447.24632126782274S-4082.3333333333335,447.24632126782274,-4137.5,447.24632126782274S-4247.833333333333,447.24632126782274,-4303,447.24632126782274S-4413.333333333333,447.24632126782274,-4468.5,447.24632126782274S-4578.833333333333,447.24632126782274,-4634,447.24632126782274S-4744.333333333333,447.24632126782274,-4799.5,447.24632126782274S-4909.833333333333,447.24632126782274,-4965,447.24632126782274S-5075.333333333333,447.24632126782274,-5130.5,447.24632126782274S-5240.833333333333,447.24632126782274,-5296,447.24632126782274S-5406.333333333333,447.24632126782274,-5461.5,447.24632126782274S-5599.416666666667,447.24632126782274,-5627,447.24632126782274Z"></path><path opacity="0.85" id="path_2000" class="layer" fill="#d66011" d="M-5627,448.24632126782274C-5599.416666666667,448.24632126782274,-5516.666666666667,448.24632126782274,-5461.5,448.24632126782274S-5351.166666666667,448.24632126782274,-5296,448.24632126782274S-5185.666666666667,448.24632126782274,-5130.5,448.24632126782274S-5020.166666666667,448.24632126782274,-4965,448.24632126782274S-4854.666666666667,448.24632126782274,-4799.5,448.24632126782274S-4689.166666666667,448.24632126782274,-4634,448.24632126782274S-4523.666666666667,448.24632126782274,-4468.5,448.24632126782274S-4358.166666666667,448.24632126782274,-4303,448.24632126782274S-4192.666666666667,448.24632126782274,-4137.5,448.24632126782274S-4027.166666666667,448.24632126782274,-3972.0000000000005,448.24632126782274S-3861.6666666666665,448.24632126782274,-3806.5,448.24632126782274S-3696.1666666666665,448.24632126782274,-3641,448.24632126782274S-3530.6666666666665,448.24632126782274,-3475.5,448.24632126782274S-3365.1666666666665,448.24632126782274,-3310,448.24632126782274S-3199.6666666666665,448.24632126782274,-3144.5,448.24632126782274S-3034.1666666666665,448.24632126782274,-2979,448.24632126782274S-2868.6666666666665,448.24632126782274,-2813.5,448.24632126782274S-2703.1666666666665,448.24632126782274,-2648,448.24632126782274S-2537.666666666667,448.24632126782274,-2482.5,448.24632126782274S-2372.1666666666665,448.24632126782274,-2317,448.24632126782274S-2206.6666666666665,448.24632126782274,-2151.5,448.24632126782274S-2041.1666666666667,448.24632126782274,-1985.9999999999998,448.24632126782274S-1875.666666666667,448.24632126782274,-1820.5,448.24632126782274S-1710.166666666667,448.24632126782274,-1655,448.24632126782274S-1544.6666666666667,448.24632126782274,-1489.5,448.24632126782274S-1379.166666666667,448.24632126782274,-1324,448.24632126782274S-1213.6666666666667,448.24632126782274,-1158.5,448.24632126782274S-1048.1666666666667,448.24632126782274,-993,448.24632126782274S-882.6666666666665,448.24632126782274,-827.4999999999999,448.24632126782274S-717.1666666666667,448.24632126782274,-662,448.24632126782274S-551.6666666666666,448.24632126782274,-496.5,448.24632126782274S-386.16666666666674,448.24632126782274,-331,448.24632126782274S-220.66666666666663,448.24632126782274,-165.49999999999994,448.24632126782274S-50.40091024675303,143.97673325457427,0,128.47839587348864S110.33343310935823,145.51656200006389,165.5,145.44237102520583S277.97679444804,137.81490957156305,331,127.15408505946618S442.3930683613135,86.46389602766011,496.5,78.89164334341586S622.1600130297386,19.103877588253766,662,43.814497155600804S772.3333333333334,448.24632126782274,827.5,448.24632126782274S937.8333333333334,448.24632126782274,993,448.24632126782274S1103.3333333333333,448.24632126782274,1158.5,448.24632126782274S1268.8333333333333,448.24632126782274,1324,448.24632126782274S1461.9166666666667,448.24632126782274,1489.5,448.24632126782274L1489.5,447.24632126782274C1461.9166666666667,447.24632126782274,1379.1666666666667,447.24632126782274,1324,447.24632126782274S1213.6666666666667,447.24632126782274,1158.5,447.24632126782274S1048.1666666666667,447.24632126782274,993,447.24632126782274S882.6666666666666,447.24632126782274,827.5,447.24632126782274S701.7567490060381,84.10209822257436,662,59.35036639150195S550.5917109315908,86.94008924107303,496.5,94.56545447075081S384.50489207399136,129.7787499006437,331,139.2081226386572S220.66597895836367,153.093633489283,165.5,152.89885643269287S50.35562537229595,120.28106337570338,0,135.84586318392383S-110.33333333333337,447.24632126782274,-165.49999999999994,447.24632126782274S-275.8333333333333,447.24632126782274,-331,447.24632126782274S-441.33333333333326,447.24632126782274,-496.5,447.24632126782274S-606.8333333333333,447.24632126782274,-662,447.24632126782274S-772.3333333333333,447.24632126782274,-827.4999999999999,447.24632126782274S-937.8333333333334,447.24632126782274,-993,447.24632126782274S-1103.3333333333333,447.24632126782274,-1158.5,447.24632126782274S-1268.8333333333333,447.24632126782274,-1324,447.24632126782274S-1434.333333333333,447.24632126782274,-1489.5,447.24632126782274S-1599.8333333333335,447.24632126782274,-1655,447.24632126782274S-1765.333333333333,447.24632126782274,-1820.5,447.24632126782274S-1930.833333333333,447.24632126782274,-1985.9999999999998,447.24632126782274S-2096.3333333333335,447.24632126782274,-2151.5,447.24632126782274S-2261.8333333333335,447.24632126782274,-2317,447.24632126782274S-2427.3333333333335,447.24632126782274,-2482.5,447.24632126782274S-2592.8333333333335,447.24632126782274,-2648,447.24632126782274S-2758.3333333333335,447.24632126782274,-2813.5,447.24632126782274S-2923.8333333333335,447.24632126782274,-2979,447.24632126782274S-3089.3333333333335,447.24632126782274,-3144.5,447.24632126782274S-3254.8333333333335,447.24632126782274,-3310,447.24632126782274S-3420.3333333333335,447.24632126782274,-3475.5,447.24632126782274S-3585.833333333334,447.24632126782274,-3641,447.24632126782274S-3751.333333333334,447.24632126782274,-3806.5,447.24632126782274S-3916.8333333333335,447.24632126782274,-3972.0000000000005,447.24632126782274S-4082.3333333333335,447.24632126782274,-4137.5,447.24632126782274S-4247.833333333333,447.24632126782274,-4303,447.24632126782274S-4413.333333333333,447.24632126782274,-4468.5,447.24632126782274S-4578.833333333333,447.24632126782274,-4634,447.24632126782274S-4744.333333333333,447.24632126782274,-4799.5,447.24632126782274S-4909.833333333333,447.24632126782274,-4965,447.24632126782274S-5075.333333333333,447.24632126782274,-5130.5,447.24632126782274S-5240.833333333333,447.24632126782274,-5296,447.24632126782274S-5406.333333333333,447.24632126782274,-5461.5,447.24632126782274S-5599.416666666667,447.24632126782274,-5627,447.24632126782274Z"></path><path opacity="0.85" id="path_3000" class="layer" fill="#330000" d="M-5627,448.24632126782274C-5599.416666666667,448.24632126782274,-5516.666666666667,448.24632126782274,-5461.5,448.24632126782274S-5351.166666666667,448.24632126782274,-5296,448.24632126782274S-5185.666666666667,448.24632126782274,-5130.5,448.24632126782274S-5020.166666666667,448.24632126782274,-4965,448.24632126782274S-4854.666666666667,448.24632126782274,-4799.5,448.24632126782274S-4689.166666666667,448.24632126782274,-4634,448.24632126782274S-4523.666666666667,448.24632126782274,-4468.5,448.24632126782274S-4358.166666666667,448.24632126782274,-4303,448.24632126782274S-4192.666666666667,448.24632126782274,-4137.5,448.24632126782274S-4027.166666666667,448.24632126782274,-3972.0000000000005,448.24632126782274S-3861.6666666666665,448.24632126782274,-3806.5,448.24632126782274S-3696.1666666666665,448.24632126782274,-3641,448.24632126782274S-3530.6666666666665,448.24632126782274,-3475.5,448.24632126782274S-3365.1666666666665,448.24632126782274,-3310,448.24632126782274S-3199.6666666666665,448.24632126782274,-3144.5,448.24632126782274S-3034.1666666666665,448.24632126782274,-2979,448.24632126782274S-2868.6666666666665,448.24632126782274,-2813.5,448.24632126782274S-2703.1666666666665,448.24632126782274,-2648,448.24632126782274S-2537.6666666666665,448.24632126782274,-2482.5,448.24632126782274S-2372.1666666666665,448.24632126782274,-2317,448.24632126782274S-2206.6666666666665,448.24632126782274,-2151.5,448.24632126782274S-2041.1666666666665,448.24632126782274,-1985.9999999999998,448.24632126782274S-1875.6666666666665,448.24632126782274,-1820.5,448.24632126782274S-1710.1666666666667,448.24632126782274,-1655,448.24632126782274S-1544.6666666666667,448.24632126782274,-1489.5,448.24632126782274S-1379.1666666666667,448.24632126782274,-1324,448.24632126782274S-1213.6666666666667,448.24632126782274,-1158.5,448.24632126782274S-1048.166666666667,448.24632126782274,-993,448.24632126782274S-882.6666666666665,448.24632126782274,-827.4999999999999,448.24632126782274S-717.1666666666667,448.24632126782274,-662,448.24632126782274S-551.6666666666666,448.24632126782274,-496.5,448.24632126782274S-386.16666666666663,448.24632126782274,-331,448.24632126782274S-220.66666666666663,448.24632126782274,-165.49999999999994,448.24632126782274S-49.664290552779335,138.2610734994364,0,121.73014472786485S110.33464147733218,140.36315718510838,165.5,140.0945231725662S278.5200035422557,129.0961052014821,331,117.22191289011312S442.92376258951464,74.43291609512883,496.5,65.20203231221018S625.4405509120184,-1.368039614911254,662,24.713939292697205S772.3333333333334,448.24632126782274,827.5,448.24632126782274S937.8333333333334,448.24632126782274,993,448.24632126782274S1103.3333333333333,448.24632126782274,1158.5,448.24632126782274S1268.8333333333333,448.24632126782274,1324,448.24632126782274S1461.9166666666667,448.24632126782274,1489.5,448.24632126782274L1489.5,447.24632126782274C1461.9166666666667,447.24632126782274,1379.1666666666667,447.24632126782274,1324,447.24632126782274S1213.6666666666667,447.24632126782274,1158.5,447.24632126782274S1048.1666666666667,447.24632126782274,993,447.24632126782274S882.6666666666666,447.24632126782274,827.5,447.24632126782274S701.8399869702614,67.52511672294786,662,42.814497155600804S550.6069316386865,70.31939065917163,496.5,77.89164334341586S384.02320555196,115.49326054736932,331,126.15408505946618S220.66656689064177,144.36818005034777,165.5,144.44237102520583S50.40091024675297,111.98005849240297,0,127.47839587348864S-110.33333333333337,447.24632126782274,-165.49999999999994,447.24632126782274S-275.83333333333326,447.24632126782274,-331,447.24632126782274S-441.33333333333326,447.24632126782274,-496.5,447.24632126782274S-606.8333333333333,447.24632126782274,-662,447.24632126782274S-772.3333333333335,447.24632126782274,-827.4999999999999,447.24632126782274S-937.8333333333334,447.24632126782274,-993,447.24632126782274S-1103.333333333333,447.24632126782274,-1158.5,447.24632126782274S-1268.8333333333333,447.24632126782274,-1324,447.24632126782274S-1434.3333333333333,447.24632126782274,-1489.5,447.24632126782274S-1599.8333333333333,447.24632126782274,-1655,447.24632126782274S-1765.333333333333,447.24632126782274,-1820.5,447.24632126782274S-1930.8333333333335,447.24632126782274,-1985.9999999999998,447.24632126782274S-2096.3333333333335,447.24632126782274,-2151.5,447.24632126782274S-2261.8333333333335,447.24632126782274,-2317,447.24632126782274S-2427.3333333333335,447.24632126782274,-2482.5,447.24632126782274S-2592.8333333333335,447.24632126782274,-2648,447.24632126782274S-2758.3333333333335,447.24632126782274,-2813.5,447.24632126782274S-2923.8333333333335,447.24632126782274,-2979,447.24632126782274S-3089.3333333333335,447.24632126782274,-3144.5,447.24632126782274S-3254.8333333333335,447.24632126782274,-3310,447.24632126782274S-3420.3333333333335,447.24632126782274,-3475.5,447.24632126782274S-3585.8333333333335,447.24632126782274,-3641,447.24632126782274S-3751.3333333333335,447.24632126782274,-3806.5,447.24632126782274S-3916.833333333333,447.24632126782274,-3972.0000000000005,447.24632126782274S-4082.333333333334,447.24632126782274,-4137.5,447.24632126782274S-4247.833333333333,447.24632126782274,-4303,447.24632126782274S-4413.333333333333,447.24632126782274,-4468.5,447.24632126782274S-4578.833333333333,447.24632126782274,-4634,447.24632126782274S-4744.333333333333,447.24632126782274,-4799.5,447.24632126782274S-4909.833333333333,447.24632126782274,-4965,447.24632126782274S-5075.333333333333,447.24632126782274,-5130.5,447.24632126782274S-5240.833333333333,447.24632126782274,-5296,447.24632126782274S-5406.333333333333,447.24632126782274,-5461.5,447.24632126782274S-5599.416666666667,447.24632126782274,-5627,447.24632126782274Z"></path><path opacity="0.85" id="path_6000" class="layer" fill="red" d="M-5627,448.24632126782274C-5599.416666666667,448.24632126782274,-5516.666666666667,448.24632126782274,-5461.5,448.24632126782274S-5351.166666666667,448.24632126782274,-5296,448.24632126782274S-5185.666666666667,448.24632126782274,-5130.5,448.24632126782274S-5020.166666666667,448.24632126782274,-4965,448.24632126782274S-4854.666666666667,448.24632126782274,-4799.5,448.24632126782274S-4689.166666666667,448.24632126782274,-4634,448.24632126782274S-4523.666666666667,448.24632126782274,-4468.5,448.24632126782274S-4358.166666666667,448.24632126782274,-4303,448.24632126782274S-4192.666666666667,448.24632126782274,-4137.5,448.24632126782274S-4027.166666666667,448.24632126782274,-3972.0000000000005,448.24632126782274S-3861.6666666666665,448.24632126782274,-3806.5,448.24632126782274S-3696.1666666666665,448.24632126782274,-3641,448.24632126782274S-3530.6666666666665,448.24632126782274,-3475.5,448.24632126782274S-3365.1666666666665,448.24632126782274,-3310,448.24632126782274S-3199.6666666666665,448.24632126782274,-3144.5,448.24632126782274S-3034.1666666666665,448.24632126782274,-2979,448.24632126782274S-2868.6666666666665,448.24632126782274,-2813.5,448.24632126782274S-2703.1666666666665,448.24632126782274,-2648,448.24632126782274S-2537.6666666666665,448.24632126782274,-2482.5,448.24632126782274S-2372.1666666666665,448.24632126782274,-2317,448.24632126782274S-2206.6666666666665,448.24632126782274,-2151.5,448.24632126782274S-2041.166666666667,448.24632126782274,-1985.9999999999998,448.24632126782274S-1875.666666666667,448.24632126782274,-1820.5,448.24632126782274S-1710.166666666667,448.24632126782274,-1655,448.24632126782274S-1544.666666666667,448.24632126782274,-1489.5,448.24632126782274S-1379.1666666666667,448.24632126782274,-1324,448.24632126782274S-1213.6666666666667,448.24632126782274,-1158.5,448.24632126782274S-1048.1666666666667,448.24632126782274,-993,448.24632126782274S-882.6666666666667,448.24632126782274,-827.4999999999999,448.24632126782274S-717.1666666666667,448.24632126782274,-662,448.24632126782274S-551.6666666666666,448.24632126782274,-496.5,448.24632126782274S-386.1666666666667,448.24632126782274,-331,448.24632126782274S-220.66666666666669,448.24632126782274,-165.49999999999994,448.24632126782274S-48.335729995058614,120.61366580827409,0,102.44285650950616S110.33338546438523,123.23531063648163,165.5,123.18168327736902S278.74414474409804,113.9354508670587,331,101.60228664378866S443.3215361870919,55.34321617612201,496.5,45.06072749335061S627.5317893637053,-25.71027409632748,662,1.0000000000000568S772.3333333333334,448.24632126782274,827.5,448.24632126782274S937.8333333333334,448.24632126782274,993,448.24632126782274S1103.3333333333333,448.24632126782274,1158.5,448.24632126782274S1268.8333333333333,448.24632126782274,1324,448.24632126782274S1461.9166666666667,448.24632126782274,1489.5,448.24632126782274L1489.5,447.24632126782274C1461.9166666666667,447.24632126782274,1379.1666666666667,447.24632126782274,1324,447.24632126782274S1213.6666666666667,447.24632126782274,1158.5,447.24632126782274S1048.1666666666667,447.24632126782274,993,447.24632126782274S882.6666666666666,447.24632126782274,827.5,447.24632126782274S698.5594490879816,49.79591820030565,662,23.713939292697205S550.0762374104854,54.971148529291526,496.5,64.20203231221018S383.4799964577443,104.34772057874414,331,116.22191289011312S220.66535852266782,138.82588916002402,165.5,139.0945231725662S49.664290552779335,104.1992159562933,0,120.73014472786485S-110.33333333333337,447.24632126782274,-165.49999999999994,447.24632126782274S-275.83333333333337,447.24632126782274,-331,447.24632126782274S-441.33333333333326,447.24632126782274,-496.5,447.24632126782274S-606.8333333333333,447.24632126782274,-662,447.24632126782274S-772.3333333333335,447.24632126782274,-827.4999999999999,447.24632126782274S-937.8333333333335,447.24632126782274,-993,447.24632126782274S-1103.333333333333,447.24632126782274,-1158.5,447.24632126782274S-1268.833333333333,447.24632126782274,-1324,447.24632126782274S-1434.3333333333333,447.24632126782274,-1489.5,447.24632126782274S-1599.8333333333333,447.24632126782274,-1655,447.24632126782274S-1765.3333333333335,447.24632126782274,-1820.5,447.24632126782274S-1930.833333333333,447.24632126782274,-1985.9999999999998,447.24632126782274S-2096.3333333333335,447.24632126782274,-2151.5,447.24632126782274S-2261.8333333333335,447.24632126782274,-2317,447.24632126782274S-2427.3333333333335,447.24632126782274,-2482.5,447.24632126782274S-2592.8333333333335,447.24632126782274,-2648,447.24632126782274S-2758.3333333333335,447.24632126782274,-2813.5,447.24632126782274S-2923.8333333333335,447.24632126782274,-2979,447.24632126782274S-3089.3333333333335,447.24632126782274,-3144.5,447.24632126782274S-3254.8333333333335,447.24632126782274,-3310,447.24632126782274S-3420.3333333333335,447.24632126782274,-3475.5,447.24632126782274S-3585.8333333333335,447.24632126782274,-3641,447.24632126782274S-3751.3333333333335,447.24632126782274,-3806.5,447.24632126782274S-3916.833333333333,447.24632126782274,-3972.0000000000005,447.24632126782274S-4082.333333333334,447.24632126782274,-4137.5,447.24632126782274S-4247.833333333333,447.24632126782274,-4303,447.24632126782274S-4413.333333333333,447.24632126782274,-4468.5,447.24632126782274S-4578.833333333333,447.24632126782274,-4634,447.24632126782274S-4744.333333333333,447.24632126782274,-4799.5,447.24632126782274S-4909.833333333333,447.24632126782274,-4965,447.24632126782274S-5075.333333333333,447.24632126782274,-5130.5,447.24632126782274S-5240.833333333333,447.24632126782274,-5296,447.24632126782274S-5406.333333333333,447.24632126782274,-5461.5,447.24632126782274S-5599.416666666667,447.24632126782274,-5627,447.24632126782274Z"></path></g><g class="text_layers"><text class="label" style="font-weight: lighter; " font-size="18px" font-family="PT Sans Narrow" dy="6" opacity="1" pointer-events="none" text-anchor="middle" fill="#ffffff" x="496.5" y="400.38383185090765"><tspan x="496.5" dy="11px">Chem.</tspan><tspan x="496.5" dy="11px">&amp;</tspan><tspan x="496.5" dy="11px">Related...</tspan></text><text class="label" style="font-weight: lighter; " font-size="18px" font-family="PT Sans Narrow" dy="6" opacity="1" pointer-events="none" text-anchor="middle" fill="#333333" x="496.5" y="345.8904115248919"><tspan x="496.5" dy="11px">Misc.</tspan><tspan x="496.5" dy="11px">manufactured</tspan><tspan x="496.5" dy="11px">articles</tspan></text><text class="label" style="font-weight: lighter; " font-size="18px" font-family="PT Sans Narrow" dy="6" opacity="1" pointer-events="none" text-anchor="middle" fill="#333333" x="496.5" y="203.16009782780876"><tspan x="496.5" dy="11px">Machinery</tspan><tspan x="496.5" dy="11px">&amp;</tspan><tspan x="496.5" dy="11px">Transport</tspan><tspan x="496.5" dy="11px">Equip.</tspan></text></g></g></g></svg>