<svg width="748" height="520" style="z-index: 10; position: absolute; "><rect id="svgbg" fill="#ffffff" width="748" height="520"></rect><g class="titles"></g><clipPath id="clipping"><rect width="748" height="520"></rect></clipPath><g class="parent" width="748" height="520" clip-path="url(#clipping)" transform="translate(0,0)"><g class="axes_labels"><text class="x_axis_label" x="374" y="510" font-family="sans-serif" font-size="14px" font-weight="lighter" fill="#333" text-anchor="middle">Year</text><text class="y_axis_label" y="15" x="-242.5" transform="rotate(-90)" font-family="sans-serif" font-size="14px" font-weight="lighter" fill="#333" text-anchor="middle">Current</text></g><g class="chart" transform="translate(40,5)"><rect style="fill: #fafafa; " id="background" x="0" y="0" width="698" height="475" stroke-width="1" stroke="#ccc" shape-rendering="crispEdges"></rect><g transform="translate(0,475)" class="xaxis"><path class="domain" d="M0,0V0H698V0"></path></g><g class="yaxis"><path class="domain" d="M0,0H0V475H0"></path></g><clipPath id="path_clipping"><rect width="698" height="475" y="1" x="1"></rect></clipPath><g class="layers" clip-path="url(#path_clipping)"><path opacity="0.85" id="path_906" class="layer" fill="#7f7f7f" d="M0,441.03452002314816C6.892870686232309,440.89161745719395,27.587914107557378,440.42804373447143,41.375,440.1767360989312S68.97293720203724,439.9747246909148,82.75,439.5261732265019S110.37794082412438,438.26565929696704,124.125,437.4825744895599S151.7293038878643,435.34980004675293,165.5,434.81241830743846S193.0834393360833,434.21513861023556,206.875,434.25337397811415S234.4583610354712,435.0613785790201,248.25,435.04183227798575S275.84175009806467,434.4766988894375,289.625,434.1360959363418S317.23296063004807,433.57924229731833,331,432.99696662081504S358.589954066517,430.9382966921144,372.375,430.6361922216904S399.96894883875615,430.5309523224708,413.75,430.1484698740708S441.3360690061915,427.22299998105603,455.125,427.0287784470718S482.7137065851344,427.63542241550306,496.5,427.3632510982762S524.1145020302502,422.47007802734663,537.875,423.1249801502966S565.4600661417888,431.1469831976935,579.25,431.30156428964807S606.9006765316946,423.0912093153585,620.625,424.052583247655S655.7277189256057,435.12046292539173,662,437.09811179024086L662,447.24632126782274C655.1041666666666,447.24632126782274,634.4166666666666,447.24632126782274,620.625,447.24632126782274S593.0416666666666,447.24632126782274,579.25,447.24632126782274S551.6666666666666,447.24632126782274,537.875,447.24632126782274S510.2916666666667,447.24632126782274,496.5,447.24632126782274S468.9166666666667,447.24632126782274,455.125,447.24632126782274S427.5416666666667,447.24632126782274,413.75,447.24632126782274S386.1666666666667,447.24632126782274,372.375,447.24632126782274S344.7916666666667,447.24632126782274,331,447.24632126782274S303.4166666666667,447.24632126782274,289.625,447.24632126782274S262.0416666666667,447.24632126782274,248.25,447.24632126782274S220.66666666666666,447.24632126782274,206.875,447.24632126782274S179.29166666666666,447.24632126782274,165.5,447.24632126782274S137.91666666666666,447.24632126782274,124.125,447.24632126782274S96.54166666666667,447.24632126782274,82.75,447.24632126782274S55.166666666666664,447.24632126782274,41.375,447.24632126782274S6.895833333333333,447.24632126782274,0,447.24632126782274Z"></path><path opacity="0.85" id="path_316" class="layer" fill="#f7b6d2" d="M0,439.81006749378844C6.8938903050485765,439.69433062043026,27.586503664667482,439.32452970884214,41.375,439.11545053249336S68.97376311338795,439.0163509657952,82.75,438.5553039994885S110.37838830323314,437.1330603664848,124.125,436.3460704197751S151.73395728098967,434.4118074951978,165.5,433.81788800733204S193.08336304031403,432.79616164706744,206.875,432.7759204046932S234.45839917631494,433.72657465923623,248.25,433.6964402914906S275.8623476416061,433.2270261756751,289.625,432.595113335026S317.27008360605333,430.817744805731,331,429.89697008749135S358.6273221767771,427.823271096957,372.375,427.04561793038357S400.0190901044423,426.1294919551565,413.75,425.21612141170647S441.3372647596783,421.773966354149,455.125,421.5411456816112S482.71428148257337,421.45830391782,496.5,421.17194835017267S524.1393596043474,415.6890820825477,537.875,416.56632589777774S565.4625994761702,426.21435403941354,579.25,426.45688036785003S606.90140332332,417.0554119668234,620.625,418.021934128164S655.8365826077098,430.16011625243544,662,432.284777437052L662,436.09811179024086C655.7277189256057,434.12046292539173,634.3493234683054,424.01395717995143,620.625,423.052583247655S593.0399338582112,430.45614538160265,579.25,430.30156428964807S551.6354979697498,422.7798822732466,537.875,422.1249801502966S510.2862934148656,426.0910797810493,496.5,426.3632510982762S468.9139309938085,425.8345569130875,455.125,426.0287784470718S427.53105116124385,428.76598742567086,413.75,429.1484698740708S386.160045933483,429.3340877512664,372.375,429.6361922216904S344.76703936995193,431.41469094431176,331,431.99696662081504S303.40824990193533,432.7954929832461,289.625,433.1360959363418S262.0416389645288,434.0222859769514,248.25,434.04183227798575S220.6665606639167,433.29160934599275,206.875,433.25337397811415S179.2706961121357,433.275036568124,165.5,433.81241830743846S137.87205917587562,435.6994896821528,124.125,436.4825744895599S96.52706279796276,438.077621762089,82.75,438.5261732265019S55.16208589244262,438.925428463391,41.375,439.1767360989312S6.892870686232309,439.89161745719395,0,440.03452002314816Z"></path><path opacity="0.85" id="path_306" class="layer" fill="#e377c2" d="M0,439.40590594400214C6.893289641722868,439.27348841106124,27.59730710448633,439.0498857874901,41.375,438.611107566132S69.00669603669374,437.5858353509552,82.75,436.7705664794967S110.4249157226935,434.82240861778376,124.125,433.7022807444803S151.801652864515,431.1355018402624,165.5,430.00487222246215S193.08347914247267,426.9171321709831,206.875,426.8722887792009S234.45845618212212,426.85257935838047,248.25,426.8114177931357S275.9441328934054,425.17222707525235,289.625,423.94103494694116S317.31935214954535,420.5968372608236,331,419.3644374355352S358.6919028592125,417.7054687865684,372.375,416.4866302537289S400.17173723025024,413.69563020574844,413.75,411.99338046248903S441.47691601398884,407.51247780519356,455.125,406.1126104955805S483.028258924265,405.58185704836285,496.5,403.50581400340127S524.1434682736675,392.4518371861131,537.875,393.3605422213469S565.4989489207231,408.23458807239956,579.25,408.9819213426429S607.0418575008783,396.17480837716226,620.625,397.8577859415623S656.5571078798392,416.42265340314606,662,419.23480600928855L662,431.284777437052C655.8365826077098,429.16011625243544,634.34859667668,417.9884562895046,620.625,417.021934128164S593.0374005238298,425.69940669628653,579.25,425.45688036785003S551.6106403956526,416.4435697130078,537.875,415.56632589777774S510.28571851742663,419.88559278252535,496.5,420.17194835017267S468.9127352403217,420.3083250090734,455.125,420.5411456816112S427.4809098955577,423.30275086825645,413.75,424.21612141170647S386.1226778232229,425.26796476381014,372.375,426.04561793038357S344.72991639394667,427.9761953692517,331,428.89697008749135S303.3876523583939,430.96320049437685,289.625,431.595113335026S262.04160082368503,432.66630592374497,248.25,432.6964402914906S220.66663695968597,431.7556791623189,206.875,431.7759204046932S179.26604271901033,432.22396851946627,165.5,432.81788800733204S137.87161169676685,434.5590804730654,124.125,435.3460704197751S96.52623688661205,437.0942570331818,82.75,437.5553039994885S55.16349633533252,437.9063713561446,41.375,438.11545053249336S6.8938903050485765,438.69433062043026,0,438.81006749378844Z"></path><path opacity="0.85" id="path_716" class="layer" fill="#9edae5" d="M0,416.2322830189087C6.885898091827341,415.9707241143997,27.644731009918736,415.578819184482,41.375,414.66066526771004S69.19005142441486,412.4713180983195,82.75,410.6987252519223S111.11533287001869,407.03296419068204,124.125,403.84336332723905S152.50432366935433,393.6270518480009,165.5,390.41077562086326S193.08339296271416,383.39239404315373,206.875,383.3637167875643S234.45839508848007,383.35198493614035,248.25,383.3228009921778S276.12416147626516,378.1320266855143,289.625,376.15050610881553S317.4860784497895,373.1149441157175,331,371.1775681287851S358.89026021601654,366.32175371053,372.375,364.2873424576874S400.3436230520703,360.966006813527,413.75,358.693268552409S441.42530368319336,351.38149363414226,455.125,350.25901162393785S482.7083616672511,351.9329309847935,496.5,351.91316305251814S524.3481282214017,348.09086035412963,537.875,349.9834370364674S565.4898530542423,378.15444402567084,579.25,378.81301519980263S609.0038117420168,348.9216113566387,620.625,353.9439154291933S659.8090393895578,411.3642685683616,662,414.57490570341724L662,418.23480600928855C656.5571078798392,415.42265340314606,634.2081424991217,398.5407635059624,620.625,396.8577859415623S593.0010510792769,408.7292546128863,579.25,407.9819213426429S551.6065317263325,393.26924725658074,537.875,392.3605422213469S509.971741075735,400.4297709584397,496.5,402.50581400340127S468.77308398601116,403.71274318596744,455.125,405.1126104955805S427.32826276974976,409.2911307192296,413.75,410.99338046248903S386.0580971407875,414.26779172088936,372.375,415.4866302537289S344.68064785045465,417.1320376102468,331,418.3644374355352S303.3058671065946,421.70984281862997,289.625,422.94103494694116S262.0415438178779,425.77025622789097,248.25,425.8114177931357S220.66652085752733,425.8274453874187,206.875,425.8722887792009S179.198347135485,427.8742426046619,165.5,429.00487222246215S137.8250842773065,431.5821528711768,124.125,432.7022807444803S96.49330396330626,434.9552976080382,82.75,435.7705664794967S55.15269289551367,437.17232934477386,41.375,437.611107566132S6.893289641722868,438.27348841106124,0,438.40590594400214Z"></path><path opacity="0.85" id="path_706" class="layer" fill="#17becf" d="M0,398.7772334884288C6.894348947657676,398.8783960942715,27.62704222792583,400.35596331119353,41.375,399.5807807281064S69.72165584138315,395.75515689905177,82.75,392.6016147098792S112.12008959297158,384.18234139548,124.125,379.55094324630795S153.50615399024667,365.3209029068537,165.5,360.67732840953244S193.2802317655608,349.149286852202,206.875,347.5131974439309S234.8191841408828,352.92009665000126,248.25,350.7186151604559S277.14431567187665,337.9944118544435,289.625,333.94942029362363S319.1403367669656,328.68607158527357,331,323.89932842442346S361.28940180289766,306.02732126051944,372.375,300.55024286529465S402.0500991350236,287.96197485718216,413.75,283.0149098169261S441.8358555757466,268.14528915314133,455.125,265.5610889565951S482.70970061279644,262.95475474221405,496.5,262.81744052903116S524.2684758149344,259.61562996165645,537.875,261.2028116316575S565.4592652677392,303.6081605270697,579.25,303.4947935998865S611.7470615069947,253.91773431705224,620.625,260.5225641026798S661.0660254846903,362.6977626517549,662,365.057471150682L662,413.57490570341724C659.8090393895578,410.3642685683616,632.2461882579832,357.96621950174784,620.625,352.9439154291933S593.0101469457577,378.47158637393443,579.25,377.81301519980263S551.4018717785983,350.8760137188052,537.875,348.9834370364674S510.2916383327489,350.8933951202428,496.5,350.91316305251814S468.82469631680664,348.13652961373344,455.125,349.25901162393785S427.1563769479297,355.420530291291,413.75,357.693268552409S385.85973978398346,361.25293120484474,372.375,363.2873424576874S344.5139215502105,368.2401921418527,331,370.1775681287851S303.12583852373484,373.1689855321168,289.625,375.15050610881553S262.0416049115199,382.29361704821525,248.25,382.3228009921778S220.66660703728584,382.3350395319748,206.875,382.3637167875643S178.49567633064567,386.1944993937256,165.5,389.41077562086326S137.1346671299813,399.65376246379606,124.125,402.84336332723905S96.30994857558514,407.92613240552515,82.75,409.6987252519223S55.105268990081264,412.7425113509381,41.375,413.66066526771004S6.885898091827341,414.9707241143997,0,415.2322830189087Z"></path><path opacity="0.85" id="path_416" class="layer" fill="#2ca02c" d="M0,388.02066729007436C6.895581333957125,388.0623528054814,27.610450292714145,389.24941080913607,41.375,388.63846667477713S70.13211458190564,382.7971341753118,82.75,378.9486750940179S112.53725775894259,368.4532541605204,124.125,363.39969025346124S153.92988278826715,347.93020294610955,165.5,342.8603323772246S193.369026733607,329.1040709983411,206.875,327.1397473420968S234.8654957028391,333.15953313297615,248.25,330.82508105929975S277.4288208516812,317.11816352566046,289.625,312.70694469151977S319.5856775849368,306.1045511506888,331,300.89535027345255S361.84968571885946,280.80538334821273,372.375,274.9419896712867S402.50085554924544,260.1453697612858,413.75,254.7973608162626S442.34034369172633,239.1894958387708,455.125,235.60142096066056S482.7083734425401,231.59669752794014,496.5,231.57317793608058S524.088018592059,231.06369280706673,537.875,231.31784940238313S565.4646490538288,278.17282251474774,579.25,277.8777557028077S613.5880517725653,222.65224811719915,620.625,229.54663742646898S661.3604263439075,356.9510195241894,662,358.95135421499407L662,364.057471150682C661.0660254846903,361.6977626517549,629.5029384930053,266.1273938883073,620.625,259.5225641026798S593.0407347322608,302.38142667270336,579.25,302.4947935998865S551.482281405378,261.7867883162584,537.875,260.2028116316575S510.2902453717954,261.67744051110094,496.5,261.81744052903116S468.39295192088275,261.92506504408624,455.125,264.5610889565951S425.4499008649764,277.06784477667003,413.75,282.0149098169261S383.46059819710234,294.07316447006986,372.375,299.55024286529465S342.8596632330344,318.11258526357335,331,322.89932842442346S302.10568432812335,328.90442873280375,289.625,332.94942029362363S261.68081585911716,347.51713367091054,248.25,349.7186151604559S220.4697682344392,344.8771080356598,206.875,346.5131974439309S177.49384600975333,355.0337539122112,165.5,359.67732840953244S136.12991040702843,373.9195450971359,124.125,378.55094324630795S95.77834415861685,388.4480725207066,82.75,391.6016147098792S55.12295777207417,397.80559814501925,41.375,398.5807807281064S6.894348947657676,397.8783960942715,0,397.7772334884288Z"></path><path opacity="0.85" id="path_406" class="layer" fill="#98df8a" d="M0,386.2228612138983C6.8955767517619115,386.26492399933653,27.61084945689994,387.4606345858476,41.375,386.84521922437756S70.12482215635812,380.93694927593947,82.75,377.0993551281291S112.53093639191604,366.739921239518,124.125,361.6922336851494S153.97553017545832,346.18420896146927,165.5,341.0726297932116S193.38854404091728,327.01802976278145,206.875,324.9891850752631S234.85650538592498,330.93338467173015,248.25,328.62407411620467S277.40946139375137,315.10925694978283,289.625,310.7214040385712S319.59892963018564,304.12072740965556,331,298.900061110587S361.85640971085826,278.6968863625331,372.375,272.82933581735216S402.51254677741287,258.097405871563,413.75,252.73990140601683S442.3636334073471,237.00393732442546,455.125,233.37791513131535S482.7094057282931,229.34887772476029,496.5,229.22726784115937S524.1678096670594,227.06168072204395,537.875,228.13775376092724S565.462113024068,276.10559869683686,579.25,275.8773138995909S613.7561171555262,219.8718888286613,620.625,226.76766949746604S661.3846613970811,356.98548777674034,662,358.95135421499407L662,357.95135421499407C661.3604263439075,355.9510195241894,627.6619482274347,235.4410267357388,620.625,228.54663742646898S593.0353509461712,276.58268889086764,579.25,276.8777557028077S551.661981407941,230.57200599769953,537.875,230.31784940238313S510.2916265574599,230.54965834422103,496.5,230.57317793608058S467.90965630827367,231.01334608255033,455.125,234.60142096066056S424.99914445075456,248.44935187123943,413.75,253.7973608162626S382.90031428114054,268.0785959943607,372.375,273.9419896712867S342.4143224150632,294.6861493962163,331,299.89535027345255S301.8211791483188,307.29572585737907,289.625,311.70694469151977S261.6345042971609,327.49062898562335,248.25,329.82508105929975S220.380973266393,324.17542368585254,206.875,326.1397473420968S177.07011721173285,336.79046180833967,165.5,341.8603323772246S135.7127422410574,357.3461263464021,124.125,362.39969025346124S95.36788541809436,374.10021601272405,82.75,377.9486750940179S55.13954970728585,387.0275225404182,41.375,387.63846667477713S6.895581333957125,387.0623528054814,0,387.02066729007436Z"></path><path opacity="0.85" id="path_426" class="layer" fill="#3ab11a" d="M0,382.1588532139886C6.894779727905568,382.24408453067775,27.640550226871376,383.9516807137897,41.375,383.06520310523285S70.1969660102554,376.6373954830635,82.75,372.69422441218524S112.52470145062438,362.113570846906,124.125,357.07169377659187S153.97649576836548,341.8407648498033,165.5,336.72831148393993S193.4120203250579,322.4628857648284,206.875,320.35929210420716S234.86562172902623,326.13340735045915,248.25,323.7986050133582S277.37413962209234,310.2688632373982,289.625,305.9241880236465S319.59558649916886,299.66972120633113,331,294.4519417711349S361.8380528298156,273.920351454837,372.375,268.06417459717613S402.5420142967656,253.8427716267261,413.75,248.46152090780694S442.5969480833526,232.3124809850246,455.125,228.33370841161926S482.7101926556745,222.34114794138665,496.5,222.18102393670242S524.1649422919025,220.04721687861127,537.875,221.10498033585537S565.47287067929,270.6585905872171,579.25,270.21106081700566S614.2103335363666,211.53794257993496,620.625,218.41696836885407S661.4499571281006,357.0830777874066,662,358.95135421499407L662,357.95135421499407C661.3846613970811,355.98548777674034,627.4938828444738,232.6634501662708,620.625,225.76766949746604S593.037886975932,274.6490291023449,579.25,274.8773138995909S551.5821903329406,228.21382679981053,537.875,227.13775376092724S510.2905942717069,228.10565795755846,496.5,228.22726784115937S467.8863665926529,228.75189293820523,455.125,232.37791513131535S424.98745322258713,246.38239694047067,413.75,251.73990140601683S382.89359028914174,265.9617852721712,372.375,271.82933581735216S342.40107036981436,292.6793948115184,331,297.900061110587S301.84053860624863,305.3335511273596,289.625,309.7214040385712S261.643494614075,325.3147635606792,248.25,327.62407411620467S220.36145595908272,321.96034038774474,206.875,323.9891850752631S177.02446982454168,334.96105062495394,165.5,340.0726297932116S135.71906360808396,355.6445461307808,124.125,360.6922336851494S95.37517784364188,372.26176098031874,82.75,376.0993551281291S55.13915054310006,385.22980386290754,41.375,385.84521922437756S6.8955767517619115,385.26492399933653,0,385.2228612138983Z"></path><path opacity="0.85" id="path_126" class="layer" fill="#D1FF00" d="M0,381.1521245023393C6.895833284004594,381.1515412676009,27.583784278269523,381.1521132976134,41.375,381.0732521608372S70.19359507168704,374.42551089252504,82.75,370.4871804620989S112.56952355922442,360.20195219367645,124.125,355.11862223464595S154.08603763525645,339.2944252943901,165.5,334.0849121293584S193.4290814069792,319.50634277490656,206.875,317.35021187629764S234.89053056077617,323.07645531138104,248.25,320.67355588532513S277.50350610216515,306.8066557476477,289.625,302.30721255701576S319.71444639552254,295.27529817217084,331,289.9571337047801S361.95281034748587,269.238382034926,372.375,263.31239448251887S402.8615573971094,248.52845378589294,413.75,242.9060353932654S442.7551169611215,224.7768531630903,455.125,220.58313200136155S482.71335331167194,215.11464778795659,496.5,214.8515723848167S524.2928272594685,211.43180239521067,537.875,213.11862861413783S565.4708312330862,263.8491171740453,579.25,263.4341344395524S614.4699755164233,203.77054796072233,620.625,210.62647383614086S661.4806763340476,353.787518375071,662,355.60726351559066L662,357.95135421499407C661.4499571281006,356.0830777874066,627.0396664636334,224.29599415777318,620.625,217.41696836885407S593.02712932071,268.76353104679424,579.25,269.21106081700566S551.5850577080975,221.16274379309948,537.875,220.10498033585537S510.2898073443255,221.02089993201818,496.5,221.18102393670242S467.6530519166474,223.35493583821392,455.125,227.33370841161926S424.9579857032344,242.0802701888878,413.75,247.46152090780694S382.9119471701844,261.2079977395153,372.375,267.06417459717613S342.40441350083114,288.23416233593866,331,293.4519417711349S301.87586037790766,300.57951280989477,289.625,304.9241880236465S261.63437827097374,320.4638026762573,248.25,322.7986050133582S220.3379796749421,317.2556984435859,206.875,319.35929210420716S177.02350423163452,330.6158581180766,165.5,335.72831148393993S135.72529854937562,351.02981670627776,124.125,356.07169377659187S95.3030339897446,367.751053341307,82.75,371.69422441218524S55.109449773128624,381.178725496676,41.375,382.06520310523285S6.894779727905568,381.24408453067775,0,381.1588532139886Z"></path><path opacity="0.85" id="path_106" class="layer" fill="#FFE999" d="M0,379.503752202225C6.895832768626328,379.5057255559888,27.584856006394787,379.7936348437868,41.375,379.6487283885385S70.25492735419391,372.8818004501439,82.75,368.8567493345963S112.58802769281758,358.0926124156581,124.125,352.9923823829507S154.09146044106242,337.4890894533977,165.5,332.27487811490136S193.3561490233824,317.0923990617605,206.875,315.1719421739715S234.78112875628278,320.15482772150153,248.25,318.0697162161457S277.4842643496447,304.1686366721543,289.625,299.69163800719934S319.814453377592,292.95411104564334,331,287.5549558099933S362.0860987420789,265.7523125759588,372.375,259.74901286494617S402.94360160952317,244.95232446486895,413.75,239.27253588650098S442.83849261695667,220.5563958920853,455.125,216.25602955293533S482.71004866343907,210.463237723917,496.5,210.30943811831202S524.1677574721351,208.14045212233682,537.875,209.21619472433883S565.4731008478018,260.2973277490862,579.25,259.8462728105691S614.6533013191776,199.67333464097408,620.625,206.50696416745117S661.5003358028046,352.75235497609225,662,354.54007327507964L662,354.60726351559066C661.4806763340476,352.787518375071,626.7800244835767,216.4823997115594,620.625,209.62647383614086S593.0291687669138,262.01915170505947,579.25,262.4341344395524S551.4571727405315,213.805454833065,537.875,212.11862861413783S510.28664668832806,213.58849698167683,496.5,213.8515723848167S467.4948830388785,215.3894108396328,455.125,219.58313200136155S424.6384426028906,236.28361700063786,413.75,241.9060353932654S382.79718965251413,256.3864069301117,372.375,262.31239448251887S342.28555360447746,283.6389692373894,331,288.9571337047801S301.74649389783485,296.8077693663838,289.625,301.30721255701576S261.6094694392238,317.2706564592692,248.25,319.67355588532513S220.3209185930208,314.1940809776887,206.875,316.35021187629764S176.91396236474355,327.8753989643266,165.5,333.0849121293584S135.68047644077558,349.03529227561546,124.125,354.11862223464595S95.30640492831296,365.5488500316727,82.75,369.4871804620989S55.16621572173048,379.99439102406103,41.375,380.0732521608372S6.895833284004594,380.1515412676009,0,380.1521245023393Z"></path><path opacity="0.85" id="path_116" class="layer" fill="#FFC41C" d="M0,377.8887907700437C6.895829479620028,377.8939458209467,27.587471672800056,378.36681892232843,41.375,378.12795186175913S70.2844750945063,370.86942052347905,82.75,366.8035807391151S112.54093079095418,356.19462463825255,124.125,351.13765304106187S154.04772358462998,335.8554881994995,165.5,330.6794526701324S193.42062414057588,315.86776263575587,206.875,313.7374956819283S234.88939321600364,319.4396450134286,248.25,317.03980718709255S277.5711330517756,302.8408160450369,289.625,298.26400420831425S319.9347991915445,291.1125383137221,331,285.61991669754417S362.1942500809396,263.25113591149733,372.375,257.18798158508224S403.06517289743937,242.09968416728708,413.75,236.3380833847035S442.9712297960335,217.02821608170416,455.125,212.56653285386875S482.7209991767342,206.37808472784556,496.5,205.9603256266304S524.4616112065354,201.3542543075923,537.875,203.60680579096032S565.4673392759952,255.94018642174092,579.25,255.58787143170017S614.5666315781278,194.6467431391138,620.625,201.49153458101927S661.4975368626514,347.287134548347,662,349.07946064783505L662,353.54007327507964C661.5003358028046,351.75235497609225,626.5966986808224,212.34059369392827,620.625,205.50696416745117S593.0268991521982,258.39521787205194,579.25,258.8462728105691S551.5822425278649,209.29193732634084,537.875,208.21619472433883S510.28995133656093,209.15563851270704,496.5,209.30943811831202S467.41150738304333,210.95566321378536,455.125,215.25602955293533S424.55639839047683,232.592747308133,413.75,238.27253588650098S382.6639012579211,252.7457131539335,372.375,258.74901286494617S342.185546622408,281.1558005743433,331,286.5549558099933S301.7657356503553,294.21463934224437,289.625,298.69163800719934S261.7188712437172,314.9846047107899,248.25,317.0697162161457S220.3938509766176,312.2514852861825,206.875,314.1719421739715S176.90853955893758,326.060666776405,165.5,331.27487811490136S135.66197230718242,346.89215235024335,124.125,351.9923823829507S95.24507264580609,363.83169821904875,82.75,367.8567493345963S55.16514399360521,378.50382193329017,41.375,378.6487283885385S6.895832768626328,378.5057255559888,0,378.503752202225Z"></path><path opacity="0.85" id="path_606" class="layer" fill="#D66011" d="M0,374.38874432160844C6.895833332879506,374.38868837953856,27.58338049037358,374.3887439889822,41.375,374.36324159779406S70.39613344950499,366.97728662690054,82.75,362.762741484009S112.78264099347376,351.40368272494595,124.125,346.13292122410496S154.38612056012403,329.76438334211247,165.5,324.3090552672675S193.52039379289954,307.93042633131216,206.875,305.5144854532688S234.8777032639431,311.7071151615497,248.25,309.339006389915S277.6130411520184,295.4838446793083,289.625,290.86023385231647S320.1505789133616,283.137025177703,331,277.4870994049138S362.4688656528546,253.97156659817122,372.375,247.76748687855502S403.24717957879653,231.53913690186062,413.75,225.66187890947594S443.2373845943253,206.21912130205067,455.125,201.46153482324S482.7083536913096,192.56095189309892,496.5,192.54419569996946S524.0841333014965,192.3327924390971,537.875,192.43782697771272S565.4583803538186,249.13707850545353,579.25,249.11161306517846S614.717494207301,185.46039272321744,620.625,192.28503381513832S661.5267585445621,342.9650828354207,662,344.7084808760238L662,348.07946064783505C661.4975368626514,346.287134548347,626.6833684218722,207.33632602292474,620.625,200.49153458101927S593.0326607240048,254.2355564416594,579.25,254.58787143170017S551.2883887934646,204.85935727432835,537.875,202.60680579096032S510.2790008232658,204.54256652541525,496.5,204.9603256266304S467.2787702039665,207.10484962603334,455.125,211.56653285386875S424.43482710256063,229.57648260211994,413.75,235.3380833847035S382.5557499190604,250.12482725866712,372.375,256.18798158508224S342.0652008084555,279.12729508136624,331,284.61991669754417S301.6788669482244,292.6871923715916,289.625,297.26400420831425S261.6106067839964,313.6399693607565,248.25,316.03980718709255S220.32937585942412,310.6072287281007,206.875,312.7374956819283S176.95227641537002,324.50341714076524,165.5,329.6794526701324S135.70906920904582,345.0806814438712,124.125,350.13765304106187S95.2155249054937,361.73774095475113,82.75,365.8035807391151S55.162528327199944,376.8890848011898,41.375,377.12795186175913S6.895829479620028,376.8939458209467,0,376.8887907700437Z"></path><path opacity="0.85" id="path_616" class="layer" fill="#5E1F05" d="M0,371.83780219113555C6.895092565594753,371.766334281364,27.65162728905711,371.82253862837024,41.375,370.8544356336935S70.53264108890217,362.8379301033861,82.75,358.45228500986684S112.71165210393583,346.35985120759136,124.125,341.14980518700514S154.41064946023118,326.15218388437535,165.5,320.6779779327838S193.4808747875008,302.6081907718106,206.875,300.3006552868661S234.88900846873992,308.8206362824342,248.25,306.4218351575196S277.68826421094394,290.14942362167955,289.625,285.4439141069724S320.8565821346523,279.884682595955,331,273.80145055463584S363.4014520998196,242.3922886823209,372.375,235.81690888037616S404.11370141748665,219.49417595030823,413.75,213.16627206520158S443.8638665723817,186.8153873196491,455.125,181.47715985653485S482.7118873487444,174.16083031739953,496.5,173.93946373262952S524.2647963100487,170.76010424602254,537.875,172.33164746059919S565.5504305935806,238.59146218528875,579.25,239.7147131852429S614.7508060671572,172.29672683901768,620.625,179.11646072652945S661.5504053037608,334.0821630592707,662,335.7845715595812L662,343.7084808760238C661.5267585445621,341.9650828354207,626.532505792699,198.1096749070592,620.625,191.28503381513832S593.0416196461814,248.0861476249034,579.25,248.11161306517846S551.6658666985035,191.54286151632834,537.875,191.43782697771272S510.2916463086904,191.52743950684,496.5,191.54419569996946S467.0126154056747,195.7039483444293,455.125,200.46153482324S424.25282042120347,218.78462091709127,413.75,224.66187890947594S382.2811343471454,240.56340715893882,372.375,246.76748687855502S341.8494210866384,270.83717363212463,331,276.4870994049138S301.6369588479816,285.23662302532466,289.625,289.86023385231647S261.6222967360569,305.97089761828033,248.25,308.339006389915S220.22960620710046,302.0985445752254,206.875,304.5144854532688S176.61387943987597,317.8537271924226,165.5,323.3090552672675S135.46735900652624,339.86215972326397,124.125,345.13292122410496S95.10386655049501,357.54819634111743,82.75,361.762741484009S55.166619509626415,373.33773920660593,41.375,373.36324159779406S6.895833332879506,373.38868837953856,0,373.38874432160844Z"></path><path opacity="0.85" id="path_206" class="layer" fill="#330000" d="M0,348.7789154967663C6.722974630988571,347.7008966330123,28.308505589448863,345.22271990644686,41.375,342.1444965176688S69.90978201347905,332.77980761266025,82.75,329.28455247804436S112.77529929437975,324.8835531410605,124.125,319.6189940150567S157.7165294697748,297.73942769459956,165.5,290.90096167013144S194.871160671039,251.5483928545592,206.875,246.91581343163045S234.52777563658375,259.94185100659263,248.25,258.9656835693594S278.64612557502676,246.5862629323628,289.625,241.02916901511693S324.04326618132535,223.97630569071217,331,217.08074128364612S367.4398931178411,165.6179839426051,372.375,159.00677609949685S408.22104276206204,112.98552259153752,413.75,106.22651622218501S446.64906984889257,64.55941669336391,455.125,57.84705411320101S486.64320730023815,46.92190058058756,496.5,40.69412112146489S532.8943948794188,-1.0610919895126,537.875,5.563439560279392S570.2436494538209,144.19212515799603,579.25,150.7570497162368S607.3415663250901,63.28342823777709,620.625,65.88171214016376S661.0100968090042,164.52531339852848,662,166.94322553375974L662,334.7845715595812C661.5504053037608,333.0821630592707,626.4991939328428,184.93619461404123,620.625,178.11646072652945S592.9495694064194,239.83796418519708,579.25,238.7147131852429S551.4852036899513,172.90319067517584,537.875,171.33164746059919S510.2881126512556,172.7180971478595,496.5,172.93946373262952S466.3861334276183,175.13893239342062,455.125,180.47715985653485S423.38629858251335,205.83836818009493,413.75,212.16627206520158S381.3485479001804,228.24152907843143,372.375,234.81690888037616S341.1434178653477,266.7182185133167,331,272.80145055463584S301.56173578905606,279.7384045922652,289.625,284.4439141069724S261.6109915312601,303.023034032605,248.25,305.4218351575196S220.2691252124992,296.99311980192164,206.875,299.3006552868661S176.58935053976882,314.20377198119223,165.5,319.6779779327838S135.53834789606415,334.9397591664189,124.125,340.14980518700514S94.96735891109783,353.0666399163476,82.75,357.45228500986684S55.09837271094289,368.8863326390168,41.375,369.8544356336935S6.895092565594753,370.766334281364,0,370.83780219113555Z"></path><path opacity="0.85" id="path_506" class="layer" fill="red" d="M0,345.031449407672C6.710565847215783,343.9164383472157,28.33577107620367,341.2889663011898,41.375,338.15668151525625S70.00849765429503,328.81119667653167,82.75,325.15323670423714S112.96755452927083,319.8213338487976,124.125,314.3999706114272S157.79727783838018,291.7937679530603,165.5,284.9453047838597S194.850650100224,245.43709961266487,206.875,240.82723679596043S234.52718613008645,254.19286915220002,248.25,253.22083308585982S278.74402103692785,240.5934689071893,289.625,234.96575785642588S324.40507220854124,217.3112754559674,331,210.42201038515032S367.67513235690984,155.05939251477784,372.375,148.5225544375125S408.2093195553748,102.09006115744589,413.75,95.32869457891036S446.29709814451394,54.16126039558715,455.125,47.541620784035956S486.0226758153047,39.171086049681094,496.5,33.27825645408598S533.1748488374642,-5.536933315091438,537.875,1.0000000000000568S570.430063957737,141.74434702902107,579.25,148.3663064162871S607.372356476107,60.45551485574045,620.625,63.128244090494434S661.0244631380675,162.6517071294714,662,165.0549273527178L662,165.94322553375974C661.0100968090042,163.52531339852848,633.9084336749099,67.47999604255043,620.625,64.88171214016376S588.2563505461791,156.32197427447755,579.25,149.7570497162368S542.8556051205812,11.187971110071384,537.875,4.563439560279392S506.35679269976185,33.46634166234222,496.5,39.69412112146489S463.60093015110743,50.13469153303811,455.125,56.84705411320101S419.27895723793796,98.4675098528325,413.75,105.22651622218501S377.3101068821589,151.3955682563886,372.375,158.00677609949685S337.95673381867465,209.18517687658007,331,216.08074128364612S300.60387442497324,234.47207509787106,289.625,240.02916901511693S261.9722243634163,256.98951613212614,248.25,257.9656835693594S218.878839328961,241.2832340087017,206.875,245.91581343163045S173.2834705302252,283.0624956456633,165.5,289.90096167013144S135.47470070562025,313.354434889053,124.125,318.6189940150567S95.59021798652095,324.7892973434285,82.75,328.28455247804436S54.44149441055114,338.06627312889077,41.375,341.1444965176688S6.722974630988571,346.7008966330123,0,347.7789154967663Z"></path></g><g class="text_layers"><text class="label" style="font-weight: lighter; " font-size="18px" font-family="PT Sans Narrow" dy="6" opacity="1" pointer-events="none" text-anchor="middle" fill="#333333" x="413.75" y="376.843324507449"><tspan x="413.75" dy="11px">Transportation</tspan></text><text class="label" style="font-weight: lighter; " font-size="18px" font-family="PT Sans Narrow" dy="6" opacity="1" pointer-events="none" text-anchor="middle" fill="#ffffff" x="496.5" y="293.36530179077465"><tspan x="496.5" dy="11px">Machinery</tspan><tspan x="496.5" dy="11px">/ Electrical</tspan></text><text class="label" style="font-weight: lighter; " font-size="18px" font-family="PT Sans Narrow" dy="6" opacity="1" pointer-events="none" text-anchor="middle" fill="#ffffff" x="496.5" y="93.31679242704723"><tspan x="496.5" dy="11px">Mineral</tspan><tspan x="496.5" dy="11px">Products</tspan></text></g></g></g></svg>