<svg width="748" height="520" style="z-index: 10; position: absolute; "><rect id="svgbg" fill="#ffffff" width="748" height="520"></rect><g class="titles"></g><clipPath id="clipping"><rect width="748" height="520"></rect></clipPath><g class="parent" width="748" height="520" clip-path="url(#clipping)" transform="translate(0,0)"><g class="axes_labels"><text class="x_axis_label" x="374" y="510" font-family="sans-serif" font-size="14px" font-weight="lighter" fill="#333" text-anchor="middle">Year</text><text class="y_axis_label" y="15" x="-242.5" transform="rotate(-90)" font-family="sans-serif" font-size="14px" font-weight="lighter" fill="#333" text-anchor="middle">Current</text></g><g class="chart" transform="translate(40,5)"><rect style="fill: #fafafa; " id="background" x="0" y="0" width="698" height="475" stroke-width="1" stroke="#ccc" shape-rendering="crispEdges"></rect><g transform="translate(0,475)" class="xaxis"><path class="domain" d="M0,0V0H698V0"></path></g><g class="yaxis"><path class="domain" d="M0,0H0V475H0"></path></g><clipPath id="path_clipping"><rect width="698" height="475" y="1" x="1"></rect></clipPath><g class="layers" clip-path="url(#path_clipping)"><path opacity="0.85" id="path_906" class="layer" fill="#7f7f7f" d="M0,440.83484725758024C6.894220646245819,440.72940428429763,27.590615576448407,440.5188714110776,41.375,440.2020414273893S68.97119034387802,439.3537600937955,82.75,438.93286307427394S110.36000560862645,438.28022673205976,124.125,437.67430287560995S151.76756238983796,436.19213974402163,165.5,435.2902753843984S193.08486188457505,432.3849637128608,206.875,432.2397778570074S234.45945689267833,434.29458681186696,248.25,434.41906369157067S275.84465703044077,433.38172457833815,289.625,432.98669998439016S317.2418690216704,432.7262242744254,331,432.0469685106738S358.6228445945848,429.6383641769335,372.375,428.90123121403315S399.99582623441387,428.3295749370661,413.75,427.61146361113015S441.369787225087,425.28893609004615,455.125,424.5808181355038S482.7612414143281,424.2040752471756,496.5,423.3514960121375S524.1092712625808,418.84810261060653,537.875,419.4456429841636S565.459485433784,426.81744586806167,579.25,426.94349370837574S606.9776691205326,421.60548821942126,620.625,420.20199320850867S655.1167426866346,418.72768004142443,662,418.43346246646104L662,447.24632126782274C655.1041666666666,447.24632126782274,634.4166666666666,447.24632126782274,620.625,447.24632126782274S593.0416666666666,447.24632126782274,579.25,447.24632126782274S551.6666666666666,447.24632126782274,537.875,447.24632126782274S510.2916666666667,447.24632126782274,496.5,447.24632126782274S468.9166666666667,447.24632126782274,455.125,447.24632126782274S427.5416666666667,447.24632126782274,413.75,447.24632126782274S386.1666666666667,447.24632126782274,372.375,447.24632126782274S344.7916666666667,447.24632126782274,331,447.24632126782274S303.4166666666667,447.24632126782274,289.625,447.24632126782274S262.0416666666667,447.24632126782274,248.25,447.24632126782274S220.66666666666666,447.24632126782274,206.875,447.24632126782274S179.29166666666666,447.24632126782274,165.5,447.24632126782274S137.91666666666666,447.24632126782274,124.125,447.24632126782274S96.54166666666667,447.24632126782274,82.75,447.24632126782274S55.166666666666664,447.24632126782274,41.375,447.24632126782274S6.895833333333333,447.24632126782274,0,447.24632126782274Z"></path><path opacity="0.85" id="path_316" class="layer" fill="#f7b6d2" d="M0,439.4073959833443C6.894194829692123,439.30111257291884,27.591992624038433,439.1150162008124,41.375,438.7695439621897S68.98125131963087,437.89500042425817,82.75,437.333260276511S110.38490384286736,436.2352671742364,124.125,435.3934930003217S151.79117759020977,433.32934967006895,165.5,432.2636587180618S193.09046598407866,429.2742672331219,206.875,428.960706606093S234.45834649698915,430.36784746911576,248.25,430.3813214655531S275.860896777973,429.65749391996025,289.625,429.04155066188S317.2786134232783,427.6602694271115,331,426.6782611365247S358.6830552496451,424.28781994553714,372.375,423.1193222054707S400.0786304516846,420.8986417643141,413.75,419.6162118985601S441.4029726130806,416.33458078182247,455.125,415.35703686777225S482.7790569456399,414.7062683225951,496.5,413.721182206026S524.1587761227255,408.39880846004087,537.875,409.4160548359147S565.4584515157911,419.8178589184354,579.25,419.85823117495S607.6169910585058,412.8510677207934,620.625,409.65829045074855S655.4927571725402,401.1376625695172,662,399.547488748149L662,417.43346246646104C655.1167426866346,417.72768004142443,634.2723308794674,417.7984981975961,620.625,419.20199320850867S593.040514566216,426.0695415486898,579.25,425.94349370837574S551.6407287374192,419.0431833577207,537.875,418.4456429841636S510.2387585856719,421.4989167770994,496.5,422.3514960121375S468.880212774913,422.8727001809615,455.125,423.5808181355038S427.50417376558613,425.89335228519417,413.75,426.61146361113015S386.1271554054152,427.16409825113277,372.375,427.90123121403315S344.7581309783296,430.3677127469222,331,431.0469685106738S303.40534296955923,431.59167539044216,289.625,431.98669998439016S262.0405431073217,433.5435405712744,248.25,433.41906369157067S220.66513811542495,431.09459200115407,206.875,431.2397778570074S179.23243761016204,433.38841102477517,165.5,434.2902753843984S137.88999439137353,436.06837901916015,124.125,436.67430287560995S96.52880965612198,437.5119660547524,82.75,437.93286307427394S55.15938442355159,438.885211443701,41.375,439.2020414273893S6.894220646245819,439.72940428429763,0,439.83484725758024Z"></path><path opacity="0.85" id="path_306" class="layer" fill="#e377c2" d="M0,438.2790232004094C6.892792977263979,438.1342594447134,27.60886408972202,438.0028980446851,41.375,437.410057541397S69.02119341862904,435.64435794602434,82.75,434.715383267837S110.43406953928977,432.98507020036226,124.125,431.81068849468676S151.90647115455323,429.25840303245855,165.5,427.61724728478356S193.08526338343364,421.9833668289908,206.875,421.82022614571434S234.45870413419811,422.06988437679246,248.25,421.998373367617S275.92488031102585,420.47744284466603,289.625,419.35753010183674S317.37490304104733,416.74049141569736,331,415.23399600646843S358.8784130023698,412.20369163396197,372.375,410.20805428604945S400.3417771160704,405.26582827149895,413.75,402.99838484279S441.6631947349931,398.3215887723179,455.125,396.21433227307864S483.13594675946507,392.43556795568895,496.5,390.04503483665627S524.1711675566687,380.315073241419,537.875,381.41219013554587S565.4583334454119,396.6711710722978,579.25,396.6699277901S609.4078809504358,386.7786496005861,620.625,381.4047304422985S656.8812680539597,360.04193862043024,662,357.02589723435983L662,398.547488748149C655.4927571725402,400.1376625695172,633.6330089414942,405.4655131807037,620.625,408.65829045074855S593.0415484842089,418.8986034314646,579.25,418.85823117495S551.5912238772745,409.4333012117885,537.875,408.4160548359147S510.2209430543601,411.7360960894569,496.5,412.721182206026S468.8470273869194,413.37949295372204,455.125,414.35703686777225S427.4213695483154,417.3337820328061,413.75,418.6162118985601S386.0669447503549,420.9508244654043,372.375,422.1193222054707S344.7213865767217,424.696252845938,331,425.6782611365247S303.389103222027,427.4256074037998,289.625,428.04155066188S262.0416535030108,429.3947954619905,248.25,429.3813214655531S220.65953401592134,427.64714597906413,206.875,427.960706606093S179.20882240979023,430.1979677660546,165.5,431.2636587180618S137.86509615713265,433.551718826407,124.125,434.3934930003217S96.51874868036913,435.7715201287638,82.75,436.333260276511S55.15800737596157,437.42407172356695,41.375,437.7695439621897S6.894194829692123,438.30111257291884,0,438.4073959833443Z"></path><path opacity="0.85" id="path_716" class="layer" fill="#9edae5" d="M0,411.1117789007617C6.884902199459306,410.83744372683776,27.686626650885543,410.65223711908686,41.375,409.4631544915444S69.2204333658152,405.80655487876516,82.75,403.9234457862574S110.85132963620399,400.5677759245596,124.125,397.94561800140355S152.55276643074026,390.8830499643575,165.5,387.5765302614462S193.09329534174935,377.1831015567903,206.875,376.81257023855574S234.4607498676247,377.40842480688184,248.25,377.2258811249942S276.02856001867684,373.34530261864745,289.625,371.7160733806255S317.55526252471793,369.4698600847469,331,367.3101443857074S359.2674237656111,361.4178583466168,372.375,358.4234022203232S400.81669219415494,351.73759462581194,413.75,348.4057153730658S441.9847639681921,340.03108366402313,455.125,337.10534404806367S482.8193029701694,331.21314088551486,496.5,329.98101184151625S524.8527429070717,323.24056898329957,537.875,326.4059203506807S565.4979634833354,358.1195081695054,579.25,358.8577461189426S609.9553811901012,336.6196861099502,620.625,330.84811262103267S656.0754621073902,316.49419878095097,662,314.09534975621307L662,356.02589723435983C656.8812680539597,359.04193862043024,631.8421190495642,375.0308112840109,620.625,380.4047304422985S593.0416665545881,395.66868450790224,579.25,395.6699277901S551.5788324433313,381.50930702967275,537.875,380.41219013554587S509.86405324053493,386.6545017176236,496.5,389.04503483665627S468.5868052650069,393.10707577383937,455.125,395.21433227307864S427.1582228839296,399.7309414140811,413.75,401.99838484279S385.8715869976302,407.2124169381369,372.375,409.20805428604945S344.62509695895267,412.7275005972395,331,414.23399600646843S303.32511968897415,417.23761735900746,289.625,418.35753010183674S262.0412958658019,420.9268623584415,248.25,420.998373367617S220.66473661656636,420.65708546243786,206.875,420.82022614571434S179.09352884544677,424.9760915371086,165.5,426.61724728478356S137.81593046071023,429.63630678901126,124.125,430.81068849468676S96.47880658137096,432.7864085896497,82.75,433.715383267837S55.14113591027798,435.81721703810894,41.375,436.410057541397S6.892792977263979,437.1342594447134,0,437.2790232004094Z"></path><path opacity="0.85" id="path_706" class="layer" fill="#17becf" d="M0,363.99763439107386C6.858867897315952,363.4941057996216,27.9678967403299,363.23083700951514,41.375,360.9601804288113S69.77293184690939,353.23423473925743,82.75,349.9829118657054S111.7208069446753,344.3762407813739,124.125,340.2276879572852S154.44432636740765,327.80721200000573,165.5,322.3073714527015S193.307858254543,300.80756127705655,206.875,299.0622356823783S234.5653415065101,310.4520040640564,248.25,311.6621157555693S276.2368900162958,308.70408673537236,289.625,306.3796811648748S319.1695614019468,302.11216113346575,331,297.29529615274333S361.7177762427227,278.46696498051165,372.375,272.6873058694763S402.9502930605605,258.1024457302843,413.75,252.4180558572496S443.8296513710783,234.4421825164858,455.125,229.1321182489844S482.85354869931405,214.92411489050167,496.5,213.5163953090627S525.0757127102792,205.8571036291468,537.875,209.421054911912S565.5763043660911,265.4521931950694,579.25,266.7222719310332S611.9641301213792,223.7733941980121,620.625,217.1072736354277S655.819517860993,205.13370810219803,662,203.03103949310835L662,313.09534975621307C656.0754621073902,315.49419878095097,631.2946188098988,324.07653913211516,620.625,329.84811262103267S593.0020365166646,358.5959840683798,579.25,357.8577461189426S550.8972570929283,328.5712717180618,537.875,325.4059203506807S510.1806970298306,327.74888279751764,496.5,328.98101184151625S468.2652360318079,333.1796044321042,455.125,336.10534404806367S426.68330780584506,344.07383612031964,413.75,347.4057153730658S385.4825762343889,354.42894609402964,372.375,357.4234022203232S344.44473747528207,364.1504286866679,331,366.3101443857074S303.22143998132316,369.0868441426036,289.625,370.7160733806255S262.0392501323753,376.04333744310657,248.25,376.2258811249942S220.65670465825065,375.4420389203212,206.875,375.81257023855574S178.44723356925974,383.27001055853486,165.5,386.5765302614462S137.39867036379601,394.3234600782475,124.125,396.94561800140355S96.2795666341848,401.0403366937496,82.75,402.9234457862574S55.06337334911446,407.27407186400194,41.375,408.4631544915444S6.884902199459306,409.83744372683776,0,410.1117789007617Z"></path><path opacity="0.85" id="path_416" class="layer" fill="#2ca02c" d="M0,358.8420934898725C6.855179062878499,358.3141803306895,28.111601964977663,358.30283528504975,41.375,355.6558299713197S70.02965325773022,346.0190479022214,82.75,342.3274952600083S111.81648469498856,335.91371010394175,124.125,331.6410772815965S154.72461943548714,319.30365644815663,165.5,313.6026363076766S193.40827776467623,289.9517210117566,206.875,287.85984711526805S234.56723386178723,299.5278581591727,248.25,300.74853848717123S276.29198309620386,297.7151111446306,289.625,295.24222112660016S319.34110749268336,290.3873609813007,331,285.40080057694934S361.938105289519,265.7668888153364,372.375,259.84967649158256S403.1652395412588,244.31174681874208,413.75,238.48557019727397S444.067057554686,219.7996636552743,455.125,214.30153987519452S482.7688324419938,198.25285142906486,496.5,197.34141114131853S524.5696802375,192.00639919354694,537.875,194.55021543601407S565.5557445543953,253.07642714559054,579.25,254.2314051300088S607.4312646544379,204.33810455164553,620.625,201.52937750804085S655.1076829719659,198.7325586470169,662,198.57688112490803L662,202.03103949310835C655.819517860993,204.13370810219803,629.2858698786208,209.4411530728433,620.625,216.1072736354277S592.9236956339089,266.992350666997,579.25,265.7222719310332S550.6742872897208,211.9850061946772,537.875,208.421054911912S510.14645130068595,211.1086757276237,496.5,212.5163953090627S466.4203486289217,222.822053981483,455.125,228.1321182489844S424.5497069394395,245.73366598421498,413.75,251.4180558572496S383.0322237572773,265.90764675844093,372.375,271.6873058694763S342.8304385980532,291.4784311720209,331,296.29529615274333S303.0131099837042,303.05527559437724,289.625,305.3796811648748S261.9346584934899,311.8722274470822,248.25,310.6621157555693S220.442141745457,296.3169100877,206.875,298.0622356823783S176.55567363259235,315.80753090539724,165.5,321.3073714527015S136.5291930553247,335.0791351331965,124.125,339.2276879572852S95.72706815309061,345.7315889921533,82.75,348.9829118657054S54.7821032596701,357.6895238481075,41.375,359.9601804288113S6.858867897315952,362.4941057996216,0,362.99763439107386Z"></path><path opacity="0.85" id="path_406" class="layer" fill="#98df8a" d="M0,357.6745342706629C6.867641805701393,357.2345236870041,28.068565310909904,357.4375902505836,41.375,354.89658501275335S70.02565287016488,344.80044098538167,82.75,341.11520771120496S111.77510639369285,335.1501641916116,124.125,330.93047890715263S154.79702129253428,318.59098707851575,165.5,312.8413643551248S193.44073783028955,288.6685384370542,206.875,286.47731373092677S234.57077904338973,298.104014964663,248.25,299.34424466656685S276.2841834931263,296.43235185744516,289.625,293.97986143872936S319.34998903587575,289.1270424580257,331,284.1320136877383S361.9441674197818,264.4210199305178,372.375,258.5001840363526S403.17381121065915,242.99236591034023,413.75,237.16077083878847S444.08791135226346,218.3865853397865,455.125,212.8727371570707S482.7731222248077,196.76403303752164,496.5,195.82097991364216S524.6029694631616,190.3060645498583,537.875,192.93220745974045S565.561548121425,252.06425904245978,579.25,253.25289298945478S607.127237069808,202.10953065122746,620.625,200.11778695304943S655.1049881296165,198.15237404319302,662,198.07711451363153L662,197.57688112490803C655.1076829719659,197.7325586470169,633.8187353455621,197.72065046443618,620.625,200.52937750804085S592.9442554456047,254.38638311442705,579.25,253.2314051300088S551.1803197625,196.0940316784812,537.875,193.55021543601407S510.2311675580062,195.4299708535722,496.5,196.34141114131853S466.182942445314,207.80341609511476,455.125,213.30153987519452S424.3347604587412,231.65939357580586,413.75,237.48557019727397S382.811894710481,252.93246416782873,372.375,258.84967649158256S342.65889250731664,279.414240172598,331,284.40080057694934S302.95801690379614,291.7693311085697,289.625,294.24222112660016S261.93276613821274,300.96921881516977,248.25,299.74853848717123S220.34172223532377,284.7679732187795,206.875,286.85984711526805S176.27538056451286,306.9016161671966,165.5,312.6026363076766S136.43351530501144,326.36844445925124,124.125,330.6410772815965S95.47034674226978,337.63594261779514,82.75,341.3274952600083S54.638398035022334,352.0088246575896,41.375,354.6558299713197S6.855179062878499,357.3141803306895,0,357.8420934898725Z"></path><path opacity="0.85" id="path_426" class="layer" fill="#3ab11a" d="M0,355.4994103509847C6.86282596207785,355.0234651394403,28.113066532268306,355.23230650118194,41.375,352.58178080994173S70.04459866676281,342.3981042759123,82.75,338.6830757409473S111.76428352177237,332.59154073830547,124.125,328.38588150653675S154.7939538815574,316.2754777650907,165.5,310.5278873227139S193.45480617911772,286.19392532250356,206.875,283.96116076043677S234.5809037978462,295.4660974878691,248.25,296.76048053433135S276.26482111257167,294.1980894488111,289.625,291.79709925342024S319.41815730516464,286.9483119126213,331,281.88927706148354S361.95253278629,261.5771074477609,372.375,255.65128507150877S403.13621785565323,240.64844274355175,413.75,234.8407431989993S444.23105596141744,215.99025609303163,455.125,210.371748448676S482.7802697551772,193.15621759012876,496.5,192.1627648723432S524.6064612848863,186.6132698620566,537.875,189.2478748567645S565.5482447555179,248.9776086111467,579.25,250.08753847400146S607.1513637581107,198.02118493425675,620.625,195.95115443754813S655.1052543225538,197.9905171076264,662,198.07711451363153L662,197.07711451363153C655.1049881296165,197.15237404319302,634.122762930192,197.1260432548714,620.625,199.11778695304943S592.938451878575,253.44152693644978,579.25,252.25289298945478S551.1470305368384,194.55835036962262,537.875,191.93220745974045S510.2268777751923,193.87792678976268,496.5,194.82097991364216S466.16208864773654,206.3588889743549,455.125,211.8727371570707S424.32618878934085,230.3291757672367,413.75,236.16077083878847S382.8058325802182,251.57934814218746,372.375,257.5001840363526S342.65001096412425,278.13698491745095,331,283.1320136877383S302.9658165068737,290.52737102001356,289.625,292.97986143872936S261.92922095661027,299.5844743684707,248.25,298.34424466656685S220.30926216971045,283.2860890247993,206.875,285.47731373092677S176.20297870746572,306.0917416317339,165.5,311.8413643551248S136.47489360630715,325.71079362269364,124.125,329.93047890715263S95.47434712983512,336.42997443702825,82.75,340.11520771120496S54.681434689090096,351.3555797749231,41.375,353.89658501275335S6.867641805701393,356.2345236870041,0,356.6745342706629Z"></path><path opacity="0.85" id="path_126" class="layer" fill="#D1FF00" d="M0,355.0256967011984C6.861146483939608,354.5378529200997,28.127977139696682,354.74831190345725,41.375,352.06225364764487S70.08743121749818,341.9048109596387,82.75,338.12363658910056S111.8638674096295,331.6842289143101,124.125,327.3522453913096S154.87530581022222,314.68791485834873,165.5,308.8872154113521S193.4672970792212,284.4426691722257,206.875,282.1737328934347S234.5711141561299,293.6416759086877,248.25,294.8837370989727S276.29636298887283,292.17180523492175,289.625,289.6875439354459S319.51199767793923,284.60472390262066,331,279.46035792224166S362.04399698245976,258.61112452563583,372.375,252.63181632135195S403.26420274432627,237.45454294803667,413.75,231.56687138812393S444.40785616043985,211.90872694715787,455.125,206.16850888717863S482.78175948490303,188.24870932119137,496.5,187.24507711399048S524.5986579421659,181.73095464521668,537.875,184.34660480869059S565.5378039012924,244.9660403553677,579.25,246.00993499177974S606.8976943353134,191.58622115778618,620.625,190.64627267671636S655.1042056590078,191.57479977330837,662,191.5911974306291L662,197.07711451363153C655.1052543225538,196.9905171076264,634.0986362418893,192.8811239408395,620.625,194.95115443754813S592.9517552444821,250.19746833685622,579.25,249.08753847400146S551.1435387151137,190.8824798514724,537.875,188.2478748567645S510.2197302448228,190.16931215455762,496.5,191.1627648723432S466.01894403858256,203.75324080432034,455.125,209.371748448676S424.36378214434677,228.03304365444683,413.75,233.8407431989993S382.79746721371,248.72546269525662,372.375,254.65128507150877S342.58184269483536,275.8302422103458,331,280.88927706148354S302.98517888742833,288.39610905802937,289.625,290.79709925342024S261.9190962021538,297.0548635807936,248.25,295.76048053433135S220.29519382088228,280.72839619837,206.875,282.96116076043677S176.2060461184426,303.7802968803371,165.5,309.5278873227139S136.48571647822763,323.180222274768,124.125,327.38588150653675S95.45540133323719,333.96804720598226,82.75,337.6830757409473S54.636933467731694,348.93125511870153,41.375,351.58178080994173S6.86282596207785,354.0234651394403,0,354.4994103509847Z"></path><path opacity="0.85" id="path_106" class="layer" fill="#FFE999" d="M0,354.25761760706644C6.864143539701837,353.79122368318866,28.10793808153712,353.9976180155772,41.375,351.359443708004S70.09877049284194,341.09248344739996,82.75,337.2940716419957S111.86888367724703,330.8527291387224,124.125,326.51454015777085S154.94788013847594,313.8505026441552,165.5,308.0037867980684S193.4995937130765,283.02402872981884,206.875,280.66444154130176S234.57188232926572,292.1594137908756,248.25,293.40566277392713S276.3077033842845,290.71743917680703,289.625,288.20400991101724S319.58438049099556,282.9959835668465,331,277.7879080789793S362.1044639750662,256.46514643038677,372.375,250.45150368206728S403.23209827789486,235.2037935497423,413.75,229.33581792367062S444.4343986178809,210.0427770102324,455.125,204.2849777069373S482.7845038236788,185.79000909712084,496.5,184.76789556669388S524.5999195243794,179.24087457400944,537.875,181.8596000767552S565.5468060461262,243.02833755253656,579.25,244.12940918645828S607.1525480761451,190.58247342505592,620.625,188.50868334987535S655.1050545496166,186.45823863968903,662,186.37999603936146L662,190.5911974306291C655.1042056590078,190.57479977330837,634.3523056646866,188.70632419564654,620.625,189.64627267671636S592.9621960987076,246.05382962819178,579.25,245.00993499177974S551.1513420578341,185.9622549721645,537.875,183.34660480869059S510.21824051509697,185.24144490678958,496.5,186.24507711399048S465.84214383956015,199.4282908271994,455.125,205.16850888717863S424.23579725567373,224.67919982821118,413.75,230.56687138812393S382.70600301754024,245.65250811706804,372.375,251.63181632135195S342.48800232206077,273.31599194186265,331,278.46035792224166S302.95363701112717,286.20328263597,289.625,288.6875439354459S261.9288858438701,295.12579828925766,248.25,293.8837370989727S220.2827029207788,278.9047966146437,206.875,281.1737328934347S176.12469418977778,302.08651596435544,165.5,307.8872154113521S136.3861325903705,322.02026186830915,124.125,326.3522453913096S95.41256878250182,333.3424622185624,82.75,337.12363658910056S54.62202286030332,348.3761953918325,41.375,351.06225364764487S6.861146483939608,353.5378529200997,0,354.0256967011984Z"></path><path opacity="0.85" id="path_116" class="layer" fill="#FFC41C" d="M0,353.55308649678005C6.8682477357032,353.1178110455297,28.081829027643867,353.3171670173488,41.375,350.74295092435017S70.11752743570113,340.2064003316948,82.75,336.3797193030672S111.84690578720861,329.98686887640156,124.125,325.67597741562844S154.9243388856639,313.1577679716827,165.5,307.32583991457574S193.4628679043762,282.2998328214721,206.875,280.043648475794S234.5911634313912,292.05870152698463,248.25,293.40566277392713S276.3077033842845,290.71743917680703,289.625,288.20400991101724S319.6383851966676,283.0423645897256,331,277.7879080789793S362.17936598553666,255.98931621943333,372.375,249.93424951245765S403.26089977633217,234.52931606622346,413.75,228.64365973783177S444.4528766470959,209.27140670042675,455.125,203.50147160120758S482.82302677922587,185.156933325819,496.5,183.90447207369562S524.8070403582126,177.34652171815523,537.875,180.4218061267262S565.5192276000411,242.30072670344182,579.25,243.21512558611042S612.740998938296,192.75719512781214,620.625,185.93253089418732S655.844474590665,173.71857049415715,662,171.5838610907714L662,185.37999603936146C655.1050545496166,185.45823863968903,634.0974519238549,185.4348932746948,620.625,187.50868334987535S592.9531939538738,244.23048082038,579.25,243.12940918645828S551.1500804756206,183.478325579501,537.875,180.8596000767552S510.2154961763212,182.74578203626692,496.5,183.76789556669388S465.8156013821191,197.52717840364218,455.125,203.2849777069373S424.26790172210514,222.46784229759893,413.75,228.33581792367062S382.6455360249338,243.4378609337478,372.375,249.45150368206728S342.41561950900444,271.57983259111205,331,276.7879080789793S302.9422966157155,284.69058064522744,289.625,287.20400991101724S261.92811767073425,293.6519117569787,248.25,292.40566277392713S220.2504062869235,277.3048543527847,206.875,279.66444154130176S176.05211986152406,301.1570709519816,165.5,307.0037867980684S136.38111632275297,321.1763511768193,124.125,325.51454015777085S95.40122950715806,332.4956598365914,82.75,336.2940716419957S54.64206191846288,347.7212694004308,41.375,350.359443708004S6.864143539701837,352.79122368318866,0,353.25761760706644Z"></path><path opacity="0.85" id="path_606" class="layer" fill="#D66011" d="M0,350.62033322434013C6.843366243129357,350.0211241506629,28.237668135813003,349.92944447849885,41.375,346.9975144911931S70.21741815776375,336.12491690792336,82.75,332.1525645055688S111.9565421088351,325.21322402302343,124.125,320.7689076939057S155.10239188991122,307.87012124667564,165.5,301.9295749103535S193.48955012191905,275.8225285215191,206.875,273.4907063878114S234.6098998237124,286.0762109526239,248.25,287.51405034286853S276.3272754678384,284.7764756425111,289.625,282.21360490065234S319.83561605292874,276.98154288668246,331,271.5656410209662S362.53050487470887,248.30475240905614,372.375,242.0711410161508S403.62229230903546,225.2592861302727,413.75,219.1676931122193S444.67293059590014,198.20694416714358,455.125,192.29883936356316S482.83643204002794,173.715664562096,496.5,172.39268104575643S524.9285875170714,165.3161285764283,537.875,168.62415054062285S565.514830824736,233.98772719316764,579.25,234.86863729209574S613.3535644978886,180.8169486457926,620.625,173.93135205784756S656.1426748817886,158.97589017346252,662,156.50954059282662L662,170.5838610907714C655.844474590665,172.71857049415715,628.509001061704,178.1078666605625,620.625,184.93253089418732S592.9807723999589,243.129524468779,579.25,242.21512558611042S550.9429596417874,182.4970905352972,537.875,179.4218061267262S510.17697322077413,181.65201082157222,496.5,182.90447207369562S465.7971233529041,196.73153650198842,455.125,202.50147160120758S424.23910022366783,221.75800340944008,413.75,227.64365973783177S382.57063401446334,242.87918280548197,372.375,248.93424951245765S342.3616148033324,271.533451568233,331,276.7879080789793S302.9422966157155,284.69058064522744,289.625,287.20400991101724S261.90883656860876,293.75262402086963,248.25,292.40566277392713S220.2871320956238,276.7874641301159,206.875,279.043648475794S176.0756611143361,300.4939118574688,165.5,306.32583991457574S136.4030942127914,320.3650859548553,124.125,324.67597741562844S95.38247256429887,331.5530382744396,82.75,335.3797193030672S54.66817097235614,347.1687348313515,41.375,349.74295092435017S6.8682477357032,352.1178110455297,0,352.55308649678005Z"></path><path opacity="0.85" id="path_616" class="layer" fill="#5E1F05" d="M0,349.19805281018165C6.812255802593394,348.4434989560734,28.339972317693526,347.75569643289236,41.375,344.6151853110131S70.25415076765181,333.2851807867769,82.75,329.26121019892565S111.91641428107762,322.363920211783,124.125,317.9676514016977S155.21247540592614,305.46730361916605,165.5,299.4632260253197S193.5340151313324,272.1245612394915,206.875,269.6725133101701S234.6463141136722,282.6547970418781,248.25,284.25393164796867S276.3117933471224,281.9237591683861,289.625,279.3999055595743S320.51690446881065,274.45590318868295,331,268.5665851224766S363.3211043152962,239.46107570225305,372.375,232.91162654612484S404.3573168053865,215.1344333608366,413.75,208.70650537964883S445.4819794481996,182.60625402394172,455.125,176.2812655063393S482.90169323238484,156.05118569595314,496.5,154.42965332690903S525.4286009932007,145.514516005748,537.875,149.60642730313123S565.7232707650655,226.0799422243206,579.25,227.97301826696673S614.2689362741612,168.06202844027996,620.625,161.18735272924192S656.7013639598973,141.38029360775633,662,138.47117567596558L662,155.50954059282662C656.1426748817886,157.97589017346252,627.8964355021114,166.04575546990253,620.625,172.93135205784756S592.985169175264,234.74954739102384,579.25,233.86863729209574S550.8214124829286,170.9321725048174,537.875,167.62415054062285S510.16356795997206,170.06969752941686,496.5,171.39268104575643S465.57706940409986,185.39073455998275,455.125,191.29883936356316S423.87770769096454,212.0761000941659,413.75,218.1676931122193S382.21949512529113,234.83752962324544,372.375,241.0711410161508S342.16438394707126,265.14973915524996,331,270.5656410209662S302.9227245321616,278.65073415879357,289.625,281.21360490065234S261.8901001762876,287.95188973311315,248.25,286.51405034286853S220.26044987808095,270.15888425410367,206.875,272.4907063878114S175.89760811008878,294.98902857403135,165.5,300.9295749103535S136.2934578911649,315.324591364788,124.125,319.7689076939057S95.28258184223625,327.1802121032143,82.75,331.1525645055688S54.512331864187,343.06558450388735,41.375,345.9975144911931S6.843366243129357,349.0211241506629,0,349.62033322434013Z"></path><path opacity="0.85" id="path_206" class="layer" fill="#330000" d="M0,334.3767290940367C6.634835065937778,333.0607957915228,28.649475533756497,329.85390615049135,41.375,326.17053559406077S69.8689619741189,313.84983864654305,82.75,310.4249529332067S111.87633291864219,308.5158588725001,124.125,304.16848170607875S157.25364055902895,287.81707306375625,165.5,281.054780804936S194.3894713264232,240.34899150623886,206.875,236.31069689534536S234.6414939656058,252.71150623822655,248.25,254.29028506046333S276.20432325271634,253.72555191769712,289.625,251.49419901317032S322.6538334903277,239.27207320793474,331,232.5304820723999S366.22647186626466,191.50835382575335,372.375,184.65313301969866S407.26214272355696,147.15320909476276,413.75,140.26945482124927S447.3379359502638,103.69162529411408,455.125,96.85362667088731S487.5823123438759,74.19756214416486,496.5,67.60479167504315S532.0868330321014,28.87096637559398,537.875,35.677257038208666S568.5010771594143,159.19136892278857,579.25,164.91030401686095S617.5810813985213,85.42389536339385,620.625,79.70416894864002S660.2253863672988,12.432187421220094,662,9.417525533578328L662,137.47117567596558C656.7013639598973,140.38029360775633,626.9810637258388,153.31267701820389,620.625,160.18735272924192S592.7767292349345,228.86609430961286,579.25,226.97301826696673S550.3213990067993,152.69833860051446,537.875,148.60642730313123S510.09830676761516,151.80812095786493,496.5,153.42965332690903S464.7680205518004,168.9562769887369,455.125,175.2812655063393S423.1426831946135,201.27857739846107,413.75,207.70650537964883S381.4288956847038,225.36217738999662,372.375,231.91162654612484S341.48309553118935,261.6772670562703,331,267.5665851224766S302.9382066528776,275.8760519507625,289.625,278.3999055595743S261.8536858863278,284.85306625405923,248.25,283.25393164796867S220.2159848686676,266.2204653808486,206.875,268.6725133101701S175.78752459407386,292.4591484314734,165.5,298.4632260253197S136.3335857189224,312.5713825916124,124.125,316.9676514016977S95.24584923234819,324.2372396110744,82.75,328.26121019892565S54.41002768230648,340.4746741891338,41.375,343.6151853110131S6.812255802593394,347.4434989560734,0,348.19805281018165Z"></path><path opacity="0.85" id="path_506" class="layer" fill="red" d="M0,329.8325718336446C6.669436096332515,328.6037748998255,28.60440430922505,325.8205679364789,41.375,322.20951759001485S69.902949956182,309.91755373912775,82.75,306.43394396965596S111.98707475342954,304.2512929126804,124.125,299.77100388915915S157.38926829813872,282.6776564589597,165.5,275.88968626785993S194.37969288163708,234.5412454961037,206.875,230.51652057483548S234.67497748001514,247.52108110051935,248.25,249.23600068173252S276.27792096657515,248.61069339964862,289.625,246.17472413092582S322.90869030983976,233.40576685156884,331,226.61434920564403S366.39139186937416,183.55397782620213,372.375,176.7187483098906S407.3004014510619,138.96827526536654,413.75,132.08689518007066S447.238669196256,95.2532071903579,455.125,88.42888069448878S487.32000769879875,66.98688104097234,496.5,60.48033547741716S532.3580208225533,23.02120782070658,537.875,29.777780811350965S568.6572896795489,156.00205397053543,579.25,161.82318941847257S617.7379775346086,80.86322995997804,620.625,75.25235188376024S660.3661704652026,3.9321011609874787,662,1L662,8.417525533578328C660.2253863672988,11.432187421220094,623.6689186014787,72.98444253388618,620.625,78.70416894864002S589.9989228405857,169.62923911093333,579.25,163.91030401686095S543.6631669678986,41.48354770082335,537.875,34.677257038208666S505.4176876561241,60.01202120592142,496.5,66.60479167504315S462.9120640497362,89.01562804766054,455.125,95.85362667088731S420.23785727644304,132.38570054773578,413.75,139.26945482124927S378.52352813373534,176.79791221364397,372.375,183.65313301969866S339.3461665096723,224.78889093686507,331,231.5304820723999S303.04567674728366,248.26284610864352,289.625,250.49419901317032S261.85850603439417,254.86906388270012,248.25,253.29028506046333S219.3605286735768,231.27240228445186,206.875,235.31069689534536S173.74635944097105,273.29248854611575,165.5,280.054780804936S136.3736670813578,298.8211045396574,124.125,303.16848170607875S95.6310380258811,306.0000672198704,82.75,309.4249529332067S54.1005244662435,321.4871650376302,41.375,325.17053559406077S6.634835065937778,332.0607957915228,0,333.3767290940367Z"></path></g><g class="text_layers"><text class="label" style="font-weight: lighter; " font-size="18px" font-family="PT Sans Narrow" dy="6" opacity="1" pointer-events="none" text-anchor="middle" fill="#333333" x="496.5" y="351.51302333908626"><tspan x="496.5" dy="11px">Transportation</tspan></text><text class="label" style="font-weight: lighter; " font-size="18px" font-family="PT Sans Narrow" dy="6" opacity="1" pointer-events="none" text-anchor="middle" fill="#ffffff" x="496.5" y="257.7487035752895"><tspan x="496.5" dy="11px">Machinery</tspan><tspan x="496.5" dy="11px">/ Electrical</tspan></text><text class="label" style="font-weight: lighter; " font-size="18px" font-family="PT Sans Narrow" dy="6" opacity="1" pointer-events="none" text-anchor="middle" fill="#ffffff" x="496.5" y="97.01722250097612"><tspan x="496.5" dy="11px">Mineral</tspan><tspan x="496.5" dy="11px">Products</tspan></text></g></g></g></svg>