<svg width="748" height="520" style="z-index: 10; position: absolute; "><rect id="svgbg" fill="#ffffff" width="748" height="520"></rect><g class="titles"></g><clipPath id="clipping"><rect width="748" height="520"></rect></clipPath><g class="parent" width="748" height="520" clip-path="url(#clipping)" transform="translate(0,0)"><g class="axes_labels"><text class="x_axis_label" x="374" y="510" font-family="sans-serif" font-size="14px" font-weight="lighter" fill="#333" text-anchor="middle">Year</text><text class="y_axis_label" y="15" x="-242.5" transform="rotate(-90)" font-family="sans-serif" font-size="14px" font-weight="lighter" fill="#333" text-anchor="middle">Current</text></g><g class="chart" transform="translate(40,5)"><rect style="fill: #fafafa; " id="background" x="0" y="0" width="698" height="475" stroke-width="1" stroke="#ccc" shape-rendering="crispEdges"></rect><g transform="translate(0,475)" class="xaxis"><path class="domain" d="M0,0V0H698V0"></path></g><g class="yaxis"><path class="domain" d="M0,0H0V475H0"></path></g><clipPath id="path_clipping"><rect width="698" height="475" y="1" x="1"></rect></clipPath><g class="layers" clip-path="url(#path_clipping)"><path opacity="0.85" id="path_906" class="layer" fill="#7f7f7f" d="M0,446.6282840727221C6.803796538032575,445.9322568692093,27.504478790792252,442.6565357964397,41.25,442.4084162409297S68.7516963810805,442.54712982666354,82.5,442.69984643397305S110.02764276967349,444.20997194275117,123.75,444.82586475834114S151.265204433842,445.9456683939229,165,446.402647376502S192.50155704907056,447.4244625982206,206.25,447.5707739112423S233.7532364396327,447.49154255522683,247.5,447.2806146755901S275.00025910752925,446.3645967112135,288.75,446.3049086773192S316.2541620214219,446.2975031690399,330,446.05831606209534S357.5052016520392,441.67280281009954,371.25,441.40541608949593S398.75006504576095,444.423482488495,412.5,444.45338859125525S440.00041577140325,444.61030794343543,453.75,444.53469918779825S481.3203487677524,437.52271057617804,495,436.5417179118469S522.5144719226159,438.1726272272959,536.25,438.6184741734837S563.7500091938746,439.2308615614492,577.5,439.21961808818287S605.0142744072822,438.1082161101203,618.75,438.5510132887781S653.1694643897906,441.32805815478116,660,441.8791621357603L660,447.24632126782274C653.125,447.24632126782274,632.5,447.24632126782274,618.75,447.24632126782274S591.25,447.24632126782274,577.5,447.24632126782274S550,447.24632126782274,536.25,447.24632126782274S508.75,447.24632126782274,495,447.24632126782274S467.5,447.24632126782274,453.75,447.24632126782274S426.25,447.24632126782274,412.5,447.24632126782274S385,447.24632126782274,371.25,447.24632126782274S343.75,447.24632126782274,330,447.24632126782274S302.5,447.24632126782274,288.75,447.24632126782274S261.25,447.24632126782274,247.5,447.24632126782274S220,447.24632126782274,206.25,447.24632126782274S178.75,447.24632126782274,165,447.24632126782274S137.5,447.24632126782274,123.75,447.24632126782274S96.25,447.24632126782274,82.5,447.24632126782274S55,447.24632126782274,41.25,447.24632126782274S6.875,447.24632126782274,0,447.24632126782274Z"></path><path opacity="0.85" id="path_316" class="layer" fill="#f7b6d2" d="M0,443.4264775399341C6.755084292475481,442.5264549222628,27.512050919520433,438.3373634682484,41.25,437.9304790636017S68.75483126266447,438.1547581981904,82.5,438.4124528247109S110.05566623700118,440.2312696832918,123.75,441.1043745045042S151.28516518160836,442.97790913317306,165,443.6723763081479S192.5000617351641,445.2527262311887,206.25,445.2818613422306S233.75005557847783,445.26934249133313,247.5,445.2416983060272S275.00626266898905,444.0862277533114,288.75,443.79284664012175S316.358895102837,443.7485408663163,330,442.52975067904595S357.54267703179744,433.2067107305922,371.25,432.44186574095585S398.75760432500533,437.6031257735874,412.5,437.92639291244393S440.04819175048453,437.8617304012468,453.75,437.04913325360974S481.39253343278904,427.7034569244445,495,426.3107908045913S522.5058649001351,428.3216949590143,536.25,428.605610403828S563.7534627437632,428.4262445857011,577.5,428.20806865634734S605.149983852777,428.17592015921605,618.75,426.74771050388154S653.4769658435696,418.6810779748501,660,417.16586009629225L660,440.8791621357603C653.1694643897906,440.32805815478116,632.4857255927178,437.99381046743594,618.75,437.5510132887781S591.2499908061254,438.2083746149165,577.5,438.21961808818287S549.9855280773841,438.06432111967155,536.25,437.6184741734837S508.6796512322476,434.56072524751573,495,435.5417179118469S467.49958422859675,443.4590904321611,453.75,443.53469918779825S426.24993495423905,443.4832946940155,412.5,443.45338859125525S384.9947983479608,440.1380293688923,371.25,440.40541608949593S343.7458379785781,444.8191289551508,330,445.05831606209534S302.49974089247075,445.2452206434249,288.75,445.3049086773192S261.2467635603673,446.0696867959533,247.5,446.2806146755901S219.99844295092944,446.71708522426405,206.25,446.5707739112423S178.734795566158,445.85962635908106,165,445.402647376502S137.4723572303265,444.4417575739311,123.75,443.82586475834114S96.2483036189195,441.85256304128256,82.5,441.69984643397305S54.99552120920775,441.16029668541967,41.25,441.4084162409297S6.803796538032575,444.9322568692093,0,445.6282840727221Z"></path><path opacity="0.85" id="path_306" class="layer" fill="#e377c2" d="M0,440.0592590178753C6.703449066958957,438.986886441748,27.52396622820565,434.0339136357342,41.25,433.4603621927639S68.75089642618894,432.7641621682364,82.5,432.87518043933676S110.03914848618031,434.1159614617989,123.75,434.8485998999177S151.271695276769,436.73781583104585,165,437.28356244857054S192.51886196092374,437.6193376876178,206.25,438.12825436953307S233.7504644953951,440.42117320182336,247.5,440.3412570211926S275.0934318670167,438.77832448714463,288.75,437.64874108707824S317.10187037729577,436.83213314550704,330,433.5173881254335S357.5254015860199,417.03716236014327,371.25,416.446716285382S398.88408385045545,428.61697964949286,412.5,429.96815486566936S441.03175545817146,428.2560488765633,453.75,424.6336024346692S481.2691305207963,406.9827930250869,495,406.47027113860497S522.500143136012,405.9107580964394,536.25,405.9551213658937S563.7745725262649,408.6655731973938,577.5,408.08482503588544S607.0988486773359,407.1650827471664,618.75,402.2199838054854S655.6677494490093,373.93667471611803,660,370.6176646676997L660,416.16586009629225C653.4769658435696,417.6810779748501,632.3508050526319,424.32322063238695,618.75,425.74771050388154S591.2457491900744,426.966344501386,577.5,427.20806865634734S549.992762158865,427.92099577010487,536.25,427.605610403828S508.60746656721096,423.91812468473813,495,425.3107908045913S467.45180824951547,435.2365361059727,453.75,436.04913325360974S426.24239567499467,437.24966005130045,412.5,436.92639291244393S384.95732296820256,430.6770207513195,371.25,431.44186574095585S343.641104897163,440.3109604917756,330,441.52975067904595S302.49373733101095,442.4994655269321,288.75,442.79284664012175S261.2499444215222,444.2140541207213,247.5,444.2416983060272S219.9999382648359,444.31099645327254,206.25,444.2818613422306S178.71483481839164,443.3668434831227,165,442.6723763081479S137.44433376299884,440.9774793257166,123.75,440.1043745045042S96.24516873733553,437.6701474512314,82.5,437.4124528247109S54.98794908047957,436.523594658955,41.25,436.9304790636017S6.755084292475481,441.5264549222628,0,442.4264775399341Z"></path><path opacity="0.85" id="path_716" class="layer" fill="#9edae5" d="M0,432.93417193975876C5.226792486984531,429.99906740226425,27.988284801432556,412.3149398146728,41.25,409.7702406237295S68.76180211001525,416.7011493781245,82.5,417.10381514884364S110.07303957114877,411.1888312362147,123.75,412.1883107629394S151.2523529643242,423.3125723787828,165,423.13271765124824S192.53058734777133,410.46120109211,206.25,411.1089977006315S233.78331380482666,426.35217838188174,247.5,427.02816285416975S275.00268995235945,427.9360967662697,288.75,427.74379593658233S318.6744282819577,426.6191704040626,330,421.37912876467055S358.739076259908,386.0133359075161,371.25,382.07607942668227S398.8743988847751,394.11399987717004,412.5,395.4159252141707S441.66202139402674,394.63309094299507,453.75,390.15085053738704S481.2574177831371,364.39936954637653,495,364.080089896808S522.5091429311275,363.24830944706247,536.25,363.60275508437985S567.6086292585171,399.73389197718683,577.5,393.5559366074932S608.5418305890582,318.0878330368112,618.75,312.074879795852S655.7965929616182,341.6095887460165,660,344.9606770257485L660,369.6176646676997C655.6677494490093,372.93667471611803,630.4011513226641,396.2748848638044,618.75,401.2199838054854S591.2254274737351,406.50407687437706,577.5,407.08482503588544S549.999856863988,404.99948463534804,536.25,404.9551213658937S508.7308694792037,404.95774925212305,495,405.47027113860497S466.46824454182854,420.0111559927752,453.75,423.6336024346692S426.11591614954455,430.31933008184586,412.5,428.96815486566936S384.9745984139801,414.8562702106208,371.25,415.446716285382S342.89812962270423,429.20264310536,330,432.5173881254335S302.4065681329833,435.51915768701184,288.75,436.64874108707824S261.2495355046049,439.2613408405618,247.5,439.3412570211926S219.98113803907626,437.6371710514483,206.25,437.12825436953307S178.728304723231,436.8293090660952,165,436.28356244857054S137.46085151381968,434.5812383380365,123.75,433.8485998999177S96.24910357381106,431.9861987104371,82.5,431.87518043933676S54.97603377179435,431.8868107497936,41.25,432.4603621927639S6.703449066958957,437.986886441748,0,439.0592590178753Z"></path><path opacity="0.85" id="path_706" class="layer" fill="#17becf" d="M0,418.748038796591C4.2057737681513085,415.3974923236749,28.87650052238099,390.013061456794,41.25,385.8860615180221S68.7541711363357,390.99192055933025,82.5,391.2313693560229S110.19222651507206,385.7088286051346,123.75,387.32319025889876S151.36780552632868,399.7876129658556,165,401.054872941151S192.8327824345073,392.8793998498373,206.25,394.9924579005682S234.48890334773577,410.9470418885797,247.5,414.0476777707935S275.21283023678996,419.4476749615938,288.75,417.7502890166274S323.62802488640926,408.9300444399143,330,402.0734716106028S361.04173371094197,334.9889469202161,371.25,328.97604738286896S399.0825206327367,351.3668599043534,412.5,353.47910722153335S443.884642707656,350.7740867947048,453.75,344.58349810992485S488.0592479198779,298.1413474199922,495,291.26666185162185S522.7993345698267,260.8622342504857,536.25,262.868785807367S567.3250238055855,309.60513096122713,577.5,303.5738970811411S605.0538791074762,214.82580636765655,618.75,213.96677507045342S658.6752362136223,295.6878374327917,660,298.39943326212335L660,343.9606770257485C655.7965929616182,340.6095887460165,628.9581694109418,305.06192655489275,618.75,311.074879795852S587.3913707414829,386.3779812377996,577.5,392.5559366074932S549.9908570688725,362.95720072169723,536.25,362.60275508437985S508.7425822168629,362.7608102472394,495,363.080089896808S465.83797860597326,384.668610131779,453.75,389.15085053738704S426.1256011152249,395.7178505511714,412.5,394.4159252141707S383.760923740092,377.13882294584846,371.25,381.07607942668227S341.35394026857654,415.163314439896,330,420.37912876467055S302.49725998454073,426.54971424017623,288.75,426.74379593658233S261.21558106538527,426.7152404974481,247.5,426.02816285416975S219.96941265222867,410.756794309153,206.25,410.1089977006315S178.7476470356758,421.95286292371367,165,422.13271765124824S137.42696042885123,412.1877902896641,123.75,411.1883107629394S96.23819788998475,416.50648091956276,82.5,416.10381514884364S54.511715198567444,406.22554143278614,41.25,408.7702406237295S5.226792486984531,428.99906740226425,0,431.93417193975876Z"></path><path opacity="0.85" id="path_416" class="layer" fill="#2ca02c" d="M0,416.771470712978C4.049754170570351,413.3889345223927,28.977822697594785,386.5762721902347,41.25,382.3176219150416S68.75288040399406,387.9436036695883,82.5,388.14259426783656S110.12563990982342,382.2034719170297,123.75,383.5118156689281S151.35268815506984,394.88123307305335,165,396.0650477861815S192.86270970535713,388.46458376803207,206.25,390.66814908775837S234.38850727618743,406.7512511811371,247.5,409.6446546279161S275.4930470571284,416.23098273218864,288.75,413.674363551518S325.3739875739456,396.0360948037734,330,389.53935101228535S360.66839647929396,303.60208981105137,371.25,297.8118639656901S400.0161333668304,340.41985996812195,412.5,344.3955662061778S443.55054756521145,341.1943486282539,453.75,335.1765715462386S488.72305071403616,282.0206691214525,495,275.17173049247936S522.5536865782227,244.3012271615901,536.25,245.1587282997123S567.1452935100707,286.2662610680564,577.5,280.3369046321568S605.082470135502,196.8555451537152,618.75,197.91722450262563S658.780418113496,284.11915714278086,660,286.7454178860861L660,297.39943326212335C658.6752362136223,294.6878374327917,632.4461208925238,212.1077437732503,618.75,212.96677507045342S587.6749761944145,296.5426632010551,577.5,302.5738970811411S549.7006654301733,263.87533736424825,536.25,261.868785807367S501.9407520801221,283.3919762832515,495,290.26666185162185S463.615357292344,337.3929094251449,453.75,343.58349810992485S425.9174793672633,354.5913545387133,412.5,352.47910722153335S381.45826628905803,321.9631478455218,371.25,327.97604738286896S336.37197511359074,394.21689878129126,330,401.0734716106028S302.28716976321004,415.052903071661,288.75,416.7502890166274S260.51109665226426,416.1483136530073,247.5,413.0476777707935S219.6672175654927,396.1055159512991,206.25,393.9924579005682S178.63219447367132,401.32213291644644,165,400.054872941151S137.30777348492794,387.9375519126629,123.75,386.32319025889876S96.2458288636643,390.4708181527156,82.5,390.2313693560229S53.623499477619006,380.75906157925016,41.25,384.8860615180221S4.2057737681513085,414.3974923236749,0,417.748038796591Z"></path><path opacity="0.85" id="path_406" class="layer" fill="#98df8a" d="M0,416.0217977612972C4.045435437769135,412.6384827074625,28.962893353005363,385.7628868466555,41.25,381.52322569963485S68.75461767637358,387.3032703847797,82.5,387.5552063433122S110.12436853198965,381.73358132362995,123.75,383.0353492688139S151.3505388926859,394.26565285055165,165,395.43710566884545S192.86699434527978,387.8996505611282,206.25,390.1158381430196S234.38127143626176,406.2211146330132,247.5,409.09887046392714S275.49594018912734,415.6841422515532,288.75,413.1203129028428S325.435114779943,395.28841592242105,330,388.8131557188857S360.6941426954745,301.9012224824468,371.25,296.09459570748345S400.05356273029946,339.4030895878073,412.5,343.4310806193008S443.5818127503592,340.17087591531987,453.75,334.135932440953S488.7659385315962,280.5104317956483,495,273.66537351987625S522.5410377229023,242.80009812069753,536.25,243.5501545153808S567.1336760338069,284.101706909307,577.5,278.17918363260424S605.1339920573225,195.06525823926026,618.75,196.4159754253354S658.8053354546915,283.75822585738274,660,286.3632393646757L660,285.7454178860861C658.780418113496,283.11915714278086,632.417529864498,197.97890385153605,618.75,196.91722450262563S587.8547064899293,273.4075481962572,577.5,279.3369046321568S549.9463134217773,245.01622943783448,536.25,244.1587282997123S501.27694928596384,267.3227918635062,495,274.17173049247936S463.94945243478855,328.1587944642233,453.75,334.1765715462386S424.9838666331696,347.3712724442337,412.5,343.3955662061778S381.83160352070604,291.0216381203289,371.25,296.8118639656901S334.6260124260544,382.0426072207973,330,388.53935101228535S302.0069529428716,410.1177443708474,288.75,412.674363551518S260.6114927238126,411.53805807469513,247.5,408.6446546279161S219.63729029464287,391.87171440748466,206.25,389.66814908775837S178.64731184493016,396.2488624993096,165,395.0650477861815S137.3743600901766,383.8201594208265,123.75,382.5118156689281S96.24711959600594,387.3415848660848,82.5,387.14259426783656S53.52217730240521,377.05897163984855,41.25,381.3176219150416S4.049754170570351,412.3889345223927,0,415.771470712978Z"></path><path opacity="0.85" id="path_426" class="layer" fill="#3ab11a" d="M0,415.37013572343193C4.01087329694892,411.9807922306083,28.989629673555168,384.7858571672748,41.25,380.5122858917434S68.75820242878933,386.2775535302001,82.5,386.61328573898453S110.1288022918789,381.2033282139308,123.75,382.5278815284265S151.3336189765472,393.56675198095394,165,394.6357556265442S192.90998877549657,386.642504360022,206.25,388.9811481693792S234.20382821326135,406.64241409647593,247.5,409.09887046392714S275.4048082247593,414.91428640406644,288.75,412.5900137454467S325.63122886728155,393.2443787342383,330,386.8424694983303S360.7356747620683,297.52892213505913,371.25,291.69617519964754S400.17444648430836,336.88606460475785,412.5,341.0761829053052S443.639883246718,337.6600127259116,453.75,331.59374166432576S488.7845982955578,277.50008861956906,495,270.65680321791456S522.5004410800327,240.83741689969358,536.25,240.7595409990669S567.2053895620663,276.15375024645397,577.5,270.1895328247988S605.3737128372401,190.72706678785605,618.75,192.96288659887225S658.8284817406765,281.3943390043413,660,283.97924383835766L660,285.3632393646757C658.8053354546915,282.75822585738274,632.3660079426775,196.76669261141055,618.75,195.4159754253354S587.8663239661931,271.2566603559015,577.5,277.17918363260424S549.9589622770977,243.30021091006407,536.25,242.5501545153808S501.2340614684038,265.8203152441042,495,272.66537351987625S463.9181872496408,327.10098896658616,453.75,333.135932440953S424.94643726970054,346.45907165079433,412.5,342.4310806193008S381.8058573045255,289.2879689325201,371.25,295.09459570748345S334.564885220057,381.33789551535034,330,387.8131557188857S302.00405981087266,409.55648355413234,288.75,412.1203129028428S260.6187285637382,410.9766262948411,247.5,408.09887046392714S219.63300565472022,391.3320257249109,206.25,389.1158381430196S178.6494611073141,395.60855848713925,165,394.43710566884545S137.37563146801034,383.33711721399783,123.75,382.0353492688139S96.24538232362642,386.8071423018447,82.5,386.5552063433122S53.53710664699464,376.2835645526142,41.25,380.52322569963485S4.045435437769135,411.6384827074625,0,415.0217977612972Z"></path><path opacity="0.85" id="path_126" class="layer" fill="#D1FF00" d="M0,413.01507933717903C4.016200199113179,409.6266413003328,29.083143298416537,382.6015987637715,41.25,378.2127631949781S68.75257355471193,383.44372680730214,82.5,383.25563174063313S110.1235464490243,375.7864839517168,123.75,377.0839815235903S151.33710862505677,390.0202584378489,165,391.11120100369345S192.60993054813318,382.4468446325359,206.25,383.67136915716503S234.56173872753027,395.27680743323356,247.5,398.5175616265917S275.8830878468521,407.7066797570979,288.75,404.3358321264627S326.0308293046444,383.13509115527415,330,376.904378431013S361.337840982573,280.99699474918816,371.25,274.8292325859022S399.8014024579197,321.91546107666784,412.5,325.5694091698783S442.8488606035903,323.0760453361644,453.75,317.5032698552502S489.44776861582204,256.5006721973063,495,249.7541243253205S522.5000480876471,217.28276541116549,536.25,217.25705154653014S567.9372916114049,255.92770347712812,577.5,249.59984059793456S605.0115602590561,163.06343660538556,618.75,162.66491443231132S658.6779967108826,244.4972528003983,660,247.2066955320767L660,282.97924383835766C658.8284817406765,280.3943390043413,632.1262871627599,194.19870640988844,618.75,191.96288659887225S587.7946104379337,263.2253154031436,577.5,269.1895328247988S549.9995589199673,239.68166509844022,536.25,239.7595409990669S501.2154017044422,262.81351781626006,495,269.65680321791456S463.860116753282,324.5274706027399,453.75,330.59374166432576S424.82555351569164,344.2663012058525,412.5,340.0761829053052S381.7643252379317,284.86342826423595,371.25,290.69617519964754S334.36877113271845,379.44056026242225,330,385.8424694983303S302.0951917752407,409.26574108682695,288.75,411.5900137454467S260.7961717867386,410.55532683137835,247.5,408.09887046392714S219.59001122450343,390.3197919787364,206.25,387.9811481693792S178.6663810234528,394.7047592721345,165,393.6357556265442S137.3711977081211,382.85243484292226,123.75,381.5278815284265S96.24179757121067,385.94901794776894,82.5,385.61328573898453S53.51037032644483,375.23871461621195,41.25,379.5122858917434S4.01087329694892,410.9807922306083,0,414.37013572343193Z"></path><path opacity="0.85" id="path_106" class="layer" fill="#FFE999" d="M0,412.72576939096837C3.945138239834787,409.32595915104946,29.056259315418963,381.53388498318026,41.25,377.17766844469384S68.7556710459074,382.37697872851743,82.5,382.09779291142576S110.01680969807117,374.95573065670686,123.75,375.43619999238746S151.27119046496847,384.4447676788618,165,384.98413754964724S192.66847582733322,377.16474830162736,206.25,378.6774143326587S234.67345955840437,390.7310932085862,247.5,394.17271947708946S275.74896040704397,403.9343307420749,288.75,400.8138718166066S326.2275282820729,380.5065305875817,330,374.3713905517767S361.63231055377,272.9490207318924,371.25,266.6447936102272S400.04755850868764,316.27441126063746,412.5,320.2940843084098S443.3224776321757,317.23914522328334,453.75,311.3531270593538S489.5048295887328,248.84972214557908,495,242.11461299233906S522.5159673933308,209.7694083355895,536.25,210.23769959180638S567.9983206062893,251.2810656521651,577.5,244.9276271844804S605.2849911344912,157.03178467847914,618.75,155.07285431919763S658.492992144559,230.08105345093145,660,232.92527677721856L660,246.2066955320767C658.6779967108826,243.4972528003983,632.4884397409439,161.26639225923708,618.75,161.66491443231132S587.0627083885951,242.271977718741,577.5,248.59984059793456S549.9999519123529,216.2313376818948,536.25,216.25705154653014S500.55223138417796,242.0075764533347,495,248.7541243253205S464.6511393964097,310.93049437433604,453.75,316.5032698552502S425.1985975420803,328.2233572630888,412.5,324.5694091698783S381.162159017427,267.6614704226163,371.25,273.8292325859022S333.9691706953556,369.6736657067519,330,375.904378431013S301.6169121531479,399.96498449582754,288.75,403.3358321264627S260.43826127246973,400.75831581994987,247.5,397.5175616265917S219.89006945186682,383.8958936817942,206.25,382.67136915716503S178.66289137494323,391.202143569538,165,390.11120100369345S137.3764535509757,377.3814790954638,123.75,376.0839815235903S96.24742644528807,382.0675366739641,82.5,382.25563174063313S53.41685670158346,372.8239276261847,41.25,377.2127631949781S4.016200199113179,408.6266413003328,0,412.01507933717903Z"></path><path opacity="0.85" id="path_116" class="layer" fill="#FFC41C" d="M0,412.72576939096837C3.9061209585651024,409.32036183133715,27.776030518379187,378.6920072550725,41.25,376.76347756107316S68.75577526552519,379.0333348699338,82.5,378.75159643223054S110.04773680864838,371.08902678360425,123.75,371.89779270524986S151.25067824447197,383.5245296221332,165,383.62109774044313S192.54974223957302,371.65171106697244,206.25,372.4772299969379S234.73240443496567,385.05059316108736,247.5,388.5921948477452S275.78954996778594,398.56078836659185,288.75,395.3618943537452S326.55195412973023,374.1895728628587,330,368.2295719909859S361.63178137415235,259.06335911712154,371.25,252.7593622444381S400.97282374714706,309.0953110624285,412.5,314.1572159521307S444.52328509982067,309.25336717802924,453.75,302.79309922474164S489.75046635433904,241.06073361470567,495,234.38065246767522S522.5045173991346,197.56188365692435,536.25,197.81106999524346S567.8206088059022,242.15328464625597,577.5,235.87626186228687S609.5547506961015,150.78198755694427,618.75,144.31035189292868S655.85750785228,174.44815910392464,660,177.81258956414422L660,231.92527677721856C658.492992144559,229.08105345093145,632.2150088655088,152.11392395991612,618.75,154.07285431919763S587.0016793937107,237.5741887167957,577.5,243.9276271844804S549.9840326066692,209.70599084802325,536.25,209.23769959180638S500.4951704112672,234.37950383909904,495,241.11461299233906S464.1775223678243,304.4671088954243,453.75,310.3531270593538S424.95244149131236,323.3137573561822,412.5,319.2940843084098S380.86768944623,259.34056648856205,371.25,265.6447936102272S333.7724717179271,367.2362505159717,330,373.3713905517767S301.75103959295603,396.6934128911383,288.75,399.8138718166066S260.3265404415956,396.61434574559274,247.5,393.17271947708946S219.83152417266678,379.1900803636901,206.25,377.6774143326587S178.72880953503153,384.5235074204327,165,383.98413754964724S137.48319030192883,374.91666932806805,123.75,374.43619999238746S96.2443289540926,380.8186070943341,82.5,381.09779291142576S53.44374068458104,371.8214519062074,41.25,376.17766844469384S3.945138239834787,408.32595915104946,0,411.72576939096837Z"></path><path opacity="0.85" id="path_606" class="layer" fill="#D66011" d="M0,412.72576939096837C3.8772298615942336,409.3165108353844,27.783414419938325,378.4081527216832,41.25,376.4545344015595S68.75593727035871,378.7552972055935,82.5,378.4696361892594S110.03708676052905,370.83353748278705,123.75,371.5466766904232S151.250020583045,382.74322051063876,165,382.76004360324634S192.54017528396525,370.90545901130326,206.25,371.64761539716864S234.60494063008184,383.9057130299156,247.5,387.2260308133003S275.79262871612474,396.0950857930486,288.75,392.89034172134967S326.54461793568555,372.78553528624883,330,366.8213221634691S361.65888549044803,256.80572339356536,371.25,250.49000118854389S400.97352336768324,307.43275403374264,412.5,312.49530182502434S444.6454037102733,307.4689435120005,453.75,300.9655193842939S489.8238737682451,237.0672145951814,495,230.4054240761416S522.5091606634891,194.4313806158667,536.25,194.78616957457152S567.9313567268722,238.86091579891112,577.5,232.5355770003065S614.7430020277452,146.4978701494674,618.75,140.24965525488756S656.1308929658054,107.3015036442385,660,103.89120723218957L660,176.81258956414422C655.85750785228,173.44815910392464,627.9452493038985,136.83871622891309,618.75,143.31035189292868S587.1793911940978,228.59923907831777,577.5,234.87626186228687S549.9954826008654,197.06025633356256,536.25,196.81106999524346S500.24953364566096,226.70057132064477,495,233.38065246767522S462.97671490017933,295.33283127145404,453.75,301.79309922474164S424.02717625285294,318.2191208418329,412.5,313.1572159521307S380.86821862584765,245.45536537175468,371.25,251.7593622444381S333.44804587026977,361.2695711191131,330,367.2295719909859S301.71045003221406,391.1630003408985,288.75,394.3618943537452S260.26759556503436,391.133796534403,247.5,387.5921948477452S219.95025776042698,372.3027489269034,206.25,371.4772299969379S178.74932175552803,382.7176658587531,165,382.62109774044313S137.45226319135162,371.70655862689546,123.75,370.89779270524986S96.24422473447481,377.4698579945273,82.5,377.75159643223054S54.72396948162081,373.8349478670738,41.25,375.76347756107316S3.9061209585651024,408.32036183133715,0,411.72576939096837Z"></path><path opacity="0.85" id="path_616" class="layer" fill="#5E1F05" d="M0,411.2487035795561C3.8419666210700445,407.8350818954147,27.58207108228993,375.6568329570901,41.25,374.59770986748333S68.75159988395005,375.82177744739914,82.5,375.67346748588415S110.04645142931014,368.8473951499585,123.75,369.64523562131194S151.25005717960482,380.4486975826903,165,380.4767371314882S192.5656628493432,368.86555348592213,206.25,369.8134736137203S234.67277223707148,382.75111144463943,247.5,386.1915488671517S275.87791156699024,395.3027286024006,288.75,391.94109874076196S326.742824930708,370.49224276336196,330,364.64613570218467S362.3132679869048,250.4253985684738,371.25,243.86682508743553S401.4115535483189,298.66771450294505,412.5,304.10025479260844S446.9507968483278,295.52626531438995,453.75,288.65168315706694S491.1670705753053,217.84106849187287,495,211.6757273322239S522.5060853320198,156.2380358901514,536.25,155.94883650563156S567.401825256765,216.01238734340922,577.5,209.93976273994718S615.6289993665071,112.09635947900158,618.75,106.33674892304691S657.1242921542005,61.08247908937386,660,57.691196761775814L660,102.89120723218957C656.1308929658054,106.3015036442385,622.7569979722548,133.00144036030773,618.75,139.24965525488756S587.0686432731278,225.21023820170186,577.5,231.5355770003065S549.9908393365109,194.14095853327635,536.25,193.78616957457152S500.1761262317549,222.7436335571018,495,229.4054240761416S462.8545962897267,293.46209525658725,453.75,299.9655193842939S424.02647663231676,316.55784961630604,412.5,311.49530182502434S380.84111450955197,243.1742789835224,371.25,249.49000118854389S333.45538206431445,359.8571090406894,330,365.8213221634691S301.70737128387526,388.68559764965073,288.75,391.89034172134967S260.39505936991816,389.54634859668505,247.5,386.2260308133003S219.95982471603475,371.389771783034,206.25,370.64761539716864S178.749979416955,381.7768666958539,165,381.76004360324634S137.46291323947094,371.2598158980594,123.75,370.5466766904232S96.24406272964129,377.18397517292533,82.5,377.4696361892594S54.716585580061675,373.5009160814358,41.25,375.4545344015595S3.8772298615942336,408.3165108353844,0,411.72576939096837Z"></path><path opacity="0.85" id="path_206" class="layer" fill="#330000" d="M0,407.63756818969154C3.691205334897487,404.2094433592566,31.714247997156292,375.6667931792434,41.25,369.3275484466776S68.82771402652145,353.823424243603,82.5,352.7926340638129S110.04682333086139,353.30335718589976,123.75,354.1043742737519S151.26332158872464,365.0235264789485,165,364.59574805471743S192.57085275175524,350.55073240527037,206.25,351.53521461648756S235.54176103135143,365.9043809086972,247.5,370.5332367703127S275.2536693586863,385.3200323056124,288.75,383.4697335355754S326.6879780601694,364.86694442883464,330,358.9872495096444S362.9461713416352,240.68590261838713,371.25,233.96101796026582S400.92078612859103,287.160754959137,412.5,292.1743361993328S449.22748230673153,276.141950682051,453.75,269.68196213743926S492.1576791773412,179.89893830457694,495,174.33089343652506S522.6308578053703,109.40123059318981,536.25,108.06625079610882S564.6911479032269,169.7160873510872,577.5,166.24405274676343S615.2463789516127,91.69498147933133,618.75,85.70336826045423S657.8204064366143,28.35820860515709,660,25.159134106692875L660,56.691196761775814C657.1242921542005,60.08247908937386,621.8710006334929,99.57713836709225,618.75,105.33674892304691S587.598174743235,202.86713813648515,577.5,208.93976273994718S549.9939146679802,154.65963712111173,536.25,154.94883650563156S498.8329294246947,204.5103861725749,495,210.6757273322239S460.5492031516722,280.77710099974394,453.75,287.65168315706694S423.5884464516811,308.53279508227183,412.5,303.10025479260844S380.1867320130952,236.30825160639725,371.25,242.86682508743553S333.257175069292,357.8000286410074,330,363.64613570218467S301.62208843300976,387.57946887912334,288.75,390.94109874076196S260.32722776292854,388.631986289664,247.5,385.1915488671517S219.9343371506568,369.7613937415185,206.25,368.8134736137203S178.74994282039518,379.50477668028617,165,379.4767371314882S137.45354857068986,369.44307609266536,123.75,368.64523562131194S96.24840011604995,374.52515752436915,82.5,374.67346748588415S54.91792891771007,372.53858677787656,41.25,373.59770986748333S3.8419666210700445,406.8350818954147,0,410.2487035795561Z"></path><path opacity="0.85" id="path_506" class="layer" fill="red" d="M0,406.3188222704668C3.608196521005453,402.88556303939833,31.96098180713263,373.50600496937216,41.25,367.06875857324087S69.09790865887678,351.3060354903554,82.5,349.1467060517022S110.32036827360342,350.1413647462497,123.75,352.2155942251925S151.255371711332,363.6569633269801,165,363.3852425594032S192.55754629492557,349.69696698623784,206.25,350.5846324520339S235.54798616619533,364.0979364458335,247.5,368.73361930074884S275.25239429564095,384.4286381462553,288.75,382.5829082947897S326.82422132022646,363.2174346199669,330,357.4224897001267S362.94857996361964,238.372016953737,371.25,231.64662098919985S400.9222755294585,285.570131191419,412.5,290.5851095118278S449.3771556565346,273.7856180158046,453.75,267.38211568735403S492.2390987923391,175.28198405225237,495,169.7738250016372S522.5882687803481,103.88793729891889,536.25,102.78980053503045S564.9938130050996,167.0864620345071,577.5,163.14243388698281S615.9223243570049,82.32950109369668,618.75,76.77209247553702S658.4282835667534,3.8870846769766554,660,1.0000000000000568L660,24.159134106692875C657.8204064366143,27.35820860515709,622.2536210483873,78.71175504157712,618.75,84.70336826045423S590.3088520967731,161.77201814243966,577.5,165.24405274676343S549.8691421946297,105.73127099902783,536.25,107.06625079610882S497.8423208226588,167.76284856847317,495,173.33089343652506S458.27251769326847,262.2219735928275,453.75,268.68196213743926S424.07921387140897,296.1879174395286,412.5,291.1743361993328S379.5538286583648,226.2361333021445,371.25,232.96101796026582S333.3120219398306,352.1075545904542,330,357.9872495096444S302.2463306413137,380.6194347655384,288.75,382.4697335355754S259.4582389686486,374.16209263192826,247.5,369.5332367703127S219.92914724824476,351.51969682770476,206.25,350.53521461648756S178.73667841127536,363.16796963048637,165,363.59574805471743S137.4531766691386,353.905391361604,123.75,353.1043742737519S96.17228597347855,350.7618438840228,82.5,351.7926340638129S50.78575200284371,361.9883037141118,41.25,368.3275484466776S3.691205334897487,403.2094433592566,0,406.63756818969154Z"></path></g><g class="text_layers"><text class="label" style="font-weight: lighter; " font-size="18px" font-family="PT Sans Narrow" dy="6" opacity="1" pointer-events="none" text-anchor="middle" fill="#333333" x="495" y="376.7751805177065"><tspan x="495" dy="11px">Transportation</tspan></text><text class="label" style="font-weight: lighter; " font-size="18px" font-family="PT Sans Narrow" dy="6" opacity="1" pointer-events="none" text-anchor="middle" fill="#ffffff" x="577.5" y="334.56491684431717"><tspan x="577.5" dy="11px">Machinery</tspan><tspan x="577.5" dy="11px">/ Electrical</tspan></text></g></g></g></svg>