<svg width="748" height="520" style="z-index: 10; position: absolute; "><rect id="svgbg" fill="#ffffff" width="748" height="520"></rect><g class="titles"></g><clipPath id="clipping"><rect width="748" height="520"></rect></clipPath><g class="parent" width="748" height="520" clip-path="url(#clipping)" transform="translate(0,0)"><g class="axes_labels"><text class="x_axis_label" x="374" y="510" font-family="sans-serif" font-size="14px" font-weight="lighter" fill="#333" text-anchor="middle">Year</text><text class="y_axis_label" y="15" x="-242.5" transform="rotate(-90)" font-family="sans-serif" font-size="14px" font-weight="lighter" fill="#333" text-anchor="middle">Current</text></g><g class="chart" transform="translate(40,5)"><rect style="fill: #fafafa; " id="background" x="0" y="0" width="698" height="475" stroke-width="1" stroke="#ccc" shape-rendering="crispEdges"></rect><g transform="translate(0,475)" class="xaxis"><path class="domain" d="M0,0V0H698V0"></path></g><g class="yaxis"><path class="domain" d="M0,0H0V475H0"></path></g><clipPath id="path_clipping"><rect width="698" height="475" y="1" x="1"></rect></clipPath><g class="layers" clip-path="url(#path_clipping)"><path opacity="0.85" id="path_906" class="layer" fill="#7f7f7f" d="M0,448.24632126782274C6.96875,448.24632126782274,27.875,448.24632126782274,41.8125,448.24632126782274S69.68765062118167,448.09783349215377,83.625,448.05201580961926S111.50000391936896,447.9788031549208,125.4375,447.9714122017007S153.31250035431924,448.00544784375074,167.25,448.00767007782804S195.12500072912536,448.01474383335056,209.0625,448.0115560152644S236.93750009360784,447.95122557159254,250.875,447.95008335477485S278.7500002005116,448.00303099969085,292.6875,448.00470271431226S320.5625126707353,448.0313855136866,334.5,448.0180964876449S362.37500697736806,447.4739041791732,376.3125,447.46404278887826S404.1878249999991,447.89162594791895,418.125,447.9589281162544S446.0001366060123,447.9114992346215,459.9375,447.8678652153781S487.81259009535677,447.66168563479084,501.75,447.69712143474084S529.6256011110075,447.9889520317102,543.5625,448.08048138948016S571.4375,448.24632126782274,585.375,448.24632126782274S613.25,448.24632126782274,627.1875,448.24632126782274S662.0314944719929,448.03993886326276,669,447.9986641199719L669,447.24632126782274C662.03125,447.24632126782274,641.125,447.24632126782274,627.1875,447.24632126782274S599.3125,447.24632126782274,585.375,447.24632126782274S557.5,447.24632126782274,543.5625,447.24632126782274S515.6875,447.24632126782274,501.75,447.24632126782274S473.875,447.24632126782274,459.9375,447.24632126782274S432.0625,447.24632126782274,418.125,447.24632126782274S390.25,447.24632126782274,376.3125,447.24632126782274S348.4375,447.24632126782274,334.5,447.24632126782274S306.625,447.24632126782274,292.6875,447.24632126782274S264.8125,447.24632126782274,250.875,447.24632126782274S223,447.24632126782274,209.0625,447.24632126782274S181.1875,447.24632126782274,167.25,447.24632126782274S139.375,447.24632126782274,125.4375,447.24632126782274S97.5625,447.24632126782274,83.625,447.24632126782274S55.75,447.24632126782274,41.8125,447.24632126782274S6.96875,447.24632126782274,0,447.24632126782274Z"></path><path opacity="0.85" id="path_316" class="layer" fill="#f7b6d2" d="M0,447.9230236775964C6.968137647139688,447.85770171330205,27.87505017172635,447.55750108590473,41.8125,447.5310574492631S69.68752458623831,447.544825229228,83.625,447.56333657958197S111.50000638223842,447.7734174428809,125.4375,447.78284890126764S153.31252429226666,447.82192596622497,167.25,447.8035256163234S195.1250031282289,447.32085332771885,209.0625,447.31425032228043S236.93778933909923,447.70040497660005,250.875,447.76390757480067S278.750147649727,447.8873136003984,292.6875,447.84195010990317S320.5646340431361,447.5593947030998,334.5,447.3869456611499S362.3750433816998,446.83168664317253,376.3125,446.8070974065225S404.1894722748446,446.80526056855797,418.125,446.6394754945058S446.0064738307153,442.06713268184245,459.9375,441.76682100189896S487.83479747867426,444.27974569541965,501.75,444.8367680751022S529.635249671577,445.1329108499685,543.5625,445.5107332180676S571.4391407144353,447.52523822789203,585.375,447.3740272312713S613.4478960300621,446.2523034420544,627.1875,444.60336042294307S662.2354961346261,438.5132924387304,669,437.3378675082621L669,446.9986641199719C662.0314944719929,447.03993886326276,641.125,447.24632126782274,627.1875,447.24632126782274S599.3125,447.24632126782274,585.375,447.24632126782274S557.4993988889925,447.1720107472501,543.5625,447.08048138948016S515.6874099046432,446.73255723469083,501.75,446.69712143474084S473.8748633939877,446.82423119613475,459.9375,446.8678652153781S432.0621750000009,447.0262302845899,418.125,446.9589281162544S390.24999302263194,446.45418139858333,376.3125,446.46404278887826S348.4374873292647,447.00480746160326,334.5,447.0180964876449S306.6249997994884,447.00637442893367,292.6875,447.00470271431226S264.8124999063922,446.94894113795715,250.875,446.95008335477485S222.99999927087464,447.0083681971782,209.0625,447.0115560152644S181.18749964568076,447.00989231190533,167.25,447.00767007782804S139.37499608063104,446.96402124848055,125.4375,446.9714122017007S97.56234937881833,447.00619812708476,83.625,447.05201580961926S55.75,447.24632126782274,41.8125,447.24632126782274S6.96875,447.24632126782274,0,447.24632126782274Z"></path><path opacity="0.85" id="path_306" class="layer" fill="#e377c2" d="M0,447.9230236775964C6.968137647139688,447.85770171330205,27.87505017172635,447.55750108590473,41.8125,447.5310574492631S69.68752458623831,447.544825229228,83.625,447.56333657958197S111.50000638223842,447.7734174428809,125.4375,447.78284890126764S153.31252429226666,447.82192596622497,167.25,447.8035256163234S195.1250031282289,447.32085332771885,209.0625,447.31425032228043S236.93778933909923,447.70040497660005,250.875,447.76390757480067S278.750147649727,447.8873136003984,292.6875,447.84195010990317S320.567175389183,447.64217375026624,334.5,447.3869456611499S362.38007026074314,446.5758515429104,376.3125,446.31006769922675S404.227958165972,446.26226635915924,418.125,445.5124338278292S446.01211827439283,441.4189999987949,459.9375,441.0082061371366S487.8359694068707,442.4740766739957,501.75,443.0455257488928S529.6622413795335,443.7231946480341,543.5625,444.4426839161254S571.4382126938309,447.4736899742348,585.375,447.3740272312713S613.7744956309235,446.4970460445847,627.1875,443.8446768792649S662.6461313941476,432.8140922723763,669,430.83751047882527L669,436.3378675082621C662.2354961346261,437.5132924387304,640.9271039699379,441.9544174038317,627.1875,443.60336042294307S599.3108592855647,446.2228162346506,585.375,446.3740272312713S557.489750328423,444.8885555861668,543.5625,444.5107332180676S515.6652025213258,444.3937904547848,501.75,443.8367680751022S473.8685261692847,440.46650932195547,459.9375,440.76682100189896S432.0605277251554,445.47369042045364,418.125,445.6394754945058S390.2499566183002,445.7825081698724,376.3125,445.8070974065225S348.4353659568639,446.2144966192,334.5,446.3869456611499S306.624852350273,446.79658661940795,292.6875,446.84195010990317S264.8122106609008,446.8274101730013,250.875,446.76390757480067S222.9999968717711,446.307647316842,209.0625,446.31425032228043S181.18747570773334,446.7851252664218,167.25,446.8035256163234S139.37499361776156,446.7922803596544,125.4375,446.78284890126764S97.56247541376169,446.5818479299359,83.625,446.56333657958197S55.74994982827365,446.5046138126214,41.8125,446.5310574492631S6.968137647139688,446.85770171330205,0,446.9230236775964Z"></path><path opacity="0.85" id="path_716" class="layer" fill="#9edae5" d="M0,447.9230236775964C6.918478501561788,447.333276035646,27.875257842381778,444.4187729905091,41.8125,444.35882624986937S69.69385812791532,447.86095375319456,83.625,447.56333657958197S111.52240953153564,443.13072621549793,125.4375,442.5723082191239S153.3364928852144,442.799400673527,167.25,443.3771767366646S195.12566646326925,446.8077017098053,209.0625,446.90407799133766S236.93754457780744,446.9787039790096,250.875,447.0036298933207S278.7500021902409,447.8474751870619,292.6875,447.84195010990317S320.567175389183,447.22570751427514,334.5,446.9704794251588S362.39606387698495,446.85148629750705,376.3125,446.31006769922675S404.24329909926064,444.597156804235,418.125,443.7170508978426S446.00579045079695,441.29223233075663,459.9375,441.0082061371366S487.8359694068707,441.4407363606281,501.75,442.0121854355252S529.682063558608,443.5527024003747,543.5625,444.4426839161254S571.4382126938309,447.4736899742348,585.375,447.3740272312713S613.8442521811248,446.6605700092782,627.1875,443.8446768792649S662.7444740990081,431.8384682260206,669,429.7262201760613L669,429.83751047882527C662.6461313941476,431.8140922723763,640.6005043690765,440.1923077139451,627.1875,442.8446768792649S599.3117873061691,446.27436448830787,585.375,446.3740272312713S557.4627586204665,444.1621731842167,543.5625,443.4426839161254S515.6640305931294,442.61697482379,501.75,442.0455257488928S473.86288172560717,439.5974122754783,459.9375,440.0082061371366S432.022041834028,443.7626012964992,418.125,444.5124338278292S390.24492973925686,445.0442838555431,376.3125,445.31006769922675S348.432824610817,446.1317175720336,334.5,446.3869456611499S306.624852350273,446.79658661940795,292.6875,446.84195010990317S264.8122106609008,446.8274101730013,250.875,446.76390757480067S222.9999968717711,446.307647316842,209.0625,446.31425032228043S181.18747570773334,446.7851252664218,167.25,446.8035256163234S139.37499361776156,446.7922803596544,125.4375,446.78284890126764S97.56247541376169,446.5818479299359,83.625,446.56333657958197S55.74994982827365,446.5046138126214,41.8125,446.5310574492631S6.968137647139688,446.85770171330205,0,446.9230236775964Z"></path><path opacity="0.85" id="path_706" class="layer" fill="#17becf" d="M0,447.9230236775964C6.918478501561788,447.333276035646,27.875257842381778,444.4187729905091,41.8125,444.35882624986937S69.69385812791532,447.86095375319456,83.625,447.56333657958197S111.52330015686557,443.1416965216065,125.4375,442.5723082191239S153.33560234856594,442.81020648645,167.25,443.3771767366646S195.12954221264937,446.4890632143199,209.0625,446.74063121130075S236.93791904243372,446.92720850676346,250.875,447.0036298933207S278.75009731780847,447.8787788688365,292.6875,447.84195010990317S320.5719324391404,447.14511358689117,334.5,446.78265579678146S362.39559406245206,446.20108618662556,376.3125,445.66573057582355S404.23060005446183,444.3396224570397,418.125,443.5657688569532S446.00499730530004,441.2720715754934,459.9375,441.0082061371366S487.8214289942112,441.0962316727262,501.75,441.44889033188707S529.6946200913525,442.85564299077623,543.5625,443.83823296940653S571.4388855449483,447.5129844656351,585.375,447.3740272312713S614.1696550809957,446.4644539577622,627.1875,443.0044066714703S663.1062541923101,427.6642200330564,669,425.1471182370066L669,428.7262201760613C662.7444740990081,430.8384682260206,640.5307478188752,440.0287837492516,627.1875,442.8446768792649S599.3117873061691,446.27436448830787,585.375,446.3740272312713S557.442936441392,444.33266543187614,543.5625,443.4426839161254S515.6640305931294,441.58363451042237,501.75,441.0121854355252S473.86920954920305,439.72417994351656,459.9375,440.0082061371366S432.00670090073936,441.83694499145025,418.125,442.7170508978426S390.22893612301505,444.76864910094645,376.3125,445.31006769922675S348.432824610817,445.7152513360425,334.5,445.9704794251588S306.6249978097591,446.83642503274444,292.6875,446.84195010990317S264.81245542219256,446.0285558076318,250.875,446.0036298933207S222.99933353673075,446.00045427287,209.0625,445.90407799133766S181.1635071147856,442.9549527998022,167.25,442.3771767366646S139.35259046846434,441.01389022274986,125.4375,441.5723082191239S97.55614187208468,446.2657194059694,83.625,446.56333657958197S55.74974215761822,443.2988795092296,41.8125,443.35882624986937S6.918478501561788,446.333276035646,0,446.9230236775964Z"></path><path opacity="0.85" id="path_416" class="layer" fill="#2ca02c" d="M0,447.9230236775964C6.918478501561788,447.333276035646,27.8764666911077,444.50179427472375,41.8125,444.35882624986937S69.69708826246571,447.430562621528,83.625,447.065125248865S111.53022935172903,442.81308116556755,125.4375,442.1646925660244S153.3449316786235,442.4947984262126,167.25,443.16633748467234S195.151993173755,445.5905532069815,209.0625,446.203324557308S236.94022837962987,446.6551145352397,250.875,446.8501000399212S278.75484630797826,447.6333164737313,292.6875,447.3734666502829S320.5777406927085,445.75109408118476,334.5,445.2904587851962S362.38208718396953,444.9208384939591,376.3125,444.60662933050475S404.3604267516326,444.55592950115926,418.125,443.01311942229364S446.0155956072602,433.75581817951223,459.9375,433.2898562140865S488.0164149065214,438.5407514607461,501.75,440.214215747948S529.7264247228754,442.2951084013838,543.5625,443.4797265257878S571.4381322211618,447.46789513174616,585.375,447.3740272312713S614.5901130452994,446.93596704791014,627.1875,442.82720536162566S664.0875615399596,418.9533265257296,669,415.77504021157813L669,424.1471182370066C663.1062541923101,426.6642200330564,640.2053449190043,438.5443593851784,627.1875,442.0044066714703S599.3111144550517,446.23506999690755,585.375,446.3740272312713S557.4303799086475,443.82082294803683,543.5625,442.83823296940653S515.6785710057887,440.8015489910479,501.75,440.44889033188707S473.87000269469996,439.7443406987798,459.9375,440.0082061371366S432.01939994553817,441.7919152568667,418.125,442.5657688569532S390.22940593754794,444.13037496502153,376.3125,444.66573057582355S348.4280675608596,445.42019800667174,334.5,445.78265579678146S306.62490268219153,446.80512135096984,292.6875,446.84195010990317S264.8120809575663,446.0800512798779,250.875,446.0036298933207S222.99545778735063,445.9921992082816,209.0625,445.74063121130075S181.16439765143406,442.94414698687916,167.25,442.3771767366646S139.3516998431344,441.0029199166413,125.4375,441.5723082191239S97.55614187208468,446.2657194059694,83.625,446.56333657958197S55.74974215761822,443.2988795092296,41.8125,443.35882624986937S6.918478501561788,446.333276035646,0,446.9230236775964Z"></path><path opacity="0.85" id="path_426" class="layer" fill="#3ab11a" d="M0,447.9230236775964C6.918478501561788,447.333276035646,27.8764666911077,444.50179427472375,41.8125,444.35882624986937S69.69708826246571,447.430562621528,83.625,447.065125248865S111.53022935172903,442.81308116556755,125.4375,442.1646925660244S153.3449316786235,442.4947984262126,167.25,443.16633748467234S195.151993173755,445.5905532069815,209.0625,446.203324557308S236.94022837962987,446.6551145352397,250.875,446.8501000399212S278.75484630797826,447.6333164737313,292.6875,447.3734666502829S320.5777406927085,445.75109408118476,334.5,445.2904587851962S362.380699467418,444.88841620601494,376.3125,444.60662933050475S404.36178135544714,444.5618842206694,418.125,443.01311942229364S446.0155956072602,432.40250132114846,459.9375,431.93653935572274S488.07309556848134,438.32632256098105,501.75,440.214215747948S529.7264247228754,442.2951084013838,543.5625,443.4797265257878S571.4380882850666,447.4645748819058,585.375,447.3740272312713S614.5901489415784,446.9360162221588,627.1875,442.82720536162566S664.2112637449437,417.84678612687014,669,414.61576293646544L669,414.77504021157813C664.0875615399596,417.9533265257296,639.7848869547006,437.7184436753412,627.1875,441.82720536162566S599.3118677788382,446.2801593307965,585.375,446.3740272312713S557.3985752771246,443.66434465019177,543.5625,442.4797265257878S515.4835850934786,440.8876800351499,501.75,439.214215747948S473.8594043927398,431.8238942486608,459.9375,432.2898562140865S431.8895732483674,440.470309343428,418.125,442.01311942229364S390.24291281603047,443.2924201670504,376.3125,443.60662933050475S348.4222593072915,443.8298234892077,334.5,444.2904587851962S306.62015369202174,446.1136168268345,292.6875,446.3734666502829S264.80977162037016,446.04508554460267,250.875,445.8501000399212S222.973006826245,445.8160959076345,209.0625,445.203324557308S181.1550683213765,442.8378765431321,167.25,442.16633748467234S139.34477064827095,440.5163039664813,125.4375,441.1646925660244S97.55291173753429,445.699687876202,83.625,446.065125248865S55.7485333088923,443.215858225015,41.8125,443.35882624986937S6.918478501561788,446.333276035646,0,446.9230236775964Z"></path><path opacity="0.85" id="path_126" class="layer" fill="#D1FF00" d="M0,432.99202731741036C6.6874139518927,431.6203820960491,27.89793055960885,424.9807913662759,41.8125,424.4159295566407S69.71452732744893,430.21042940066826,83.625,429.59727126454794S111.55844168500737,421.6304522721605,125.4375,420.72983273304106S153.4030419363049,423.05109912679154,167.25,424.1708001560935S195.17283398627694,426.6768614616443,209.0625,427.49196764705323S236.94067477555677,429.28860906927713,250.875,429.0782799102846S279.0814263354744,428.3532425773795,292.6875,426.2297051666357S321.21139839756944,418.9631821013349,334.5,416.02669571693673S362.376506568641,407.8953322362754,376.3125,407.75043389023745S404.19582666031397,408.46129763377104,418.125,408.12073413770264S446.0980857213955,390.32456398862263,459.9375,389.1594678839137S487.83291880030106,388.4034499725928,501.75,387.8703738975429S529.6292330118433,380.188716951826,543.5625,379.94585961885787S572.0095332051833,389.177835276847,585.375,386.41278721046365S620.6469841150085,369.6010976935245,627.1875,362.6455177676489S666.9676483130155,300.6483193845603,669,297.48090759587785L669,413.61576293646544C664.2112637449437,416.84678612687014,639.7848510584216,437.7183945010925,627.1875,441.82720536162566S599.3119117149334,446.2834795806369,585.375,446.3740272312713S557.3985752771246,443.66434465019177,543.5625,442.4797265257878S515.4269044315187,441.10210893491495,501.75,439.214215747948S473.8594043927398,430.470577390297,459.9375,430.93653935572274S431.88821864455286,440.46435462391787,418.125,442.01311942229364S390.244300532582,443.32484245499455,376.3125,443.60662933050475S348.4222593072915,443.8298234892077,334.5,444.2904587851962S306.62015369202174,446.1136168268345,292.6875,446.3734666502829S264.80977162037016,446.04508554460267,250.875,445.8501000399212S222.973006826245,445.8160959076345,209.0625,445.203324557308S181.1550683213765,442.8378765431321,167.25,442.16633748467234S139.34477064827095,440.5163039664813,125.4375,441.1646925660244S97.55291173753429,445.699687876202,83.625,446.065125248865S55.7485333088923,443.215858225015,41.8125,443.35882624986937S6.918478501561788,446.333276035646,0,446.9230236775964Z"></path><path opacity="0.85" id="path_106" class="layer" fill="#FFE999" d="M0,432.1128393330428C6.681431796704305,430.72730803448917,27.908489434214047,424.12454009146774,41.8125,423.4421637677619S69.71663356245487,428.6452733166239,83.625,428.00871989211544S111.54937624319183,420.44293920635477,125.4375,419.6148429703445S153.40431665295844,421.8949741943611,167.25,423.0224777654632S195.17677002478192,425.57686732612,209.0625,426.4247261498236S236.94149747473338,428.36460307146575,250.875,428.1285970878718S279.12135005231306,427.2527862740959,292.6875,425.0082839923506S321.29457407896393,417.40218327343456,334.5,414.29294702984214S362.38268721902995,405.64589238668395,376.3125,405.3186592558833S404.2251968927235,406.83878038704796,418.125,406.114916182509S446.1848064505715,388.78342043286625,459.9375,387.18918504225803S487.8558386062113,386.1717748861095,501.75,385.39578932613983S529.6258789161984,377.31761935801023,543.5625,377.20694360627954S571.9443406194089,387.3407547836336,585.375,384.73169293700585S620.7107474854869,367.91317506372116,627.1875,360.9618144029027S667.0033980578792,298.12953757457205,669,294.9787598183865L669,296.48090759587785C666.9676483130155,299.6483193845603,633.7280158849915,354.68993784177337,627.1875,361.6455177676489S598.7404667948167,382.6477391440803,585.375,385.41278721046365S557.4957669881567,378.70300228588974,543.5625,378.94585961885787S515.6670811996989,386.337297822493,501.75,386.8703738975429S473.7769142786045,386.99437177920476,459.9375,388.1594678839137S432.05417333968603,406.78017064163424,418.125,407.12073413770264S390.248493431359,406.6055355441995,376.3125,406.75043389023745S347.78860160243056,412.09020933253856,334.5,415.02669571693673S306.2935736645256,423.10616775589193,292.6875,425.2297051666357S264.8093252244432,427.8679507512921,250.875,428.0782799102846S222.95216601372306,427.30707383246215,209.0625,426.49196764705323S181.0969580636951,424.29050118539544,167.25,423.1708001560935S139.31655831499262,418.82921319392165,125.4375,419.72983273304106S97.53547267255107,427.9841131284276,83.625,428.59727126454794S55.72706944039115,422.8510677470055,41.8125,423.4159295566407S6.6874139518927,430.6203820960491,0,431.99202731741036Z"></path><path opacity="0.85" id="path_116" class="layer" fill="#FFC41C" d="M0,430.595905771305C6.671532407685898,429.18775208677414,27.913968193651137,422.50651838225366,41.8125,421.7705831412872S69.72891553513152,426.92654023764356,83.625,426.16791399610867S111.55892583378048,418.10958632555963,125.4375,417.2052597504615S153.40253030044434,419.6023633728279,167.25,420.7189169351099S195.18872717765748,423.00785196622877,209.0625,423.94813723434095S236.94047544764058,426.59016377788225,250.875,426.38654293365977S279.2943170575369,425.426176835824,292.6875,422.7261512932976S321.53042845847534,413.0711019894477,334.5,409.52799355344496S362.3818982305334,400.19094664052204,376.3125,399.8809522817428S404.21886126978194,401.272282959646,418.125,400.61189355305066S446.78269249031746,384.06209282749984,459.9375,380.853328415861S488.07580371409244,378.8395147856559,501.75,376.9420252153792S529.6251046956628,367.3497032085601,543.5625,367.3879024865516S571.9256196804458,379.7334300953955,585.375,377.17122260501236S622.0459929030787,358.1816431037827,627.1875,351.45671485616185S667.6072985382882,270.5790876086782,669,267.79237432061825L669,293.9787598183865C667.0033980578792,297.12953757457205,633.6642525145131,353.0104537420842,627.1875,359.9618144029027S598.8056593805911,381.1226310903781,585.375,383.73169293700585S557.4991210838016,376.09626785454884,543.5625,376.20694360627954S515.6441613937887,383.61980376617015,501.75,384.39578932613983S473.6901935494285,384.5949496516498,459.9375,386.18918504225803S432.0248031072765,404.39105197797,418.125,405.114916182509S390.24231278097005,403.9914261250826,376.3125,404.3186592558833S347.70542592103607,410.1837107862497,334.5,413.29294702984214S306.25364994768694,421.76378171060526,292.6875,424.0082839923506S264.80850252526665,426.89259110427787,250.875,427.1285970878718S222.94822997521808,426.27258497352716,209.0625,425.4247261498236S181.09568334704156,423.14998133656525,167.25,422.0224777654632S139.32562375680817,417.78674673433426,125.4375,418.6148429703445S97.53336643754513,426.372166467607,83.625,427.00871989211544S55.71651056578595,421.75978744405603,41.8125,422.4421637677619S6.681431796704305,429.72730803448917,0,431.1128393330428Z"></path><path opacity="0.85" id="path_606" class="layer" fill="#D66011" d="M0,423.8776995832859C4.350070118271831,420.50257868132917,27.992339673356206,392.70976907279015,41.8125,391.43632763383084S70.27989212346573,413.3604995990462,83.625,416.1721782422875S111.5542072521464,409.9227763971795,125.4375,409.0552655035274S153.41216827316293,412.1211801186861,167.25,410.946789726809S195.17376236285145,402.7811217988314,209.0625,401.9581712145244S237.68634256510802,402.8491036322444,250.875,405.9917502976962S278.80356188185834,422.7470259795895,292.6875,421.8846746282178S321.5814800375164,404.4258646425701,334.5,400.79768135667786S363.53502149008466,398.90674126172627,376.3125,395.05678676061893S407.86829628363625,378.1600486308552,418.125,372.01571490606864S448.84158554797585,350.5759363000246,459.9375,344.96077912070643S489.7296459344777,334.49725573174624,501.75,329.6967585775237S532.8122368328385,305.71044659571396,543.5625,311.5639613286829S576.8298309448282,382.01864911173675,585.375,375.2305433726523S625.654363584596,249.49490438549316,627.1875,245.13398916945704S668.0882498166715,139.71420555902114,669,137.36421179450366L669,266.79237432061825C667.6072985382882,269.5790876086782,632.3290070969213,343.73178660854103,627.1875,350.45671485616185S598.8243803195542,373.60901511462924,585.375,376.17122260501236S557.4998953043372,366.4261017645431,543.5625,366.3879024865516S515.4241962859076,374.0445356451025,501.75,375.9420252153792S473.09230750968254,376.6445640042221,459.9375,379.853328415861S432.03113873021806,398.9515041464553,418.125,399.61189355305066S390.2431017694666,398.57095792296354,376.3125,398.8809522817428S347.46957154152466,404.9848851174422,334.5,408.52799355344496S306.0806829424631,419.02612575077126,292.6875,421.7261512932976S264.80952455235945,425.1829220894373,250.875,425.38654293365977S222.93627282234252,423.8884225024531,209.0625,422.94813723434095S181.09746969955566,420.83547049739195,167.25,419.7189169351099S139.31607416621952,415.30093317536335,125.4375,416.2052597504615S97.52108446486848,424.40928775457377,83.625,425.16791399610867S55.71103180634886,420.03464790032075,41.8125,420.7705831412872S6.671532407685898,428.18775208677414,0,429.595905771305Z"></path><path opacity="0.85" id="path_616" class="layer" fill="#5E1F05" d="M0,416.6157933940821C4.507084699108397,413.2848875094954,27.98740728756141,386.9613879623881,41.8125,385.71477608530273S70.34141696897666,406.12804418439737,83.625,409.07530738146625S111.51208033590586,404.67902372705294,125.4375,404.2688728436302S153.40821915535932,406.6494898258805,167.25,405.498436581622S195.17380813868286,394.9933718115874,209.0625,394.1700364009006S237.24127334645817,394.3734415974587,250.875,396.4085245859981S278.75345543563196,416.838816217531,292.6875,417.0582431850747S320.82963645126506,399.63639493173423,334.5,397.7254128789895S362.7811856459795,396.96705546451585,376.3125,394.62265241430464S408.5354963425937,376.37564540433937,418.125,369.9184690222284S448.9551853115883,344.0099345759962,459.9375,338.3130253214588S489.41124944820655,330.98072843046316,501.75,326.5392680134114S533.0623741120856,302.2036113566309,543.5625,308.21134478120604S576.707847153918,381.14461689503884,585.375,374.38599985196555S625.7349505169925,247.25936899825714,627.1875,243.00084713981474S668.1709098899033,131.4740117324513,669,129.21783547735157L669,136.36421179450366C668.0882498166715,138.71420555902114,628.720636415404,239.77307395342092,627.1875,244.13398916945704S593.9201690551718,367.4424376335678,585.375,374.2305433726523S554.3127631671615,316.4174760616519,543.5625,310.5639613286829S513.7703540655223,323.8962614233012,501.75,328.6967585775237S471.03341445202415,338.3456219413883,459.9375,343.96077912070643S428.38170371636375,364.87138118128206,418.125,371.01571490606864S389.08997850991534,390.2068322595116,376.3125,394.05678676061893S347.4185199624836,396.1694980707856,334.5,399.79768135667786S306.57143811814166,420.02232327684607,292.6875,420.8846746282178S264.063657434892,408.13439696314805,250.875,404.9917502976962S222.95123763714855,400.13522063021736,209.0625,400.9581712145244S181.08783172683707,408.77239933493195,167.25,409.946789726809S139.3207927478536,407.18775460987524,125.4375,408.0552655035274S96.97010787653427,417.9838568855288,83.625,415.1721782422875S55.632660326643794,389.16288619487153,41.8125,390.43632763383084S4.350070118271831,419.50257868132917,0,422.8776995832859Z"></path><path opacity="0.85" id="path_506" class="layer" fill="red" d="M0,409.53680070341517C4.5928216508547575,406.2334364844962,27.963731556164383,380.5718900127472,41.8125,379.46336722318364S70.33632717941236,399.9067158287124,83.625,402.843048933848S111.51286252269153,398.3647840115234,125.4375,397.94157488411327S153.4099718429129,400.3470380568742,167.25,399.18556784613355S195.17153699084497,388.64650624155826,209.0625,387.84248906612913S237.2356327826761,388.0388507447866,250.875,390.0553681641118S278.75052155417075,411.07865503637333,292.6875,411.16391281746314S321.1076393851511,393.26891534679623,334.5,390.5669339939182S363.76058275214336,389.31966374293,376.3125,385.14932562175073S408.55182125294385,354.19037032951195,418.125,347.7265922188396S447.9147369993314,333.4839676561763,459.9375,328.6860067193227S489.6180518160398,319.03436969391123,501.75,314.35410676586434S533.8348156203667,290.0257984772013,543.5625,296.4251545113174S576.3958954991609,376.0392804104656,585.375,369.3668032585035S625.8630774113063,238.36962338963957,627.1875,234.28244286555253S668.2779436572404,113.42305482523356,669,111.29926934254314L669,128.21783547735157C668.1709098899033,130.4740117324513,628.6400494830075,237.74232528137233,627.1875,242.00084713981474S594.042152846082,366.62738280889226,585.375,373.38599985196555S554.0626258879144,313.21907820578116,543.5625,307.21134478120604S514.0887505517935,321.09780759635964,501.75,325.5392680134114S470.9198146884117,331.61611606692134,459.9375,337.3130253214588S427.7145036574063,362.46129264011745,418.125,368.9184690222284S389.8438143540205,391.2782493640934,376.3125,393.62265241430464S348.17036354873494,394.8144308262448,334.5,396.7254128789895S306.62154456436804,416.2776701526183,292.6875,416.0582431850747S264.5087266535418,397.44360757453757,250.875,395.4085245859981S222.95119186131714,392.3467009902138,209.0625,393.1700364009006S181.09178084464068,403.3473833373635,167.25,404.498436581622S139.36291966409414,402.8587219602075,125.4375,403.2688728436302S96.90858303102334,411.0225705785351,83.625,408.07530738146625S55.63759271243859,383.4681642082174,41.8125,384.71477608530273S4.507084699108397,412.2848875094954,0,415.6157933940821Z"></path><path opacity="0.85" id="path_206" class="layer" fill="#330000" d="M0,408.09743166181636C4.452070038497624,404.7501289487215,28.009784616897793,378.02453591945505,41.8125,376.6605734181154S70.32919564278086,396.9128067034081,83.625,399.83374143792275S111.50003284749567,395.0534170921526,125.4375,395.0320205762683S153.31273631620127,395.1506601830301,167.25,395.09327027791016S195.12537110935668,382.3888234966679,209.0625,382.3169054951907S236.93872623804296,382.036966362299,250.875,382.1676919874231S278.75559820104695,405.5339466936105,292.6875,405.8132200135618S322.1481095243388,388.2695306359764,334.5,383.84400522289855S365.5446394176391,380.6242638861316,376.3125,374.7821550763358S408.2330758411227,343.18002028667536,418.125,336.8540002583027S447.95215063834337,326.1398962797571,459.9375,321.3028302881537S491.20572698122345,309.08605662891205,501.75,303.1044923097144S534.099371956305,267.35692908914194,543.5625,273.86396795007033S575.1527811566743,366.7694023058293,585.375,360.6067391600773S626.47246227708,226.52383941145413,627.1875,223.44901269796307S668.7621916334946,2.2651775507435428,669,1.0000000000001705L669,110.29926934254314C668.2779436572404,112.42305482523356,628.5119225886937,229.19526234146548,627.1875,233.28244286555253S594.3541045008391,361.69432610654144,585.375,368.3668032585035S553.2901843796333,301.82451054543344,543.5625,295.4251545113174S513.8819481839603,308.67384383781746,501.75,313.35410676586434S471.9602630006686,322.8880457824691,459.9375,327.6860067193227S427.69817874705615,340.2628141081672,418.125,346.7265922188396S388.86441724785664,379.97898750057146,376.3125,384.14932562175073S347.8923606148489,386.8649526410402,334.5,389.5669339939182S306.62447844582925,410.24917059855295,292.6875,410.16391281746314S264.51436721732387,391.07188558343705,250.875,389.0553681641118S222.95346300915503,386.0384718907,209.0625,386.84248906612913S181.0900281570871,397.0240976353929,167.25,398.18556784613355S139.36213747730847,396.51836575670313,125.4375,396.94157488411327S96.91367282058764,404.77938203898367,83.625,401.843048933848S55.66126844383562,377.3548444336201,41.8125,378.46336722318364S4.5928216508547575,405.2334364844962,0,408.53680070341517Z"></path></g><g class="text_layers"><text class="label" style="font-weight: lighter; " font-size="18px" font-family="PT Sans Narrow" dy="6" opacity="1" pointer-events="none" text-anchor="middle" fill="#333333" x="627.1875" y="401.73636156463726">Foodstuffs</text><text class="label" style="font-weight: lighter; " font-size="18px" font-family="PT Sans Narrow" dy="6" opacity="1" pointer-events="none" text-anchor="middle" fill="#ffffff" x="501.75" y="352.31939189645146">Stone / Glass</text></g></g></g></svg>