<svg width="748" height="520" style="z-index: 10; position: absolute; "><rect id="svgbg" fill="#ffffff" width="748" height="520"></rect><g class="titles"></g><clipPath id="clipping"><rect width="748" height="520"></rect></clipPath><g class="parent" width="748" height="520" clip-path="url(#clipping)" transform="translate(0,0)"><g class="axes_labels"><text class="x_axis_label" x="374" y="510" font-family="sans-serif" font-size="14px" font-weight="lighter" fill="#333" text-anchor="middle">Year</text><text class="y_axis_label" y="15" x="-242.5" transform="rotate(-90)" font-family="sans-serif" font-size="14px" font-weight="lighter" fill="#333" text-anchor="middle">Current</text></g><g class="chart" transform="translate(40,5)"><rect style="fill: #fafafa; " id="background" x="0" y="0" width="698" height="475" stroke-width="1" stroke="#ccc" shape-rendering="crispEdges"></rect><g transform="translate(0,475)" class="xaxis"><path class="domain" d="M0,0V0H698V0"></path></g><g class="yaxis"><path class="domain" d="M0,0H0V475H0"></path></g><clipPath id="path_clipping"><rect width="698" height="475" y="1" x="1"></rect></clipPath><g class="layers" clip-path="url(#path_clipping)"><path opacity="0.85" id="path_906" class="layer" fill="#7f7f7f" d="M0,448.24632126782274C6.96875,448.24632126782274,27.875,448.24632126782274,41.8125,448.24632126782274S69.6875,448.24632126782274,83.625,448.24632126782274S111.5,448.24632126782274,125.4375,448.24632126782274S153.3125,448.24632126782274,167.25,448.24632126782274S195.125,448.24632126782274,209.0625,448.24632126782274S236.9375,448.0833263487197,250.875,448.0833263487197S278.75,448.24632126782274,292.6875,448.24632126782274S320.5625,448.24632126782274,334.5,448.24632126782274S362.375,447.94784607195174,376.3125,447.94784607195174S404.1875,448.24632126782274,418.125,448.24632126782274S446,448.24632126782274,459.9375,448.24632126782274S487.8125,447.84454534342507,501.75,447.84454534342507S529.625,448.24632126782274,543.5625,448.24632126782274S571.4375,448.24632126782274,585.375,448.24632126782274S613.25,448.24632126782274,627.1875,448.24632126782274S662.0315765722779,448.0077866855211,669,447.96008245182776L669,447.24632126782274C662.03125,447.24632126782274,641.125,447.24632126782274,627.1875,447.24632126782274S599.3125,447.24632126782274,585.375,447.24632126782274S557.5,447.24632126782274,543.5625,447.24632126782274S515.6875,447.24632126782274,501.75,447.24632126782274S473.875,447.24632126782274,459.9375,447.24632126782274S432.0625,447.24632126782274,418.125,447.24632126782274S390.25,447.24632126782274,376.3125,447.24632126782274S348.4375,447.24632126782274,334.5,447.24632126782274S306.625,447.24632126782274,292.6875,447.24632126782274S264.8125,447.24632126782274,250.875,447.24632126782274S223,447.24632126782274,209.0625,447.24632126782274S181.1875,447.24632126782274,167.25,447.24632126782274S139.375,447.24632126782274,125.4375,447.24632126782274S97.5625,447.24632126782274,83.625,447.24632126782274S55.75,447.24632126782274,41.8125,447.24632126782274S6.96875,447.24632126782274,0,447.24632126782274Z"></path><path opacity="0.85" id="path_316" class="layer" fill="#f7b6d2" d="M0,447.84898621555516C6.967826564766722,447.76877189919406,27.875080890490736,447.40121338056815,41.8125,447.3676365333159S69.68834541623735,447.5389777787089,83.625,447.6475239627944S111.50001069467558,448.0067442579777,125.4375,448.0189531451753S153.31252389595008,448.0152458344919,167.25,447.9969961979707S195.12515006729174,447.542300870436,209.0625,447.4965675088891S236.93810992642543,447.6303950397634,250.875,447.72259307414697S278.7500002064452,448.05147619392216,292.6875,448.0497799246161S320.5641374184778,447.86347451579843,334.5,447.7124154581598S362.3750000227512,447.14388219642285,376.3125,447.14331908509973S404.18750277534554,447.15578339630014,418.125,447.1495639614096S446.0052241586486,441.19653856599444,459.9375,440.926752689175S487.8338168696676,444.98558637313727,501.75,445.5302417339478S529.6277821456395,445.91329551999013,543.5625,446.1101924842015S571.4439381539645,447.7010847676484,585.375,447.4016013439764S613.3048796574792,445.1853151399296,627.1875,444.31246151571094S662.049946863614,442.5042543629212,669,442.1437766304589L669,446.96008245182776C662.0315765722779,447.0077866855211,641.125,447.24632126782274,627.1875,447.24632126782274S599.3125,447.24632126782274,585.375,447.24632126782274S557.5,447.24632126782274,543.5625,447.24632126782274S515.6875,446.84454534342507,501.75,446.84454534342507S473.875,447.24632126782274,459.9375,447.24632126782274S432.0625,447.24632126782274,418.125,447.24632126782274S390.25,446.94784607195174,376.3125,446.94784607195174S348.4375,447.24632126782274,334.5,447.24632126782274S306.625,447.24632126782274,292.6875,447.24632126782274S264.8125,447.0833263487197,250.875,447.0833263487197S223,447.24632126782274,209.0625,447.24632126782274S181.1875,447.24632126782274,167.25,447.24632126782274S139.375,447.24632126782274,125.4375,447.24632126782274S97.5625,447.24632126782274,83.625,447.24632126782274S55.75,447.24632126782274,41.8125,447.24632126782274S6.96875,447.24632126782274,0,447.24632126782274Z"></path><path opacity="0.85" id="path_306" class="layer" fill="#e377c2" d="M0,447.84898621555516C6.967826564766722,447.76877189919406,27.875080890490736,447.40121338056815,41.8125,447.3676365333159S69.68834541623735,447.5389777787089,83.625,447.6475239627944S111.50001069467558,448.0067442579777,125.4375,448.0189531451753S153.31252389595008,448.0152458344919,167.25,447.9969961979707S195.12515006729174,447.542300870436,209.0625,447.4965675088891S236.93810992642543,447.6303950397634,250.875,447.72259307414697S278.7500002064452,448.05147619392216,292.6875,448.0497799246161S320.5681894750092,447.99395530936164,334.5,447.7124154581598S362.3771706090239,446.53377092348575,376.3125,446.35985096566856S404.21064607194245,446.33288827165666,418.125,445.7653826443266S446.00655840359866,440.2993178194127,459.9375,439.99705181487565S487.87293558138356,443.03514437892596,501.75,443.95093281302877S529.6486908295224,444.9415785007905,543.5625,445.51571235370744S571.4413097944273,447.63200207161555,585.375,447.4016013439764S613.3986782656452,445.5647463706083,627.1875,444.1329300064208S662.1461959360993,439.60566213111997,669,438.71807161519166L669,441.1437766304589C662.049946863614,441.5042543629212,641.0701203425208,442.43960789149224,627.1875,443.31246151571094S599.3060618460355,446.10211792030435,585.375,446.4016013439764S557.4972178543605,445.30708944841285,543.5625,445.1101924842015S515.6661831303325,445.0748970947583,501.75,444.5302417339478S473.8697758413514,439.6569668123555,459.9375,439.926752689175S432.06249722465446,446.1433445265191,418.125,446.1495639614096S390.2499999772488,446.1427559737766,376.3125,446.14331908509973S348.4358625815222,446.56135640052116,334.5,446.7124154581598S306.6249997935548,447.04808365531,292.6875,447.0497799246161S264.81189007357455,446.8147911085305,250.875,446.72259307414697S222.99984993270826,446.45083414734216,209.0625,446.4965675088891S181.18747610404992,446.9787465614495,167.25,446.9969961979707S139.37498930532442,447.03116203237295,125.4375,447.0189531451753S97.56165458376265,446.75607014687995,83.625,446.6475239627944S55.749919109509264,446.3340596860636,41.8125,446.3676365333159S6.967826564766722,446.76877189919406,0,446.84898621555516Z"></path><path opacity="0.85" id="path_716" class="layer" fill="#9edae5" d="M0,447.84898621555516C6.967826564766722,447.76877189919406,27.875080890490736,447.40121338056815,41.8125,447.3676365333159S69.68751297032304,447.63407875141127,83.625,447.6475239627944S111.50146268113527,447.93371551356523,125.4375,447.79094304112476S153.31267270728483,443.2010966597182,167.25,443.15203467897396S195.15130080468623,446.89169088263617,209.0625,447.4965675088891S236.93810992642543,446.6959579566511,250.875,446.78815599103467S278.7517023442405,447.895755495136,292.6875,448.0497799246161S320.5681894750092,447.99395530936164,334.5,447.7124154581598S362.40909400098906,447.0483440577776,376.3125,446.35985096566856S404.26772358164135,444.62568947916833,418.125,443.5713269485012S446.0000216301266,440.0144146896803,459.9375,439.99705181487565S487.87293558138356,442.55136110389367,501.75,443.4671495379965S529.6557836982532,444.86141872059943,543.5625,445.51571235370744S571.4413097944273,447.63200207161555,585.375,447.4016013439764S613.4182479900578,445.6549842023259,627.1875,444.1329300064208S662.1707177812725,439.13363034349953,669,438.1576872925331L669,437.71807161519166C662.1461959360993,438.60566213111997,640.9763217343548,441.7011136422333,627.1875,443.1329300064208S599.3086902055727,446.1712006163372,585.375,446.4016013439764S557.4763091704776,445.0898462066244,543.5625,444.51571235370744S515.6270644186164,443.8667212471316,501.75,442.95093281302877S473.86844159640134,438.6947858103386,459.9375,438.99705181487565S432.03935392805755,444.1978770169966,418.125,444.7653826443266S390.2478293909761,445.18593100785137,376.3125,445.35985096566856S348.4318105249908,446.43087560695795,334.5,446.7124154581598S306.6249997935548,447.04808365531,292.6875,447.0497799246161S264.81189007357455,446.8147911085305,250.875,446.72259307414697S222.99984993270826,446.45083414734216,209.0625,446.4965675088891S181.18747610404992,446.9787465614495,167.25,446.9969961979707S139.37498930532442,447.03116203237295,125.4375,447.0189531451753S97.56165458376265,446.75607014687995,83.625,446.6475239627944S55.749919109509264,446.3340596860636,41.8125,446.3676365333159S6.967826564766722,446.76877189919406,0,446.84898621555516Z"></path><path opacity="0.85" id="path_706" class="layer" fill="#17becf" d="M0,447.84898621555516C6.967826564766722,447.76877189919406,27.875080890490736,447.40121338056815,41.8125,447.3676365333159S69.68751297032304,447.63407875141127,83.625,447.6475239627944S111.50146268113527,447.93371551356523,125.4375,447.79094304112476S153.31267270728483,443.2010966597182,167.25,443.15203467897396S195.15130080468623,446.89169088263617,209.0625,447.4965675088891S236.93810992642543,446.6959579566511,250.875,446.78815599103467S278.75103429841477,447.92971967148094,292.6875,448.0497799246161S320.5681894750092,447.7901108228642,334.5,447.5085709716624S362.4058273104723,447.0146068870904,376.3125,446.35985096566856S404.26772358164135,444.62568947916833,418.125,443.5713269485012S446.0000216301266,440.0144146896803,459.9375,439.99705181487565S487.8656478379651,442.6081249173026,501.75,443.4671495379965S529.6557836982532,444.5166354406542,543.5625,445.17092907376224S571.4431624855044,447.68247289464716,585.375,447.4016013439764S613.5982725711212,445.66050446214007,627.1875,443.48501482157496S662.3713401773629,435.515581936083,669,434.01413526877883L669,437.1576872925331C662.1707177812725,438.13363034349953,640.9567520099422,441.61087581051567,627.1875,443.1329300064208S599.3086902055727,446.1712006163372,585.375,446.4016013439764S557.4692163017468,445.17000598681545,543.5625,444.51571235370744S515.6270644186164,443.3829379720993,501.75,442.4671495379965S473.8749783698734,438.979688940071,459.9375,438.99705181487565S431.98227641835865,441.5169644178341,418.125,442.5713269485012S390.21590599901094,444.6713578735595,376.3125,445.35985096566856S348.4318105249908,446.43087560695795,334.5,446.7124154581598S306.6232976557595,447.2038043540962,292.6875,447.0497799246161S264.81189007357455,445.8803540254182,250.875,445.78815599103467S222.97369919531377,447.101444135142,209.0625,446.4965675088891S181.18732729271517,442.10297269822973,167.25,442.15203467897396S139.37353731886472,446.6481705686843,125.4375,446.79094304112476S97.56248702967696,446.6609691741776,83.625,446.6475239627944S55.749919109509264,446.3340596860636,41.8125,446.3676365333159S6.967826564766722,446.76877189919406,0,446.84898621555516Z"></path><path opacity="0.85" id="path_416" class="layer" fill="#2ca02c" d="M0,447.84898621555516C6.967826564766722,447.76877189919406,27.875265042462676,447.4284144822451,41.8125,447.3676365333159S69.68750006925211,447.42978243349614,83.625,447.42879998687647S111.50084440888341,447.4287889657538,125.4375,447.32030746601276S153.31266087847362,442.94023912330715,167.25,442.89288706058136S195.13676169283588,446.6314817207293,209.0625,447.0361918101535S236.93808368161615,446.5310262852179,250.875,446.6212189780525S278.75029068530614,447.9300624157151,292.6875,447.86641226287804S320.5627005819832,446.2921832568438,334.5,446.2393100958069S362.3758418827532,446.46817008727766,376.3125,446.35985096566856S404.5745514521671,445.44287198617,418.125,443.1527364469597S446.0000774176565,432.25939692621574,459.9375,432.2265487513231S488.1204917167658,440.9067989061744,501.75,442.9556463028409S529.662055709613,444.4532307895809,543.5625,445.17092907376224S571.4443314663603,447.7100926622719,585.375,447.4016013439764S614.2197043330451,446.86518792063714,627.1875,443.31907347687064S663.201624817907,427.1389365185845,669,424.5338890530095L669,433.01413526877883C662.3713401773629,434.515581936083,640.7767274288788,440.30952518100986,627.1875,442.48501482157496S599.3068375144956,446.1207297933056,585.375,446.4016013439764S557.4692163017468,444.82522270687025,543.5625,444.17092907376224S515.6343521620349,443.3261741586904,501.75,442.4671495379965S473.8749783698734,438.979688940071,459.9375,438.99705181487565S431.98227641835865,441.5169644178341,418.125,442.5713269485012S390.2191726895277,444.7050950442467,376.3125,445.35985096566856S348.4318105249908,446.22703112046054,334.5,446.5085709716624S306.62396570158523,447.1698401777512,292.6875,447.0497799246161S264.81189007357455,445.8803540254182,250.875,445.78815599103467S222.97369919531377,447.101444135142,209.0625,446.4965675088891S181.18732729271517,442.10297269822973,167.25,442.15203467897396S139.37353731886472,446.6481705686843,125.4375,446.79094304112476S97.56248702967696,446.6609691741776,83.625,446.6475239627944S55.749919109509264,446.3340596860636,41.8125,446.3676365333159S6.967826564766722,446.76877189919406,0,446.84898621555516Z"></path><path opacity="0.85" id="path_426" class="layer" fill="#3ab11a" d="M0,447.84898621555516C6.967826564766722,447.76877189919406,27.875265042462676,447.4284144822451,41.8125,447.3676365333159S69.68750006925211,447.42978243349614,83.625,447.42879998687647S111.50084440888341,447.4287889657538,125.4375,447.32030746601276S153.31266087847362,442.94023912330715,167.25,442.89288706058136S195.13676169283588,446.6314817207293,209.0625,447.0361918101535S236.93808368161615,446.5310262852179,250.875,446.6212189780525S278.75029068530614,447.9300624157151,292.6875,447.86641226287804S320.5627005819832,446.2921832568438,334.5,446.2393100958069S362.3758418827532,446.46817008727766,376.3125,446.35985096566856S404.6123606387786,445.5487724630901,418.125,443.1527364469597S446.0000774176565,431.5644700660904,459.9375,431.53162189119774S488.12368042772954,440.89646103850004,501.75,442.9556463028409S529.6587373960473,444.48603729726204,543.5625,445.17092907376224S571.4443314663603,447.7100926622719,585.375,447.4016013439764S614.3090181205415,447.0121136439161,627.1875,443.31907347687064S663.3180140277335,426.1252082816121,669,423.4212528168903L669,423.5338890530095C663.201624817907,426.1389365185845,640.1552956669549,438.77295903310414,627.1875,442.31907347687064S599.3056685336397,446.09311002568086,585.375,446.4016013439764S557.462944290387,444.88862735794356,543.5625,444.17092907376224S515.3795082832343,444.00449369950735,501.75,441.9556463028409S473.8749225823435,431.19370057643044,459.9375,431.2265487513231S431.6754485478329,439.86260090774937,418.125,442.1527364469597S390.2491581172468,445.25153184405946,376.3125,445.35985096566856S348.4372994180168,445.18643693477,334.5,445.2393100958069S306.62470931469386,446.802762110041,292.6875,446.86641226287804S264.81191631838385,445.7114116708872,250.875,445.6212189780525S222.98823830716412,446.44090189957774,209.0625,446.0361918101535S181.18733912152638,441.84553499785557,167.25,441.89288706058136S139.3741556137995,446.2118274232328,125.4375,446.32030746601276S97.56249992988946,446.4278114699678,83.625,446.42879998687647S55.749731665013044,446.30648224583695,41.8125,446.3676365333159S6.967826564766722,446.76877189919406,0,446.84898621555516Z"></path><path opacity="0.85" id="path_126" class="layer" fill="#D1FF00" d="M0,429.4991070673096C6.798012879121045,428.42176165070487,27.899286276503886,423.4539764053636,41.8125,422.87268460639643S69.69502125486733,426.32895157796725,83.625,426.0052682134912S111.58157535722216,421.99269243736165,125.4375,420.9295358156083S153.33897406128884,418.98191122962544,167.25,419.5887731194257S195.20334606113613,423.53561453325614,209.0625,424.5776366643979S236.95185208216367,426.32326852943544,250.875,425.87624933197986S279.21304628780825,424.3906149727249,292.6875,421.8927567358198S321.3104323283627,413.51491468851975,334.5,410.37407020673703S362.39099117567037,402.450882370674,376.3125,401.97905476104734S404.2721287033303,401.8744345213997,418.125,400.79168314862807S446.0012457542149,380.012173301698,459.9375,379.8804115945657S487.8129111289966,380.1080768189519,501.75,380.0323804428005S529.7243694935329,369.1276620197709,543.5625,367.9550205486174S572.3529493829122,376.3986924665991,585.375,372.9460082641755S620.1792827624273,352.751212609688,627.1875,345.78257437114684S666.5049872117239,293.13424422048234,669,289.7932815516341L669,422.4212528168903C663.3180140277335,425.1252082816121,640.0659818794585,438.6260333098252,627.1875,442.31907347687064S599.3056685336397,446.09311002568086,585.375,446.4016013439764S557.4662626039527,444.85582085026243,543.5625,444.17092907376224S515.3763195722705,444.0148315671817,501.75,441.9556463028409S473.8749225823435,430.4987737163051,459.9375,430.53162189119774S431.6376393612214,439.7567004308293,418.125,442.1527364469597S390.2491581172468,445.25153184405946,376.3125,445.35985096566856S348.4372994180168,445.18643693477,334.5,445.2393100958069S306.62470931469386,446.802762110041,292.6875,446.86641226287804S264.81191631838385,445.7114116708872,250.875,445.6212189780525S222.98823830716412,446.44090189957774,209.0625,446.0361918101535S181.18733912152638,441.84553499785557,167.25,441.89288706058136S139.3741556137995,446.2118274232328,125.4375,446.32030746601276S97.56249992988946,446.4278114699678,83.625,446.42879998687647S55.749731665013044,446.30648224583695,41.8125,446.3676365333159S6.967826564766722,446.76877189919406,0,446.84898621555516Z"></path><path opacity="0.85" id="path_106" class="layer" fill="#FFE999" d="M0,428.52994734019484C6.819989597881959,427.5227013945481,27.907592265538007,423.0278445994964,41.8125,422.3546489034592S69.69639538709002,424.833300369589,83.625,424.48130558318485S111.55966279750665,421.15127127693097,125.4375,420.24133139383844S153.33739074798075,418.4097259543034,167.25,418.99819451815927S195.20833057757324,422.70399425470947,209.0625,423.77845967517123S236.9494159555398,425.89111666350027,250.875,425.4837634502574S279.2682029990597,423.96927761371387,292.6875,421.33224899210956S321.36792387869883,412.3028114343083,334.5,409.0505986975724S362.38236067364403,400.94238452218747,376.3125,400.6221733271971S404.2265867201043,400.55365143368437,418.125,399.81660096745725S446.0232886092713,379.8884232770121,459.9375,379.3191758506701S487.82201269852663,379.0065606722938,501.75,378.6425651444615S529.7252970477783,366.9712546650401,543.5625,365.79319244019064S572.2251138015706,374.74119194739455,585.375,371.52295767081273S620.0894320643624,352.2947979513256,627.1875,345.327247920359S666.499390586868,292.77825295378886,669,289.43563804765336L669,288.7932815516341C666.5049872117239,292.13424422048234,634.1957172375727,337.81393613260565,627.1875,344.78257437114684S598.3970506170878,368.4933240617519,585.375,371.9460082641755S557.4006305064671,365.78237907746393,543.5625,366.9550205486174S515.6870888710034,378.95668406664913,501.75,379.0323804428005S473.8737542457851,378.74864988743343,459.9375,378.8804115945657S431.9778712966697,398.70893177585646,418.125,399.79168314862807S390.23400882432963,400.5072271514207,376.3125,400.97905476104734S347.6895676716373,406.2332257249543,334.5,409.37407020673703S306.16195371219175,418.39489849891464,292.6875,420.8927567358198S264.79814791783633,424.4292301345243,250.875,424.87624933197986S222.92165393886387,424.6196587955397,209.0625,423.5776366643979S181.16102593871116,419.19563500922595,167.25,418.5887731194257S139.29342464277784,418.8663791938549,125.4375,419.9295358156083S97.55497874513267,424.68158484901517,83.625,425.0052682134912S55.72571372349611,421.29139280742925,41.8125,421.87268460639643S6.798012879121045,427.42176165070487,0,428.4991070673096Z"></path><path opacity="0.85" id="path_116" class="layer" fill="#FFC41C" d="M0,426.7004285797241C6.805321234829862,425.64582664250116,27.911899821218164,420.9370513944837,41.8125,420.2208603156352S69.70542045647859,422.89132003300045,83.625,422.3918751217139S111.54091415236849,417.97436669100586,125.4375,417.22033285173086S153.3277313892111,415.8741520515483,167.25,416.33464688530046S195.22302592592143,419.7479658510254,209.0625,420.91270928216267S236.94749861291544,423.74577700273784,250.875,423.3726072086111S279.4603552030488,421.7373679525943,292.6875,418.6720831162383S321.6416390411603,407.71822830140655,334.5,403.99318342704396S362.39577301259914,394.98373869938905,376.3125,394.44606561558453S404.2793654241029,394.3173533336097,418.125,393.18955233507836S446.49558263534936,374.24945869901666,459.9375,371.6684548571517S488.0688715391309,370.2546380744405,501.75,368.38181881979773S529.6832310882548,354.88129486045807,543.5625,353.9822926730792S572.1317323646097,365.99732015533743,585.375,362.9651748742409S621.0983739725759,341.74873503971435,627.1875,334.83572279978813S667.0387101204336,271.1591956148105,669,268.0253352387665L669,288.43563804765336C666.499390586868,291.77825295378886,634.2855679356376,337.3596978893924,627.1875,344.327247920359S598.5248861984294,367.3047233942309,585.375,370.52295767081273S557.3997029522217,363.6151302153412,543.5625,364.79319244019064S515.6779873014733,377.2785696166292,501.75,377.6425651444615S473.8517113907287,377.74992842432806,459.9375,378.3191758506701S432.0234132798957,398.07955050123013,418.125,398.81660096745725S390.24263932635597,399.30196213220677,376.3125,399.6221733271971S347.63207612130117,404.7983859608365,334.5,408.0505986975724S306.1067970009403,417.69522037050524,292.6875,420.33224899210956S264.8005840444602,424.07641023701456,250.875,424.4837634502574S222.91666942242676,423.852925095633,209.0625,422.77845967517123S181.16260925201925,418.58666308201515,167.25,417.99819451815927S139.31533720249337,418.3313915107459,125.4375,419.24133139383844S97.55360461290998,423.1293107967807,83.625,423.48130558318485S55.71740773446199,420.68145320742195,41.8125,421.3546489034592S6.819989597881959,426.5227013945481,0,427.52994734019484Z"></path><path opacity="0.85" id="path_606" class="layer" fill="#D66011" d="M0,418.44569842955644C4.048999759126176,415.00737499770673,28.0119121139612,384.3140026204931,41.8125,382.93942353532384S70.23427391380775,407.4105388775386,83.625,410.1164028266083S111.5313565326877,407.8836735873181,125.4375,407.22333394577555S153.64897549885575,406.54905740701287,167.25,404.4098025124359S195.18990818906798,395.01918435537505,209.0625,394.07026664970886S237.96385146235644,395.0494130744362,250.875,398.68965704734677S278.80514457662775,418.52293282111475,292.6875,417.6479833297624S321.222675299674,396.3797422161142,334.5,393.41910684293725S363.3225565725438,392.04602634406933,376.3125,388.537649757718S409.04413087726505,364.80092768393644,418.125,358.1599616868937S449.45623634415716,333.4003041515888,459.9375,327.38152318032746S490.620868493327,315.7295715957471,501.75,310.1389810829807S533.3430811824343,279.20933093080737,543.5625,285.3734714873656S578.2014825985827,367.54558008612327,585.375,360.579839143925S625.3666456379283,208.86770668833927,627.1875,204.17061747655092S666.6864163867839,148.14196394459148,669,144.86017835298776L669,267.0253352387665C667.0387101204336,270.1591956148105,633.2766260274241,326.9227105598619,627.1875,333.83572279978813S598.6182676353903,358.9330295931444,585.375,361.9651748742409S557.4417689117452,352.08329048570033,543.5625,352.9822926730792S515.4311284608691,365.50899956515497,501.75,367.38181881979773S473.37941736465064,368.0874510152867,459.9375,370.6684548571517S431.9706345758971,391.06175133654705,418.125,392.18955233507836S390.22922698740086,392.90839253178,376.3125,393.44606561558453S347.3583609588397,399.26813855268136,334.5,402.99318342704396S305.9146447969512,414.6067982798823,292.6875,417.6720831162383S264.8025013870846,421.99943741448436,250.875,422.3726072086111S222.90197407407857,421.0774527132999,209.0625,419.91270928216267S181.1722686107889,415.7951417190526,167.25,415.33464688530046S139.3340858476315,415.46629901245586,125.4375,416.22033285173086S97.54457954352141,420.89243021042734,83.625,421.3918751217139S55.713100178781836,418.5046692367867,41.8125,419.2208603156352S6.805321234829862,424.64582664250116,0,425.7004285797241Z"></path><path opacity="0.85" id="path_616" class="layer" fill="#5E1F05" d="M0,409.52567920040474C4.232945586918155,406.12266418177404,28.00902441270466,377.27127621050573,41.8125,375.911128163832S69.70797537791955,400.75174001347006,83.625,401.28555303190706S111.50034443920475,401.893908426234,125.4375,401.8246227655402S153.88482382472029,400.6927185630337,167.25,397.92699826866254S195.17638448225517,385.364406198305,209.0625,384.5196986415643S237.23708108121815,384.73132122544655,250.875,386.7526234035619S278.7687805096382,411.2342326673086,292.6875,411.74550621986185S320.6171462842836,390.69540696634226,334.5,389.8244038832153S362.4912009757966,389.54322111166545,376.3125,388.2759214496325S409.8229277994734,362.3643503140935,418.125,355.5243409228658S449.5373919124797,325.4433827663968,459.9375,319.3779678393115S490.104874613031,311.9203823104934,501.75,306.75366286749573S533.5968935922058,275.9837056924046,543.5625,282.2751545107264S578.1050227887109,366.5097171325591,585.375,359.5474805142245S625.4233541147844,206.8242034516978,627.1875,202.19002902998366S666.8365091291179,143.10013501068823,669,139.8758313249183L669,143.86017835298776C666.6864163867839,147.14196394459148,629.0083543620717,198.47352826476256,627.1875,203.17061747655092S592.5485174014173,352.6140982017268,585.375,359.579839143925S553.7819188175657,290.5376120439238,543.5625,284.3734714873656S512.8791315066729,303.54839057021434,501.75,309.1389810829807S470.41876365584284,320.36274220906614,459.9375,326.38152318032746S427.20586912273495,350.518995689851,418.125,357.1599616868937S389.3024434274562,384.02927317136664,376.3125,387.537649757718S347.777324700326,389.4584714697603,334.5,392.41910684293725S306.56985542337225,415.77303383841,292.6875,416.6479833297624S263.78614853764356,401.32990102025735,250.875,397.68965704734677S222.93509181093202,392.12134894404267,209.0625,393.07026664970886S180.85102450114425,401.2705476178589,167.25,403.4098025124359S139.3436434673123,405.562994304233,125.4375,406.22333394577555S97.01572608619225,411.822266775678,83.625,409.1164028266083S55.6130878860388,380.56484445015457,41.8125,381.93942353532384S4.048999759126176,414.00737499770673,0,417.44569842955644Z"></path><path opacity="0.85" id="path_506" class="layer" fill="red" d="M0,400.82557722553344C4.336900262694902,397.44710570469863,27.97695097003279,369.4410517587734,41.8125,368.25338697250527S69.69998193802297,393.23017202138254,83.625,393.6470787404677S111.50022242476905,394.12373502031437,125.4375,394.0680574148887S153.87992929439363,392.9569526351382,167.25,390.20257978701557S195.16425893435695,377.5791103158384,209.0625,376.84044250574175S237.16213376637128,377.0168809106716,250.875,378.7719799932894S278.76052666477483,403.9841853014503,292.6875,404.367075076226S320.8465872021802,383.04051181685884,334.5,381.07105507908966S363.35607268313396,380.30609654101596,376.3125,376.74081998630277S409.8347526598797,335.21164323935193,418.125,328.3693394356207S448.15622830873866,312.7615990900934,459.9375,307.72144913859006S490.3513489803686,297.9732392877301,501.75,292.59369901752405S534.4600108667313,261.62096870279566,543.5625,268.25501979346853S577.7424521177036,360.4781049019807,585.375,353.5410414790359S625.5071075560838,196.78836750506537,627.1875,192.25000316077666S666.9407677672118,130.86820762265125,669,127.68861059886211L669,138.8758313249183C666.8365091291179,142.10013501068823,628.9516458852156,196.55585460826953,627.1875,201.19002902998366S592.6449772112891,351.5852438958899,585.375,358.5474805142245S553.5281064077942,287.5666033290482,543.5625,281.2751545107264S513.3951253869691,300.5869434244981,501.75,305.75366286749573S470.3376080875203,312.31255291222624,459.9375,318.3779678393115S426.4270722005266,347.6843315316381,418.125,354.5243409228658S390.1337990242034,386.00862178759957,376.3125,387.2759214496325S348.3828537157164,387.9534008000884,334.5,388.8244038832153S306.6062194903618,411.2567797724151,292.6875,410.74550621986185S264.51291891878185,387.7739255816773,250.875,385.7526234035619S222.94861551774483,382.67499108482355,209.0625,383.5196986415643S180.61517617527971,394.1612779742914,167.25,396.92699826866254S139.37465556079525,400.7553371048464,125.4375,400.8246227655402S97.54202462208045,400.81936605034406,83.625,400.28555303190706S55.61597558729534,373.5509801171583,41.8125,374.911128163832S4.232945586918155,405.12266418177404,0,408.52567920040474Z"></path><path opacity="0.85" id="path_206" class="layer" fill="#330000" d="M0,399.67723001005476C4.237837341461334,396.2752947313311,27.983379051078906,367.3363831907223,41.8125,366.1121336223338S69.69962022503422,391.86333892057786,83.625,392.27416581424427S111.50021102075831,392.74314280663026,125.4375,392.6889112909839S153.8973382246343,391.56336100880486,167.25,388.76887590294956S195.12836316144828,375.40409853224526,209.0625,375.1876204690834S236.94794942508548,374.36723661214876,250.875,374.74872012639844S278.75183815925834,400.06694020863534,292.6875,399.90689032318204S321.262453686817,376.8322503468702,334.5,373.7882941470664S364.21160573966245,372.1974944243234,376.3125,367.4832000069599S409.48858318104385,325.62188273145824,418.125,318.85561611363624S448.13732321369895,306.9885866778439,459.9375,301.96655603565216S492.0496066911208,289.67675217442763,501.75,283.2656991099494S534.4063158439589,240.0817088203376,543.5625,246.6982493344949S576.5321609000579,350.4077222625534,585.375,343.6956982304169S626.4042148605876,186.43385741319312,627.1875,183.22395071346847S668.6514443757118,2.519047722599993,669,1.0000000000001137L669,126.68861059886211C666.9407677672118,129.86820762265125,628.8678924439162,186.71163881648795,627.1875,191.25000316077666S593.0075478822964,345.60397805609114,585.375,352.5410414790359S552.6649891332687,273.8890708841414,543.5625,267.25501979346853S513.1486510196314,286.214158747318,501.75,291.59369901752405S471.71877169126134,301.6812991870867,459.9375,306.72144913859006S426.4152473401203,320.5270356318895,418.125,327.3693394356207S389.26892731686604,372.1755434315896,376.3125,375.74081998630277S348.1534127978198,378.1015983413205,334.5,380.07105507908966S306.61447333522517,403.7499648510017,292.6875,403.367075076226S264.5878662336287,379.5270790759072,250.875,377.7719799932894S222.96074106564305,375.1017746956451,209.0625,375.84044250574175S180.62007070560637,386.44820693889295,167.25,389.20257978701557S139.37477757523095,393.012379809463,125.4375,393.0680574148887S97.55001806197703,393.06398545955284,83.625,392.6470787404677S55.64804902996721,366.0657221862371,41.8125,367.25338697250527S4.336900262694902,396.44710570469863,0,399.82557722553344Z"></path></g><g class="text_layers"><text class="label" style="font-weight: lighter; " font-size="18px" font-family="PT Sans Narrow" dy="6" opacity="1" pointer-events="none" text-anchor="middle" fill="#333333" x="627.1875" y="393.55082392400874">Foodstuffs</text><text class="label" style="font-weight: lighter; " font-size="18px" font-family="PT Sans Narrow" dy="6" opacity="1" pointer-events="none" text-anchor="middle" fill="#ffffff" x="501.75" y="338.2603999513892">Stone / Glass</text></g></g></g></svg>