<svg width="748" height="520" style="z-index: 10; position: absolute; "><rect id="svgbg" fill="#ffffff" width="748" height="520"></rect><g class="titles"></g><clipPath id="clipping"><rect width="748" height="520"></rect></clipPath><g class="parent" width="748" height="520" clip-path="url(#clipping)" transform="translate(0,0)"><g class="axes_labels"><text class="x_axis_label" x="374" y="510" font-family="sans-serif" font-size="14px" font-weight="lighter" fill="#333" text-anchor="middle">Year</text><text class="y_axis_label" y="15" x="-242.5" transform="rotate(-90)" font-family="sans-serif" font-size="14px" font-weight="lighter" fill="#333" text-anchor="middle">Current</text></g><g class="chart" transform="translate(40.00001900000002,5)"><rect style="fill: #fafafa; " id="background" x="0" y="0" width="697.9999809999999" height="474.9999861231606" stroke-width="1" stroke="#ccc" shape-rendering="crispEdges"></rect><g transform="translate(0,475)" class="xaxis"><path class="domain" d="M0,0V0H698V0"></path></g><g class="yaxis"><path class="domain" d="M0,0H0V475H0"></path></g><clipPath id="path_clipping"><rect width="697.9996397037037" height="474.99973685400903" y="1" x="1"></rect></clipPath><g class="layers" clip-path="url(#path_clipping)"><path opacity="0.85" id="path_906" class="layer" fill="#7f7f7f" d="M0,445.84407919790044C6.778049709309191,445.0334412456466,27.512360694037973,441.32275755045265,41.25,440.91068139697484S68.75794589938448,441.10885083816174,82.5,441.439294447904S110.05354468879642,443.58536910456274,123.75,444.44174077460593S151.26507183039914,446.14262770261524,165,446.5976117769702S192.5000003161654,447.1725558312153,206.25,447.17464084301423S233.75000129638295,447.1835716135005,247.5,447.17934961586707S275.00026696858765,446.05725052644954,288.75,445.9966638380747S316.25359833938455,445.9885026561284,330,445.7660971290131S357.5035832036385,441.0294855222674,371.25,440.8075481196471S398.7503731629962,444.36249564057607,412.5,444.43412560600325S440.0027163297317,444.83349307253326,453.75,444.64025188809325S481.3755169173482,435.40031842853415,495,434.09260931829715S522.5073938436434,436.4029485149057,536.25,436.7217128183853S563.7500008702515,436.4047222984361,577.5,436.4012631140212S605.0006587955355,436.4013305143622,618.75,436.4965040642699S653.2261621630222,440.70968946259114,660,441.53749142414364L660,447.24632126782274C653.125,447.24632126782274,632.5,447.24632126782274,618.75,447.24632126782274S591.25,447.24632126782274,577.5,447.24632126782274S550,447.24632126782274,536.25,447.24632126782274S508.75,447.24632126782274,495,447.24632126782274S467.5,447.24632126782274,453.75,447.24632126782274S426.25,447.24632126782274,412.5,447.24632126782274S385,447.24632126782274,371.25,447.24632126782274S343.75,447.24632126782274,330,447.24632126782274S302.5,447.24632126782274,288.75,447.24632126782274S261.25,447.24632126782274,247.5,447.24632126782274S220,447.24632126782274,206.25,447.24632126782274S178.75,447.24632126782274,165,447.24632126782274S137.5,447.24632126782274,123.75,447.24632126782274S96.25,447.24632126782274,82.5,447.24632126782274S55,447.24632126782274,41.25,447.24632126782274S6.875,447.24632126782274,0,447.24632126782274Z"></path><path opacity="0.85" id="path_316" class="layer" fill="#f7b6d2" d="M0,441.71545549757C6.693325185140674,440.612727691716,27.532401725611205,435.58619142828024,41.25,434.9195027038132S68.76371158998268,435.2825700478934,82.5,435.71655893549524S110.09332509874325,437.6902995799531,123.75,438.819241798875S151.30461920564431,441.6716133555621,165,442.53650110549495S192.50392122704892,443.79709714366464,206.25,444.02926410061843S233.7528797078525,444.5340680799715,247.5,444.3351015243534S275.0038602828205,442.71834061840303,288.75,442.48798440077826S316.3179303408032,442.4561744672346,330,441.49210618394636S357.52742936967076,431.14750805824065,371.25,430.5339924002071S398.77702219855905,437.19470023191093,412.5,437.8036542785942S440.16138591548656,437.666605941565,453.75,436.1857241352677S481.4593900244126,425.6074432542919,495,423.9236176536581S522.5024733549149,425.82779725101057,536.25,425.643399548761S563.7500214748022,422.8036757047021,577.5,422.78649204766197S605.0000747530953,422.71805696963395,618.75,422.75011706120875S653.2422919517654,427.2943067031279,660,428.1846014669216L660,440.53749142414364C653.2261621630222,439.70968946259114,632.4993416000549,435.59164903657523,618.75,435.4965040642699S591.2499991220981,435.39778875777654,577.5,435.4012631140212S549.9925367119305,436.0419697625515,536.25,435.7217128183853S508.6244830826518,431.78490020806015,495,433.09260931829715S467.4972836702683,443.44701070365323,453.75,443.64025188809325S426.2496268370038,443.5057555714304,412.5,443.43412560600325S384.9964167963615,439.5856107170268,371.25,439.8075481196471S343.74640166061545,444.54369160189776,330,444.7660971290131S302.49973303141235,444.9360771496999,288.75,444.9966638380747S261.24999870361705,446.17512761823366,247.5,446.17934961586707S219.9999996838346,446.1767258548132,206.25,446.17464084301423S178.73492816960086,446.0525958513252,165,445.5976117769702S137.44645531120358,444.2981124446491,123.75,443.44174077460593S96.24205410061552,440.76973805764624,82.5,440.439294447904S54.98763930596203,439.498605243497,41.25,439.91068139697484S6.778049709309191,444.0334412456466,0,444.84407919790044Z"></path><path opacity="0.85" id="path_306" class="layer" fill="#e377c2" d="M0,436.69593593479686C6.638001480233634,435.4416646224317,27.610948455250288,430.1317531845497,41.25,428.9016183545538S68.7522828237049,427.4717291387142,82.5,427.6488833502314S110.08740746562334,429.10140405580404,123.75,430.1942043977121S151.2660256881234,433.77848872128766,165,434.2476330370548S192.51213235097296,434.4619346540463,206.25,434.87019025038023S233.7500243383743,438.3338781546283,247.5,438.3155846570386S275.1093984114621,435.98201007285496,288.75,434.76042907055785S317.2874743437074,434.27556154934314,330,430.64390638783266S357.5244877458608,410.8678983223043,371.25,410.28815108782265S398.9407025543716,425.5511769984171,412.5,427.1592170036303S441.17872911880687,423.9215187592991,453.75,420.0720872365842S482.16424812401544,405.3226534448547,495,401.8970057582199S522.5569734840083,398.93747085328766,536.25,398.0542158350545S563.8088333817014,397.4729207408968,577.5,396.5754255422513S605.528623912299,395.2898017891409,618.75,392.64610446277055S653.7089104318056,381.99565167955575,660,380.0790315225365L660,427.1846014669216C653.2422919517654,426.2943067031279,632.4999252469047,421.78217715278356,618.75,421.75011706120875S591.2499785251978,421.76930839062186,577.5,421.78649204766197S549.9975266450851,424.45900184651146,536.25,424.643399548761S508.5406099755874,421.23979205302425,495,422.9236176536581S467.33861408451344,433.7048423289704,453.75,435.1857241352677S426.22297780144095,437.41260832527746,412.5,436.8036542785942S384.97257063032924,428.9204767421736,371.25,429.5339924002071S343.6820696591968,439.52803790065815,330,440.49210618394636S302.4961397171795,441.2576281831535,288.75,441.48798440077826S261.2471202921475,443.13613496873523,247.5,443.3351015243534S219.99607877295108,443.2614310575722,206.25,443.02926410061843S178.69538079435569,442.4013888554278,165,441.53650110549495S137.40667490125674,438.9481840177969,123.75,437.819241798875S96.23628841001732,435.1505478230971,82.5,434.71655893549524S54.96759827438879,433.2528139793461,41.25,433.9195027038132S6.693325185140674,439.612727691716,0,440.71545549757Z"></path><path opacity="0.85" id="path_716" class="layer" fill="#9edae5" d="M0,428.020058235111C5.590993933122931,425.34071687388007,27.57611882156014,409.2722624795002,41.25,408.2520469525373S68.76179390125243,406.7473571195263,82.5,407.1498829523794S110.04110793890351,415.6971198913575,123.75,416.44781576671744S151.33060980974062,418.7943854806087,165,417.7446774533425S192.5272834949079,400.9782763577629,206.25,401.5901616949702S233.75518136526756,421.15642378085124,247.5,421.4232887764628S275.0000838356167,421.731495304247,288.75,421.6975433867645S317.85856238309054,421.1119350905105,330,416.6926297347785S359.48857230862603,370.98264871140066,371.25,366.1464881043722S398.9212755910606,381.24457503632135,412.5,382.7696009538026S441.90512947485075,380.16242899802023,453.75,375.4120593320623S482.2024384957039,353.17434413129973,495,349.68308501346985S523.3138635991136,341.3427375929288,536.25,344.58746416536127S569.2853497838771,384.76735801475314,577.5,378.024141994304S606.4857702758262,281.133829089598,618.75,276.86512577593453S658.316724630013,346.352890368128,660,349.3090876209269L660,379.0790315225365C653.7089104318056,380.99565167955575,631.971376087701,389.0024071364002,618.75,391.64610446277055S591.1911666182986,394.6779303436058,577.5,395.5754255422513S549.9430265159917,396.1709608168213,536.25,397.0542158350545S507.83575187598456,397.4713580715851,495,400.8970057582199S466.32127088119313,415.2226557138693,453.75,419.0720872365842S426.0592974456284,427.76725700884356,412.5,426.1592170036303S384.9755122541392,408.708403853341,371.25,409.28815108782265S342.7125256562926,426.0122512263222,330,429.64390638783266S302.3906015885379,432.53884806826073,288.75,433.76042907055785S261.24997566162574,437.2972911594489,247.5,437.3155846570386S219.98786764902704,434.2784458467142,206.25,433.87019025038023S178.7339743118766,433.71677735282196,165,433.2476330370548S137.41259253437664,430.28700473962016,123.75,429.1942043977121S96.2477171762951,426.82603756174865,82.5,426.6488833502314S54.88905154474971,426.6714835245579,41.25,427.9016183545538S6.638001480233634,434.4416646224317,0,435.69593593479686Z"></path><path opacity="0.85" id="path_706" class="layer" fill="#17becf" d="M0,409.6047132652226C4.231813587261812,406.260244372395,28.639972112354116,380.79563722003616,41.25,377.0041889310674S68.80268260505517,371.9334796923644,82.5,372.782956215073S110.63737326523922,381.70829223692806,123.75,384.5992501608345S151.2866839616507,391.68110520372943,165,390.9718388506188S192.83493064118557,378.2125704876439,206.25,380.3322680561419S234.54919580661618,400.7903788915041,247.5,404.0075559776558S275.1645024169341,409.28237857092034,288.75,407.787438041111S324.45388787744645,397.7413201212723,330,390.99597491074553S362.39386643889804,307.02000692645765,371.25,300.43663888167424S399.25999215183055,327.06957976562467,412.5,329.6680985923298S445.89730875484526,323.4334326268969,453.75,316.6283062629601S489.2794043544031,264.95115238912314,495,258.17376531248846S522.5210970591964,218.34952758304948,536.25,218.88770922343235S569.0598018822361,268.10227615447945,577.5,261.40781726281773S607.399756682249,148.23271605599763,618.75,153.45170276290963S659.4910632261597,297.54239116505494,660,299.3423699650371L660,348.3090876209269C658.316724630013,345.352890368128,631.0142297241738,271.59642246227105,618.75,275.86512577593453S585.7146502161229,370.28092597385483,577.5,377.024141994304S549.1861364008864,346.8321907377937,536.25,343.58746416536127S507.7975615042961,345.19182589563997,495,348.68308501346985S465.59487052514925,369.6616896661044,453.75,374.4120593320623S426.0787244089394,383.2946268712838,412.5,381.7696009538026S383.01142769137397,360.3103274973438,371.25,365.1464881043722S342.15160770341663,411.28547235793746,330,415.6926297347785S302.4999135452444,420.6630651992331,288.75,420.6975433867645S261.2446183376525,420.6952610084793,247.5,420.4232887764628S219.9727165050921,401.2020470321775,206.25,400.5901616949702S178.66939019025938,415.6949694260763,165,416.7446774533425S137.4588920610965,416.1985116420774,123.75,415.44781576671744S96.23820609874757,406.5524087852325,82.5,406.1498829523794S54.923881178439856,406.23183142557434,41.25,407.2520469525373S5.590993933122931,424.34071687388007,0,427.020058235111Z"></path><path opacity="0.85" id="path_416" class="layer" fill="#2ca02c" d="M0,407.37442744804764C4.027387821433325,403.9879191270591,28.011998642913852,375.2919812863697,41.25,372.68855302161575S68.76772122373264,369.446382716279,82.5,369.9396907179911S110.45065757108657,377.0783699450588,123.75,379.52652217808327S151.29265125786625,385.89096299401353,165,385.1263482767452S192.8681387678537,372.70501357273116,206.25,374.92455900042387S234.63160736870526,395.4417681323294,247.5,398.8099827583801S275.5610514843889,406.1122706828754,288.75,403.39203555660197S326.47329696238506,382.3824328139115,330,376.37789016257807S362.12253819213447,269.42358888016474,371.25,262.92804880992367S400.10881804177046,313.56359356696834,412.5,317.6669289911937S443.3309289529175,314.5483216944178,453.75,308.65721098308063S490.137132474625,246.1613670917958,495,239.58740725737638S522.6415258971044,198.5158054433682,536.25,197.12801889435016S568.8806872509209,237.82412889529283,577.5,231.17409144927794S609.4733200703593,127.03513425922836,618.75,133.47699412386066S659.5452102863678,286.7545215431255,660,288.46327711300535L660,298.3423699650371C659.4910632261597,296.54239116505494,630.100243317751,157.67068946982164,618.75,152.45170276290963S585.9401981177639,253.71335837115603,577.5,260.40781726281773S549.9789029408036,218.42589086381523,536.25,217.88770922343235S500.7205956455969,250.39637823585375,495,257.17376531248846S461.60269124515474,308.82317989902333,453.75,315.6283062629601S425.74000784816945,331.2666174190349,412.5,328.6680985923298S380.10613356110196,292.85327083689083,371.25,299.43663888167424S335.56740759036273,383.2464692184552,330,389.99597491074553S302.33253448216385,405.2792582870422,288.75,406.787438041111S260.43215965103275,406.2597001875427,247.5,403.0075559776558S219.66506935881443,381.4519656246399,206.25,379.3322680561419S178.7133160383493,389.26257249750813,165,389.9718388506188S136.86262673476077,386.49020808474097,123.75,383.5992501608345S96.19731739494483,372.6324327377816,82.5,371.782956215073S53.860027887645884,372.21274064209865,41.25,376.0041889310674S4.231813587261812,405.260244372395,0,408.6047132652226Z"></path><path opacity="0.85" id="path_406" class="layer" fill="#98df8a" d="M0,406.41224660322473C4.021496572260272,403.0247173777289,27.917862106725707,374.0253832490006,41.25,371.66508766851894S68.76631193698498,368.71180900671675,82.5,369.1851197442404S110.44750195551462,376.47212957204835,123.75,378.91198487270384S151.29444222680948,385.09717057544043,165,384.31671845832716S192.87388411480057,371.97777001826483,206.25,374.2140878058808S234.62199461990684,394.7586251370634,247.5,398.10967742053685S275.5651389626767,405.4116358609115,288.75,402.6819328203465S326.527615379606,381.433939053783,330,375.4600095615251S362.1551451800323,267.2547621172356,371.25,260.74800642962396S400.15656912700933,312.2700595564412,412.5,316.4368195432082S443.38002767342965,313.2375441666071,453.75,307.3171731109631S490.17735409866293,244.23806297181065,495,237.6765488436767S522.6716440339626,196.59736077545674,536.25,195.0707161564994S568.8609815144831,235.04572859594802,577.5,228.4008912177457S609.7117655429229,125.08874127230811,618.75,131.6145394368022S659.5526118403801,286.2718814103353,660,287.9676518641463L660,287.46327711300535C659.5452102863678,285.7545215431255,628.0266799296407,138.91885398849297,618.75,132.47699412386066S586.1193127490791,223.52405400326305,577.5,230.17409144927794S549.8584741028956,194.74023234533212,536.25,196.12801889435016S499.862867525375,232.01344742295697,495,238.58740725737638S464.1690710470825,301.7661002717435,453.75,307.65721098308063S424.89118195822954,320.77026441541904,412.5,316.6669289911937S380.37746180786553,255.43250873968262,371.25,261.92804880992367S333.52670303761494,369.3733475112446,330,375.37789016257807S301.9389485156111,399.6718004303285,288.75,402.39203555660197S260.36839263129474,401.1781973844308,247.5,397.8099827583801S219.6318612321463,376.1441044281166,206.25,373.92455900042387S178.70734874213375,383.3617335594769,165,384.1263482767452S137.04934242891343,380.97467441110774,123.75,378.52652217808327S96.23227877626736,369.43299871970316,82.5,368.9396907179911S54.48800135708615,369.0851247568618,41.25,371.68855302161575S4.027387821433325,402.9879191270591,0,406.37442744804764Z"></path><path opacity="0.85" id="path_426" class="layer" fill="#3ab11a" d="M0,405.252091954874C4.010345153283316,401.86265915861446,27.882618120624656,372.650281643874,41.25,370.3887329416881S68.7676292060053,367.5188287388304,82.5,368.0108559674147S110.45629511371175,375.81277006763884,123.75,378.27566523039735S151.31097671894003,384.2090732278846,165,383.29544763434393S192.92950729592854,370.37758040298985,206.25,372.76949361248586S234.35656250698898,395.286148352825,247.5,398.10967742053685S275.45351085392747,404.4606336998929,288.75,402.0050070697082S326.7003590861079,378.84836302799886,330,372.97618860914974S362.2133032850726,261.7109782034847,371.25,255.18467049447557S399.7058020072765,309.89768114813785,412.5,313.39463984433917S442.10370084142613,311.3964045516872,453.75,306.44662381519066S490.32519513763015,240.1975325571497,495,233.68410286486403S522.9739110620269,194.00727212600066,536.25,191.49894889958847S568.9440215737953,224.76326060329723,577.5,218.09693203873977S610.5431428713255,120.47491241506852,618.75,127.21967198000476S659.5648092233357,284.2250144426545,660,285.89909495967675L660,286.9676518641463C659.5526118403801,285.2718814103353,627.7882344570771,137.1403376012963,618.75,130.6145394368022S586.1390184855169,220.7560538395434,577.5,227.4008912177457S549.8283559660374,192.54407153754207,536.25,194.0707161564994S499.82264590133707,230.11503471554275,495,236.6765488436767S464.11997232657035,300.3968020553191,453.75,306.3171731109631S424.84343087299067,319.60357952997515,412.5,315.4368195432082S380.3448548199677,253.24125074201234,371.25,259.74800642962396S333.472384620394,368.48608006926725,330,374.4600095615251S301.9348610373233,398.95222977978153,288.75,401.6819328203465S260.37800538009316,400.4607297040103,247.5,397.10967742053685S219.62611588519943,375.4504055934968,206.25,373.2140878058808S178.70555777319052,382.5362663412139,165,383.31671845832716S137.0524980444854,380.35184017335934,123.75,377.91198487270384S96.23368806301502,368.65843048176407,82.5,368.1851197442404S54.58213789327429,368.3047920880373,41.25,370.66508766851894S4.021496572260272,402.0247173777289,0,405.41224660322473Z"></path><path opacity="0.85" id="path_126" class="layer" fill="#D1FF00" d="M0,402.20074817801185C4.020865329230935,398.81311018928704,28.433873096155505,370.90659008865737,41.25,367.4470184226248S68.76011215696079,363.343914469129,82.5,363.71666090102667S110.4484462923825,368.8723161422975,123.75,371.3146577324744S151.28345908817903,379.54220783013216,165,378.86475454622257S192.62667609237815,365.92634503169626,206.25,367.2400228604729S234.4501031585407,383.79748569321,247.5,386.82011269589094S275.8252539121815,394.79926687779204,288.75,391.533352415819S326.94789112183065,366.0313933344798,330,360.31727673865953S362.8270745455127,243.7764519647723,371.25,237.07797812460913S399.11828971910927,292.4877693333805,412.5,294.70775724338154S440.8634738771336,293.8160105540891,453.75,290.480267956991S490.9000871985256,217.67235990973126,495,211.38232683823003S523.1394350842589,166.8052398530313,536.25,163.90983743167794S569.8097700912083,199.9891105033754,577.5,193.16261614713284S611.0299441601138,83.85303772811426,618.75,90.67590410724512S659.6396810275857,264.5427340646429,660,266.07484475694525L660,284.89909495967675C659.5648092233357,283.2250144426545,626.9568571286745,132.964431544941,618.75,126.21967198000476S586.0559784262047,210.4306034741823,577.5,217.09693203873977S549.5260889379731,187.99062567317628,536.25,190.49894889958847S499.67480486236985,226.17067317257835,495,232.68410286486403S465.39629915857387,300.4968430786941,453.75,305.44662381519066S425.2941979927235,315.8915985405405,412.5,312.39463984433917S380.2866967149274,247.65836278546644,371.25,254.18467049447557S333.2996409138921,366.10401419030063,330,371.97618860914974S302.04648914607253,398.5493804395235,288.75,401.0050070697082S260.64343749301105,399.9332064882487,247.5,397.10967742053685S219.57049270407146,374.16140682198187,206.25,371.76949361248586S178.68902328105997,381.3818220408033,165,382.29544763434393S137.04370488628825,379.73856039315586,123.75,377.27566523039735S96.2323707939947,367.50288319599906,82.5,367.0108559674147S54.617381879375344,367.1271842395022,41.25,369.3887329416881S4.010345153283316,400.86265915861446,0,404.252091954874Z"></path><path opacity="0.85" id="path_106" class="layer" fill="#FFE999" d="M0,401.8254792753824C4.057042228730953,398.44427036778455,28.65256117724306,371.2574408296296,41.25,367.4470184226248S68.75993789192475,362.90204386762815,82.5,363.2715668740424S110.169438582624,369.3580078891868,123.75,370.87493606078834S151.400200197294,374.4129338489333,165,372.98370587078375S192.7060202641166,360.066813116439,206.25,361.7372424871029S235.1321708099326,379.0241937584925,247.5,383.1587375650985S276.08049222828714,393.0167551635996,288.75,389.3168491264739S327.0881044628627,364.68384713526075,330,359.0660692813012S363.0622887583785,236.90214010956092,371.25,230.15362811089628S399.2541571796357,288.4833700089977,412.5,291.0675501029951S441.12754576653975,289.93251898173514,453.75,286.15993434593435S490.9861616356826,211.5185742340097,495,205.2672240522891S523.0380946443886,160.33667695874783,536.25,157.67035823923533S569.7724523290317,195.43968285576702,577.5,188.61774856491326S610.346322385785,78.13587620448905,618.75,84.83876884511801S659.6159432225147,252.84203140693617,660,254.4209204900827L660,265.07484475694525C659.6396810275857,263.5427340646429,626.4700558398862,96.49877048637597,618.75,89.67590410724512S585.1902299087917,185.33612179089027,577.5,192.16261614713284S549.3605649157411,160.01443501032458,536.25,162.90983743167794S499.0999128014744,204.0922937667288,495,210.38232683823003S466.6365261228664,286.1445253598929,453.75,289.480267956991S425.88171028089073,295.92774515338255,412.5,293.70775724338154S379.6729254544873,229.37950428444597,371.25,236.07797812460913S333.05210887816935,353.6031601428393,330,359.31727673865953S301.6747460878185,387.267437953846,288.75,390.533352415819S260.54989684145926,388.8427396985719,247.5,385.82011269589094S219.87332390762185,367.5537006892495,206.25,366.2400228604729S178.71654091182097,377.187301262313,165,377.86475454622257S137.0515537076175,372.7569993226513,123.75,370.3146577324744S96.23988784303921,363.08940733292434,82.5,362.71666090102667S54.06612690384449,362.98744675659225,41.25,366.4470184226248S4.020865329230935,397.81311018928704,0,401.20074817801185Z"></path><path opacity="0.85" id="path_116" class="layer" fill="#FFC41C" d="M0,401.8254792753824C3.9760801046309475,398.4304332195982,30.369701981183617,372.1912134596151,41.25,366.60343995127874S68.75034553748516,359.3871869583818,82.5,359.4561146090368S110.30055611275125,365.00646593231846,123.75,367.01701624838057S151.59282890291666,373.93291001442344,165,371.788996359812S192.52959106641043,353.18742536053946,206.25,353.8246078555378S235.24166510024887,371.3442016924761,247.5,375.6203366713S275.9800389811963,386.1411497804216,288.75,382.6034867683775S327.3619250057334,358.17960600969843,330,352.76535707787133S363.1823833101159,220.05551304336174,371.25,213.28474569903437S400.10768758114875,279.42521188469993,412.5,283.52702717464047S442.4599829436582,280.9288763936575,453.75,275.65884324459563S491.1927359192777,201.71679092196985,495,195.56417998598718S523.0615515553144,145.0586746848228,536.25,142.33727913542236S569.4480842633022,185.31407430917164,577.5,178.54056012902015S607.0425838479798,68.04566202488029,618.75,72.93579281389748S659.4512931895797,211.13727171798894,660,213.00040889969026L660,253.4209204900827C659.6159432225147,251.84203140693617,627.153677614215,90.54166148574697,618.75,83.83876884511801S585.2275476709683,180.7958142740595,577.5,187.61774856491326S549.4619053556114,154.00403951972282,536.25,156.67035823923533S499.0138383643174,198.0158738705685,495,204.2672240522891S466.37245423346025,281.38734971013355,453.75,285.15993434593435S425.7458428203643,292.65173019699245,412.5,290.0675501029951S379.4377112416215,222.40511611223164,371.25,229.15362811089628S332.9118955371373,352.4482914273417,330,358.0660692813012S301.41950777171286,384.61694308934824,288.75,388.3168491264739S259.8678291900674,386.29328137170444,247.5,382.1587375650985S219.7939797358834,362.4076718577668,206.25,360.7372424871029S178.599799802706,370.5544778926342,165,371.98370587078375S137.330561417376,371.3918642323899,123.75,369.87493606078834S96.24006210807525,362.6410898804566,82.5,362.2715668740424S53.84743882275694,362.63659601562,41.25,366.4470184226248S4.057042228730953,397.44427036778455,0,400.8254792753824Z"></path><path opacity="0.85" id="path_606" class="layer" fill="#D66011" d="M0,401.8254792753824C3.9085734795073157,398.4204101091385,30.200263754265865,371.35166811925,41.25,365.8893240914032S68.75083490537264,358.98414169303885,82.5,359.09128296336365S110.26598727882347,364.6691399248101,123.75,366.5629656431186S151.60065621569697,372.84600123192075,165,370.6783842952305S192.53438496536225,352.5301699277503,206.25,353.21690928725155S234.6356737021488,371.4337103161195,247.5,374.8091503611904S275.6585193463113,382.5329441485824,288.75,379.596791345625S327.2703959354091,357.2817302406368,330,351.79708644739975S363.29499385695976,217.21037088506546,371.25,210.42073085550606S400.2233694360761,277.1298975194608,412.5,281.3828979016479S442.7974116152369,278.493246517659,453.75,272.9580050627227S491.2680763103199,196.2663469392046,495,190.1518807885496S523.0110277935189,140.3892381421223,536.25,137.78818397983804S569.5707453229604,180.73683377671009,577.5,173.94314758466822S607.1530454762242,62.10634019408772,618.75,67.1032162657342S659.4676745075593,207.6531180762796,660,209.49060748594363L660,212.00040889969026C659.4512931895797,210.13727171798894,630.4574161520202,76.82592360291467,618.75,71.93579281389748S585.5519157366978,170.76704594886866,577.5,177.54056012902015S549.4384484446856,138.61588358602194,536.25,141.33727913542236S498.8072640807223,188.41156905000452,495,194.56417998598718S465.0400170563418,269.38881009553376,453.75,274.65884324459563S424.89231241885125,286.628842464581,412.5,282.52702717464047S379.3176166898841,205.513978354707,371.25,212.28474569903437S332.6380749942666,346.3511081460442,330,351.76535707787133S301.5199610188037,378.0658237563334,288.75,381.6034867683775S259.7583348997511,378.8964716501239,247.5,374.6203366713S219.97040893358957,353.46179035053615,206.25,352.8246078555378S178.40717109708334,368.6450827052006,165,370.788996359812S137.19944388724875,368.0275665644427,123.75,366.01701624838057S96.24965446251484,358.52504225969176,82.5,358.4561146090368S52.13029801881638,360.0156664429424,41.25,365.60343995127874S3.9760801046309475,397.4304332195982,0,400.8254792753824Z"></path><path opacity="0.85" id="path_616" class="layer" fill="#5E1F05" d="M0,399.2651057104681C3.8929241939910666,395.8579081738513,30.516462995724552,368.8520441031194,41.25,363.1619371457207S68.75448186437502,355.28166040369683,82.5,355.52986505322673S110.2958738611205,362.6564753780202,123.75,364.6516506206274S151.62323264825346,369.998598650601,165,367.76417561461096S192.5451477275657,350.08444695654174,206.25,350.87104910294374S235.05421529636632,368.4704427621521,247.5,372.499336256123S275.9914235416383,381.9298741276955,288.75,378.3733093442827S327.51104715086126,354.11068574750163,330,348.8165176928946S364.0545378058616,209.75785589554422,371.25,202.8903287582023S400.87056843262275,265.11049175848854,412.5,270.07647660251763S445.3885316663749,264.28623425463053,453.75,257.5738548782S492.3149735233763,172.7246703762682,495,167.274005566045S523.4369481147301,93.56182567993314,536.25,90.09697866919186S568.8844590226475,151.6157577476189,577.5,144.96473210444498S605.7987012139416,23.19238276115293,618.75,26.408625609966577S659.4438596311173,163.57764261644647,660,165.45225535676576L660,208.49060748594363C659.4676745075593,206.6531180762796,630.3469545237758,71.10009233738069,618.75,66.1032162657342S585.4292546770396,166.14946139262636,577.5,172.94314758466822S549.4889722064811,134.18712981755377,536.25,136.78818397983804S498.7319236896801,183.03741463789459,495,189.1518807885496S464.7025883847631,266.4227636077864,453.75,271.9580050627227S424.7766305639239,284.63589828383493,412.5,280.3828979016479S379.20500614304024,202.63109082594667,371.25,209.42073085550606S332.74264779494735,345.3026082871559,330,350.79708644739975S301.83268636040856,375.64209084459316,288.75,378.596791345625S260.3477016451252,377.21392055289476,247.5,373.8091503611904S219.96561503463775,352.9036486467528,206.25,352.21690928725155S178.39934378430303,367.51076735854025,165,369.6783842952305S137.23401272117653,367.4567913614271,123.75,365.5629656431186S96.24916509462736,358.19842423368846,82.5,358.09128296336365S52.29973624573414,359.42698006355636,41.25,364.8893240914032S3.9085734795073157,397.4204101091385,0,400.8254792753824Z"></path><path opacity="0.85" id="path_206" class="layer" fill="#330000" d="M0,396.13248334107453C3.851457484829185,392.71999957543494,32.67325139790078,366.24505007581865,41.25,359.58399335069964S68.91804286149714,333.5703256673636,82.5,332.0595805060986S111.1201977475722,346.64600590560485,123.75,350.4073721514591S151.46104729917903,358.319832238931,165,356.6294596760855S192.6950942687867,338.4808509519261,206.25,340.1070380328315S235.62486767823006,361.80850904681284,247.5,366.52701535334586S275.9311006354282,376.5967978586638,288.75,373.1419917361957S327.4660591252144,349.30830987170464,330,343.9771907892424S364.1404900220573,205.33489080047715,371.25,198.4638915958312S401.5850980049037,258.682105046656,412.5,264.24491161079396S449.8601376697069,247.45216776109098,453.75,241.25906045595755S492.96185346829805,135.44186110748504,495,130.55611924711081S525.1135353918268,48.88918536255064,536.25,43.49422990459857S565.6064282990167,95.2886603330941,577.5,90.58977077468887S609.1703897290809,4.579630438368102,618.75,10.900287705016751S659.405897340484,143.09182414393112,660,145.02353266597282L660,164.45225535676576C659.4438596311173,162.57764261644647,631.7012987860584,28.624868458780224,618.75,25.408625609966577S586.1155409773525,137.31370646127107,577.5,143.96473210444498S549.0630518852699,85.63213165845058,536.25,89.09697866919186S497.6850264766237,160.8233407558218,495,166.274005566045S462.1114683336251,249.86147550176946,453.75,256.5738548782S424.12943156737725,274.0424614465467,412.5,269.07647660251763S378.4454621941384,195.02280162086035,371.25,201.8903287582023S332.48895284913874,342.52234963828755,330,347.8165176928946S301.5085764583617,373.8167445608699,288.75,377.3733093442827S259.9457847036337,375.5282297500939,247.5,371.499336256123S219.9548522724343,350.65765124934575,206.25,349.87104910294374S178.37676735174654,364.5297525786209,165,366.76417561461096S137.2041261388795,365.64682586323454,123.75,363.6516506206274S96.24551813562498,354.7780697027566,82.5,354.52986505322673S51.98353700427545,356.471830188322,41.25,362.1619371457207S3.8929241939910666,394.8579081738513,0,398.2651057104681Z"></path><path opacity="0.85" id="path_506" class="layer" fill="red" d="M0,394.4305239442418C3.7613902716279193,391.00831685788006,32.9291775280571,363.6214922416682,41.25,356.9002406930632S68.90819111759251,329.2564092005812,82.5,327.7900860993474S111.35533420305971,343.9012575468423,123.75,347.9999054324367S151.43845286715109,356.6697112215095,165,355.0710516454302S192.66720106424964,336.76765386645246,206.25,338.2746569976856S235.68494642004865,359.4430059208412,247.5,364.22437556009834S275.91124576324995,375.0815505210236,288.75,371.6611323589203S327.5120589931354,347.4715807801747,330,342.1782511672798S364.14034806564257,202.47046559087337,371.25,195.59947123272534S401.63773644874726,256.84696361730784,412.5,262.4476202192476S450.083033983303,244.21766630939828,453.75,238.13702958599725S493.0157234427922,130.47627902448642,495,125.6444626780052S525.0462312627063,42.586353557055325,536.25,37.245250092505216S565.9745930375593,91.37827767700284,577.5,86.31474727977178S608.9380317999007,-5.216095461912093,618.75,1.0000000000001137S659.4329472071979,136.68901356302104,660,138.58029330982998L660,144.02353266597282C659.405897340484,142.09182414393112,628.3296102709191,16.2209449716654,618.75,9.900287705016751S589.3935717009833,84.89088121628365,577.5,89.58977077468887S547.3864646081732,37.0992744466465,536.25,42.49422990459857S497.03814653170195,124.67037738673659,495,129.55611924711081S457.6398623302931,234.06595315082413,453.75,240.25906045595755S423.4149019950963,268.80771817493195,412.5,263.24491161079396S378.3595099779427,190.59289239118525,371.25,197.4638915958312S332.5344602382818,337.6456488380858,330,342.9771907892424S301.56554819714995,368.6814264474981,288.75,372.1419917361957S259.3684748526066,370.2525665271652,247.5,365.52701535334586S219.8049057312133,340.7332251137369,206.25,339.1070380328315S178.53895270082097,353.93908711324,165,355.6294596760855S136.3798022524278,353.1687383973134,123.75,349.4073721514591S96.08195713850286,329.5488353448336,82.5,331.0595805060986S49.82674860209922,351.92293662558063,41.25,358.58399335069964S3.851457484829185,391.71999957543494,0,395.13248334107453Z"></path></g><g class="text_layers"><text class="label" style="font-weight: lighter; " font-size="18px" font-family="PT Sans Narrow" dy="6" opacity="1" pointer-events="none" text-anchor="middle" fill="#333333" x="495" y="367.29004538584485"><tspan x="495" dy="11px">Transportation</tspan></text><text class="label" style="font-weight: lighter; " font-size="18px" font-family="PT Sans Narrow" dy="6" opacity="1" pointer-events="none" text-anchor="middle" fill="#ffffff" x="577.5" y="305.71597962856083"><tspan x="577.5" dy="11px">Machinery</tspan><tspan x="577.5" dy="11px">/ Electrical</tspan></text></g></g></g></svg>