<svg width="748" height="520" style="z-index: 10; position: absolute; "><rect id="svgbg" fill="#ffffff" width="748" height="520"></rect><g class="titles"></g><clipPath id="clipping"><rect width="748" height="520"></rect></clipPath><g class="parent" width="748" height="520" clip-path="url(#clipping)" transform="translate(0,0)"><g class="axes_labels"><text class="x_axis_label" x="374" y="510" font-family="sans-serif" font-size="14px" font-weight="lighter" fill="#333" text-anchor="middle">Year</text><text class="y_axis_label" y="15" x="-242.5" transform="rotate(-90)" font-family="sans-serif" font-size="14px" font-weight="lighter" fill="#333" text-anchor="middle">Current</text></g><g class="chart" transform="translate(40,5)"><rect style="fill: #fafafa; " id="background" x="0" y="0" width="698" height="475" stroke-width="1" stroke="#ccc" shape-rendering="crispEdges"></rect><g transform="translate(0,475)" class="xaxis"><path class="domain" d="M0,0V0H698V0"></path></g><g class="yaxis"><path class="domain" d="M0,0H0V475H0"></path></g><clipPath id="path_clipping"><rect width="698" height="475" y="1" x="1"></rect></clipPath><g class="layers" clip-path="url(#path_clipping)"><path opacity="0.85" id="path_906" class="layer" fill="#7f7f7f" d="M0,430.31660566596094C6.8212505024413765,429.6033398160177,27.638751031840947,426.86270363067047,41.375,425.9902179265223S68.95959224619028,424.92881078605626,82.75,425.06057163617453S110.34777556106766,426.3347903891949,124.125,426.7808551971478S151.72499332183352,428.21881871937114,165.5,427.73976605749743S193.0834921783393,423.9498679687762,206.875,423.90306292479397S234.57292961282408,426.20699750460784,248.25,427.4589325591149S275.89298895407137,430.5725188332965,289.625,431.47761089652886S317.20980413623096,433.0554939510214,331,432.9130767468799S358.60667324061126,431.18989524235724,372.375,430.6230165340461S400.06004054402507,430.485590545435,413.75,429.30560427824787S441.3554683773228,423.62297450415724,455.125,423.07089734634155S482.71569373356834,424.027651112112,496.5,423.7091263703998S524.0971751910479,420.28213589910075,537.875,419.84543154759825S565.4592008733133,421.19564824714547,579.25,421.08626785768644S607.2517525480043,416.2787910408155,620.625,418.6442981104446S657.3999180287062,444.6238319049691,662,447.8735464233678L662,447.24632126782274C655.1041666666666,447.24632126782274,634.4166666666666,447.24632126782274,620.625,447.24632126782274S593.0416666666666,447.24632126782274,579.25,447.24632126782274S551.6666666666666,447.24632126782274,537.875,447.24632126782274S510.2916666666667,447.24632126782274,496.5,447.24632126782274S468.9166666666667,447.24632126782274,455.125,447.24632126782274S427.5416666666667,447.24632126782274,413.75,447.24632126782274S386.1666666666667,447.24632126782274,372.375,447.24632126782274S344.7916666666667,447.24632126782274,331,447.24632126782274S303.4166666666667,447.24632126782274,289.625,447.24632126782274S262.0416666666667,447.24632126782274,248.25,447.24632126782274S220.66666666666666,447.24632126782274,206.875,447.24632126782274S179.29166666666666,447.24632126782274,165.5,447.24632126782274S137.91666666666666,447.24632126782274,124.125,447.24632126782274S96.54166666666667,447.24632126782274,82.75,447.24632126782274S55.166666666666664,447.24632126782274,41.375,447.24632126782274S6.895833333333333,447.24632126782274,0,447.24632126782274Z"></path><path opacity="0.85" id="path_316" class="layer" fill="#f7b6d2" d="M0,419.7347137595589C6.7337021400741754,418.68984861848946,27.801210903507638,415.0342923335281,41.375,413.314576023667S68.95976901677435,409.39150015244536,82.75,409.2507933428361S110.36665534461757,411.79315369332886,124.125,412.47024727316773S151.73189249081238,413.9264316986828,165.5,413.35690117887066S193.08643662465354,408.8120273725517,206.875,409.01888463986666S234.6465144338766,412.99834946651293,248.25,414.5983241178927S275.85978861481084,418.1480713114741,289.625,418.7515301267984S317.22245452766276,419.9412920153917,331,419.50020767311975S358.66088949922715,416.20313517112317,372.375,415.17181861977514S400.1815307321623,414.86155513217324,413.75,413.12131174497944S441.83985892341695,406.886617195608,455.125,404.29253471365786S483.0798568841786,399.1962985445963,496.5,396.96338582278173S524.0897168667336,390.8208082824084,537.875,390.524162339721S565.4985937461768,395.92675403202753,579.25,395.1826859619175S610.8119923095406,379.7982746460123,620.625,386.04668333392937S659.8670131684447,444.6862138600774,662,447.8735464233678L662,446.8735464233678C657.3999180287062,443.6238319049691,633.9982474519957,420.00980518007367,620.625,417.6442981104446S593.0407991266867,419.9768874682274,579.25,420.08626785768644S551.6528248089521,418.40872719609575,537.875,418.84543154759825S510.28430626643166,422.39060162868765,496.5,422.7091263703998S468.8945316226772,421.51882018852586,455.125,422.07089734634155S427.43995945597493,427.12561801106074,413.75,428.30560427824787S386.14332675938874,429.05613782573494,372.375,429.6230165340461S344.79019586376904,431.7706595427384,331,431.9130767468799S303.35701104592863,431.3827029597612,289.625,430.47761089652886S261.9270703871759,427.71086761362193,248.25,426.4589325591149S220.6665078216607,422.85625788081177,206.875,422.90306292479397S179.27500667816648,426.2607133956237,165.5,426.73976605749743S137.90222443893234,426.2269200051007,124.125,425.7808551971478S96.54040775380972,424.1923324862928,82.75,424.06057163617453S55.11124896815905,424.1177322223741,41.375,424.9902179265223S6.8212505024413765,428.6033398160177,0,429.31660566596094Z"></path><path opacity="0.85" id="path_306" class="layer" fill="#e377c2" d="M0,398.42094908752284C6.674147057989849,397.20457463761835,27.98210487148433,393.1912828469829,41.375,390.88028622416124S68.96135442255537,384.3462115862883,82.75,384.14211178584617S110.34617757124052,389.23473101708316,124.125,389.6554191121796S151.73686348178947,389.5260044506965,165.5,388.89937511202277S193.08731427249316,382.3269544926047,206.875,382.56123624186426S234.71408773560339,388.4448615880367,248.25,390.3054714747031S275.8359529624825,393.74576902734407,289.625,393.9358274119487S317.2891543206145,393.9126942728567,331,392.86001954424046S358.66439217727986,380.7604880218607,372.375,379.7062745615434S400.0285655920082,379.23946020850576,413.75,378.2577844317177S443.3403550695408,370.9828461743217,455.125,366.11951002216045S485.26015162717283,349.46373378181664,496.5,344.10817118786235S524.1456229876218,327.6155619034462,537.875,326.690792663205S565.5588878150741,339.707711636911,579.25,338.5343818920359S615.6023317451833,312.96256097169055,620.625,319.5991090164S661.3501723974978,445.85889336904773,662,447.8735464233678L662,446.8735464233678C659.8670131684447,443.6862138600774,630.4380076904594,391.2950920218464,620.625,385.04668333392937S593.0014062538232,393.4386178918075,579.25,394.1826859619175S551.6602831332664,389.2275163970336,537.875,389.524162339721S509.9201431158214,393.7304731009672,496.5,395.96338582278173S468.41014107658305,400.69845223170773,455.125,403.29253471365786S427.3184692678377,410.38106835778564,413.75,412.12131174497944S386.08911050077285,413.1405020684271,372.375,414.17181861977514S344.77754547233724,418.0591233308478,331,418.50020767311975S303.39021138518916,418.3549889421227,289.625,417.7515301267984S261.85348556612337,415.1982987692724,248.25,413.5983241178927S220.66356337534646,408.2257419071816,206.875,408.01888463986666S179.26810750918762,411.7873706590585,165.5,412.35690117887066S137.88334465538244,412.1473408530066,124.125,411.47024727316773S96.54023098322565,408.1100865332269,82.75,408.2507933428361S54.94878909649236,410.5948597138059,41.375,412.314576023667S6.7337021400741754,417.68984861848946,0,418.7347137595589Z"></path><path opacity="0.85" id="path_716" class="layer" fill="#9edae5" d="M0,374.50403581165676C6.1690283710415645,372.38656552081636,29.377748020762432,364.94222612020286,41.375,360.302393670606S69.13490154858323,344.0516775814822,82.75,342.5011958389201S110.34625537915944,340.45284975033144,124.125,340.87480895382953S152.22447432060872,345.10792303881874,165.5,347.7255637572445S193.62180162078334,354.5198737585589,206.875,357.1912829437067S234.52062224303648,363.48048017975185,248.25,364.40524391789467S275.8333395507721,365.3438809671354,289.625,365.33462090211475S317.30747683481025,365.32614801824377,331,364.1610194027463S360.1380476312467,348.5114229084837,372.375,344.14966124482237S402.1682369453821,339.72456680649054,413.75,334.6654581885329S444.87051173100656,314.02569168444865,455.125,308.00307145864355S486.28579512512954,292.1100072104939,496.5,286.0650979743326S524.2506867285524,257.5204728914729,537.875,259.0304646409553S565.7820829535553,293.1482187020092,579.25,295.23633580336354S615.4394692152047,270.6603373941639,620.625,277.34071032938056S661.6145266901702,445.793516451408,662,447.37767869892025L662,446.8735464233678C661.3501723974978,444.85889336904773,625.6476682548167,325.23565706110946,620.625,318.5991090164S592.9411121849259,336.3610521471609,579.25,337.5343818920359S551.6043770123782,324.7660234229638,537.875,325.690792663205S507.73984837282717,337.75260859390806,496.5,343.10817118786235S466.9096449304592,360.2561738699992,455.125,365.11951002216045S427.4714344079918,376.27610865492966,413.75,377.2577844317177S386.08560782272014,377.65206110122614,372.375,378.7062745615434S344.7108456793855,390.8073448156242,331,391.86001954424046S303.4140470375175,393.12588579655335,289.625,392.9358274119487S261.7859122643966,391.1660813613695,248.25,389.3054714747031S220.66268572750684,381.7955179911238,206.875,381.56123624186426S179.26313651821053,387.272745773349,165.5,387.89937511202277S137.9038224287595,389.076107207276,124.125,388.6554191121796S96.53864557744463,382.93801198540405,82.75,383.14211178584617S54.76789512851567,387.56928960133956,41.375,389.88028622416124S6.674147057989849,396.20457463761835,0,397.42094908752284Z"></path><path opacity="0.85" id="path_706" class="layer" fill="#17becf" d="M0,337.42788885795846C5.016333438300714,334.35735174358666,32.17651226351209,318.60194932763187,41.375,312.10192624607714S70.29231159962117,283.02994865435346,82.75,278.95339550563926S110.88696198408326,282.3162811612426,124.125,285.0234858312534S151.7820673944958,294.8702093139534,165.5,295.87593237810034S193.1522514728445,296.30972732972697,206.875,297.2822222127322S235.02540896015964,304.9869983119857,248.25,307.72549119191785S275.8759329240783,313.6524319354937,289.625,314.4177453553157S317.5513766832357,318.89827153705556,331,316.7503747066288S360.85567898483043,293.6392695951008,372.375,288.52303279281927S403.319679198646,284.5033514469942,413.75,278.58221002835575S446.32797499281946,246.36672099605934,455.125,239.73814742549342S487.85940715294726,222.90139827074552,496.5,216.22994178805774S524.1681767146703,174.76795431230607,537.875,175.8463481341148S565.8723013163662,220.3870728013123,579.25,222.74035538988636S617.3673760564919,191.96329760939008,620.625,197.82127932640648S661.815520245787,446.2649752978682,662,447.37767869892025L662,446.37767869892025C661.6145266901702,444.793516451408,625.8105307847953,283.0210832645972,620.625,276.34071032938056S592.7179170464447,296.3244529047179,579.25,294.23633580336354S551.4993132714476,259.5404563904377,537.875,258.0304646409553S506.71420487487046,279.0201887381713,496.5,285.0650979743326S465.37948826899344,300.98045123283845,455.125,307.00307145864355S425.3317630546179,328.6063495705753,413.75,333.6654581885329S384.6119523687533,338.787899581161,372.375,343.14966124482237S344.6925301172962,361.9959313425638,331,363.1610194027463S303.41666044469343,364.325357460941,289.625,364.33462090211475S261.9793281507602,364.33037414727386,248.25,363.40524391789467S220.12819837921666,358.8626921288545,206.875,356.1912829437067S178.77552567939128,349.3432044756703,165.5,346.7255637572445S137.90374462084057,340.2967681573276,124.125,339.87480895382953S96.36509845141677,339.95071409635807,82.75,341.5011958389201S53.37225197923757,354.6625612210092,41.375,359.302393670606S6.1690283710415645,371.38656552081636,0,373.50403581165676Z"></path><path opacity="0.85" id="path_416" class="layer" fill="#2ca02c" d="M0,331.6571917915575C5.081695128539565,328.6209280879576,32.15727158564852,313.42920427689836,41.375,306.93602935288357S70.30334936543225,277.45780318686866,82.75,273.36623323764036S111.08239165482996,276.6080904684315,124.125,279.73373829167883S151.70841829738393,293.162955167513,165.5,293.19718656604425S193.08338408230233,293.12746738601015,206.875,293.1539232036823S235.01751979014892,300.8487944461855,248.25,303.56898262412994S275.8357789697939,309.98112141129786,289.625,310.1647607908287S317.24482805188023,311.6070273260323,331,310.89851400307316S360.8975913857707,286.96993074315094,372.375,281.8161277486047S403.39706392264895,277.70649689564556,413.75,271.73984306134145S446.44752120084314,238.2191247772321,455.125,231.55742403378667S488.06525973305156,214.93459102144212,496.5,208.212665492936S524.1890304280954,164.40845892463423,537.875,165.61119215472007S565.9593111515835,212.9044213111603,579.25,215.48479731134347S617.9575482636596,181.74590753549032,620.625,187.19322856800915S661.8235184157335,441.4049605240443,662,442.49392417904824L662,446.37767869892025C661.815520245787,445.2649752978682,623.8826239435081,202.67926104342288,620.625,196.82127932640648S592.6276986836338,224.0936379784604,579.25,221.74035538988636S551.5818232853297,175.92474195592354,537.875,174.8463481341148S505.14059284705274,208.55848530536997,496.5,215.22994178805774S463.92202500718054,232.1095738549275,455.125,238.73814742549342S424.180320801354,271.6610686097173,413.75,277.58221002835575S383.89432101516957,282.4067959905377,372.375,287.52303279281927S344.4486233167643,313.60247787620204,331,315.7503747066288S303.3740670759217,314.1830587751376,289.625,313.4177453553157S261.47459103984033,309.46398407185,248.25,306.72549119191785S220.5977485271555,297.2547170957375,206.875,296.2822222127322S179.2179326055042,295.8816554422473,165.5,294.87593237810034S137.36303801591674,286.73069050126423,124.125,284.0234858312534S95.20768840037883,273.87684235692507,82.75,277.95339550563926S50.57348773648791,304.6019031645224,41.375,311.10192624607714S5.016333438300714,333.35735174358666,0,336.42788885795846Z"></path><path opacity="0.85" id="path_406" class="layer" fill="#98df8a" d="M0,329.804560637353C5.100307828593353,326.77838602436975,32.135150377681526,311.7406811751147,41.375,305.2554591281772S70.26943387487482,275.7695359192589,82.75,271.7243811625906S111.11410339414337,275.247593255818,124.125,278.4348363488606S151.7236693986879,291.5357718361674,165.5,291.99541812022466S193.0915810123185,291.0876706833969,206.875,291.4248371335788S235.02031146182475,298.7924506340749,248.25,301.5191327947251S275.83556124601216,308.30460733123635,289.625,308.47988330059366S317.23903729272155,309.8045327290459,331,309.1545203906189S360.9090375167139,285.26934761410956,372.375,280.10539206493377S403.4272379809729,275.96518157078026,413.75,269.9811463816892S446.4670047123828,236.35060332437845,455.125,229.68372229889243S488.0713476147292,212.98481559722384,496.5,206.26149921948817S524.2088660671697,162.36641458788878,537.875,163.67620356080045S565.976655448278,211.56947062036014,579.25,214.19242087159233S618.0421459084392,179.95213149153057,620.625,185.33271950968896S661.8259985931854,441.4124399158317,662,442.49392417904824L662,441.49392417904824C661.8235184157335,440.4049605240443,623.2924517363404,191.64054960052798,620.625,186.19322856800915S592.5406888484165,217.06517331152665,579.25,214.48479731134347S551.5609695719046,165.8139253848059,537.875,164.61119215472007S504.93474026694844,200.49073996442988,496.5,207.212665492936S463.80247879915686,223.89572329034124,455.125,230.55742403378667S424.10293607735105,264.77318922703734,413.75,270.73984306134145S383.8524086142293,275.66232475405843,372.375,280.8161277486047S344.75517194811977,309.190000680114,331,309.89851400307316S303.4142210302061,309.3484001703596,289.625,309.1647607908287S261.4824802098511,305.2891708020744,248.25,302.56898262412994S220.66661591769767,292.1803790213545,206.875,292.1539232036823S179.29158170261607,292.2314179645755,165.5,292.19718656604425S137.16760834517004,281.85938611492617,124.125,278.73373829167883S95.19665063456775,268.27466328841206,82.75,272.36623323764036S50.59272841435148,299.44285442886877,41.375,305.93602935288357S5.081695128539565,327.6209280879576,0,330.6571917915575Z"></path><path opacity="0.85" id="path_126" class="layer" fill="#D1FF00" d="M0,318.46562747726C4.9738927848180765,315.3737791260129,32.31727024564513,299.2944748915914,41.375,292.7462903167733S70.2450558946288,262.65372237720595,82.75,258.64243907779667S111.27609821054367,262.7216494451869,124.125,266.20209385902615S151.7572165590871,280.23770442784047,165.5,281.05733335938646S193.10807447813778,279.46455072722887,206.875,280.04816832279005S235.14882646969804,287.8914533757121,248.25,290.8991552228034S275.85293134318005,298.52597520268444,289.625,299.04549915511217S317.3578374323348,302.00829041752274,331,300.58015904292506S361.09118396792616,277.4993494805139,372.375,272.1797512629165S403.6707176321575,267.68586109389685,413.75,261.56882180958667S446.73487755937435,228.69139459983523,455.125,221.95940994262318S488.427757875755,201.96742993373908,496.5,195.17268345445254S524.2072060791884,151.00406749424175,537.875,152.30524663746206S565.8996987991075,200.62309593220928,579.25,203.05051470690725S618.5038633148222,165.6277937884203,620.625,170.6032122913408S661.8400515444171,438.06586635570284,662,439.1038424552256L662,441.49392417904824C661.8259985931854,440.4124399158317,623.2078540915608,189.71330752784735,620.625,184.33271950968896S592.523344551722,215.81537112282453,579.25,213.19242087159233S551.5411339328303,163.9859925337121,537.875,162.67620356080045S504.9286523852708,198.5381828417525,496.5,205.26149921948817S463.7829952876172,222.0168412734064,455.125,228.68372229889243S424.0727620190271,262.99711119259814,413.75,268.9811463816892S383.8409624832861,273.94143651575797,372.375,279.10539206493377S344.76096270727845,307.50450805219197,331,308.1545203906189S303.41443875398784,307.65515926995096,289.625,307.47988330059366S261.47968853817525,303.24581495537535,248.25,300.5191327947251S220.6584189876815,290.76200358376076,206.875,290.4248371335788S179.2763306013121,291.4550644042819,165.5,290.99541812022466S137.13589660585663,280.62207944190317,124.125,277.4348363488606S95.23056612512518,266.6792264059223,82.75,270.7243811625906S50.614849622318474,297.77023708123977,41.375,304.2554591281772S5.100307828593353,325.77838602436975,0,328.804560637353Z"></path><path opacity="0.85" id="path_106" class="layer" fill="#FFE999" d="M0,311.6487107613908C4.938616445881737,308.5397007085724,32.23100462480229,292.1209540581581,41.375,285.6018832045294S70.09824112113492,256.45098066118715,82.75,252.65337108733596S111.35377567285724,257.1532388502097,124.125,260.7632662782183S151.83907265707128,274.7077985523822,165.5,276.0442192954297S193.1411613714671,273.5340052703751,206.875,274.4251847943397S235.21920038986934,281.957412127027,248.25,285.10617476394816S275.8344954204021,294.29430326726884,289.625,294.4208961858845S317.21785740436684,295.16721821078335,331,294.8049170859231S361.2708279217871,272.1096728620586,372.375,266.6468528604974S403.8912563976605,260.32199288152884,413.75,254.09514134171124S447.03678027923894,221.1733338690858,455.125,214.38137302819544S489.0737855198663,191.48248003746676,496.5,184.60707363491645S524.1689617501513,136.6856642261623,537.875,137.76900459565917S565.9500529725838,188.59041274293259,579.25,191.14772483854614S618.6714992621556,152.28441087978135,620.625,157.0933469239265S661.8541353335957,437.55923908147275,662,438.5515000994721L662,438.1038424552256C661.8400515444171,437.06586635570284,622.7461366851778,174.57863079426133,620.625,169.6032122913408S592.6003012008925,204.47793348160522,579.25,202.05051470690725S551.5427939208116,152.60642578068237,537.875,151.30524663746206S504.572242124245,187.377936975166,496.5,194.17268345445254S463.51512244062565,214.22742528541113,455.125,220.95940994262318S423.8292823678425,254.4517825252765,413.75,260.56882180958667S383.65881603207384,265.8601530453191,372.375,271.1797512629165S344.6421625676652,298.1520276683274,331,299.58015904292506S303.39706865681995,298.5650231075399,289.625,298.04549915511217S261.35117353030193,292.9068570698947,248.25,289.8991552228034S220.64192552186222,279.6317859183512,206.875,279.04816832279005S179.2427834409129,280.87696229093245,165.5,280.05733335938646S136.97390178945633,268.6825382728654,124.125,265.20209385902615S95.2549441053712,253.63115577838735,82.75,257.64243907779667S50.43272975435487,285.1981057419552,41.375,291.7462903167733S4.9738927848180765,314.3737791260129,0,317.46562747726Z"></path><path opacity="0.85" id="path_116" class="layer" fill="#FFC41C" d="M0,280.50185238719587C4.621615674814356,277.25985300740706,31.778244139268573,257.82274556383356,41.375,251.47786299107426S69.3877766942984,228.18727690355752,82.75,225.79179822772542S111.71229306920709,232.50584264536022,124.125,236.6430667232613S151.71637104884618,253.03998262441888,165.5,253.37283227252476S193.08674890102805,252.75828148701407,206.875,252.9752946318236S235.08607269823247,261.1430054085566,248.25,264.0176384919239S275.8423614758181,270.6928286511316,289.625,271.04557732145133S318.26289865418335,270.72646852985446,331,267.06148485083895S361.31971914425225,242.32483688170703,372.375,236.82469927712006S404.1087403398009,231.79427030578776,413.75,225.4685172561609S448.63745381906847,188.85616739914255,455.125,181.97243157022706S491.60265123220154,144.2649281276563,496.5,137.66503594653472S524.1035345526049,69.92728302608194,537.875,70.45473007858408S566.5385426715045,137.12881939241888,579.25,140.83436050108367S619.3578120126499,93.30585553756566,620.625,97.28968145372369S661.895129343382,429.3939886413227,662,430.2378919029441L662,437.5515000994721C661.8541353335957,436.55923908147275,622.5785007378444,160.90228296807166,620.625,156.0933469239265S592.5499470274162,192.7050369341597,579.25,190.14772483854614S551.5810382498487,137.85234496515605,537.875,136.76900459565917S503.9262144801337,176.73166723236614,496.5,183.60707363491645S463.21321972076106,206.58941218730507,455.125,213.38137302819544S423.6087436023395,246.8682898018936,413.75,253.09514134171124S383.4791720782129,260.18403285893623,372.375,265.6468528604974S344.78214259563316,293.4426159610628,331,293.8049170859231S303.4155045795979,293.54748910450013,289.625,293.4208961858845S261.28079961013066,287.2549374008693,248.25,284.10617476394816S220.6088386285329,274.31636431830435,206.875,273.4251847943397S179.16092734292872,276.38064003847717,165.5,275.0442192954297S136.89622432714276,263.3732937062269,124.125,259.7632662782183S95.40175887886508,247.85576151348477,82.75,251.65337108733596S50.51899537519771,278.08281235090067,41.375,284.6018832045294S4.938616445881737,307.5397007085724,0,310.6487107613908Z"></path><path opacity="0.85" id="path_606" class="layer" fill="#D66011" d="M0,275.1568493412821C4.464174017566227,271.86210347293047,31.766009255263,250.96004102747395,41.375,244.62038060896126S69.22378654667472,222.4563096134962,82.75,220.56142786902595S111.85870742480631,228.70238182648205,124.125,233.0279667456147S151.77401236262844,248.7929059681615,165.5,249.74238453250044S193.110142887903,248.00325881378504,206.875,248.61073695157327S235.30810116339157,256.36785215333555,248.25,259.68411651119635S275.87112599093507,269.0938344249093,289.625,269.8148028369235S319.2350469509962,268.9281417863656,331,264.04509042931636S360.9965222436134,240.52513444314795,372.375,235.2850565489196S404.2474112453088,230.43561864276958,413.75,224.05147081127848S449.3728971544925,183.74112016917266,455.125,176.94079679948436S492.2703696250364,132.58127530349782,496.5,126.22172507208273S524.1698344121668,51.431471641252145,537.875,52.520283658516405S567.2716116727554,128.13534144284176,579.25,132.79582983945625S619.2190162889274,87.33837624656682,620.625,91.51139295945865S661.8986246229406,429.4079577264989,662,430.2378919029441L662,429.2378919029441C661.895129343382,428.3939886413227,621.8921879873501,100.27350736988171,620.625,96.28968145372369S591.9614573284955,143.53990160974845,579.25,139.83436050108367S551.6464654473951,69.98217713108622,537.875,69.45473007858408S501.39734876779846,130.06514376541313,496.5,136.66503594653472S461.61254618093153,174.08869574131157,455.125,180.97243157022706S423.3912596601991,218.14276420653405,413.75,224.4685172561609S383.43028085574775,230.3245616725331,372.375,235.82469927712006S343.73710134581665,262.39650117182345,331,266.06148485083895S303.4076385241819,270.39832599177106,289.625,270.04557732145133S261.4139273017675,265.8922715752912,248.25,263.0176384919239S220.66325109897195,252.19230777663313,206.875,251.9752946318236S179.28362895115382,252.70568192063064,165.5,252.37283227252476S136.53770693079292,239.7802908011624,124.125,235.6430667232613S96.1122233057016,222.39631955189333,82.75,224.79179822772542S50.97175586073143,244.13298041831496,41.375,250.47786299107426S4.621615674814356,276.25985300740706,0,279.50185238719587Z"></path><path opacity="0.85" id="path_616" class="layer" fill="#5E1F05" d="M0,269.6549467583177C4.556192315141317,266.39000350807953,31.740717600899877,246.33461784677576,41.375,240.00584118178654S69.21838732551393,217.1722159776653,82.75,215.29632954809617S112.03000019472555,224.00418351778265,124.125,228.5342150141582S152.10945545352493,243.9717167801832,165.5,246.2893111405064S193.2472271333719,241.361838707813,206.875,242.8563310902539S235.5002488952298,251.71936138767578,248.25,255.36410610937668S275.87612837001456,265.74483919605865,289.625,266.5119007748972S319.28237596339,264.91059328255045,331,259.98080101766686S361.1558700068062,237.06995079315539,372.375,231.69764929826977S404.70007718857624,226.27859660699028,413.75,219.7278397132038S449.9142153418071,177.5368659072529,455.125,170.85007831353357S492.84477873804707,119.62508628858498,496.5,113.53813707211089S524.1828046411018,31.88151857684521,537.875,33.04855781293395S567.7295453401808,115.47603034307168,579.25,120.59124245477568S619.4320260249863,71.47880492680878,620.625,75.35564803690977S661.9075236390013,429.44470233204913,662,430.2378919029441L662,429.2378919029441C661.8986246229406,428.4079577264989,622.0309837110726,94.68440967235047,620.625,90.51139295945865S591.2283883272446,136.45631823607073,579.25,131.79582983945625S551.5801655878332,52.609095675780665,537.875,51.520283658516405S500.7296303749636,118.86217484066765,496.5,125.22172507208273S460.8771028455075,169.14047342979606,455.125,175.94079679948436S423.2525887546912,216.66732297978737,413.75,223.05147081127848S383.7534777563866,229.04497865469128,372.375,234.2850565489196S342.7649530490038,258.16203907226713,331,263.04509042931636S303.37887400906493,269.5357712489377,289.625,268.8148028369235S261.1918988366084,262.00038086905715,248.25,258.68411651119635S220.639857112097,248.2182150893615,206.875,247.61073695157327S179.22598763737156,249.69186309683937,165.5,248.74238453250044S136.3912925751937,236.35355166474733,124.125,232.0279667456147S96.27621345332528,217.6665461245557,82.75,219.56142786902595S50.983990744737,237.28072019044856,41.375,243.62038060896126S4.464174017566227,270.86210347293047,0,274.1568493412821Z"></path><path opacity="0.85" id="path_206" class="layer" fill="#330000" d="M0,261.5727593206625C4.652802936136174,258.34222091074975,31.619562494699977,239.12019595121885,41.375,232.84523130265055S69.15137120705059,209.96589315175575,82.75,208.34569242725854S112.3081114792888,218.15532332479108,124.125,222.9860306440035S152.1927225997658,239.6347572068801,165.5,242.1736353721556S193.2694199882426,237.18262722982848,206.875,238.77379562836086S235.57578097415913,248.08787602265807,248.25,251.85122242575935S275.8830028206688,262.51852075743005,289.625,263.3446914146572S319.5678423799863,262.0198400454479,331,256.8261631853434S361.6969523350058,231.51707490889834,372.375,225.7510214829847S405.1828747714048,218.83211778601608,413.75,212.14187857041676S450.19020332052696,167.74100942430968,455.125,161.12989358783187S493.2210558544931,107.1533973973468,496.5,101.2822280109217S524.1453540139471,12.037689682645611,537.875,12.960469173445745S567.931380172473,101.5532184741032,579.25,106.84391568599216S619.7551325947599,48.28790719498387,620.625,51.64055569946066S661.9166860081632,425.02611592128363,662,425.7794937685858L662,429.2378919029441C661.9075236390013,428.44470233204913,621.8179739750137,78.23249114701076,620.625,74.35564803690977S590.7704546598192,124.70645456647968,579.25,119.59124245477568S551.5671953588982,33.21559704902269,537.875,32.04855781293395S500.15522126195293,106.45118785563679,496.5,112.53813707211089S460.3357846581929,163.16329071981426,455.125,169.85007831353357S422.79992281142376,212.1770828194173,413.75,218.7278397132038S383.5941299931938,225.32534780338415,372.375,230.69764929826977S342.71762403661,254.0510087527833,331,258.98080101766686S303.37387162998544,266.2789623537357,289.625,265.5119007748972S260.9997511047702,258.00885083107755,248.25,254.36410610937668S220.5027728666281,243.35082347269477,206.875,241.8563310902539S178.89054454647507,247.60690550082964,165.5,245.2893111405064S136.21999980527445,232.06424651053376,124.125,227.5342150141582S96.28161267448607,212.42044311852703,82.75,214.29632954809617S51.00928239910012,232.67706451679732,41.375,239.00584118178654S4.556192315141317,265.39000350807953,0,268.6549467583177Z"></path><path opacity="0.85" id="path_506" class="layer" fill="red" d="M0,247.40476732091935C4.785955467592436,244.22706665731133,31.359306148003952,226.08298399155422,41.375,219.9332695506065S69.06054172514935,197.77848778900858,82.75,196.59561944675534S112.5312530750248,207.73508793064275,124.125,212.78307022524103S152.17227087976022,230.13882161432605,165.5,232.62543255041683S193.32606127630973,227.6451258648022,206.875,229.4586048489414S235.76359501650933,240.55121979044907,248.25,244.58830116014775S275.88926058120643,255.33671043635155,289.625,256.2131818296069S319.4510114545111,254.9578111649254,331,249.8685416758238S361.79446976615,225.57675912719068,372.375,219.74790622868363S405.4279569602071,211.02799902606918,413.75,204.28126327947948S450.3338435342262,159.2287290904929,455.125,152.66192982111738S493.33608814591776,96.6621495155659,496.5,90.86341866874989S524.1257904534039,0.23596345598249013,537.875,1S567.6803682664552,90.39147573189192,579.25,95.46179385556934S619.7994365634622,33.99291661533746,620.625,37.26466549646648S661.9217261811762,422.6736474599848,662,423.40415168191606L662,424.7794937685858C661.9166860081632,424.02611592128363,621.4948674052401,53.99320420393745,620.625,50.64055569946066S590.568619827527,111.13461289788111,579.25,105.84391568599216S551.6046459860529,12.883248664245878,537.875,11.960469173445745S499.7789441455069,94.4110586244966,496.5,100.2822280109217S460.05979667947304,153.51877775135407,455.125,160.12989358783187S422.3171252285952,204.45163935481744,413.75,211.14187857041676S383.0530476649942,218.98496805707106,372.375,224.7510214829847S342.4321576200137,250.6324863252389,331,255.8261631853434S303.3669971793312,263.1708620718843,289.625,262.3446914146572S260.9242190258409,254.61456882886063,248.25,250.85122242575935S220.4805800117574,239.36496402689323,206.875,237.77379562836086S178.8072774002342,243.71251353743108,165.5,241.1736353721556S135.94188852071122,226.81673796321593,124.125,221.9860306440035S96.34862879294941,205.72549170276133,82.75,207.34569242725854S51.13043750530002,225.57026665408225,41.375,231.84523130265055S4.652802936136174,257.34222091074975,0,260.5727593206625Z"></path></g><g class="text_layers"><text class="label" style="font-weight: lighter; " font-size="18px" font-family="PT Sans Narrow" dy="6" opacity="1" pointer-events="none" text-anchor="middle" fill="#333333" x="579.25" y="347.3585339269767"><tspan x="579.25" dy="11px">Chemicals</tspan><tspan x="579.25" dy="11px">&amp; Allied</tspan><tspan x="579.25" dy="11px">Industries</tspan></text><text class="label" style="font-weight: lighter; " font-size="18px" font-family="PT Sans Narrow" dy="6" opacity="1" pointer-events="none" text-anchor="middle" fill="#333333" x="496.5" y="306.5866345810975"><tspan x="496.5" dy="11px">Transportation</tspan></text><text class="label" style="font-weight: lighter; " font-size="18px" font-family="PT Sans Narrow" dy="6" opacity="1" pointer-events="none" text-anchor="middle" fill="#ffffff" x="579.25" y="244.98834559662498"><tspan x="579.25" dy="11px">Machinery</tspan><tspan x="579.25" dy="11px">/ Electrical</tspan></text><text class="label" style="font-weight: lighter; " font-size="18px" font-family="PT Sans Narrow" dy="6" opacity="1" pointer-events="none" text-anchor="middle" fill="#333333" x="496.5" y="147.13605479072558"><tspan x="496.5" dy="11px">Vegetable</tspan><tspan x="496.5" dy="11px">Products</tspan></text></g></g></g></svg>