<svg width="748" height="520" style="z-index: 10; position: absolute; "><rect id="svgbg" fill="#ffffff" width="748" height="520"></rect><g class="titles"></g><clipPath id="clipping"><rect width="748" height="520"></rect></clipPath><g class="parent" width="748" height="520" clip-path="url(#clipping)" transform="translate(0,0)"><g class="axes_labels"><text class="x_axis_label" x="374" y="510" font-family="sans-serif" font-size="14px" font-weight="lighter" fill="#333" text-anchor="middle">Year</text><text class="y_axis_label" y="15" x="-242.5" transform="rotate(-90)" font-family="sans-serif" font-size="14px" font-weight="lighter" fill="#333" text-anchor="middle">Current</text></g><g class="chart" transform="translate(40,5)"><rect style="fill: #fafafa; " id="background" x="0" y="0" width="698" height="475" stroke-width="1" stroke="#ccc" shape-rendering="crispEdges"></rect><g transform="translate(0,475)" class="xaxis"><path class="domain" d="M0,0V0H698V0"></path></g><g class="yaxis"><path class="domain" d="M0,0H0V475H0"></path></g><clipPath id="path_clipping"><rect width="698" height="475" y="1" x="1"></rect></clipPath><g class="layers" clip-path="url(#path_clipping)"><path opacity="0.85" id="path_906" class="layer" fill="#7f7f7f" d="M0,436.70988524718285C6.886737790905136,436.4596081691892,27.611657441878528,435.8306066904279,41.375,435.20623948392125S68.96529203355946,433.2656879879777,82.75,432.95597255335554S110.33339203244549,433.3754614683873,124.125,433.34700878586244S151.73244835419794,433.3452986769491,165.5,432.769100104239S193.09755399464535,429.9986541112411,206.875,429.55602063601947S234.4641825876795,429.8265919045502,248.25,430.1105580159338S275.83340824286506,431.292682427105,289.625,431.2605402168456S317.2626566620696,430.78156609066764,331,429.91770370688806S358.63472006179876,426.89714797260945,372.375,426.05686942699316S400.004768211401,425.65608789616596,413.75,424.85717728657613S441.4058811276418,422.24485536344605,455.125,421.24721223384256S482.75999547933066,419.68218372400406,496.5,418.8396648105362S524.0865180049203,415.9635402317877,537.875,416.1730916260519S565.4583334524414,420.09854524969927,579.25,420.09726357170166S606.9282316541743,417.3054894129333,620.625,416.165401558S655.1391874601409,413.699516279103,662,413.20934171935573L662,447.24632126782274C655.1041666666666,447.24632126782274,634.4166666666666,447.24632126782274,620.625,447.24632126782274S593.0416666666666,447.24632126782274,579.25,447.24632126782274S551.6666666666666,447.24632126782274,537.875,447.24632126782274S510.2916666666667,447.24632126782274,496.5,447.24632126782274S468.9166666666667,447.24632126782274,455.125,447.24632126782274S427.5416666666667,447.24632126782274,413.75,447.24632126782274S386.1666666666667,447.24632126782274,372.375,447.24632126782274S344.7916666666667,447.24632126782274,331,447.24632126782274S303.4166666666667,447.24632126782274,289.625,447.24632126782274S262.0416666666667,447.24632126782274,248.25,447.24632126782274S220.66666666666666,447.24632126782274,206.875,447.24632126782274S179.29166666666666,447.24632126782274,165.5,447.24632126782274S137.91666666666666,447.24632126782274,124.125,447.24632126782274S96.54166666666667,447.24632126782274,82.75,447.24632126782274S55.166666666666664,447.24632126782274,41.375,447.24632126782274S6.895833333333333,447.24632126782274,0,447.24632126782274Z"></path><path opacity="0.85" id="path_316" class="layer" fill="#f7b6d2" d="M0,430.84958138091895C6.880439605238858,430.5241345857995,27.648888559941504,429.84111939640036,41.375,428.8925318432973S68.97449138253958,425.6026631346116,82.75,425.1308736200162S110.33400503860649,426.15472142397334,124.125,426.058474429019S151.8125094735872,425.7474782301276,165.5,424.55336352340845S193.12217858800938,419.57016706328886,206.875,418.83925540634044S234.46981608960195,419.75771969620286,248.25,420.155506690937S275.83818124453586,421.48649523979935,289.625,421.22796618322735S317.3487486087124,419.9882883411568,331,418.60378690620746S358.75964166837826,414.3848676718214,372.375,412.8355125935749S400.135780768901,410.7415658220235,413.75,409.18727875400344S441.54907775235023,405.0996504632597,455.125,403.3882389236416S482.8658234559074,400.2209752838153,496.5,398.7556261325462S524.1331552134519,393.66715289878107,537.875,394.49458539969214S565.4607756370001,403.9217348057836,579.25,403.7382205741176S607.3644093040962,396.04705348432213,620.625,393.3933049889452S655.2563398168853,388.1910639524462,662,387.17804667023006L662,412.20934171935573C655.1391874601409,412.699516279103,634.3217683458257,414.0253137030667,620.625,415.165401558S593.0416665475586,419.09598189370405,579.25,419.09726357170166S551.6634819950797,415.38264302031615,537.875,415.1730916260519S510.24000452066934,416.9971458970683,496.5,417.8396648105362S468.8441188723582,419.2495691042391,455.125,420.24721223384256S427.495231788599,423.0582666769863,413.75,423.85717728657613S386.11527993820124,424.2165908813769,372.375,425.05686942699316S344.7373433379304,428.0538413231085,331,428.91770370688806S303.41659175713494,430.2283980065862,289.625,430.2605402168456S262.0358174123205,429.3945241273174,248.25,429.1105580159338S220.65244600535465,428.11338716079786,206.875,428.55602063601947S179.26755164580206,431.1929015315289,165.5,431.769100104239S137.9166079675545,432.3185561033376,124.125,432.34700878586244S96.53470796644054,431.6462571187334,82.75,431.95597255335554S55.13834255812147,433.5818722774146,41.375,434.20623948392125S6.886737790905136,435.4596081691892,0,435.70988524718285Z"></path><path opacity="0.85" id="path_306" class="layer" fill="#e377c2" d="M0,422.1367396463801C6.874050240024445,421.7497795996202,27.726694354492757,421.206419678541,41.375,419.80762196820694S68.97968248595546,414.19799951475926,82.75,413.6557960379514S110.33547940783536,416.7213845406403,124.125,416.54935739586927S151.9615409745329,414.4749695692333,165.5,412.62347253296355S193.11791439826132,405.9223408721551,206.875,405.2326056545436S234.4583497975412,405.91493474025464,248.25,405.93000353568124S275.8356920970543,406.29136047501714,289.625,406.11101159307276S317.8937807605657,402.4098388339995,331,399.41256936689894S359.1366330190821,389.89329625748695,372.375,387.1868623879144S400.29687596803024,384.6293882662077,413.75,382.49527110572024S442.3707466558787,377.6974376403617,455.125,374.0599340543415S483.84034926895106,362.6806535340958,496.5,358.8950325326085S524.153495530457,348.3339761515669,537.875,349.3151646662907S565.476802093003,365.31662121722394,579.25,364.81226630049565S608.8504420712355,351.15843237238477,620.625,346.28497736766315S655.9742992648324,332.852078369283,662,330.5622839163984L662,386.17804667023006C655.2563398168853,387.1910639524462,633.8855906959038,389.7395564935683,620.625,392.3933049889452S593.0392243629999,402.55470634245154,579.25,402.7382205741176S551.6168447865481,394.3220179006032,537.875,393.49458539969214S510.1341765440926,396.2902769812771,496.5,397.7556261325462S468.70092224764977,400.6768273840235,455.125,402.3882389236416S427.364219231099,406.63299168598337,413.75,408.18727875400344S385.99035833162174,410.2861575153284,372.375,411.8355125935749S344.6512513912876,416.2192854712581,331,417.60378690620746S303.41181875546414,419.96943712665535,289.625,420.22796618322735S262.0301839103981,419.5532936856711,248.25,419.155506690937S220.62782141199062,417.108343749392,206.875,417.83925540634044S179.1874905264128,422.3592488166893,165.5,423.55336352340845S137.9159949613935,424.96222743406463,124.125,425.058474429019S96.52550861746042,423.6590841054208,82.75,424.1308736200162S55.101111440058496,426.9439442901943,41.375,427.8925318432973S6.880439605238858,429.5241345857995,0,429.84958138091895Z"></path><path opacity="0.85" id="path_716" class="layer" fill="#9edae5" d="M0,394.593474046327C6.78056754758254,393.7094110133885,28.102808195095605,391.82467576262917,41.375,389.1989244409814S69.1724432858529,379.9273522315098,82.75,378.2223331631713S110.36542108600621,377.0312459381917,124.125,376.3667807659855S151.85917462497085,374.7220903569894,165.5,373.2876567689236S193.11758242477646,368.3514316126512,206.875,367.66500677878014S234.45855406180422,369.10368068770316,248.25,369.15885463783724S275.91079408880825,369.15156562535225,289.625,368.1208800522411S318.34040770146635,364.38058969842626,331,360.59487973169826S359.9696349332174,347.5224111198798,372.375,343.37541492513515S401.34879094744167,337.08484945230646,413.75,332.93233749551706S443.78214744267535,320.93714201260775,455.125,315.6667969211965S484.7104980892333,299.3418111759071,496.5,294.48336232721556S525.301019421162,277.6526083412323,537.875,281.56555623501754S565.7590613389018,318.22044447406086,579.25,320.23466965432215S610.6831381643763,300.1069200377692,620.625,293.92030321398374S656.9678232153118,271.8034336601101,662,268.74104093240123L662,329.5622839163984C655.9742992648324,331.852078369283,632.3995579287645,340.4115223629415,620.625,345.28497736766315S593.023197906997,363.30791138376736,579.25,363.81226630049565S551.596504469543,349.29635318101447,537.875,348.3151646662907S509.15965073104894,354.1094115311212,496.5,357.8950325326085S467.8792533441213,369.4224304683213,455.125,373.0599340543415S427.20312403196976,379.3611539452328,413.75,381.49527110572024S385.6133669809179,383.48042851834185,372.375,386.1868623879144S344.1062192394343,395.41529989979836,331,398.41256936689894S303.4143338135256,404.93165582734434,289.625,405.11101159307276S262.0416501106878,404.94511426921,248.25,404.93000353568124S220.6315080311955,403.53714893322655,206.875,404.2326056545436S179.0384590254671,409.7719754966938,165.5,411.62347253296355S137.91452059216465,415.3773302510982,124.125,415.54935739586927S96.52031751404454,412.11359256114355,82.75,412.6557960379514S55.02330564550724,417.4088242578729,41.375,418.80762196820694S6.874050240024445,420.7497795996202,0,421.1367396463801Z"></path><path opacity="0.85" id="path_706" class="layer" fill="#17becf" d="M0,325.2316885123838C6.038700794397562,322.95661336114694,29.82653238517273,314.7334398073601,41.375,309.6436940766012S69.0004943636541,289.52273148247224,82.75,288.76135554114666S110.33820466950831,288.2139963164269,124.125,287.95484363009973S153.2689202880983,285.7679419012221,165.5,281.3989988435611S193.14698874440086,259.33134023168816,206.875,258.396534262722S235.88548916796134,271.5634312241024,248.25,275.76415542074574S275.8642724636924,285.85756330765025,289.625,286.5100546432873S319.158821809703,284.4937439479024,331,279.6879056644377S361.4344873472273,258.51037259234255,372.375,252.9252954609136S403.27568361093444,243.33910006653787,413.75,237.4444434708617S446.28826979979954,212.97293251793803,455.125,206.35587601876134S486.32007402356635,181.54378665460862,496.5,175.4801860021377S527.4267093417388,151.15604818464328,537.875,157.06642586425716S566.4488453158071,218.72925964153634,579.25,222.2901158734269S613.2498571202246,186.96388399646145,620.625,180.08472854540491S657.9785152285556,148.50502998668114,662,145.1051551405347L662,267.74104093240123C656.9678232153118,270.8034336601101,630.5668618356237,286.7336863901983,620.625,292.92030321398374S592.7409386610982,321.24889483458344,579.25,319.23466965432215S550.448980578838,284.4785041288028,537.875,280.56555623501754S508.2895019107667,288.62491347852404,496.5,293.48336232721556S466.46785255732465,309.3964518297853,455.125,314.6667969211965S426.15120905255833,327.77982553872766,413.75,331.93233749551706S384.7803650667826,338.2284187303905,372.375,342.37541492513515S343.65959229853365,355.80916976497025,331,359.59487973169826S303.33920591119175,366.09019447912993,289.625,367.1208800522411S262.04144593819575,368.2140285879713,248.25,368.15885463783724S220.63241757522354,365.9785819449091,206.875,366.66500677878014S179.14082537502915,370.85322318085787,165.5,372.2876567689236S137.8845789139938,374.70231559377925,124.125,375.3667807659855S96.3275567141471,375.5173140948328,82.75,377.2223331631713S54.647191804904395,385.5731731193336,41.375,388.1989244409814S6.78056754758254,392.7094110133885,0,393.593474046327Z"></path><path opacity="0.85" id="path_416" class="layer" fill="#2ca02c" d="M0,323.36860987624493C6.066502709741785,321.1255903767109,29.801923699994315,313.1378209776557,41.375,308.07068020678446S68.98857264414816,287.7825429192518,82.75,287.1374568171931S110.33581273406378,286.6499247951951,124.125,286.46502233177364S153.19857045064992,285.2386403259356,165.5,280.95704635750553S193.15655183627084,258.6655568277972,206.875,257.6633371726448S235.87894122825293,270.71944793427446,248.25,274.911633970182S275.8577877006905,285.12463406733514,289.625,285.7048654582919S319.2430360192061,283.2902108417738,331,278.39920622212446S361.5564165619266,256.95148791524224,372.375,251.2801081028092S403.34290794599747,240.95447259632314,413.75,235.01952697250857S446.27081599971916,210.7014362169132,455.125,204.08952423728303S486.39618126099214,179.32970377513433,496.5,173.2254964557447S527.4806230189946,148.15378291096556,537.875,154.09623271777457S566.4684087138371,216.94044752690166,579.25,220.53354795436184S613.4971794035038,184.2504509454963,620.625,177.35852093490848S658.1532632463527,143.94687863392417,662,140.52210537449537L662,144.1051551405347C657.9785152285556,147.50502998668114,628.0001428797754,172.20557309434838,620.625,179.08472854540491S592.0511546841929,224.85097210531748,579.25,221.2901158734269S548.3232906582612,161.97680354387103,537.875,156.06642586425716S506.67992597643365,168.4165853496668,496.5,174.4801860021377S463.96173020020046,198.73881951958464,455.125,205.35587601876134S424.22431638906556,230.54978687518553,413.75,236.4444434708617S383.3155126527727,246.34021832948466,372.375,251.9252954609136S342.841178190297,273.88206738097307,331,278.6879056644377S303.3857275363076,286.1625459789243,289.625,285.5100546432873S260.61451083203866,278.9648796173891,248.25,274.76415542074574S220.60301125559914,256.46172829375587,206.875,257.396534262722S177.7310797119017,276.0300557859001,165.5,280.3989988435611S137.91179533049169,286.69569094377255,124.125,286.95484363009973S96.4995056363459,286.9999795998211,82.75,287.76135554114666S52.923467614827274,303.5539483458423,41.375,308.6436940766012S6.038700794397562,321.95661336114694,0,324.2316885123838Z"></path><path opacity="0.85" id="path_406" class="layer" fill="#98df8a" d="M0,322.757238140106C6.071226049396158,320.5197446266492,29.795710928795884,312.5702682866249,41.375,307.50886929894216S68.97985545176404,287.1309495988616,82.75,286.58655756936895S110.33481294777857,286.16575333893695,124.125,286.0229102083181S153.2105469480612,285.25371759140063,165.5,280.95704635750553S193.17352663293082,258.2032922222973,206.875,257.0916353092513S235.8810507141064,270.04825865280793,248.25,274.24319835808876S275.85927742820195,284.55875716827944,289.625,285.1563684234764S319.2435277935611,282.7271170956837,331,277.83562375454886S361.55693770910426,256.3984713662337,372.375,250.72673112486422S403.3477836312823,240.38892522779648,413.75,234.45109773196268S446.27615068958625,210.1045925790218,455.125,203.49110288337855S486.39810804414515,178.71027907720102,496.5,172.60505955042998S527.5477860231556,147.49850091921044,537.875,153.4799843673568S566.4702305322368,216.9374649565626,579.25,220.53354795436184S613.5652138374489,183.6587851279823,620.625,176.7649011116311S658.1717261332877,143.15501267993167,662,139.72813979920625L662,139.52210537449537C658.1532632463527,142.94687863392417,627.7528205964962,169.46659092432066,620.625,176.35852093490848S592.0315912861629,223.126648381822,579.25,219.53354795436184S548.2693769810054,159.03868252458358,537.875,153.09623271777457S506.60381873900786,166.12128913635505,496.5,172.2254964557447S463.97918400028084,196.47761225765285,455.125,203.08952423728303S424.15709205400253,228.084581348694,413.75,234.01952697250857S383.1935834380734,244.6087282903762,372.375,250.2801081028092S342.7569639807939,272.50820160247514,331,277.39920622212446S303.3922122993095,285.2850968492487,289.625,284.7048654582919S260.6210587717471,278.1038200060895,248.25,273.911633970182S220.59344816372916,255.66111751749236,206.875,256.6633371726448S177.80142954935008,275.6754523890755,165.5,279.95704635750553S137.91418726593622,285.2801198683522,124.125,285.46502233177364S96.51142735585184,285.49237071513437,82.75,286.1374568171931S52.94807630000568,302.00353943591324,41.375,307.07068020678446S6.066502709741785,320.1255903767109,0,322.36860987624493Z"></path><path opacity="0.85" id="path_126" class="layer" fill="#D1FF00" d="M0,319.5224834193689C5.98274153846385,317.1852217289294,29.927439097768165,308.5388052172558,41.375,303.3586224502445S68.96032990051293,282.24286899971145,82.75,282.0769412963644S110.33340502630759,281.9388303350622,124.125,281.9073857733165S152.9432142355231,281.5200152765906,165.5,277.58223227933934S193.1831234713165,254.3800718203408,206.875,253.2111773648635S235.91564084630974,266.27806222188474,248.25,270.51775021304894S275.8673106592998,280.9711234896991,289.625,281.65482627254704S319.22006243261757,279.4981617407483,331,274.63009814296583S361.530904921386,253.11200683670347,372.375,247.4583578776802S403.32914035003506,237.4145540406238,413.75,231.48777525040686S446.44316588710655,207.05550582978555,455.125,200.39497142355944S486.65855197796304,174.23863527853734,496.5,168.00358343698827S527.4802180638713,142.02647697091456,537.875,147.96868834683414S566.3935424476107,211.84040537894577,579.25,215.30789384760928S613.9858440431104,177.17807365019482,620.625,170.28701900772296S658.5096397553771,132.86590073714407,662,129.41824531889705L662,138.72813979920625C658.1717261332877,142.15501267993167,627.6847861625511,168.8710170952799,620.625,175.7649011116311S592.0297694677632,223.12963095216108,579.25,219.53354795436184S548.2022139768444,158.46146781550314,537.875,152.4799843673568S506.60189195585485,165.49984002365895,496.5,171.60505955042998S463.97384931041375,195.87761318773528,455.125,202.49110288337855S424.1522163687177,227.51327023612888,413.75,233.45109773196268S383.19306229089574,244.05499088349472,372.375,249.72673112486422S342.7564722064389,271.94413041341403,331,276.83562375454886S303.39072257179805,284.7539796786734,289.625,284.1563684234764S260.61894928589356,277.4381380633696,248.25,273.24319835808876S220.57647336706918,254.97997839620524,206.875,256.0916353092513S177.7894530519388,275.66037512361044,165.5,279.95704635750553S137.91518705222143,284.8800670776992,124.125,285.0229102083181S96.52014454823596,285.0421655398763,82.75,285.58655756936895S52.954289071204116,301.4474703112594,41.375,306.50886929894216S6.071226049396158,319.5197446266492,0,321.757238140106Z"></path><path opacity="0.85" id="path_106" class="layer" fill="#FFE999" d="M0,317.2090067467942C5.980637344974916,314.86946505963675,29.837415952670337,306.12335868734715,41.375,301.02368539680924S68.95864679441078,280.6988181496024,82.75,280.6330682261399S110.33334306324987,280.5774653682611,124.125,280.5658812553958S152.89467610772712,280.2019182836079,165.5,276.3348476974288S193.22141228829835,251.66507319683424,206.875,250.29202071322158S235.9817658048352,263.69004540332764,248.25,268.0132185829382S275.85981593346605,278.84832203663893,289.625,279.45209174885315S319.2085386920887,276.4992808002674,331,271.64280634901775S361.4786803650866,250.98719002298716,372.375,245.3703736015629S403.42878383407776,234.97189646730536,413.75,228.9869762663907S446.55544157490186,204.07611010511857,455.125,197.38647919763886S486.9026681079682,170.73470788658926,496.5,164.39007055270946S527.426539792293,136.77154746025815,537.875,142.68182322815505S566.3881079457607,207.74030405243568,579.25,211.19843370584843S614.2763612650566,171.80460034753852,620.625,164.93051164920155S658.711230188923,125.04380817417864,662,121.5995663681154L662,128.41824531889705C658.5096397553771,131.86590073714407,627.2641559568896,162.3959643652511,620.625,169.28701900772296S592.1064575523893,217.77538231627278,579.25,214.30789384760928S548.2697819361287,152.91089972275373,537.875,146.96868834683414S506.34144802203696,160.76853159543919,496.5,167.00358343698827S463.80683411289345,192.73443701733333,455.125,199.39497142355944S424.17085964996494,224.5609964601899,413.75,230.48777525040686S383.219095078614,240.80470891865696,372.375,246.4583578776802S342.77993756738243,268.7620345451834,331,273.63009814296583S303.3826893407002,281.338529055395,289.625,280.65482627254704S260.5843591536903,273.75743820421314,248.25,269.51775021304894S220.5668765286835,251.0422829093862,206.875,252.2111773648635S178.08370782594304,272.683437450494,165.5,276.58223227933934S137.91659608782115,280.87618649560704,124.125,280.9073857733165S96.53965301481523,280.91030528487823,82.75,281.0769412963644S52.822560902231835,297.17843968323325,41.375,302.3586224502445S5.98274153846385,316.1852217289294,0,318.5224834193689Z"></path><path opacity="0.85" id="path_116" class="layer" fill="#FFC41C" d="M0,309.84626144190054C5.800651808662995,307.3257919039189,29.805503693175805,296.9386511423142,41.375,291.8682081861878S69.01335910753542,274.4496860361387,82.75,273.58027859423134S110.33394389632865,274.55455005963074,124.125,274.46278782053884S152.530471412227,274.25458274495253,165.5,270.9891971142332S193.22101379347149,246.33189691255907,206.875,244.96080716216525S235.90645631086508,258.4518260219068,248.25,262.679706015521S275.8385144472506,273.03686938175167,289.625,273.3041320842884S319.48070055740055,269.40014116953483,331,264.2838848724384S361.56517113851754,242.228436034426,372.375,236.5510108815297S403.4473258625545,226.8182905331256,413.75,220.82279613344951S447.0345953975184,195.18740448518867,455.125,188.3958275811084S488.01814371513876,158.06838603324687,496.5,151.35742123239015S527.306859727578,117.0861890100098,537.875,122.92285579047893S566.6230285742992,193.22441432462477,579.25,197.05932938591698S614.7932559461152,154.86795071228912,620.625,148.05471129432692S659.0373265709012,103.79592268959982,662,100.38232219442284L662,120.5995663681154C658.711230188923,124.04380817417864,626.9736387349434,157.05642295086457,620.625,163.93051164920155S592.1118920542393,213.65656335926118,579.25,210.19843370584843S548.323460207707,147.59209899605196,537.875,141.68182322815505S506.0973318920318,157.04543321882966,496.5,163.39007055270946S463.69455842509814,189.69684829015915,455.125,196.38647919763886S424.07121616592224,222.00205606547607,413.75,227.9869762663907S383.2713196349134,238.75355718013864,372.375,244.3703736015629S342.7914613079113,265.7863318977681,331,270.64280634901775S303.39018406653395,279.05586146106737,289.625,278.45209174885315S260.5182341951648,271.3363917625487,248.25,267.0132185829382S220.52858771170165,247.9189682296089,206.875,249.29202071322158S178.12677742803677,271.4996427296996,165.5,275.3348476974288S137.91665700197717,279.55433603636004,124.125,279.5658812553958S96.54134903312891,279.5668821627737,82.75,279.6330682261399S52.91258404732966,294.92401210627133,41.375,300.02368539680924S5.980637344974916,313.86946505963675,0,316.2090067467942Z"></path><path opacity="0.85" id="path_606" class="layer" fill="#D66011" d="M0,306.84888388993903C5.718948717682115,304.25455492784914,29.862590370473825,293.2021110110267,41.375,288.0796369347095S69.02017225105764,270.9505067690571,82.75,270.0290743577888S110.33393615646912,271.0557973978372,124.125,270.96461860451325S152.52146937637244,270.75988288518755,165.5,267.51129687959093S193.24963502862602,241.5399715075689,206.875,240.03467376502059S236.02794318946803,253.98933629166578,248.25,258.36927474238047S275.8417799993572,269.34804223563265,289.625,269.68924929311993S319.53752345813865,265.58481021295273,331,260.41777168328065S361.74484083736064,238.18450722386422,372.375,232.3873244631011S403.9361676554607,221.53788459805952,413.75,215.28986098000942S447.5023672430416,186.5615636722532,455.125,179.70413850248798S488.4859237665974,147.6513849064758,496.5,140.84682392302096S527.399511918074,103.54914206558531,537.875,109.44308719953335S566.6631942019211,183.51114301348943,579.25,187.40541441731062S615.4001138842416,141.73569507742218,620.625,135.04536976715588S659.4251804132832,84.78181880526398,662,81.44627824498582L662,99.38232219442284C659.0373265709012,102.79592268959982,626.4567440538848,140.24147187636473,620.625,147.05471129432692S591.8769714257008,199.8942444472092,579.25,196.05932938591698S548.443140272422,127.75952257094806,537.875,121.92285579047893S504.98185628486124,143.64645643153344,496.5,150.35742123239015S463.2154046024816,180.60425067702812,455.125,187.3958275811084S424.0526741374455,213.82730173377342,413.75,219.82279613344951S383.18482886148246,229.87358572863337,372.375,235.5510108815297S342.51929944259945,258.167628575342,331,263.2838848724384S303.4114855527494,272.5713947868252,289.625,272.3041320842884S260.59354368913495,265.9075860091352,248.25,261.679706015521S220.52898620652851,242.58971741177143,206.875,243.96080716216525S178.4749129902608,266.73384645941246,165.5,269.9891971142332S137.91605364567252,273.37084106738104,124.125,273.46278782053884S96.48603451394307,271.70611318088197,82.75,272.58027859423134S52.94449630682419,285.79776523006143,41.375,290.8682081861878S5.800651808662995,306.3257919039189,0,308.84626144190054Z"></path><path opacity="0.85" id="path_616" class="layer" fill="#5E1F05" d="M0,304.0021045685921C5.674597441574305,301.36961106111016,30.002597087096078,290.0531624289047,41.375,284.80789387902337S69.0006132002251,266.59794776699084,82.75,265.8355028550543S110.33366005065868,266.67477624793725,124.125,266.60765047269956S152.456127149258,266.42792023858726,165.5,263.3047603878123S193.26031698302288,236.77156564847184,206.875,235.21928465273976S236.07890027109352,249.42882121349422,248.25,253.870001441412S275.84195874535413,265.0695958973498,289.625,265.4143920831194S319.6788335888775,261.2286405346583,331,255.9400731944672S362.1476340019603,232.79623989555526,372.375,226.75857416573007S404.5851738947585,213.60094433749222,413.75,207.0890944342666S448.1425496583121,174.85781288183134,455.125,167.96252355831672S489.17855410763224,132.25473825040152,496.5,125.372051906342S527.9589090023766,83.97232612362338,537.875,90.17156486740538S566.9840942118038,172.77877205793962,579.25,177.10483715114322S615.9437675755981,125.88722935670037,620.625,119.35668112739597S659.6578827374155,64.93032193098142,662,61.664539173630715L662,80.44627824498582C659.4251804132832,83.78181880526398,625.8498861157584,127.35504445688959,620.625,134.04536976715588S591.8368057980789,190.29968582113182,579.25,186.40541441731062S548.350488081926,114.33703233348139,537.875,108.44308719953335S504.5140762334026,133.04226293956611,496.5,139.84682392302096S462.7476327569584,171.84671333272277,455.125,178.70413850248798S423.5638323445393,208.04183736195932,413.75,214.28986098000942S383.00515916263936,225.59014170233797,372.375,231.3873244631011S342.46247654186135,254.25073315360854,331,259.41777168328065S303.4082200006428,269.0304563506072,289.625,268.68924929311993S260.47205681053197,261.74921319309516,248.25,257.36927474238047S220.50036497137398,237.52937602247226,206.875,239.03467376502059S178.48303893878253,263.2711664380656,165.5,266.51129687959093S137.916060275546,269.87317038694846,124.125,269.96461860451325S96.47909651614708,268.1022347624363,82.75,269.0290743577888S52.887409629526175,281.95716285839234,41.375,287.0796369347095S5.718948717682115,303.25455492784914,0,305.84888388993903Z"></path><path opacity="0.85" id="path_206" class="layer" fill="#330000" d="M0,300.82722063728954C5.583596545258815,298.12037731037634,30.082108948466697,286.08134461770436,41.375,280.7692451472568S69.214280758536,263.7634796576106,82.75,261.90218105498957S110.33371612137725,263.8758362285876,124.125,263.8031785477886S152.35946852431638,263.6573748261006,165.5,260.73226585855116S193.35413405400607,232.56326191317925,206.875,230.6497676638295S236.10457339996282,244.54985821813776,248.25,249.02135549481017S275.83766856847274,260.8707781430355,289.625,261.1152598881627S320.0748563589167,256.0848823138601,331,250.48870720893612S362.7812761189147,225.07448477532,372.375,218.72831238927014S405.18346928070827,202.44062510995192,413.75,195.75023740775836S448.6492222920775,160.98429323650709,455.125,154.10126551371883S490.65573124771294,114.61142244587539,496.5,107.79623871445625S527.626197860236,51.57812669147298,537.875,57.60391440298537S567.204464281154,151.8629536018428,579.25,156.44913749498926S617.1688029337955,95.08666000449055,620.625,89.1099201146373S660.4157241465834,16.251896828516603,662,13.351039669077977L662,60.664539173630715C659.6578827374155,63.93032193098142,625.3062324244019,111.82613289809157,620.625,118.35668112739597S591.5159057881962,180.4309022443468,579.25,176.10483715114322S547.7910909976234,95.37080361118738,537.875,89.17156486740538S503.82144589236776,117.48936556228249,496.5,124.372051906342S462.1074503416879,160.0672342348021,455.125,166.96252355831672S422.9148261052415,199.57724453104098,413.75,206.0890944342666S382.6023659980397,219.72090843590487,372.375,225.75857416573007S342.3211664111225,249.65150585427608,331,254.9400731944672S303.40804125464587,264.75918826888903,289.625,264.4143920831194S260.4210997289065,257.31118166932976,248.25,252.870001441412S220.48968301697712,232.66700365700768,206.875,234.21928465273976S178.54815178130437,259.1900380766156,165.5,262.3047603878123S137.9163381620665,265.5403413497775,124.125,265.60765047269956S96.49889834830796,264.0686800191646,82.75,264.8355028550543S52.74740291290392,278.562625329142,41.375,283.80789387902337S5.674597441574305,300.36961106111016,0,303.0021045685921Z"></path><path opacity="0.85" id="path_506" class="layer" fill="red" d="M0,293.5707207840592C5.694228896700629,290.9549588098961,29.974548715138198,279.7854581180027,41.375,274.56425763613277S69.4186880082948,258.1500410466222,82.75,255.67271753146494S110.33342808584048,258.2726767098026,124.125,258.23652721442045S152.33371006664143,258.10001454222,165.5,255.23053873846922S193.36735060019785,225.56933876098532,206.875,223.61066429484856S236.22995739924272,238.61673845098505,248.25,243.2313886809329S275.83444242636057,255.25578939284222,289.625,255.37946239412696S320.2173177978184,249.66953089146526,331,243.97348636637207S362.88366611903075,218.05479567255506,372.375,211.66606385251967S405.322318313277,194.9969964834157,413.75,188.27345887414123S448.8678967714515,152.5149584066457,455.125,145.64877014718525S490.8221180525851,104.25575091378501,496.5,97.46832785472566S527.8434039449857,40.58658971951673,537.875,46.728210801480884S567.1732225470931,143.57930991955465,579.25,148.13017087007466S617.3107414396329,83.8034588142979,620.625,77.91068022463725S660.4522498291437,3.877063890231956,662,0.9999999999998863L662,12.351039669077977C660.4157241465834,15.251896828516603,624.0811970662045,82.13318022478406,620.625,88.1099201146373S591.295535718846,160.0353213881357,579.25,155.44913749498926S548.123802139764,62.62970211449775,537.875,56.60391440298537S502.34426875228706,99.98105498303711,496.5,106.79623871445625S461.6007777079225,146.21823779093057,455.125,153.10126551371883S422.31653071929173,188.0598497055648,413.75,194.75023740775836S381.9687238810853,211.3821400032203,372.375,217.72831238927014S341.9251436410833,243.89253210401216,331,249.48870720893612S303.41233143152726,260.3597416332899,289.625,260.1152598881627S260.3954266000372,252.49285277148257,248.25,248.02135549481017S220.39586594599393,227.73627341447974,206.875,229.6497676638295S178.64095599210953,256.80806334539454,165.5,259.73226585855116S137.9162828846299,262.7304265949961,124.125,262.8031785477886S96.28489453870453,259.0379429606341,82.75,260.90218105498957S52.6678910515333,274.45714567680926,41.375,279.7692451472568S5.583596545258815,297.12037731037634,0,299.82722063728954Z"></path></g><g class="text_layers"><text class="label" style="font-weight: lighter; " font-size="18px" font-family="PT Sans Narrow" dy="6" opacity="1" pointer-events="none" text-anchor="middle" fill="#333333" x="620.625" y="350.3391411783042"><tspan x="620.625" dy="11px">Chemicals</tspan><tspan x="620.625" dy="11px">&amp; Allied</tspan><tspan x="620.625" dy="11px">Industries</tspan></text><text class="label" style="font-weight: lighter; " font-size="18px" font-family="PT Sans Narrow" dy="6" opacity="1" pointer-events="none" text-anchor="middle" fill="#333333" x="496.5" y="318.18919742991204"><tspan x="496.5" dy="11px">Transportation</tspan></text><text class="label" style="font-weight: lighter; " font-size="18px" font-family="PT Sans Narrow" dy="6" opacity="1" pointer-events="none" text-anchor="middle" fill="#ffffff" x="496.5" y="220.98177416467664"><tspan x="496.5" dy="11px">Machinery</tspan><tspan x="496.5" dy="11px">/ Electrical</tspan></text></g></g></g></svg>