<svg width="748" height="520" style="z-index: 10; position: absolute; "><rect id="svgbg" fill="#ffffff" width="748" height="520"></rect><g class="titles"></g><clipPath id="clipping"><rect width="748" height="520"></rect></clipPath><g class="parent" width="748" height="520" clip-path="url(#clipping)" transform="translate(0,0)"><g class="axes_labels"><text class="x_axis_label" x="374" y="510" font-family="sans-serif" font-size="14px" font-weight="lighter" fill="#333" text-anchor="middle">Year</text><text class="y_axis_label" y="15" x="-242.5" transform="rotate(-90)" font-family="sans-serif" font-size="14px" font-weight="lighter" fill="#333" text-anchor="middle">Current</text></g><g class="chart" transform="translate(40,5)"><rect style="fill: #fafafa; " id="background" x="0" y="0" width="698" height="475" stroke-width="1" stroke="#ccc" shape-rendering="crispEdges"></rect><g transform="translate(0,475)" class="xaxis"><path class="domain" d="M0,0V0H698V0"></path></g><g class="yaxis"><path class="domain" d="M0,0H0V475H0"></path></g><clipPath id="path_clipping"><rect width="698" height="475" y="1" x="1"></rect></clipPath><g class="layers" clip-path="url(#path_clipping)"><path opacity="0.85" id="path_5000" class="layer" fill="#71144b" d="M0,447.7655445574698C2.3444899478981194,447.8455807348383,9.38888888888889,448.24632126782274,14.083333333333332,448.24632126782274S23.47222222222222,448.24632126782274,28.166666666666664,448.24632126782274S37.55555555555556,448.24632126782274,42.25,448.24632126782274S51.638888888888886,448.24632126782274,56.33333333333333,448.24632126782274S65.73584498703963,448.1371367849484,70.41666666666666,447.88461800763895S79.8076686134962,446.82637405381087,84.5,446.7267991167214S93.88893813138073,446.6412298326967,98.58333333333331,446.626025763587S107.97224780843321,446.5456690874716,112.66666666666666,446.53470950757793S122.05587564606668,446.4556620592039,126.75,446.4944247302128S136.13914501311567,447.03486932815775,140.83333333333331,447.0001951972542S150.22274792280655,446.2366936920814,154.91666666666666,446.28636859345517S164.31776108217514,447.5373369571501,169,447.2982779858674S178.40009588951983,445.0773718810974,183.08333333333331,444.84827573318637S192.4875167479323,444.933987389281,197.16666666666663,445.20150445179024S206.56638873238072,447.0735788386469,211.25,447.29883067336175S220.65968666590854,446.8679129892609,225.33333333333331,446.55614150041396S234.72419855828556,445.3235763628567,239.41666666666663,445.4198774217756S248.83562365860482,446.75969294743317,253.5,447.13419120977045S262.8961960372341,447.49628533425874,267.5833333333333,447.6813518291656S276.97229703182,448.2275813664228,281.66666666666663,448.24632126782274S291.0571918905627,447.88142296830034,295.75,447.7937930294027S305.13911290821005,447.73275446561445,309.8333333333333,447.70032614353374S319.2222337439764,447.58444848356163,323.91666666666663,447.591802944944S333.3060265782677,447.791473952615,338,447.7444530201303S347.39409012927376,447.46582164022414,352.08333333333326,447.30964903978565S361.4759493253353,446.9386005625327,366.16666666666663,446.8063780712326S375.5660629883697,446.73753087170354,380.25,446.51568373186313S389.6392323575762,445.5124623918111,394.33333333333326,445.472309226301S403.72364219759265,446.3563803095704,408.41666666666663,446.27474711069226S417.8102957458051,445.1314594205284,422.5,444.98236183376423S431.88902400230023,444.851636609139,436.58333333333326,444.8264520077363S445.9889206519272,444.8243258523107,450.66666666666663,444.54484237694044S460.12445119750447,442.378261631142,464.75,441.81374400155545S474.1634629540675,441.4460461131812,478.83333333333326,441.1072870556254S488.2222222222222,439.77049382980505,492.91666666666663,439.77049382980505S502.30555555555554,439.77049382980505,507,439.77049382980505S516.3889030519568,438.9074474917636,521.0833333333333,438.91560148070107S530.4726977449814,439.77217292131553,535.1666666666666,439.8194179110331S544.6089766995392,439.6970246020676,549.25,439.1991001359429S558.9165687224937,437.90493297479253,563.3333333333333,436.79748254149536S573.900265621587,434.1719549502827,577.4166666666666,432.13664832948194S587.0809963846879,421.5977622683451,591.5,420.49450616945416S600.9004497066788,424.87183386498253,605.5833333333333,425.10450952838414S616.3263385957299,424.020786587708,619.6666666666666,421.89400664287524S630.850443529922,409.45216218047136,633.75,407.17085136448435S643.1914625320026,400.2270623508097,647.8333333333333,399.7330582426391S657.4655446847413,405.2139569978186,661.9166666666666,404.1732562907876S674.5447387919554,394.28682588310386,676,393.14751193909154L676,447.24632126782274C673.6527777777778,447.24632126782274,666.6111111111111,447.24632126782274,661.9166666666666,447.24632126782274S652.5277777777777,447.24632126782274,647.8333333333333,447.24632126782274S638.4444444444445,447.24632126782274,633.75,447.24632126782274S624.3611111111111,447.24632126782274,619.6666666666666,447.24632126782274S610.2777777777777,447.24632126782274,605.5833333333333,447.24632126782274S596.1944444444445,447.24632126782274,591.5,447.24632126782274S582.1111111111111,447.24632126782274,577.4166666666666,447.24632126782274S568.0277777777777,447.24632126782274,563.3333333333333,447.24632126782274S553.9444444444445,447.24632126782274,549.25,447.24632126782274S539.8611111111111,447.24632126782274,535.1666666666666,447.24632126782274S525.7777777777777,447.24632126782274,521.0833333333333,447.24632126782274S511.69444444444446,447.24632126782274,507,447.24632126782274S497.6111111111111,447.24632126782274,492.91666666666663,447.24632126782274S483.5277777777777,447.24632126782274,478.83333333333326,447.24632126782274S469.44444444444446,447.24632126782274,464.75,447.24632126782274S455.3611111111111,447.24632126782274,450.66666666666663,447.24632126782274S441.2777777777777,447.24632126782274,436.58333333333326,447.24632126782274S427.19444444444446,447.24632126782274,422.5,447.24632126782274S413.1111111111111,447.24632126782274,408.41666666666663,447.24632126782274S399.0277777777777,447.24632126782274,394.33333333333326,447.24632126782274S384.94444444444446,447.24632126782274,380.25,447.24632126782274S370.8611111111111,447.24632126782274,366.16666666666663,447.24632126782274S356.7777777777777,447.24632126782274,352.08333333333326,447.24632126782274S342.69444444444446,447.24632126782274,338,447.24632126782274S328.6111111111111,447.24632126782274,323.91666666666663,447.24632126782274S314.52777777777777,447.24632126782274,309.8333333333333,447.24632126782274S300.44444444444446,447.24632126782274,295.75,447.24632126782274S286.3611111111111,447.24632126782274,281.66666666666663,447.24632126782274S272.27777777777777,447.24632126782274,267.5833333333333,447.24632126782274S258.19444444444446,447.24632126782274,253.5,447.24632126782274S244.1111111111111,447.24632126782274,239.41666666666663,447.24632126782274S230.02777777777774,447.24632126782274,225.33333333333331,447.24632126782274S215.94444444444446,447.24632126782274,211.25,447.24632126782274S201.8611111111111,447.24632126782274,197.16666666666663,447.24632126782274S187.77777777777774,447.24632126782274,183.08333333333331,447.24632126782274S173.69444444444446,447.24632126782274,169,447.24632126782274S159.61111111111111,447.24632126782274,154.91666666666666,447.24632126782274S145.52777777777777,447.24632126782274,140.83333333333331,447.24632126782274S131.44444444444446,447.24632126782274,126.75,447.24632126782274S117.3611111111111,447.24632126782274,112.66666666666666,447.24632126782274S103.27777777777776,447.24632126782274,98.58333333333331,447.24632126782274S89.19444444444444,447.24632126782274,84.5,447.24632126782274S75.1111111111111,447.24632126782274,70.41666666666666,447.24632126782274S61.02777777777777,447.24632126782274,56.33333333333333,447.24632126782274S46.94444444444444,447.24632126782274,42.25,447.24632126782274S32.86111111111111,447.24632126782274,28.166666666666664,447.24632126782274S18.777777777777775,447.24632126782274,14.083333333333332,447.24632126782274S2.347222222222222,447.24632126782274,0,447.24632126782274Z"></path><path opacity="0.85" id="path_8000" class="layer" fill="#5493c9" d="M0,447.7655445574698C2.3444899478981194,447.8455807348383,9.38888888888889,448.24632126782274,14.083333333333332,448.24632126782274S23.47222222222222,448.24632126782274,28.166666666666664,448.24632126782274S37.55555555555556,448.24632126782274,42.25,448.24632126782274S51.638888888888886,448.24632126782274,56.33333333333333,448.24632126782274S65.73584498703963,448.1371367849484,70.41666666666666,447.88461800763895S79.8076686134962,446.82637405381087,84.5,446.7267991167214S93.88893813138073,446.6412298326967,98.58333333333331,446.626025763587S107.97224780843321,446.5456690874716,112.66666666666666,446.53470950757793S122.05587564606668,446.4556620592039,126.75,446.4944247302128S136.13914501311567,447.03486932815775,140.83333333333331,447.0001951972542S150.22274792280655,446.2366936920814,154.91666666666666,446.28636859345517S164.32627625695312,447.60947379897283,169,447.2982779858674S178.39691040812255,444.6048028581114,183.08333333333331,444.4109156959998S192.47444714151007,444.52821865389603,197.16666666666663,444.6303940409738S206.55558323279783,445.8037117711665,211.25,445.8151103899492S220.63892877058584,445.81098443662154,225.33333333333331,445.7973015706872S234.7271571211269,444.2622288519314,239.41666666666663,444.41435464040904S248.8678726369604,446.1737453245555,253.5,446.71101681827196S262.8915047415069,447.5705676601472,267.5833333333333,447.6813518291656S276.97338390440353,447.6219924999789,281.66666666666663,447.54815414303S291.055692571188,447.0982060680855,295.75,447.12356732793484S305.1401101836417,447.62461743329135,309.8333333333333,447.70032614353374S319.22350902752265,447.6695151069646,323.91666666666663,447.591802944944S333.3056024360395,447.2345280167506,338,447.2196930705196S347.3905651650848,447.39834163008413,352.08333333333326,447.30964903978565S361.4825565645099,445.7522311346313,366.16666666666663,445.53221477817345S375.569449077868,446.24164693470703,380.25,445.98663842765046S389.65514769609587,444.27341489621284,394.33333333333326,443.99762200588617S403.72601244947225,444.45946664384064,408.41666666666663,444.3261300568336S417.8736453654786,443.75821142305557,422.5,443.19695603760175S431.89255047705694,441.0400911944399,436.58333333333326,440.90903504232983S446.1773649002622,443.3696653536813,450.66666666666663,442.41000531653793S460.51972578118006,436.2892331236326,464.75,434.88795965331957S474.14119607222057,433.1838756178557,478.83333333333326,433.0798293739107S488.2222222222222,432.9755774056869,492.91666666666663,432.9755774056869S502.30555555555554,432.9755774056869,507,432.9755774056869S516.4212056030243,432.19657591925795,521.0833333333333,432.5847313637948S530.5050028733973,436.1366050652735,535.1666666666666,436.52751729928855S544.7003327582361,435.7582940699966,549.25,434.94669805202346S559.3696695438963,433.20491492051104,563.3333333333333,431.5029840111396S574.4452189319304,425.1150990101434,577.4166666666666,422.8524026827454S587.8933754607408,412.0353935519303,591.5,410.0546467320829S601.3058366066044,408.42446622538677,605.5833333333333,407.0889915915035S616.2383193181046,403.1768220096185,619.6666666666666,401.09340639537095S630.3236567747321,392.05648925677974,633.75,389.9720348866197S643.1397420595647,384.02117908991664,647.8333333333333,383.9578984891009S657.4747089801343,390.6513079944698,661.9166666666666,389.5922822652945S674.6731052084951,378.4061235354884,676,377.2425655638134L676,392.14751193909154C674.5447387919554,393.28682588310386,666.367788648592,402.1325555837566,661.9166666666666,403.1732562907876S652.475204134664,398.2390541344685,647.8333333333333,398.7330582426391S636.649556470078,403.88954054849734,633.75,406.17085136448435S623.0069947376033,418.76722669804246,619.6666666666666,420.89400664287524S610.2662169599877,424.33718519178575,605.5833333333333,424.10450952838414S595.9190036153121,418.3912500705632,591.5,419.49450616945416S580.9330677117463,429.10134170868116,577.4166666666666,431.13664832948194S567.7500979441728,434.6900321081982,563.3333333333333,435.79748254149536S553.8910233004608,437.7011756698182,549.25,438.1991001359429S539.8606355883519,438.86666290075067,535.1666666666666,438.8194179110331S525.7777636147097,437.92375546963854,521.0833333333333,437.91560148070107S511.69444444444446,438.77049382980505,507,438.77049382980505S497.6111111111111,438.77049382980505,492.91666666666663,438.77049382980505S483.50320371259903,439.76852799806966,478.83333333333326,440.1072870556254S469.37554880249553,440.2492263719689,464.75,440.81374400155545S455.34462497661565,443.26713488719304,450.66666666666663,443.54484237694044S441.27763619548057,443.80067158527066,436.58333333333326,443.8264520077363S427.18941341990165,443.8287631553621,422.5,443.98236183376423S413.1096911357406,445.1931139118141,408.41666666666663,445.27474711069226S399.0274343090903,444.4321560607909,394.33333333333326,444.472309226301S384.9339370116303,445.2938365920227,380.25,445.51568373186313S370.85738400799795,445.67415557993246,366.16666666666663,445.8063780712326S356.77257653739275,446.1534764393472,352.08333333333326,446.30964903978565S342.6939734217323,446.69743208764567,338,446.7444530201303S328.61109958935685,446.59915740632636,323.91666666666663,446.591802944944S314.5275537584566,446.66789782145304,309.8333333333333,446.70032614353374S300.4428081094373,446.7061630905051,295.75,446.7937930294027S286.36103630151325,447.2650611692227,281.66666666666663,447.24632126782274S272.2704706294325,446.8664183240724,267.5833333333333,446.6813518291656S258.16437634139515,446.50868947210773,253.5,446.13419120977045S244.1091347750477,444.51617848069446,239.41666666666663,444.4198774217756S230.0069800007581,445.244370011567,225.33333333333331,445.55614150041396S215.93361126761928,446.5240825080766,211.25,446.29883067336175S201.84581658540097,444.46902151429947,197.16666666666663,444.20150445179024S187.7665707771468,443.61917958527533,183.08333333333331,443.84827573318637S173.68223891782486,446.0592190145847,169,446.2982779858674S159.61058541052677,445.3360434948289,154.91666666666666,445.28636859345517S145.52752165355096,445.9655210663506,140.83333333333331,446.0001951972542S131.44412435393332,445.5331874012217,126.75,445.4944247302128S117.3610855249001,445.52374992768426,112.66666666666666,445.53470950757793S103.2777285352859,445.6108216944773,98.58333333333331,445.626025763587S89.1923313865038,445.6272241796319,84.5,445.7267991167214S75.09748834629369,446.6320992303295,70.41666666666666,446.88461800763895S61.02777777777777,447.24632126782274,56.33333333333333,447.24632126782274S46.94444444444444,447.24632126782274,42.25,447.24632126782274S32.86111111111111,447.24632126782274,28.166666666666664,447.24632126782274S18.777777777777775,447.24632126782274,14.083333333333332,447.24632126782274S2.3444899478981194,446.8455807348383,0,446.7655445574698Z"></path><path opacity="0.85" id="path_7000" class="layer" fill="#9edae5" d="M0,446.82364224767383C2.347217610170352,446.8269324588172,9.389159285832209,446.8242468825794,14.083333333333332,446.85987398341376S23.479220080533178,447.3971024235064,28.166666666666664,447.21598895893254S37.56392936358664,445.9696624315591,42.25,445.77157089733964S51.640131730600146,445.9489423983284,56.33333333333333,446.0253158669626S65.72312807011065,446.2951375992371,70.41666666666666,446.22993305931107S79.81346600776293,445.8265555920359,84.5,445.63401312097096S93.89754349954798,445.2741077249438,98.58333333333331,445.0727282656094S107.99183002371136,444.7262641130395,112.66666666666666,444.4235046889264S122.07526076061127,442.94504516238857,126.75,443.24855248568434S136.15320190404194,445.99340672074663,140.83333333333331,446.25222478824935S150.2801746928462,445.3245691819574,154.91666666666666,444.80621007389504S164.44996312097126,443.9137878953689,169,443.1031956746733S178.4441888206907,440.29480100096504,183.08333333333331,439.78829890307406S192.49289821396258,439.4990030745056,197.16666666666663,439.18814169394403S206.58760324369788,437.7898157231312,211.25,437.4032681358386S220.65614282858942,437.1369915999132,225.33333333333331,436.85291421092063S234.84954953979752,434.92994232981226,239.41666666666663,435.69251611169614S248.82578684555693,441.2484015137431,253.5,441.55591632941184S262.89647404465325,441.7293780827852,267.5833333333333,441.91792663820354S276.9895957508746,445.07758703077843,281.66666666666663,445.36264356125076S291.05885420155005,445.17501702501494,295.75,445.05062076583584S305.1755124878586,444.4126847795344,309.8333333333333,443.9996640019486S319.3783408212145,443.39474561829684,323.91666666666663,442.5530110563578S333.43754761639224,439.5515426967395,338,438.77552240539296S347.42064490656804,438.14698397686243,352.08333333333326,437.76218738629393S361.62954942621127,437.2958924707052,366.16666666666663,436.451018533593S375.9984606097316,433.889399542205,380.25,432.5171647649244S389.7132596870321,427.9460655166605,394.33333333333326,427.3598927054893S403.7546159909047,429.3321277422605,408.41666666666663,428.94351303438543S418.233646214448,426.3634415357589,422.5,425.0120029677414S432.66560177633886,421.7656586650084,436.58333333333326,420.02125257986444S447.1754538484706,414.5201051446879,450.66666666666663,412.4705350246829S462.5667054443898,405.8270691445763,464.75,403.4855781920819S475.2226827416752,384.2411590438704,478.83333333333326,382.26297782977537S488.2222222222222,388.05379673075544,492.91666666666663,388.05379673075544S502.30555555555554,388.05379673075544,507,388.05379673075544S516.7633487341336,391.3548745545322,521.0833333333333,392.62674749019686S531.7961576701359,394.23409206567896,535.1666666666666,396.3465163455099S544.7252765838119,409.40353062038724,549.25,410.27985288460934S560.7765829710439,404.13952505754645,563.3333333333333,401.8016734542547S576.8352822004803,386.0710766823778,577.4166666666666,384.524703771385S586.9160008194215,327.595192422798,591.5,326.8836581656746S600.8994845097637,326.34431394819734,605.5833333333333,326.1215398779605S619.2956333617764,310.25457584841655,619.6666666666666,308.98803349874635S632.9860868385473,231.70588927297004,633.75,229.97309252245972S645.287020846256,216.1459923121971,647.8333333333333,218.4847559229397S657.8332808403992,268.19944527669264,661.9166666666666,266.61982883575433S675.873595473818,208.11859775069183,676,207.5887662599284L676,376.2425655638134C674.6731052084951,377.4061235354884,666.3586243531989,387.5332565361192,661.9166666666666,388.5922822652945S652.5269246071018,382.89461788828515,647.8333333333333,382.9578984891009S637.1763432252679,386.8875805164597,633.75,388.9720348866197S623.0950140152287,398.0099907811234,619.6666666666666,400.09340639537095S609.8608300600621,404.7535169576202,605.5833333333333,406.0889915915035S595.1066245392592,407.0738999122355,591.5,409.0546467320829S580.3881144014028,419.58970635534735,577.4166666666666,421.8524026827454S567.2969971227702,428.8010531017681,563.3333333333333,430.5029840111396S553.7996672417639,433.1351020340503,549.25,433.94669805202346S539.828330459936,435.9184295333036,535.1666666666666,435.52751729928855S525.7458450503565,431.97058977792835,521.0833333333333,431.5847313637948S511.69444444444446,431.9755774056869,507,431.9755774056869S497.6111111111111,431.9755774056869,492.91666666666663,431.9755774056869S483.52546374134556,431.97562879469695,478.83333333333326,432.0798293739107S468.98027421881994,432.48668618300655,464.75,433.88795965331957S455.15596843307105,440.4503452793946,450.66666666666663,441.41000531653793S441.2741161896096,439.77797889021974,436.58333333333326,439.90903504232983S427.1263546345214,441.63570065214793,422.5,442.19695603760175S413.107320883861,443.1927934698266,408.41666666666663,443.3261300568336S399.01151897057065,442.7218291155595,394.33333333333326,442.99762200588617S384.930550922132,444.7316299205939,380.25,444.98663842765046S370.8507767688234,444.3121984217156,366.16666666666663,444.53221477817345S356.7761015015817,446.2209564494872,352.08333333333326,446.30964903978565S342.6943975639605,446.20485812428865,338,446.2196930705196S328.6098243058106,446.5140907829234,323.91666666666663,446.591802944944S314.52655648302493,446.77603485377614,309.8333333333333,446.70032614353374S300.444307428812,446.14892858778416,295.75,446.12356732793484S286.3599494289297,446.4743157860811,281.66666666666663,446.54815414303S272.27516192515975,446.79213599818394,267.5833333333333,446.6813518291656S258.13212736303956,446.2482883119884,253.5,445.71101681827196S244.10617621220635,443.5664804288867,239.41666666666663,443.41435464040904S230.0277378960808,444.7836187047528,225.33333333333331,444.7973015706872S215.94441676720217,444.82650900873193,211.25,444.8151103899492S201.8588861918232,443.73256942805153,197.16666666666663,443.6303940409738S187.76975625854408,443.2170285338882,183.08333333333331,443.4109156959998S173.67372374304688,445.987082172762,169,446.2982779858674S159.61058541052677,445.3360434948289,154.91666666666666,445.28636859345517S145.52752165355096,445.9655210663506,140.83333333333331,446.0001951972542S131.44412435393332,445.5331874012217,126.75,445.4944247302128S117.3610855249001,445.52374992768426,112.66666666666666,445.53470950757793S103.2777285352859,445.6108216944773,98.58333333333331,445.626025763587S89.1923313865038,445.6272241796319,84.5,445.7267991167214S75.09748834629369,446.6320992303295,70.41666666666666,446.88461800763895S61.02777777777777,447.24632126782274,56.33333333333333,447.24632126782274S46.94444444444444,447.24632126782274,42.25,447.24632126782274S32.86111111111111,447.24632126782274,28.166666666666664,447.24632126782274S18.777777777777775,447.24632126782274,14.083333333333332,447.24632126782274S2.3444899478981194,446.8455807348383,0,446.7655445574698Z"></path><path opacity="0.85" id="path_9000" class="layer" fill="#9c9a87" d="M0,446.82364224767383C2.347217610170352,446.8269324588172,9.389159285832209,446.8242468825794,14.083333333333332,446.85987398341376S23.479220080533178,447.3971024235064,28.166666666666664,447.21598895893254S37.56392936358664,445.9696624315591,42.25,445.77157089733964S51.640131730600146,445.9489423983284,56.33333333333333,446.0253158669626S65.72312807011065,446.2951375992371,70.41666666666666,446.22993305931107S79.81346600776293,445.8265555920359,84.5,445.63401312097096S93.89754349954798,445.2741077249438,98.58333333333331,445.0727282656094S107.99183002371136,444.7262641130395,112.66666666666666,444.4235046889264S122.07526076061127,442.94504516238857,126.75,443.24855248568434S136.15320190404194,445.99340672074663,140.83333333333331,446.25222478824935S150.2801746928462,445.3245691819574,154.91666666666666,444.80621007389504S164.44996312097126,443.9137878953689,169,443.1031956746733S178.4441888206907,440.29480100096504,183.08333333333331,439.78829890307406S192.49289821396258,439.4990030745056,197.16666666666663,439.18814169394403S206.58760324369788,437.7898157231312,211.25,437.4032681358386S220.65614282858942,437.1369915999132,225.33333333333331,436.85291421092063S234.84954953979752,434.92994232981226,239.41666666666663,435.69251611169614S248.82578684555693,441.2484015137431,253.5,441.55591632941184S262.89647404465325,441.7293780827852,267.5833333333333,441.91792663820354S276.9895957508746,445.07758703077843,281.66666666666663,445.36264356125076S291.05885420155005,445.17501702501494,295.75,445.05062076583584S305.1755124878586,444.4126847795344,309.8333333333333,443.9996640019486S319.3783408212145,443.39474561829684,323.91666666666663,442.5530110563578S333.43754761639224,439.5515426967395,338,438.77552240539296S347.42064490656804,438.14698397686243,352.08333333333326,437.76218738629393S361.62954942621127,437.2958924707052,366.16666666666663,436.451018533593S375.9984606097316,433.889399542205,380.25,432.5171647649244S389.7132596870321,427.9460655166605,394.33333333333326,427.3598927054893S403.7546159909047,429.3321277422605,408.41666666666663,428.94351303438543S418.233646214448,426.3634415357589,422.5,425.0120029677414S432.66560177633886,421.7656586650084,436.58333333333326,420.02125257986444S447.1754538484706,414.5201051446879,450.66666666666663,412.4705350246829S462.5667054443898,405.8270691445763,464.75,403.4855781920819S475.2226827416752,384.2411590438704,478.83333333333326,382.26297782977537S488.2222222222222,388.05379673075544,492.91666666666663,388.05379673075544S502.30555555555554,388.05379673075544,507,388.05379673075544S516.7633487341336,390.97113521408113,521.0833333333333,392.2430081497458S531.837421395642,394.21459634416965,535.1666666666666,396.3465163455099S544.7252765838119,409.40353062038724,549.25,410.27985288460934S560.7765829710439,404.13952505754645,563.3333333333333,401.8016734542547S576.8352822004803,386.0710766823778,577.4166666666666,384.524703771385S586.9160008194215,327.595192422798,591.5,326.8836581656746S600.8994845097637,326.34431394819734,605.5833333333333,326.1215398779605S619.30124112698,310.2457831040274,619.6666666666666,308.98803349874635S632.8872025777114,230.9935727383507,633.75,229.17534965692312S645.1432224839862,216.16271381525038,647.8333333333333,218.4847559229397S657.938494558925,267.93366484441276,661.9166666666666,266.24563207476103S675.8763135323369,207.057395986147,676,206.53297126971574L676,206.5887662599284C675.873595473818,207.11859775069183,666.0000524929341,264.040212394816,661.9166666666666,265.61982883575433S650.3796458204105,219.82351953368232,647.8333333333333,217.4847559229397S634.5139131614527,227.2402957719494,633.75,228.97309252245972S620.0376999715569,306.72149114907614,619.6666666666666,307.98803349874635S610.2671821569028,324.8987658077237,605.5833333333333,325.1215398779605S596.0839991805785,325.1721239085512,591.5,325.8836581656746S577.998051132853,381.97833086039225,577.4166666666666,383.524703771385S565.8900836956226,398.4638218509629,563.3333333333333,400.8016734542547S553.7747234161881,410.15617514883144,549.25,409.27985288460934S538.5371756631973,397.4589406253408,535.1666666666666,395.3465163455099S525.4033179325329,392.8986204258615,521.0833333333333,391.62674749019686S511.69444444444446,387.05379673075544,507,387.05379673075544S497.6111111111111,387.05379673075544,492.91666666666663,387.05379673075544S482.4439839249913,379.2847966156803,478.83333333333326,381.26297782977537S466.9332945556102,400.1440872395875,464.75,402.4855781920819S454.15787948486263,409.4209649046779,450.66666666666663,411.4705350246829S440.50106489032765,417.2768464947205,436.58333333333326,419.02125257986444S426.766353785552,422.6605643997239,422.5,424.0120029677414S413.07871734242855,427.55489832651034,408.41666666666663,427.94351303438543S398.9534069796344,425.7737198943181,394.33333333333326,426.3598927054893S384.5015393902684,430.1449299876438,380.25,431.5171647649244S370.703783907122,434.6061445964808,366.16666666666663,435.451018533593S356.7460217600985,436.37739079572543,352.08333333333326,436.76218738629393S342.56245238360776,436.99950211404644,338,437.77552240539296S328.45499251211874,440.7112764944187,323.91666666666663,441.5530110563578S314.491154178808,442.5866432243628,309.8333333333333,442.9996640019486S300.44114579844995,443.92622450665675,295.75,444.05062076583584S286.34373758245863,444.6477000917231,281.66666666666663,444.36264356125076S272.2701926220134,441.10647519362186,267.5833333333333,440.91792663820354S258.17421315444307,440.8634311450806,253.5,440.55591632941184S243.98378379353574,435.45508989358,239.41666666666663,434.69251611169614S230.0105238380772,435.5688368219281,225.33333333333331,435.85291421092063S215.91239675630212,436.01672054854595,211.25,436.4032681358386S201.84043511937068,437.87728031338247,197.16666666666663,438.18814169394403S187.72247784597593,438.2817968051831,183.08333333333331,438.78829890307406S173.55003687902874,441.29260345397773,169,442.1031956746733S159.5531586404871,443.2878509658327,154.91666666666666,443.80621007389504S145.5134647626247,445.51104285575207,140.83333333333331,445.25222478824935S131.4247392393887,442.5520598089801,126.75,442.24855248568434S117.34150330962196,443.1207452648133,112.66666666666666,443.4235046889264S103.26912316711865,443.87134880627497,98.58333333333331,444.0727282656094S89.18653399223707,444.441470649906,84.5,444.63401312097096S75.11020526322267,445.16472851938505,70.41666666666666,445.22993305931107S61.02653493606651,445.1016893355968,56.33333333333333,445.0253158669626S46.93607063641336,444.5734793631202,42.25,444.77157089733964S32.854113252800154,446.0348754943587,28.166666666666664,446.21598895893254S18.777507380834457,445.8955010842481,14.083333333333332,445.85987398341376S2.347217610170352,445.8269324588172,0,445.82364224767383Z"></path><path opacity="0.85" id="path_0000" class="layer" fill="#ffe999" d="M0,444.8245101709298C2.3192257037692268,445.07932430949404,9.402236052919768,446.12189218282475,14.083333333333332,446.37185092591284S23.48007210008054,446.87948622024277,28.166666666666664,446.68768112406656S37.57560788239204,445.2499867986875,42.25,444.9438292599853S51.6389059732595,444.62727244461706,56.33333333333333,444.6362279645252S65.72258514181965,445.04485529586043,70.41666666666666,445.0035809190955S79.81433595509691,444.5913974715701,84.5,444.3885625573399S93.90258641237493,444.0374995872395,98.58333333333331,443.7842908968631S107.98620437931586,443.12068275987104,112.66666666666666,442.86486454517024S122.12247829929193,441.68825438866634,126.75,442.2447491765224S136.14071175907694,446.1597367351204,140.83333333333331,446.25222478824935S150.43023231970156,443.76592807246845,154.91666666666666,442.79989305972464S164.3333110602744,440.54717549816655,169,440.1872778642649S178.3948697394035,439.9557533741955,183.08333333333331,439.78829890307406S192.50564161086103,439.18721558690663,197.16666666666663,438.79254026744087S206.57771172822459,437.72501341662587,211.25,437.4032681358386S220.6672565230512,437.2167349908761,225.33333333333331,436.85291421092063S234.8281070374441,434.51003654715095,239.41666666666663,435.2070722625021S248.92710841377743,440.3860843899387,253.5,441.13163656292465S262.9924770856235,439.1096837315575,267.5833333333333,439.7992912432392S276.98859260445977,445.0859092834063,281.66666666666663,445.36264356125076S291.05986296128856,445.1927556425168,295.75,445.05062076583584S305.2079335240858,443.23753761448484,309.8333333333333,442.6724190052804S319.35253220948414,442.3804968666158,323.91666666666663,441.6092950104345S333.46365391174123,438.75996702419496,338,437.9130969871509S347.46303238214824,436.93627750605134,352.08333333333326,436.3509867642566S361.8272259984633,435.5861743992095,366.16666666666663,434.3449984149162S376.13005029956105,429.8331671196244,380.25,428.2946972796636S389.64158302463295,423.9394425965273,394.33333333333326,423.82701389819243S403.7254064009182,423.7830631526319,408.41666666666663,423.6608428147349S418.45787836107604,420.4128744397508,422.5,418.7890616033198S432.5181262606419,413.94501642428605,436.58333333333326,412.3456477319413S447.16566267790625,409.75156392497894,450.66666666666663,407.7074896123137S462.9068527367322,398.1928910599069,464.75,395.90043373287796S474.466036889376,373.86984634533553,478.83333333333326,372.6745420747937S488.2222222222222,373.96159397881104,492.91666666666663,373.96159397881104S502.30555555555554,373.96159397881104,507,373.96159397881104S517.3148980915545,379.53154479942714,521.0833333333333,381.3995934373209S531.861022335315,385.7814406935944,535.1666666666666,387.924074404994S544.5560391040419,399.704144953999,549.25,399.6565029799997S561.6350583257627,389.8939235218563,563.3333333333333,387.63819311396406S577.0692213168694,363.4731446771818,577.4166666666666,362.2441838881376S589.7936348551635,290.26695857223757,591.5,288.0089164187651S601.1114633128539,295.3130352557908,605.5833333333333,294.3153760485187S619.3724764204495,277.26742889999576,619.6666666666666,276.1296627263051S633.4871798427711,182.39877305548592,633.75,181.31955102460194S646.016056640985,158.18187613428148,647.8333333333333,160.46849151423947S657.9296135389512,218.44008422893936,661.9166666666666,216.76067755934346S675.9038844639877,149.06942034219338,676,148.6042684038269L676,205.53297126971574C675.8763135323369,206.057395986147,665.8948387744083,263.5575993051093,661.9166666666666,265.24563207476103S650.5234441826804,219.80679803062904,647.8333333333333,217.4847559229397S634.6127974222886,226.35712657549553,633.75,228.17534965692312S620.0320922063532,306.7302838934653,619.6666666666666,307.98803349874635S610.2671821569028,324.8987658077237,605.5833333333333,325.1215398779605S596.0839991805785,325.1721239085512,591.5,325.8836581656746S577.998051132853,381.97833086039225,577.4166666666666,383.524703771385S565.8900836956226,398.4638218509629,563.3333333333333,400.8016734542547S553.7747234161881,410.15617514883144,549.25,409.27985288460934S538.4959119376913,397.4784363468501,535.1666666666666,395.3465163455099S525.4033179325329,392.5148810854104,521.0833333333333,391.2430081497458S511.69444444444446,387.05379673075544,507,387.05379673075544S497.6111111111111,387.05379673075544,492.91666666666663,387.05379673075544S482.4439839249913,379.2847966156803,478.83333333333326,381.26297782977537S466.9332945556102,400.1440872395875,464.75,402.4855781920819S454.15787948486263,409.4209649046779,450.66666666666663,411.4705350246829S440.50106489032765,417.2768464947205,436.58333333333326,419.02125257986444S426.766353785552,422.6605643997239,422.5,424.0120029677414S413.07871734242855,427.55489832651034,408.41666666666663,427.94351303438543S398.9534069796344,425.7737198943181,394.33333333333326,426.3598927054893S384.5015393902684,430.1449299876438,380.25,431.5171647649244S370.703783907122,434.6061445964808,366.16666666666663,435.451018533593S356.7460217600985,436.37739079572543,352.08333333333326,436.76218738629393S342.56245238360776,436.99950211404644,338,437.77552240539296S328.45499251211874,440.7112764944187,323.91666666666663,441.5530110563578S314.491154178808,442.5866432243628,309.8333333333333,442.9996640019486S300.44114579844995,443.92622450665675,295.75,444.05062076583584S286.34373758245863,444.6477000917231,281.66666666666663,444.36264356125076S272.2701926220134,441.10647519362186,267.5833333333333,440.91792663820354S258.17421315444307,440.8634311450806,253.5,440.55591632941184S243.98378379353574,435.45508989358,239.41666666666663,434.69251611169614S230.0105238380772,435.5688368219281,225.33333333333331,435.85291421092063S215.91239675630212,436.01672054854595,211.25,436.4032681358386S201.84043511937068,437.87728031338247,197.16666666666663,438.18814169394403S187.72247784597593,438.2817968051831,183.08333333333331,438.78829890307406S173.55003687902874,441.29260345397773,169,442.1031956746733S159.5531586404871,443.2878509658327,154.91666666666666,443.80621007389504S145.5134647626247,445.51104285575207,140.83333333333331,445.25222478824935S131.4247392393887,442.5520598089801,126.75,442.24855248568434S117.34150330962196,443.1207452648133,112.66666666666666,443.4235046889264S103.26912316711865,443.87134880627497,98.58333333333331,444.0727282656094S89.18653399223707,444.441470649906,84.5,444.63401312097096S75.11020526322267,445.16472851938505,70.41666666666666,445.22993305931107S61.02653493606651,445.1016893355968,56.33333333333333,445.0253158669626S46.93607063641336,444.5734793631202,42.25,444.77157089733964S32.854113252800154,446.0348754943587,28.166666666666664,446.21598895893254S18.777507380834457,445.8955010842481,14.083333333333332,445.85987398341376S2.347217610170352,445.8269324588172,0,445.82364224767383Z"></path><path opacity="0.85" id="path_4000" class="layer" fill="#ffc41c" d="M0,444.8245101709298C2.3192257037692268,445.07932430949404,9.402236052919768,446.12189218282475,14.083333333333332,446.37185092591284S23.48007210008054,446.87948622024277,28.166666666666664,446.68768112406656S37.57560788239204,445.2499867986875,42.25,444.9438292599853S51.6389059732595,444.62727244461706,56.33333333333333,444.6362279645252S65.72258514181965,445.04485529586043,70.41666666666666,445.0035809190955S79.81433595509691,444.5913974715701,84.5,444.3885625573399S93.90258641237493,444.0374995872395,98.58333333333331,443.7842908968631S107.98620437931586,443.12068275987104,112.66666666666666,442.86486454517024S122.12247829929193,441.68825438866634,126.75,442.2447491765224S136.14071175907694,446.1597367351204,140.83333333333331,446.25222478824935S150.43023231970156,443.76592807246845,154.91666666666666,442.79989305972464S164.3333110602744,440.54717549816655,169,440.1872778642649S178.3948697394035,439.9557533741955,183.08333333333331,439.78829890307406S192.50564161086103,439.18721558690663,197.16666666666663,438.79254026744087S206.57771172822459,437.72501341662587,211.25,437.4032681358386S220.6672565230512,437.2167349908761,225.33333333333331,436.85291421092063S234.8281070374441,434.51003654715095,239.41666666666663,435.2070722625021S248.92710841377743,440.3860843899387,253.5,441.13163656292465S262.9924770856235,439.1096837315575,267.5833333333333,439.7992912432392S276.98859260445977,445.0859092834063,281.66666666666663,445.36264356125076S291.05986296128856,445.1927556425168,295.75,445.05062076583584S305.2079335240858,443.23753761448484,309.8333333333333,442.6724190052804S319.35253220948414,442.3804968666158,323.91666666666663,441.6092950104345S333.46365391174123,438.75996702419496,338,437.9130969871509S347.46303238214824,436.93627750605134,352.08333333333326,436.3509867642566S361.8272259984633,435.5861743992095,366.16666666666663,434.3449984149162S376.13005029956105,429.8331671196244,380.25,428.2946972796636S389.64158302463295,423.9394425965273,394.33333333333326,423.82701389819243S403.7254064009182,423.7830631526319,408.41666666666663,423.6608428147349S418.45787836107604,420.4128744397508,422.5,418.7890616033198S432.5181262606419,413.94501642428605,436.58333333333326,412.3456477319413S447.2119300993735,409.77699779928855,450.66666666666663,407.7074896123137S462.9068527367322,397.7652853428982,464.75,395.47282801586925S474.4659949817397,373.8697755182463,478.83333333333326,372.6745420747937S488.2222222222222,373.96159397881104,492.91666666666663,373.96159397881104S502.30555555555554,373.96159397881104,507,373.96159397881104S517.3148980915545,379.53154479942714,521.0833333333333,381.3995934373209S531.861022335315,385.7814406935944,535.1666666666666,387.924074404994S544.572890511299,399.94124406588935,549.25,399.6565029799997S561.791754022257,388.41392540387204,563.3333333333333,386.20929580681633S577.0684063833457,360.6053277962694,577.4166666666666,359.37504192407647S589.6484294387452,289.0002758145514,591.5,286.70598254832015S601.1208594881664,293.64432956663643,605.5833333333333,292.6269000938356S619.38463384252,275.14331453241505,619.6666666666666,274.0277676214471S633.5005950774281,178.6732517400605,633.75,177.62034398636996S646.0551672265012,152.83991928175394,647.8333333333333,155.11711652793855S657.7567096769686,215.1829305833573,661.9166666666666,213.6918085818838S675.9052614679867,145.48282272053322,676,145.02087359108913L676,147.6042684038269C675.9038844639877,148.06942034219338,665.903719794382,214.08127088974757,661.9166666666666,215.76067755934346S649.6506100256815,161.75510689419747,647.8333333333333,159.46849151423947S634.0128201572289,179.24032899371795,633.75,180.31955102460194S619.9629789357145,273.98807588139834,619.6666666666666,275.1296627263051S610.0563371867034,292.3201350640493,605.5833333333333,293.3153760485187S593.2038582206044,284.7515872620146,591.5,287.0089164187651S577.7641120164639,360.0152230990935,577.4166666666666,361.2441838881376S565.0316083409039,384.3824627060718,563.3333333333333,386.63819311396406S553.9439608959581,398.6088610060004,549.25,398.6565029799997S538.4723109980182,389.06670811639356,535.1666666666666,386.924074404994S524.851768575112,382.26764207521467,521.0833333333333,380.3995934373209S511.69444444444446,372.96159397881104,507,372.96159397881104S497.6111111111111,372.96159397881104,492.91666666666663,372.96159397881104S483.19958256820894,370.4774697784517,478.83333333333326,371.6745420747937S466.5931472632678,392.607976405849,464.75,394.90043373287796S454.167670655427,404.6634152996484,450.66666666666663,406.7074896123137S440.6485404060246,409.7462790395966,436.58333333333326,411.3456477319413S426.54212163892396,416.1652487668888,422.5,417.7890616033198S413.10792693241507,422.53862247683793,408.41666666666663,422.6608428147349S399.02508364203356,422.7145851998576,394.33333333333326,422.82701389819243S384.36994970043895,425.75622743970274,380.25,427.2946972796636S370.50610733486997,432.10382243062287,366.16666666666663,433.3449984149162S356.7036342845183,434.7656960224619,352.08333333333326,435.3509867642566S342.53634608825877,436.0662269501068,338,436.9130969871509S328.4808011238491,439.8380931542532,323.91666666666663,440.6092950104345S314.45873314258085,441.10730039607597,309.8333333333333,441.6724190052804S300.44013703871144,443.9084858891549,295.75,444.05062076583584S286.3447407288735,444.63937783909523,281.66666666666663,444.36264356125076S272.17418958104315,439.48889875492097,267.5833333333333,438.7992912432392S258.07289158622257,440.87718873591064,253.5,440.13163656292465S244.00522629588914,434.90410797785324,239.41666666666663,434.2070722625021S229.99941014361542,435.48909343096517,225.33333333333331,435.85291421092063S215.92228827177541,436.0815228550513,211.25,436.4032681358386S201.82769172247222,437.3978649479751,197.16666666666663,437.79254026744087S187.77179692726313,438.6208444319526,183.08333333333331,438.78829890307406S173.6666889397256,438.82738023036325,169,439.1872778642649S159.40310101363175,440.8338580469808,154.91666666666666,441.79989305972464S145.5259549075897,445.3447128413783,140.83333333333331,445.25222478824935S131.37752170070806,441.8012439643785,126.75,441.2447491765224S117.34712895401745,441.6090463304694,112.66666666666666,441.86486454517024S103.2640802542917,442.53108220648676,98.58333333333331,442.7842908968631S89.18566404490309,443.1857276431098,84.5,443.3885625573399S75.11074819151366,443.96230654233057,70.41666666666666,444.0035809190955S61.02776069340716,443.6451834844333,56.33333333333333,443.6362279645252S46.92439211760796,443.63767172128314,42.25,443.9438292599853S32.85326123325279,445.49587602789035,28.166666666666664,445.68768112406656S18.764430613746896,445.6218096690009,14.083333333333332,445.37185092591284S2.3192257037692268,444.07932430949404,0,443.8245101709298Z"></path><path opacity="0.85" id="path_1000" class="layer" fill="#6e451e" d="M0,444.8245101709298C2.3192257037692268,445.07932430949404,9.402236052919768,446.12189218282475,14.083333333333332,446.37185092591284S23.48007210008054,446.87948622024277,28.166666666666664,446.68768112406656S37.57560788239204,445.2499867986875,42.25,444.9438292599853S51.6389059732595,444.62727244461706,56.33333333333333,444.6362279645252S65.72258514181965,445.04485529586043,70.41666666666666,445.0035809190955S79.81433595509691,444.5913974715701,84.5,444.3885625573399S93.90258641237493,444.0374995872395,98.58333333333331,443.7842908968631S107.98620437931586,443.12068275987104,112.66666666666666,442.86486454517024S122.12247829929193,441.68825438866634,126.75,442.2447491765224S136.14071175907694,446.1597367351204,140.83333333333331,446.25222478824935S150.43023231970156,443.76592807246845,154.91666666666666,442.79989305972464S164.3333110602744,440.54717549816655,169,440.1872778642649S178.3948697394035,439.9557533741955,183.08333333333331,439.78829890307406S192.50564161086103,439.18721558690663,197.16666666666663,438.79254026744087S206.57771172822459,437.72501341662587,211.25,437.4032681358386S220.6672565230512,437.2167349908761,225.33333333333331,436.85291421092063S234.8281070374441,434.51003654715095,239.41666666666663,435.2070722625021S248.92710841377743,440.3860843899387,253.5,441.13163656292465S262.9924770856235,439.1096837315575,267.5833333333333,439.7992912432392S276.98859260445977,445.0859092834063,281.66666666666663,445.36264356125076S291.05986296128856,445.1927556425168,295.75,445.05062076583584S305.2079335240858,443.23753761448484,309.8333333333333,442.6724190052804S319.35253220948414,442.3804968666158,323.91666666666663,441.6092950104345S333.46365391174123,438.75996702419496,338,437.9130969871509S347.46303238214824,436.93627750605134,352.08333333333326,436.3509867642566S361.8272259984633,435.5861743992095,366.16666666666663,434.3449984149162S376.13005029956105,429.8331671196244,380.25,428.2946972796636S389.64158302463295,423.9394425965273,394.33333333333326,423.82701389819243S403.7254064009182,423.7830631526319,408.41666666666663,423.6608428147349S418.45787836107604,420.4128744397508,422.5,418.7890616033198S432.5181262606419,413.94501642428605,436.58333333333326,412.3456477319413S447.2119300993735,409.77699779928855,450.66666666666663,407.7074896123137S462.9068527367322,397.7652853428982,464.75,395.47282801586925S474.4659949817397,373.8697755182463,478.83333333333326,372.6745420747937S488.2222222222222,373.96159397881104,492.91666666666663,373.96159397881104S502.30555555555554,373.96159397881104,507,373.96159397881104S517.2132577542519,379.6134328023284,521.0833333333333,381.3995934373209S531.5327143766709,384.99828536285884,535.1666666666666,386.9613895101678S544.5645830815891,396.82122509744977,549.25,396.6155609945803S561.6469300316841,387.9773085198988,563.3333333333333,385.7250273396936S577.0676263459212,360.2290340034869,577.4166666666666,358.99748162981206S589.5998711923795,288.6461294107139,591.5,286.34188123850817S601.1183272792894,293.15274584949606,605.5833333333333,292.14059773673375S619.3889553837269,274.4964999002198,619.6666666666666,273.38899069814323S633.507207053956,176.75850243602835,633.75,175.71887289525057S646.0503295016662,150.50206652157283,647.8333333333333,152.78046722563107S657.7475047438516,213.19133896316956,661.9166666666666,211.71147819678052S675.9059408462393,143.24295500495606,676,142.78259578488513L676,144.02087359108913C675.9052614679867,144.48282272053322,666.0766236563646,211.20068658041032,661.9166666666666,212.6918085818838S649.6114994401653,156.39431377412316,647.8333333333333,154.11711652793855S633.9994049225719,175.56743623267943,633.75,176.62034398636996S619.9510312486339,271.9079147219395,619.6666666666666,273.0277676214471S610.0471990895221,290.61236950749975,605.5833333333333,291.6269000938356S593.348844347274,283.4122799402526,591.5,285.70598254832015S577.7649269499875,357.1447560518835,577.4166666666666,358.37504192407647S564.8749126444095,383.0046662097606,563.3333333333333,385.20929580681633S553.927109488701,398.37176189411,549.25,398.6565029799997S538.4723109980182,389.06670811639356,535.1666666666666,386.924074404994S524.851768575112,382.26764207521467,521.0833333333333,380.3995934373209S511.69444444444446,372.96159397881104,507,372.96159397881104S497.6111111111111,372.96159397881104,492.91666666666663,372.96159397881104S483.19958256820894,370.4774697784517,478.83333333333326,371.6745420747937S466.5931472632678,392.1803706888403,464.75,394.47282801586925S454.12140323395977,404.6379814253388,450.66666666666663,406.7074896123137S440.6485404060246,409.7462790395966,436.58333333333326,411.3456477319413S426.54212163892396,416.1652487668888,422.5,417.7890616033198S413.10792693241507,422.53862247683793,408.41666666666663,422.6608428147349S399.02508364203356,422.7145851998576,394.33333333333326,422.82701389819243S384.36994970043895,425.75622743970274,380.25,427.2946972796636S370.50610733486997,432.10382243062287,366.16666666666663,433.3449984149162S356.7036342845183,434.7656960224619,352.08333333333326,435.3509867642566S342.53634608825877,436.0662269501068,338,436.9130969871509S328.4808011238491,439.8380931542532,323.91666666666663,440.6092950104345S314.45873314258085,441.10730039607597,309.8333333333333,441.6724190052804S300.44013703871144,443.9084858891549,295.75,444.05062076583584S286.3447407288735,444.63937783909523,281.66666666666663,444.36264356125076S272.17418958104315,439.48889875492097,267.5833333333333,438.7992912432392S258.07289158622257,440.87718873591064,253.5,440.13163656292465S244.00522629588914,434.90410797785324,239.41666666666663,434.2070722625021S229.99941014361542,435.48909343096517,225.33333333333331,435.85291421092063S215.92228827177541,436.0815228550513,211.25,436.4032681358386S201.82769172247222,437.3978649479751,197.16666666666663,437.79254026744087S187.77179692726313,438.6208444319526,183.08333333333331,438.78829890307406S173.6666889397256,438.82738023036325,169,439.1872778642649S159.40310101363175,440.8338580469808,154.91666666666666,441.79989305972464S145.5259549075897,445.3447128413783,140.83333333333331,445.25222478824935S131.37752170070806,441.8012439643785,126.75,441.2447491765224S117.34712895401745,441.6090463304694,112.66666666666666,441.86486454517024S103.2640802542917,442.53108220648676,98.58333333333331,442.7842908968631S89.18566404490309,443.1857276431098,84.5,443.3885625573399S75.11074819151366,443.96230654233057,70.41666666666666,444.0035809190955S61.02776069340716,443.6451834844333,56.33333333333333,443.6362279645252S46.92439211760796,443.63767172128314,42.25,443.9438292599853S32.85326123325279,445.49587602789035,28.166666666666664,445.68768112406656S18.764430613746896,445.6218096690009,14.083333333333332,445.37185092591284S2.3192257037692268,444.07932430949404,0,443.8245101709298Z"></path><path opacity="0.85" id="path_2000" class="layer" fill="#d66011" d="M0,444.8245101709298C2.3192257037692268,445.07932430949404,9.402236052919768,446.12189218282475,14.083333333333332,446.37185092591284S23.48007210008054,446.87948622024277,28.166666666666664,446.68768112406656S37.57560788239204,445.2499867986875,42.25,444.9438292599853S51.6389059732595,444.62727244461706,56.33333333333333,444.6362279645252S65.72258514181965,445.04485529586043,70.41666666666666,445.0035809190955S79.81433595509691,444.5913974715701,84.5,444.3885625573399S93.90258641237493,444.0374995872395,98.58333333333331,443.7842908968631S107.98620437931586,443.12068275987104,112.66666666666666,442.86486454517024S122.12247829929193,441.68825438866634,126.75,442.2447491765224S136.14071175907694,446.1597367351204,140.83333333333331,446.25222478824935S150.4731601067499,443.85584956263114,154.91666666666666,442.79989305972464S164.31424534940203,439.760475569933,169,439.5586879540372S178.39141217160656,439.8971062722183,183.08333333333331,439.78829890307406S192.50494308337318,438.3274766916695,197.16666666666663,437.93691861648324S206.583106181522,437.76184287842096,211.25,437.4032681358386S220.68535692351037,436.21436614267583,225.33333333333331,435.74962715277775S234.80829199892838,433.9571618647926,239.41666666666663,434.5869568938543S248.8056468765999,439.61967763975235,253.5,439.59897273140234S262.98029392186334,433.81407953900543,267.5833333333333,434.4627250270713S277.39518118526314,442.22400700458775,281.66666666666663,443.56812867685517S291.0588799386209,445.17550102884655,295.75,445.05062076583584S305.2248238370994,443.30172975911074,309.8333333333333,442.6724190052804S319.4380234882992,442.187453364252,323.91666666666663,441.20434763840206S333.68686495491863,437.77199656036584,338,436.4895617926635S347.542485750081,433.6646258816145,352.08333333333326,432.82948521325983S361.72146052439325,432.3617987266526,366.16666666666663,431.30922301360357S376.0531688175753,427.60505902939997,380.25,426.15992967365617S389.65199512860335,421.8580621975179,394.33333333333326,421.61036330632936S403.7475832273491,421.5285624142609,408.41666666666663,421.1844510238033S418.36921638032237,416.2060206818189,422.5,414.68012392843076S432.2533076190426,412.0359465013641,436.58333333333326,410.77978469955076S447.2582011877298,408.60244798343035,450.66666666666663,406.5088350988283S463.05228881585964,395.73428388019175,464.75,393.47871575399745S475.0745545849792,370.962139542507,478.83333333333326,369.08678348723953S488.2222222222222,371.4423113047494,492.91666666666663,371.4423113047494S502.30555555555554,371.4423113047494,507,371.4423113047494S517.1305676883616,376.2064954375842,521.0833333333333,377.91871110103307S531.5088772761586,381.6959676180384,535.1666666666666,383.64323900587965S544.5661658677534,393.1365277179593,549.25,392.91359960751544S561.6154245883048,384.5639268585361,563.3333333333333,382.3026403424316S577.060069790146,357.0814926624422,577.4166666666666,355.83776323304687S589.039838789043,286.4081671538709,591.5,284.06366359334527S601.1069868901503,289.64391775915584,605.5833333333333,288.65584781617997S619.4104530484337,269.5693318900896,619.6666666666666,268.5029664843602S633.510080089703,172.45949906383808,633.75,171.42570550289452S645.9138095762373,144.82737744741024,647.8333333333333,147.13530426241596S657.7496544911028,206.77421617629716,661.9166666666666,205.29171265650007S675.9039409513963,137.57943248937195,676,137.11441142241972L676,141.78259578488513C675.9059408462393,142.24295500495606,666.0858285894817,209.23161743039148,661.9166666666666,210.71147819678052S649.6163371650003,154.0588679296893,647.8333333333333,151.78046722563107S633.992792946044,173.6792433544728,633.75,174.71887289525057S619.9467590314625,271.2770436162052,619.6666666666666,272.38899069814323S610.0497036027778,290.13130901964234,605.5833333333333,291.14059773673375S593.3969542629472,283.03825129310803,591.5,285.34188123850817S577.765706987412,356.7659292561372,577.4166666666666,357.99748162981206S565.0197366349825,382.4727461594884,563.3333333333333,384.7250273396936S553.9354169184109,395.4098968917108,549.25,395.6155609945803S538.8006189566623,387.9244936574768,535.1666666666666,385.9613895101678S524.9534089124146,382.1857540723134,521.0833333333333,380.3995934373209S511.69444444444446,372.96159397881104,507,372.96159397881104S497.6111111111111,372.96159397881104,492.91666666666663,372.96159397881104S483.19958256820894,370.4774697784517,478.83333333333326,371.6745420747937S466.5931472632678,392.1803706888403,464.75,394.47282801586925S454.12140323395977,404.6379814253388,450.66666666666663,406.7074896123137S440.6485404060246,409.7462790395966,436.58333333333326,411.3456477319413S426.54212163892396,416.1652487668888,422.5,417.7890616033198S413.10792693241507,422.53862247683793,408.41666666666663,422.6608428147349S399.02508364203356,422.7145851998576,394.33333333333326,422.82701389819243S384.36994970043895,425.75622743970274,380.25,427.2946972796636S370.50610733486997,432.10382243062287,366.16666666666663,433.3449984149162S356.7036342845183,434.7656960224619,352.08333333333326,435.3509867642566S342.53634608825877,436.0662269501068,338,436.9130969871509S328.4808011238491,439.8380931542532,323.91666666666663,440.6092950104345S314.45873314258085,441.10730039607597,309.8333333333333,441.6724190052804S300.44013703871144,443.9084858891549,295.75,444.05062076583584S286.3447407288735,444.63937783909523,281.66666666666663,444.36264356125076S272.17418958104315,439.48889875492097,267.5833333333333,438.7992912432392S258.07289158622257,440.87718873591064,253.5,440.13163656292465S244.00522629588914,434.90410797785324,239.41666666666663,434.2070722625021S229.99941014361542,435.48909343096517,225.33333333333331,435.85291421092063S215.92228827177541,436.0815228550513,211.25,436.4032681358386S201.82769172247222,437.3978649479751,197.16666666666663,437.79254026744087S187.77179692726313,438.6208444319526,183.08333333333331,438.78829890307406S173.6666889397256,438.82738023036325,169,439.1872778642649S159.40310101363175,440.8338580469808,154.91666666666666,441.79989305972464S145.5259549075897,445.3447128413783,140.83333333333331,445.25222478824935S131.37752170070806,441.8012439643785,126.75,441.2447491765224S117.34712895401745,441.6090463304694,112.66666666666666,441.86486454517024S103.2640802542917,442.53108220648676,98.58333333333331,442.7842908968631S89.18566404490309,443.1857276431098,84.5,443.3885625573399S75.11074819151366,443.96230654233057,70.41666666666666,444.0035809190955S61.02776069340716,443.6451834844333,56.33333333333333,443.6362279645252S46.92439211760796,443.63767172128314,42.25,443.9438292599853S32.85326123325279,445.49587602789035,28.166666666666664,445.68768112406656S18.764430613746896,445.6218096690009,14.083333333333332,445.37185092591284S2.3192257037692268,444.07932430949404,0,443.8245101709298Z"></path><path opacity="0.85" id="path_6000" class="layer" fill="red" d="M0,442.2258349822717C2.30626184786065,442.53318713968105,9.415619048957957,443.7494741010425,14.083333333333332,444.10270030332373S23.492533964532107,444.8819586806342,28.166666666666664,444.57383568738646S37.57691875184983,442.37328865330124,42.25,442.05732670622007S51.660576960513666,442.3510531303072,56.33333333333333,442.66939740133915S65.72373059458776,443.8921227052272,70.41666666666666,443.9762576865634S79.81429979747163,443.37678716997993,84.5,443.1743695419998S93.90279526242763,443.0146115313147,98.58333333333331,442.75948546291636S107.97249113727888,441.67459443917096,112.66666666666666,441.63906509244896S122.06198260325269,441.64289750444294,126.75,441.8164777781316S136.14052529417108,446.16459296832244,140.83333333333331,446.25222478824935S150.78474008278636,443.8670118167485,154.91666666666666,442.3424520435771S164.44711878913492,436.6623709492332,169,435.8595505544295S178.3932260943789,437.2331313413344,183.08333333333331,437.3757565805649S192.48237169171347,436.93413717464216,197.16666666666663,436.71609335121104S206.5591709953137,436.1948873228668,211.25,436.06465902455074S220.65634646329258,436.03536977520025,225.33333333333331,435.74962715277775S234.78170227140686,433.41273481583585,239.41666666666663,433.93779472689295S248.80663687881005,439.01165421086904,253.5,438.9404148770372S263.0122784755393,432.7592472163398,267.5833333333333,433.5102602451613S277.38946575363076,442.23222657958195,281.66666666666663,443.56812867685517S291.06575420998377,445.2691911299502,295.75,445.05062076583584S305.2658744924935,442.60563261198956,309.8333333333333,441.84405430489085S319.41585306550127,441.2876490886896,323.91666666666663,440.3541094092782S333.74766285503415,437.37297071097515,338,436.00184369584S347.6406568663683,432.3296295088025,352.08333333333326,431.2720267153665S361.7774948622153,430.4541566199546,366.16666666666663,429.2966186879073S376.02970804847774,425.2583384282048,380.25,423.84374945975014S389.7104072835288,420.4305043867531,394.33333333333326,419.85550503925674S403.95734491420137,419.65353328135217,408.41666666666663,418.6295763804813S418.8634642399887,412.19086799900924,422.5,410.22945963720196S432.2750585074249,404.7274077938915,436.58333333333326,403.43755321058774S447.05959247492575,402.4822430391211,450.66666666666663,400.5017821898757S463.4087963112468,387.7187425890171,464.75,385.59804014152223S474.2068560729409,356.52559138883385,478.83333333333326,355.96483419407855S488.2222222222222,355.3957379607206,492.91666666666663,355.3957379607206S502.30555555555554,355.3957379607206,507,355.3957379607206S517.6948161786225,361.9120178586399,521.0833333333333,364.0156235783668S531.7901283761752,370.7722302754548,535.1666666666666,372.8817232458381S544.6022850405145,382.0787856606932,549.25,381.61275419577623S562.109443661507,372.1183856137648,563.3333333333333,370.05742075678285S577.1687618505637,335.2315051165158,577.4166666666666,334.1815915063275S587.1592107320827,252.00642473549303,591.5,250.76741602091025S600.9238094209195,249.77056539542178,605.5833333333333,249.36718833356605S619.4901669030321,225.936687600101,619.6666666666666,225.0437059831139S633.5984791045113,107.69062771838855,633.75,106.86096040899622S645.8758249384956,68.49975637037684,647.8333333333333,70.81440003479673S659.4243467643621,142.50919396357796,661.9166666666666,140.16646076841283S675.9503752549805,44.6759353852479,676,44.33827033084668L676,136.11441142241972C675.9039409513963,136.57943248937195,666.0836788422305,202.80920913670298,661.9166666666666,204.29171265650007S649.7528570904292,148.44323107742167,647.8333333333333,146.13530426241596S633.989919910297,169.39191194195095,633.75,170.42570550289452S619.9228802848995,266.43660107863076,619.6666666666666,267.5029664843602S610.0596797765162,286.6677778732041,605.5833333333333,287.65584781617997S593.960161210957,280.7191600328196,591.5,283.06366359334527S577.7732635431872,353.59403380365154,577.4166666666666,354.83776323304687S565.0512420783617,379.04135382632705,563.3333333333333,381.3026403424316S553.9338341322466,391.69067149707155,549.25,391.91359960751544S538.8244560571746,384.5905103937209,535.1666666666666,382.64323900587965S525.036098978305,378.63092676448196,521.0833333333333,376.91871110103307S511.69444444444446,370.4423113047494,507,370.4423113047494S497.6111111111111,370.4423113047494,492.91666666666663,370.4423113047494S482.58357144295326,366.2050293640334,478.83333333333326,368.08678348723953S466.44771118414036,390.22314762780314,464.75,392.47871575399745S454.07513214560345,403.4152222142262,450.66666666666663,405.5088350988283S440.91335904762394,408.5236228977374,436.58333333333326,409.77978469955076S426.63078361967763,412.1542271750426,422.5,413.68012392843076S413.0857501059842,419.84033963334576,408.41666666666663,420.1844510238033S399.01467153806317,420.36266441514084,394.33333333333326,420.61036330632936S384.4468311824247,423.71480031791236,380.25,425.15992967365617S370.61187280894,429.25664730055456,366.16666666666663,430.30922301360357S356.6241809165855,430.9943445449052,352.08333333333326,431.82948521325983S342.31313504508137,434.20712702496115,338,435.4895617926635S328.39530984503403,439.2212419125521,323.91666666666663,440.20434763840206S314.44184282956724,441.04310825145006,309.8333333333333,441.6724190052804S300.4411200613791,443.92574050282514,295.75,444.05062076583584S285.9381521480701,443.9122503491226,281.66666666666663,442.56812867685517S272.1863727448033,434.1113705151372,267.5833333333333,433.4627250270713S258.1943531234001,438.57826782305233,253.5,438.59897273140234S244.02504133440488,434.21675192291593,239.41666666666663,433.5869568938543S229.98130974315626,434.28488816287967,225.33333333333331,434.74962715277775S215.916893818478,436.0446933932562,211.25,436.4032681358386S201.82839024996008,436.54636054129696,197.16666666666663,436.93691861648324S187.77525449506007,438.6794915339298,183.08333333333331,438.78829890307406S173.68575465059797,438.35690033814143,169,438.5586879540372S159.3601732265834,440.74393655681814,154.91666666666666,441.79989305972464S145.5259549075897,445.3447128413783,140.83333333333331,445.25222478824935S131.37752170070806,441.8012439643785,126.75,441.2447491765224S117.34712895401745,441.6090463304694,112.66666666666666,441.86486454517024S103.2640802542917,442.53108220648676,98.58333333333331,442.7842908968631S89.18566404490309,443.1857276431098,84.5,443.3885625573399S75.11074819151366,443.96230654233057,70.41666666666666,444.0035809190955S61.02776069340716,443.6451834844333,56.33333333333333,443.6362279645252S46.92439211760796,443.63767172128314,42.25,443.9438292599853S32.85326123325279,445.49587602789035,28.166666666666664,445.68768112406656S18.764430613746896,445.6218096690009,14.083333333333332,445.37185092591284S2.3192257037692268,444.07932430949404,0,443.8245101709298Z"></path><path opacity="0.85" id="path_3000" class="layer" fill="#330000" d="M0,442.2258349822717C2.30626184786065,442.53318713968105,9.415619048957957,443.7494741010425,14.083333333333332,444.10270030332373S23.492533964532107,444.8819586806342,28.166666666666664,444.57383568738646S37.57691875184983,442.37328865330124,42.25,442.05732670622007S51.660576960513666,442.3510531303072,56.33333333333333,442.66939740133915S65.72373059458776,443.8921227052272,70.41666666666666,443.9762576865634S79.81429979747163,443.37678716997993,84.5,443.1743695419998S93.90279526242763,443.0146115313147,98.58333333333331,442.75948546291636S107.99317864936583,441.95201814186873,112.66666666666666,441.63906509244896S122.10962165620722,440.37246089697044,126.75,440.87334727390373S136.14611648784933,444.4953410633613,140.83333333333331,444.67939899880514S150.64141432304564,443.31811058841294,154.91666666666666,441.9793977695183S164.42968635878813,436.6127548449832,169,435.8595505544295S178.39034272667638,436.720212254134,183.08333333333331,436.637611727015S192.4779477590598,435.4529000000865,197.16666666666663,435.289054240829S206.55555739254993,435.65627331699136,211.25,435.65333670931966S220.68104480058872,435.64931419673275,225.33333333333331,435.20645816528616S234.74343481977164,422.7696962091668,239.41666666666663,423.0845475811243S249.21523845739188,435.77922872730807,253.5,437.1041413819583S263.1237568082761,430.77067294663374,267.5833333333333,431.7941041655186S277.37996417771336,442.24605891490813,281.66666666666663,443.56812867685517S291.07709750019615,445.36789573642386,295.75,445.05062076583584S305.3232516323577,441.561572056725,309.8333333333333,440.64971075386126S319.3762833215134,440.19216205044427,323.91666666666663,439.35580300711547S333.833852482748,436.94484827350067,338,435.4612840074189S347.57948227485997,430.25215991880793,352.08333333333326,429.32565885397094S361.6386229171983,428.87366290543514,366.16666666666663,428.00563662311765S376.13129457099075,423.9177867008155,380.25,422.37788429852975S389.6611818230268,417.7974097402594,394.33333333333326,417.4746777060546S403.77451296684006,417.37289690654774,408.41666666666663,416.8802086952066S418.8643205710511,410.9895686893927,422.5,409.0275976939578S432.0657556961608,402.5741217119994,436.58333333333326,401.6802483802068S446.6177880495303,401.20495242989637,450.66666666666663,399.58822187901853S463.62625973688284,384.63422281507826,464.75,382.63108925581713S476.72415446067555,351.7145911590309,478.83333333333326,349.37947070727216S488.2222222222222,344.1341208334963,492.91666666666663,344.1341208334963S502.30555555555554,344.1341208334963,507,344.1341208334963S516.5210849777442,344.35030765963484,521.0833333333333,345.1269101248613S531.6630524364624,346.88615425411786,535.1666666666666,348.92875301167385S544.6141290341129,361.0269156280051,549.25,361.5480097544495S560.3186526489682,360.25463477541354,563.3333333333333,358.0043122736801S577.1449145021851,302.3755860476542,577.4166666666666,301.27928490293357S591.0760058267814,245.720097052836,591.5,244.37449457363954S604.7521550968775,213.68052744719049,605.5833333333333,211.88858358821633S619.51761937231,184.47284210798125,619.6666666666666,183.64975089371848S633.6409539804342,57.04953356722367,633.75,56.34241303552051S647.2114678057904,-0.5914133456204402,647.8333333333333,1S660.2903204507812,126.18982246222427,661.9166666666666,128.42360623510422S675.9423294032737,40.0502417820955,676,39.68686895911861L676,43.33827033084668C675.9503752549805,43.6759353852479,664.4089865689712,136.8237275732477,661.9166666666666,139.16646076841283S649.7908417281709,72.12904369921662,647.8333333333333,69.81440003479673S633.9015208954887,105.03129309960389,633.75,105.86096040899622S619.8431664303012,223.1507243661268,619.6666666666666,224.0437059831139S610.242857245747,247.9638112717103,605.5833333333333,248.36718833356605S595.8407892679173,248.52840730632747,591.5,249.76741602091025S577.6645714827696,332.1316778961392,577.4166666666666,333.1815915063275S564.5572230051595,366.9964558998009,563.3333333333333,369.05742075678285S553.8977149594855,380.14672273085927,549.25,380.61275419577623S538.5432049571581,373.9912162162214,535.1666666666666,371.8817232458381S524.471850488044,365.11922929809367,521.0833333333333,363.0156235783668S511.69444444444446,354.3957379607206,507,354.3957379607206S497.6111111111111,354.3957379607206,492.91666666666663,354.3957379607206S483.45978681138484,354.4039803423985,478.83333333333326,354.96483419407855S466.0912036887532,382.47733769402737,464.75,384.59804014152223S454.2737408584075,397.5213213406303,450.66666666666663,399.5017821898757S440.8916081592416,401.147698627284,436.58333333333326,402.43755321058774S426.1365357600113,407.26805127539467,422.5,409.22945963720196S412.8759884191319,416.6056194796104,408.41666666666663,417.6295763804813S398.9562593831377,418.28050569176037,394.33333333333326,418.85550503925674S384.47029195152226,421.4291604912955,380.25,422.84374945975014S370.55583847111797,427.13908075586005,366.16666666666663,428.2966186879073S356.5260098002982,429.2144239219305,352.08333333333326,430.2720267153665S342.25233714496585,433.6307166807049,338,435.00184369584S328.417480267832,438.42056972986677,323.91666666666663,439.3541094092782S314.40079217417315,440.08247599779213,309.8333333333333,440.84405430489085S300.43424579001623,443.8320504017215,295.75,444.05062076583584S285.9438675797025,443.9040307741284,281.66666666666663,442.56812867685517S272.15438819112734,433.2612732739828,267.5833333333333,432.5102602451613S258.1933631211899,437.86917554320536,253.5,437.9404148770372S244.0516310619264,433.46285463795004,239.41666666666663,432.93779472689295S230.01032020337405,434.46388453035524,225.33333333333331,434.74962715277775S215.9408290046863,434.93443072623467,211.25,435.06465902455074S201.8509616416198,435.4980495277799,197.16666666666663,435.71609335121104S187.77344057228774,436.51838181979537,183.08333333333331,436.3757565805649S173.55288121086508,434.05673015962583,169,434.8595505544295S159.04859325054696,439.8178922704057,154.91666666666666,441.3424520435771S145.52614137249554,445.33985660817626,140.83333333333331,445.25222478824935S131.4380173967473,440.9900580518203,126.75,440.8164777781316S117.36084219605443,440.60353574572696,112.66666666666666,440.63906509244896S103.263871404239,441.504359394518,98.58333333333331,441.75948546291636S89.18570020252837,441.97195191401966,84.5,442.1743695419998S75.10960273874555,443.0603926678995,70.41666666666666,442.9762576865634S61.00608970615299,441.9877416723711,56.33333333333333,441.66939740133915S46.92308124815017,440.7413647591389,42.25,441.05732670622007S32.84079936880122,443.2657126941387,28.166666666666664,443.57383568738646S18.751047617708707,443.45592650560496,14.083333333333332,443.10270030332373S2.30626184786065,441.53318713968105,0,441.2258349822717Z"></path></g><g class="text_layers"><text class="label" style="font-weight: lighter; " font-size="18px" font-family="PT Sans Narrow" dy="6" opacity="1" pointer-events="none" text-anchor="middle" fill="#ffffff" x="661.9166666666666" y="412.2097887793052"><tspan x="661.9166666666666" dy="11px">Chem.</tspan><tspan x="661.9166666666666" dy="11px">&amp;...</tspan></text><text class="label" style="font-weight: lighter; " font-size="18px" font-family="PT Sans Narrow" dy="6" opacity="1" pointer-events="none" text-anchor="middle" fill="#333333" x="661.9166666666666" y="303.1060555505244"><tspan x="661.9166666666666" dy="11px">Machinery</tspan><tspan x="661.9166666666666" dy="11px">&amp;</tspan><tspan x="661.9166666666666" dy="11px">Transport</tspan><tspan x="661.9166666666666" dy="11px">Equip.</tspan></text><text class="label" style="font-weight: lighter; " font-size="18px" font-family="PT Sans Narrow" dy="6" opacity="1" pointer-events="none" text-anchor="middle" fill="#333333" x="647.8333333333333" y="169.9766237185896"><tspan x="647.8333333333333" dy="11px">Food/Live</tspan><tspan x="647.8333333333333" dy="11px">Animals</tspan><tspan x="647.8333333333333" dy="11px">for...</tspan></text><text class="label" style="font-weight: lighter; " font-size="18px" font-family="PT Sans Narrow" dy="6" opacity="1" pointer-events="none" text-anchor="middle" fill="#ffffff" x="647.8333333333333" y="78.47485214860637"><tspan x="647.8333333333333" dy="11px">Manuf.</tspan><tspan x="647.8333333333333" dy="11px">Goods</tspan><tspan x="647.8333333333333" dy="11px">classified</tspan><tspan x="647.8333333333333" dy="11px">chiefly</tspan><tspan x="647.8333333333333" dy="11px">by...</tspan></text></g></g></g></svg>