<svg width="748" height="520" style="z-index: 10; position: absolute; "><rect id="svgbg" fill="#ffffff" width="748" height="520"></rect><g class="titles"></g><clipPath id="clipping"><rect width="748" height="520"></rect></clipPath><g class="parent" width="748" height="520" clip-path="url(#clipping)" transform="translate(0,0)"><g class="axes_labels"><text class="x_axis_label" x="374" y="510" font-family="sans-serif" font-size="14px" font-weight="lighter" fill="#333" text-anchor="middle">Year</text><text class="y_axis_label" y="15" x="-242.5" transform="rotate(-90)" font-family="sans-serif" font-size="14px" font-weight="lighter" fill="#333" text-anchor="middle">Current</text></g><g class="chart" transform="translate(40,5)"><rect style="fill: #fafafa; " id="background" x="0" y="0" width="698" height="475" stroke-width="1" stroke="#ccc" shape-rendering="crispEdges"></rect><g transform="translate(0,475)" class="xaxis"><path class="domain" d="M0,0V0H698V0"></path></g><g class="yaxis"><path class="domain" d="M0,0H0V475H0"></path></g><clipPath id="path_clipping"><rect width="698" height="475" y="1" x="1"></rect></clipPath><g class="layers" clip-path="url(#path_clipping)"><path opacity="0.85" id="path_5000" class="layer" fill="#71144b" d="M0,448.24632126782274C2.626984126984127,448.24632126782274,10.507936507936506,448.24632126782274,15.761904761904761,448.24632126782274S26.26984126984127,448.24632126782274,31.523809523809522,448.24632126782274S42.03174603174603,448.24632126782274,47.285714285714285,448.24632126782274S57.79365079365079,448.24632126782274,63.047619047619044,448.24632126782274S73.55555555555556,448.24632126782274,78.80952380952381,448.24632126782274S89.31746031746032,448.24632126782274,94.57142857142857,448.24632126782274S105.07936507936508,448.24632126782274,110.33333333333333,448.24632126782274S120.84126984126983,448.24632126782274,126.09523809523809,448.24632126782274S136.6031746031746,448.24632126782274,141.85714285714286,448.24632126782274S152.36507936507937,448.24632126782274,157.61904761904762,448.24632126782274S168.1269841269841,448.24632126782274,173.38095238095235,448.24632126782274S183.88888888888889,448.24632126782274,189.14285714285714,448.24632126782274S199.65079365079364,448.24632126782274,204.9047619047619,448.24632126782274S215.4126984126984,448.24632126782274,220.66666666666666,448.24632126782274S231.17460317460313,448.24632126782274,236.4285714285714,448.24632126782274S246.93650793650792,448.24632126782274,252.19047619047618,448.24632126782274S262.6984126984127,448.24632126782274,267.95238095238096,448.24632126782274S278.46031746031747,448.24632126782274,283.7142857142857,448.24632126782274S294.2222222222222,448.24632126782274,299.4761904761904,448.24632126782274S309.984126984127,448.24632126782274,315.23809523809524,448.24632126782274S325.74603174603175,448.24632126782274,331,448.24632126782274S341.50793650793645,448.24632126782274,346.7619047619047,448.24632126782274S357.272307986797,447.78879805190644,362.52380952380946,447.67498255259017S373.03174629081434,447.5608861812647,378.2857142857143,447.5597195036017S388.793661228172,447.5746193189949,394.04761904761904,447.56721509490666S404.56860004283925,447.1406230376396,409.8095238095238,446.8791557099877S420.3278815296794,446.2282672378527,425.57142857142856,445.99450642740135S436.1085292715785,445.864158549847,441.3333333333333,445.4738033398978S451.8412698412698,443.6393016886934,457.0952380952381,443.6393016886934S467.6031746031745,443.6393016886934,472.8571428571428,443.6393016886934S483.4227919759586,442.9372054612644,488.6190476190476,442.38958380358577S499.18086777025707,440.84641727392494,504.38095238095235,440.31707853157553S514.9629515694176,439.80002600744734,520.1428571428571,439.1806410773317S530.8795508864933,437.619805148467,535.9047619047619,436.5476328762334S546.6472347599048,433.5397699799175,551.6666666666666,432.4547634248851S562.4442351097462,430.892690203145,567.4285714285714,429.7334075598487S578.2174470448954,426.30479087013225,583.1904761904761,425.1227932499383S593.9273433869591,423.31333763149473,598.9523809523808,422.240777465432S609.8855661168225,419.8272212639657,614.7142857142857,418.3942500425307S625.2286787592552,412.7017019276848,630.4761904761905,412.8857691809689S640.9864952630804,419.3884899842059,646.2380952380952,419.500012420035S659.700170945521,414.42261591597054,662,413.55520555111L662,447.24632126782274C659.3730158730159,447.24632126782274,651.4920634920634,447.24632126782274,646.2380952380952,447.24632126782274S635.7301587301588,447.24632126782274,630.4761904761905,447.24632126782274S619.968253968254,447.24632126782274,614.7142857142857,447.24632126782274S604.2063492063492,447.24632126782274,598.9523809523808,447.24632126782274S588.4444444444443,447.24632126782274,583.1904761904761,447.24632126782274S572.6825396825398,447.24632126782274,567.4285714285714,447.24632126782274S556.9206349206349,447.24632126782274,551.6666666666666,447.24632126782274S541.1587301587301,447.24632126782274,535.9047619047619,447.24632126782274S525.3968253968254,447.24632126782274,520.1428571428571,447.24632126782274S509.6349206349206,447.24632126782274,504.38095238095235,447.24632126782274S493.87301587301585,447.24632126782274,488.6190476190476,447.24632126782274S478.11111111111103,447.24632126782274,472.8571428571428,447.24632126782274S462.3492063492063,447.24632126782274,457.0952380952381,447.24632126782274S446.58730158730157,447.24632126782274,441.3333333333333,447.24632126782274S430.8253968253968,447.24632126782274,425.57142857142856,447.24632126782274S415.06349206349205,447.24632126782274,409.8095238095238,447.24632126782274S399.3015873015873,447.24632126782274,394.04761904761904,447.24632126782274S383.53968253968253,447.24632126782274,378.2857142857143,447.24632126782274S367.7777777777777,447.24632126782274,362.52380952380946,447.24632126782274S352.01587301587296,447.24632126782274,346.7619047619047,447.24632126782274S336.25396825396825,447.24632126782274,331,447.24632126782274S320.4920634920635,447.24632126782274,315.23809523809524,447.24632126782274S304.7301587301587,447.24632126782274,299.4761904761904,447.24632126782274S288.968253968254,447.24632126782274,283.7142857142857,447.24632126782274S273.2063492063492,447.24632126782274,267.95238095238096,447.24632126782274S257.44444444444446,447.24632126782274,252.19047619047618,447.24632126782274S241.68253968253964,447.24632126782274,236.4285714285714,447.24632126782274S225.9206349206349,447.24632126782274,220.66666666666666,447.24632126782274S210.15873015873015,447.24632126782274,204.9047619047619,447.24632126782274S194.3968253968254,447.24632126782274,189.14285714285714,447.24632126782274S178.6349206349206,447.24632126782274,173.38095238095235,447.24632126782274S162.87301587301587,447.24632126782274,157.61904761904762,447.24632126782274S147.11111111111111,447.24632126782274,141.85714285714286,447.24632126782274S131.34920634920636,447.24632126782274,126.09523809523809,447.24632126782274S115.58730158730158,447.24632126782274,110.33333333333333,447.24632126782274S99.82539682539682,447.24632126782274,94.57142857142857,447.24632126782274S84.06349206349206,447.24632126782274,78.80952380952381,447.24632126782274S68.3015873015873,447.24632126782274,63.047619047619044,447.24632126782274S52.53968253968254,447.24632126782274,47.285714285714285,447.24632126782274S36.77777777777778,447.24632126782274,31.523809523809522,447.24632126782274S21.015873015873016,447.24632126782274,15.761904761904761,447.24632126782274S2.626984126984127,447.24632126782274,0,447.24632126782274Z"></path><path opacity="0.85" id="path_8000" class="layer" fill="#5493c9" d="M0,448.24632126782274C2.626984126984127,448.24632126782274,10.507936507936506,448.24632126782274,15.761904761904761,448.24632126782274S26.26984126984127,448.24632126782274,31.523809523809522,448.24632126782274S42.03174603174603,448.24632126782274,47.285714285714285,448.24632126782274S57.79365079365079,448.24632126782274,63.047619047619044,448.24632126782274S73.55555555555556,448.24632126782274,78.80952380952381,448.24632126782274S89.31746031746032,448.24632126782274,94.57142857142857,448.24632126782274S105.07936507936508,448.24632126782274,110.33333333333333,448.24632126782274S120.84126984126983,448.24632126782274,126.09523809523809,448.24632126782274S136.60658375619437,447.8131492916833,141.85714285714286,447.6793585617562S152.36522366548812,447.4705898131095,157.61904761904762,447.4430556716862S168.12796134191302,447.437934366666,173.38095238095235,447.36628730625955S183.8909708051712,446.7328441414756,189.14285714285714,446.62827843161125S199.65079496628798,446.74127332509397,204.9047619047619,446.7386443398017S215.4131931169884,446.6634840794845,220.66666666666666,446.61250451590814S231.176434355249,446.53080757791815,236.4285714285714,446.4327381547624S246.94403282855762,446.2225758523925,252.19047619047618,446.02388282296437S262.71282360953694,445.5136550824093,267.95238095238096,445.23887008427766S278.46853669295086,444.5782822139034,283.7142857142857,444.37063821196074S294.25412945108724,444.318488794927,299.4761904761904,443.91029583041706S309.98913073534806,441.9091021137539,315.23809523809524,441.74703881581104S325.74796559612474,442.03881309106794,331,441.93803289846875S341.50930725338685,440.60614290112875,346.7619047619047,440.5212902397823S357.3787246069643,442.0387769254921,362.52380952380946,441.29030246665747S373.4927705063979,436.17484576775985,378.2857142857143,434.6883517758799S388.9954176594951,432.5230767092304,394.04761904761904,431.51343972511376S404.6903872646456,429.21939807755575,409.8095238095238,428.3886021161962S420.42608569593267,427.1449772016305,425.57142857142856,426.39737114412367S436.7997088981584,425.61541141561946,441.3333333333333,423.80826771944896S451.8412698412698,413.8316956068568,457.0952380952381,413.8316956068568S467.6031746031745,413.8316956068568,472.8571428571428,413.8316956068568S484.31380280197544,411.73341730907214,488.6190476190476,409.7124060128316S499.1293664857828,399.1453253834203,504.38095238095235,399.03347207830905S514.8891902269911,398.9544926888793,520.1428571428571,398.91470412244996S531.265936176326,396.8832666346952,535.9047619047619,395.19402450459825S547.4543911815144,389.5299462543737,551.6666666666666,387.43521550481563S563.6355055505321,381.8714837281678,567.4285714285714,379.5174873489687S579.3856405820062,370.2195049886113,583.1904761904761,367.8713756286764S594.7548820789599,362.1686070473992,598.9523809523808,360.0627748996127S610.194090918666,353.87748681262246,614.7142857142857,352.05627870600995S626.1024394251124,345.3995775439898,630.4761904761905,347.3616812406169S640.9866564552348,366.313394042938,646.2380952380952,366.1981405715107S660.9637196765528,347.9537334953044,662,346.66982732582085L662,412.55520555111C659.700170945521,413.42261591597054,651.4896952131099,418.6115348558641,646.2380952380952,418.500012420035S635.7237021931257,412.06983643425303,630.4761904761905,411.8857691809689S619.5430053117489,415.9612788210957,614.7142857142857,417.3942500425307S603.9774185178026,420.1682172993693,598.9523809523808,421.240777465432S588.1635053360569,422.94079562974434,583.1904761904761,424.1227932499383S572.4129077473967,427.57412491655236,567.4285714285714,428.7334075598487S556.6860985734285,430.36975686985267,551.6666666666666,431.4547634248851S540.9299729230305,434.47546060399986,535.9047619047619,435.5476328762334S525.3227627162967,437.56125614721606,520.1428571428571,438.1806410773317S509.58103699164764,438.7877397892261,504.38095238095235,439.31707853157553S493.8153032621366,440.84196214590713,488.6190476190476,441.38958380358577S478.11111111111103,442.6393016886934,472.8571428571428,442.6393016886934S462.3492063492063,442.6393016886934,457.0952380952381,442.6393016886934S446.5581373950881,444.08344812994864,441.3333333333333,444.4738033398978S430.8149756131777,444.76074561695,425.57142857142856,444.99450642740135S415.05044757620834,445.61768838233576,409.8095238095238,445.8791557099877S399.3015768695788,446.55981176238123,394.04761904761904,446.56721509490666S383.53968227810145,446.55854718165835,378.2857142857143,446.5597195036017S367.7752865472893,446.5606031852626,362.52380952380946,446.67498255259017S352.01587301587296,447.24632126782274,346.7619047619047,447.24632126782274S336.25396825396825,447.24632126782274,331,447.24632126782274S320.4920634920635,447.24632126782274,315.23809523809524,447.24632126782274S304.7301587301587,447.24632126782274,299.4761904761904,447.24632126782274S288.968253968254,447.24632126782274,283.7142857142857,447.24632126782274S273.2063492063492,447.24632126782274,267.95238095238096,447.24632126782274S257.44444444444446,447.24632126782274,252.19047619047618,447.24632126782274S241.68253968253964,447.24632126782274,236.4285714285714,447.24632126782274S225.9206349206349,447.24632126782274,220.66666666666666,447.24632126782274S210.15873015873015,447.24632126782274,204.9047619047619,447.24632126782274S194.3968253968254,447.24632126782274,189.14285714285714,447.24632126782274S178.6349206349206,447.24632126782274,173.38095238095235,447.24632126782274S162.87301587301587,447.24632126782274,157.61904761904762,447.24632126782274S147.11111111111111,447.24632126782274,141.85714285714286,447.24632126782274S131.34920634920636,447.24632126782274,126.09523809523809,447.24632126782274S115.58730158730158,447.24632126782274,110.33333333333333,447.24632126782274S99.82539682539682,447.24632126782274,94.57142857142857,447.24632126782274S84.06349206349206,447.24632126782274,78.80952380952381,447.24632126782274S68.3015873015873,447.24632126782274,63.047619047619044,447.24632126782274S52.53968253968254,447.24632126782274,47.285714285714285,447.24632126782274S36.77777777777778,447.24632126782274,31.523809523809522,447.24632126782274S21.015873015873016,447.24632126782274,15.761904761904761,447.24632126782274S2.626984126984127,447.24632126782274,0,447.24632126782274Z"></path><path opacity="0.85" id="path_7000" class="layer" fill="#9edae5" d="M0,447.4191113947504C2.6266330660803576,447.38874516057416,10.508422225711865,447.2874040901153,15.761904761904761,447.2368896382192S26.271262259241883,447.20239002882397,31.523809523809522,447.11599666108555S42.03177128955573,446.7299088808707,47.285714285714285,446.71838919804657S57.79377960315982,446.7159521133045,63.047619047619044,446.6899378003336S73.55687270215559,445.83940080072944,78.80952380952381,445.75622321031443S89.31751729323474,445.8239000335124,94.57142857142857,445.841201642219S105.08059761779657,446.0131872271871,110.33333333333333,445.93272482205333S120.85511463876645,445.62766212108494,126.09523809523809,445.35831392986745S136.64309878753556,444.7686184703085,141.85714285714286,444.312365846534S152.3750097791404,442.82803739608295,157.61904761904762,442.5998368984893S168.14729308901755,442.5266224170255,173.38095238095235,442.20060065723646S184.001907015906,440.33909890985404,189.14285714285714,439.5768518669365S199.7270105471901,438.1547729605566,204.9047619047619,437.52657542889426S215.53632652841935,436.548584813822,220.66666666666666,435.7521839823941S231.54810070233384,433.983150373295,236.4285714285714,432.6330230643305S247.29381297746653,428.3542021861682,252.19047619047618,427.0314767989903S263.20867288077847,425.67336612502004,267.95238095238096,424.11756236306746S279.1641020018245,418.4820585089937,283.7142857142857,416.6925476937575S294.8853520074545,413.46457612588256,299.4761904761904,411.71977764817535S310.07933083923064,405.41238808525287,315.23809523809524,404.7115783690364S325.75553941428126,407.6606189531169,331,407.43731962173285S341.5097326858565,403.46648140200307,346.7619047619047,403.36935346824976S357.28262280068105,403.3511264829242,362.52380952380946,403.09230146531746S374.49258901292967,394.1205149267289,378.2857142857143,391.766547970398S390.6923312436327,386.05302104590294,394.04761904761904,383.52901245687406S406.77741248832376,370.6483821163233,409.8095238095238,368.05282484283975S421.1415142149839,358.4545289989801,425.57142857142856,356.5439039203412S438.15427065383227,354.3006113596165,441.3333333333333,351.7322938412249S451.8412698412698,325.9733178776286,457.0952380952381,325.9733178776286S467.6031746031745,325.9733178776286,472.8571428571428,325.9733178776286S487.01955647952207,310.56699329244003,488.6190476190476,308.1492869901465S500.422909878738,280.58839510948,504.38095238095235,278.3235928653192S515.120244522814,289.0333154021873,520.1428571428571,290.1112809520407S532.0577615145504,287.41581166546814,535.9047619047619,285.0893108765391S549.7159046394994,273.58549146228955,551.6666666666666,271.0470334115931S566.0743137052012,246.3665747131424,567.4285714285714,244.06848570160034S581.6913105569433,219.92570489306402,583.1904761904761,217.55313855062892S596.3641261802945,196.80588070594854,598.9523809523808,194.17918208591317S609.4610185906207,185.6217893735091,614.7142857142857,185.56109979638256S625.2515583932543,184.77125398455726,630.4761904761905,185.16275200545243S640.9943537270968,243.81174611371628,646.2380952380952,244.04331985280066S661.8163308658089,187.22480090672673,662,186.5549042361257L662,345.66982732582085C660.9637196765528,346.9537334953044,651.4895340209556,365.0828871000834,646.2380952380952,365.1981405715107S634.8499415272686,348.32378493724406,630.4761904761905,346.3616812406169S619.2344805099053,349.23507059939743,614.7142857142857,351.05627870600995S603.1498798258018,356.9569427518262,598.9523809523808,359.0627748996127S586.9953117989461,364.5232462687415,583.1904761904761,366.8713756286764S571.2216373066108,376.1634909697696,567.4285714285714,378.5174873489687S555.8789421518188,384.34048475525753,551.6666666666666,386.43521550481563S540.5435876331978,392.5047823745013,535.9047619047619,394.19402450459825S525.3965240587231,397.8749155560206,520.1428571428571,397.91470412244996S509.6325382761219,397.9216187731978,504.38095238095235,398.03347207830905S492.92429243611974,406.69139471659105,488.6190476190476,408.7124060128316S478.11111111111103,412.8316956068568,472.8571428571428,412.8316956068568S462.3492063492063,412.8316956068568,457.0952380952381,412.8316956068568S445.8669577685082,421.00112402327846,441.3333333333333,422.80826771944896S430.71677144692444,424.6497650866168,425.57142857142856,425.39737114412367S414.928660354402,426.5578061548366,409.8095238095238,427.3886021161962S399.09982043574297,429.5038027409971,394.04761904761904,430.51343972511376S383.07865806503065,432.2018577839999,378.2857142857143,433.6883517758799S367.66889444065464,439.54182800782286,362.52380952380946,440.29030246665747S352.01450227042255,439.4364375784358,346.7619047619047,439.5212902397823S336.25203440387526,440.83725270586956,331,440.93803289846875S320.4870597408424,440.5849755178682,315.23809523809524,440.74703881581104S304.6982515012936,442.5021028659071,299.4761904761904,442.91029583041706S288.9600347356206,443.1629942100181,283.7142857142857,443.37063821196074S273.191938295225,443.96408508614604,267.95238095238096,444.23887008427766S257.4369195523947,444.82518979353625,252.19047619047618,445.02388282296437S241.68070850189378,445.3346687316066,236.4285714285714,445.4327381547624S225.92014021634492,445.5615249523318,220.66666666666666,445.61250451590814S210.15872884323582,445.7360153545094,204.9047619047619,445.7386443398017S194.39474348054307,445.5237127217469,189.14285714285714,445.62827843161125S178.63394341999168,446.2946402458531,173.38095238095235,446.36628730625955S162.87287157260712,446.4155215302629,157.61904761904762,446.4430556716862S147.10770195809135,446.5455678318291,141.85714285714286,446.6793585617562S131.34920634920636,447.24632126782274,126.09523809523809,447.24632126782274S115.58730158730158,447.24632126782274,110.33333333333333,447.24632126782274S99.82539682539682,447.24632126782274,94.57142857142857,447.24632126782274S84.06349206349206,447.24632126782274,78.80952380952381,447.24632126782274S68.3015873015873,447.24632126782274,63.047619047619044,447.24632126782274S52.53968253968254,447.24632126782274,47.285714285714285,447.24632126782274S36.77777777777778,447.24632126782274,31.523809523809522,447.24632126782274S21.015873015873016,447.24632126782274,15.761904761904761,447.24632126782274S2.626984126984127,447.24632126782274,0,447.24632126782274Z"></path><path opacity="0.85" id="path_9000" class="layer" fill="#9c9a87" d="M0,447.4191113947504C2.6266330660803576,447.38874516057416,10.508422225711865,447.2874040901153,15.761904761904761,447.2368896382192S26.271262259241883,447.20239002882397,31.523809523809522,447.11599666108555S42.03177128955573,446.7299088808707,47.285714285714285,446.71838919804657S57.79377960315982,446.7159521133045,63.047619047619044,446.6899378003336S73.55687270215559,445.83940080072944,78.80952380952381,445.75622321031443S89.31751729323474,445.8239000335124,94.57142857142857,445.841201642219S105.08059761779657,446.0131872271871,110.33333333333333,445.93272482205333S120.85511463876645,445.62766212108494,126.09523809523809,445.35831392986745S136.64309878753556,444.7686184703085,141.85714285714286,444.312365846534S152.37221486013476,442.79332785230275,157.61904761904762,442.5998368984893S168.15007399469505,442.54813524537224,173.38095238095235,442.20060065723646S184.03275060436366,439.6526748983578,189.14285714285714,438.7952667733167S199.69930119847174,437.413821270077,204.9047619047619,436.91132337615426S215.5077208379519,436.4523379257493,220.66666666666666,435.7521839823941S231.61290004392484,434.0858457278282,236.4285714285714,432.6330230643305S247.35112304701164,427.6583775500846,252.19047619047618,426.24187871904235S263.27427978713524,425.04720275510675,267.95238095238096,423.4058726546152S279.09510242479683,416.89399009500164,283.7142857142857,415.18162678648855S294.7442128150856,413.29141622772744,299.4761904761904,411.71977764817535S310.07933083923064,405.41238808525287,315.23809523809524,404.7115783690364S325.75553941428126,407.6606189531169,331,407.43731962173285S341.5097326858565,403.46648140200307,346.7619047619047,403.36935346824976S357.28262280068105,403.3511264829242,362.52380952380946,403.09230146531746S374.49258901292967,394.1205149267289,378.2857142857143,391.766547970398S390.6923312436327,386.05302104590294,394.04761904761904,383.52901245687406S406.8317320448857,370.6562801631382,409.8095238095238,368.05282484283975S421.22052794236623,357.9502526689897,425.57142857142856,355.9680424134192S438.21378907245986,353.58692863680835,441.3333333333333,351.0065352330946S451.8412698412698,325.0185108940068,457.0952380952381,325.0185108940068S467.6031746031745,325.0185108940068,472.8571428571428,325.0185108940068S487.00730460136697,309.7729213174484,488.6190476190476,307.35004470205774S500.3964057900273,279.87889158737175,504.38095238095235,277.62987630064623S515.123248209946,288.4723050930375,520.1428571428571,289.556921219365S532.0832145375964,286.78108118552467,535.9047619047619,284.44140935626444S549.7405886549343,272.78880435840546,551.6666666666666,270.25705077224643S566.0886624311254,245.294688636372,567.4285714285714,243.0046049666448S581.7095981702882,218.74243090387253,583.1904761904761,216.37864445087158S596.4202127047239,195.31138200318,598.9523809523808,192.68610953113944S609.4648860953005,183.85061242991333,614.7142857142857,183.69574929440455S625.3700064045744,181.91989859037628,630.4761904761905,182.78858336517277S641.9269616955562,242.78791645285492,646.2380952380952,240.77180972217002S661.8821396919477,168.59024338210747,662,168.04643633338452L662,185.5549042361257C661.8163308658089,186.22480090672673,651.4818367490935,243.27489359188505,646.2380952380952,243.04331985280066S635.7008225591267,184.5542500263476,630.4761904761905,184.16275200545243S619.9675528379506,184.50041021925603,614.7142857142857,184.56109979638256S601.5406357244672,190.5524834658778,598.9523809523808,193.17918208591317S584.689641824009,214.1805722081938,583.1904761904761,216.55313855062892S568.7828291519417,240.77039669005828,567.4285714285714,243.06848570160034S553.6174286938339,267.5085753608966,551.6666666666666,270.0470334115931S539.7517622949734,281.7628100876101,535.9047619047619,284.0893108765391S525.1654697629002,290.1892465018941,520.1428571428571,289.1112809520407S508.3389948831667,275.0587906211584,504.38095238095235,277.3235928653192S490.2185387585731,304.73158068785295,488.6190476190476,307.1492869901465S478.11111111111103,324.9733178776286,472.8571428571428,324.9733178776286S462.3492063492063,324.9733178776286,457.0952380952381,324.9733178776286S444.51239601283436,348.16397632283326,441.3333333333333,350.7322938412249S430.0013429278732,353.63327884170235,425.57142857142856,355.5439039203412S412.84163513072383,364.4572675693562,409.8095238095238,367.05282484283975S397.4029068516054,380.0050038678452,394.04761904761904,382.52901245687406S382.0788395584989,388.4125810140671,378.2857142857143,390.766547970398S367.76499624693787,401.8334764477107,362.52380952380946,402.09230146531746S352.0140768379529,402.27222553449644,346.7619047619047,402.36935346824976S336.24446058571874,406.2140202903488,331,406.43731962173285S320.39685963695985,403.0107686528199,315.23809523809524,403.7115783690364S304.06702894492634,408.97497917046815,299.4761904761904,410.71977764817535S288.2644694267469,413.9030368785213,283.7142857142857,415.6925476937575S272.69608902398346,421.5617586011149,267.95238095238096,423.11756236306746S257.0871394034858,424.7087514118124,252.19047619047618,426.0314767989903S241.30904215480894,430.2828957553659,236.4285714285714,431.6330230643305S225.79700680491396,433.9557831509662,220.66666666666666,434.7521839823941S210.0825132623337,435.8983778972319,204.9047619047619,436.52657542889426S194.28380726980828,437.814604824019,189.14285714285714,438.5768518669365S178.61461167288715,440.8745788974474,173.38095238095235,441.20060065723646S162.86308545895483,441.3716364008956,157.61904761904762,441.5998368984893S147.07118692675016,442.8561132227595,141.85714285714286,443.312365846534S131.33536155170972,444.08896573864996,126.09523809523809,444.35831392986745S115.58606904887009,444.8522624169196,110.33333333333333,444.93272482205333S99.8253398496224,444.8585032509256,94.57142857142857,444.841201642219S84.06217491689203,444.6730456198994,78.80952380952381,444.75622321031443S68.30145849207827,445.6639234873627,63.047619047619044,445.6899378003336S52.53965728187284,445.7068695152224,47.285714285714285,445.71838919804657S36.77635678837716,446.0296032933471,31.523809523809522,446.11599666108555S21.015387298097657,446.1863751863232,15.761904761904761,446.2368896382192S2.6266330660803576,446.38874516057416,0,446.4191113947504Z"></path><path opacity="0.85" id="path_0000" class="layer" fill="#ffe999" d="M0,447.4191113947504C2.6266330660803576,447.38874516057416,10.508422225711865,447.2874040901153,15.761904761904761,447.2368896382192S26.271262259241883,447.20239002882397,31.523809523809522,447.11599666108555S42.03177128955573,446.7299088808707,47.285714285714285,446.71838919804657S57.79377960315982,446.7159521133045,63.047619047619044,446.6899378003336S73.56596416344249,445.98984289332043,78.80952380952381,445.75622321031443S89.3176250175333,445.25602124078114,94.57142857142857,445.28543725391626S105.08218187005822,446.05434469941747,110.33333333333333,445.93272482205333S120.88210871959815,445.0167356567787,126.09523809523809,444.55532655816705S136.6533143668895,443.6533846165493,141.85714285714286,443.1425825698482S152.40230603061698,441.90166773561367,157.61904761904762,441.46098429559277S168.22984028792692,441.20750346556156,173.38095238095235,440.47961362879033S184.01970800817637,437.8251003204288,189.14285714285714,437.00643930524774S199.66411259867868,435.7064177303187,204.9047619047619,435.4422209570766S215.45206056446696,435.36752167800836,220.66666666666666,434.9144674684395S231.6146722885018,433.29240437997225,236.4285714285714,431.8369153456721S247.357668973928,426.80987123249315,252.19047619047618,425.3832002469563S263.3577538241787,424.2714400663708,267.95238095238096,422.53091525379733S279.1458357857728,415.21110877863373,283.7142857142857,413.44143193103673S294.70407624043435,411.83595985163333,299.4761904761904,410.31956200810197S310.0745534822669,404.1076708932173,315.23809523809524,403.42435471531803S325.74841525720666,406.25974585661487,331,406.1478655146401S341.50967840502074,402.8484175490749,346.7619047619047,402.75276799195586S357.28715377821754,402.73698215139103,362.52380952380946,402.435884747783S374.50513476403836,393.39313619550245,378.2857142857143,391.03299567664084S390.77749339565975,385.3032385017395,394.04761904761904,382.7561981443287S406.91867406226555,369.09338241096947,409.8095238095238,366.47968377917124S421.16236139530946,356.18471893464084,425.57142857142856,354.25463458171413S438.1317538990926,352.02368494276,441.3333333333333,349.46031102615996S451.8412698412698,323.1258864665996,457.0952380952381,323.1258864665996S467.6031746031745,323.1258864665996,472.8571428571428,323.1258864665996S487.03963230814213,307.9220091773363,488.6190476190476,305.51293359134775S500.4064680500146,277.297809777945,504.38095238095235,275.0427512856279S515.1707501313392,286.4430049181998,520.1428571428571,287.62683102868345S532.0898170344497,284.89139497169595,535.9047619047619,282.5483638417837S549.8614233190111,270.7609525671693,551.6666666666666,268.2657997271583S566.1922793423367,241.20578778571772,567.4285714285714,238.977106280607S581.7816426725255,213.76485359414372,583.1904761904761,211.43737541011325S596.5647140647666,189.51392681190194,598.9523809523808,186.89786625022396S609.469887037836,177.12216126705934,614.7142857142857,176.89813742977287S625.4617454868608,174.6321886025228,630.4761904761905,175.7281248388955S641.9939277256968,236.11713100207092,646.2380952380952,234.0469224373686S661.8850871390501,160.88880571514315,662,160.3515261825999L662,167.04643633338452C661.8821396919477,167.59024338210747,650.5492287806342,237.75570299148512,646.2380952380952,239.77180972217002S635.5823745478066,182.65726813996926,630.4761904761905,181.78858336517277S619.9636853332709,182.54088615889577,614.7142857142857,182.69574929440455S601.4845492000378,189.06083705909887,598.9523809523808,191.68610953113944S584.671354210664,213.01485799787062,583.1904761904761,215.37864445087158S568.7684804260175,239.71452129691758,567.4285714285714,242.0046049666448S553.592744678399,266.7252971860874,551.6666666666666,269.25705077224643S539.7263092719274,281.1017375270042,535.9047619047619,283.44140935626444S525.1624660757682,289.6415373456925,520.1428571428571,288.556921219365S508.3654989718774,274.3808610139207,504.38095238095235,276.62987630064623S490.2307906367282,303.9271680866671,488.6190476190476,306.35004470205774S478.11111111111103,324.0185108940068,472.8571428571428,324.0185108940068S462.3492063492063,324.0185108940068,457.0952380952381,324.0185108940068S444.45287759420677,347.42614182938087,441.3333333333333,350.0065352330946S429.9223292004909,352.9858321578487,425.57142857142856,354.9680424134192S412.7873155741619,364.4493695225413,409.8095238095238,367.05282484283975S397.4029068516054,380.0050038678452,394.04761904761904,382.52901245687406S382.0788395584989,388.4125810140671,378.2857142857143,390.766547970398S367.76499624693787,401.8334764477107,362.52380952380946,402.09230146531746S352.0140768379529,402.27222553449644,346.7619047619047,402.36935346824976S336.24446058571874,406.2140202903488,331,406.43731962173285S320.39685963695985,403.0107686528199,315.23809523809524,403.7115783690364S304.2081681372953,409.14813906862327,299.4761904761904,410.71977764817535S288.3334690037746,412.46926347797546,283.7142857142857,414.18162678648855S272.6304821176267,420.7645425541237,267.95238095238096,422.4058726546152S257.0298293339407,423.8253798880001,252.19047619047618,425.24187871904235S241.24424281321794,430.18020040083275,236.4285714285714,431.6330230643305S225.82561249538142,434.0520300390389,220.66666666666666,434.7521839823941S210.11022261105205,435.4088254822315,204.9047619047619,435.91132337615426S194.25296368135062,436.9378586482756,189.14285714285714,437.7952667733167S178.61183076720965,440.8530660691007,173.38095238095235,441.20060065723646S162.86588037796048,441.4063459446758,157.61904761904762,441.5998368984893S147.07118692675016,442.8561132227595,141.85714285714286,443.312365846534S131.33536155170972,444.08896573864996,126.09523809523809,444.35831392986745S115.58606904887009,444.8522624169196,110.33333333333333,444.93272482205333S99.8253398496224,444.8585032509256,94.57142857142857,444.841201642219S84.06217491689203,444.6730456198994,78.80952380952381,444.75622321031443S68.30145849207827,445.6639234873627,63.047619047619044,445.6899378003336S52.53965728187284,445.7068695152224,47.285714285714285,445.71838919804657S36.77635678837716,446.0296032933471,31.523809523809522,446.11599666108555S21.015387298097657,446.1863751863232,15.761904761904761,446.2368896382192S2.6266330660803576,446.38874516057416,0,446.4191113947504Z"></path><path opacity="0.85" id="path_1000" class="layer" fill="#6e451e" d="M0,447.4191113947504C2.6266330660803576,447.38874516057416,10.508422225711865,447.2874040901153,15.761904761904761,447.2368896382192S26.271262259241883,447.20239002882397,31.523809523809522,447.11599666108555S42.03177128955573,446.7299088808707,47.285714285714285,446.71838919804657S57.79377960315982,446.7159521133045,63.047619047619044,446.6899378003336S73.56596416344249,445.98984289332043,78.80952380952381,445.75622321031443S89.3176250175333,445.25602124078114,94.57142857142857,445.28543725391626S105.08218187005822,446.05434469941747,110.33333333333333,445.93272482205333S120.88210871959815,445.0167356567787,126.09523809523809,444.55532655816705S136.6533143668895,443.6533846165493,141.85714285714286,443.1425825698482S152.40230603061698,441.90166773561367,157.61904761904762,441.46098429559277S168.22984028792692,441.20750346556156,173.38095238095235,440.47961362879033S184.01970800817637,437.8251003204288,189.14285714285714,437.00643930524774S199.66411259867868,435.7064177303187,204.9047619047619,435.4422209570766S215.45206056446696,435.36752167800836,220.66666666666666,434.9144674684395S231.6146722885018,433.29240437997225,236.4285714285714,431.8369153456721S247.357668973928,426.80987123249315,252.19047619047618,425.3832002469563S263.3577538241787,424.2714400663708,267.95238095238096,422.53091525379733S279.1458357857728,415.21110877863373,283.7142857142857,413.44143193103673S294.70407624043435,411.83595985163333,299.4761904761904,410.31956200810197S310.0745534822669,404.1076708932173,315.23809523809524,403.42435471531803S325.74841525720666,406.25974585661487,331,406.1478655146401S341.50967840502074,402.8484175490749,346.7619047619047,402.75276799195586S357.28715377821754,402.73698215139103,362.52380952380946,402.435884747783S374.50513476403836,393.39313619550245,378.2857142857143,391.03299567664084S390.77749339565975,385.3032385017395,394.04761904761904,382.7561981443287S406.91867406226555,369.09338241096947,409.8095238095238,366.47968377917124S421.3459546085795,356.3393110189732,425.57142857142856,354.25463458171413S438.4052507928986,351.5121116034828,441.3333333333333,348.9024401013883S451.8412698412698,322.501246311456,457.0952380952381,322.501246311456S467.6031746031745,322.501246311456,472.8571428571428,322.501246311456S487.101350600648,306.5844625397465,488.6190476190476,304.2031755528096S500.49081361709517,275.3433302237961,504.38095238095235,273.0399661694676S515.1483278376251,284.3995021390778,520.1428571428571,285.53782346119283S532.1469312199039,282.5957967004376,535.9047619047619,280.2246721431924S549.8865029106087,268.1336114653391,551.6666666666666,265.646858388974S566.206886539673,238.4078129689451,567.4285714285714,236.1883131030153S581.80745845016,210.68966156288792,583.1904761904761,208.37587824713282S596.6575451658724,186.05500361672028,598.9523809523808,183.44910202929498S609.4627825098827,172.69278225853745,614.7142857142857,172.5790052147592S625.2849306907489,171.4198853810669,630.4761904761905,171.99044295999215S641.9824546552749,232.7687517587057,646.2380952380952,230.7075570196551S661.8859474548975,157.25742553832436,662,156.7220693554125L662,159.3515261825999C661.8850871390501,159.88880571514315,650.4822627504935,230.9767138726663,646.2380952380952,233.0469224373686S635.4906354655202,175.8240610752682,630.4761904761905,174.7281248388955S619.9586843907354,175.6741135924864,614.7142857142857,175.89813742977287S601.3400478399951,183.28180568854597,598.9523809523808,185.89786625022396S584.5993097084267,208.10989722608278,583.1904761904761,210.43737541011325S568.6648635148061,235.74842477549626,567.4285714285714,237.977106280607S553.4719100143221,264.77064688714734,551.6666666666666,267.2657997271583S539.7197067750742,279.2053327118715,535.9047619047619,281.5483638417837S525.114964154375,287.8106571391671,520.1428571428571,286.62683102868345S508.3554367118901,271.7876927933108,504.38095238095235,274.0427512856279S490.19846292995305,302.1038580053592,488.6190476190476,304.51293359134775S478.11111111111103,322.1258864665996,472.8571428571428,322.1258864665996S462.3492063492063,322.1258864665996,457.0952380952381,322.1258864665996S444.53491276757404,345.89693710955993,441.3333333333333,348.46031102615996S429.98049574754765,351.3245502287874,425.57142857142856,353.25463458171413S412.70037355678204,362.865985147373,409.8095238095238,365.47968377917124S397.3177446995783,379.20915778691796,394.04761904761904,381.7561981443287S382.0662938073902,387.6728551577792,378.2857142857143,390.03299567664084S367.7604652694014,401.134787344175,362.52380952380946,401.435884747783S352.01413111878867,401.65711843483683,346.7619047619047,401.75276799195586S336.25158474279334,405.03598517266533,331,405.1478655146401S320.4016369939236,401.7410385374188,315.23809523809524,402.42435471531803S304.2483047119465,407.8031641645706,299.4761904761904,409.31956200810197S288.2827356427986,410.67175508343973,283.7142857142857,412.44143193103673S272.5470080805832,419.79039044122385,267.95238095238096,421.53091525379733S257.02328340702434,422.9565292614194,252.19047619047618,424.3832002469563S241.24247056864098,429.3814263113719,236.4285714285714,430.8369153456721S225.88127276886635,433.46141325887066,220.66666666666666,433.9144674684395S210.1454112108451,434.17802418383445,204.9047619047619,434.4422209570766S194.2660062775379,435.18777829006666,189.14285714285714,436.00643930524774S178.53206447397778,438.7517237920191,173.38095238095235,439.47961362879033S162.83578920747826,440.02030085557186,157.61904761904762,440.46098429559277S147.06097134739622,441.63178052314703,141.85714285714286,442.1425825698482S131.308367470878,443.0939174595554,126.09523809523809,443.55532655816705S115.58448479660844,444.8111049446892,110.33333333333333,444.93272482205333S99.82523212532384,444.3148532670514,94.57142857142857,444.28543725391626S84.05308345560513,444.52260352730843,78.80952380952381,444.75622321031443S68.30145849207827,445.6639234873627,63.047619047619044,445.6899378003336S52.53965728187284,445.7068695152224,47.285714285714285,445.71838919804657S36.77635678837716,446.0296032933471,31.523809523809522,446.11599666108555S21.015387298097657,446.1863751863232,15.761904761904761,446.2368896382192S2.6266330660803576,446.38874516057416,0,446.4191113947504Z"></path><path opacity="0.85" id="path_2000" class="layer" fill="#d66011" d="M0,447.4191113947504C2.6266330660803576,447.38874516057416,10.508422225711865,447.2874040901153,15.761904761904761,447.2368896382192S26.271262259241883,447.20239002882397,31.523809523809522,447.11599666108555S42.03177128955573,446.7299088808707,47.285714285714285,446.71838919804657S57.79377960315982,446.7159521133045,63.047619047619044,446.6899378003336S73.56596416344249,445.98984289332043,78.80952380952381,445.75622321031443S89.3176250175333,445.25602124078114,94.57142857142857,445.28543725391626S105.08218187005822,446.05434469941747,110.33333333333333,445.93272482205333S120.90099253546195,445.1122954434069,126.09523809523809,444.55532655816705S136.68101631617154,443.1872464782111,141.85714285714286,442.55248781805903S152.40857665239895,441.1655679385215,157.61904761904762,440.68949929566986S168.22147136401975,440.37044614216916,173.38095238095235,439.672230483631S184.00708576568775,437.20260812667794,189.14285714285714,436.4234854555058S199.65080919606893,434.8989454226086,204.9047619047619,434.88990804792115S215.41279766732555,434.93730320377904,220.66666666666666,434.9144674684395S231.67738421761254,432.62242099950845,236.4285714285714,431.0768444528894S247.35967838036944,426.0894434124138,252.19047619047618,424.65967040472754S263.366354578399,423.49693065883883,267.95238095238096,421.74673093369194S279.15079729486706,414.40410667361294,283.7142857142857,412.62900196436084S294.75499820575936,411.0705881936959,299.4761904761904,409.48460652439866S310.10754461990246,402.8350039723306,315.23809523809524,402.0392650531343S325.74891981685244,404.71847017578665,331,404.5953219258848S341.5093715497464,401.3867885479113,346.7619047619047,401.2999691677743S357.29074177060875,401.9738929126769,362.52380952380946,401.64317590889215S374.57223853121565,392.4044413382852,378.2857142857143,390.01266761429554S390.84392170695685,383.9022336978245,394.04761904761904,381.3393354414367S407.0109221727918,367.41557896438337,409.8095238095238,364.7942066074347S421.4178979906102,353.94977927342006,425.57142857142856,351.81185936666196S438.40049799733424,349.02095684345164,441.3333333333333,346.41183809541224S451.8412698412698,320.04065964561835,457.0952380952381,320.04065964561835S467.6031746031745,320.04065964561835,472.8571428571428,320.04065964561835S487.1136582297824,303.7657418110511,488.6190476190476,301.39022695154216S500.4612823585517,272.58279161106674,504.38095238095235,270.29587036641976S515.1695292517791,281.81633807919667,520.1428571428571,282.997742558672S532.1229958076776,280.14385088730086,535.9047619047619,277.78429071537096S549.9257410149526,265.8021121872676,551.6666666666666,263.32906831749324S566.2371303392749,235.20371077608982,567.4285714285714,233.00365127908225S581.8075307961362,207.43241765434075,583.1904761904761,205.11867323563166S596.6629211616223,182.86777863263393,598.9523809523808,180.26256790682265S609.4605042313909,169.27858129009334,614.7142857142857,169.24725630952435S625.2276107952365,168.90784668159063,630.4761904761905,169.07602026700698S641.9534449002385,231.40163438651592,646.2380952380952,229.3636971115347S661.8896772784015,154.60905735963337,662,154.0821371231799L662,155.7220693554125C661.8859474548975,156.25742553832436,650.4937358209155,227.6463622806045,646.2380952380952,229.7075570196551S635.6674502616321,171.5610005389174,630.4761904761905,170.99044295999215S619.9657889186886,171.46522817098096,614.7142857142857,171.5790052147592S601.2472167388893,179.84320044186967,598.9523809523808,182.44910202929498S584.5734939307923,205.06209493137771,583.1904761904761,207.37587824713282S568.6502563174699,232.9688132370855,567.4285714285714,235.1883131030153S553.4468304227246,262.16010531260895,551.6666666666666,264.646858388974S539.66259258962,276.8535475859472,535.9047619047619,279.2246721431924S525.1373864480892,285.67614478330785,520.1428571428571,284.53782346119283S508.27109114480953,269.73660211513914,504.38095238095235,272.0399661694676S490.1367446374472,300.82188856587277,488.6190476190476,303.2031755528096S478.11111111111103,321.501246311456,472.8571428571428,321.501246311456S462.3492063492063,321.501246311456,457.0952380952381,321.501246311456S444.26141587376804,345.2927685992938,441.3333333333333,347.9024401013883S429.7969025342776,351.16995814445505,425.57142857142856,353.25463458171413S412.70037355678204,362.865985147373,409.8095238095238,365.47968377917124S397.3177446995783,379.20915778691796,394.04761904761904,381.7561981443287S382.0662938073902,387.6728551577792,378.2857142857143,390.03299567664084S367.7604652694014,401.134787344175,362.52380952380946,401.435884747783S352.01413111878867,401.65711843483683,346.7619047619047,401.75276799195586S336.25158474279334,405.03598517266533,331,405.1478655146401S320.4016369939236,401.7410385374188,315.23809523809524,402.42435471531803S304.2483047119465,407.8031641645706,299.4761904761904,409.31956200810197S288.2827356427986,410.67175508343973,283.7142857142857,412.44143193103673S272.5470080805832,419.79039044122385,267.95238095238096,421.53091525379733S257.02328340702434,422.9565292614194,252.19047619047618,424.3832002469563S241.24247056864098,429.3814263113719,236.4285714285714,430.8369153456721S225.88127276886635,433.46141325887066,220.66666666666666,433.9144674684395S210.1454112108451,434.17802418383445,204.9047619047619,434.4422209570766S194.2660062775379,435.18777829006666,189.14285714285714,436.00643930524774S178.53206447397778,438.7517237920191,173.38095238095235,439.47961362879033S162.83578920747826,440.02030085557186,157.61904761904762,440.46098429559277S147.06097134739622,441.63178052314703,141.85714285714286,442.1425825698482S131.308367470878,443.0939174595554,126.09523809523809,443.55532655816705S115.58448479660844,444.8111049446892,110.33333333333333,444.93272482205333S99.82523212532384,444.3148532670514,94.57142857142857,444.28543725391626S84.05308345560513,444.52260352730843,78.80952380952381,444.75622321031443S68.30145849207827,445.6639234873627,63.047619047619044,445.6899378003336S52.53965728187284,445.7068695152224,47.285714285714285,445.71838919804657S36.77635678837716,446.0296032933471,31.523809523809522,446.11599666108555S21.015387298097657,446.1863751863232,15.761904761904761,446.2368896382192S2.6266330660803576,446.38874516057416,0,446.4191113947504Z"></path><path opacity="0.85" id="path_3000" class="layer" fill="#330000" d="M0,447.4191113947504C2.6266330660803576,447.38874516057416,10.508119811121738,447.26792245175585,15.761904761904761,447.2368896382192S26.272438404064644,447.2327807167384,31.523809523809522,447.11599666108555S42.03240817712977,446.15464895128633,47.285714285714285,446.09567054516043S57.79493357518318,446.07665883562225,63.047619047619044,445.9945732222695S73.70970062488142,445.42132901839403,78.80952380952381,444.5346991078077S89.32415776225378,440.7014658662184,94.57142857142857,440.51400038523377S105.08483869667823,440.4304702237086,110.33333333333333,440.26097612023824S121.15822746732537,437.90180775601385,126.09523809523809,436.6508788337988S136.81507725180373,433.3071898718407,141.85714285714286,432.2735424192084S152.64985266910705,431.37792507025245,157.61904761904762,430.1883478074182S168.94024175824165,426.6274263594735,173.38095238095235,424.72704697573823S184.18459544461984,417.90875838878657,189.14285714285714,416.697894858409S199.68994864061418,414.8845725846346,204.9047619047619,415.3364419908503S215.43317181255736,419.7025380383618,220.66666666666666,420.029871863085S231.37679573178923,419.9392502725242,236.4285714285714,418.92859135554824S247.09906095593504,409.44972118725076,252.19047619047618,408.53998225792435S262.73543362487356,407.9415712327933,267.95238095238096,407.5020985677029S278.90425900871276,404.6142342218456,283.7142857142857,403.1529434556068S294.85557876857905,399.6358347926574,299.4761904761904,397.9251347391153S310.02303099532,391.93223824161913,315.23809523809524,391.4818085382541S325.79198396184694,391.30057394997226,331,390.8113706415676S341.58544213354116,384.3786332686775,346.7619047619047,383.7452258370582S357.6330946678154,388.2869030182908,362.52380952380946,386.95402313249355S374.58631372434695,377.5520735935552,378.2857142857143,375.1539558744489S390.8285006802675,369.07825226080575,394.04761904761904,366.5188729132273S407.06135698911646,352.7149497769894,409.8095238095238,350.09076221543035S422.1698113009062,338.9273879822122,425.57142857142856,336.41721087763204S438.7078433780673,329.45518031331534,441.3333333333333,326.8281966112575S451.8412698412698,304.8754661911881,457.0952380952381,304.8754661911881S467.6031746031745,304.8754661911881,472.8571428571428,304.8754661911881S487.7436136225401,283.71637906061915,488.6190476190476,281.7585440972339S501.7817355784529,237.00193836032065,504.38095238095235,234.37510098828608S515.1603585851279,248.7367347094899,520.1428571428571,249.89974690632127S531.7901586819094,249.0403987992544,535.9047619047619,246.87521173365613S550.7593281349971,223.70545283116508,551.6666666666666,221.71953625941745S566.889782883875,179.47208055529765,567.4285714285714,177.8781907179686S582.58247858799,130.14383300440684,583.1904761904761,128.46313701246703S597.6165046946774,93.02431039613022,598.9523809523808,90.73649788779215S613.3131512576299,76.79910964401736,614.7142857142857,74.47567722856337S629.818650581555,36.72362726941595,630.4761904761905,38.46211368555373S642.7558357112352,155.3384195148798,646.2380952380952,157.82227731954453S661.9322502265143,61.3641020827781,662,60.94770377857111L662,153.0821371231799C661.8896772784015,153.60905735963337,650.5227455759518,226.32575983655346,646.2380952380952,228.3636971115347S635.7247701571445,168.24419385242334,630.4761904761905,168.07602026700698S619.9680671971804,168.21593132895535,614.7142857142857,168.24725630952435S601.2418407431394,176.65735718101138,598.9523809523808,179.26256790682265S584.5734215848161,201.80492881692257,583.1904761904761,204.11867323563166S568.620012517868,229.80359178207468,567.4285714285714,232.00365127908225S553.4075923183807,259.8560244477189,551.6666666666666,262.32906831749324S539.6865280018462,274.42473054344106,535.9047619047619,276.78429071537096S525.1161850339352,283.1791470381473,520.1428571428571,281.997742558672S508.300622403353,267.0089491217728,504.38095238095235,269.29587036641976S490.1244370083128,298.0147120920332,488.6190476190476,300.39022695154216S478.11111111111103,319.04065964561835,472.8571428571428,319.04065964561835S462.3492063492063,319.04065964561835,457.0952380952381,319.04065964561835S444.2661686693324,342.80271934737283,441.3333333333333,345.41183809541224S429.7249591522469,348.67393945990386,425.57142857142856,350.81185936666196S412.60812544625577,361.17283425048606,409.8095238095238,363.7942066074347S397.2513163882812,377.77643718504885,394.04761904761904,380.3393354414367S381.9991900402129,386.62089389030587,378.2857142857143,389.01266761429554S367.7568772770102,400.3124589051074,362.52380952380946,400.64317590889215S352.014437974063,400.2131497876373,346.7619047619047,400.2999691677743S336.25108018314756,403.4721736759829,331,403.5953219258848S320.368645856288,400.24352613393796,315.23809523809524,401.0392650531343S304.1973827466215,406.8986248551014,299.4761904761904,408.48460652439866S288.2777741337044,409.85389725510873,283.7142857142857,411.62900196436084S272.5384073263629,418.99653120854504,267.95238095238096,420.74673093369194S257.0212740005829,422.22989739704127,252.19047619047618,423.65967040472754S241.17975863953023,428.5312679062704,236.4285714285714,430.0768444528894S225.92053566600777,433.8916317331,220.66666666666666,433.9144674684395S210.15871461345486,433.8808706732337,204.9047619047619,433.88990804792115S194.27862852002653,434.6443627843336,189.14285714285714,435.4234854555058S178.54043339788495,437.9740148250928,173.38095238095235,438.672230483631S162.8295185856963,439.2134306528182,157.61904761904762,439.68949929566986S147.0332693981142,440.917729157907,141.85714285714286,441.55248781805903S131.28948365501424,442.9983576729272,126.09523809523809,443.55532655816705S115.58448479660844,444.8111049446892,110.33333333333333,444.93272482205333S99.82523212532384,444.3148532670514,94.57142857142857,444.28543725391626S84.05308345560513,444.52260352730843,78.80952380952381,444.75622321031443S68.30145849207827,445.6639234873627,63.047619047619044,445.6899378003336S52.53965728187284,445.7068695152224,47.285714285714285,445.71838919804657S36.77635678837716,446.0296032933471,31.523809523809522,446.11599666108555S21.015387298097657,446.1863751863232,15.761904761904761,446.2368896382192S2.6266330660803576,446.38874516057416,0,446.4191113947504Z"></path><path opacity="0.85" id="path_6000" class="layer" fill="red" d="M0,447.4191113947504C2.6266330660803576,447.38874516057416,10.508119811121738,447.26792245175585,15.761904761904761,447.2368896382192S26.272438404064644,447.2327807167384,31.523809523809522,447.11599666108555S42.03240817712977,446.15464895128633,47.285714285714285,446.09567054516043S57.79493357518318,446.07665883562225,63.047619047619044,445.9945732222695S73.70970062488142,445.42132901839403,78.80952380952381,444.5346991078077S89.32415776225378,440.7014658662184,94.57142857142857,440.51400038523377S105.08483869667823,440.4304702237086,110.33333333333333,440.26097612023824S121.20034660627759,437.97663967230625,126.09523809523809,436.6508788337988S136.89491416876973,432.92607956791267,141.85714285714286,431.72288447071116S152.65947242670066,430.21560975641097,157.61904761904762,429.0072784586221S168.9666140917762,425.9677521797874,173.38095238095235,424.0425481120789S184.43719609891872,416.86523532259065,189.14285714285714,415.2589514503103S199.68823394755833,412.83991530629345,204.9047619047619,413.2818523547505S215.43045515508084,417.62468204502454,220.66666666666666,417.92960508264406S231.3543969652393,417.8495165524362,236.4285714285714,416.89436993483685S246.98180570086552,406.73806641003233,252.19047619047618,406.25232869433097S262.707545628509,405.9344131924341,267.95238095238096,405.715550874116S278.9227554935594,402.7386909748369,283.7142857142857,401.25013939309986S295.0145812187448,397.80247856754113,299.4761904761904,395.92226681507657S310.00680886511685,388.30983685739847,315.23809523809524,387.96537290437004S325.7628443608045,388.71850791998605,331,388.42177524523197S341.57673116941663,382.10869563291436,346.7619047619047,381.5114416986358S357.6209647463705,386.1027679211107,362.52380952380946,384.79070698383S374.6658195898633,375.50739969420806,378.2857142857143,373.07528657889884S390.9552065141427,366.19610401909205,394.04761904761904,363.61067910201234S407.248593997948,349.34582238261686,409.8095238095238,346.71966883972516S422.2679356368851,333.8223785937605,425.57142857142856,331.28399693673543S438.9305679437508,325.1143843940587,441.3333333333333,322.4969865333534S451.8412698412698,296.94425158888157,457.0952380952381,296.94425158888157S467.6031746031745,296.94425158888157,472.8571428571428,296.94425158888157S487.82710220305256,275.98638520866365,488.6190476190476,274.1065770980848S501.95587128312735,224.73670126282906,504.38095238095235,222.11748749334728S515.0596155432376,239.1276406419787,520.1428571428571,240.05922253937104S531.1958405982026,239.63094834374718,535.9047619047619,238.0288924197142S551.0163744976664,212.25123297872787,551.6666666666666,210.52099180863974S567.0242738436273,155.55331961825348,567.4285714285714,154.15306602005745S582.7172457448279,102.84482600951671,583.1904761904761,101.34070145232113S597.8901386090944,56.06732167499543,598.9523809523808,53.95719638161182S613.3396574653327,41.02847450081126,614.7142857142857,38.71922129724362S630.013170157708,-0.48939794511779966,630.4761904761905,1.0000000000000568S643.669758084866,137.49556312190455,646.2380952380952,140.12189252544403S661.9440901844032,33.614748809565185,662,33.23560729161261L662,59.94770377857111C661.9322502265143,60.3641020827781,649.7203547649551,159.30613512420925,646.2380952380952,156.82227731954453S631.133730370826,39.20060010169151,630.4761904761905,37.46211368555373S616.1154201709414,71.15224481310938,614.7142857142857,73.47567722856337S600.2882572100843,87.44868537945409,598.9523809523808,89.73649788779215S583.7984737929623,125.78244102052723,583.1904761904761,127.46313701246703S567.9673599732679,175.28430088063956,567.4285714285714,176.8781907179686S552.5740051983362,218.73361968766983,551.6666666666666,220.71953625941745S540.0193651276145,243.71002466805786,535.9047619047619,245.87521173365613S525.1253557005863,250.06275910315264,520.1428571428571,248.89974690632127S506.9801691834518,230.7482636162515,504.38095238095235,233.37510098828608S489.49448161555506,278.8007091338486,488.6190476190476,280.7585440972339S478.11111111111103,303.8754661911881,472.8571428571428,303.8754661911881S462.3492063492063,303.8754661911881,457.0952380952381,303.8754661911881S443.9588232885993,323.2012129091997,441.3333333333333,325.8281966112575S428.9730458419509,332.90703377305186,425.57142857142856,335.41721087763204S412.55769062993113,346.4665746538713,409.8095238095238,349.09076221543035S397.2667374149706,362.95949356564887,394.04761904761904,365.5188729132273S381.9851148470816,371.75583815534264,378.2857142857143,374.1539558744489S367.41452437980354,384.6211432466963,362.52380952380946,385.95402313249355S351.93836739026824,382.11181840543884,346.7619047619047,382.7452258370582S336.20801603815306,389.3221673331629,331,389.8113706415676S320.45315948087045,390.03137883488904,315.23809523809524,390.4818085382541S304.0968021838018,395.2144346855732,299.4761904761904,396.9251347391153S288.5243124198587,400.691652689368,283.7142857142857,402.1529434556068S273.16932827988836,406.06262590261247,267.95238095238096,406.5020985677029S257.2818914250173,406.63024332859794,252.19047619047618,407.53998225792435S241.48034712535355,416.9179324385723,236.4285714285714,417.92859135554824S225.90016152077595,419.35720568780823,220.66666666666666,419.029871863085S210.11957516890962,414.78831139706597,204.9047619047619,414.3364419908503S194.10111884109443,414.4870313280314,189.14285714285714,415.697894858409S177.82166300366305,421.826667592003,173.38095238095235,423.72704697573823S162.5882425689882,427.998770544584,157.61904761904762,429.1883478074182S146.899208462482,430.2398949665761,141.85714285714286,431.2735424192084S131.03224872315081,434.39994991158375,126.09523809523809,435.6508788337988S115.58182796998842,439.0914820167679,110.33333333333333,439.26097612023824S99.81869938060336,439.3265349042491,94.57142857142857,439.51400038523377S83.9093469941662,442.64806919722133,78.80952380952381,443.5346991078077S68.30030452005491,444.9124876089167,63.047619047619044,444.9945732222695S52.5390203942988,445.0366921390345,47.285714285714285,445.09567054516043S36.7751806435544,445.9992126054327,31.523809523809522,446.11599666108555S21.015689712687784,446.2058568246826,15.761904761904761,446.2368896382192S2.6266330660803576,446.38874516057416,0,446.4191113947504Z"></path></g><g class="text_layers"><text class="label" style="font-weight: lighter; " font-size="18px" font-family="PT Sans Narrow" dy="6" opacity="1" pointer-events="none" text-anchor="middle" fill="#333333" x="614.7142857142857" y="365.7252643742703"><tspan x="614.7142857142857" dy="11px">Misc.</tspan><tspan x="614.7142857142857" dy="11px">manufactured</tspan><tspan x="614.7142857142857" dy="11px">articles</tspan></text><text class="label" style="font-weight: lighter; " font-size="18px" font-family="PT Sans Narrow" dy="6" opacity="1" pointer-events="none" text-anchor="middle" fill="#333333" x="614.7142857142857" y="243.80868925119626"><tspan x="614.7142857142857" dy="11px">Machinery</tspan><tspan x="614.7142857142857" dy="11px">&amp;</tspan><tspan x="614.7142857142857" dy="11px">Transport</tspan><tspan x="614.7142857142857" dy="11px">Equip.</tspan></text><text class="label" style="font-weight: lighter; " font-size="18px" font-family="PT Sans Narrow" dy="6" opacity="1" pointer-events="none" text-anchor="middle" fill="#ffffff" x="614.7142857142857" y="85.86146676904386"><tspan x="614.7142857142857" dy="11px">Mineral</tspan><tspan x="614.7142857142857" dy="11px">Fuels,</tspan><tspan x="614.7142857142857" dy="11px">Lubricants</tspan><tspan x="614.7142857142857" dy="11px">&amp;</tspan><tspan x="614.7142857142857" dy="11px">Related</tspan><tspan x="614.7142857142857" dy="11px">Materials</tspan></text></g></g></g></svg>