<svg width="748" height="520" style="z-index: 10; position: absolute; "><rect id="svgbg" fill="#ffffff" width="748" height="520"></rect><g class="titles"></g><clipPath id="clipping"><rect width="748" height="520"></rect></clipPath><g class="parent" width="748" height="520" clip-path="url(#clipping)" transform="translate(0,0)"><g class="axes_labels"><text class="x_axis_label" x="374" y="510" font-family="sans-serif" font-size="14px" font-weight="lighter" fill="#333" text-anchor="middle">Year</text><text class="y_axis_label" y="15" x="-242.5" transform="rotate(-90)" font-family="sans-serif" font-size="14px" font-weight="lighter" fill="#333" text-anchor="middle">Current</text></g><g class="chart" transform="translate(40,5)"><rect style="fill: #fafafa; " id="background" x="0" y="0" width="698" height="475" stroke-width="1" stroke="#ccc" shape-rendering="crispEdges"></rect><g transform="translate(0,475)" class="xaxis"><path class="domain" d="M0,0V0H698V0"></path></g><g class="yaxis"><path class="domain" d="M0,0H0V475H0"></path></g><clipPath id="path_clipping"><rect width="698" height="475" y="1" x="1"></rect></clipPath><g class="layers" clip-path="url(#path_clipping)"><path opacity="0.85" id="path_5000" class="layer" fill="#71144b" d="M0,447.7485807262137C2.344293978728435,447.83143399163356,9.38888888888889,448.24632126782274,14.083333333333332,448.24632126782274S23.47222222222222,448.24632126782274,28.166666666666664,448.24632126782274S37.55555555555556,448.24632126782274,42.25,448.24632126782274S51.638888888888886,448.24632126782274,56.33333333333333,448.24632126782274S65.73692815949327,448.13392883936064,70.41666666666666,447.8715932890982S79.80689718413963,446.74671154067295,84.5,446.6673616768687S93.8889205511732,446.59924988703796,98.58333333333331,446.58705825743897S107.97226982739417,446.4850048300003,112.66666666666666,446.47005566384297S122.05596561375795,446.3798293234883,126.75,446.42370217730905S136.13915276181243,446.9847052576645,140.83333333333331,446.94951055421245S150.22282443153796,446.15935559754473,154.91666666666666,446.21252208624486S164.31879089639563,447.5174628436974,169,447.2685504132528S178.40091305784026,444.9521058249565,183.08333333333331,444.71482495237314S192.48848152725566,444.80397364918883,197.16666666666663,445.0797707470429S206.56729710765757,447.0267149560824,211.25,447.2611977912509S220.6703612892415,446.8732815062408,225.33333333333331,446.49019545454394S234.72434898166173,444.84727070592453,239.41666666666663,444.9471678076342S248.84865095945656,446.64213133080887,253.5,447.0898497306841S262.89678933630756,447.46594637269516,267.5833333333333,447.6583672510422S276.97230322441567,448.2268211720349,281.66666666666663,448.24632126782274S291.0572755930923,447.86521227408844,295.75,447.77536984463813S305.13912575677097,447.7128527155157,309.8333333333333,447.67950744588626S319.22223383506054,447.5576783004499,323.91666666666663,447.5650617745434S333.3060661387663,447.77276392906055,338,447.7238084000365S347.3942289744998,447.42953766418117,352.08333333333326,447.27129664953844S361.47233792057517,446.79658612199694,366.16666666666663,446.7732810559307S375.55689002815785,446.9349390261361,380.25,446.85580100318276S389.66425052774343,445.7061137401187,394.33333333333326,445.3619980736666S403.72339688894675,444.85414171539287,408.41666666666663,444.77989194881127S417.8055923304897,444.8684527330703,422.5,444.85531361084685S431.8892729468733,444.7327108852907,436.58333333333326,444.6902515945408S445.990075372495,444.68605678604405,450.66666666666663,444.39710715870456S460.1438725044858,442.1981640046102,464.75,441.56035594038764S474.1738683942089,440.90059853513395,478.83333333333326,440.4968835631216S488.2222222222222,439.11988150961514,492.91666666666663,439.11988150961514S502.30555555555554,439.11988150961514,507,439.11988150961514S516.390087003152,438.5944314873596,521.0833333333333,438.66941845535024S530.4722827140133,439.5867696354218,535.1666666666666,439.5699181757398S544.6113389912106,439.0769934127371,549.25,438.56830839437185S558.8950673138454,437.547400507531,563.3333333333333,436.4811041142093S573.9703723944524,433.87525184967535,577.4166666666666,431.80124780208524S587.137907053657,420.7342615663443,591.5,419.5302066981697S600.9019476232849,423.7792400986308,605.5833333333333,424.0264909279375S616.3209983132055,423.1598128755656,619.6666666666666,421.0355347667701S630.9470975498557,408.2324844708921,633.75,405.9299190124578S643.2022193111382,398.43837100144174,647.8333333333333,397.89680807203234S657.4016672652734,403.5362141579888,661.9166666666666,402.636106241148S674.4763973078094,393.40172547764087,676,392.28151615198027L676,447.24632126782274C673.6527777777778,447.24632126782274,666.6111111111111,447.24632126782274,661.9166666666666,447.24632126782274S652.5277777777777,447.24632126782274,647.8333333333333,447.24632126782274S638.4444444444445,447.24632126782274,633.75,447.24632126782274S624.3611111111111,447.24632126782274,619.6666666666666,447.24632126782274S610.2777777777777,447.24632126782274,605.5833333333333,447.24632126782274S596.1944444444445,447.24632126782274,591.5,447.24632126782274S582.1111111111111,447.24632126782274,577.4166666666666,447.24632126782274S568.0277777777777,447.24632126782274,563.3333333333333,447.24632126782274S553.9444444444445,447.24632126782274,549.25,447.24632126782274S539.8611111111111,447.24632126782274,535.1666666666666,447.24632126782274S525.7777777777777,447.24632126782274,521.0833333333333,447.24632126782274S511.69444444444446,447.24632126782274,507,447.24632126782274S497.6111111111111,447.24632126782274,492.91666666666663,447.24632126782274S483.5277777777777,447.24632126782274,478.83333333333326,447.24632126782274S469.44444444444446,447.24632126782274,464.75,447.24632126782274S455.3611111111111,447.24632126782274,450.66666666666663,447.24632126782274S441.2777777777777,447.24632126782274,436.58333333333326,447.24632126782274S427.19444444444446,447.24632126782274,422.5,447.24632126782274S413.1111111111111,447.24632126782274,408.41666666666663,447.24632126782274S399.0277777777777,447.24632126782274,394.33333333333326,447.24632126782274S384.94444444444446,447.24632126782274,380.25,447.24632126782274S370.8611111111111,447.24632126782274,366.16666666666663,447.24632126782274S356.7777777777777,447.24632126782274,352.08333333333326,447.24632126782274S342.69444444444446,447.24632126782274,338,447.24632126782274S328.6111111111111,447.24632126782274,323.91666666666663,447.24632126782274S314.52777777777777,447.24632126782274,309.8333333333333,447.24632126782274S300.44444444444446,447.24632126782274,295.75,447.24632126782274S286.3611111111111,447.24632126782274,281.66666666666663,447.24632126782274S272.27777777777777,447.24632126782274,267.5833333333333,447.24632126782274S258.19444444444446,447.24632126782274,253.5,447.24632126782274S244.1111111111111,447.24632126782274,239.41666666666663,447.24632126782274S230.02777777777774,447.24632126782274,225.33333333333331,447.24632126782274S215.94444444444446,447.24632126782274,211.25,447.24632126782274S201.8611111111111,447.24632126782274,197.16666666666663,447.24632126782274S187.77777777777774,447.24632126782274,183.08333333333331,447.24632126782274S173.69444444444446,447.24632126782274,169,447.24632126782274S159.61111111111111,447.24632126782274,154.91666666666666,447.24632126782274S145.52777777777777,447.24632126782274,140.83333333333331,447.24632126782274S131.44444444444446,447.24632126782274,126.75,447.24632126782274S117.3611111111111,447.24632126782274,112.66666666666666,447.24632126782274S103.27777777777776,447.24632126782274,98.58333333333331,447.24632126782274S89.19444444444444,447.24632126782274,84.5,447.24632126782274S75.1111111111111,447.24632126782274,70.41666666666666,447.24632126782274S61.02777777777777,447.24632126782274,56.33333333333333,447.24632126782274S46.94444444444444,447.24632126782274,42.25,447.24632126782274S32.86111111111111,447.24632126782274,28.166666666666664,447.24632126782274S18.777777777777775,447.24632126782274,14.083333333333332,447.24632126782274S2.347222222222222,447.24632126782274,0,447.24632126782274Z"></path><path opacity="0.85" id="path_8000" class="layer" fill="#5493c9" d="M0,447.7485807262137C2.344293978728435,447.83143399163356,9.38888888888889,448.24632126782274,14.083333333333332,448.24632126782274S23.47222222222222,448.24632126782274,28.166666666666664,448.24632126782274S37.55555555555556,447.89416264185195,42.25,447.89416264185195S51.63889190294425,448.2500828241999,56.33333333333333,448.24632126782274S65.73692815949327,448.13392883936064,70.41666666666666,447.8715932890982S79.80689718413963,446.74671154067295,84.5,446.6673616768687S93.8889205511732,446.59924988703796,98.58333333333331,446.58705825743897S107.97226982739417,446.4850048300003,112.66666666666666,446.47005566384297S122.05596561375795,446.3798293234883,126.75,446.42370217730905S136.13915276181243,446.9847052576645,140.83333333333331,446.94951055421245S150.22282443153796,446.15935559754473,154.91666666666666,446.21252208624486S164.32786599250392,447.5914085108568,169,447.2685504132528S178.39712682097772,444.4626038659033,183.08333333333331,444.26612320272477S192.47448383798536,444.3852861110601,197.16666666666663,444.4883002588701S206.5555862772573,445.7099331801905,211.25,445.7219423591073S220.63895823598264,445.7183108704233,225.33333333333331,445.70026810816245S234.72754660960868,443.74304101860514,239.41666666666663,443.90104953636796S248.87310980142277,446.09031961156836,253.5,446.64939570484665S262.8933650328678,447.1595928360426,267.5833333333333,447.304482357297S276.97252668986715,447.55736747819304,281.66666666666663,447.5195625348144S291.05570692567204,447.05098135895577,295.75,447.07763798457654S305.140243748521,447.59976738300475,309.8333333333333,447.67950744588626S319.22365659944285,447.6471077783262,323.91666666666663,447.5650617745434S333.30559173088193,447.19101129601296,338,447.17797972852367S347.39070697764305,447.3636633708457,352.08333333333326,447.27129664953844S361.4777408305561,445.2558663208589,366.16666666666663,445.0950050601517S375.56503735542424,446.5157581193567,380.25,446.3049931360502S389.727522582241,444.46678458765024,394.33333333333326,443.82785578273484S403.7262356009205,442.53484978933886,408.41666666666663,442.397647471117S417.81452116209783,442.8496403625978,422.5,442.6446814405605S431.8889422993101,440.6441353774275,436.58333333333326,440.62830094018443S446.18720093282883,443.53099415665275,450.66666666666663,442.5496737361645S460.6301582592467,435.9963992178258,464.75,434.457804988337S474.1598006034865,432.3431836762242,478.83333333333326,432.0305631672851S488.2222222222222,432.57368901495005,492.91666666666663,432.57368901495005S502.30555555555554,432.57368901495005,507,432.57368901495005S516.412287620048,431.91083238143744,521.0833333333333,432.2414326580216S530.4954437826174,436.25825118817994,535.1666666666666,436.587603711051S544.7034631627597,435.04741253634927,549.25,434.2273714491702S559.2993080639465,433.1395137728799,563.3333333333333,431.50729208433086S574.5387347764934,425.1171917889873,577.4166666666666,422.83075364006726S588.0589104571825,411.20639985821765,591.5,409.1296460342347S601.3937841239577,407.2861109930259,605.5833333333333,405.83170959282705S616.2559809485175,401.4440777618926,619.6666666666666,399.35159178742947S630.3404167775507,390.6442554071868,633.75,388.5512094770433S643.1401020728443,382.13633513673835,647.8333333333333,382.0608781763907S657.4352047907736,389.0753221568806,661.9166666666666,388.09835068278676S674.6569723362155,377.08178316442934,676,375.92046448645857L676,391.28151615198027C674.4763973078094,392.40172547764087,666.4316660680598,400.7359983243072,661.9166666666666,401.636106241148S652.4644473555284,396.35524514262295,647.8333333333333,396.89680807203234S636.5529024501443,402.6273535540235,633.75,404.9299190124578S623.0123350201278,417.91125665797466,619.6666666666666,420.0355347667701S610.2647190433817,423.27374175724424,605.5833333333333,423.0264909279375S595.862092946343,417.3261518299951,591.5,418.5302066981697S580.8629609388809,428.72724375449513,577.4166666666666,430.80124780208524S567.7715993528211,434.4148077208876,563.3333333333333,435.4811041142093S553.8886610087894,437.0596233760066,549.25,437.56830839437185S539.8610506193199,438.55306671605786,535.1666666666666,438.5699181757398S525.7765796635146,437.7444054233409,521.0833333333333,437.66941845535024S511.69444444444446,438.11988150961514,507,438.11988150961514S497.6111111111111,438.11988150961514,492.91666666666663,438.11988150961514S483.4927982724576,439.0931685911093,478.83333333333326,439.4968835631216S469.3561274955142,439.9225478761651,464.75,440.56035594038764S455.34325796083823,443.10815753136507,450.66666666666663,443.39710715870456S441.2773937197932,443.64779230379094,436.58333333333326,443.6902515945408S427.1944076695103,443.8421744886234,422.5,443.85531361084685S413.1099364443865,443.70564218222967,408.41666666666663,443.77989194881127S399.0024161389231,444.0178824072145,394.33333333333326,444.3619980736666S384.94310997184215,445.77666298022945,380.25,445.85580100318276S370.8609954127581,445.7499759898644,366.16666666666663,445.7732810559307S356.7724376921667,446.1130556348957,352.08333333333326,446.27129664953844S342.6939338612337,446.67485287101243,338,446.7238084000365S328.6110994982727,446.5724452486369,323.91666666666663,446.5650617745434S314.52754090989566,446.64616217625684,309.8333333333333,446.67950744588626S300.4427244069077,446.68552741518783,295.75,446.77536984463813S286.3610301089176,447.2658213636106,281.66666666666663,447.24632126782274S272.26987733035907,446.85078812938923,267.5833333333333,446.6583672510422S258.15134904054344,446.5375681305593,253.5,446.0898497306841S244.10898435167152,444.0470649093438,239.41666666666663,443.9471678076342S229.99630537742513,445.1071094028471,225.33333333333331,445.49019545454394S215.93270289234243,446.49568062641936,211.25,446.2611977912509S201.8448518060776,444.355567844897,197.16666666666663,444.0797707470429S187.76575360882637,443.47754407978977,183.08333333333331,443.71482495237314S173.68120910360437,446.0196379828082,169,446.2685504132528S159.61050890179536,445.265688574945,154.91666666666666,445.21252208624486S145.5275139048542,445.91431585076043,140.83333333333331,445.94951055421245S131.44403438624207,445.4675750311298,126.75,445.42370217730905S117.36106350593914,445.4551064976856,112.66666666666666,445.47005566384297S103.27774611549343,445.57486662784,98.58333333333331,445.58705825743897S89.19310281586037,445.5880118130645,84.5,445.6673616768687S75.09640517384004,446.60925773883577,70.41666666666666,446.8715932890982S61.02777777777777,447.24632126782274,56.33333333333333,447.24632126782274S46.94444444444444,447.24632126782274,42.25,447.24632126782274S32.86111111111111,447.24632126782274,28.166666666666664,447.24632126782274S18.777777777777775,447.24632126782274,14.083333333333332,447.24632126782274S2.344293978728435,446.83143399163356,0,446.7485807262137Z"></path><path opacity="0.85" id="path_7000" class="layer" fill="#9edae5" d="M0,446.7704901924263C2.347206504887848,446.77656405688657,9.388888920461092,446.8065486375683,14.083333333333332,446.80693362321847S23.47225199264244,446.8305835433657,28.166666666666664,446.81876175426504S37.560114881686566,445.47087332780154,42.25,445.324645027629S51.64296434008743,445.8022806631145,56.33333333333333,445.9405390080169S65.72319427685166,446.2224607768112,70.41666666666666,446.1549158912558S79.81380421257823,445.73179405558574,84.5,445.53518576025823S93.89817586703664,445.18178249305197,98.58333333333331,444.97318969593664S107.99389248339419,444.59936226288727,112.66666666666666,444.2811481259461S122.07662034855356,442.7412929454367,126.75,443.05505045524137S136.1543558478504,445.9031626721647,140.83333333333331,446.1721785689995S150.2845776869602,445.2119161391033,154.91666666666666,444.67448143512775S164.45951929033205,443.7402655470039,169,442.904161864593S178.49785287640273,440.1946108990371,183.08333333333331,439.4877500674345S192.50496277132274,438.95288952778986,197.16666666666663,438.562214797S206.5832572674306,437.4867895044484,211.25,437.1272387255969S220.68010356891426,436.8300329024716,225.33333333333331,436.3921043970907S234.84174072333388,433.73694337356864,239.41666666666663,434.4763947184482S248.80669113122045,440.87171590926044,253.5,440.9447200689999S262.88937781029534,440.9841505303649,267.5833333333333,441.0320564312142S276.9914141699287,444.9464589494658,281.66666666666663,445.24600394013004S291.0581050240698,445.03531129783437,295.75,444.9259411075938S305.17852896673776,444.2588617701217,309.8333333333333,443.8293075739331S319.4127696456524,443.2530616299026,323.91666666666663,442.3266675600007S333.3834696739698,438.6355281533318,338,438.0357841325319S347.4116882598873,437.66969204845816,352.08333333333326,437.3433324780412S361.6315388147256,436.20603366112584,366.16666666666663,435.35602124007613S375.97244930578125,433.3994917143705,380.25,432.06409508763625S389.7638573063088,427.3184201039556,394.33333333333326,426.56274809340084S403.7530972288831,426.076987315018,408.41666666666663,425.69753015346294S418.05608877828956,424.4854624319229,422.5,423.430309646816S432.48117592236304,420.56843195411517,436.58333333333326,419.00969700429596S447.2692313399607,414.82672662767584,450.66666666666663,412.7275590317787S462.37493312409674,403.95346356116266,464.75,401.60640650268385S474.34092992854244,385.8457762123243,478.83333333333326,384.89306961822126S488.2222222222222,395.63308517570374,492.91666666666663,395.63308517570374S502.30555555555554,395.63308517570374,507,395.63308517570374S516.3890181164861,394.00720104519235,521.0833333333333,393.982571082208S530.8484758542878,394.0938531543193,535.1666666666666,395.3685040779489S544.6657434843881,408.1571170694573,549.25,408.86784186197036S560.7658044235158,402.0722119346081,563.3333333333333,399.73535140734197S576.8714103192084,384.73580398259094,577.4166666666666,383.23168591984455S587.3396693199644,323.5268004644333,591.5,322.03613286879056S600.9475589172765,320.7946481727053,605.5833333333333,320.27313018012126S619.3002701966496,303.5280452158273,619.6666666666666,302.2687670496169S633.0114786156505,225.17558360199794,633.75,223.46633412496968S645.3380499043503,209.39906744658416,647.8333333333333,211.7416152133429S657.9518438702958,261.8873644329549,661.9166666666666,260.1865350637917S675.8794527814606,200.17677292985763,676,199.65868077754763L676,374.92046448645857C674.6569723362155,376.08178316442934,666.3981285425597,386.12137920869293,661.9166666666666,387.09835068278676S652.5265645938222,380.98542121604305,647.8333333333333,381.0608781763907S637.1595832224493,385.4581635468998,633.75,387.5512094770433S623.0773523848158,396.25910581296637,619.6666666666666,398.35159178742947S609.7728825427088,403.3773081926282,605.5833333333333,404.83170959282705S594.9410895428175,406.0528922102518,591.5,408.1296460342347S580.2945985568399,419.5443154911472,577.4166666666666,421.83075364006726S567.3673586027201,428.8750703957818,563.3333333333333,430.50729208433086S553.7965368372403,432.40733036199117,549.25,433.2273714491702S539.8378895507159,435.916956233922,535.1666666666666,435.587603711051S525.754537492766,431.57091727983754,521.0833333333333,431.2414326580216S511.69444444444446,431.57368901495005,507,431.57368901495005S497.6111111111111,431.57368901495005,492.91666666666663,431.57368901495005S483.50686606318004,430.717942658346,478.83333333333326,431.0305631672851S468.8698417407533,431.9192107588482,464.75,433.457804988337S455.1461324005044,440.56835331567623,450.66666666666663,441.5496737361645S441.2777243673564,439.61246650294134,436.58333333333326,439.62830094018443S427.18547883790217,441.4397225185231,422.5,441.6446814405605S413.10709773241274,441.26044515289516,408.41666666666663,441.397647471117S398.9391440844255,442.18892697781945,394.33333333333326,442.82785578273484S384.93496264457576,445.0942281527437,380.25,445.3049931360502S370.85559250277714,443.93414379944454,366.16666666666663,444.0950050601517S356.77595968902347,446.1789299282312,352.08333333333326,446.27129664953844S342.69440826911807,446.1649481610344,338,446.17797972852367S328.6096767338904,446.4830157707606,323.91666666666663,446.5650617745434S314.5264229181456,446.75924750876777,309.8333333333333,446.67950744588626S300.44429307432796,446.1042946101973,295.75,446.07763798457654S286.3608066434661,446.4817575914357,281.66666666666663,446.5195625348144S272.27330163379884,446.4493718785514,267.5833333333333,446.304482357297S258.1268901985772,446.20847179812495,253.5,445.64939570484665S244.10578672372458,443.0590580541308,239.41666666666663,442.90104953636796S230.027708430684,444.6822253459016,225.33333333333331,444.70026810816245S215.9444137227427,444.7339515380241,211.25,444.7219423591073S201.8588494953479,443.59131440668006,197.16666666666663,443.4883002588701S187.7695398456889,443.06964253954624,183.08333333333331,443.26612320272477S173.67213400749608,445.9456923156488,169,446.2685504132528S159.61050890179536,445.265688574945,154.91666666666666,445.21252208624486S145.5275139048542,445.91431585076043,140.83333333333331,445.94951055421245S131.44403438624207,445.4675750311298,126.75,445.42370217730905S117.36106350593914,445.4551064976856,112.66666666666666,445.47005566384297S103.27774611549343,445.57486662784,98.58333333333331,445.58705825743897S89.19310281586037,445.5880118130645,84.5,445.6673616768687S75.09640517384004,446.60925773883577,70.41666666666666,446.8715932890982S61.027774763722405,447.24255971144555,56.33333333333333,447.24632126782274S46.94444444444444,446.89416264185195,42.25,446.89416264185195S32.86111111111111,447.24632126782274,28.166666666666664,447.24632126782274S18.777777777777775,447.24632126782274,14.083333333333332,447.24632126782274S2.344293978728435,446.83143399163356,0,446.7485807262137Z"></path><path opacity="0.85" id="path_9000" class="layer" fill="#9c9a87" d="M0,446.7704901924263C2.347206504887848,446.77656405688657,9.388888920461092,446.8065486375683,14.083333333333332,446.80693362321847S23.47225199264244,446.8305835433657,28.166666666666664,446.81876175426504S37.560114881686566,445.47087332780154,42.25,445.324645027629S51.64296434008743,445.8022806631145,56.33333333333333,445.9405390080169S65.72319427685166,446.2224607768112,70.41666666666666,446.1549158912558S79.81380421257823,445.73179405558574,84.5,445.53518576025823S93.89817586703664,445.18178249305197,98.58333333333331,444.97318969593664S107.99389248339419,444.59936226288727,112.66666666666666,444.2811481259461S122.07662034855356,442.7412929454367,126.75,443.05505045524137S136.1543558478504,445.9031626721647,140.83333333333331,446.1721785689995S150.2845776869602,445.2119161391033,154.91666666666666,444.67448143512775S164.45951929033205,443.7402655470039,169,442.904161864593S178.49785287640273,440.1946108990371,183.08333333333331,439.4877500674345S192.50496277132274,438.95288952778986,197.16666666666663,438.562214797S206.5832572674306,437.4867895044484,211.25,437.1272387255969S220.68010356891426,436.8300329024716,225.33333333333331,436.3921043970907S234.84174072333388,433.73694337356864,239.41666666666663,434.4763947184482S248.80669113122045,440.87171590926044,253.5,440.9447200689999S262.88937781029534,440.9841505303649,267.5833333333333,441.0320564312142S276.9914141699287,444.9464589494658,281.66666666666663,445.24600394013004S291.0581050240698,445.03531129783437,295.75,444.9259411075938S305.17852896673776,444.2588617701217,309.8333333333333,443.8293075739331S319.4127696456524,443.2530616299026,323.91666666666663,442.3266675600007S333.3834696739698,438.6355281533318,338,438.0357841325319S347.4116882598873,437.66969204845816,352.08333333333326,437.3433324780412S361.6315388147256,436.20603366112584,366.16666666666663,435.35602124007613S375.97244930578125,433.3994917143705,380.25,432.06409508763625S389.7638573063088,427.3184201039556,394.33333333333326,426.56274809340084S403.7530972288831,426.076987315018,408.41666666666663,425.69753015346294S418.05608877828956,424.4854624319229,422.5,423.430309646816S432.48117592236304,420.56843195411517,436.58333333333326,419.00969700429596S447.2692313399607,414.82672662767584,450.66666666666663,412.7275590317787S462.37493312409674,403.95346356116266,464.75,401.60640650268385S474.34092992854244,385.8457762123243,478.83333333333326,384.89306961822126S488.2222222222222,395.63308517570374,492.91666666666663,395.63308517570374S502.30555555555554,395.63308517570374,507,395.63308517570374S516.3890922951626,393.61394687208144,521.0833333333333,393.58304641774987S531.0653209245146,393.80885577229697,535.1666666666666,395.3685040779489S544.6657434843881,408.1571170694573,549.25,408.86784186197036S560.7658044235158,402.0722119346081,563.3333333333333,399.73535140734197S576.8714103192084,384.73580398259094,577.4166666666666,383.23168591984455S587.3396693199644,323.5268004644333,591.5,322.03613286879056S600.9475589172765,320.7946481727053,605.5833333333333,320.27313018012126S619.3060003493882,303.5189861492256,619.6666666666666,302.2687670496169S632.9130209710642,224.43261234916937,633.75,222.63577689269982S645.1909872562567,209.41302034287065,647.8333333333333,211.7416152133429S658.0656477368257,261.5991795822609,661.9166666666666,259.796945517926S675.882089196376,199.0726268635285,676,198.55992821822596L676,198.65868077754763C675.8794527814606,199.17677292985763,665.8814894630375,257.48570569462856,661.9166666666666,259.1865350637917S650.3286167623162,213.08416298010164,647.8333333333333,210.7416152133429S634.4885213843495,220.7570846479414,633.75,222.46633412496968S620.0330631366836,300.00948888340645,619.6666666666666,301.2687670496169S610.21910774939,318.7516121875372,605.5833333333333,319.27313018012126S595.6603306800356,319.54546527314784,591.5,321.03613286879056S577.9619230141249,380.72756785709817,577.4166666666666,382.23168591984455S565.9008622431508,396.3984908800758,563.3333333333333,398.73535140734197S553.8342565156119,408.57856665448344,549.25,407.86784186197036S539.4848574790454,395.6431550015785,535.1666666666666,394.3685040779489S525.7776485501804,392.9579411192236,521.0833333333333,392.982571082208S511.69444444444446,394.63308517570374,507,394.63308517570374S497.6111111111111,394.63308517570374,492.91666666666663,394.63308517570374S483.3257367381241,382.9403630241182,478.83333333333326,383.89306961822126S467.12506687590326,398.25934944420504,464.75,400.60640650268385S454.06410199337256,409.62839143588155,450.66666666666663,411.7275590317787S440.6854907443035,416.45096205447675,436.58333333333326,418.00969700429596S426.94391122171044,421.3751568617091,422.5,422.430309646816S413.08023610445014,424.31807299190785,408.41666666666663,424.69753015346294S398.9028093603577,424.8070760828461,394.33333333333326,425.56274809340084S384.52755069421875,429.72869846090197,380.25,431.06409508763625S370.70179451860764,433.5060088190264,366.16666666666663,434.35602124007613S356.75497840677923,436.0169729076242,352.08333333333326,436.3433324780412S342.6165303260302,436.436040111732,338,437.0357841325319S328.42056368768084,440.4002734900988,323.91666666666663,441.3266675600007S314.48813769992887,442.39975337774445,309.8333333333333,442.8293075739331S300.4418949759302,443.81657091735326,295.75,443.9259411075938S286.34191916340455,444.54554893079427,281.66666666666663,444.24600394013004S272.2772888563713,440.0799623320635,267.5833333333333,440.0320564312142S258.1933088687795,440.0177242287394,253.5,439.9447200689999S243.99159260999937,434.2158460633278,239.41666666666663,433.4763947184482S229.98656309775237,434.9541758917098,225.33333333333331,435.3921043970907S215.9167427325694,435.7676879467454,211.25,436.1272387255969S201.82837056201052,437.1715400662102,197.16666666666663,437.562214797S187.6688137902639,437.78088923583186,183.08333333333331,438.4877500674345S173.54048070966795,441.0680581821821,169,441.904161864593S159.5487556463731,443.13704673115217,154.91666666666666,443.67448143512775S145.51231081881622,445.44119446583437,140.83333333333331,445.1721785689995S131.42337965144642,442.368807965046,126.75,442.05505045524137S117.33944084993912,442.96293398900497,112.66666666666666,443.2811481259461S103.26849079962999,443.7645968988213,98.58333333333331,443.97318969593664S89.18619578742177,444.3385774649307,84.5,444.53518576025823S75.11013905648166,445.08737100570045,70.41666666666666,445.1549158912558S61.023702326579226,445.0787973529193,56.33333333333333,444.9405390080169S46.939885118313434,444.17841672745647,42.25,444.324645027629S32.86108134069089,445.80693996516436,28.166666666666664,445.81876175426504S18.777777746205572,445.8073186088686,14.083333333333332,445.80693362321847S2.347206504887848,445.77656405688657,0,445.7704901924263Z"></path><path opacity="0.85" id="path_0000" class="layer" fill="#ffe999" d="M0,444.7011426818652C2.328951618984629,444.9074224699929,9.402856609138691,445.69284448212375,14.083333333333332,445.9485309884538S23.484302668033436,446.5365416726479,28.166666666666664,446.2987076032762S37.5558781112788,444.5020211785033,42.25,444.46310953653307S51.6389075456844,444.49377479870924,56.33333333333333,444.50313337456095S65.72260169154427,444.9371371243252,70.41666666666666,444.8949322234987S79.81479910963324,444.45798901929504,84.5,444.24988349847706S93.9033701101214,443.90416539578587,98.58333333333331,443.64383563798737S107.98770013845163,442.95218257220205,112.66666666666666,442.6830717177871S122.12650162505938,441.4510997731459,126.75,442.02382923550954S136.1408564552854,446.0760913179111,140.83333333333331,446.1721785689995S150.43981463636078,443.5875742368242,154.91666666666666,442.6005944796785S164.34115779541017,440.3697392423665,169,439.9624737053853S178.40098952963476,439.72578233461115,183.08333333333331,439.4877500674345S192.50496277132274,438.5429328992995,197.16666666666663,438.15225816850966S206.5738164423057,437.41945655251726,211.25,437.1272387255969S220.69708575737735,436.9115416795974,225.33333333333331,436.3921043970907S234.82017757099337,433.3004861399851,239.41666666666663,433.9714933623677S248.94475777807966,439.7076425014484,253.5,440.503946363945S263.0182812024767,438.12676172352144,267.5833333333333,438.8953205416093S276.9901088370347,444.95678466596723,281.66666666666663,445.24600394013004S291.0594189316884,445.0605571502802,295.75,444.9259411075938S305.2135942204428,443.0349340589876,309.8333333333333,442.4474656410099S319.38331260079303,442.19869530149873,323.91666666666663,441.34413124733584S333.49760275213146,438.0677602061517,338,437.1378823812069S347.4803019035147,436.17555708127554,352.08333333333326,435.5268838357832S361.7790233960188,434.3287798963301,366.16666666666663,433.16854970122415S376.0646747060961,429.53847169722263,380.25,428.07873567370046S389.9403702641523,424.4955502483679,394.33333333333326,423.34472595787946S403.93184987594566,421.6695245805808,408.41666666666663,420.6999155762814S418.2003502759215,418.55801865850367,422.5,417.25514529148404S432.36715120530664,413.5849092214147,436.58333333333326,412.16489477395675S447.3001145728417,409.88291967187814,450.66666666666663,407.7685831865116S462.6964868821742,396.80381570559376,464.75,394.47504196766033S474.90929381950315,377.5650568452596,478.83333333333326,375.82635060515463S488.2222222222222,381.9946479951518,492.91666666666663,381.9946479951518S502.30555555555554,381.9946479951518,507,381.9946479951518S516.5438322994321,382.3299008775013,521.0833333333333,383.1685699256707S531.5339212152281,385.23452163533,535.1666666666666,387.19841628312537S544.5907160587062,398.800471834113,549.25,398.3957215806262S561.5678708358372,387.0255734842987,563.3333333333333,384.7515884836489S577.0853888878855,363.31820550061565,577.4166666666666,362.1159492211758S589.8930129385215,284.75801362538243,591.5,282.53057023277006S601.0443582206619,289.94587667907797,605.5833333333333,289.10583416366484S619.3397713342387,273.1194628420888,619.6666666666666,271.92458568569657S633.4853475033069,178.17549707749154,633.75,177.09274341261516S646.0443483282571,154.4084610525422,647.8333333333333,156.6883345950631S658.1088358977499,214.82561234819678,661.9166666666666,212.98820253168418S675.9084129499093,143.5514638312261,676,143.09694543611295L676,197.55992821822596C675.882089196376,198.0726268635285,665.7676855965076,256.99471145359115,661.9166666666666,258.796945517926S650.4756794104098,213.07021008381514,647.8333333333333,210.7416152133429S634.5869790289358,219.83894143623027,633.75,221.63577689269982S620.027332983945,300.01854795000816,619.6666666666666,301.2687670496169S610.21910774939,318.7516121875372,605.5833333333333,319.27313018012126S595.6603306800356,319.54546527314784,591.5,321.03613286879056S577.9619230141249,380.72756785709817,577.4166666666666,382.23168591984455S565.9008622431508,396.3984908800758,563.3333333333333,398.73535140734197S553.8342565156119,408.57856665448344,549.25,407.86784186197036S539.2680124088187,395.92815238360083,535.1666666666666,394.3685040779489S525.7775743715039,392.5521459634183,521.0833333333333,392.58304641774987S511.69444444444446,394.63308517570374,507,394.63308517570374S497.6111111111111,394.63308517570374,492.91666666666663,394.63308517570374S483.3257367381241,382.9403630241182,478.83333333333326,383.89306961822126S467.12506687590326,398.25934944420504,464.75,400.60640650268385S454.06410199337256,409.62839143588155,450.66666666666663,411.7275590317787S440.6854907443035,416.45096205447675,436.58333333333326,418.00969700429596S426.94391122171044,421.3751568617091,422.5,422.430309646816S413.08023610445014,424.31807299190785,408.41666666666663,424.69753015346294S398.9028093603577,424.8070760828461,394.33333333333326,425.56274809340084S384.52755069421875,429.72869846090197,380.25,431.06409508763625S370.70179451860764,433.5060088190264,366.16666666666663,434.35602124007613S356.75497840677923,436.0169729076242,352.08333333333326,436.3433324780412S342.6165303260302,436.436040111732,338,437.0357841325319S328.42056368768084,440.4002734900988,323.91666666666663,441.3266675600007S314.48813769992887,442.39975337774445,309.8333333333333,442.8293075739331S300.4418949759302,443.81657091735326,295.75,443.9259411075938S286.34191916340455,444.54554893079427,281.66666666666663,444.24600394013004S272.2772888563713,440.0799623320635,267.5833333333333,440.0320564312142S258.1933088687795,440.0177242287394,253.5,439.9447200689999S243.99159260999937,434.2158460633278,239.41666666666663,433.4763947184482S229.98656309775237,434.9541758917098,225.33333333333331,435.3921043970907S215.9167427325694,435.7676879467454,211.25,436.1272387255969S201.82837056201052,437.1715400662102,197.16666666666663,437.562214797S187.6688137902639,437.78088923583186,183.08333333333331,438.4877500674345S173.54048070966795,441.0680581821821,169,441.904161864593S159.5487556463731,443.13704673115217,154.91666666666666,443.67448143512775S145.51231081881622,445.44119446583437,140.83333333333331,445.1721785689995S131.42337965144642,442.368807965046,126.75,442.05505045524137S117.33944084993912,442.96293398900497,112.66666666666666,443.2811481259461S103.26849079962999,443.7645968988213,98.58333333333331,443.97318969593664S89.18619578742177,444.3385774649307,84.5,444.53518576025823S75.11013905648166,445.08737100570045,70.41666666666666,445.1549158912558S61.023702326579226,445.0787973529193,56.33333333333333,444.9405390080169S46.939885118313434,444.17841672745647,42.25,444.324645027629S32.86108134069089,445.80693996516436,28.166666666666664,445.81876175426504S18.777777746205572,445.8073186088686,14.083333333333332,445.80693362321847S2.347206504887848,445.77656405688657,0,445.7704901924263Z"></path><path opacity="0.85" id="path_4000" class="layer" fill="#ffc41c" d="M0,444.7011426818652C2.328951618984629,444.9074224699929,9.402856609138691,445.69284448212375,14.083333333333332,445.9485309884538S23.484302668033436,446.5365416726479,28.166666666666664,446.2987076032762S37.5558781112788,444.5020211785033,42.25,444.46310953653307S51.6389075456844,444.49377479870924,56.33333333333333,444.50313337456095S65.72260169154427,444.9371371243252,70.41666666666666,444.8949322234987S79.81479910963324,444.45798901929504,84.5,444.24988349847706S93.9033701101214,443.90416539578587,98.58333333333331,443.64383563798737S107.98770013845163,442.95218257220205,112.66666666666666,442.6830717177871S122.12650162505938,441.4510997731459,126.75,442.02382923550954S136.1408564552854,446.0760913179111,140.83333333333331,446.1721785689995S150.43981463636078,443.5875742368242,154.91666666666666,442.6005944796785S164.34115779541017,440.3697392423665,169,439.9624737053853S178.40098952963476,439.72578233461115,183.08333333333331,439.4877500674345S192.50496277132274,438.5429328992995,197.16666666666663,438.15225816850966S206.5738164423057,437.41945655251726,211.25,437.1272387255969S220.69708575737735,436.9115416795974,225.33333333333331,436.3921043970907S234.82017757099337,433.3004861399851,239.41666666666663,433.9714933623677S248.94475777807966,439.7076425014484,253.5,440.503946363945S263.0182812024767,438.12676172352144,267.5833333333333,438.8953205416093S276.9901088370347,444.95678466596723,281.66666666666663,445.24600394013004S291.0594189316884,445.0605571502802,295.75,444.9259411075938S305.2135942204428,443.0349340589876,309.8333333333333,442.4474656410099S319.38331260079303,442.19869530149873,323.91666666666663,441.34413124733584S333.49760275213146,438.0677602061517,338,437.1378823812069S347.4803019035147,436.17555708127554,352.08333333333326,435.5268838357832S361.7790233960188,434.3287798963301,366.16666666666663,433.16854970122415S376.0646747060961,429.53847169722263,380.25,428.07873567370046S389.9403702641523,424.4955502483679,394.33333333333326,423.34472595787946S403.93184987594566,421.6695245805808,408.41666666666663,420.6999155762814S418.2307495632732,418.6024610314434,422.5,417.25514529148404S432.36715120530664,413.23092388445946,436.58333333333326,411.8109094370015S447.3099005643358,409.88760968814603,450.66666666666663,407.7685831865116S462.6964868821742,396.3589050957213,464.75,394.03013135778787S474.86367419791554,377.52256716656257,478.83333333333326,375.82635060515463S488.2222222222222,381.9946479951518,492.91666666666663,381.9946479951518S502.30555555555554,381.9946479951518,507,381.9946479951518S516.5438322994321,382.3299008775013,521.0833333333333,383.1685699256707S531.5339212152281,385.23452163533,535.1666666666666,387.19841628312537S544.6405641408992,399.0216941212496,549.25,398.3957215806262S561.7274186508419,385.6004015377018,563.3333333333333,383.3733148101512S577.0798960962788,360.54553291069044,577.4166666666666,359.3341137775537S589.6136558487113,284.35471270486295,591.5,282.05318200460573S601.0467055751776,288.7046438204022,605.5833333333333,287.85850224849014S619.354556172971,271.4155577786874,619.6666666666666,270.2460397527864S633.4945650769529,174.87029693638078,633.75,173.805459833579S646.1381323643337,150.57220185232455,647.8333333333333,152.82704562647825S657.9571330008635,212.97673373911456,661.9166666666666,211.27088967549332S675.9101201425459,141.14273085047958,676,140.6922981585372L676,142.09694543611295C675.9084129499093,142.5514638312261,665.7244974355833,210.15079271517158,661.9166666666666,211.98820253168418S649.6223183384094,157.968208137584,647.8333333333333,155.6883345950631S634.0146524966931,175.00998974773879,633.75,176.09274341261516S619.995503104004,269.72643253026587,619.6666666666666,270.92458568569657S610.1227650107979,287.2669838404011,605.5833333333333,288.10583416366484S593.1034764547054,279.30429657623216,591.5,281.53057023277006S577.7479444454477,359.913692941736,577.4166666666666,361.1159492211758S565.0987958308293,381.4776034829991,563.3333333333333,383.7515884836489S553.9092839412938,396.99097132713933,549.25,397.3957215806262S538.7994121181051,388.16231093092074,535.1666666666666,386.19841628312537S525.6228343672344,383.00723897384006,521.0833333333333,382.1685699256707S511.69444444444446,380.9946479951518,507,380.9946479951518S497.6111111111111,380.9946479951518,492.91666666666663,380.9946479951518S482.75737284716337,373.08764436504964,478.83333333333326,374.82635060515463S466.8035131178258,391.1462682297269,464.75,393.47504196766033S454.03321876049154,404.65424670114504,450.66666666666663,406.7685831865116S440.7995154613599,409.7448803264988,436.58333333333326,411.16489477395675S426.7996497240785,414.9522719244644,422.5,416.25514529148404S412.9014834573876,418.730306571982,408.41666666666663,419.6999155762814S398.7262964025142,421.193901667391,394.33333333333326,422.34472595787946S384.4353252939039,425.6189996501783,380.25,427.07873567370046S370.5543099373145,431.0083195061182,366.16666666666663,432.16854970122415S356.6863647631518,433.8782105902909,352.08333333333326,434.5268838357832S342.50239724786854,435.2080045562621,338,436.1378823812069S328.4500207325402,439.48956719317295,323.91666666666663,440.34413124733584S314.4530724462238,440.8599972230322,309.8333333333333,441.4474656410099S300.4405810683116,443.7913250649074,295.75,443.9259411075938S286.34322449629855,444.53522321429284,281.66666666666663,444.24600394013004S272.1483854641899,438.66387935969715,267.5833333333333,437.8953205416093S258.05524222192037,440.30025022644156,253.5,439.503946363945S244.0131557623399,433.64250058475034,239.41666666666663,432.9714933623677S229.96958090928928,434.872667114584,225.33333333333331,435.3921043970907S215.9261835576943,435.83502089867653,211.25,436.1272387255969S201.82837056201052,436.7615834377198,197.16666666666663,437.15225816850966S187.76567713703187,438.2497178002578,183.08333333333331,438.4877500674345S173.65884220458983,438.55520816840414,169,438.9624737053853S159.39351869697254,440.61361472253276,154.91666666666666,441.6005944796785S145.52581021138124,445.26826582008795,140.83333333333331,445.1721785689995S131.37349837494062,441.59655869787315,126.75,441.02382923550954S117.34563319488169,441.4139608633721,112.66666666666666,441.6830717177871S103.26329655654523,442.38350588018886,98.58333333333331,442.64383563798737S89.18520089036676,443.0417779776591,84.5,443.24988349847706S75.11073164178904,443.8527273226722,70.41666666666666,443.8949322234987S61.02775912098226,443.51249195041265,56.33333333333333,443.50313337456095S46.9441218887212,443.42419789456284,42.25,443.46310953653307S32.84903066529989,445.06087353390456,28.166666666666664,445.2987076032762S18.763810057527973,445.20421749478385,14.083333333333332,444.9485309884538S2.328951618984629,443.9074224699929,0,443.7011426818652Z"></path><path opacity="0.85" id="path_1000" class="layer" fill="#6e451e" d="M0,444.7011426818652C2.328951618984629,444.9074224699929,9.402856609138691,445.69284448212375,14.083333333333332,445.9485309884538S23.484302668033436,446.5365416726479,28.166666666666664,446.2987076032762S37.5558781112788,444.5020211785033,42.25,444.46310953653307S51.6389075456844,444.49377479870924,56.33333333333333,444.50313337456095S65.72260169154427,444.9371371243252,70.41666666666666,444.8949322234987S79.81479910963324,444.45798901929504,84.5,444.24988349847706S93.9033701101214,443.90416539578587,98.58333333333331,443.64383563798737S107.98770013845163,442.95218257220205,112.66666666666666,442.6830717177871S122.12650162505938,441.4510997731459,126.75,442.02382923550954S136.1408564552854,446.0760913179111,140.83333333333331,446.1721785689995S150.43981463636078,443.5875742368242,154.91666666666666,442.6005944796785S164.34115779541017,440.3697392423665,169,439.9624737053853S178.40098952963476,439.72578233461115,183.08333333333331,439.4877500674345S192.50496277132274,438.5429328992995,197.16666666666663,438.15225816850966S206.5738164423057,437.41945655251726,211.25,437.1272387255969S220.69708575737735,436.9115416795974,225.33333333333331,436.3921043970907S234.82017757099337,433.3004861399851,239.41666666666663,433.9714933623677S248.94475777807966,439.7076425014484,253.5,440.503946363945S263.0182812024767,438.12676172352144,267.5833333333333,438.8953205416093S276.9901088370347,444.95678466596723,281.66666666666663,445.24600394013004S291.0594189316884,445.0605571502802,295.75,444.9259411075938S305.2135942204428,443.0349340589876,309.8333333333333,442.4474656410099S319.38331260079303,442.19869530149873,323.91666666666663,441.34413124733584S333.49760275213146,438.0677602061517,338,437.1378823812069S347.4803019035147,436.17555708127554,352.08333333333326,435.5268838357832S361.7790233960188,434.3287798963301,366.16666666666663,433.16854970122415S376.0646747060961,429.53847169722263,380.25,428.07873567370046S389.9403702641523,424.4955502483679,394.33333333333326,423.34472595787946S403.93184987594566,421.6695245805808,408.41666666666663,420.6999155762814S418.2307495632732,418.6024610314434,422.5,417.25514529148404S432.36715120530664,413.23092388445946,436.58333333333326,411.8109094370015S447.3099005643358,409.88760968814603,450.66666666666663,407.7685831865116S462.6964868821742,396.3589050957213,464.75,394.03013135778787S474.86367419791554,377.52256716656257,478.83333333333326,375.82635060515463S488.2222222222222,381.9946479951518,492.91666666666663,381.9946479951518S502.30555555555554,381.9946479951518,507,381.9946479951518S516.493295077696,382.4763066804019,521.0833333333333,383.1685699256707S531.1996198900333,384.54399440698114,535.1666666666666,386.24270585199497S544.6219466027055,395.78400446939906,549.25,395.22969290420093S561.5893229015154,385.1375144880036,563.3333333333333,382.86912569936726S577.0790774478115,359.8068224234422,577.4166666666666,358.5940457118125S589.5615506262694,283.99277731292403,591.5,281.6814233982606S601.0627227960305,288.25033009254554,605.5833333333333,287.3638565213855S619.3711666648329,270.3680501951484,619.6666666666666,269.22792384651075S633.5002243665793,172.88570042109035,633.75,171.8320543858307S646.1341803651582,148.15451977183707,647.8333333333333,150.41050257373354S657.9448381777866,210.9233651650667,661.9166666666666,209.22922625729387S675.9107398682669,138.8452654675727,676,138.39632672604398L676,139.6922981585372C675.9101201425459,140.14273085047958,665.8762003324698,208.56504561187208,661.9166666666666,210.27088967549332S649.5285343023328,154.08188940063195,647.8333333333333,151.82704562647825S634.0054349230471,171.7406227307772,633.75,172.805459833579S619.9811705823062,268.0723666949984,619.6666666666666,269.2460397527864S610.1205968047832,286.01400743667966,605.5833333333333,286.85850224849014S593.3818221815766,278.7525614442654,591.5,281.05318200460573S577.7534372370544,357.1226946444169,577.4166666666666,358.3341137775537S564.9392480158247,380.1462280826006,563.3333333333333,382.3733148101512S553.8594358591008,396.76974904000275,549.25,397.3957215806262S538.7994121181051,388.16231093092074,535.1666666666666,386.19841628312537S525.6228343672344,383.00723897384006,521.0833333333333,382.1685699256707S511.69444444444446,380.9946479951518,507,380.9946479951518S497.6111111111111,380.9946479951518,492.91666666666663,380.9946479951518S482.802992468751,373.1301340437467,478.83333333333326,374.82635060515463S466.8035131178258,390.70135761985443,464.75,393.03013135778787S454.02343276899745,404.64955668487715,450.66666666666663,406.7685831865116S440.7995154613599,409.39089498954354,436.58333333333326,410.8109094370015S426.7692504367268,414.9078295515247,422.5,416.25514529148404S412.9014834573876,418.730306571982,408.41666666666663,419.6999155762814S398.7262964025142,421.193901667391,394.33333333333326,422.34472595787946S384.4353252939039,425.6189996501783,380.25,427.07873567370046S370.5543099373145,431.0083195061182,366.16666666666663,432.16854970122415S356.6863647631518,433.8782105902909,352.08333333333326,434.5268838357832S342.50239724786854,435.2080045562621,338,436.1378823812069S328.4500207325402,439.48956719317295,323.91666666666663,440.34413124733584S314.4530724462238,440.8599972230322,309.8333333333333,441.4474656410099S300.4405810683116,443.7913250649074,295.75,443.9259411075938S286.34322449629855,444.53522321429284,281.66666666666663,444.24600394013004S272.1483854641899,438.66387935969715,267.5833333333333,437.8953205416093S258.05524222192037,440.30025022644156,253.5,439.503946363945S244.0131557623399,433.64250058475034,239.41666666666663,432.9714933623677S229.96958090928928,434.872667114584,225.33333333333331,435.3921043970907S215.9261835576943,435.83502089867653,211.25,436.1272387255969S201.82837056201052,436.7615834377198,197.16666666666663,437.15225816850966S187.76567713703187,438.2497178002578,183.08333333333331,438.4877500674345S173.65884220458983,438.55520816840414,169,438.9624737053853S159.39351869697254,440.61361472253276,154.91666666666666,441.6005944796785S145.52581021138124,445.26826582008795,140.83333333333331,445.1721785689995S131.37349837494062,441.59655869787315,126.75,441.02382923550954S117.34563319488169,441.4139608633721,112.66666666666666,441.6830717177871S103.26329655654523,442.38350588018886,98.58333333333331,442.64383563798737S89.18520089036676,443.0417779776591,84.5,443.24988349847706S75.11073164178904,443.8527273226722,70.41666666666666,443.8949322234987S61.02775912098226,443.51249195041265,56.33333333333333,443.50313337456095S46.9441218887212,443.42419789456284,42.25,443.46310953653307S32.84903066529989,445.06087353390456,28.166666666666664,445.2987076032762S18.763810057527973,445.20421749478385,14.083333333333332,444.9485309884538S2.328951618984629,443.9074224699929,0,443.7011426818652Z"></path><path opacity="0.85" id="path_2000" class="layer" fill="#d66011" d="M0,444.7011426818652C2.328951618984629,444.9074224699929,9.402856609138691,445.69284448212375,14.083333333333332,445.9485309884538S23.484302668033436,446.5365416726479,28.166666666666664,446.2987076032762S37.5558781112788,444.5020211785033,42.25,444.46310953653307S51.6389075456844,444.49377479870924,56.33333333333333,444.50313337456095S65.72260169154427,444.9371371243252,70.41666666666666,444.8949322234987S79.81479910963324,444.45798901929504,84.5,444.24988349847706S93.9033701101214,443.90416539578587,98.58333333333331,443.64383563798737S107.98770013845163,442.95218257220205,112.66666666666666,442.6830717177871S122.12650162505938,441.4510997731459,126.75,442.02382923550954S136.1408564552854,446.0760913179111,140.83333333333331,446.1721785689995S150.48524138671968,443.6802007850809,154.91666666666666,442.6005944796785S164.31025089752455,439.4584636511823,169,439.3100723583617S178.39091280887877,439.58520304943306,183.08333333333331,439.4877500674345S192.4752677796485,437.3864706511204,197.16666666666663,437.2669385436336S206.5566650215283,437.19939893247926,211.25,437.1272387255969S220.69708575737735,436.36194916891384,225.33333333333331,435.8425118864071S234.8028212419459,433.3616807531268,239.41666666666663,433.9714933623677S248.80583531803944,439.601543053124,253.5,439.565304245594S262.98167523321797,433.1006173535219,267.5833333333333,433.75404755864105S277.332878450443,442.3147357388208,281.66666666666663,443.56493880711446S291.0594609880298,445.0612872688951,295.75,444.9259411075938S305.23184724192913,443.1014890110775,309.8333333333333,442.4474656410099S319.45155272143893,441.9344484815541,323.91666666666663,440.92252614751914S333.696040101648,437.3604856730247,338,436.06409459495137S347.5596544506886,433.3173884143476,352.08333333333326,432.43847512750045S361.65957841411745,431.51047408925564,366.16666666666663,430.59154488004873S375.9508013831093,427.9992539124775,380.25,426.6957047898316S389.976699612543,423.2643449076018,394.33333333333326,422.0512012269456S404.0978408657691,420.1261126920069,408.41666666666663,418.8524441758503S418.2119887345877,415.0646938248699,422.5,413.7445460868015S432.1786025942876,411.3104383235945,436.58333333333326,410.18078755291674S447.2926288640486,408.63154750038643,450.66666666666663,406.5208362637768S462.858239983771,394.86305419834764,464.75,392.5604456038606S474.98282321409823,374.03964893092746,478.83333333333326,372.23699043326667S488.2222222222222,379.3739120160634,492.91666666666663,379.3739120160634S502.30555555555554,379.3739120160634,507,379.3739120160634S516.4174109329265,379.3761420024575,521.0833333333333,379.7409455717667S531.3215636043857,381.3712437510832,535.1666666666666,383.17839763204597S544.603084143333,393.4489113798254,549.25,392.9789525005732S561.650029812505,382.5811733484338,563.3333333333333,380.3298039610535S577.0802579332538,356.51767538099006,577.4166666666666,355.3068569496322S589.3952802353157,281.28564935487907,591.5,278.9509877694278S601.0641104331324,285.1380090948917,605.5833333333333,284.24814100615356S619.3835473339255,266.8122906418208,619.6666666666666,265.6947346377971S633.510478545108,168.43711418356875,633.75,167.4041332370408S646.0362164649337,141.93888206458786,647.8333333333333,144.22073137166086S657.8926169996026,204.81060209652182,661.9166666666666,203.1681338682996S675.909789560042,133.17536714141772,676,132.7241398972618L676,137.39632672604398C675.9107398682669,137.8452654675727,665.8884951555467,206.53508734952104,661.9166666666666,208.22922625729387S649.5324863015084,151.66648537563,647.8333333333333,149.41050257373354S633.9997756334207,169.77840835057106,633.75,170.8320543858307S619.9646609133796,267.08332048076164,619.6666666666666,268.22792384651075S610.1048314560163,285.4795621873715,605.5833333333333,286.3638565213855S593.4342887869855,278.37080916421866,591.5,280.6814233982606S577.7542558855217,356.3812690001828,577.4166666666666,357.5940457118125S565.0773437651511,379.6007369107309,563.3333333333333,381.86912569936726S553.8780533972945,393.6753813390028,549.25,394.22969290420093S539.1337134432999,386.9414172970088,535.1666666666666,385.24270585199497S525.6733715889706,382.8608331709395,521.0833333333333,382.1685699256707S511.69444444444446,380.9946479951518,507,380.9946479951518S497.6111111111111,380.9946479951518,492.91666666666663,380.9946479951518S482.802992468751,373.1301340437467,478.83333333333326,374.82635060515463S466.8035131178258,390.70135761985443,464.75,393.03013135778787S454.02343276899745,404.64955668487715,450.66666666666663,406.7685831865116S440.7995154613599,409.39089498954354,436.58333333333326,410.8109094370015S426.7692504367268,414.9078295515247,422.5,416.25514529148404S412.9014834573876,418.730306571982,408.41666666666663,419.6999155762814S398.7262964025142,421.193901667391,394.33333333333326,422.34472595787946S384.4353252939039,425.6189996501783,380.25,427.07873567370046S370.5543099373145,431.0083195061182,366.16666666666663,432.16854970122415S356.6863647631518,433.8782105902909,352.08333333333326,434.5268838357832S342.50239724786854,435.2080045562621,338,436.1378823812069S328.4500207325402,439.48956719317295,323.91666666666663,440.34413124733584S314.4530724462238,440.8599972230322,309.8333333333333,441.4474656410099S300.4405810683116,443.7913250649074,295.75,443.9259411075938S286.34322449629855,444.53522321429284,281.66666666666663,444.24600394013004S272.1483854641899,438.66387935969715,267.5833333333333,437.8953205416093S258.05524222192037,440.30025022644156,253.5,439.503946363945S244.0131557623399,433.64250058475034,239.41666666666663,432.9714933623677S229.96958090928928,434.872667114584,225.33333333333331,435.3921043970907S215.9261835576943,435.83502089867653,211.25,436.1272387255969S201.82837056201052,436.7615834377198,197.16666666666663,437.15225816850966S187.76567713703187,438.2497178002578,183.08333333333331,438.4877500674345S173.65884220458983,438.55520816840414,169,438.9624737053853S159.39351869697254,440.61361472253276,154.91666666666666,441.6005944796785S145.52581021138124,445.26826582008795,140.83333333333331,445.1721785689995S131.37349837494062,441.59655869787315,126.75,441.02382923550954S117.34563319488169,441.4139608633721,112.66666666666666,441.6830717177871S103.26329655654523,442.38350588018886,98.58333333333331,442.64383563798737S89.18520089036676,443.0417779776591,84.5,443.24988349847706S75.11073164178904,443.8527273226722,70.41666666666666,443.8949322234987S61.02775912098226,443.51249195041265,56.33333333333333,443.50313337456095S46.9441218887212,443.42419789456284,42.25,443.46310953653307S32.84903066529989,445.06087353390456,28.166666666666664,445.2987076032762S18.763810057527973,445.20421749478385,14.083333333333332,444.9485309884538S2.328951618984629,443.9074224699929,0,443.7011426818652Z"></path><path opacity="0.85" id="path_6000" class="layer" fill="red" d="M0,442.0143027948288C2.3174540510764126,442.27695535776127,9.414525994879305,443.2644918969921,14.083333333333332,443.6104611276829S23.499184896122784,444.4635274110038,28.166666666666664,444.10877709188344S37.57158499275565,441.7360641151652,42.25,441.4622167862489S51.671809324112004,442.0683245530288,56.33333333333333,442.4600634956763S65.72388113640082,443.741017342548,70.41666666666666,443.82924958412303S79.81476143179908,443.19732587862836,84.5,442.98964408734594S93.91086795216324,442.9011732418319,98.58333333333331,442.5807104323515S107.97438594527404,441.15858365971417,112.66666666666666,441.05782257614266S122.1120557169547,441.0737739790145,126.75,441.58567690003787S136.14061167152596,446.08226450224913,140.83333333333331,446.1721785689995S150.80462506558123,443.6728944015886,154.91666666666666,442.1253593549797S164.45713034122693,436.4016813757896,169,435.57187146089257S178.39007211584268,436.9058583428625,183.08333333333331,436.98037809308875S192.47416779863133,436.1146517054845,197.16666666666663,436.0191026861405S206.55558318894322,436.12805836800953,211.25,436.11666878331397S220.65481786296468,436.1155026401714,225.33333333333331,435.8425118864071S234.7761784923866,432.79613937587277,239.41666666666663,433.2965226625904S248.80724100241028,438.96865498028734,253.5,438.8797201957965S263.01528097563073,432.00287648547084,267.5833333333333,432.7627223052501S277.3275630804077,442.32322193435436,281.66666666666663,443.56493880711446S291.0656716213069,445.14362660063307,295.75,444.9259411075938S305.2761076221836,442.3805346576476,309.8333333333333,441.58975229857396S319.42817120005674,440.9998412927188,323.91666666666663,440.038383517586S333.76001044666606,436.94443642175315,338,435.5563139520949S347.66631788056173,431.92393128328973,352.08333333333326,430.8169497372529S361.73770890930655,429.58160988748034,366.16666666666663,428.4972532476989S375.92812069625603,425.18973920268184,380.25,423.9208099017001S389.99583360142026,421.4716394592734,394.33333333333326,420.22735348132744S404.3527512769528,417.44147491222515,408.41666666666663,415.8407198625122S418.65602262031155,410.9407368964498,422.5,409.1326505713281S432.09917493560164,403.56306299357465,436.58333333333326,402.5920038077919S446.7467991673542,402.0132340584419,450.66666666666663,400.2707533575618S463.29375503829374,386.57246727282075,464.75,384.4009213530352S475.872503012978,360.5343456994881,478.83333333333326,358.2687470451807S488.2222222222222,362.84806111055246,492.91666666666663,362.84806111055246S502.30555555555554,362.84806111055246,507,362.84806111055246S516.799756088153,364.51850601037637,521.0833333333333,365.8451489109185S531.5802465698887,369.5779534242591,535.1666666666666,371.5714028939448S544.6207645838575,382.0505276424873,549.25,381.50110253997786S562.0978317850485,370.2956675450165,563.3333333333333,368.22841591455784S577.1822825833044,335.39482985051404,577.4166666666666,334.3723978677042S587.104702440568,246.50623869966492,591.5,245.35957415691192S600.9108185918305,244.412032486183,605.5833333333333,244.09192803405526S619.4764728188791,222.16991502034693,619.6666666666666,221.24434451931654S633.5992977823315,105.49041257179805,633.75,104.662915121597S645.7240636543205,64.24762317887924,647.8333333333333,66.58275288569939S659.6418337277299,138.1917665502915,661.9166666666666,135.84566085101892S675.9528013501523,37.86307818470663,676,37.53359676302392L676,131.7241398972618C675.909789560042,132.17536714141772,665.9407163337306,200.5256656400774,661.9166666666666,202.1681338682996S649.6304502017329,145.50258067873386,647.8333333333333,143.22073137166086S633.989521454892,165.37115229051287,633.75,166.4041332370408S619.9525397798864,263.5721073571253,619.6666666666666,264.6947346377971S610.1037005665646,282.36107115455235,605.5833333333333,283.24814100615356S593.6006582865281,275.61675162325304,591.5,277.9509877694278S577.7530754000794,353.0960385182744,577.4166666666666,354.3068569496322S565.0166368541616,377.07843457367323,563.3333333333333,379.3298039610535S553.896915856667,391.508993621321,549.25,391.9789525005732S539.0117697289476,383.9855515130087,535.1666666666666,382.17839763204597S525.7495171632199,379.10408359328505,521.0833333333333,378.7409455717667S511.69444444444446,378.3739120160634,507,378.3739120160634S497.6111111111111,378.3739120160634,492.91666666666663,378.3739120160634S482.6838434525683,369.4343319356059,478.83333333333326,371.23699043326667S466.641760016229,389.2578370093736,464.75,391.5604456038606S454.04070446928466,403.41012502716717,450.66666666666663,405.5208362637768S440.9880640723789,408.051136782239,436.58333333333326,409.18078755291674S426.7880112654123,411.4243983487331,422.5,412.7445460868015S412.73549246756414,416.57877565969363,408.41666666666663,417.8524441758503S398.68996705412354,419.83805754628935,394.33333333333326,421.0512012269456S384.5491986168907,424.3921556671857,380.25,425.6957047898316S370.6737549192158,428.6726156708418,366.16666666666663,429.59154488004873S356.60701221597793,430.5595618406533,352.08333333333326,431.43847512750045S342.303959898352,433.76770351687804,338,435.06409459495137S328.3817806118943,438.91060381348416,323.91666666666663,439.92252614751914S314.4348194247375,440.7934422709423,309.8333333333333,441.4474656410099S300.4405390119702,443.7905949462925,295.75,443.9259411075938S286.00045488289027,443.81514187540813,281.66666666666663,442.56493880711446S272.18499143344866,433.4074777637602,267.5833333333333,432.75404755864105S258.19416468196056,438.52906543806404,253.5,438.565304245594S244.03051209138735,433.58130597160863,239.41666666666663,432.9714933623677S229.96958090928928,434.3230746039004,225.33333333333331,434.8425118864071S215.9433349784717,436.05507851871454,211.25,436.1272387255969S201.85806555368475,436.1474064361468,197.16666666666663,436.2669385436336S187.77575385778786,438.3902970854359,183.08333333333331,438.4877500674345S173.68974910247545,438.16168106554113,169,438.3100723583617S159.34809194661364,440.52098817427606,154.91666666666666,441.6005944796785S145.52581021138124,445.26826582008795,140.83333333333331,445.1721785689995S131.37349837494062,441.59655869787315,126.75,441.02382923550954S117.34563319488169,441.4139608633721,112.66666666666666,441.6830717177871S103.26329655654523,442.38350588018886,98.58333333333331,442.64383563798737S89.18520089036676,443.0417779776591,84.5,443.24988349847706S75.11073164178904,443.8527273226722,70.41666666666666,443.8949322234987S61.02775912098226,443.51249195041265,56.33333333333333,443.50313337456095S46.9441218887212,443.42419789456284,42.25,443.46310953653307S32.84903066529989,445.06087353390456,28.166666666666664,445.2987076032762S18.763810057527973,445.20421749478385,14.083333333333332,444.9485309884538S2.328951618984629,443.9074224699929,0,443.7011426818652Z"></path><path opacity="0.85" id="path_3000" class="layer" fill="#330000" d="M0,442.0143027948288C2.3174540510764126,442.27695535776127,9.414525994879305,443.2644918969921,14.083333333333332,443.6104611276829S23.499184896122784,444.4635274110038,28.166666666666664,444.10877709188344S37.57158499275565,441.7360641151652,42.25,441.4622167862489S51.671809324112004,442.0683245530288,56.33333333333333,442.4600634956763S65.72388113640082,443.741017342548,70.41666666666666,443.82924958412303S79.81476143179908,443.19732587862836,84.5,442.98964408734594S93.91086795216324,442.9011732418319,98.58333333333331,442.5807104323515S107.98241745983535,441.2763564035076,112.66666666666666,441.05782257614266S122.08760302188435,440.2246844505616,126.75,440.6112307093297S136.1465152912878,444.3687388466798,140.83333333333331,444.55779852074926S150.65587775210383,443.10674127296943,154.91666666666666,441.7474345840804S164.38893270708311,436.1919179562341,169,435.57187146089257S178.39186491307328,436.33226759224095,183.08333333333331,436.21410700880045S192.47385521126026,434.62301176948245,197.16666666666663,434.53547143783766S206.55566956364348,435.6655480377187,211.25,435.688682246958S220.67426236419936,435.68494630108705,225.33333333333331,435.2789813618417S234.75653239443272,422.1427791702895,239.41666666666663,422.5426416584083S249.19879919203447,436.39527420146925,253.5,437.69582018179847S263.08423309545105,430.12186120770735,267.5833333333333,431.05934356285474S277.32684777467364,442.3243701181205,281.66666666666663,443.56493880711446S291.066504990566,445.1523955715096,295.75,444.9259411075938S305.26239912735815,441.97083013050496,309.8333333333333,441.21945993292775S319.38656027249243,440.9012096022261,323.91666666666663,440.038383517586S333.85888910094394,437.07005619422904,338,435.5563139520949S347.7342614027419,430.9679178035747,352.08333333333326,429.7423363474503S361.7170213700344,428.6625438684755,366.16666666666663,427.61886318134833S375.9542444894991,424.44443123167696,380.25,423.13574097612997S390.0054042854884,420.2974298555426,394.33333333333326,419.03796463910123S404.27634467047204,416.45367120825557,408.41666666666663,414.9389945559386S418.67515181072514,410.557351472101,422.5,408.7335988403043S431.9779972324548,402.1492534112894,436.58333333333326,401.50864910946666S446.38508246321294,401.2408712599294,450.66666666666663,399.91132401140453S463.53158709601166,383.87182964222,464.75,381.81385935974214S474.13910893406734,352.3683246724144,478.83333333333326,352.3361852659796S488.2222222222222,352.3683261981197,492.91666666666663,352.3683261981197S502.30555555555554,352.3683261981197,507,352.3683261981197S516.3961782925505,349.069437392722,521.0833333333333,348.8845953923076S530.7814764223123,348.98039205810494,535.1666666666666,350.1449256562723S544.6517985744593,363.19170428333496,549.25,363.85694468102736S560.8838444021976,361.6567310889009,563.3333333333333,359.31173776679066S577.1553779047551,304.2744008182389,577.4166666666666,303.1981416674532S591.127169284154,244.56142243799863,591.5,243.2920799546462S604.7918120134501,209.05930490824468,605.5833333333333,207.30167956052256S619.5055401716353,181.16182623724515,619.6666666666666,180.3071697962984S633.6369493102029,57.56953690357774,633.75,56.84986355809747S647.1350758597916,-0.6704392889603086,647.8333333333333,1.0000000000000568S660.0782310777345,121.9414806996879,661.9166666666666,124.23289692601588S675.9415474114087,36.47254743107175,676,36.106781782363726L676,36.53359676302392C675.9528013501523,36.86307818470663,664.1914996056033,132.49955515174634,661.9166666666666,134.84566085101892S649.942603012346,67.91788259251955,647.8333333333333,65.58275288569939S633.9007022176685,102.83541767139594,633.75,103.662915121597S619.8622757340172,219.3062544424705,619.6666666666666,220.24434451931654S610.2563908663444,242.77579156418668,605.5833333333333,243.09192803405526S595.8941476578893,243.2108581688136,591.5,244.35957415691192S577.6510507500288,332.34996588489435,577.4166666666666,333.3723978677042S564.568834881618,365.1611642840992,563.3333333333333,367.22841591455784S553.8792354161425,379.95167743746845,549.25,380.50110253997786S538.7530867634446,372.56485236363056,535.1666666666666,370.5714028939448S525.3669105785135,366.17179181146065,521.0833333333333,364.8451489109185S511.69444444444446,361.84806111055246,507,361.84806111055246S497.6111111111111,361.84806111055246,492.91666666666663,361.84806111055246S481.79416365368854,355.0031483908733,478.83333333333326,357.2687470451807S466.20624496170626,381.22937543324963,464.75,383.4009213530352S454.58653416597906,397.5282726566816,450.66666666666663,399.2707533575618S441.0674917310649,400.6209446220092,436.58333333333326,401.5920038077919S426.34397737968845,406.3245642462064,422.5,408.1326505713281S412.48058205638046,413.2399648127992,408.41666666666663,414.8407198625122S398.67083306524626,417.9830675033815,394.33333333333326,419.22735348132744S384.57187930374397,421.6518806007184,380.25,422.9208099017001S370.5956244240267,426.41289660791745,366.16666666666663,427.4972532476989S356.5003487861048,428.7099681912161,352.08333333333326,429.8169497372529S342.23998955333394,433.16819148243667,338,434.5563139520949S328.4051621332765,438.07692574245317,323.91666666666663,439.038383517586S314.39055904448304,439.7989699395003,309.8333333333333,440.58975229857396S300.4343283786931,443.70825561455456,295.75,443.9259411075938S286.0057702529256,443.80665567987455,281.66666666666663,442.56493880711446S272.1513856910359,432.5225681250294,267.5833333333333,431.7627223052501S258.19275899758975,437.79078541130565,253.5,437.8797201957965S244.05715484094665,432.79690594930804,239.41666666666663,432.2965226625904S230.0118834667265,434.56981731167355,225.33333333333331,434.8425118864071S215.94441612003385,435.1051376701988,211.25,435.11666878331397S201.859112540403,434.9222616572712,197.16666666666663,435.0191026861405S187.77659455082394,436.054897843315,183.08333333333331,435.98037809308875S173.54286965877307,433.7420615459955,169,434.57187146089257S159.02870826775208,439.5778243083708,154.91666666666666,441.1253593549797S145.52605499514067,445.2620926357499,140.83333333333331,445.1721785689995S131.3879442830453,441.09757982106123,126.75,440.58567690003787S117.35894738805928,439.95706149257114,112.66666666666666,440.05782257614266S103.25579871450338,441.26024762287113,98.58333333333331,441.5807104323515S89.18523856820092,441.7819622960635,84.5,441.98964408734594S75.1094521969325,442.9174818256981,70.41666666666666,442.82924958412303S60.99485734255465,441.85180243832383,56.33333333333333,441.4600634956763S46.92841500724435,440.1883694573326,42.25,440.4622167862489S32.834148437210544,442.7540267727631,28.166666666666664,443.10877709188344S18.75214067178736,442.9564303583737,14.083333333333332,442.6104611276829S2.3174540510764126,441.27695535776127,0,441.0143027948288Z"></path></g><g class="text_layers"><text class="label" style="font-weight: lighter; " font-size="18px" font-family="PT Sans Narrow" dy="6" opacity="1" pointer-events="none" text-anchor="middle" fill="#ffffff" x="661.9166666666666" y="405.9412137544854"><tspan x="661.9166666666666" dy="11px">Chem.</tspan><tspan x="661.9166666666666" dy="11px">&amp;</tspan><tspan x="661.9166666666666" dy="11px">Related...</tspan></text><text class="label" style="font-weight: lighter; " font-size="18px" font-family="PT Sans Narrow" dy="6" opacity="1" pointer-events="none" text-anchor="middle" fill="#333333" x="661.9166666666666" y="299.14244287328927"><tspan x="661.9166666666666" dy="11px">Machinery</tspan><tspan x="661.9166666666666" dy="11px">&amp;</tspan><tspan x="661.9166666666666" dy="11px">Transport</tspan><tspan x="661.9166666666666" dy="11px">Equip.</tspan></text><text class="label" style="font-weight: lighter; " font-size="18px" font-family="PT Sans Narrow" dy="6" opacity="1" pointer-events="none" text-anchor="middle" fill="#333333" x="605.5833333333333" y="290.689482171893"><tspan x="605.5833333333333" dy="11px">Food/Live</tspan><tspan x="605.5833333333333" dy="11px">Animals...</tspan></text><text class="label" style="font-weight: lighter; " font-size="18px" font-family="PT Sans Narrow" dy="6" opacity="1" pointer-events="none" text-anchor="middle" fill="#ffffff" x="647.8333333333333" y="74.90174212868013"><tspan x="647.8333333333333" dy="11px">Manuf.</tspan><tspan x="647.8333333333333" dy="11px">Goods</tspan><tspan x="647.8333333333333" dy="11px">classified</tspan><tspan x="647.8333333333333" dy="11px">chiefly</tspan><tspan x="647.8333333333333" dy="11px">by...</tspan></text></g></g></g></svg>