<svg width="748" height="520" style="z-index: 10; position: absolute; "><rect id="svgbg" fill="#ffffff" width="748" height="520"></rect><g class="titles"></g><clipPath id="clipping"><rect width="748" height="520"></rect></clipPath><g class="parent" width="748" height="520" clip-path="url(#clipping)" transform="translate(0,0)"><g class="axes_labels"><text class="x_axis_label" x="374" y="510" font-family="sans-serif" font-size="14px" font-weight="lighter" fill="#333" text-anchor="middle">Year</text><text class="y_axis_label" y="15" x="-242.5" transform="rotate(-90)" font-family="sans-serif" font-size="14px" font-weight="lighter" fill="#333" text-anchor="middle">Current</text></g><g class="chart" transform="translate(40,5)"><rect style="fill: #fafafa; " id="background" x="0" y="0" width="698" height="475" stroke-width="1" stroke="#ccc" shape-rendering="crispEdges"></rect><g transform="translate(0,475)" class="xaxis"><path class="domain" d="M0,0V0H698V0"></path></g><g class="yaxis"><path class="domain" d="M0,0H0V475H0"></path></g><clipPath id="path_clipping"><rect width="698" height="475" y="1" x="1"></rect></clipPath><g class="layers" clip-path="url(#path_clipping)"><path opacity="0.85" id="path_5000" class="layer" fill="#71144b" d="M0,448.24632126782274C2.5658914728682167,448.24632126782274,10.263565891472869,448.24632126782274,15.395348837209301,448.24632126782274S25.65891472868217,448.24632126782274,30.790697674418603,448.24632126782274S41.054263565891475,448.24632126782274,46.18604651162791,448.24632126782274S56.44961240310077,448.24632126782274,61.581395348837205,448.24632126782274S71.84496124031008,448.24632126782274,76.97674418604652,448.24632126782274S87.24031007751938,448.24632126782274,92.37209302325581,448.24632126782274S102.6356589147287,448.24632126782274,107.76744186046513,448.24632126782274S118.03100775193798,448.24632126782274,123.16279069767441,448.24632126782274S133.42635658914728,448.24632126782274,138.5581395348837,448.24632126782274S148.8217054263566,447.5856047677926,153.95348837209303,447.5856047677926S164.2174733857552,448.2926965677117,169.34883720930233,448.24632126782274S179.62007612911566,447.50561650053555,184.74418604651163,447.30733024126437S195.0078056590445,447.0714258581986,200.13953488372093,447.05482218590754S210.40326476997947,447.0504057765099,215.53488372093025,447.02139614448976S225.7985436459098,446.57719967207726,230.93023255813955,446.55523263532524S241.19384020869234,446.56699202605495,246.32558139534882,446.581630905469S256.58920564707034,446.83098438621136,261.72093023255815,446.84829012869324S271.9848178114675,446.76349733066263,277.1162790697674,446.80412646574877S287.3799455238479,447.393392314434,292.51162790697674,447.3706754624985S302.79219156952246,446.96267849107824,307.90697674418607,446.667822683122S318.17848501451743,445.79739253091697,323.30232558139534,445.59566131619573S333.56599387103466,445.36939787618286,338.69767441860466,445.39232111065843S348.9731554147434,445.987367789421,354.09302325581393,445.7403783945028S364.47460201900327,444.6761494333122,369.48837209302326,443.9069359359261S379.76917070950606,441.3133439122584,384.8837209302326,441.0164640754505S395.15513675483976,441.57629451427795,400.27906976744185,441.3757389570532S410.723700008919,440.2564422373404,415.6744186046512,439.3096589228538S425.95239505514985,435.75883568850776,431.0697674418605,435.48727686092997S441.3375054715262,435.94271381978547,446.4651162790698,435.7964500139816S456.7286821705427,433.59881209172244,461.8604651162791,433.59881209172244S472.1240310077519,433.59881209172244,477.2558139534883,433.59881209172244S487.6771121388464,432.5079894541256,492.65116279069764,431.62223078540285S502.92392829026704,428.3328148169444,508.046511627907,428.1157301349701S518.3136581055539,427.9949499302472,523.4418604651163,427.85944358181064S534.031324319747,427.021026067449,538.8372093023256,425.76953570512376S550.0398402266287,421.8255496586351,554.2325581395348,419.84130300447856S565.2744794499487,413.0383146178179,569.6279069767442,411.1975229657161S580.7911837624093,408.77316459453607,585.0232558139535,406.82184675015986S596.5792139074719,399.22814568993954,600.4186046511628,397.0005912780897S611.7943546561658,391.0719296490523,615.8139534883721,388.95756592349704S626.0924089252617,380.5282428558219,631.2093023255815,380.80426498659403S641.5080383151163,391.0418951975871,646.6046511627907,390.61851785568365S660.4409541763572,379.4993554586231,662,378.24647138398655L662,447.24632126782274C659.4341085271318,447.24632126782274,651.7364341085271,447.24632126782274,646.6046511627907,447.24632126782274S636.3410852713179,447.24632126782274,631.2093023255815,447.24632126782274S620.9457364341085,447.24632126782274,615.8139534883721,447.24632126782274S605.5503875968992,447.24632126782274,600.4186046511628,447.24632126782274S590.1550387596899,447.24632126782274,585.0232558139535,447.24632126782274S574.7596899224806,447.24632126782274,569.6279069767442,447.24632126782274S559.3643410852712,447.24632126782274,554.2325581395348,447.24632126782274S543.968992248062,447.24632126782274,538.8372093023256,447.24632126782274S528.5736434108527,447.24632126782274,523.4418604651163,447.24632126782274S513.1782945736435,447.24632126782274,508.046511627907,447.24632126782274S497.7829457364341,447.24632126782274,492.65116279069764,447.24632126782274S482.3875968992247,447.24632126782274,477.2558139534883,447.24632126782274S466.9922480620155,447.24632126782274,461.8604651162791,447.24632126782274S451.5968992248062,447.24632126782274,446.4651162790698,447.24632126782274S436.20155038759697,447.24632126782274,431.0697674418605,447.24632126782274S420.80620155038764,447.24632126782274,415.6744186046512,447.24632126782274S405.4108527131783,447.24632126782274,400.27906976744185,447.24632126782274S390.015503875969,447.24632126782274,384.8837209302326,447.24632126782274S374.6201550387597,447.24632126782274,369.48837209302326,447.24632126782274S359.22480620155034,447.24632126782274,354.09302325581393,447.24632126782274S343.8294573643411,447.24632126782274,338.69767441860466,447.24632126782274S328.4341085271318,447.24632126782274,323.30232558139534,447.24632126782274S313.0387596899225,447.24632126782274,307.90697674418607,447.24632126782274S297.6434108527132,447.24632126782274,292.51162790697674,447.24632126782274S282.2480620155038,447.24632126782274,277.1162790697674,447.24632126782274S266.8527131782946,447.24632126782274,261.72093023255815,447.24632126782274S251.45736434108525,447.24632126782274,246.32558139534882,447.24632126782274S236.06201550387598,447.24632126782274,230.93023255813955,447.24632126782274S220.66666666666669,447.24632126782274,215.53488372093025,447.24632126782274S205.27131782945736,447.24632126782274,200.13953488372093,447.24632126782274S189.87596899224806,447.24632126782274,184.74418604651163,447.24632126782274S174.48062015503876,447.24632126782274,169.34883720930233,447.24632126782274S159.08527131782947,447.24632126782274,153.95348837209303,447.24632126782274S143.68992248062014,447.24632126782274,138.5581395348837,447.24632126782274S128.29457364341084,447.24632126782274,123.16279069767441,447.24632126782274S112.89922480620156,447.24632126782274,107.76744186046513,447.24632126782274S97.50387596899225,447.24632126782274,92.37209302325581,447.24632126782274S82.10852713178295,447.24632126782274,76.97674418604652,447.24632126782274S66.71317829457364,447.24632126782274,61.581395348837205,447.24632126782274S51.31782945736434,447.24632126782274,46.18604651162791,447.24632126782274S35.922480620155035,447.24632126782274,30.790697674418603,447.24632126782274S20.527131782945734,447.24632126782274,15.395348837209301,447.24632126782274S2.5658914728682167,447.24632126782274,0,447.24632126782274Z"></path><path opacity="0.85" id="path_8000" class="layer" fill="#5493c9" d="M0,448.24632126782274C2.5658914728682167,448.24632126782274,10.263565891472869,448.24632126782274,15.395348837209301,448.24632126782274S25.65891472868217,448.24632126782274,30.790697674418603,448.24632126782274S41.054263565891475,448.24632126782274,46.18604651162791,448.24632126782274S56.44961240310077,448.24632126782274,61.581395348837205,448.24632126782274S71.84496124031008,448.24632126782274,76.97674418604652,448.24632126782274S87.24031007751938,448.24632126782274,92.37209302325581,448.24632126782274S102.6356589147287,448.24632126782274,107.76744186046513,448.24632126782274S118.03100775193798,448.24632126782274,123.16279069767441,448.24632126782274S133.42635658914728,448.24632126782274,138.5581395348837,448.24632126782274S148.8217054263566,446.94730615768424,153.95348837209303,446.94730615768424S164.22569239561355,448.4566885689887,169.34883720930233,448.24632126782274S179.69653279055646,446.3346316534675,184.74418604651163,445.6829741494465S195.01901557657172,444.51136645163757,200.13953488372093,444.27120883911056S210.40441379790386,444.09898243571746,215.53488372093025,444.0169067174923S225.7984502371605,443.70471233749294,230.93023255813955,443.7029217736611S241.1990600586703,443.84192645822066,246.32558139534882,444.00616333319323S256.5979192747933,444.4773662265313,261.72093023255815,444.68935441134306S271.98460508248166,445.25662420519086,277.1162790697674,445.2802703306018S287.38595281426154,445.2784882228989,292.51162790697674,445.1015507477818S302.90291243505385,442.9917532955538,307.90697674418607,442.1923083186841S318.29636903931413,440.9761063216518,323.30232558139534,440.1824555744434S333.6938437529204,438.11086896119576,338.69767441860466,437.3107117624723S349.052699692606,435.9377067841855,354.09302325581393,435.25874811030695S364.52558739120735,434.0788459902131,369.48837209302326,433.1630392968751S379.8459234470313,430.2648901957856,384.8837209302326,429.5767915643258S395.40871090456926,429.32498725608843,400.27906976744185,428.19661271767296S411.37802647124425,423.04714619840263,415.6744186046512,421.1526366274548S426.34273795954925,416.00255799529,431.0697674418605,414.6193437838685S441.5910829236,413.2635613281128,446.4651162790698,412.14272231187607S456.7286821705427,407.53867511099014,461.8604651162791,407.53867511099014S472.1240310077519,407.53867511099014,477.2558139534883,407.53867511099014S488.14665878164436,405.4831797271182,492.65116279069764,403.80223342069314S503.1027179074482,397.0125502742496,508.046511627907,396.04850673195415S518.3102894071702,397.7650494199765,523.4418604651163,397.798023913942S533.7089965708248,398.07269585111743,538.8372093023256,397.93738576983327S550.7166197867834,392.4255050054087,554.2325581395348,390.0419761139199S566.0256134033615,379.41098986247346,569.6279069767442,377.06372129313866S581.5456603680223,372.3770939644632,585.0232558139535,369.97863718644135S597.18656645633,358.30565030288074,600.4186046511628,355.8277383602658S612.138091348743,348.68567130132743,615.8139534883721,346.37228327303035S626.2394335669233,335.55269879557204,631.2093023255815,336.44974520459647S641.50918190688,352.3600691641066,646.6046511627907,351.92991187883086S660.9214838958397,335.11696168326756,662,333.85040797809637L662,377.24647138398655C660.4409541763572,378.4993554586231,651.701264010465,389.1951405137802,646.6046511627907,389.61851785568365S636.3261957259012,380.0802871173662,631.2093023255815,379.80426498659403S619.8335523205785,385.84320219794176,615.8139534883721,387.95756592349704S604.2579953948538,393.77303686623986,600.4186046511628,396.0005912780897S589.2553278654976,403.87052890578366,585.0232558139535,405.82184675015986S573.9813345035396,408.35673131361426,569.6279069767442,410.1975229657161S558.425276052441,416.857056350322,554.2325581395348,418.84130300447856S543.6430942849042,423.51804534279853,538.8372093023256,424.76953570512376S528.5700628246786,426.7239372333741,523.4418604651163,426.85944358181064S513.169094965547,426.89864545299577,508.046511627907,427.1157301349701S497.6252134425489,429.7364721166801,492.65116279069764,430.62223078540285S482.3875968992247,432.59881209172244,477.2558139534883,432.59881209172244S466.9922480620155,432.59881209172244,461.8604651162791,432.59881209172244S451.59272708661337,434.65018620817773,446.4651162790698,434.7964500139816S436.18713982857116,434.2157180333522,431.0697674418605,434.48727686092997S420.62513720038334,437.36287560836723,415.6744186046512,438.3096589228538S405.40300278004395,440.1751833998285,400.27906976744185,440.3757389570532S389.9982711509591,439.71958423864254,384.8837209302326,440.0164640754505S374.50214216704325,442.1377224385399,369.48837209302326,442.9069359359261S359.21289109688445,444.49338899958457,354.09302325581393,444.7403783945028S343.82935496617466,444.415244345134,338.69767441860466,444.39232111065843S328.42616614827324,444.3939301014745,323.30232558139534,444.59566131619573S313.0217619188497,445.37296687516573,307.90697674418607,445.667822683122S297.6433102901056,446.34795861056307,292.51162790697674,446.3706754624985S282.2477403280673,445.8447556008349,277.1162790697674,445.80412646574877S266.85265481804595,445.8655958711751,261.72093023255815,445.84829012869324S251.4573225820053,445.5962697848831,246.32558139534882,445.581630905469S236.0619214703693,445.5332655985732,230.93023255813955,445.55523263532524S220.66650267188103,445.99238651246964,215.53488372093025,446.02139614448976S205.27126410839736,446.03821851361647,200.13953488372093,446.05482218590754S189.8682959639076,446.1090439819932,184.74418604651163,446.30733024126437S174.48020103284946,447.1999459679338,169.34883720930233,447.24632126782274S159.08527131782947,446.5856047677926,153.95348837209303,446.5856047677926S143.68992248062014,447.24632126782274,138.5581395348837,447.24632126782274S128.29457364341084,447.24632126782274,123.16279069767441,447.24632126782274S112.89922480620156,447.24632126782274,107.76744186046513,447.24632126782274S97.50387596899225,447.24632126782274,92.37209302325581,447.24632126782274S82.10852713178295,447.24632126782274,76.97674418604652,447.24632126782274S66.71317829457364,447.24632126782274,61.581395348837205,447.24632126782274S51.31782945736434,447.24632126782274,46.18604651162791,447.24632126782274S35.922480620155035,447.24632126782274,30.790697674418603,447.24632126782274S20.527131782945734,447.24632126782274,15.395348837209301,447.24632126782274S2.5658914728682167,447.24632126782274,0,447.24632126782274Z"></path><path opacity="0.85" id="path_7000" class="layer" fill="#9edae5" d="M0,447.60564535648143C2.5655964431074763,447.57813304460535,10.264230466491519,447.49894781995687,15.395348837209301,447.4405525026196S25.658915052828007,447.2565178192741,30.790697674418603,447.2552280727964S41.0542682761773,447.2550617136544,46.18604651162791,447.2501451963633S56.45516492655476,446.6981055873507,61.581395348837205,446.52939425207563S71.84818189326228,446.365300460686,76.97674418604652,446.23678073734067S87.25503283032141,446.03226791321515,92.37209302325581,445.75779166234145S102.69626054204097,445.13955107151935,107.76744186046513,444.5851849106724S118.06960238866446,442.83520785610943,123.16279069767441,442.3918459807009S133.4840536773643,442.2265084144277,138.5581395348837,441.6854354255047S148.934395148409,438.0876433471973,153.95348837209303,438.8397073207608S164.36299728970906,447.15215543658115,169.34883720930233,446.2991322447916S180.64103491758206,435.62617017706214,184.74418604651163,433.5717525465926S195.11911975959083,431.63019448030855,200.13953488372093,430.8824560929471S210.4138435940188,429.22035128089624,215.53488372093025,428.98579978062634S225.79860286612328,429.44415130426785,230.93023255813955,429.4721948657522S241.2092413445368,430.0366129190362,246.32558139534882,429.75552378405916S256.9769778182581,423.09037193609623,261.72093023255815,421.73396138395987S272.14377026903804,420.8928570230567,277.1162790697674,420.00291764996643S287.8654686156891,417.1314900392966,292.51162790697674,415.62939654880194S303.9300533413714,412.1914291732364,307.90697674418607,410.04835009321874S319.83352088647234,401.4387271359421,323.30232558139534,399.03694722013455S335.09491804464574,391.0761167629972,338.69767441860466,388.7290525910104S350.09676193896433,381.10815336154405,354.09302325581393,378.977932443431S365.64576536369657,374.5416774306577,369.48837209302326,372.31596468987914S380.60104517135795,363.0503080172326,384.8837209302326,361.1433599933318S397.02937011429725,359.0916854107254,400.27906976744185,356.61858908766703S413.9760681441074,336.72934504539245,415.6744186046512,334.31456314168497S429.0280232993594,315.35094241471626,431.0697674418605,312.83915647108836S444.5035489808559,298.9290701234569,446.4651162790698,296.43535976688656S456.7286821705427,273.69541577626734,461.8604651162791,273.69541577626734S472.1240310077519,273.69541577626734,477.2558139534883,273.69541577626734S490.22763880760124,265.29304589761244,492.65116279069764,262.73110707156803S503.0554932030036,241.98435500920684,508.046511627907,241.14616749018117S520.5079466692409,255.02078083906312,523.4418604651163,257.5601426920306S533.7315904190519,267.4306492905426,538.8372093023256,267.796140373023S552.054534343055,262.3007335352297,554.2325581395348,259.7643270780248S568.2326710456299,234.22227045797172,569.6279069767442,231.93899109418405S584.0099933791025,211.41871220992135,585.0232558139535,209.37588521752986S599.1991029457839,172.04648159931844,600.4186046511628,169.86221200869142S614.034602845444,156.66852564992308,615.8139534883721,154.22615946661335S629.423738858287,125.15403180804422,631.2093023255815,127.59839005802621S643.146875719223,193.97137982884527,646.6046511627907,196.3772771735687S661.7547255677135,149.77679990151356,662,149.0223543917628L662,332.85040797809637C660.9214838958397,334.11696168326756,651.7001204187013,350.4997545935551,646.6046511627907,350.92991187883086S636.1791710842397,336.3467916136209,631.2093023255815,335.44974520459647S619.4898156280012,343.05889524473326,615.8139534883721,345.37228327303035S603.6506428459957,352.3498264176509,600.4186046511628,354.8277383602658S588.5008512598847,366.5801804084195,585.0232558139535,368.97863718644135S573.2302005501268,373.71645272380385,569.6279069767442,376.06372129313866S557.7484964922862,386.65844722243105,554.2325581395348,389.0419761139199S543.9654220338265,396.8020756885491,538.8372093023256,396.93738576983327S528.5734315230624,396.83099840790754,523.4418604651163,396.798023913942S512.9903053483658,394.0844631896587,508.046511627907,395.04850673195415S497.1556667997509,401.12128711426806,492.65116279069764,402.80223342069314S482.3875968992247,406.53867511099014,477.2558139534883,406.53867511099014S466.9922480620155,406.53867511099014,461.8604651162791,406.53867511099014S451.3391496345395,410.0218832956393,446.4651162790698,411.14272231187607S435.79679692417176,412.236129572447,431.0697674418605,413.6193437838685S419.9708107380581,418.25812705650696,415.6744186046512,420.1526366274548S405.14942863031445,426.0682381792575,400.27906976744185,427.19661271767296S389.9215184134339,427.888692932866,384.8837209302326,428.5767915643258S374.45115679483916,431.24723260353716,369.48837209302326,432.1630392968751S359.1333468190219,433.5797894364284,354.09302325581393,434.25874811030695S343.70150508428895,435.5105545637488,338.69767441860466,436.3107117624723S328.30828212347654,438.388804827235,323.30232558139534,439.1824555744434S312.9110410533183,440.39286334181446,307.90697674418607,441.1923083186841S297.63730299969194,443.9246132726647,292.51162790697674,444.1015507477818S282.24795305705317,444.30391645601276,277.1162790697674,444.2802703306018S266.843941190323,443.90134259615485,261.72093023255815,443.68935441134306S251.45210273202733,443.1704002081658,246.32558139534882,443.00616333319323S236.0620148791186,442.70113120982927,230.93023255813955,442.7029217736611S220.66535364395665,442.93483099926715,215.53488372093025,443.0169067174923S205.26005419087014,443.03105122658354,200.13953488372093,443.27120883911056S189.7918393024668,444.03131664542553,184.74418604651163,444.6829741494465S174.4719820229911,447.0359539666568,169.34883720930233,447.24632126782274S159.08527131782947,445.94730615768424,153.95348837209303,445.94730615768424S143.68992248062014,447.24632126782274,138.5581395348837,447.24632126782274S128.29457364341084,447.24632126782274,123.16279069767441,447.24632126782274S112.89922480620156,447.24632126782274,107.76744186046513,447.24632126782274S97.50387596899225,447.24632126782274,92.37209302325581,447.24632126782274S82.10852713178295,447.24632126782274,76.97674418604652,447.24632126782274S66.71317829457364,447.24632126782274,61.581395348837205,447.24632126782274S51.31782945736434,447.24632126782274,46.18604651162791,447.24632126782274S35.922480620155035,447.24632126782274,30.790697674418603,447.24632126782274S20.527131782945734,447.24632126782274,15.395348837209301,447.24632126782274S2.5658914728682167,447.24632126782274,0,447.24632126782274Z"></path><path opacity="0.85" id="path_9000" class="layer" fill="#9c9a87" d="M0,447.60564535648143C2.5655964431074763,447.57813304460535,10.264230466491519,447.49894781995687,15.395348837209301,447.4405525026196S25.658915052828007,447.2565178192741,30.790697674418603,447.2552280727964S41.0542682761773,447.2550617136544,46.18604651162791,447.2501451963633S56.45516492655476,446.6981055873507,61.581395348837205,446.52939425207563S71.84818189326228,446.365300460686,76.97674418604652,446.23678073734067S87.25503283032141,446.03226791321515,92.37209302325581,445.75779166234145S102.7243267815192,445.2538868293396,107.76744186046513,444.5851849106724S118.07636582308213,442.15536083946114,123.16279069767441,441.67503759274996S133.47335421415104,441.4723267598462,138.5581395348837,440.9834782825769S148.9702264913969,437.14792061463385,153.95348837209303,438.0082225162333S164.3214254192861,447.0235056145433,169.34883720930233,446.2991322447916S180.64103491758206,435.62617017706214,184.74418604651163,433.5717525465926S195.11911975959083,431.63019448030855,200.13953488372093,430.8824560929471S210.4138435940188,429.22035128089624,215.53488372093025,428.98579978062634S225.79860286612328,429.44415130426785,230.93023255813955,429.4721948657522S241.2092413445368,430.0366129190362,246.32558139534882,429.75552378405916S256.9182559111656,422.9911811495877,261.72093023255815,421.73396138395987S272.2066915072996,421.04737334080886,277.1162790697674,420.00291764996643S287.8654686156891,415.31035481596933,292.51162790697674,413.8082613254747S303.79979228883434,412.0997435203031,307.90697674418607,410.04835009321874S319.90343229418244,400.8563094992234,323.30232558139534,398.42939643365304S335.1478649196229,390.4326042748077,338.69767441860466,388.0628565311804S350.15387810438625,380.04191898603943,354.09302325581393,377.87443810149614S365.6697126293548,373.359818045874,369.48837209302326,371.12053882885704S380.9739366320119,362.0044401753784,384.8837209302326,359.81863343083216S397.46477128762695,356.4605087267316,400.27906976744185,353.9066698497784S413.942027680243,334.3043159357825,415.6744186046512,331.87757411056606S429.04391878800084,313.28332376346293,431.0697674418605,310.7749073697645S444.5540692001107,296.23329407221456,446.4651162790698,293.7523712861723S456.7286821705427,270.8023999942736,461.8604651162791,270.8023999942736S472.1240310077519,270.8023999942736,477.2558139534883,270.8023999942736S490.08750194194135,263.2482034834894,492.65116279069764,260.6823129802033S502.99837293115115,240.63472913339493,508.046511627907,239.98492318540744S520.5492157267969,254.17387496963974,523.4418604651163,256.71887621798027S533.7277278661755,266.73757330220457,538.8372093023256,267.0751368506358S552.1247947527496,261.2777596517069,554.2325581395348,258.7530977521093S568.2410304120993,232.47326284788613,569.6279069767442,230.19428875923904S584.0444352544572,210.1727099033071,585.0232558139535,208.15652415629208S599.3028654091501,168.88806229336188,600.4186046511628,166.77125867519538S614.1574024962836,152.13912812529568,615.8139534883721,149.73977426632587S629.3492959436103,119.70702600775898,631.2093023255815,122.17391175480668S641.5276765132184,190.0492986859055,646.6046511627907,190.57680255339045S661.8645084138783,125.94694842092302,662,125.37310285322616L662,148.0223543917628C661.7547255677135,148.77679990151356,650.0624266063584,197.78317451829213,646.6046511627907,195.3772771735687S632.9948657928759,129.04274830800819,631.2093023255815,126.59839005802621S617.5933041313002,150.78379328330362,615.8139534883721,153.22615946661335S601.6381063565417,166.6779424180644,600.4186046511628,168.86221200869142S586.0365182488044,206.33305822513836,585.0232558139535,208.37588521752986S571.0231429078584,228.65571173039638,569.6279069767442,230.93899109418405S556.4105819360146,256.2279206208199,554.2325581395348,258.7643270780248S543.9428281855993,267.16163145550337,538.8372093023256,266.796140373023S526.3757742609916,259.099504544998,523.4418604651163,256.5601426920306S513.0375300528104,239.3079799711555,508.046511627907,240.14616749018117S495.07468677379404,259.1691682455236,492.65116279069764,261.73110707156803S482.3875968992247,272.69541577626734,477.2558139534883,272.69541577626734S466.9922480620155,272.69541577626734,461.8604651162791,272.69541577626734S448.42668357728365,292.94164941031624,446.4651162790698,295.43535976688656S433.1115115843616,309.32737052746046,431.0697674418605,311.83915647108836S417.372769065195,330.8997812379775,415.6744186046512,333.31456314168497S403.52876942058646,353.14549276460866,400.27906976744185,355.61858908766703S389.1663966891072,358.23641196943095,384.8837209302326,360.1433599933318S373.33097882234995,369.09025194910055,369.48837209302326,371.31596468987914S358.08928457266353,375.8477115253179,354.09302325581393,377.977932443431S342.3004307925636,385.38198841902357,338.69767441860466,387.7290525910104S326.77113027631833,395.635167304327,323.30232558139534,398.03694722013455S311.88390014700076,406.9052710132011,307.90697674418607,409.04835009321874S297.1577871982644,413.1273030583073,292.51162790697674,414.62939654880194S282.0887878704968,418.11297827687616,277.1162790697674,419.00291764996643S266.4648826468582,419.3775508318235,261.72093023255815,420.73396138395987S251.44192144616085,428.4744346490821,246.32558139534882,428.75552378405916S236.06186225015583,428.5002384272366,230.93023255813955,428.4721948657522S220.6559238478417,427.75124828035644,215.53488372093025,427.98579978062634S205.15995000785102,429.1347177055857,200.13953488372093,429.8824560929471S188.8473371754412,430.5173349161231,184.74418604651163,432.5717525465926S174.3346771288956,444.4461090530021,169.34883720930233,445.2991322447916S158.97258159577706,438.5917712943243,153.95348837209303,437.8397073207608S143.63222539240311,440.1443624365817,138.5581395348837,440.6854354255047S128.25597900668436,440.9484841052924,123.16279069767441,441.3918459807009S112.83862317888928,443.03081874982547,107.76744186046513,443.5851849106724S97.48915321619022,444.48331541146774,92.37209302325581,444.75779166234145S82.10530647883076,445.10826101399533,76.97674418604652,445.23678073734067S66.70762577111965,445.36068291680056,61.581395348837205,445.52939425207563S51.31782474707852,446.24522867907217,46.18604651162791,446.2501451963633S35.9224802960092,446.2539383263187,30.790697674418603,446.2552280727964S20.526467207927084,446.3821571852823,15.395348837209301,446.4405525026196S2.5655964431074763,446.57813304460535,0,446.60564535648143Z"></path><path opacity="0.85" id="path_0000" class="layer" fill="#ffe999" d="M0,447.60564535648143C2.5655964431074763,447.57813304460535,10.264230466491519,447.49894781995687,15.395348837209301,447.4405525026196S25.658915052828007,447.2565178192741,30.790697674418603,447.2552280727964S41.0542682761773,447.2550617136544,46.18604651162791,447.2501451963633S56.45257795778884,446.65272222318634,61.581395348837205,446.52939425207563S71.85864218097498,446.5013945122056,76.97674418604652,446.23678073734067S87.3104748400152,444.94649912362,92.37209302325581,444.3505568129291S102.76639009807798,443.42013565596676,107.76744186046513,442.61156072753533S118.12552471712493,440.0622919107451,123.16279069767441,439.37228677067657S133.4953646231697,438.98492533796707,138.5581395348837,438.3938482335589S148.92793597520236,435.04682201087996,153.95348837209303,435.7774841690453S164.4469731943986,443.93210729077356,169.34883720930233,442.87048997111737S180.83131404266544,431.29291852032463,184.74418604651163,429.10901318819504S195.20453389730204,426.67062086205686,200.13953488372093,425.6851670765643S210.40310580500085,422.9554415641685,215.53488372093025,422.9605221008143S225.798554705438,425.69242741522584,230.93023255813955,425.7156503263164S241.19464468499336,425.85142062274684,246.32558139534882,425.78552691908834S256.63823315486206,418.1981885826787,261.72093023255815,417.6987002464337S272.015584920467,417.4528304112548,277.1162790697674,417.054616345594S287.8859692696068,412.29267853158626,292.51162790697674,410.7625941291501S304.20791809855075,409.1717237132097,307.90697674418607,406.86960920495846S320.42515655758837,394.1468992014262,323.30232558139534,391.59995881405564S335.12138969385774,381.9715116103568,338.69767441860466,379.612930569329S349.8823486167215,373.262698178645,354.09302325581393,371.2933106122571S365.7412653796526,367.4895532135989,369.48837209302326,365.2117188021145S381.0923166598804,354.83021732612656,384.8837209302326,352.57590647051217S397.4862830425407,349.4598818970747,400.27906976744185,346.90404199693563S414.1436670219929,326.74539202094684,415.6744186046512,324.39756654654843S429.32827705957493,302.10794882668847,431.0697674418605,299.67810070542987S444.36307445226316,283.95986734943114,446.4651162790698,281.43625039030553S456.7286821705427,262.7121726998399,461.8604651162791,262.7121726998399S472.1240310077519,262.7121726998399,477.2558139534883,262.7121726998399S490.1076506575202,254.99015961617533,492.65116279069764,252.42436573986865S503.0762376411059,232.5477012269863,508.046511627907,231.6517415307771S520.4723860554805,244.33996899661756,523.4418604651163,246.87392240259956S533.7171406430995,257.6815860521102,538.8372093023256,257.92649001538285S552.2393102806806,250.84788349233318,554.2325581395348,248.34670810026913S568.2911119305686,221.54194041240163,569.6279069767442,219.28958142138148S584.0945798390065,198.44330570346008,585.0232558139535,196.46762241307562S599.5115001316536,155.7424606149491,600.4186046511628,153.78485368456091S614.7189184530803,132.1212082987618,615.8139534883721,130.01873822987187S629.3942892585301,92.21307049607135,631.2093023255815,94.6666353862293S641.7772392475073,170.42995922019927,646.6046511627907,171.64211611560359S661.8791355095294,102.94175449232739,662,102.39813979383746L662,124.37310285322616C661.8645084138783,124.94694842092302,651.681625812363,190.1043064208754,646.6046511627907,189.57680255339045S633.0693087075526,123.64079750185438,631.2093023255815,121.17391175480668S617.4705044804607,146.34042040735605,615.8139534883721,148.73977426632587S601.5343438931756,163.65445505702888,600.4186046511628,165.77125867519538S586.0020763734498,205.14033840927706,585.0232558139535,207.15652415629208S571.014783541389,226.91531467059195,569.6279069767442,229.19428875923904S556.34032152632,255.2284358525117,554.2325581395348,257.7530977521093S543.9466907384757,266.412700399067,538.8372093023256,266.0751368506358S526.3345052034357,258.26387746632076,523.4418604651163,255.71887621798027S513.0946503246629,238.33511723741995,508.046511627907,238.98492318540744S495.2148236394539,257.11642247691714,492.65116279069764,259.6823129802033S482.3875968992247,269.8023999942736,477.2558139534883,269.8023999942736S466.9922480620155,269.8023999942736,461.8604651162791,269.8023999942736S448.37616335802886,290.2714485001301,446.4651162790698,292.7523712861723S433.0956160957202,307.26649097606605,431.0697674418605,309.7749073697645S417.4068095290594,328.45083228534963,415.6744186046512,330.87757411056606S403.09336824725676,350.3528309728252,400.27906976744185,352.9066698497784S388.7935052284533,356.6328266862859,384.8837209302326,358.81863343083216S373.3070315566917,367.88125961184005,369.48837209302326,370.12053882885704S358.0321684072416,374.70695721695284,354.09302325581393,376.87443810149614S342.2474839175864,384.69310878755306,338.69767441860466,387.0628565311804S326.70121886860824,395.00248336808266,323.30232558139534,397.42939643365304S312.0141611995378,406.9969566661344,307.90697674418607,409.04835009321874S297.1577871982644,411.30616783498004,292.51162790697674,412.8082613254747S282.02586663223525,417.958461959124,277.1162790697674,419.00291764996643S266.5236045539507,419.476741618332,261.72093023255815,420.73396138395987S251.44192144616085,428.4744346490821,246.32558139534882,428.75552378405916S236.06186225015583,428.5002384272366,230.93023255813955,428.4721948657522S220.6559238478417,427.75124828035644,215.53488372093025,427.98579978062634S205.15995000785102,429.1347177055857,200.13953488372093,429.8824560929471S188.8473371754412,430.5173349161231,184.74418604651163,432.5717525465926S174.37624899931856,444.57475887503995,169.34883720930233,445.2991322447916S158.93675025278918,437.8685244178327,153.95348837209303,437.0082225162333S143.64292485561637,439.4946298053076,138.5581395348837,439.9834782825769S128.24921557226668,440.1947143460388,123.16279069767441,440.67503759274996S112.81055693941106,442.91648299200523,107.76744186046513,443.5851849106724S97.48915321619022,444.48331541146774,92.37209302325581,444.75779166234145S82.10530647883076,445.10826101399533,76.97674418604652,445.23678073734067S66.70762577111965,445.36068291680056,61.581395348837205,445.52939425207563S51.31782474707852,446.24522867907217,46.18604651162791,446.2501451963633S35.9224802960092,446.2539383263187,30.790697674418603,446.2552280727964S20.526467207927084,446.3821571852823,15.395348837209301,446.4405525026196S2.5655964431074763,446.57813304460535,0,446.60564535648143Z"></path><path opacity="0.85" id="path_4000" class="layer" fill="#ffc41c" d="M0,447.60564535648143C2.5655964431074763,447.57813304460535,10.264230466491519,447.49894781995687,15.395348837209301,447.4405525026196S25.658915052828007,447.2565178192741,30.790697674418603,447.2552280727964S41.0542682761773,447.2550617136544,46.18604651162791,447.2501451963633S56.45257795778884,446.65272222318634,61.581395348837205,446.52939425207563S71.85864218097498,446.5013945122056,76.97674418604652,446.23678073734067S87.3104748400152,444.94649912362,92.37209302325581,444.3505568129291S102.76639009807798,443.42013565596676,107.76744186046513,442.61156072753533S118.12552471712493,440.0622919107451,123.16279069767441,439.37228677067657S133.4953646231697,438.98492533796707,138.5581395348837,438.3938482335589S148.92793597520236,435.04682201087996,153.95348837209303,435.7774841690453S164.4469731943986,443.93210729077356,169.34883720930233,442.87048997111737S180.83131404266544,431.29291852032463,184.74418604651163,429.10901318819504S195.20453389730204,426.67062086205686,200.13953488372093,425.6851670765643S210.40310580500085,422.9554415641685,215.53488372093025,422.9605221008143S225.798554705438,425.69242741522584,230.93023255813955,425.7156503263164S241.19464468499336,425.85142062274684,246.32558139534882,425.78552691908834S256.63823315486206,418.1981885826787,261.72093023255815,417.6987002464337S272.015584920467,417.4528304112548,277.1162790697674,417.054616345594S287.8859692696068,412.29267853158626,292.51162790697674,410.7625941291501S304.20791809855075,409.1717237132097,307.90697674418607,406.86960920495846S320.42515655758837,394.1468992014262,323.30232558139534,391.59995881405564S335.12138969385774,381.9715116103568,338.69767441860466,379.612930569329S349.8823486167215,373.262698178645,354.09302325581393,371.2933106122571S365.7412653796526,367.4895532135989,369.48837209302326,365.2117188021145S381.0923166598804,354.83021732612656,384.8837209302326,352.57590647051217S397.4862830425407,349.4598818970747,400.27906976744185,346.90404199693563S414.1436670219929,326.74539202094684,415.6744186046512,324.39756654654843S429.32827705957493,302.10794882668847,431.0697674418605,299.67810070542987S444.36307445226316,283.95986734943114,446.4651162790698,281.43625039030553S456.7286821705427,262.7121726998399,461.8604651162791,262.7121726998399S472.1240310077519,262.7121726998399,477.2558139534883,262.7121726998399S490.1076506575202,254.99015961617533,492.65116279069764,252.42436573986865S503.0762376411059,232.5477012269863,508.046511627907,231.6517415307771S520.4723860554805,244.33996899661756,523.4418604651163,246.87392240259956S533.7171406430995,257.6815860521102,538.8372093023256,257.92649001538285S552.2393102806806,250.84788349233318,554.2325581395348,248.34670810026913S568.2911119305686,221.54194041240163,569.6279069767442,219.28958142138148S584.0945798390065,198.44330570346008,585.0232558139535,196.46762241307562S599.5115001316536,155.7424606149491,600.4186046511628,153.78485368456091S614.7370250936245,132.10842433130708,615.8139534883721,130.01873822987187S629.3942892585301,91.58461176597832,631.2093023255815,94.03817665613627S641.7754376757822,170.4333264271773,646.6046511627907,171.64211611560359S661.8812786603221,102.28433728681603,662,101.74532771674143L662,101.39813979383746C661.8791355095294,101.94175449232739,651.4320630780741,171.8542730110079,646.6046511627907,170.64211611560359S633.0243153926328,96.12020027638725,631.2093023255815,93.6666353862293S616.908988523664,126.91626816098197,615.8139534883721,129.01873822987187S601.325709170672,150.82724675417273,600.4186046511628,152.78485368456091S585.9519317889004,193.49193912269115,585.0232558139535,195.46762241307562S570.9647020229197,216.03722243036134,569.6279069767442,218.28958142138148S556.2258059983891,244.84553270820507,554.2325581395348,247.34670810026913S543.9572779615518,257.1713939786555,538.8372093023256,256.92649001538285S526.4113348747521,248.40787580858157,523.4418604651163,245.87392240259956S513.0167856147082,229.75578183456787,508.046511627907,230.6517415307771S495.1946749238751,248.85857186356196,492.65116279069764,251.42436573986865S482.3875968992247,261.7121726998399,477.2558139534883,261.7121726998399S466.9922480620155,261.7121726998399,461.8604651162791,261.7121726998399S448.5671581058764,277.9126334311799,446.4651162790698,280.43625039030553S432.8112578241461,296.24825258417127,431.0697674418605,298.67810070542987S417.2051701873095,321.04974107215,415.6744186046512,323.39756654654843S403.071856492343,343.34820209679657,400.27906976744185,345.90404199693563S388.6751252005848,349.3215956148978,384.8837209302326,351.57590647051217S373.2354788063939,361.93388439063006,369.48837209302326,364.2117188021145S358.30369789490635,368.32392304586915,354.09302325581393,370.2933106122571S342.2739591433516,376.25434952830125,338.69767441860466,378.612930569329S326.1794946052023,388.05301842668507,323.30232558139534,390.59995881405564S311.6060353898214,403.56749469670723,307.90697674418607,405.86960920495846S297.1372865443467,408.23250972671394,292.51162790697674,409.7625941291501S282.2169732190678,415.6564022799332,277.1162790697674,416.054616345594S266.8036273102542,416.1992119101887,261.72093023255815,416.6987002464337S251.45651810570428,424.71963321542984,246.32558139534882,424.78552691908834S236.0619104108411,424.73887323740695,230.93023255813955,424.7156503263164S220.66666163685966,421.96560263746005,215.53488372093025,421.9605221008143S205.0745358701398,423.69971329107176,200.13953488372093,424.6851670765643S188.65705805035782,425.92510785606544,184.74418604651163,428.10901318819504S174.25070122420607,440.8088726514612,169.34883720930233,441.87048997111737S158.9790407689837,435.5081463272106,153.95348837209303,434.7774841690453S143.6209144465977,436.80277112915076,138.5581395348837,437.3938482335589S128.2000566782239,437.68228163060803,123.16279069767441,438.37228677067657S112.76849362285228,440.8029857991039,107.76744186046513,441.61156072753533S97.43371120649643,442.75461450223816,92.37209302325581,443.3505568129291S82.09484619111805,444.97216696247574,76.97674418604652,445.23678073734067S66.71021273988556,445.4060662809649,61.581395348837205,445.52939425207563S51.31782474707852,446.24522867907217,46.18604651162791,446.2501451963633S35.9224802960092,446.2539383263187,30.790697674418603,446.2552280727964S20.526467207927084,446.3821571852823,15.395348837209301,446.4405525026196S2.5655964431074763,446.57813304460535,0,446.60564535648143Z"></path><path opacity="0.85" id="path_1000" class="layer" fill="#6e451e" d="M0,447.60564535648143C2.5655964431074763,447.57813304460535,10.264230466491519,447.49894781995687,15.395348837209301,447.4405525026196S25.658915052828007,447.2565178192741,30.790697674418603,447.2552280727964S41.0542682761773,447.2550617136544,46.18604651162791,447.2501451963633S56.45257795778884,446.65272222318634,61.581395348837205,446.52939425207563S71.85864218097498,446.5013945122056,76.97674418604652,446.23678073734067S87.3104748400152,444.94649912362,92.37209302325581,444.3505568129291S102.76639009807798,443.42013565596676,107.76744186046513,442.61156072753533S118.12552471712493,440.0622919107451,123.16279069767441,439.37228677067657S133.4953646231697,438.98492533796707,138.5581395348837,438.3938482335589S148.92793597520236,435.04682201087996,153.95348837209303,435.7774841690453S164.4469731943986,443.93210729077356,169.34883720930233,442.87048997111737S180.83131404266544,431.29291852032463,184.74418604651163,429.10901318819504S195.20453389730204,426.67062086205686,200.13953488372093,425.6851670765643S210.40310580500085,422.9554415641685,215.53488372093025,422.9605221008143S225.798554705438,425.69242741522584,230.93023255813955,425.7156503263164S241.19464468499336,425.85142062274684,246.32558139534882,425.78552691908834S256.63823315486206,418.1981885826787,261.72093023255815,417.6987002464337S272.015584920467,417.4528304112548,277.1162790697674,417.054616345594S287.8859692696068,412.29267853158626,292.51162790697674,410.7625941291501S304.30157708039025,409.2155038683081,307.90697674418607,406.86960920495846S320.52514760314136,393.2854509208484,323.30232558139534,390.7282733628404S335.1643807904583,380.89460396926097,338.69767441860466,378.51806612598955S349.96589122928526,372.05431506022956,354.09302325581393,370.0180618873299S365.8223493539241,365.6445695644178,369.48837209302326,363.32648625107487S380.86507512485434,352.6636425234037,384.8837209302326,350.5486238710247S397.267768449091,347.99232918764346,400.27906976744185,345.46539248086094S414.1919348359066,324.39629207450986,415.6744186046512,322.0703456440899S429.34561814976587,299.58014967508524,431.0697674418605,297.15625422526807S444.35091429866526,281.3090621044945,446.4651162790698,278.78324032674857S456.7286821705427,260.37083095026105,461.8604651162791,260.37083095026105S472.1240310077519,260.37083095026105,477.2558139534883,260.37083095026105S490.1001168249182,252.78435473250866,492.65116279069764,250.2185062059083S503.06551396937454,230.26810669487375,508.046511627907,229.40146884519027S520.503006865964,242.32262835802922,523.4418604651163,244.8612693926963S533.731397302906,255.63494811258568,538.8372093023256,255.99909474423322S552.2050431201678,249.56603724394085,554.2325581395348,247.05726267358716S568.3016674528834,220.14635341459055,569.6279069767442,217.89978667935657S584.0973687782582,196.87311702765774,585.0232558139535,194.89974820845777S599.5028926994046,154.23958348901323,600.4186046511628,152.2747154021822S614.7164921923771,130.93547456348148,615.8139534883721,128.83130920254S629.4597273975905,90.8070556121032,631.2093023255815,93.23963168472608S641.7865755956313,170.41269923921055,646.6046511627907,171.64211611560359S661.8833538734589,101.63092516156672,662,101.09642073445895L662,100.74532771674143C661.8812786603221,101.28433728681603,651.4338646497991,171.85090580402988,646.6046511627907,170.64211611560359S633.0243153926328,95.49174154629422,631.2093023255815,93.03817665613627S616.8908818831197,126.92905212843667,615.8139534883721,129.01873822987187S601.325709170672,150.82724675417273,600.4186046511628,152.78485368456091S585.9519317889004,193.49193912269115,585.0232558139535,195.46762241307562S570.9647020229197,216.03722243036134,569.6279069767442,218.28958142138148S556.2258059983891,244.84553270820507,554.2325581395348,247.34670810026913S543.9572779615518,257.1713939786555,538.8372093023256,256.92649001538285S526.4113348747521,248.40787580858157,523.4418604651163,245.87392240259956S513.0167856147082,229.75578183456787,508.046511627907,230.6517415307771S495.1946749238751,248.85857186356196,492.65116279069764,251.42436573986865S482.3875968992247,261.7121726998399,477.2558139534883,261.7121726998399S466.9922480620155,261.7121726998399,461.8604651162791,261.7121726998399S448.5671581058764,277.9126334311799,446.4651162790698,280.43625039030553S432.8112578241461,296.24825258417127,431.0697674418605,298.67810070542987S417.2051701873095,321.04974107215,415.6744186046512,323.39756654654843S403.071856492343,343.34820209679657,400.27906976744185,345.90404199693563S388.6751252005848,349.3215956148978,384.8837209302326,351.57590647051217S373.2354788063939,361.93388439063006,369.48837209302326,364.2117188021145S358.30369789490635,368.32392304586915,354.09302325581393,370.2933106122571S342.2739591433516,376.25434952830125,338.69767441860466,378.612930569329S326.1794946052023,388.05301842668507,323.30232558139534,390.59995881405564S311.6060353898214,403.56749469670723,307.90697674418607,405.86960920495846S297.1372865443467,408.23250972671394,292.51162790697674,409.7625941291501S282.2169732190678,415.6564022799332,277.1162790697674,416.054616345594S266.8036273102542,416.1992119101887,261.72093023255815,416.6987002464337S251.45651810570428,424.71963321542984,246.32558139534882,424.78552691908834S236.0619104108411,424.73887323740695,230.93023255813955,424.7156503263164S220.66666163685966,421.96560263746005,215.53488372093025,421.9605221008143S205.0745358701398,423.69971329107176,200.13953488372093,424.6851670765643S188.65705805035782,425.92510785606544,184.74418604651163,428.10901318819504S174.25070122420607,440.8088726514612,169.34883720930233,441.87048997111737S158.9790407689837,435.5081463272106,153.95348837209303,434.7774841690453S143.6209144465977,436.80277112915076,138.5581395348837,437.3938482335589S128.2000566782239,437.68228163060803,123.16279069767441,438.37228677067657S112.76849362285228,440.8029857991039,107.76744186046513,441.61156072753533S97.43371120649643,442.75461450223816,92.37209302325581,443.3505568129291S82.09484619111805,444.97216696247574,76.97674418604652,445.23678073734067S66.71021273988556,445.4060662809649,61.581395348837205,445.52939425207563S51.31782474707852,446.24522867907217,46.18604651162791,446.2501451963633S35.9224802960092,446.2539383263187,30.790697674418603,446.2552280727964S20.526467207927084,446.3821571852823,15.395348837209301,446.4405525026196S2.5655964431074763,446.57813304460535,0,446.60564535648143Z"></path><path opacity="0.85" id="path_2000" class="layer" fill="#d66011" d="M0,447.60564535648143C2.5655964431074763,447.57813304460535,10.264230466491519,447.49894781995687,15.395348837209301,447.4405525026196S25.65891481914463,447.2559094197767,30.790697674418603,447.2552280727964S41.05426850986025,447.2551821944995,46.18604651162791,447.2501451963633S56.45674276499249,446.0387574718273,61.581395348837205,445.8476014426466S71.8614850151028,445.7894570010892,76.97674418604652,445.49872793383406S87.38589037396778,444.0309741077126,92.37209302325581,443.1789806453931S102.78416822272742,441.09778401513654,107.76744186046513,440.2375151504735S118.0949936409745,438.4329882585986,123.16279069767441,437.86354335333596S133.55793503538024,437.58882907721426,138.5581395348837,436.77770692926623S148.84595281533916,432.51682894052726,153.95348837209303,432.8687442732238S164.65394029000169,440.3314013323973,169.34883720930233,438.8992229707402S181.0639389218499,425.78732055942305,184.74418604651163,423.47604157759207S195.1549416138374,420.4185154388905,200.13953488372093,419.56196382476986S210.41709734818,417.91733304563564,215.53488372093025,418.1849736077594S225.8024712072158,421.02859614969674,230.93023255813955,421.1721989994231S241.21079009021858,421.7958501373249,246.32558139534882,421.50104732927775S256.6069099829452,414.64875143105496,261.72093023255815,414.3473566937697S271.99579067615093,414.97457272926107,277.1162790697674,414.7340865071168S288.04774630042016,410.68142620416893,292.51162790697674,408.95474369051465S304.77000518706666,405.32541116745523,307.90697674418607,402.8238783197977S320.85283828339226,386.96439442577895,323.30232558139534,384.40114470743083S335.2467078138959,373.01156767371714,338.69767441860466,370.6031571892824S349.70569657702623,364.71974290773403,354.09302325581393,362.9124872973748S365.6648850430756,360.15622803862243,369.48837209302326,357.9196564625158S380.91856350157235,347.0520646924016,384.8837209302326,344.90128487208074S397.34533126713916,342.1985889666825,400.27906976744185,339.65920171481537S414.36291757778235,318.000054333808,415.6744186046512,315.7616835737409S429.43539872121687,289.4987969442635,431.0697674418605,287.1079677130917S443.9705140259288,273.2845452863506,446.4651162790698,270.7196443335478S456.7286821705427,255.44957820304447,461.8604651162791,255.44957820304447S472.1240310077519,255.44957820304447,477.2558139534883,255.44957820304447S490.21378701738354,249.16751097745174,492.65116279069764,246.60483995574296S503.1813890986231,224.21506653069756,508.046511627907,223.07606012169398S520.5779443631719,236.8476984324193,523.4418604651163,239.3962235688466S533.7094727309918,250.61995274672887,538.8372093023256,250.47590851044933S552.517854858114,240.9518706421077,554.2325581395348,238.5312761462703S568.3838669934643,209.20882278282232,569.6279069767442,207.0096166328648S584.1600534348631,186.0192161111608,585.0232558139535,184.09967218083057S599.6525772445075,140.36762643164806,600.4186046511628,138.53888686744182S614.9708714271356,112.49445216511408,615.8139534883721,110.59294571449897S629.5933332434041,66.70926871687504,631.2093023255815,69.09284722453992S641.9497629059618,154.5197541766387,646.6046511627907,156.00968420423726S661.9015202433669,79.44123030725754,662,78.9482900417807L662,100.09642073445895C661.8833538734589,100.63092516156672,651.42272672995,171.87153299199662,646.6046511627907,170.64211611560359S632.9588772535724,94.67220775734896,631.2093023255815,92.23963168472608S616.9114147843671,125.72714384159855,615.8139534883721,127.83130920254001S601.334316602921,149.3098473153512,600.4186046511628,151.2747154021822S585.9491428496488,191.9263793892578,585.0232558139535,193.89974820845777S570.9541465006049,214.65321994412258,569.6279069767442,216.89978667935657S556.2600731589018,243.54848810323347,554.2325581395348,246.05726267358716S543.9430213017453,255.36324137588076,538.8372093023256,254.99909474423322S526.3807140642685,246.39991042736338,523.4418604651163,243.8612693926963S513.0275092864396,227.53483099550678,508.046511627907,228.40146884519027S495.2022087564771,246.65265767930796,492.65116279069764,249.2185062059083S482.3875968992247,259.37083095026105,477.2558139534883,259.37083095026105S466.9922480620155,259.37083095026105,461.8604651162791,259.37083095026105S448.5793182594743,275.25741854900264,446.4651162790698,277.78324032674857S432.79391673395514,293.7323587754509,431.0697674418605,296.15625422526807S417.1569023733958,318.74439921366996,415.6744186046512,321.0703456440899S403.2903710857927,341.9384557740784,400.27906976744185,344.46539248086094S388.9023667356108,347.43360521864565,384.8837209302326,349.5486238710247S373.1543948321224,360.00840293773194,369.48837209302326,362.32648625107487S358.2201552823426,366.98180871443026,354.09302325581393,369.0180618873299S342.230968046751,375.1415282827181,338.69767441860466,377.51806612598955S326.0795035596493,387.1710958048324,323.30232558139534,389.7282733628404S311.5123764079819,403.52371454160885,307.90697674418607,405.86960920495846S297.1372865443467,408.23250972671394,292.51162790697674,409.7625941291501S282.2169732190678,415.6564022799332,277.1162790697674,416.054616345594S266.8036273102542,416.1992119101887,261.72093023255815,416.6987002464337S251.45651810570428,424.71963321542984,246.32558139534882,424.78552691908834S236.0619104108411,424.73887323740695,230.93023255813955,424.7156503263164S220.66666163685966,421.96560263746005,215.53488372093025,421.9605221008143S205.0745358701398,423.69971329107176,200.13953488372093,424.6851670765643S188.65705805035782,425.92510785606544,184.74418604651163,428.10901318819504S174.25070122420607,440.8088726514612,169.34883720930233,441.87048997111737S158.9790407689837,435.5081463272106,153.95348837209303,434.7774841690453S143.6209144465977,436.80277112915076,138.5581395348837,437.3938482335589S128.2000566782239,437.68228163060803,123.16279069767441,438.37228677067657S112.76849362285228,440.8029857991039,107.76744186046513,441.61156072753533S97.43371120649643,442.75461450223816,92.37209302325581,443.3505568129291S82.09484619111805,444.97216696247574,76.97674418604652,445.23678073734067S66.71021273988556,445.4060662809649,61.581395348837205,445.52939425207563S51.31782474707852,446.24522867907217,46.18604651162791,446.2501451963633S35.9224802960092,446.2539383263187,30.790697674418603,446.2552280727964S20.526467207927084,446.3821571852823,15.395348837209301,446.4405525026196S2.5655964431074763,446.57813304460535,0,446.60564535648143Z"></path><path opacity="0.85" id="path_3000" class="layer" fill="#330000" d="M0,447.60564535648143C2.5655964431074763,447.57813304460535,10.264230466491519,447.49894781995687,15.395348837209301,447.4405525026196S25.65891481914463,447.2559094197767,30.790697674418603,447.2552280727964S41.05426850986025,447.2551821944995,46.18604651162791,447.2501451963633S56.45674276499249,446.0387574718273,61.581395348837205,445.8476014426466S71.8614850151028,445.7894570010892,76.97674418604652,445.49872793383406S87.38589037396778,444.0309741077126,92.37209302325581,443.1789806453931S102.78416822272742,441.09778401513654,107.76744186046513,440.2375151504735S118.0949936409745,438.4329882585986,123.16279069767441,437.86354335333596S133.55793503538024,437.58882907721426,138.5581395348837,436.77770692926623S148.84595281533916,432.51682894052726,153.95348837209303,432.8687442732238S164.65394029000169,440.3314013323973,169.34883720930233,438.8992229707402S181.13716702212477,425.821218004219,184.74418604651163,423.47604157759207S195.08580940689137,419.50810489803894,200.13953488372093,418.88002765814605S210.417933518595,417.9094769483461,215.53488372093025,418.1849736077594S225.80054109356053,421.06861978798827,230.93023255813955,421.1721989994231S241.21270900949528,421.8119931114107,246.32558139534882,421.50104732927775S256.5925734120562,411.31712022063806,261.72093023255815,411.18456686264886S271.98536603942375,411.39989821964315,277.1162790697674,411.33308908685314S287.98818605142134,407.7211509149038,292.51162790697674,406.0622972294393S304.758767154469,402.540348825593,307.90697674418607,400.0414081177475S320.89327045487744,384.18279211940074,323.30232558139534,381.62169832748265S335.3897748988101,369.76373067917905,338.69767441860466,367.3074686595984S349.84396373477136,360.69492433372244,354.09302325581393,358.7582404740947S365.6598545367604,355.50707571678623,369.48837209302326,353.27334018542416S380.76531563002703,342.83642731613384,384.8837209302326,340.79351276420954S397.1842184769828,338.42442937517256,400.27906976744185,335.9136524910365S414.3614086703251,314.6411769529963,415.6744186046512,312.40196126420744S429.4861198875989,285.7734383899929,431.0697674418605,283.40299625087664S443.93696963023257,268.8793106649654,446.4651162790698,266.3136968244203S456.7286821705427,252.15597972599986,461.8604651162791,252.15597972599986S472.1240310077519,252.15597972599986,477.2558139534883,252.15597972599986S490.2695276661474,246.42821812509663,492.65116279069764,243.868950915788S503.3088013534665,220.4351688017665,508.046511627907,219.0687859331404S520.6251250226136,232.43513610183504,523.4418604651163,234.9887367662765S533.7519300872743,247.4693641024427,538.8372093023256,246.98306742851247S552.7761944839835,234.3578747394106,554.2325581395348,232.04427428273323S568.5699197893952,200.14457753361359,569.6279069767442,198.06851787256076S584.2608110555708,173.44972705132898,585.0232558139535,171.62452048807398S599.7530842925978,126.08312996395561,600.4186046511628,124.35906828337107S615.2786619299989,93.42836137706465,615.8139534883721,91.85977505881783S629.3100563178159,31.65407439696787,631.2093023255815,34.131852206698966S641.978636219811,130.5000626507752,646.6046511627907,132.02966728545505S661.9233211408955,44.74976824189207,662,44.3128815480091L662,77.9482900417807C661.9015202433669,78.44123030725754,651.2595394196195,156.4996142318358,646.6046511627907,155.00968420423726S632.8252714077588,70.4764257322048,631.2093023255815,68.09284722453992S616.6570355496086,107.69143926388385,615.8139534883721,109.59294571449897S601.1846320578181,135.71014730323557,600.4186046511628,137.53888686744182S585.8864581930438,181.18012825050033,585.0232558139535,183.09967218083057S570.871946960024,203.8104104829073,569.6279069767442,206.0096166328648S555.9472614209557,235.1106816504329,554.2325581395348,237.5312761462703S543.9649458736594,249.3318642741698,538.8372093023256,249.47590851044933S526.3057765670607,240.94474870527392,523.4418604651163,238.3962235688466S512.911634157191,220.9370537126904,508.046511627907,222.07606012169398S495.08853856401174,243.04216893403418,492.65116279069764,245.60483995574296S482.3875968992247,254.44957820304447,477.2558139534883,254.44957820304447S466.9922480620155,254.44957820304447,461.8604651162791,254.44957820304447S448.95971853221073,267.15474338074506,446.4651162790698,269.7196443335478S432.70413616250414,283.71713848191985,431.0697674418605,286.1079677130917S416.98591963152,312.52331281367384,415.6744186046512,314.7616835737409S403.21280826774455,336.1198144629482,400.27906976744185,338.65920171481537S388.8488783588928,341.7505050517599,384.8837209302326,343.90128487208074S373.3118591429709,354.6830848864091,369.48837209302326,356.9196564625158S358.48034993460163,360.1052316870156,354.09302325581393,361.9124872973748S342.1486410233134,367.19474670484766,338.69767441860466,369.6031571892824S325.7518128793984,380.8378949890827,323.30232558139534,383.40114470743083S311.0439483013055,399.32234547214017,307.90697674418607,401.8238783197977S296.9755095135333,406.22806117686036,292.51162790697674,407.95474369051465S282.2367674633839,413.4936002849725,277.1162790697674,413.7340865071168S266.8349504821711,413.04596195648446,261.72093023255815,413.3473566937697S251.44037270047906,420.2062445212306,246.32558139534882,420.50104732927775S236.0579939090633,420.3158018491494,230.93023255813955,420.1721989994231S220.6526700936805,417.45261416988313,215.53488372093025,417.1849736077594S205.12412815360446,417.70541221064923,200.13953488372093,418.56196382476986S188.42443317117335,420.1647625957611,184.74418604651163,422.47604157759207S174.04373412860298,436.4670446090831,169.34883720930233,437.8992229707402S159.0610239288469,432.22065960592033,153.95348837209303,431.8687442732238S143.55834403438718,434.9665847813182,138.5581395348837,435.77770692926623S128.2305877543743,436.2940984480733,123.16279069767441,436.86354335333596S112.75071549820284,438.37724628581043,107.76744186046513,439.2375151504735S97.35829567254385,441.3269871830736,92.37209302325581,442.1789806453931S82.09200335699023,444.2079988665789,76.97674418604652,444.49872793383406S66.70604793268193,444.65644541346586,61.581395348837205,444.8476014426466S51.317824513395564,446.24510819822706,46.18604651162791,446.2501451963633S35.92248052969258,446.2545467258161,30.790697674418603,446.2552280727964S20.526467207927084,446.3821571852823,15.395348837209301,446.4405525026196S2.5655964431074763,446.57813304460535,0,446.60564535648143Z"></path><path opacity="0.85" id="path_6000" class="layer" fill="red" d="M0,447.60564535648143C2.5655964431074763,447.57813304460535,10.264230466491519,447.49894781995687,15.395348837209301,447.4405525026196S25.65891481914463,447.2559094197767,30.790697674418603,447.2552280727964S41.05426850986025,447.2551821944995,46.18604651162791,447.2501451963633S56.45674276499249,446.0387574718273,61.581395348837205,445.8476014426466S71.8614850151028,445.7894570010892,76.97674418604652,445.49872793383406S87.38589037396778,444.0309741077126,92.37209302325581,443.1789806453931S102.78416822272742,441.09778401513654,107.76744186046513,440.2375151504735S118.0949936409745,438.4329882585986,123.16279069767441,437.86354335333596S133.55793503538024,437.58882907721426,138.5581395348837,436.77770692926623S148.84595281533916,432.51682894052726,153.95348837209303,432.8687442732238S164.65394029000169,440.3314013323973,169.34883720930233,438.8992229707402S181.13716702212477,425.821218004219,184.74418604651163,423.47604157759207S195.08580940689137,419.50810489803894,200.13953488372093,418.88002765814605S210.417933518595,417.9094769483461,215.53488372093025,418.1849736077594S225.80054109356053,421.06861978798827,230.93023255813955,421.1721989994231S241.21270900949528,421.8119931114107,246.32558139534882,421.50104732927775S256.5925734120562,411.31712022063806,261.72093023255815,411.18456686264886S271.98536603942375,411.39989821964315,277.1162790697674,411.33308908685314S287.98818605142134,407.7211509149038,292.51162790697674,406.0622972294393S304.758767154469,402.540348825593,307.90697674418607,400.0414081177475S320.99641441031406,384.1743850088481,323.30232558139534,381.62169832748265S335.5281378024848,368.44940623039616,338.69767441860466,365.95553141566177S349.97314184248813,359.4365590889165,354.09302325581393,357.3947671515501S365.66571410462535,352.9328583156453,369.48837209302326,350.69582077103837S380.837765000124,341.47190331495784,384.8837209302326,339.37590516301407S397.5681804470624,336.4072650547527,400.27906976744185,333.8454737528011S414.4745717911066,310.8102583429955,415.6744186046512,308.638226796431S429.6276106688237,280.4131196030019,431.0697674418605,278.1063861171105S444.3111011849722,261.9210448695278,446.4651162790698,259.3884262841209S456.7286821705427,241.90371817779956,461.8604651162791,241.90371817779956S472.1240310077519,241.90371817779956,477.2558139534883,241.90371817779956S490.5397298596885,235.08290609096272,492.65116279069764,232.55758106549192S503.41914720904043,206.60508197212468,508.046511627907,205.077296534488S520.881694777733,219.8257407497579,523.4418604651163,222.3916258340745S533.7070572980539,236.02825165327303,538.8372093023256,235.93678046860822S552.8626100244104,224.11276048410681,554.2325581395348,221.84262424687205S568.7038980000137,186.88542939587214,569.6279069767442,184.91362288421487S584.3810158977706,157.83427697160084,585.0232558139535,156.13622993485535S599.8730211148404,105.08653080811578,600.4186046511628,103.504710688106S615.3892346506399,68.27813180079018,615.8139534883721,66.86420860730243S629.7070818785644,-1.3350381151712565,631.2093023255815,1S642.5725728071008,112.6192663802424,646.6046511627907,114.7249954879814S661.9377620011783,17.475003448261916,662,17.080260010105235L662,43.3128815480091C661.9233211408955,43.74976824189207,651.2306661057703,132.5592719201349,646.6046511627907,131.02966728545505S633.108548333347,35.60963001643006,631.2093023255815,33.131852206698966S616.3492450467454,89.29118874057102,615.8139534883721,90.85977505881783S601.0841250097278,121.63500660278653,600.4186046511628,123.35906828337107S585.7857005723362,168.799313924819,585.0232558139535,170.62452048807398S570.6858941640932,194.99245821150794,569.6279069767442,197.06851787256076S555.6889217950861,228.73067382605586,554.2325581395348,231.04427428273323S543.9224885173769,245.49677075458223,538.8372093023256,245.98306742851247S526.258595907619,236.54233743071796,523.4418604651163,233.9887367662765S512.7842219023476,216.70240306451427,508.046511627907,218.0687859331404S495.0327979152479,240.30968370647935,492.65116279069764,242.868950915788S482.3875968992247,251.15597972599986,477.2558139534883,251.15597972599986S466.9922480620155,251.15597972599986,461.8604651162791,251.15597972599986S448.993262927907,262.7480829838752,446.4651162790698,265.3136968244203S432.65341499612214,280.03255411176036,431.0697674418605,282.40299625087664S416.98742853897727,309.16274557541857,415.6744186046512,311.40196126420744S403.37392105790093,332.4028756069004,400.27906976744185,334.9136524910365S389.00212623043814,337.75059821228524,384.8837209302326,339.79351276420954S373.3168896492861,350.0396046540621,369.48837209302326,352.27334018542416S358.3420827768565,355.82155661446694,354.09302325581393,357.7582404740947S342.0055739383992,363.8512066400177,338.69767441860466,366.3074686595984S325.71138070791324,378.06060453556455,323.30232558139534,380.62169832748265S311.0551863339031,396.542467409902,307.90697674418607,399.0414081177475S297.03506976253215,403.40344354397484,292.51162790697674,405.0622972294393S282.2471921001111,410.2662799540631,277.1162790697674,410.33308908685314S266.8492870530601,410.05201350465967,261.72093023255815,410.18456686264886S251.43845378120236,420.1901015471448,246.32558139534882,420.50104732927775S236.05992402271858,420.2757782108579,230.93023255813955,420.1721989994231S220.6518339232655,417.4604702671727,215.53488372093025,417.1849736077594S205.19326036055048,417.25195041825316,200.13953488372093,417.88002765814605S188.3512050708985,420.1308651509651,184.74418604651163,422.47604157759207S174.04373412860298,436.4670446090831,169.34883720930233,437.8992229707402S159.0610239288469,432.22065960592033,153.95348837209303,431.8687442732238S143.55834403438718,434.9665847813182,138.5581395348837,435.77770692926623S128.2305877543743,436.2940984480733,123.16279069767441,436.86354335333596S112.75071549820284,438.37724628581043,107.76744186046513,439.2375151504735S97.35829567254385,441.3269871830736,92.37209302325581,442.1789806453931S82.09200335699023,444.2079988665789,76.97674418604652,444.49872793383406S66.70604793268193,444.65644541346586,61.581395348837205,444.8476014426466S51.317824513395564,446.24510819822706,46.18604651162791,446.2501451963633S35.92248052969258,446.2545467258161,30.790697674418603,446.2552280727964S20.526467207927084,446.3821571852823,15.395348837209301,446.4405525026196S2.5655964431074763,446.57813304460535,0,446.60564535648143Z"></path></g><g class="text_layers"><text class="label" style="font-weight: lighter; " font-size="18px" font-family="PT Sans Narrow" dy="6" opacity="1" pointer-events="none" text-anchor="middle" fill="#ffffff" x="646.6046511627907" y="399.9324195617532"><tspan x="646.6046511627907" dy="11px">Chem.</tspan><tspan x="646.6046511627907" dy="11px">&amp;</tspan><tspan x="646.6046511627907" dy="11px">Related...</tspan></text><text class="label" style="font-weight: lighter; " font-size="18px" font-family="PT Sans Narrow" dy="6" opacity="1" pointer-events="none" text-anchor="middle" fill="#333333" x="615.8139534883721" y="353.66492459826367"><tspan x="615.8139534883721" dy="11px">Misc.</tspan><tspan x="615.8139534883721" dy="11px">manufactured...</tspan></text><text class="label" style="font-weight: lighter; " font-size="18px" font-family="PT Sans Narrow" dy="6" opacity="1" pointer-events="none" text-anchor="middle" fill="#333333" x="615.8139534883721" y="225.29922136982188"><tspan x="615.8139534883721" dy="11px">Machinery</tspan><tspan x="615.8139534883721" dy="11px">&amp;</tspan><tspan x="615.8139534883721" dy="11px">Transport</tspan><tspan x="615.8139534883721" dy="11px">Equip.</tspan></text></g></g></g></svg>