<svg width="748" height="520" style="z-index: 10; position: absolute; "><rect id="svgbg" fill="#ffffff" width="748" height="520"></rect><g class="titles"></g><clipPath id="clipping"><rect width="748" height="520"></rect></clipPath><g class="parent" width="748" height="520" clip-path="url(#clipping)" transform="translate(0,0)"><g class="axes_labels"><text class="x_axis_label" x="374" y="510" font-family="sans-serif" font-size="14px" font-weight="lighter" fill="#333" text-anchor="middle">Year</text><text class="y_axis_label" y="15" x="-242.5" transform="rotate(-90)" font-family="sans-serif" font-size="14px" font-weight="lighter" fill="#333" text-anchor="middle">Current</text></g><g class="chart" transform="translate(40,5)"><rect style="fill: #fafafa; " id="background" x="0" y="0" width="698" height="475" stroke-width="1" stroke="#ccc" shape-rendering="crispEdges"></rect><g transform="translate(0,475)" class="xaxis"><path class="domain" d="M0,0V0H698V0"></path></g><g class="yaxis"><path class="domain" d="M0,0H0V475H0"></path></g><clipPath id="path_clipping"><rect width="698" height="475" y="1" x="1"></rect></clipPath><g class="layers" clip-path="url(#path_clipping)"><path opacity="0.85" id="path_5000" class="layer" fill="#71144b" d="M0,448.24632126782274C2.298611111111111,448.24632126782274,9.194444444444443,448.24632126782274,13.791666666666666,448.24632126782274S22.98611111111111,448.24632126782274,27.583333333333332,448.24632126782274S36.77777777777778,448.24632126782274,41.375,448.24632126782274S50.56944444444444,448.24632126782274,55.166666666666664,448.24632126782274S64.3611111111111,448.24632126782274,68.95833333333333,448.24632126782274S78.15277777777777,448.24632126782274,82.75,448.24632126782274S91.94444444444443,448.24632126782274,96.54166666666666,448.24632126782274S105.73647445858984,447.5900749738137,110.33333333333333,447.5492061949942S119.5277779264256,447.509152486979,124.125,447.50832582681477S133.3195101902276,447.55166496347573,137.91666666666666,447.5342798073692S147.1141830341939,447.5228110260944,151.70833333333331,447.40401339838303S160.92354499270138,447.1293033763592,165.5,446.8210174299965S174.72421500501014,445.9146526986331,179.29166666666666,445.54590400870427S188.49988050006922,444.8453240242058,193.08333333333331,444.5941043099465S202.27777812802827,444.03532643829953,206.875,444.03405750991874S216.06945815187672,444.03395670730555,220.66666666666666,444.02601845029267S230.20503589350827,441.68964184291747,234.45833333333331,440.48017320071864S243.71736175139185,436.7234660482921,248.25,436.1824154138315S257.46218659447146,436.90257040401826,262.04166666666663,437.1876139489141S271.2905305012757,437.40209393124826,275.8333333333333,437.8993027000354S285.1179911434809,439.56895768995776,289.625,440.20660370319735S298.8299351029363,441.58240065160663,303.41666666666663,441.8017584288317S312.6152857390737,441.4033885674735,317.2083333333333,441.5418597374716S326.4330928908723,443.0155730288265,331,442.64348929429195S340.76092390424895,440.8056081321041,344.79166666666663,439.2945379872514S354.12115251950735,433.0791359120189,358.5833333333333,432.30287617351775S367.83919886011626,433.96820545849164,372.375,434.4960253286025S381.65873592011656,436.14712437591544,386.16666666666663,435.51267990349305S395.4137204247996,431.1029246468922,399.9583333333333,430.61395740249037S409.19041779854035,432.1306403787627,413.75,432.5449141635132S423.0474497930506,434.03700433500734,427.54166666666663,433.3566159343284S437.4101050106319,429.60106557229625,441.3333333333333,427.9749561184377S450.88568452263416,423.15558622255224,455.125,421.923807182739S464.37490578984904,420.4622083882427,468.91666666666663,419.9603197863254S478.1111111111111,418.87570293895374,482.7083333333333,418.87570293895374S491.90277777777777,418.87570293895374,496.5,418.87570293895374S505.69818943873486,419.30587481220556,510.29166666666663,419.1747163355761S519.5082239849404,417.7700400324864,524.0833333333333,418.08811048973814S533.2933970112362,420.82485394265893,537.875,421.0923630578216S547.1275670776855,421.02061780400646,551.6666666666666,420.50697938969626S561.5983839569702,418.0914166294152,565.4583333333333,416.4044560899883S575.2194734285528,409.9632182626259,579.25,408.4519003349971S589.0411153468613,407.52229197315773,593.0416666666666,405.97729599706156S604.4724842978704,400.0102814579011,606.8333333333333,397.71251308817887S618.9081872788566,381.35473847388477,620.625,379.13097507065265S629.9245086974161,362.6712061086617,634.4166666666666,361.98420885883456S643.6591713947894,375.38016825808893,648.2083333333333,374.91258509621775S661.0033724162854,360.2881900489382,662,359.1490707852325L662,447.24632126782274C659.7013888888889,447.24632126782274,652.8055555555554,447.24632126782274,648.2083333333333,447.24632126782274S639.0138888888888,447.24632126782274,634.4166666666666,447.24632126782274S625.2222222222222,447.24632126782274,620.625,447.24632126782274S611.4305555555554,447.24632126782274,606.8333333333333,447.24632126782274S597.6388888888888,447.24632126782274,593.0416666666666,447.24632126782274S583.8472222222222,447.24632126782274,579.25,447.24632126782274S570.0555555555554,447.24632126782274,565.4583333333333,447.24632126782274S556.2638888888888,447.24632126782274,551.6666666666666,447.24632126782274S542.4722222222222,447.24632126782274,537.875,447.24632126782274S528.6805555555554,447.24632126782274,524.0833333333333,447.24632126782274S514.8888888888888,447.24632126782274,510.29166666666663,447.24632126782274S501.09722222222223,447.24632126782274,496.5,447.24632126782274S487.30555555555554,447.24632126782274,482.7083333333333,447.24632126782274S473.51388888888886,447.24632126782274,468.91666666666663,447.24632126782274S459.72222222222223,447.24632126782274,455.125,447.24632126782274S445.93055555555554,447.24632126782274,441.3333333333333,447.24632126782274S432.13888888888886,447.24632126782274,427.54166666666663,447.24632126782274S418.34722222222223,447.24632126782274,413.75,447.24632126782274S404.55555555555554,447.24632126782274,399.9583333333333,447.24632126782274S390.76388888888886,447.24632126782274,386.16666666666663,447.24632126782274S376.97222222222223,447.24632126782274,372.375,447.24632126782274S363.18055555555554,447.24632126782274,358.5833333333333,447.24632126782274S349.38888888888886,447.24632126782274,344.79166666666663,447.24632126782274S335.59722222222223,447.24632126782274,331,447.24632126782274S321.80555555555554,447.24632126782274,317.2083333333333,447.24632126782274S308.01388888888886,447.24632126782274,303.41666666666663,447.24632126782274S294.22222222222223,447.24632126782274,289.625,447.24632126782274S280.43055555555554,447.24632126782274,275.8333333333333,447.24632126782274S266.63888888888886,447.24632126782274,262.04166666666663,447.24632126782274S252.84722222222223,447.24632126782274,248.25,447.24632126782274S239.05555555555554,447.24632126782274,234.45833333333331,447.24632126782274S225.26388888888889,447.24632126782274,220.66666666666666,447.24632126782274S211.47222222222223,447.24632126782274,206.875,447.24632126782274S197.68055555555554,447.24632126782274,193.08333333333331,447.24632126782274S183.88888888888889,447.24632126782274,179.29166666666666,447.24632126782274S170.09722222222223,447.24632126782274,165.5,447.24632126782274S156.30555555555554,447.24632126782274,151.70833333333331,447.24632126782274S142.51388888888889,447.24632126782274,137.91666666666666,447.24632126782274S128.72222222222223,447.24632126782274,124.125,447.24632126782274S114.93055555555556,447.24632126782274,110.33333333333333,447.24632126782274S101.13888888888889,447.24632126782274,96.54166666666666,447.24632126782274S87.34722222222223,447.24632126782274,82.75,447.24632126782274S73.55555555555556,447.24632126782274,68.95833333333333,447.24632126782274S59.763888888888886,447.24632126782274,55.166666666666664,447.24632126782274S45.97222222222222,447.24632126782274,41.375,447.24632126782274S32.18055555555556,447.24632126782274,27.583333333333332,447.24632126782274S18.38888888888889,447.24632126782274,13.791666666666666,447.24632126782274S2.298611111111111,447.24632126782274,0,447.24632126782274Z"></path><path opacity="0.85" id="path_8000" class="layer" fill="#5493c9" d="M0,448.24632126782274C2.298611111111111,448.24632126782274,9.194444444444443,448.24632126782274,13.791666666666666,448.24632126782274S22.98611111111111,448.24632126782274,27.583333333333332,448.24632126782274S36.77777777777778,448.24632126782274,41.375,448.24632126782274S50.56944444444444,448.24632126782274,55.166666666666664,448.24632126782274S64.3611111111111,448.24632126782274,68.95833333333333,448.24632126782274S78.15277777777777,448.24632126782274,82.75,448.24632126782274S91.94444444444443,448.24632126782274,96.54166666666666,448.24632126782274S105.73939961672183,447.01883872166417,110.33333333333333,446.8959274658641S119.527803284364,447.4974972168202,124.125,447.50832582681477S133.3195654597748,447.5578662382401,137.91666666666666,447.5342798073692S147.167210346437,446.6225953880833,151.70833333333331,446.1178642447151S160.99464477657907,445.1118269787111,165.5,444.4684814549764S174.76326655360927,442.73734164517765,179.29166666666666,442.17908180699936S188.51279106490105,441.4172179511328,193.08333333333331,441.06801620927456S202.27804106087558,440.10643022283716,206.875,440.0716408337951S216.1079701813773,440.9147699751926,220.66666666666666,440.49569105476223S230.80355569097065,434.97536455017575,234.45833333333331,433.119448232117S243.6533187963352,426.53859042471163,248.25,426.48872169870236S257.444468666197,426.52914805154523,262.04166666666663,426.5397004063783S271.36378957677624,427.1254339095779,275.8333333333333,427.8808572935557S285.4154520535633,429.9242472489965,289.625,431.2017187561227S298.90805526700484,435.6195019763216,303.41666666666663,436.2515714066293S312.61906983399444,436.7327824035857,317.2083333333333,436.9238967055882S326.47191132871444,438.51084142945825,331,437.95133910703055S341.24314550183186,435.44470580601785,344.79166666666663,433.5156288511703S354.8003600118811,424.7113283638959,358.5833333333333,422.9562551834744S367.83083601612486,421.20963804532806,372.375,420.7186132641359S381.81768526615554,420.55219124403357,386.16666666666663,419.5131557699186S395.5039490270151,413.9034945792271,399.9583333333333,413.1058386565699S409.15281615623,412.29495284705143,413.75,412.28167004611623S422.9938864698533,413.2353793457147,427.54166666666663,412.7611942931827S438.05639977911807,405.8665856188426,441.3333333333333,403.78656200420687S451.64566580689365,397.22494035361603,455.125,395.2527572881358S464.34633309734363,388.5021209405005,468.91666666666663,388.1515640792365S478.1111111111111,388.50466578296,482.7083333333333,388.50466578296S491.90277777777777,388.50466578296,496.5,388.50466578296S505.71709628742764,388.47904875089915,510.29166666666663,388.15714433970516S519.7056603293983,385.5833109276256,524.0833333333333,386.56367549549356S533.9970328008656,392.6642314222093,537.875,394.3343354271584S547.0810267633278,398.21238533575433,551.6666666666666,398.44284649006204S561.4025646687882,397.2024891024378,565.4583333333333,395.72059491845124S575.5004082051172,390.1472354218059,579.25,388.3644656398529S589.9994696493185,384.78092079029915,593.0416666666666,382.6059051489372S604.8102457476793,370.92582825186076,606.8333333333333,368.6437897274175S618.9780146364615,353.69627665172527,620.625,351.4919633969396S630.0159998756673,332.6564969261928,634.4166666666666,331.72645662665036S643.6437821158211,346.0486521056333,648.2083333333333,345.6624805448904S661.0388915395458,330.5266353671288,662,329.3928430080849L662,358.1490707852325C661.0033724162854,359.2881900489382,652.7574952718771,373.4450019343466,648.2083333333333,373.91258509621775S638.9088246359172,360.29721160900743,634.4166666666666,360.98420885883456S622.3418127211434,375.90721166742054,620.625,378.13097507065265S609.1941823687961,394.41474471845663,606.8333333333333,396.71251308817887S597.042217986472,403.4323000209654,593.0416666666666,404.97729599706156S583.2805265714472,405.9405824073683,579.25,407.4519003349971S569.3182827096963,413.71749555056135,565.4583333333333,415.4044560899883S556.2057662556477,418.99334097538605,551.6666666666666,419.50697938969626S542.4566029887638,420.3598721729843,537.875,420.0923630578216S528.6584426817261,417.4061809469899,524.0833333333333,417.08811048973814S514.8851438945984,418.0435578589466,510.29166666666663,418.1747163355761S501.09722222222223,417.87570293895374,496.5,417.87570293895374S487.30555555555554,417.87570293895374,482.7083333333333,417.87570293895374S473.4584275434842,418.4584311844081,468.91666666666663,418.9603197863254S459.36431547736584,419.6920281429257,455.125,420.923807182739S445.2565616560347,425.3488466645792,441.3333333333333,426.9749561184377S432.03588354028267,431.6762275336494,427.54166666666663,432.3566159343284S418.30958220145965,431.9591879482638,413.75,431.5449141635132S404.50294624186705,429.12499015808856,399.9583333333333,429.61395740249037S390.6745974132167,433.87823543107066,386.16666666666663,434.51267990349305S376.91080113988374,434.0238451987134,372.375,433.4960253286025S363.0455141471593,430.5266164350166,358.5833333333333,431.30287617351775S348.8224094290843,436.78346784239864,344.79166666666663,438.2945379872514S335.5669071091277,441.2714055597574,331,441.64348929429195S321.8013809275929,440.68033090746974,317.2083333333333,440.5418597374716S308.00339823039695,441.0211162060568,303.41666666666663,440.8017584288317S294.1320088565191,439.84424971643693,289.625,439.20660370319735S280.3761361653909,437.3965114688225,275.8333333333333,436.8993027000354S266.6211467388618,436.4726574938099,262.04166666666663,436.1876139489141S252.78263824860815,434.6413647793709,248.25,435.1824154138315S238.71163077315836,438.2707045585198,234.45833333333331,439.48017320071864S225.2638751814566,443.0180801932798,220.66666666666666,443.02601845029267S211.47222187197173,443.03278858153794,206.875,443.03405750991874S197.6667861665974,443.34288459568717,193.08333333333331,443.5941043099465S183.85911832832318,444.1771553187754,179.29166666666666,444.54590400870427S170.07645500729862,445.51273148363384,165.5,445.8210174299965S156.30248363247273,446.28521577067164,151.70833333333331,446.40401339838303S142.51382314310572,446.5168946512627,137.91666666666666,446.5342798073692S128.72222207357441,446.5074991666505,124.125,446.50832582681477S114.93019220807682,446.5083374161747,110.33333333333333,446.5492061949942S101.13888888888889,447.24632126782274,96.54166666666666,447.24632126782274S87.34722222222223,447.24632126782274,82.75,447.24632126782274S73.55555555555556,447.24632126782274,68.95833333333333,447.24632126782274S59.763888888888886,447.24632126782274,55.166666666666664,447.24632126782274S45.97222222222222,447.24632126782274,41.375,447.24632126782274S32.18055555555556,447.24632126782274,27.583333333333332,447.24632126782274S18.38888888888889,447.24632126782274,13.791666666666666,447.24632126782274S2.298611111111111,447.24632126782274,0,447.24632126782274Z"></path><path opacity="0.85" id="path_7000" class="layer" fill="#9edae5" d="M0,446.36419915549106C2.2984445045443724,446.34463040622745,9.195197139957072,446.30559772052925,13.791666666666666,446.2467781490697S22.988938480258437,445.89725003303676,27.583333333333332,446.0112239346907S36.77783472182321,446.91486273950204,41.375,446.93104239303597S50.56944444446995,446.9148733591919,55.166666666666664,446.91486253070724S64.36114430963796,446.94247657844636,68.95833333333333,446.9301226356235S78.1579317698888,446.929455284373,82.75,446.77561288634405S92.00088727201205,446.29491150623113,96.54166666666666,445.7886562066094S105.79005018606088,444.1953597871533,110.33333333333333,443.70032393976567S119.54393815100411,442.51109031970685,124.125,442.78317793289915S133.3258560588976,445.51017347352854,137.91666666666666,445.3386085947084S148.08284530138843,443.62931947568495,151.70833333333331,441.75235099510724S162.06275190888172,433.0550883315948,165.5,431.05831121136237S175.01399717338546,426.89771555357834,179.29166666666666,425.7285530498665S188.64204256151802,424.3514878414333,193.08333333333331,423.5192998147662S202.60195088093303,419.3831702865885,206.875,420.56011871063384S217.04623841535317,432.99725774992635,220.66666666666666,431.1167225899278S232.54035881628738,408.49956631091237,234.45833333333331,406.23268986448176S244.57299302400145,400.3551260229238,248.25,398.51565928503896S257.50030671244923,392.9374744547162,262.04166666666663,392.4337973092461S271.8340679554525,393.9100113193389,275.8333333333333,395.45642268279994S286.4262777481084,400.98450672320314,289.625,403.09955116112076S299.73109395470414,411.86193088715555,303.41666666666663,413.6949476786464S312.99186450676325,415.55104351738106,317.2083333333333,416.8181010627901S326.46311402622354,422.50699643697016,331,421.98379601716533S341.9919567952449,415.8804764910464,344.79166666666663,413.6371501499764S356.9353799644516,402.08666998842534,358.5833333333333,399.8820708088463S371.0318749225182,378.8273286713973,372.375,376.7367164453586S384.12432288627616,359.23211228915045,386.16666666666663,356.947831199764S395.53061288288546,346.75216212369855,399.9583333333333,345.88584436370945S409.3420009964352,343.6624751423081,413.75,344.5757635739076S422.96731992699563,359.31054573472755,427.54166666666663,358.9870640675089S439.204647762581,344.91748913715,441.3333333333333,342.6251675299454S453.87182098807205,331.3304645792976,455.125,329.28334837201453S467.86049283471164,299.50062790848784,468.91666666666663,297.566729605193S478.1111111111111,278.77711547869546,482.7083333333333,278.77711547869546S491.90277777777777,278.77711547869546,496.5,278.77711547869546S506.7820744450642,282.88278935385046,510.29166666666663,284.8365390282347S520.3457923965456,292.3399297610515,524.0833333333333,294.1324402901424S534.2059268878259,296.2200162945198,537.875,298.06540160489965S547.2605922213672,307.0879449210486,551.6666666666666,308.00566564936173S562.6527363239959,306.0526088546084,565.4583333333333,303.81060565676876S577.0444136269209,288.26005422000964,579.25,285.9633262347581S592.0718439191082,276.9630599303335,593.0416666666666,275.0874441581109S605.8044684082645,234.53384755239856,606.8333333333333,232.61776883189816S619.7962654491635,221.36947174859307,620.625,219.60224908642542S629.9449516725294,169.8341289032238,634.4166666666666,169.08497434393695S645.3376895110284,212.75486751138212,648.2083333333333,214.98116300332558S661.4470259002718,191.45941068866728,662,190.4769179127032L662,328.3928430080849C661.0388915395458,329.5266353671288,652.7728845508454,344.2763089841475,648.2083333333333,344.6624805448904S638.817333457666,329.7964163271079,634.4166666666666,330.72645662665036S622.2719853635385,348.2876501421539,620.625,350.4919633969396S608.8564209189872,365.3617512029743,606.8333333333333,367.6437897274175S596.0838636840148,379.4308895075753,593.0416666666666,381.6059051489372S582.9995917948828,385.5816958578999,579.25,387.3644656398529S569.5141019978784,393.23870073446466,565.4583333333333,394.72059491845124S556.2523065700054,397.67330764436974,551.6666666666666,397.44284649006204S541.7529671991344,395.0044394321075,537.875,393.3343354271584S528.4610063372683,386.54404006336154,524.0833333333333,385.56367549549356S514.8662370459057,386.83523992851116,510.29166666666663,387.15714433970516S501.09722222222223,387.50466578296,496.5,387.50466578296S487.30555555555554,387.50466578296,482.7083333333333,387.50466578296S473.48692704591474,386.80053325053916,468.91666666666663,387.1515640792365S458.60433419310635,392.28057422265556,455.125,394.2527572881358S444.61026688754856,400.70653838957116,441.3333333333333,402.78656200420687S432.08948973726365,411.28721264646094,427.54166666666663,411.7611942931827S418.34718380031063,411.26837972672314,413.75,411.28167004611623S404.4124393718751,411.3074310802381,399.9583333333333,412.1058386565699S390.5156480671777,417.4741202958037,386.16666666666663,418.5131557699186S376.91916398387514,419.22758848294376,372.375,419.7186132641359S362.36630665478555,420.2011820030529,358.5833333333333,421.9562551834744S348.3401878315014,430.5865518963227,344.79166666666663,432.5156288511703S335.52808867128556,436.39183678460284,331,436.95133910703055S321.7975968326722,436.11501100759074,317.2083333333333,435.9238967055882S307.9252780663284,435.883640836937,303.41666666666663,435.2515714066293S293.8345479464367,431.47919026324894,289.625,430.2017187561227S280.3028770898904,427.63628067753353,275.8333333333333,426.8808572935557S266.63886466713626,425.55025276121137,262.04166666666663,425.5397004063783S252.8466812036648,425.4388529726931,248.25,425.48872169870236S238.11311097569597,430.26353191405826,234.45833333333331,432.119448232117S225.225363151956,439.07661213433187,220.66666666666666,439.49569105476223S211.47195893912442,439.036851444753,206.875,439.0716408337951S197.65387560176558,439.71881446741634,193.08333333333331,440.06801620927456S183.82006677972404,440.6208219688211,179.29166666666666,441.17908180699936S170.00535522342093,442.82513593124173,165.5,443.4684814549764S156.24945632022963,444.61313310134693,151.70833333333331,445.1178642447151S142.51376787355852,446.51069337649835,137.91666666666666,446.5342798073692S128.722196715636,446.51915443680934,124.125,446.50832582681477S114.92726704994483,445.773016210064,110.33333333333333,445.8959274658641S101.13888888888889,447.24632126782274,96.54166666666666,447.24632126782274S87.34722222222223,447.24632126782274,82.75,447.24632126782274S73.55555555555556,447.24632126782274,68.95833333333333,447.24632126782274S59.763888888888886,447.24632126782274,55.166666666666664,447.24632126782274S45.97222222222222,447.24632126782274,41.375,447.24632126782274S32.18055555555556,447.24632126782274,27.583333333333332,447.24632126782274S18.38888888888889,447.24632126782274,13.791666666666666,447.24632126782274S2.298611111111111,447.24632126782274,0,447.24632126782274Z"></path><path opacity="0.85" id="path_9000" class="layer" fill="#9c9a87" d="M0,446.36419915549106C2.2984445045443724,446.34463040622745,9.195197139957072,446.30559772052925,13.791666666666666,446.2467781490697S22.9865256524337,446.05487673226116,27.583333333333332,446.0112239346907S36.778312966577275,445.9947431902362,41.375,445.945143841298S50.5694456482969,445.6661383248577,55.166666666666664,445.6684908502684S64.36114918383183,445.9460292087891,68.95833333333333,445.95925899745885S78.15414364821144,445.9581387917785,82.75,445.87890909842884S92.0050102173665,445.2229372478449,96.54166666666666,444.6987558819669S105.78714749176862,443.17351844707184,110.33333333333333,442.6918329987242S119.54657248437064,441.4828550688233,124.125,441.77619821568885S133.32443055999315,444.6104359564302,137.91666666666666,444.4591170222058S148.11553202471254,442.7669526803715,151.70833333333331,440.86729882432473S162.18387362267353,431.93586992962116,165.5,429.87473535780344S175.07878099545482,424.99537393388886,179.29166666666666,423.72290941624027S188.66337152819202,422.42858217120965,193.08333333333331,421.5434357013748S202.7720080238226,416.7750239776195,206.875,418.1990403869021S216.79761691973374,432.7952146307912,220.66666666666666,431.1167225899278S232.65037680905934,408.4783236539806,234.45833333333331,406.23268986448176S244.57299302400145,398.6953735788176,248.25,396.8559068409328S257.45624823379234,392.66644578496397,262.04166666666663,392.4337973092461S271.8340679554525,393.9100113193389,275.8333333333333,395.45642268279994S286.4262777481084,400.98450672320314,289.625,403.09955116112076S299.73109395470414,411.86193088715555,303.41666666666663,413.6949476786464S312.99186450676325,415.55104351738106,317.2083333333333,416.8181010627901S326.46311402622354,422.50699643697016,331,421.98379601716533S341.9919567952449,415.8804764910464,344.79166666666663,413.6371501499764S356.9353799644516,402.08666998842534,358.5833333333333,399.8820708088463S371.15154605378615,378.76837835396776,372.375,376.7367164453586S384.2550313553159,356.3431192084993,386.16666666666663,354.0773163109543S395.6646620047595,345.1846772183366,399.9583333333333,344.043034643438S409.364946431007,341.4920572937612,413.75,342.45661465860337S423.0312896377616,354.28245568618405,427.54166666666663,353.65659263006995S438.99007188365925,340.9273095306154,441.3333333333333,338.6291321250634S453.86364427227426,328.6552304146598,455.125,326.6039590260421S467.8805131600429,295.6928080012204,468.91666666666663,293.7719191868963S478.1111111111111,275.4681802798787,482.7083333333333,275.4681802798787S491.90277777777777,275.4681802798787,496.5,275.4681802798787S507.1382516111341,281.38225041003864,510.29166666666663,283.5160084227301S520.4139629427148,292.2872757885958,524.0833333333333,294.1324402901424S534.2044365633438,295.5561406109633,537.875,297.40041820844016S547.2611281767458,307.08671512809,551.6666666666666,308.00566564936173S562.7458760994491,305.41507040629335,565.4583333333333,303.15402099798996S576.9913064785765,287.31102217503235,579.25,285.0127576936993S592.0440406326321,276.98245098378396,593.0416666666666,275.0874441581109S606.0194961925743,234.37249368129426,606.8333333333333,232.61776883189816S619.987300034861,217.2036810571495,620.625,215.61466022490447S629.9071383062699,164.51447075498214,634.4166666666666,163.88561627504708S645.8255673143818,209.4710897150593,648.2083333333333,211.76815980358725S661.3205895873464,191.52577529800777,662,190.4769179127032L662,189.4769179127032C661.4470259002718,190.45941068866728,651.0789771556381,216.20745849526904,648.2083333333333,213.98116300332558S638.8883816608038,167.33581978465008,634.4166666666666,168.08497434393695S621.4537345508365,216.83502642425776,620.625,218.60224908642542S607.862198258402,229.70169011139777,606.8333333333333,231.61776883189816S594.011489414225,272.2118283858883,593.0416666666666,274.0874441581109S581.4555863730791,282.66659824950654,579.25,284.9633262347581S568.2639303426706,300.5686024589291,565.4583333333333,302.81060565676876S556.072741111966,307.9233863776749,551.6666666666666,307.00566564936173S541.5440731121741,298.9107869152795,537.875,297.06540160489965S527.820874270121,294.92495081923335,524.0833333333333,293.1324402901424S513.801258888269,285.79028870261897,510.29166666666663,283.8365390282347S501.09722222222223,277.77711547869546,496.5,277.77711547869546S487.30555555555554,277.77711547869546,482.7083333333333,277.77711547869546S469.9728404986216,294.6328313018982,468.91666666666663,296.566729605193S456.37817901192795,326.23623216473146,455.125,328.28334837201453S443.46201890408565,339.3328459227407,441.3333333333333,341.6251675299454S432.11601340633763,357.6635824002903,427.54166666666663,357.9870640675089S418.1579990035648,344.48905200550706,413.75,343.5757635739076S404.38605378378116,344.01952660372035,399.9583333333333,344.88584436370945S388.2090104470571,353.6635501103775,386.16666666666663,355.947831199764S373.7181250774818,373.64610421931985,372.375,375.7367164453586S360.231286702215,396.6774716292673,358.5833333333333,398.8820708088463S347.59137653808835,410.39382380890635,344.79166666666663,412.6371501499764S335.53688597377646,420.4605955973605,331,420.98379601716533S321.4248021599034,417.08515860819915,317.2083333333333,415.8181010627901S307.1022393786291,414.5279644701372,303.41666666666663,412.6949476786464S292.8237222518916,404.2145955990384,289.625,402.09955116112076S279.83259871121413,396.002834046261,275.8333333333333,394.45642268279994S266.583026620884,390.93012016377594,262.04166666666663,391.4337973092461S251.92700697599855,395.67619254715413,248.25,397.51565928503896S236.37630785037925,402.96581341805114,234.45833333333331,405.23268986448176S224.28709491798014,428.23618742992926,220.66666666666666,430.1167225899278S211.14804911906697,420.7370671346792,206.875,419.56011871063384S197.5246241051486,421.6871117880991,193.08333333333331,422.5192998147662S183.56933615994785,423.55939054615465,179.29166666666666,424.7285530498665S168.93724809111828,428.06153409112994,165.5,430.05831121136237S155.3338213652782,438.8753825145295,151.70833333333331,440.75235099510724S142.5074772744357,444.1670437158882,137.91666666666666,444.3386085947084S128.7060618489959,442.05526554609145,124.125,441.78317793289915S114.87661648060578,442.20528809237805,110.33333333333333,442.70032393976567S101.08244606132126,444.2824009069877,96.54166666666666,444.7886562066094S87.34211108421783,445.6224106883086,82.75,445.77561288634405S73.55550490483762,445.91486321097597,68.95833333333333,445.9301226356235S59.76388888884964,445.9148490994372,55.166666666666664,445.91486253070724S45.972165278157036,445.9472220493761,41.375,445.93104239303597S32.177728186408224,445.1251978363446,27.583333333333332,445.0112239346907S18.388136193376262,445.1879585776102,13.791666666666666,445.2467781490697S2.2984445045443724,445.34463040622745,0,445.36419915549106Z"></path><path opacity="0.85" id="path_0000" class="layer" fill="#ffe999" d="M0,445.59840072308316C2.2982048219941102,445.5678436353977,9.196112060835047,445.50256790131715,13.791666666666666,445.4150257846841S22.988793197190194,445.183966214766,27.583333333333332,445.0729574216956S36.78134859584366,444.8766587765543,41.375,444.7485842145901S50.56979787963381,444.26360519899237,55.166666666666664,444.3039127068568S64.36128380967878,444.9622715565308,68.95833333333333,444.99044785629286S78.15363824110054,444.9844131794447,82.75,444.92152438305266S92.01856780514066,444.1907704749387,96.54166666666666,443.61174777384866S105.81737776466852,441.9962573816551,110.33333333333333,441.39045494135024S119.53087092001786,439.7923160654222,124.125,439.9115230061332S133.4731718616059,442.93266890653047,137.91666666666666,442.10617814460244S148.82669256366825,437.0044593907107,151.70833333333331,434.7810184858585S162.524737680626,423.01995548901334,165.5,420.82319510552134S175.13061721252097,415.7622876956051,179.29166666666666,414.41509191973654S188.659634428773,412.7688559720671,193.08333333333331,411.89271961837744S202.58253727098727,407.8083186203692,206.875,408.9520706765049S217.4909904929232,421.36716642660576,220.66666666666666,419.24246176100326S233.1060210127051,392.5920674115741,234.45833333333331,390.4972806350133S245.2884843999045,378.71570442621527,248.25,376.5147567488254S257.5823273990945,369.213685197848,262.04166666666663,369.99781967228455S272.66440482144424,379.23755888277185,275.8333333333333,381.3650364177946S286.212088647533,386.5055821220489,289.625,388.51604177402845S299.90813434641757,395.6592733578637,303.41666666666663,397.6136795868247S313.26683296303725,402.2735203031623,317.2083333333333,403.88116700632133S326.5740527602765,409.73494532084015,331,408.8642823343615S342.76541302260927,400.7374505249311,344.79166666666663,398.4550319721097S357.5376943903144,379.7208728300859,358.5833333333333,377.7937833702762S371.21127802045515,349.6184679517472,372.375,347.6195583241812S383.6792269085257,332.705103798664,386.16666666666663,330.41426186125665S396.12410936434634,323.9267183411496,399.9583333333333,322.2163072236548S409.6126925041474,316.7301739463434,413.75,318.10959724789444S423.01826360532874,331.9907432191023,427.54166666666663,331.4128904538329S439.8204753030348,316.7460395153512,441.3333333333333,314.58589944208813S454.26706183493616,293.8190332475251,455.125,292.02792339532425S467.56045516514985,259.0969643823625,468.91666666666663,257.0004205559759S478.1111111111111,249.38732703812772,482.7083333333333,249.38732703812772S491.90277777777777,249.38732703812772,496.5,249.38732703812772S507.3423675000074,257.37787747848546,510.29166666666663,259.58246771127034S519.9975608786331,268.56019863273315,524.0833333333333,270.00576681587233S533.8586294128164,270.8662769340476,537.875,272.39366536613903S547.1681470379921,283.10964719820265,551.6666666666666,283.77599211975246S563.2618389868676,278.7757987501851,565.4583333333333,276.4794570494572S577.2561850187154,257.2171002329129,579.25,254.9387867427702S592.120940488263,246.19625287762696,593.0416666666666,244.35640338586384S606.316793489716,200.21602348058323,606.8333333333333,198.764184977961S620.3124894576573,167.98508956706047,620.625,166.82793029934442S629.8368101523035,96.9110541764247,634.4166666666666,96.6290391940828S646.5728795216546,162.92855289234402,648.2083333333333,165.12942440979634S661.6278874874852,134.59531206859688,662,133.7486278099267L662,189.4769179127032C661.3205895873464,190.52577529800777,650.5910993522847,213.0652298921152,648.2083333333333,210.76815980358725S638.9261950270634,162.25676179511203,634.4166666666666,162.88561627504708S621.262699965139,213.02563939265943,620.625,214.61466022490447S607.6471704740923,229.86304398250206,606.8333333333333,231.61776883189816S594.0392927007011,272.1924373324378,593.0416666666666,274.0874441581109S581.5086935214235,281.7144932123663,579.25,284.0127576936993S568.1707905672174,299.89297158968657,565.4583333333333,302.15402099798996S556.0722051565874,307.92461617063344,551.6666666666666,307.00566564936173S541.5455634366562,298.244695805917,537.875,296.40041820844016S527.7527037239518,294.97760479168903,524.0833333333333,293.1324402901424S513.4450817221991,284.6497664354216,510.29166666666663,282.5160084227301S501.09722222222223,274.4681802798787,496.5,274.4681802798787S487.30555555555554,274.4681802798787,482.7083333333333,274.4681802798787S469.9528201732904,290.8510303725722,468.91666666666663,292.7719191868963S456.38635572772574,323.5526876374244,455.125,325.6039590260421S443.6765947830074,335.3309547195114,441.3333333333333,337.6291321250634S432.0520436955717,352.03072957395585,427.54166666666663,352.65659263006995S418.135053568993,342.42117202344554,413.75,341.45661465860337S404.2520046619071,341.90139206853934,399.9583333333333,343.043034643438S388.07830197801735,350.81151341340933,386.16666666666663,353.0773163109543S373.59845394621385,373.7050545367494,372.375,375.7367164453586S360.231286702215,396.6774716292673,358.5833333333333,398.8820708088463S347.59137653808835,410.39382380890635,344.79166666666663,412.6371501499764S335.53688597377646,420.4605955973605,331,420.98379601716533S321.4248021599034,417.08515860819915,317.2083333333333,415.8181010627901S307.1022393786291,414.5279644701372,303.41666666666663,412.6949476786464S292.8237222518916,404.2145955990384,289.625,402.09955116112076S279.83259871121413,396.002834046261,275.8333333333333,394.45642268279994S266.6270850995409,391.2011488335282,262.04166666666663,391.4337973092461S251.92700697599855,394.01644010304796,248.25,395.8559068409328S236.2662898576073,402.9870560749829,234.45833333333331,405.23268986448176S224.53571641359957,428.43823054906443,220.66666666666666,430.1167225899278S210.9779919761774,418.62305679618464,206.875,417.1990403869021S197.5032951384746,419.6582892315399,193.08333333333331,420.5434357013748S183.5045523378785,421.4504448985917,179.29166666666666,422.72290941624027S168.81612637732647,426.8136007859857,165.5,428.87473535780344S155.3011346419541,437.96764496827797,151.70833333333331,439.86729882432473S142.50890277334017,443.30779808798144,137.91666666666666,443.4591170222058S128.70342751562936,441.0695413625544,124.125,440.77619821568885S114.87951917489804,441.2101475503765,110.33333333333333,441.6918329987242S101.07832311596681,443.1745745160889,96.54166666666666,443.6987558819669S87.34585635178856,444.7996794050792,82.75,444.87890909842884S73.55551748283483,444.97248878612857,68.95833333333333,444.95925899745885S59.76388768503643,444.67084337567917,55.166666666666664,444.6684908502684S45.971687033422725,444.89554449235976,41.375,444.945143841298S32.180141014232966,444.9675711371202,27.583333333333332,445.0112239346907S18.388136193376262,445.1879585776102,13.791666666666666,445.2467781490697S2.2984445045443724,445.34463040622745,0,445.36419915549106Z"></path><path opacity="0.85" id="path_4000" class="layer" fill="#ffc41c" d="M0,445.59840072308316C2.2982048219941102,445.5678436353977,9.196112060835047,445.50256790131715,13.791666666666666,445.4150257846841S22.988793197190194,445.183966214766,27.583333333333332,445.0729574216956S36.78134859584366,444.8766587765543,41.375,444.7485842145901S50.56979787963381,444.26360519899237,55.166666666666664,444.3039127068568S64.36128380967878,444.9622715565308,68.95833333333333,444.99044785629286S78.15363824110054,444.9844131794447,82.75,444.92152438305266S92.01856780514066,444.1907704749387,96.54166666666666,443.61174777384866S105.81737776466852,441.9962573816551,110.33333333333333,441.39045494135024S119.53087092001786,439.7923160654222,124.125,439.9115230061332S133.4731718616059,442.93266890653047,137.91666666666666,442.10617814460244S148.96918788354373,437.0370199345656,151.70833333333331,434.7810184858585S162.524737680626,421.5848897421306,165.5,419.3881293586386S175.01056504544,415.578425241457,179.29166666666666,414.41509191973654S188.70574335163062,412.87326023240485,193.08333333333331,411.89271961837744S202.4749017572887,407.30535014843576,206.875,408.2366744076722S217.5982009630424,419.8968616918755,220.66666666666666,417.73100459905754S233.12473816611566,390.8533835798169,234.45833333333331,388.7671531831074S245.27213608748002,376.7765442956949,248.25,374.58058694822626S257.61576376270335,367.5556862369298,262.04166666666663,368.4264575434088S272.6809678606516,377.8732732290353,275.8333333333333,380.0074514151816S286.18152005222174,385.1073977985501,289.625,387.10060837120716S299.92973321629154,394.00606751771943,303.41666666666663,395.9736810616171S313.3702138934326,400.9584792711176,317.2083333333333,402.66538499367846S326.5074511780949,408.9264130281444,331,408.24066499768446S342.764855242328,400.7375170148633,344.79166666666663,398.4550319721097S357.55811037223094,379.0914720636781,358.5833333333333,377.1778117856923S371.1883841387364,348.9802797839765,372.375,346.9685443131852S383.6200941102958,332.69945948111103,386.16666666666663,330.41426186125665S396.12410936434634,323.9267183411496,399.9583333333333,322.2163072236548S409.6126925041474,316.7301739463434,413.75,318.10959724789444S423.01826360532874,331.9907432191023,427.54166666666663,331.4128904538329S439.9070523608923,316.71255248602625,441.3333333333333,314.58589944208813S454.2833302703501,292.0627249848805,455.125,290.28482317344395S467.5637893219061,258.41526236254913,468.91666666666663,256.3202204337783S478.1111111111111,247.56976101914037,482.7083333333333,247.56976101914037S491.90277777777777,247.56976101914037,496.5,247.56976101914037S507.5249277452839,256.6506325092709,510.29166666666663,258.9010701096886S520.0454553790231,268.5029148975943,524.0833333333333,270.00576681587233S533.8112467580434,270.9212909918586,537.875,272.39366536613903S547.1360555041887,282.5912121577672,551.6666666666666,283.1405652416958S563.2106817054286,278.03629103334674,565.4583333333333,275.73824486949474S577.216142599753,257.2220997989907,579.25,254.9387867427702S592.1292360403771,246.19001095119054,593.0416666666666,244.35640338586384S606.335685485465,200.19252120048463,606.8333333333333,198.764184977961S620.3326217841275,166.30931254810807,620.625,165.18742012448354S629.841287969948,93.23956128444273,634.4166666666666,92.9234246031632S646.6311655088772,161.09908411810122,648.2083333333333,163.28154434093778S661.6434720738359,131.92492071825782,662,131.0928108154401L662,132.7486278099267C661.6278874874852,133.59531206859688,649.8437871450119,166.33029592724867,648.2083333333333,164.12942440979634S638.9965231810297,95.34702421174089,634.4166666666666,95.6290391940828S620.9375105423427,164.67077103162836,620.625,165.82793029934442S607.3498731769505,196.31234647533879,606.8333333333333,197.764184977961S593.9623928450702,241.51655389410072,593.0416666666666,243.35640338586384S581.2438149812846,251.6604732526275,579.25,253.9387867427702S567.6548276797989,273.1831153487293,565.4583333333333,275.4794570494572S556.1651862953412,283.44233704130227,551.6666666666666,282.77599211975246S541.8913705871836,272.92105379823045,537.875,271.39366536613903S528.1691057880334,270.4513349990115,524.0833333333333,269.00576681587233S513.2409658333258,260.7870579440552,510.29166666666663,258.58246771127034S501.09722222222223,248.38732703812772,496.5,248.38732703812772S487.30555555555554,248.38732703812772,482.7083333333333,248.38732703812772S470.2728781681834,253.90387672958926,468.91666666666663,256.0004205559759S455.98293816506384,289.2368135431234,455.125,291.02792339532425S442.8461913636318,311.4257593688251,441.3333333333333,313.58589944208813S432.0650697280045,329.83503768856355,427.54166666666663,330.4128904538329S417.8873074958526,318.48902054944546,413.75,317.10959724789444S403.7925573023203,319.50589610616,399.9583333333333,321.2163072236548S388.65410642480754,327.12341992384927,386.16666666666663,329.41426186125665S373.53872197954485,344.62064869661515,372.375,346.6195583241812S359.6289722763522,374.86669391046644,358.5833333333333,376.7937833702762S346.817920310724,395.17261341928827,344.79166666666663,397.4550319721097S335.4259472397235,406.9936193478829,331,407.8642823343615S321.1498337036294,404.4888137094804,317.2083333333333,402.88116700632133S306.9251989869157,398.56808581578565,303.41666666666663,396.6136795868247S293.037911352467,389.526501426008,289.625,387.51604177402845S279.0022618452224,382.4925139528174,275.8333333333333,380.3650364177946S266.5010059342388,369.7819541467211,262.04166666666663,368.99781967228455S251.2115156000955,373.3138090714355,248.25,375.5147567488254S235.81064565396153,387.4024938584525,234.45833333333331,389.4972806350133S223.8423428404101,416.11775709540075,220.66666666666666,418.24246176100326S211.16746272901273,409.09582273264056,206.875,407.9520706765049S197.50703223789364,410.01658326468777,193.08333333333331,410.89271961837744S183.45271612081234,412.067896143868,179.29166666666666,413.41509191973654S168.475262319374,417.62643472202933,165.5,419.82319510552134S154.58997410299838,431.55757758100634,151.70833333333331,433.7810184858585S142.36016147172742,440.2796873826744,137.91666666666666,441.10617814460244S128.71912907998214,439.03072994684425,124.125,438.9115230061332S114.84928890199814,439.7846525010454,110.33333333333333,440.39045494135024S101.06476552819265,442.03272507275864,96.54166666666666,442.61174777384866S87.34636175889946,443.8586355866606,82.75,443.92152438305266S73.55538285698788,444.0186241560549,68.95833333333333,443.99044785629286S59.76353545369952,443.34422021472125,55.166666666666664,443.3039127068568S45.96865140415634,443.6205096526259,41.375,443.7485842145901S32.177873469476474,443.96194862862524,27.583333333333332,444.0729574216956S18.387221272498287,444.327483668051,13.791666666666666,444.4150257846841S2.2982048219941102,444.5678436353977,0,444.59840072308316Z"></path><path opacity="0.85" id="path_1000" class="layer" fill="#6e451e" d="M0,445.59840072308316C2.2982048219941102,445.5678436353977,9.196112060835047,445.50256790131715,13.791666666666666,445.4150257846841S22.988793197190194,445.183966214766,27.583333333333332,445.0729574216956S36.78134859584366,444.8766587765543,41.375,444.7485842145901S50.56979787963381,444.26360519899237,55.166666666666664,444.3039127068568S64.36128380967878,444.9622715565308,68.95833333333333,444.99044785629286S78.15363824110054,444.9844131794447,82.75,444.92152438305266S92.01856780514066,444.1907704749387,96.54166666666666,443.61174777384866S105.81737776466852,441.9962573816551,110.33333333333333,441.39045494135024S119.53087092001786,439.7923160654222,124.125,439.9115230061332S133.4731718616059,442.93266890653047,137.91666666666666,442.10617814460244S148.96918788354373,437.0370199345656,151.70833333333331,434.7810184858585S162.524737680626,421.5848897421306,165.5,419.3881293586386S175.01056504544,415.578425241457,179.29166666666666,414.41509191973654S188.70574335163062,412.87326023240485,193.08333333333331,411.89271961837744S202.42922905031304,407.41611504496257,206.875,408.2366744076722S217.67892267431748,419.17667351909773,220.66666666666666,416.9837966616067S233.13101570579622,390.0749975242712,234.45833333333331,387.9916823755503S245.29409094124622,375.8925104636917,248.25,373.6898819321076S257.6066076525764,366.5895959607033,262.04166666666663,367.43765456597737S272.67525514320516,376.8323997226534,275.8333333333333,378.9642837204848S286.0649961743032,384.13639911109817,289.625,386.0579873759753S299.79662459118293,391.97217175199677,303.41666666666663,393.85297829348923S313.3387981043621,398.7109747744545,317.2083333333333,400.3890124546182S326.54606647636257,406.6134618198656,331,405.81458865209413S342.85648172137235,397.7112680618528,344.79166666666663,395.44156886105037S357.5974665362815,375.35010598369485,358.5833333333333,373.4632261767044S371.23210168836613,344.6359487999059,372.375,342.64900618240335S383.6618420984781,327.79860813367776,386.16666666666663,325.5092656406803S396.12633045582817,319.150981732168,399.9583333333333,317.43857911278246S409.63000449899664,311.78093137907666,413.75,313.1831339123721S423.07997354893763,327.60393032576303,427.54166666666663,326.82631263514037S440.01405646426343,310.45524895431606,441.3333333333333,308.37570153180104S454.2989187359993,285.1123169219345,455.125,283.3473044886943S467.5328055762423,251.5496654427493,468.91666666666663,249.44091096681404S478.1111111111111,241.31528405661027,482.7083333333333,241.31528405661027S491.90277777777777,241.31528405661027,496.5,241.31528405661027S507.56941609446795,250.92844422888254,510.29166666666663,253.18767919832084S520.3474732764876,262.41323123112466,524.0833333333333,264.2070897841071S534.1524154124535,265.53931620943536,537.875,267.34373095625267S547.1614764475593,277.85331377442475,551.6666666666666,278.49722501075917S563.2207774434395,273.58392136733823,565.4583333333333,271.28612126722385S577.2823778693655,252.44589073358284,579.25,250.1712348618241S592.1319549358775,241.23014966383346,593.0416666666666,239.39860071513877S606.3227448805626,196.0814144681063,606.8333333333333,194.6369117808867S620.3247673896335,162.49858420539704,620.625,161.3627600958249S629.8206426475931,90.21089711415169,634.4166666666666,90.2851060789136S646.6921635731668,159.6467881186176,648.2083333333333,161.80812996396628S661.6437243812644,130.43777860225,662,129.60590915375576L662,130.0928108154401C661.6434720738359,130.92492071825782,649.7855011577893,164.46400456377435,648.2083333333333,162.28154434093778S638.9920453633853,91.60728792188367,634.4166666666666,91.9234246031632S620.9173782158725,163.065527700859,620.625,164.18742012448354S607.3309811812015,196.33584875543738,606.8333333333333,197.764184977961S593.9540972929561,241.52279582053714,593.0416666666666,243.35640338586384S581.283857400247,251.65547368654967,579.25,253.9387867427702S567.705984961238,272.44019870564273,565.4583333333333,274.73824486949474S556.1972778291446,282.68991832562443,551.6666666666666,282.1405652416958S541.9387532419566,272.86603974041947,537.875,271.39366536613903S528.1212112876434,270.5086187341504,524.0833333333333,269.00576681587233S513.0584055880494,260.1515077101063,510.29166666666663,257.9010701096886S501.09722222222223,246.56976101914037,496.5,246.56976101914037S487.30555555555554,246.56976101914037,482.7083333333333,246.56976101914037S470.2695440114272,253.22517850500745,468.91666666666663,255.32022043377827S455.9666697296499,287.5069213620074,455.125,289.28482317344395S442.75961430577433,311.45924639815,441.3333333333333,313.58589944208813S432.0650697280045,329.83503768856355,427.54166666666663,330.4128904538329S417.8873074958526,318.48902054944546,413.75,317.10959724789444S403.7925573023203,319.50589610616,399.9583333333333,321.2163072236548S388.7132392230375,327.12906424140226,386.16666666666663,329.41426186125665S373.5616158612636,343.95680884239385,372.375,345.9685443131852S359.6085562944357,374.2641515077065,358.5833333333333,376.1778117856923S346.81847809100526,395.1725469293561,344.79166666666663,397.4550319721097S335.4925488219051,406.55491696722453,331,407.24066499768446S321.046452773234,403.3722907162393,317.2083333333333,401.66538499367846S306.9036001170417,396.9412946055148,303.41666666666663,394.9736810616171S293.06847994777826,388.0938189438642,289.625,386.10060837120716S278.985698806015,381.1416296013279,275.8333333333333,379.0074514151816S266.4675695706299,368.2972288498878,262.04166666666663,367.4264575434088S251.22786391251998,371.3846296007576,248.25,373.58058694822626S235.79192850055097,385.68092278639784,234.45833333333331,387.7671531831074S223.73513237029093,414.5651475062396,220.66666666666666,416.73100459905754S211.2750982427113,408.1679986669086,206.875,407.2366744076722S197.460923315036,409.91217900435004,193.08333333333331,410.89271961837744S183.57276828789333,412.25175859801607,179.29166666666666,413.41509191973654S168.475262319374,416.1913689751466,165.5,418.3881293586386S154.4474787831229,431.52501703715143,151.70833333333331,433.7810184858585S142.36016147172742,440.2796873826744,137.91666666666666,441.10617814460244S128.71912907998214,439.03072994684425,124.125,438.9115230061332S114.84928890199814,439.7846525010454,110.33333333333333,440.39045494135024S101.06476552819265,442.03272507275864,96.54166666666666,442.61174777384866S87.34636175889946,443.8586355866606,82.75,443.92152438305266S73.55538285698788,444.0186241560549,68.95833333333333,443.99044785629286S59.76353545369952,443.34422021472125,55.166666666666664,443.3039127068568S45.96865140415634,443.6205096526259,41.375,443.7485842145901S32.177873469476474,443.96194862862524,27.583333333333332,444.0729574216956S18.387221272498287,444.327483668051,13.791666666666666,444.4150257846841S2.2982048219941102,444.5678436353977,0,444.59840072308316Z"></path><path opacity="0.85" id="path_2000" class="layer" fill="#d66011" d="M0,444.8349003276321C2.2902474289402073,444.69649909357554,9.208015337294079,444.2508681654037,13.791666666666666,444.0014603847492S22.990425212640776,443.4747862659012,27.583333333333332,443.33402308907887S36.77785803989883,443.1752967713367,41.375,443.1560880138422S50.56944520586595,443.216897590081,55.166666666666664,443.21876853190196S64.36111112087964,443.16752558198203,68.95833333333333,443.1673136666275S78.15277920689194,443.1670171999108,82.75,443.16445400788774S92.05692567423034,443.1466359080498,96.54166666666666,442.43639004773064S105.89434506398963,439.1423337760309,110.33333333333333,438.30424150149327S119.53211564884587,437.08743650164183,124.125,437.2285865641497S133.802160939617,440.5612464704858,137.91666666666666,439.151941753993S149.54243923313317,430.07549148562526,151.70833333333331,427.7807149746904S162.7405316007057,412.17918867764456,165.5,409.9272509342662S174.98315684091017,406.3859122532035,179.29166666666666,405.27060054924345S188.87755168373118,404.0700473196578,193.08333333333331,402.786959802286S202.28215657997376,396.71374440490933,206.875,396.8555582013237S218.38591178615496,405.9371955637449,220.66666666666666,403.638653809686S233.4737143799099,370.9431223672157,234.45833333333331,369.05711132545093S243.8912087558724,351.82296931552185,248.25,350.8035229659538S257.5372612069037,348.8953537463072,262.04166666666663,349.5419481567216S272.96561700941174,360.5540372190718,275.8333333333333,362.78108286226717S286.3320768394668,368.89051729688265,289.625,370.9629450009287S300.1920088880274,378.0370576799521,303.41666666666663,380.14087578275553S313.68623753641805,387.01280700880585,317.2083333333333,388.95875106342976S326.65233834392023,396.42219448845,331,395.3805588015195S343.3587765498176,384.4795427909049,344.79166666666663,382.35019072977985S357.7760484769965,356.13939604277647,358.5833333333333,354.390236518335S371.22448286600195,324.57620994236686,372.375,322.5848553130152S383.38737968449857,308.8958452726037,386.16666666666663,306.64805441331384S396.06334730883714,301.93025662054947,399.9583333333333,300.27641256017426S409.6692972967114,293.48412386737215,413.75,294.9359374219355S423.0889314053318,310.89198206938744,427.54166666666663,310.0898834560322S440.29537229565267,291.8892573407772,441.3333333333333,289.96718178750587S454.3849951808995,260.7011017549139,455.125,259.0116167840934S465.32859366510377,228.89528666630468,468.91666666666663,226.99242012521566S478.1111111111111,224.5482466829702,482.7083333333333,224.5482466829702S491.90277777777777,224.5482466829702,496.5,224.5482466829702S507.43868762257387,236.64258767023787,510.29166666666663,238.8733474589657S520.1563255639497,244.4934799455697,524.0833333333333,246.11580462437192S534.3989990288426,248.2943939067149,537.875,250.26856871092642S547.088594900521,262.0776953550015,551.6666666666666,261.781600501495S563.8621009014649,250.67323825002396,565.4583333333333,248.48456805306222S577.0837740918658,226.25557610580435,579.25,223.96078042902695S592.0317106390067,215.92512027379345,593.0416666666666,214.0217072560753S606.4952687858058,163.84927197475795,606.8333333333333,162.64932605425008S620.4319107668642,117.03798974273666,620.625,116.11582345540535S629.8198282758599,30.873305343652813,634.4166666666666,30.915310236060577S646.6185642645836,114.18128838828417,648.2083333333333,116.36787385405137S661.8213832159245,69.46908229354952,662,68.8537233991201L662,128.60590915375576C661.6437243812644,129.43777860225,649.7245030934997,162.96947180931497,648.2083333333333,160.80812996396628S639.0126906857402,89.35931504367551,634.4166666666666,89.2851060789136S620.9252326103665,159.22693598625278,620.625,160.3627600958249S607.3439217861039,192.1924090936671,606.8333333333333,193.6369117808867S593.9513783974558,236.56705176644408,593.0416666666666,238.39860071513877S581.2176221306345,246.89657899006536,579.25,249.1712348618241S567.695889223227,267.98832116710946,565.4583333333333,270.28612126722385S556.171856885774,278.1411362470936,551.6666666666666,277.49722501075917S541.5975845875465,268.14814570307,537.875,266.34373095625267S527.819193390179,265.00094833708954,524.0833333333333,263.2070897841071S513.0139172388654,254.44691416775913,510.29166666666663,252.18767919832084S501.09722222222223,240.31528405661027,496.5,240.31528405661027S487.30555555555554,240.31528405661027,482.7083333333333,240.31528405661027S470.30052775709095,246.3321564908788,468.91666666666663,248.44091096681404S455.9510812640007,280.5822920554541,455.125,282.3473044886943S442.6526102024032,305.296154109286,441.3333333333333,307.37570153180104S432.0033597843956,325.0486949445177,427.54166666666663,325.82631263514037S417.86999550100336,313.58533644566756,413.75,312.1831339123721S403.79033621083846,314.7261764933969,399.9583333333333,316.43857911278246S388.6714912348552,322.2199231476829,386.16666666666663,324.5092656406803S373.51789831163387,339.6620635649008,372.375,341.64900618240335S359.5692001303851,370.5763463697139,358.5833333333333,372.4632261767044S346.7268516119609,392.1718696602479,344.79166666666663,394.44156886105037S335.45393352363743,404.01571548432264,331,404.81458865209413S321.0778685623045,401.0670501347819,317.2083333333333,399.3890124546182S307.0367087421503,394.7337848349817,303.41666666666663,392.85297829348923S293.1850038256968,386.97957564085243,289.625,385.0579873759753S278.99141152346147,380.09616771831617,275.8333333333333,377.9642837204848S266.4767256807569,367.2857131712514,262.04166666666663,366.43765456597737S251.20590905875378,370.4872534005235,248.25,372.6898819321076S235.7856509608704,384.90836722682934,234.45833333333331,386.9916823755503S223.65441065901584,413.7909198041156,220.66666666666666,415.9837966616067S211.32077094968696,408.0572337703818,206.875,407.2366744076722S197.460923315036,409.91217900435004,193.08333333333331,410.89271961837744S183.57276828789333,412.25175859801607,179.29166666666666,413.41509191973654S168.475262319374,416.1913689751466,165.5,418.3881293586386S154.4474787831229,431.52501703715143,151.70833333333331,433.7810184858585S142.36016147172742,440.2796873826744,137.91666666666666,441.10617814460244S128.71912907998214,439.03072994684425,124.125,438.9115230061332S114.84928890199814,439.7846525010454,110.33333333333333,440.39045494135024S101.06476552819265,442.03272507275864,96.54166666666666,442.61174777384866S87.34636175889946,443.8586355866606,82.75,443.92152438305266S73.55538285698788,444.0186241560549,68.95833333333333,443.99044785629286S59.76353545369952,443.34422021472125,55.166666666666664,443.3039127068568S45.96865140415634,443.6205096526259,41.375,443.7485842145901S32.177873469476474,443.96194862862524,27.583333333333332,444.0729574216956S18.387221272498287,444.327483668051,13.791666666666666,444.4150257846841S2.2982048219941102,444.5678436353977,0,444.59840072308316Z"></path><path opacity="0.85" id="path_6000" class="layer" fill="red" d="M0,444.8349003276321C2.2902474289402073,444.69649909357554,9.208015337294079,444.2508681654037,13.791666666666666,444.0014603847492S22.990425212640776,443.4747862659012,27.583333333333332,443.33402308907887S36.77785803989883,443.1752967713367,41.375,443.1560880138422S50.56944520586595,443.216897590081,55.166666666666664,443.21876853190196S64.36111112087964,443.16752558198203,68.95833333333333,443.1673136666275S78.15277920689194,443.1670171999108,82.75,443.16445400788774S92.05692567423034,443.1466359080498,96.54166666666666,442.43639004773064S105.89434506398963,439.1423337760309,110.33333333333333,438.30424150149327S119.53211564884587,437.08743650164183,124.125,437.2285865641497S133.802160939617,440.5612464704858,137.91666666666666,439.151941753993S149.59122530360438,430.0721489518262,151.70833333333331,427.7807149746904S162.81586263816337,411.5634041091576,165.5,409.29735412071403S174.9370342745379,405.52163283744324,179.29166666666666,404.49382471715717S188.8135301832297,403.96933663965046,193.08333333333331,402.786959802286S202.28215657997376,396.71374440490933,206.875,396.8555582013237S218.58341138939653,405.92715438975017,220.66666666666666,403.638653809686S233.63929198875,368.3137904576438,234.45833333333331,366.5546752408088S243.66655087601717,344.6471575250702,248.25,344.3959040772136S257.45019284903157,344.5333895829451,262.04166666666663,344.695850806488S273.3427041742118,356.21460539425334,275.8333333333333,358.5051822013833S286.6907658274552,367.85465439086903,289.625,370.06363523367804S300.21643284879605,377.1563550296393,303.41666666666663,379.27075554391735S313.6971487767567,386.3352337393699,317.2083333333333,388.2879955475471S326.67940691888083,395.704609055332,331,394.61135613258915S343.40935578802083,383.41658142668535,344.79166666666663,381.3085000895194S357.79432305971784,354.27904280212994,358.5833333333333,352.54563045893053S371.25593071342007,322.68231776943924,372.375,320.7094279792317S383.57125801726664,306.1963067894516,386.16666666666663,303.9169375211256S396.30699319279137,298.3433029419734,399.9583333333333,296.48487962823174S409.5518036117361,288.58355204307685,413.75,289.877842897154S423.14373777359924,305.92493925308054,427.54166666666663,304.98873527397893S440.3916221635478,285.86145318758213,441.3333333333333,284.0060730137757S454.4694419775479,252.25092116664695,455.125,250.6434419014707S467.1084020984797,218.61529511864788,468.91666666666663,216.369594045939S478.1111111111111,210.60132430140035,482.7083333333333,210.60132430140035S491.90277777777777,210.60132430140035,496.5,210.60132430140035S507.3588394028861,223.50588426210288,510.29166666666663,225.71526945075075S520.4117456403753,229.5371467836796,524.0833333333333,231.38066199810658S535.2297387603917,237.2926221298948,537.875,239.564944010381S547.1425477946526,254.50009847198368,551.6666666666666,255.0751882443533S563.7246063859527,245.29935850147675,565.4583333333333,243.07123845944807S577.1231709625897,221.91831883140566,579.25,219.62613560153974S592.1157900029714,211.06059678491602,593.0416666666666,209.21690126314422S606.5066722234757,158.256338416434,606.8333333333333,157.07522613020558S620.4526657458658,110.35677622746782,620.625,109.48352954547727S629.8759376484086,17.812310225824227,634.4166666666666,17.30583186441646S646.6648311497368,104.23580941671698,648.2083333333333,106.40685145862017S661.8392942581443,56.689840001117425,662,56.10368842653668L662,67.8537233991201C661.8213832159245,68.46908229354952,649.7981024020829,117.55445931981856,648.2083333333333,115.36787385405137S639.0135050574734,29.95731512846834,634.4166666666666,29.915310236060577S620.8180892331358,114.19365716807404,620.625,115.11582345540535S607.1713978808607,160.4493801337422,606.8333333333333,161.64932605425008S594.0516226943265,211.11829423835715,593.0416666666666,213.0217072560753S581.4162259081342,220.66598475224956,579.25,222.96078042902695S567.0545657652016,245.29589785610048,565.4583333333333,247.48456805306222S556.2447384328123,260.48550564798853,551.6666666666666,260.781600501495S541.3510009711574,251.24274351513793,537.875,249.26856871092642S528.0103411027168,246.73812930317413,524.0833333333333,245.11580462437192S513.1446457107594,240.10410724769352,510.29166666666663,237.8733474589657S501.09722222222223,223.5482466829702,496.5,223.5482466829702S487.30555555555554,223.5482466829702,482.7083333333333,223.5482466829702S472.5007824456721,224.0868780005316,468.91666666666663,225.99242012521566S455.8650048191005,256.3221318132729,455.125,258.0116167840934S442.37129437101396,287.04510623423454,441.3333333333333,288.96718178750587S431.9944019280015,308.287784842677,427.54166666666663,309.0898834560322S417.8307027032886,295.3877509764988,413.75,293.9359374219355S403.8533193578295,297.62256849979906,399.9583333333333,299.27641256017426S388.9459536488347,303.400263554024,386.16666666666663,305.64805441331384S373.52551713399805,319.5935006836636,372.375,321.5848553130152S359.39061818967014,351.6410769938935,358.5833333333333,353.390236518335S346.22455678351565,379.22083866865484,344.79166666666663,381.35019072977985S335.34766165607977,393.338923114589,331,394.3805588015195S320.7304291302486,389.90469511805367,317.2083333333333,387.95875106342976S306.6413244453059,381.24469388555895,303.41666666666663,379.14087578275553S292.9179231605332,372.03537270497475,289.625,369.9629450009287S278.7010496572549,364.00812850546254,275.8333333333333,361.78108286226717S266.5460721264296,349.18854256713604,262.04166666666663,348.5419481567216S252.6087912441276,348.78407661638573,248.25,349.8035229659538S235.44295228675674,366.17110028368614,234.45833333333331,368.05711132545093S222.94742154717835,400.34011205562706,220.66666666666666,402.638653809686S211.46784342002624,395.997371997738,206.875,395.8555582013237S197.28911498293544,400.50387228491417,193.08333333333331,401.786959802286S183.60017649242315,403.1552888452834,179.29166666666666,404.27060054924345S168.2594683992943,406.6753131908879,165.5,408.9272509342662S153.87422743353346,424.48593846375553,151.70833333333331,426.7807149746904S142.0311723937163,436.74263703750023,137.91666666666666,438.151941753993S128.71788435115414,436.3697366266575,124.125,436.2285865641497S114.77232160267702,436.4661492269556,110.33333333333333,437.30424150149327S101.02883448882031,440.7336578350962,96.54166666666666,441.43639004773064S87.34722045574661,442.16160429249146,82.75,442.16445400788774S73.55555554320809,442.16707541460363,68.95833333333333,442.1673136666275S59.76388812746738,442.22063947372294,55.166666666666664,442.21876853190196S45.97214196010117,442.13687925634764,41.375,442.1560880138422S32.176241454025885,442.19325991225656,27.583333333333332,442.33402308907887S18.375317996039254,442.7520526040947,13.791666666666666,443.0014603847492S2.2902474289402073,443.69649909357554,0,443.8349003276321Z"></path><path opacity="0.85" id="path_3000" class="layer" fill="#330000" d="M0,444.8349003276321C2.2902474289402073,444.69649909357554,9.208015337294079,444.2508681654037,13.791666666666666,444.0014603847492S22.990425212640776,443.4747862659012,27.583333333333332,443.33402308907887S36.77785803989883,443.1752967713367,41.375,443.1560880138422S50.56944520586595,443.216897590081,55.166666666666664,443.21876853190196S64.36111112087964,443.16752558198203,68.95833333333333,443.1673136666275S78.15277920689194,443.1670171999108,82.75,443.16445400788774S92.05692567423034,443.1466359080498,96.54166666666666,442.43639004773064S105.89434506398963,439.1423337760309,110.33333333333333,438.30424150149327S119.53211564884587,437.08743650164183,124.125,437.2285865641497S133.802160939617,440.5612464704858,137.91666666666666,439.151941753993S149.59122530360438,430.0721489518262,151.70833333333331,427.7807149746904S162.87341214653185,411.5724462719458,165.5,409.29735412071403S174.80094949979704,404.58022418780587,179.29166666666666,403.88864333177355S188.6360346945388,403.60351044278616,193.08333333333331,402.786959802286S202.28215657997376,395.9849506077494,206.875,396.12676440416374S218.6360105440959,405.9215933980763,220.66666666666666,403.638653809686S233.68105205039535,366.83967662392354,234.45833333333331,365.1165490621818S243.66276117021798,342.70413192761526,248.25,342.4901314475818S257.4485665734599,342.6074115492431,262.04166666666663,342.74501006364375S273.44837890863124,354.55928941164785,275.8333333333333,356.8562782823918S286.3235084963404,367.2426775708591,289.625,369.31097251074686S299.7292806526386,372.3048456318895,303.41666666666663,374.1364889675724S313.6571057775568,381.08518142597353,317.2083333333333,383.01250212649984S326.65206701430384,390.14760560880364,331,389.1065038392966S343.4091600480679,378.51590777996176,344.79166666666663,376.4077413731234S357.8316760742304,348.74519751170754,358.5833333333333,347.0450366899379S371.3159376580244,315.9532179389466,372.375,314.0174669505552S383.6317304335797,298.9147326239826,386.16666666666663,296.6283023327105S396.2146864691358,290.9257865015412,399.9583333333333,289.13819462630084S409.77084205615824,281.8890174189039,413.75,283.4572569998106S423.04172165256256,300.6707775070218,427.54166666666663,300.0091567034967S440.4127818904475,281.24143558126883,441.3333333333333,279.4017169639433S454.49160097450056,246.4684812467111,455.125,244.8839681511337S466.5684035415052,212.69723391921298,468.91666666666663,210.39915913417568S478.1111111111111,205.86997597955377,482.7083333333333,205.86997597955377S491.90277777777777,205.86997597955377,496.5,205.86997597955377S507.519672884475,220.11392107327828,510.29166666666663,222.36325917299652S520.4723315928414,226.36538325579988,524.0833333333333,228.25250907991366S535.3076246284259,234.495589338235,537.875,236.7784337947018S547.1594688164316,252.14191186034353,551.6666666666666,252.7789029559558S563.8466812862036,242.87027671312987,565.4583333333333,240.67671789592504S577.3827488670606,217.49404186879872,579.25,215.23626827311753S592.1841090543045,205.93369881306194,593.0416666666666,204.14289512369032S606.5178569553502,153.30245862925358,606.8333333333333,152.14022385504296S620.4768165955822,103.33612085351517,620.625,102.52416413151019S630.1817464979353,2.2386768236715153,634.4166666666666,1S646.4508540496274,92.22227477300154,648.2083333333333,94.45628224512257S661.8785523120806,36.57657036899981,662,36.06236081641515L662,55.10368842653668C661.8392942581443,55.689840001117425,649.7518355169298,107.57789350052336,648.2083333333333,105.40685145862017S638.9573956849247,15.799353503008696,634.4166666666666,16.30583186441646S620.7973342541342,107.61028286348672,620.625,108.48352954547727S607.1599944431908,154.89411384397715,606.8333333333333,156.07522613020558S593.9675433303619,206.37320574137243,593.0416666666666,208.21690126314422S581.3768290374103,216.33395237167383,579.25,218.62613560153974S567.1920602807138,239.8431184174194,565.4583333333333,242.07123845944807S556.1907855386806,254.65027801672295,551.6666666666666,254.0751882443533S540.5202612396083,240.8372658908672,537.875,238.564944010381S527.7549210262912,232.22417721253356,524.0833333333333,230.38066199810658S513.2244939304472,226.92465463939863,510.29166666666663,224.71526945075075S501.09722222222223,209.60132430140035,496.5,209.60132430140035S487.30555555555554,209.60132430140035,482.7083333333333,209.60132430140035S470.7024493827115,213.1289200229412,468.91666666666663,215.369594045939S455.7805580224521,248.03596263629447,455.125,249.6434419014707S442.2750445031188,281.1506928399692,441.3333333333333,283.0060730137757S431.939595559734,303.0525312948773,427.54166666666663,303.98873527397893S417.9481963882639,290.1721337512311,413.75,288.877842897154S403.60967347387526,293.6264563144901,399.9583333333333,295.48487962823174S388.7620753160666,300.63756825279955,386.16666666666663,302.9169375211256S373.49406928657993,317.73653818902415,372.375,319.7094279792317S359.3723436069488,349.8122181157311,358.5833333333333,351.54563045893053S346.1739775453124,378.2004187523534,344.79166666666663,380.3085000895194S335.32059308111917,392.5181032098463,331,393.61135613258915S320.7195178899099,389.24075735572427,317.2083333333333,387.2879955475471S306.6169004845372,380.3851560581954,303.41666666666663,378.27075554391735S292.5592341725448,371.27261607648705,289.625,369.06363523367804S278.3239624924548,359.7957590085133,275.8333333333333,357.5051822013833S266.6331404843017,343.8583120300309,262.04166666666663,343.695850806488S252.83344912398283,343.14465062935693,248.25,343.3959040772136S235.27737467791664,363.79556002397385,234.45833333333331,365.5546752408088S222.74992194393678,400.3501532296218,220.66666666666666,402.638653809686S211.46784342002624,395.997371997738,206.875,395.8555582013237S197.35313648343694,400.6045829649215,193.08333333333331,401.786959802286S183.64629905879542,402.4660165968711,179.29166666666666,403.49382471715717S168.18413736183663,406.03130413227046,165.5,408.29735412071403S153.82544136306225,424.4892809975546,151.70833333333331,426.7807149746904S142.0311723937163,436.74263703750023,137.91666666666666,438.151941753993S128.71788435115414,436.3697366266575,124.125,436.2285865641497S114.77232160267702,436.4661492269556,110.33333333333333,437.30424150149327S101.02883448882031,440.7336578350962,96.54166666666666,441.43639004773064S87.34722045574661,442.16160429249146,82.75,442.16445400788774S73.55555554320809,442.16707541460363,68.95833333333333,442.1673136666275S59.76388812746738,442.22063947372294,55.166666666666664,442.21876853190196S45.97214196010117,442.13687925634764,41.375,442.1560880138422S32.176241454025885,442.19325991225656,27.583333333333332,442.33402308907887S18.375317996039254,442.7520526040947,13.791666666666666,443.0014603847492S2.2902474289402073,443.69649909357554,0,443.8349003276321Z"></path></g><g class="text_layers"><text class="label" style="font-weight: lighter; " font-size="18px" font-family="PT Sans Narrow" dy="6" opacity="1" pointer-events="none" text-anchor="middle" fill="#ffffff" x="648.2083333333333" y="386.57945318202025"><tspan x="648.2083333333333" dy="11px">Chem.</tspan><tspan x="648.2083333333333" dy="11px">&amp;</tspan><tspan x="648.2083333333333" dy="11px">Related</tspan><tspan x="648.2083333333333" dy="11px">Prods.</tspan></text><text class="label" style="font-weight: lighter; " font-size="18px" font-family="PT Sans Narrow" dy="6" opacity="1" pointer-events="none" text-anchor="middle" fill="#333333" x="510.29166666666663" y="389.6659303376406"><tspan x="510.29166666666663" dy="11px">Misc.</tspan><tspan x="510.29166666666663" dy="11px">manufactured...</tspan></text><text class="label" style="font-weight: lighter; " font-size="18px" font-family="PT Sans Narrow" dy="6" opacity="1" pointer-events="none" text-anchor="middle" fill="#333333" x="648.2083333333333" y="255.321821774108"><tspan x="648.2083333333333" dy="11px">Machinery</tspan><tspan x="648.2083333333333" dy="11px">&amp;</tspan><tspan x="648.2083333333333" dy="11px">Transport</tspan><tspan x="648.2083333333333" dy="11px">Equip.</tspan></text></g></g></g></svg>