<svg width="748" height="520" style="z-index: 10; position: absolute; "><rect id="svgbg" fill="#ffffff" width="748" height="520"></rect><g class="titles"></g><clipPath id="clipping"><rect width="748" height="520"></rect></clipPath><g class="parent" width="748" height="520" clip-path="url(#clipping)" transform="translate(0,0)"><g class="axes_labels"><text class="x_axis_label" x="374" y="510" font-family="sans-serif" font-size="14px" font-weight="lighter" fill="#333" text-anchor="middle">Year</text><text class="y_axis_label" y="15" x="-242.5" transform="rotate(-90)" font-family="sans-serif" font-size="14px" font-weight="lighter" fill="#333" text-anchor="middle">Current</text></g><g class="chart" transform="translate(40,5)"><rect style="fill: #fafafa; " id="background" x="0" y="0" width="698" height="475" stroke-width="1" stroke="#ccc" shape-rendering="crispEdges"></rect><g transform="translate(0,475)" class="xaxis"><path class="domain" d="M0,0V0H698V0"></path></g><g class="yaxis"><path class="domain" d="M0,0H0V475H0"></path></g><clipPath id="path_clipping"><rect width="698" height="475" y="1" x="1"></rect></clipPath><g class="layers" clip-path="url(#path_clipping)"><path opacity="0.85" id="path_5000" class="layer" fill="#71144b" d="M0,448.24632126782274C2.347517730496454,448.24632126782274,9.390070921985814,448.24632126782274,14.085106382978722,448.24632126782274S23.475177304964536,448.24632126782274,28.170212765957444,448.24632126782274S37.56028368794326,448.24632126782274,42.25531914893617,448.24632126782274S51.645390070921984,448.24632126782274,56.34042553191489,448.24632126782274S65.7304964539007,448.24632126782274,70.42553191489361,448.24632126782274S79.81560283687942,448.24632126782274,84.51063829787233,448.24632126782274S93.90070921985814,448.24632126782274,98.59574468085106,448.24632126782274S107.98581560283687,448.24632126782274,112.68085106382978,448.24632126782274S122.0709219858156,448.24632126782274,126.76595744680851,448.24632126782274S136.15602836879432,448.24632126782274,140.85106382978722,448.24632126782274S150.24113475177307,448.24632126782274,154.93617021276597,448.24632126782274S164.32624113475177,448.24632126782274,169.02127659574467,448.24632126782274S178.41134751773052,448.24632126782274,183.10638297872342,448.24632126782274S192.4964539007092,448.24632126782274,197.1914893617021,448.24632126782274S206.58156028368796,448.24632126782274,211.27659574468086,448.24632126782274S220.66666666666666,448.24632126782274,225.36170212765956,448.24632126782274S234.75177304964535,448.24632126782274,239.44680851063828,448.24632126782274S248.83687943262413,448.24632126782274,253.53191489361703,448.24632126782274S262.9219858156028,447.7338906475532,267.6170212765957,447.7338906475532S277.0070980969284,448.25158367345557,281.70212765957444,448.24632126782274S291.0922440164821,447.7169215328592,295.78723404255317,447.7023161740893S305.1773049653003,447.6877573992004,309.87234042553195,447.6876976142589S319.26242863791117,447.6696775368359,323.9574468085106,447.6786874597833S333.3475177304964,448.24632126782274,338.04255319148933,448.24632126782274S347.43262411347513,448.24632126782274,352.12765957446805,448.24632126782274S361.5177304964539,448.24632126782274,366.21276595744683,448.24632126782274S375.60283687943263,448.24632126782274,380.2978723404255,448.24632126782274S389.6879432624113,448.24632126782274,394.3829787234042,448.24632126782274S403.7730496453901,448.24632126782274,408.468085106383,448.24632126782274S417.85815602836885,448.24632126782274,422.5531914893617,448.24632126782274S431.9432624113475,448.24632126782274,436.6382978723404,448.24632126782274S446.0283687943262,448.24632126782274,450.7234042553191,448.24632126782274S460.14834164202813,447.9379892020667,464.8085106382979,447.534896634643S474.1985815602836,445.8096707090573,478.89361702127655,445.8096707090573S488.28368794326235,445.8096707090573,492.9787234042553,445.8096707090573S502.39558816406515,445.2031104689275,507.06382978723406,444.84944380528157S516.4766386694818,444.001433799352,521.1489361702128,443.6754912969022S530.5735686215288,443.28561064297475,535.2340425531914,442.8842715014967S544.7471089550789,441.99949223687855,549.3191489361702,441.24959874337173S558.7123017819116,438.3841209978709,563.4042553191489,438.26387024707645S572.7966823557725,438.52885388873807,577.4893617021277,438.42370404091054S586.9835029281073,436.48444780229465,591.5744680851063,435.7932292120396S601.0797282714583,434.90870492157484,605.6595744680851,434.18237915836716S615.4258350765701,432.6003054976874,619.7446808510639,431.3256662397226S629.1380127324992,425.99207677219624,633.8297872340426,425.86838487110447S643.2881979794915,430.0206934320444,647.9148936170212,430.58299901007746S659.6720379161025,429.5054178561142,662,429.2920524329353L662,447.24632126782274C659.6524822695035,447.24632126782274,652.6099290780141,447.24632126782274,647.9148936170212,447.24632126782274S638.5248226950355,447.24632126782274,633.8297872340426,447.24632126782274S624.4397163120568,447.24632126782274,619.7446808510639,447.24632126782274S610.354609929078,447.24632126782274,605.6595744680851,447.24632126782274S596.2695035460993,447.24632126782274,591.5744680851063,447.24632126782274S582.1843971631206,447.24632126782274,577.4893617021277,447.24632126782274S568.0992907801418,447.24632126782274,563.4042553191489,447.24632126782274S554.0141843971631,447.24632126782274,549.3191489361702,447.24632126782274S539.9290780141844,447.24632126782274,535.2340425531914,447.24632126782274S525.8439716312057,447.24632126782274,521.1489361702128,447.24632126782274S511.758865248227,447.24632126782274,507.06382978723406,447.24632126782274S497.6737588652482,447.24632126782274,492.9787234042553,447.24632126782274S483.5886524822695,447.24632126782274,478.89361702127655,447.24632126782274S469.5035460992908,447.24632126782274,464.8085106382979,447.24632126782274S455.41843971631204,447.24632126782274,450.7234042553191,447.24632126782274S441.33333333333326,447.24632126782274,436.6382978723404,447.24632126782274S427.2482269503546,447.24632126782274,422.5531914893617,447.24632126782274S413.1631205673759,447.24632126782274,408.468085106383,447.24632126782274S399.07801418439715,447.24632126782274,394.3829787234042,447.24632126782274S384.99290780141837,447.24632126782274,380.2978723404255,447.24632126782274S370.90780141843976,447.24632126782274,366.21276595744683,447.24632126782274S356.822695035461,447.24632126782274,352.12765957446805,447.24632126782274S342.73758865248226,447.24632126782274,338.04255319148933,447.24632126782274S328.6524822695035,447.24632126782274,323.9574468085106,447.24632126782274S314.56737588652487,447.24632126782274,309.87234042553195,447.24632126782274S300.4822695035461,447.24632126782274,295.78723404255317,447.24632126782274S286.39716312056737,447.24632126782274,281.70212765957444,447.24632126782274S272.31205673758865,447.24632126782274,267.6170212765957,447.24632126782274S258.2269503546099,447.24632126782274,253.53191489361703,447.24632126782274S244.1418439716312,447.24632126782274,239.44680851063828,447.24632126782274S230.05673758865245,447.24632126782274,225.36170212765956,447.24632126782274S215.97163120567376,447.24632126782274,211.27659574468086,447.24632126782274S201.886524822695,447.24632126782274,197.1914893617021,447.24632126782274S187.80141843971631,447.24632126782274,183.10638297872342,447.24632126782274S173.71631205673756,447.24632126782274,169.02127659574467,447.24632126782274S159.63120567375887,447.24632126782274,154.93617021276597,447.24632126782274S145.54609929078012,447.24632126782274,140.85106382978722,447.24632126782274S131.46099290780143,447.24632126782274,126.76595744680851,447.24632126782274S117.37588652482269,447.24632126782274,112.68085106382978,447.24632126782274S103.29078014184397,447.24632126782274,98.59574468085106,447.24632126782274S89.20567375886525,447.24632126782274,84.51063829787233,447.24632126782274S75.12056737588652,447.24632126782274,70.42553191489361,447.24632126782274S61.035460992907794,447.24632126782274,56.34042553191489,447.24632126782274S46.95035460992907,447.24632126782274,42.25531914893617,447.24632126782274S32.86524822695035,447.24632126782274,28.170212765957444,447.24632126782274S18.78014184397163,447.24632126782274,14.085106382978722,447.24632126782274S2.347517730496454,447.24632126782274,0,447.24632126782274Z"></path><path opacity="0.85" id="path_8000" class="layer" fill="#5493c9" d="M0,448.24632126782274C2.347517730496454,448.24632126782274,9.390070921985814,448.24632126782274,14.085106382978722,448.24632126782274S23.475177304964536,448.24632126782274,28.170212765957444,448.24632126782274S37.56028368794326,448.24632126782274,42.25531914893617,448.24632126782274S51.645390070921984,448.24632126782274,56.34042553191489,448.24632126782274S65.7304964539007,448.24632126782274,70.42553191489361,448.24632126782274S79.81560283687942,448.24632126782274,84.51063829787233,448.24632126782274S93.90070921985814,448.24632126782274,98.59574468085106,448.24632126782274S107.98581560283687,448.24632126782274,112.68085106382978,448.24632126782274S122.0709219858156,448.24632126782274,126.76595744680851,448.24632126782274S136.15602836879432,448.24632126782274,140.85106382978722,448.24632126782274S150.2421035991886,447.7583568011519,154.93617021276597,447.6909191684313S164.32641927952335,447.64644880832094,169.02127659574467,447.61752884490136S178.41159498579134,447.45539849149935,183.10638297872342,447.42131315622794S192.49716235685705,447.41198478165717,197.1914893617021,447.35431568398343S206.58724503830229,447.13921034898505,211.27659574468086,446.9759381588658S220.67255018217384,446.5395934236694,225.36170212765956,446.3734949643545S234.75200381558068,446.01101203007636,239.44680851063828,445.9780969727849S248.84247513478073,446.30557662126733,253.53191489361703,446.14358678154974S262.9329577176115,445.07202109540464,267.6170212765957,444.845320662296S277.0266967370291,444.768516384102,281.70212765957444,444.4657629113225S291.1666121513087,443.1868625084471,295.78723404255317,442.60048637541865S305.2514545687916,441.47619767360925,309.87234042553195,440.89084576443537S319.3427595121133,439.64093582882,323.9574468085106,439.03201739877534S333.4035512800688,437.6835653131176,338.04255319148933,437.1737224514728S347.4840740856263,436.4247971106088,352.12765957446805,435.9360105067801S361.57346434327786,434.7170028761368,366.21276595744683,434.2085088982628S375.60287155608535,432.8611537314001,380.2978723404255,432.848394150221S389.7032814030945,434.399864742087,394.3829787234042,434.1319508457444S404.04111859864014,432.32501452058636,408.468085106383,431.23564209675527S418.0190167230862,428.05395539386654,422.5531914893617,427.19992348411546S432.00533192602336,426.4659094480172,436.6382978723404,425.92965769016683S446.12996631069774,424.6224479794589,450.7234042553191,423.93930678850325S461.0964339948801,423.3346109717597,464.8085106382979,421.4244229003483S474.1985815602836,408.3508183801052,478.89361702127655,408.3508183801052S488.28368794326235,408.3508183801052,492.9787234042553,408.3508183801052S503.33106244600987,405.50100697606894,507.06382978723406,403.6057700486707S516.5967547590652,394.8543743480437,521.1489361702128,394.0479640615187S530.5819824499578,393.54884355561177,535.2340425531914,393.1017149977516S545.4822785484417,390.1634179950741,549.3191489361702,388.3488469280196S559.711298116831,381.70287931938657,563.4042553191489,379.77917660777536S573.8123450435318,375.6094217762193,577.4893617021277,373.6746680205239S588.003589809417,366.9602725787691,591.5744680851063,364.95671861856226S601.8309423370273,359.69018267331205,605.6595744680851,357.86888104331086S615.1238309171423,352.1414829065254,619.7446808510639,351.5559914993594S629.4091884072477,349.14215620824905,633.8297872340426,350.2435981101057S643.2967820071611,365.9546692725905,647.9148936170212,366.5506918644371S660.7025521482954,355.0465249144789,662,353.8793013247677L662,428.2920524329353C659.6720379161025,428.5054178561142,652.5415892545509,430.1453045881105,647.9148936170212,429.58299901007746S638.5215617355859,424.7446929700127,633.8297872340426,424.86838487110447S624.0635266255576,429.0510269817578,619.7446808510639,430.3256662397226S610.2394206647119,432.4560533951595,605.6595744680851,433.18237915836716S596.1654332421053,434.10201062178453,591.5744680851063,434.7932292120396S582.1820410484828,437.318554193083,577.4893617021277,437.42370404091054S568.0962088563862,437.143619496282,563.4042553191489,437.26387024707645S553.8911889172615,439.4997052498649,549.3191489361702,440.24959874337173S539.8945164848541,441.48293236001865,535.2340425531914,441.8842715014967S525.8212336709438,442.34954879445235,521.1489361702128,442.6754912969022S511.73207141040297,443.49577714163564,507.06382978723406,443.84944380528157S497.6737588652482,444.8096707090573,492.9787234042553,444.8096707090573S483.5886524822695,444.8096707090573,478.89361702127655,444.8096707090573S469.46867963456765,446.1318040672193,464.8085106382979,446.534896634643S455.41843971631204,447.24632126782274,450.7234042553191,447.24632126782274S441.33333333333326,447.24632126782274,436.6382978723404,447.24632126782274S427.2482269503546,447.24632126782274,422.5531914893617,447.24632126782274S413.1631205673759,447.24632126782274,408.468085106383,447.24632126782274S399.07801418439715,447.24632126782274,394.3829787234042,447.24632126782274S384.99290780141837,447.24632126782274,380.2978723404255,447.24632126782274S370.90780141843976,447.24632126782274,366.21276595744683,447.24632126782274S356.822695035461,447.24632126782274,352.12765957446805,447.24632126782274S342.73758865248226,447.24632126782274,338.04255319148933,447.24632126782274S328.6524650092295,446.6876895318018,323.9574468085106,446.6786874597833S314.56737588576357,446.6876378285013,309.87234042553195,446.6876976142589S300.4822239880974,446.68769787822947,295.78723404255317,446.7023161740893S286.39715722222047,447.2410588621899,281.70212765957444,447.24632126782274S272.31205673758865,446.7338906475532,267.6170212765957,446.7338906475532S258.2269503546099,447.24632126782274,253.53191489361703,447.24632126782274S244.1418439716312,447.24632126782274,239.44680851063828,447.24632126782274S230.05673758865245,447.24632126782274,225.36170212765956,447.24632126782274S215.97163120567376,447.24632126782274,211.27659574468086,447.24632126782274S201.886524822695,447.24632126782274,197.1914893617021,447.24632126782274S187.80141843971631,447.24632126782274,183.10638297872342,447.24632126782274S173.71631205673756,447.24632126782274,169.02127659574467,447.24632126782274S159.63120567375887,447.24632126782274,154.93617021276597,447.24632126782274S145.54609929078012,447.24632126782274,140.85106382978722,447.24632126782274S131.46099290780143,447.24632126782274,126.76595744680851,447.24632126782274S117.37588652482269,447.24632126782274,112.68085106382978,447.24632126782274S103.29078014184397,447.24632126782274,98.59574468085106,447.24632126782274S89.20567375886525,447.24632126782274,84.51063829787233,447.24632126782274S75.12056737588652,447.24632126782274,70.42553191489361,447.24632126782274S61.035460992907794,447.24632126782274,56.34042553191489,447.24632126782274S46.95035460992907,447.24632126782274,42.25531914893617,447.24632126782274S32.86524822695035,447.24632126782274,28.170212765957444,447.24632126782274S18.78014184397163,447.24632126782274,14.085106382978722,447.24632126782274S2.347517730496454,447.24632126782274,0,447.24632126782274Z"></path><path opacity="0.85" id="path_7000" class="layer" fill="#9edae5" d="M0,448.24632126782274C2.347517730496454,448.24632126782274,9.390070921985814,448.24632126782274,14.085106382978722,448.24632126782274S23.475177304964536,448.24632126782274,28.170212765957444,448.24632126782274S37.56028368794326,448.24632126782274,42.25531914893617,448.24632126782274S51.645390070921984,448.24632126782274,56.34042553191489,448.24632126782274S65.73778297973774,447.62560340213366,70.42553191489361,447.44078618504176S79.81755773711099,447.23147794486545,84.51063829787233,447.1356943122607S93.9040418110335,446.9908871009179,98.59574468085106,446.8658449976834S107.98592363241283,446.40742967832307,112.68085106382978,446.38490877648445S122.07095256964733,446.42240266112856,126.76595744680851,446.41041970493694S136.16927052583014,446.39158143374215,140.85106382978722,446.1425893813783S150.24605521342878,445.0641547468894,154.93617021276597,444.91224184087065S164.32940550071265,445.3520031362924,169.02127659574467,445.2301557022364S178.41936394654905,444.3745021261256,183.10638297872342,444.180664166885S192.57421727612888,444.1403818621455,197.1914893617021,443.5411701611539S206.59018087480104,439.0816270648115,211.27659574468086,438.88063038230297S220.67431418867096,439.34657191212017,225.36170212765956,439.15723912994525S234.9433466409426,435.6807978340151,239.44680851063828,434.75195750131644S249.00110040287635,434.20971056073085,253.53191489361703,433.3471244770834S263.27783656072603,430.63147163165905,267.6170212765957,429.38885257725445S277.0083460397354,425.3566923990213,281.70212765957444,425.27997697317846S291.09545442330136,425.5491235575257,295.78723404255317,425.4255286873872S306.0471011252654,420.71606661477404,309.87234042553195,418.89201111747377S319.86982658573623,413.5683519667638,323.9574468085106,411.9926353642736S333.7106439956709,409.2870193681453,338.04255319148933,408.03281443778S347.4925533134089,404.3636431905249,352.12765957446805,403.8365965039464S361.5187407508208,404.760784555778,366.21276595744683,404.8296478948156S375.63595048714126,403.8569621019065,380.2978723404255,404.24986546333014S389.71815336049445,407.5792123698803,394.3829787234042,407.2038128070751S404.6012773610696,403.77246144337613,408.468085106383,401.98288122838915S418.8215347403606,396.0625292221264,422.5531914893617,394.1664810496244S432.63702443384574,389.33575881609454,436.6382978723404,387.669646108845S446.0813139511737,382.93228623567273,450.7234042553191,382.436528029232S460.68645481109786,382.15250479248135,464.8085106382979,380.6156723232958S474.1985815602836,357.81073799853175,478.89361702127655,357.81073799853175S488.28368794326235,357.81073799853175,492.9787234042553,357.81073799853175S505.56030234652326,339.3406706620422,507.06382978723406,337.15011824638475S517.1362192003686,318.42304475740127,521.1489361702128,316.7683692640579S530.8630552255978,320.2785083897422,535.2340425531914,319.0883780251945S547.202147234048,307.1783915672364,549.3191489361702,304.84221908737584S561.8066397536318,290.22625450781925,563.4042553191489,288.00173518042413S576.0833412060347,267.7684722008663,577.4893617021277,265.61802516533953S589.9728628060136,247.1424834994254,591.5744680851063,244.91662319162617S600.9659003439958,226.54789079458897,605.6595744680851,226.46795537191014S615.0502380875388,226.5110009319585,619.7446808510639,226.563749243197S632.5760100867986,236.4996327584398,633.8297872340426,238.57678731011416S643.6511248181496,274.58986541891505,647.9148936170212,273.23383395248584S661.7783068226614,230.3041478181418,662,229.6176488744762L662,352.8793013247677C660.7025521482954,354.0465249144789,652.5330052268813,366.14671445628375,647.9148936170212,365.5506918644371S638.2503860608374,350.3450400119624,633.8297872340426,349.2435981101057S624.3655307849855,349.97050009219333,619.7446808510639,350.5559914993594S609.4882065991429,355.0475794133097,605.6595744680851,356.86888104331086S595.1453463607957,361.95316465835543,591.5744680851063,363.95671861856226S581.1663783607236,370.7399142648285,577.4893617021277,372.6746680205239S567.0972125214668,376.85547389616414,563.4042553191489,378.77917660777536S553.1560193238987,385.5342758609651,549.3191489361702,387.3488469280196S539.8861026564251,391.6545864398915,535.2340425531914,392.1017149977516S525.7011175813603,392.24155377499375,521.1489361702128,393.0479640615187S510.79659712845825,400.7105331212725,507.06382978723406,402.6057700486707S497.6737588652482,407.3508183801052,492.9787234042553,407.3508183801052S483.5886524822695,407.3508183801052,478.89361702127655,407.3508183801052S468.5205872817157,418.51423482893694,464.8085106382979,420.4244229003483S455.3168421999405,422.2561655975476,450.7234042553191,422.93930678850325S441.2712638186574,424.39340593231645,436.6382978723404,424.92965769016683S427.0873662556372,425.3458915743644,422.5531914893617,426.19992348411546S412.89505161412586,429.1462696729242,408.468085106383,430.23564209675527S399.06267604371396,432.86403694940185,394.3829787234042,433.1319508457444S384.99287312476565,431.8356345690419,380.2978723404255,431.848394150221S370.8520675716158,432.70001492038875,366.21276595744683,433.2085088982628S356.77124506330983,434.44722390295146,352.12765957446805,434.9360105067801S342.68155510290984,435.66387958982807,338.04255319148933,436.1737224514728S328.57213410490795,437.4230989687307,323.9574468085106,438.03201739877534S314.4932262822723,439.3054938552615,309.87234042553195,439.89084576443537S300.40785593379763,441.0141102423902,295.78723404255317,441.60048637541865S286.3775585821198,443.163009438543,281.70212765957444,443.4657629113225S272.30108483557996,443.61862022918734,267.6170212765957,443.845320662296S258.22135465245333,444.98159694183215,253.53191489361703,445.14358678154974S244.14161320569588,444.94518191549344,239.44680851063828,444.9780969727849S230.05085407314527,445.20739650503964,225.36170212765956,445.3734949643545S215.96594645105944,445.81266596874656,211.27659574468086,445.9759381588658S201.88581636654717,446.2966465863097,197.1914893617021,446.35431568398343S187.8011709716555,446.3872278209565,183.10638297872342,446.42131315622794S173.71613391196598,446.5886088814818,169.02127659574467,446.61752884490136S159.63023682634335,446.62348153571077,154.93617021276597,446.6909191684313S145.54609929078012,447.24632126782274,140.85106382978722,447.24632126782274S131.46099290780143,447.24632126782274,126.76595744680851,447.24632126782274S117.37588652482269,447.24632126782274,112.68085106382978,447.24632126782274S103.29078014184397,447.24632126782274,98.59574468085106,447.24632126782274S89.20567375886525,447.24632126782274,84.51063829787233,447.24632126782274S75.12056737588652,447.24632126782274,70.42553191489361,447.24632126782274S61.035460992907794,447.24632126782274,56.34042553191489,447.24632126782274S46.95035460992907,447.24632126782274,42.25531914893617,447.24632126782274S32.86524822695035,447.24632126782274,28.170212765957444,447.24632126782274S18.78014184397163,447.24632126782274,14.085106382978722,447.24632126782274S2.347517730496454,447.24632126782274,0,447.24632126782274Z"></path><path opacity="0.85" id="path_9000" class="layer" fill="#9c9a87" d="M0,448.24632126782274C2.347517730496454,448.24632126782274,9.390070921985814,448.24632126782274,14.085106382978722,448.24632126782274S23.475177304964536,448.24632126782274,28.170212765957444,448.24632126782274S37.56028368794326,448.24632126782274,42.25531914893617,448.24632126782274S51.645390070921984,448.24632126782274,56.34042553191489,448.24632126782274S65.73778297973774,447.62560340213366,70.42553191489361,447.44078618504176S79.81755773711099,447.23147794486545,84.51063829787233,447.1356943122607S93.9040418110335,446.9908871009179,98.59574468085106,446.8658449976834S107.98592363241283,446.40742967832307,112.68085106382978,446.38490877648445S122.07095256964733,446.42240266112856,126.76595744680851,446.41041970493694S136.16927052583014,446.39158143374215,140.85106382978722,446.1425893813783S150.24605521342878,445.0641547468894,154.93617021276597,444.91224184087065S164.32940550071265,445.3520031362924,169.02127659574467,445.2301557022364S178.41936394654905,444.3745021261256,183.10638297872342,444.180664166885S192.57421727612888,444.1403818621455,197.1914893617021,443.5411701611539S206.58822739039,439.05742928523097,211.27659574468086,438.88063038230297S220.67626685632578,439.3693265346642,225.36170212765956,439.15723912994525S234.95288049330847,434.5690526570115,239.44680851063828,433.6183884809898S248.95098777145864,433.1022111440064,253.53191489361703,432.3792159958681S263.2698318975734,429.7911886074786,267.6170212765957,428.56149238764334S277.0090922679332,424.50754751984164,281.70212765957444,424.41066410406097S291.0970895538079,424.7420705523025,295.78723404255317,424.5906130779673S306.02538557046455,420.0054242427598,309.87234042553195,418.1991773591767S319.8034376880569,412.8630968870435,323.9574468085106,411.363954347788S333.6604077149147,409.2037667979912,338.04255319148933,408.03281443778S347.4925533134089,404.3636431905249,352.12765957446805,403.8365965039464S361.5187407508208,404.760784555778,366.21276595744683,404.8296478948156S375.63595048714126,403.8569621019065,380.2978723404255,404.24986546333014S389.71815336049445,407.5792123698803,394.3829787234042,407.2038128070751S404.6012773610696,403.77246144337613,408.468085106383,401.98288122838915S418.8215347403606,396.0625292221264,422.5531914893617,394.1664810496244S432.63702443384574,389.33575881609454,436.6382978723404,387.669646108845S446.0813139511737,382.93228623567273,450.7234042553191,382.436528029232S460.68645481109786,382.15250479248135,464.8085106382979,380.6156723232958S474.1985815602836,357.81073799853175,478.89361702127655,357.81073799853175S488.28368794326235,357.81073799853175,492.9787234042553,357.81073799853175S505.56030234652326,339.3406706620422,507.06382978723406,337.15011824638475S517.1362192003686,318.42304475740127,521.1489361702128,316.7683692640579S530.8630552255978,320.2785083897422,535.2340425531914,319.0883780251945S547.202147234048,307.1783915672364,549.3191489361702,304.84221908737584S561.8463219736208,290.2124807546613,563.4042553191489,288.00173518042413S576.1141821568254,267.00467641420545,577.4893617021277,264.86799722710026S589.9317905511289,246.47159581700086,591.5744680851063,244.2323906472216S600.9658685183807,226.54695116322316,605.6595744680851,226.46795537191014S615.0502699231465,226.5096030069961,619.7446808510639,226.563749243197S632.5515690658709,236.48694570343505,633.8297872340426,238.57678731011416S644.2336392674268,274.55288812159574,647.9148936170212,272.6210532099451S661.8196612024561,224.41888937682515,662,223.79372824333154L662,228.6176488744762C661.7783068226614,229.3041478181418,652.1786624158929,270.8778024860566,647.9148936170212,272.23383395248584S635.0835643812865,239.65394186178852,633.8297872340426,237.57678731011416S624.439123614589,225.6164975544355,619.7446808510639,225.563749243197S610.3532485921744,225.3880199492313,605.6595744680851,225.46795537191014S593.176073364199,241.69076288382695,591.5744680851063,243.91662319162617S578.8953821982207,262.46757812981275,577.4893617021277,264.61802516533953S565.001870884666,284.777215853029,563.4042553191489,287.00173518042413S551.4361506382925,301.50604660751526,549.3191489361702,303.84221908737584S539.6050298807851,316.8982476606468,535.2340425531914,318.0883780251945S525.161653140057,314.1136937707146,521.1489361702128,315.7683692640579S508.56735722794485,333.9595658307273,507.06382978723406,336.15011824638475S497.6737588652482,356.81073799853175,492.9787234042553,356.81073799853175S483.5886524822695,356.81073799853175,478.89361702127655,356.81073799853175S468.9305664654979,378.0788398541103,464.8085106382979,379.6156723232958S455.36549455946454,380.9407698227913,450.7234042553191,381.436528029232S440.63957131083504,385.0035334015954,436.6382978723404,386.669646108845S426.2848482383628,391.2704328771224,422.5531914893617,393.1664810496244S412.3348928516964,399.19330101340216,408.468085106383,400.98288122838915S399.047804086314,405.82841324426994,394.3829787234042,406.2038128070751S384.95979419370974,403.6427688247538,380.2978723404255,403.24986546333014S370.90679116407284,403.8985112338532,366.21276595744683,403.8296478948156S356.7627658355272,402.3095498173679,352.12765957446805,402.8365965039464S342.37446238730774,405.7786095074147,338.04255319148933,407.03281443778S328.045067031285,409.4169187617834,323.9574468085106,410.9926353642736S313.6975797257985,416.0679556201735,309.87234042553195,417.89201111747377S300.47901366180497,424.3019338172487,295.78723404255317,424.4255286873872S286.3959092794135,424.2032615473356,281.70212765957444,424.27997697317846S271.9562059924654,427.14623352284985,267.6170212765957,428.38885257725445S258.06272938435774,431.48453839343597,253.53191489361703,432.3471244770834S243.95027038033396,432.8231171686178,239.44680851063828,433.75195750131644S230.04909006664815,437.96790634777034,225.36170212765956,438.15723912994525S215.9630106145607,437.6796336997944,211.27659574468086,437.88063038230297S201.80876144727534,441.9419584601623,197.1914893617021,442.5411701611539S187.79340201089778,442.98682620764436,183.10638297872342,443.180664166885S173.71314769077668,444.1083082681804,169.02127659574467,444.2301557022364S159.62628521210317,443.7603289348519,154.93617021276597,443.91224184087065S145.5328571337443,444.8935973290144,140.85106382978722,445.1425893813783S131.4609623239697,445.3984367487453,126.76595744680851,445.41041970493694S117.37577849524672,445.36238787464583,112.68085106382978,445.38490877648445S103.28744755066862,445.74080289444885,98.59574468085106,445.8658449976834S89.20371885863368,446.0399106796559,84.51063829787233,446.1356943122607S75.11328085004948,446.25596896794985,70.42553191489361,446.44078618504176S61.035460992907794,447.24632126782274,56.34042553191489,447.24632126782274S46.95035460992907,447.24632126782274,42.25531914893617,447.24632126782274S32.86524822695035,447.24632126782274,28.170212765957444,447.24632126782274S18.78014184397163,447.24632126782274,14.085106382978722,447.24632126782274S2.347517730496454,447.24632126782274,0,447.24632126782274Z"></path><path opacity="0.85" id="path_0000" class="layer" fill="#ffe999" d="M0,448.24632126782274C2.343929317020052,448.1546098315188,9.390070921985814,447.69521022215406,14.085106382978722,447.69521022215406S23.475177304964536,448.24632126782274,28.170212765957444,448.24632126782274S37.56028368794326,448.24632126782274,42.25531914893617,448.24632126782274S51.645390070921984,448.24632126782274,56.34042553191489,448.24632126782274S65.73778297973774,447.10051361513575,70.42553191489361,446.91569639804385S79.81762094014617,447.2330133425708,84.51063829787233,447.1356943122607S93.91053132832091,446.5460507547325,98.59574468085106,446.3315311199208S107.98585242281696,445.832730187755,112.68085106382978,445.84587818214607S122.07178478764429,446.4740604211056,126.76595744680851,446.41041970493694S136.21227653258592,445.9747701886182,140.85106382978722,445.4639637011033S150.26079432928987,443.61159408852257,154.93617021276597,443.3084177131214S164.32716527409008,443.7031200492067,169.02127659574467,443.63725645584276S178.43326971986417,443.23322855355434,183.10638297872342,442.9131583527324S192.72494499907177,442.7180567792962,197.1914893617021,441.70782629702865S206.60655529965484,436.88335301216193,211.27659574468086,436.5416986027225S220.69828738474118,436.4085511072913,225.36170212765956,436.0245452182083S234.79607690736,430.5987645510707,239.44680851063828,430.1448423647649S248.8540007975346,429.8887105580573,253.53191489361703,429.60570477320664S263.24954027679496,427.3622295778019,267.6170212765957,426.1661577214083S277.00779762950197,421.94859802302665,281.70212765957444,421.89105216692906S291.0935396131298,422.06842258533555,295.78723404255317,421.98908537837895S306.0322307380012,417.94334198868523,309.87234042553195,416.13143450076217S319.80309153187943,410.19604988672035,323.9574468085106,408.69732456936794S333.5983276546949,407.0245204538877,338.04255319148933,405.96874781264137S347.4833684954906,402.49065374513754,352.12765957446805,402.0051934679751S361.5192510932736,402.93968034354526,366.21276595744683,403.0241607778217S375.6154569107485,402.5230936326559,380.2978723404255,402.76618256567514S389.73534293455737,405.68842328577745,394.3829787234042,405.2190658392129S404.65518507064013,401.75530012513934,408.468085106383,399.92131697514424S418.8858953569254,393.61075187227493,422.5531914893617,391.6693543177364S432.7383576641277,386.76945215157207,436.6382978723404,385.0085364961028S446.0477191826883,379.2506268323718,450.7234042553191,378.9498340099602S460.33154743271365,378.85858258265256,464.8085106382979,377.87050289779745S474.1985815602836,354.46118559940606,478.89361702127655,354.46118559940606S488.28368794326235,354.46118559940606,492.9787234042553,354.46118559940606S505.58670066292785,336.1114511020482,507.06382978723406,333.9312531364475S517.111468598479,314.5121916953819,521.1489361702128,312.8828025371091S530.8328008441158,316.269722946972,535.2340425531914,315.13259616652755S547.1885578841622,303.1853142352171,549.3191489361702,300.8478407463503S561.9506112023446,286.3977035783944,563.4042553191489,284.22702869307875S576.2239531089247,260.8655049955803,577.4893617021277,258.7822672967132S590.0490796885575,240.04935723281042,591.5744680851063,237.85050688472896S600.9769317198484,218.4157461731558,605.6595744680851,218.17485066361152S615.053412782001,217.76615330966425,619.7446808510639,217.89909632552124S632.5363238026916,227.0676203869595,633.8297872340426,229.1651925619866S644.4082690886802,265.6233135348315,647.9148936170212,263.5819142779036S661.8325136481118,213.3700164601045,662,212.76576030365686L662,222.79372824333154C661.8196612024561,223.41888937682515,651.5961479666156,269.68921829829446,647.9148936170212,271.6210532099451S635.1080054022142,239.66662891679326,633.8297872340426,237.57678731011416S624.4390917789813,225.61789547939793,619.7446808510639,225.563749243197S610.3532804177895,225.38895958059712,605.6595744680851,225.46795537191014S593.2171456190838,240.99318547744232,591.5744680851063,243.2323906472216S578.8645412474299,261.7313180399951,577.4893617021277,263.86799722710026S564.962188664677,284.79098960618694,563.4042553191489,287.00173518042413S551.4361506382925,301.50604660751526,549.3191489361702,303.84221908737584S539.6050298807851,316.8982476606468,535.2340425531914,318.0883780251945S525.161653140057,314.1136937707146,521.1489361702128,315.7683692640579S508.56735722794485,333.9595658307273,507.06382978723406,336.15011824638475S497.6737588652482,356.81073799853175,492.9787234042553,356.81073799853175S483.5886524822695,356.81073799853175,478.89361702127655,356.81073799853175S468.9305664654979,378.0788398541103,464.8085106382979,379.6156723232958S455.36549455946454,380.9407698227913,450.7234042553191,381.436528029232S440.63957131083504,385.0035334015954,436.6382978723404,386.669646108845S426.2848482383628,391.2704328771224,422.5531914893617,393.1664810496244S412.3348928516964,399.19330101340216,408.468085106383,400.98288122838915S399.047804086314,405.82841324426994,394.3829787234042,406.2038128070751S384.95979419370974,403.6427688247538,380.2978723404255,403.24986546333014S370.90679116407284,403.8985112338532,366.21276595744683,403.8296478948156S356.7627658355272,402.3095498173679,352.12765957446805,402.8365965039464S342.42469866806397,405.86186207756884,338.04255319148933,407.03281443778S328.11145592896435,408.8648118085325,323.9574468085106,410.363954347788S313.71929528059934,415.39293047559363,309.87234042553195,417.1991773591767S300.4773785312984,423.4391556036321,295.78723404255317,423.5906130779673S286.39516305121566,423.3137806882803,281.70212765957444,423.41066410406097S271.96421065561805,426.3317961678081,267.6170212765957,427.56149238764334S258.1128420157754,430.6562208477298,253.53191489361703,431.3792159958681S243.94073652796808,431.66772430496803,239.44680851063828,432.6183884809898S230.04713739899333,437.9451517252263,225.36170212765956,438.15723912994525S215.96496409897173,437.70383147937497,211.27659574468086,437.88063038230297S201.80876144727534,441.9419584601623,197.1914893617021,442.5411701611539S187.79340201089778,442.98682620764436,183.10638297872342,443.180664166885S173.71314769077668,444.1083082681804,169.02127659574467,444.2301557022364S159.62628521210317,443.7603289348519,154.93617021276597,443.91224184087065S145.5328571337443,444.8935973290144,140.85106382978722,445.1425893813783S131.4609623239697,445.3984367487453,126.76595744680851,445.41041970493694S117.37577849524672,445.36238787464583,112.68085106382978,445.38490877648445S103.28744755066862,445.74080289444885,98.59574468085106,445.8658449976834S89.20371885863368,446.0399106796559,84.51063829787233,446.1356943122607S75.11328085004948,446.25596896794985,70.42553191489361,446.44078618504176S61.035460992907794,447.24632126782274,56.34042553191489,447.24632126782274S46.95035460992907,447.24632126782274,42.25531914893617,447.24632126782274S32.86524822695035,447.24632126782274,28.170212765957444,447.24632126782274S18.78014184397163,447.24632126782274,14.085106382978722,447.24632126782274S2.347517730496454,447.24632126782274,0,447.24632126782274Z"></path><path opacity="0.85" id="path_4000" class="layer" fill="#ffc41c" d="M0,448.24632126782274C2.343929317020052,448.1546098315188,9.390070921985814,447.69521022215406,14.085106382978722,447.69521022215406S23.475177304964536,448.24632126782274,28.170212765957444,448.24632126782274S37.56028368794326,448.24632126782274,42.25531914893617,448.24632126782274S51.645390070921984,448.24632126782274,56.34042553191489,448.24632126782274S65.73778297973774,447.10051361513575,70.42553191489361,446.91569639804385S79.81762094014617,447.2330133425708,84.51063829787233,447.1356943122607S93.91053132832091,446.5460507547325,98.59574468085106,446.3315311199208S107.98585242281696,445.832730187755,112.68085106382978,445.84587818214607S122.07178478764429,446.4740604211056,126.76595744680851,446.41041970493694S136.21227653258592,445.9747701886182,140.85106382978722,445.4639637011033S150.26079432928987,443.61159408852257,154.93617021276597,443.3084177131214S164.32716527409008,443.7031200492067,169.02127659574467,443.63725645584276S178.43326971986417,443.23322855355434,183.10638297872342,442.9131583527324S192.72494499907177,442.7180567792962,197.1914893617021,441.70782629702865S206.60655529965484,436.88335301216193,211.27659574468086,436.5416986027225S220.69828738474118,436.4085511072913,225.36170212765956,436.0245452182083S234.79607690736,430.5987645510707,239.44680851063828,430.1448423647649S248.8540007975346,429.8887105580573,253.53191489361703,429.60570477320664S263.24954027679496,427.3622295778019,267.6170212765957,426.1661577214083S277.00779762950197,421.94859802302665,281.70212765957444,421.89105216692906S291.0935396131298,422.06842258533555,295.78723404255317,421.98908537837895S306.0322307380012,417.94334198868523,309.87234042553195,416.13143450076217S319.80309153187943,410.19604988672035,323.9574468085106,408.69732456936794S333.5983276546949,407.0245204538877,338.04255319148933,405.96874781264137S347.4833684954906,402.49065374513754,352.12765957446805,402.0051934679751S361.5192510932736,402.93968034354526,366.21276595744683,403.0241607778217S375.6154569107485,402.5230936326559,380.2978723404255,402.76618256567514S389.73534293455737,405.68842328577745,394.3829787234042,405.2190658392129S404.65518507064013,401.75530012513934,408.468085106383,399.92131697514424S418.8858953569254,393.61075187227493,422.5531914893617,391.6693543177364S432.7383576641277,386.76945215157207,436.6382978723404,385.0085364961028S446.0477191826883,379.2506268323718,450.7234042553191,378.9498340099602S460.33154743271365,378.85858258265256,464.8085106382979,377.87050289779745S474.1985815602836,354.46118559940606,478.89361702127655,354.46118559940606S488.28368794326235,354.46118559940606,492.9787234042553,354.46118559940606S505.58670066292785,336.1114511020482,507.06382978723406,333.9312531364475S517.111468598479,314.5121916953819,521.1489361702128,312.8828025371091S530.8328008441158,316.269722946972,535.2340425531914,315.13259616652755S547.1885578841622,303.1853142352171,549.3191489361702,300.8478407463503S561.9506112023446,286.3977035783944,563.4042553191489,284.22702869307875S576.2239531089247,260.8655049955803,577.4893617021277,258.7822672967132S590.0490796885575,240.04935723281042,591.5744680851063,237.85050688472896S600.9771947031624,218.418281917131,605.6595744680851,218.17485066361152S615.0531487992977,217.77089197037813,619.7446808510639,217.89909632552124S632.5363238026916,226.56429605118953,633.8297872340426,228.66186822621663S644.353788038945,265.59140277779653,647.9148936170212,263.5819142779036S661.8325136481118,213.3700164601045,662,212.76576030365686L662,211.76576030365686C661.8325136481118,212.3700164601045,651.4215181453623,260.5405150209757,647.9148936170212,262.5819142779036S635.1232506653935,230.2627647370137,633.8297872340426,228.1651925619866S624.4359489201267,217.03203934137824,619.7446808510639,216.89909632552124S610.3422172163218,216.93395515406723,605.6595744680851,217.17485066361152S593.0998564816551,234.6516565366475,591.5744680851063,236.85050688472896S578.7547702953307,255.69902959784608,577.4893617021277,257.7822672967132S564.8578994359532,281.0563538077631,563.4042553191489,283.22702869307875S551.4497399881783,297.5103672574835,549.3191489361702,299.8478407463503S539.6352842622671,312.9954693860831,535.2340425531914,314.13259616652755S525.1864037419466,310.25341337883634,521.1489361702128,311.8828025371091S508.54095891154026,330.75105517084677,507.06382978723406,332.9312531364475S497.6737588652482,353.46118559940606,492.9787234042553,353.46118559940606S483.5886524822695,353.46118559940606,478.89361702127655,353.46118559940606S469.28547384388213,375.88242321294234,464.8085106382979,376.87050289779745S455.3990893279499,377.6490411875487,450.7234042553191,377.9498340099602S440.53823808055307,382.24762084063354,436.6382978723404,384.0085364961028S426.22048762179804,388.7279567631979,422.5531914893617,390.6693543177364S412.28098514212587,397.08733382514913,408.468085106383,398.92131697514424S399.0306145122511,403.7497083926483,394.3829787234042,404.2190658392129S384.9802877701025,402.0092714986944,380.2978723404255,401.76618256567514S370.90628082162004,402.1086412120981,366.21276595744683,402.0241607778217S356.7719506534455,400.5197331908127,352.12765957446805,401.0051934679751S342.48677872828375,403.91297517139503,338.04255319148933,404.96874781264137S328.1118020851418,406.1985992520155,323.9574468085106,407.69732456936794S313.7124501130627,413.3195270128391,309.87234042553195,415.13143450076217S300.48092847197654,420.90974817142234,295.78723404255317,420.98908537837895S286.3964576896469,420.83350631083147,281.70212765957444,420.89105216692906S271.9845022763965,423.9700858650147,267.6170212765957,425.1661577214083S258.2098289896995,428.32269898835597,253.53191489361703,428.60570477320664S244.09754011391655,428.69092017845907,239.44680851063828,429.1448423647649S230.02511687057793,434.64053932912526,225.36170212765956,435.0245452182083S215.94663618970688,435.200044193283,211.27659574468086,435.5416986027225S201.65803372433245,439.6975958147611,197.1914893617021,440.70782629702865S187.77949623758266,441.5930881519105,183.10638297872342,441.9131583527324S173.71538791739926,442.57139286247883,169.02127659574467,442.63725645584276S159.61154609624208,442.00524133772024,154.93617021276597,442.3084177131214S145.48985112698853,443.9531572135884,140.85106382978722,444.4639637011033S131.46013010597275,445.3467789887683,126.76595744680851,445.41041970493694S117.3758497048426,444.85902617653716,112.68085106382978,444.84587818214607S103.2809580333812,445.11701148510906,98.59574468085106,445.3315311199208S89.2036556555985,446.03837528195055,84.51063829787233,446.1356943122607S75.11328085004948,445.73087918095194,70.42553191489361,445.91569639804385S61.035460992907794,447.24632126782274,56.34042553191489,447.24632126782274S46.95035460992907,447.24632126782274,42.25531914893617,447.24632126782274S32.86524822695035,447.24632126782274,28.170212765957444,447.24632126782274S18.78014184397163,446.69521022215406,14.085106382978722,446.69521022215406S2.343929317020052,447.1546098315188,0,447.24632126782274Z"></path><path opacity="0.85" id="path_1000" class="layer" fill="#6e451e" d="M0,448.24632126782274C2.343929317020052,448.1546098315188,9.390070921985814,447.69521022215406,14.085106382978722,447.69521022215406S23.475177304964536,448.24632126782274,28.170212765957444,448.24632126782274S37.56028368794326,448.24632126782274,42.25531914893617,448.24632126782274S51.645390070921984,448.24632126782274,56.34042553191489,448.24632126782274S65.73778297973774,447.10051361513575,70.42553191489361,446.91569639804385S79.81762094014617,447.2330133425708,84.51063829787233,447.1356943122607S93.91053132832091,446.5460507547325,98.59574468085106,446.3315311199208S107.98585242281696,445.832730187755,112.68085106382978,445.84587818214607S122.07178478764429,446.4740604211056,126.76595744680851,446.41041970493694S136.21227653258592,445.9747701886182,140.85106382978722,445.4639637011033S150.26079432928987,443.61159408852257,154.93617021276597,443.3084177131214S164.32716527409008,443.7031200492067,169.02127659574467,443.63725645584276S178.43326971986417,443.23322855355434,183.10638297872342,442.9131583527324S192.72494499907177,442.7180567792962,197.1914893617021,441.70782629702865S206.60655529965484,436.88335301216193,211.27659574468086,436.5416986027225S220.69828738474118,436.4085511072913,225.36170212765956,436.0245452182083S234.91933639206837,431.01584084978913,239.44680851063828,430.1448423647649S248.90872717696982,429.64488938540666,253.53191489361703,429.06855128226937S263.2503148016986,426.8347456941336,267.6170212765957,425.63736676101297S277.0078066744607,421.40201174446963,281.70212765957444,421.34409819585557S291.0935489688433,421.5221846346639,295.78723404255317,421.4425712398468S306.0289843169841,417.3859859351016,309.87234042553195,415.57675763504S319.8022115270045,409.6793388717945,323.9574468085106,408.18167510753807S333.60409340126,406.4905660695376,338.04255319148933,405.4234199699639S347.48494936964033,401.90154538824703,352.12765957446805,401.408665077453S361.51953202884715,402.3408571762186,366.21276595744683,402.43280832059133S375.6196131021334,401.8568401589154,380.2978723404255,402.13698925999165S389.73559967269887,405.1295225514771,394.3829787234042,404.65890869405035S404.6582173824503,401.12075265511686,408.468085106383,399.2843507405861S418.88352430242816,393.02031201741255,422.5531914893617,391.080528444475S432.74070405751786,386.15657693954853,436.6382978723404,384.39359547969264S446.0761297150166,378.80954436512394,450.7234042553191,378.3384200601409S460.60226212735455,378.10252389048327,464.8085106382979,376.66866218836043S474.1985815602836,352.362562469677,478.89361702127655,352.362562469677S488.28368794326235,352.362562469677,492.9787234042553,352.362562469677S505.61582703875933,333.67516486452314,507.06382978723406,331.50682165088887S517.0555338184822,311.7477721988944,521.1489361702128,310.17846458585814S530.8165715991179,313.4363337447877,535.2340425531914,312.32902477832977S547.2478245869253,299.9704679901794,549.3191489361702,297.6392544197084S561.9777166129942,282.78360734883415,563.4042553191489,280.6242933068945S576.2469235426271,257.0698900863066,577.4893617021277,254.9987458043304S590.1202272141807,235.83547210146497,591.5744680851063,233.66455157156284S601.0444264620585,213.55287623155695,605.6595744680851,212.9456757469605S615.0699771618423,211.94641136304207,619.7446808510639,212.25470506798538S632.5865282447288,221.60601914507222,633.8297872340426,223.6776011800196S644.3124588667343,261.17730282653605,647.9148936170212,259.1933616055228S661.8338136147322,208.76572228530543,662,208.16363626874733L662,211.76576030365686C661.8325136481118,212.3700164601045,651.4759991950974,260.57242577801065,647.9148936170212,262.5819142779036S635.1232506653935,229.75944040124372,633.8297872340426,227.66186822621663S624.4362129028301,217.02730068066435,619.7446808510639,216.89909632552124S610.3419542330079,216.93141941009205,605.6595744680851,217.17485066361152S593.0998564816551,234.6516565366475,591.5744680851063,236.85050688472896S578.7547702953307,255.69902959784608,577.4893617021277,257.7822672967132S564.8578994359532,281.0563538077631,563.4042553191489,283.22702869307875S551.4497399881783,297.5103672574835,549.3191489361702,299.8478407463503S539.6352842622671,312.9954693860831,535.2340425531914,314.13259616652755S525.1864037419466,310.25341337883634,521.1489361702128,311.8828025371091S508.54095891154026,330.75105517084677,507.06382978723406,332.9312531364475S497.6737588652482,353.46118559940606,492.9787234042553,353.46118559940606S483.5886524822695,353.46118559940606,478.89361702127655,353.46118559940606S469.28547384388213,375.88242321294234,464.8085106382979,376.87050289779745S455.3990893279499,377.6490411875487,450.7234042553191,377.9498340099602S440.53823808055307,382.24762084063354,436.6382978723404,384.0085364961028S426.22048762179804,388.7279567631979,422.5531914893617,390.6693543177364S412.28098514212587,397.08733382514913,408.468085106383,398.92131697514424S399.0306145122511,403.7497083926483,394.3829787234042,404.2190658392129S384.9802877701025,402.0092714986944,380.2978723404255,401.76618256567514S370.90628082162004,402.1086412120981,366.21276595744683,402.0241607778217S356.7719506534455,400.5197331908127,352.12765957446805,401.0051934679751S342.48677872828375,403.91297517139503,338.04255319148933,404.96874781264137S328.1118020851418,406.1985992520155,323.9574468085106,407.69732456936794S313.7124501130627,413.3195270128391,309.87234042553195,415.13143450076217S300.48092847197654,420.90974817142234,295.78723404255317,420.98908537837895S286.3964576896469,420.83350631083147,281.70212765957444,420.89105216692906S271.9845022763965,423.9700858650147,267.6170212765957,425.1661577214083S258.2098289896995,428.32269898835597,253.53191489361703,428.60570477320664S244.09754011391655,428.69092017845907,239.44680851063828,429.1448423647649S230.02511687057793,434.64053932912526,225.36170212765956,435.0245452182083S215.94663618970688,435.200044193283,211.27659574468086,435.5416986027225S201.65803372433245,439.6975958147611,197.1914893617021,440.70782629702865S187.77949623758266,441.5930881519105,183.10638297872342,441.9131583527324S173.71538791739926,442.57139286247883,169.02127659574467,442.63725645584276S159.61154609624208,442.00524133772024,154.93617021276597,442.3084177131214S145.48985112698853,443.9531572135884,140.85106382978722,444.4639637011033S131.46013010597275,445.3467789887683,126.76595744680851,445.41041970493694S117.3758497048426,444.85902617653716,112.68085106382978,444.84587818214607S103.2809580333812,445.11701148510906,98.59574468085106,445.3315311199208S89.2036556555985,446.03837528195055,84.51063829787233,446.1356943122607S75.11328085004948,445.73087918095194,70.42553191489361,445.91569639804385S61.035460992907794,447.24632126782274,56.34042553191489,447.24632126782274S46.95035460992907,447.24632126782274,42.25531914893617,447.24632126782274S32.86524822695035,447.24632126782274,28.170212765957444,447.24632126782274S18.78014184397163,446.69521022215406,14.085106382978722,446.69521022215406S2.343929317020052,447.1546098315188,0,447.24632126782274Z"></path><path opacity="0.85" id="path_2000" class="layer" fill="#d66011" d="M0,448.24632126782274C2.343929317020052,448.1546098315188,9.390070921985814,447.69521022215406,14.085106382978722,447.69521022215406S23.475177304964536,448.24632126782274,28.170212765957444,448.24632126782274S37.56028368794326,448.24632126782274,42.25531914893617,448.24632126782274S51.645390070921984,448.24632126782274,56.34042553191489,448.24632126782274S65.73778297973774,447.10051361513575,70.42553191489361,446.91569639804385S79.81762094014617,447.2330133425708,84.51063829787233,447.1356943122607S93.91053132832091,446.5460507547325,98.59574468085106,446.3315311199208S107.98585242281696,445.832730187755,112.68085106382978,445.84587818214607S122.07178478764429,446.4740604211056,126.76595744680851,446.41041970493694S136.21227653258592,445.9747701886182,140.85106382978722,445.4639637011033S150.26079432928987,443.61159408852257,154.93617021276597,443.3084177131214S164.32716527409008,443.7031200492067,169.02127659574467,443.63725645584276S178.4535434180539,443.3562506166264,183.10638297872342,442.9131583527324S192.80209998152012,442.1128672835396,197.1914893617021,440.9545928509435S206.66241799559035,436.0903998980275,211.27659574468086,435.4795874430936S220.74984737288685,435.21359581435155,225.36170212765956,434.59422731701983S234.95299936503935,429.9778121061666,239.44680851063828,429.0268795867664S248.90834399650961,428.44940718903024,253.53191489361703,427.8745841921386S263.2287240073873,426.23916257400396,267.6170212765957,425.0789650178223S277.0237388125499,420.70588669676874,281.70212765957444,420.4268180078582S291.11448445453976,420.3210729291689,295.78723404255317,419.99837135838936S305.98438887341626,416.31618719147696,309.87234042553195,414.5447744399685S319.7941207943738,408.6514170249828,323.9574468085106,407.16357302373194S333.58584684969014,405.5082242011902,338.04255319148933,404.47761132675765S347.4914705145705,401.1715389250644,352.12765957446805,400.64921427413117S361.5179033087156,401.1515216591315,366.21276595744683,401.18000551126624S375.6165541665059,400.67085815343654,380.2978723404255,400.9242649119753S389.7272752074742,403.96980717882235,394.3829787234042,403.5418844347229S404.7074606990117,400.2095959414484,408.468085106383,398.3350375895247S419.00214674701175,391.51540945897636,422.5531914893617,389.4998791995324S432.84266700022147,384.19361311779863,436.6382978723404,382.3459638480357S446.1290815812789,376.46731914811187,450.7234042553191,375.7870934203843S460.87953230919237,375.335394301667,464.8085106382979,373.6005104813372S474.1985815602836,349.70505492252914,478.89361702127655,349.70505492252914S488.28368794326235,349.70505492252914,492.9787234042553,349.70505492252914S505.6205662024394,330.52866516773844,507.06382978723406,328.3622940234106S517.0241187032643,308.95456902145156,521.1489361702128,307.4209311431365S530.8110075473328,310.61607882139174,535.2340425531914,309.51923446840976S547.2255059910575,297.18691847476373,549.3191489361702,294.8531688977222S562.0516462330477,280.2446221059243,563.4042553191489,278.1183586499286S576.322112818978,252.59962393664526,577.4893617021277,250.57038640915422S590.1227893445786,231.31490330900093,591.5744680851063,229.1450387973212S600.9682705721553,208.59589727550704,605.6595744680851,208.4635873903182S615.0509899649531,208.53857474435597,619.7446808510639,208.6180166657216S632.6638879771823,218.753767389534,633.8297872340426,220.7822193307337S644.2680798032255,259.58421082319467,647.9148936170212,257.62904607747157S661.8392480462649,206.27223210487065,662,205.6793350893819L662,207.16363626874733C661.8338136147322,207.76572228530543,651.5173283673081,256.20942038450954,647.9148936170212,258.1933616055228S635.0730462233563,224.74918321496696,633.8297872340426,222.6776011800196S624.4193845402855,211.5629987729287,619.7446808510639,211.25470506798538S610.2747224741117,211.33847526236403,605.6595744680851,211.9456757469605S593.028708956032,230.4936310416607,591.5744680851063,232.66455157156284S578.7317998616282,251.92760152235422,577.4893617021277,253.9987458043304S564.8307940253036,277.4649792649549,563.4042553191489,279.6242933068945S551.3904732854152,294.3080408492374,549.3191489361702,296.6392544197084S539.651513507265,310.22171581187183,535.2340425531914,311.32902477832977S525.2423385219433,307.6091569728219,521.1489361702128,309.17846458585814S508.5118325357088,328.3384784372546,507.06382978723406,330.50682165088887S497.6737588652482,351.362562469677,492.9787234042553,351.362562469677S483.5886524822695,351.362562469677,478.89361702127655,351.362562469677S469.01475914924123,374.2348004862376,464.8085106382979,375.66866218836043S455.37067879562164,376.86729575515784,450.7234042553191,377.3384200601409S440.5358916871629,381.63061401983674,436.6382978723404,383.39359547969264S426.2228586762953,388.1407448715375,422.5531914893617,390.080528444475S412.2779528303157,396.4479488260553,408.468085106383,398.2843507405861S399.0303577741096,403.1882948366236,394.3829787234042,403.65890869405035S384.97613157871757,401.4171383610679,380.2978723404255,401.13698925999165S370.9059998860465,401.52475946496406,366.21276595744683,401.43280832059133S356.7703697792958,399.915784766659,352.12765957446805,400.408665077453S342.48101298171866,403.3562738703902,338.04255319148933,404.4234199699639S328.11268209001673,405.6840113432816,323.9574468085106,407.18167510753807S313.71569653407977,412.7675293349784,309.87234042553195,414.57675763504S300.480919116263,420.3629578450297,295.78723404255317,420.4425712398468S286.3964486446882,420.2861846472415,281.70212765957444,420.34409819585557S271.98372775149284,423.43998782789237,267.6170212765957,424.63736676101297S258.15510261026424,427.4922131791321,253.53191489361703,428.06855128226937S243.97428062920818,428.27384387974064,239.44680851063828,429.1448423647649S230.02511687057793,434.64053932912526,225.36170212765956,435.0245452182083S215.94663618970688,435.200044193283,211.27659574468086,435.5416986027225S201.65803372433245,439.6975958147611,197.1914893617021,440.70782629702865S187.77949623758266,441.5930881519105,183.10638297872342,441.9131583527324S173.71538791739926,442.57139286247883,169.02127659574467,442.63725645584276S159.61154609624208,442.00524133772024,154.93617021276597,442.3084177131214S145.48985112698853,443.9531572135884,140.85106382978722,444.4639637011033S131.46013010597275,445.3467789887683,126.76595744680851,445.41041970493694S117.3758497048426,444.85902617653716,112.68085106382978,444.84587818214607S103.2809580333812,445.11701148510906,98.59574468085106,445.3315311199208S89.2036556555985,446.03837528195055,84.51063829787233,446.1356943122607S75.11328085004948,445.73087918095194,70.42553191489361,445.91569639804385S61.035460992907794,447.24632126782274,56.34042553191489,447.24632126782274S46.95035460992907,447.24632126782274,42.25531914893617,447.24632126782274S32.86524822695035,447.24632126782274,28.170212765957444,447.24632126782274S18.78014184397163,446.69521022215406,14.085106382978722,446.69521022215406S2.343929317020052,447.1546098315188,0,447.24632126782274Z"></path><path opacity="0.85" id="path_3000" class="layer" fill="#330000" d="M0,447.74571709678764C2.343548494100866,447.6492697122839,9.390091275778383,447.1758282292529,14.085106382978722,447.1660526799793S23.47518497686153,447.68106189963396,28.170212765957444,447.68706354687305S37.56028369856147,447.6807935307937,42.25531914893617,447.6810168083336S51.64641223726673,447.8195683469927,56.34042553191489,447.75030029944116S65.73449593678532,446.4458532296357,70.42553191489361,446.30887980847103S79.81683898450363,446.5418928831262,84.51063829787233,446.4657205202267S93.9162426394338,445.8645403814295,98.59574468085106,445.5949320198854S107.98631830886987,444.8912801478218,112.68085106382978,444.84270062602474S122.08144023302988,445.5253986981906,126.76595744680851,445.30342367677144S136.653098755018,444.9523960193221,140.85106382978722,443.5078600657824S150.43431402719474,436.542503425897,154.93617021276597,435.6099449473117S164.3988166604871,435.0524883334254,169.02127659574467,434.47328417253567S178.93740071084972,431.62596389990415,183.10638297872342,430.1450498463304S193.1805811654751,426.12309975537846,197.1914893617021,424.46660597225946S207.45968101772613,420.3415994862765,211.27659574468086,418.5108313519147S222.3122757036769,413.19500004905836,225.36170212765956,410.95487423093925S235.27258363752063,399.29127690732963,239.44680851063828,397.8168344669163S248.8606180758975,395.7919902250232,253.53191489361703,396.12499210006285S262.923939191989,400.71400694907976,267.6170212765957,400.809753258264S277.0094619057289,401.0577065820598,281.70212765957444,400.9522540165285S291.4150118441062,396.6806856048785,295.78723404255317,395.49265727505787S305.2120904586483,393.7004192658459,309.87234042553195,393.2977915249105S319.42231706485404,393.17892457269517,323.9574468085106,392.32734182576286S333.7244821198339,387.69408411594765,338.04255319148933,386.41824751800795S347.68898534181886,385.0707705496348,352.12765957446805,384.00404472802006S361.97660348116744,381.0424560018506,366.21276595744683,379.648232017255S375.64553754755786,374.2868328888533,380.2978723404255,374.7325433374607S389.7095364627538,382.0293694319773,394.3829787234042,382.3470399767615S404.7476588380675,378.5515690066058,408.468085106383,376.64737320738277S419.05516408060095,369.9751637813774,422.5531914893617,367.928906960933S433.0300807547442,362.14878902981195,436.6382978723404,360.16851719232056S447.12930562653855,354.457641463145,450.7234042553191,352.4684517891751S462.1717766695139,346.9070661964288,464.8085106382979,344.57743243497487S474.1985815602836,327.5792215885335,478.89361702127655,327.5792215885335S488.28368794326235,327.5792215885335,492.9787234042553,327.5792215885335S506.46851377399963,300.32880138404767,507.06382978723406,298.7665502400189S519.501936327587,255.89442855044794,521.1489361702128,253.65386741899707S530.6735701167316,261.2274628700749,535.2340425531914,260.44409133347807S547.9741547229453,250.93763515886948,549.3191489361702,248.81495145838258S562.8918137438642,217.4495851369592,563.4042553191489,215.98557181749499S577.1454163129998,169.5577575028563,577.4893617021277,168.3344270618478S591.1760343181135,117.09934845074588,591.5744680851063,115.79094820685702S603.1097590707786,78.166210101656,605.6595744680851,75.82742512885528S616.7969255045888,72.47447249569315,619.7446808510639,70.20498922865647S633.4150759732919,36.23156192637558,633.8297872340426,37.56389020630667S646.5523957468087,158.57557830544724,647.9148936170212,160.70644089365925S661.9278281837982,82.02560011181686,662,81.62036456658166L662,204.6793350893819C661.8392480462649,205.27223210487065,651.5617074308169,254.6738813317485,647.9148936170212,256.62904607747157S634.9956864909028,221.81067127193342,633.8297872340426,219.7822193307337S624.4383717371746,207.69745858708723,619.7446808510639,207.6180166657216S610.3508783640149,207.33127750512935,605.6595744680851,207.4635873903182S593.0261468256341,225.9751742856415,591.5744680851063,228.1450387973212S578.6566105852773,247.5411488816632,577.4893617021277,249.57038640915422S564.7568644052501,274.9920951939329,563.4042553191489,277.1183586499286S551.4127918812829,291.51941932068064,549.3191489361702,293.8531688977222S539.6570775590501,307.4223901154278,535.2340425531914,308.51923446840976S525.2737536371612,304.88729326482144,521.1489361702128,306.4209311431365S508.5070933720287,325.19592287908273,507.06382978723406,327.3622940234106S497.6737588652482,348.70505492252914,492.9787234042553,348.70505492252914S483.5886524822695,348.70505492252914,478.89361702127655,348.70505492252914S468.7374889674034,370.8656266610074,464.8085106382979,372.6005104813372S455.3177269293593,374.1068676926567,450.7234042553191,374.7870934203843S440.4339287444593,379.49831457827275,436.6382978723404,381.3459638480357S426.1042362317117,386.48434894008847,422.5531914893617,388.4998791995324S412.2287095137543,395.46047923760096,408.468085106383,397.3350375895247S399.03868223933426,402.1139616906234,394.3829787234042,402.5418844347229S384.979204005631,400.1775473889709,380.2978723404255,399.9242649119753S370.9076280777614,400.20853287680865,366.21276595744683,400.18000551126624S356.7636134066425,399.12585999304406,352.12765957446805,399.64921427413117S342.4992595332885,402.4469984523251,338.04255319148933,403.47761132675765S328.12077282264744,404.6757290224811,323.9574468085106,406.16357302373194S313.7602919776476,411.77336168846,309.87234042553195,413.5447744399685S300.45998363056657,418.6756697876098,295.78723404255317,418.99837135838936S286.380516506599,419.1477493189476,281.70212765957444,419.4268180078582S272.00531854580413,422.9187674616407,267.6170212765957,424.0789650178223S258.15548579072447,426.299761195247,253.53191489361703,426.8745841921386S243.9406176562372,427.07594706736626,239.44680851063828,428.0268795867664S229.97355688243226,432.9748588196881,225.36170212765956,433.59422731701983S215.89077349377138,433.86877498815966,211.27659574468086,434.4795874430936S201.5808787418841,438.7963184183475,197.1914893617021,439.9545928509435S187.75922253939294,441.4700660888384,183.10638297872342,441.9131583527324S173.71538791739926,442.57139286247883,169.02127659574467,442.63725645584276S159.61154609624208,442.00524133772024,154.93617021276597,442.3084177131214S145.48985112698853,443.9531572135884,140.85106382978722,444.4639637011033S131.46013010597275,445.3467789887683,126.76595744680851,445.41041970493694S117.3758497048426,444.85902617653716,112.68085106382978,444.84587818214607S103.2809580333812,445.11701148510906,98.59574468085106,445.3315311199208S89.2036556555985,446.03837528195055,84.51063829787233,446.1356943122607S75.11328085004948,445.73087918095194,70.42553191489361,445.91569639804385S61.035460992907794,447.24632126782274,56.34042553191489,447.24632126782274S46.95035460992907,447.24632126782274,42.25531914893617,447.24632126782274S32.86524822695035,447.24632126782274,28.170212765957444,447.24632126782274S18.78014184397163,446.69521022215406,14.085106382978722,446.69521022215406S2.343929317020052,447.1546098315188,0,447.24632126782274Z"></path><path opacity="0.85" id="path_6000" class="layer" fill="red" d="M0,447.74571709678764C2.343548494100866,447.6492697122839,9.390091275778383,447.1758282292529,14.085106382978722,447.1660526799793S23.47518497686153,447.68106189963396,28.170212765957444,447.68706354687305S37.56028369856147,447.6807935307937,42.25531914893617,447.6810168083336S51.64641223726673,447.8195683469927,56.34042553191489,447.75030029944116S65.73449593678532,446.4458532296357,70.42553191489361,446.30887980847103S79.81683898450363,446.5418928831262,84.51063829787233,446.4657205202267S93.9162426394338,445.8645403814295,98.59574468085106,445.5949320198854S107.98631830886987,444.8912801478218,112.68085106382978,444.84270062602474S122.09100464109594,445.6098310292435,126.76595744680851,445.30342367677144S136.71833976096346,444.52078597368273,140.85106382978722,442.9963589257099S150.42170347787774,435.81521993959115,154.93617021276597,434.9123514511829S164.39446125525313,434.3756707040871,169.02127659574467,433.813850537071S178.95761476852107,430.8426126599368,183.10638297872342,429.33717710689757S193.26058524276127,425.32504170718465,197.1914893617021,423.5919153298295S207.53908228133247,418.8087553777267,211.27659574468086,416.916996577655S222.39291918392104,411.5972561838759,225.36170212765956,409.3334388260022S235.8554672009179,397.4269822047922,239.44680851063828,395.43606723956594S248.85560992171162,392.5204409564117,253.53191489361703,392.81639615445033S262.92257732729735,397.269014422825,267.6170212765957,397.32170994915526S277.0082775593895,397.48764832655644,281.70212765957444,397.4130567322085S291.5108306564737,392.1522181330829,295.78723404255317,390.81421976885326S305.1994658977129,388.9209785583863,309.87234042553195,388.599178527092S319.38938246584246,388.51386158818707,323.9574468085106,387.7522762428921S333.8422931353509,382.6279817804714,338.04255319148933,381.18639051739785S347.6141301991729,378.98895825940593,352.12765957446805,378.08384332217884S361.7754092469474,376.6066170220864,366.21276595744683,375.53731232619504S375.67609861712987,370.7135531620402,380.2978723404255,371.2954459135092S389.71923936469653,378.7019688263924,394.3829787234042,379.0840118396798S404.82749524830956,375.56237282673055,408.468085106383,373.6030862300636S419.47458197125377,366.154185700812,422.5531914893617,363.92341357146256S433.3743361183672,355.3520859153115,436.6382978723404,353.1908432526683S447.19000511891556,347.2963802207682,450.7234042553191,345.2704175394438S462.543337524217,339.38482096673965,464.8085106382979,337.0387478947441S474.1985815602836,316.09411432810464,478.89361702127655,316.09411432810464S488.28368794326235,316.09411432810464,492.9787234042553,316.09411432810464S506.5387520088232,287.2372297576872,507.06382978723406,285.7575162326975S519.5928440414989,238.91816274419978,521.1489361702128,236.70807563916563S530.5699371032656,246.12773285125286,535.2340425531914,245.7479160096251S548.1153116959014,236.4641436261306,549.3191489361702,234.41406205915138S563.0314149416931,199.044734118824,563.4042553191489,197.77528981268716S577.2288280061514,139.57518501217513,577.4893617021277,138.50031891137326S591.2619560154376,82.72565970041974,591.5744680851063,81.55536424396689S602.23176178008,35.09266193977233,605.6595744680851,33.00848289281487S615.6284334875227,31.198087794000855,619.7446808510639,29.6545739520854S633.5533769818035,-0.10514854589848177,633.8297872340426,1S646.8582472433185,140.32449862113455,647.9148936170212,142.2852358894101S661.9426554651798,53.63568682429876,662,53.273293506805544L662,80.62036456658166C661.9278281837982,81.02560011181686,649.2773914872338,161.83730348187126,647.9148936170212,159.70644089365925S634.2444984947932,37.89621848623775,633.8297872340426,36.56389020630667S622.692436197539,66.9355059616198,619.7446808510639,69.20498922865647S608.2093898653916,72.48864015605456,605.6595744680851,74.82742512885528S591.9729018520992,113.48254796296817,591.5744680851063,114.79094820685702S577.8333070912555,166.1110966208393,577.4893617021277,167.3344270618478S563.9166968944336,213.52155849803077,563.4042553191489,214.98557181749499S550.6641431493952,245.69226775789568,549.3191489361702,247.81495145838258S539.7945149896512,258.66071979688127,535.2340425531914,259.44409133347807S522.7959360128385,250.4133062875462,521.1489361702128,252.65386741899707S507.6591458004685,296.2042990959901,507.06382978723406,297.7665502400189S497.6737588652482,326.5792215885335,492.9787234042553,326.5792215885335S483.5886524822695,326.5792215885335,478.89361702127655,326.5792215885335S467.44524460708186,341.24779867352095,464.8085106382979,343.57743243497487S454.31750288409967,349.4792621152052,450.7234042553191,351.4684517891751S440.2465149899366,357.1882453548292,436.6382978723404,359.16851719232056S426.0512188981225,364.8826501404886,422.5531914893617,366.928906960933S412.1885113746985,373.74317740815974,408.468085106383,375.64737320738277S399.0564209840546,381.6647105215457,394.3829787234042,381.3470399767615S384.95020713329313,374.17825378606807,380.2978723404255,373.7325433374607S370.4489284337262,377.2540080326594,366.21276595744683,378.648232017255S356.56633380711725,381.9373189064053,352.12765957446805,383.00404472802006S342.36062426314476,384.14241092006824,338.04255319148933,385.41824751800795S328.4925765521672,390.47575907883055,323.9574468085106,391.32734182576286S314.5325903924156,391.89516378397514,309.87234042553195,392.2977915249105S300.15945624100016,393.30462894523725,295.78723404255317,394.49265727505787S286.39479341341996,399.84680145099725,281.70212765957444,399.9522540165285S272.31010336120244,399.9054995674482,267.6170212765957,399.809753258264S258.20321171133656,395.4579939751025,253.53191489361703,395.12499210006285S243.62103338375593,395.342392026503,239.44680851063828,396.8168344669163S228.4111285516422,407.71474841282014,225.36170212765956,409.95487423093925S215.0935104716356,415.6800632175529,211.27659574468086,417.5108313519147S201.20239755792912,421.81011218914045,197.1914893617021,423.46660597225946S187.27536524659712,427.6641357927566,183.10638297872342,429.1450498463304S173.64373653100222,432.89408001164594,169.02127659574467,433.47328417253567S159.4380263983372,433.6773864687264,154.93617021276597,434.6099449473117S145.04902890455645,441.06332411224264,140.85106382978722,442.5078600657824S131.45047466058716,444.0814486553523,126.76595744680851,444.30342367677144S117.37538381878969,443.79412110422766,112.68085106382978,443.84270062602474S103.2752467222683,444.3253236583413,98.59574468085106,444.5949320198854S89.20443761124103,445.38954815732717,84.51063829787233,445.4657205202267S75.1165678930019,445.17190638730636,70.42553191489361,445.30887980847103S61.03444098192951,446.6811053047431,56.34042553191489,446.75030029944116S46.950354599188316,446.68124137065496,42.25531914893617,446.6810168083336S32.86524045010638,446.69310610409406,28.170212765957444,446.68706354687305S18.780121490179063,446.15627713070575,14.085106382978722,446.1660526799793S2.343548494100866,446.6492697122839,0,446.74571709678764Z"></path></g><g class="text_layers"><text class="label" style="font-weight: lighter; " font-size="18px" font-family="PT Sans Narrow" dy="6" opacity="1" pointer-events="none" text-anchor="middle" fill="#333333" x="619.7446808510639" y="371.94082886954095"><tspan x="619.7446808510639" dy="11px">Misc.</tspan><tspan x="619.7446808510639" dy="11px">manufactured</tspan><tspan x="619.7446808510639" dy="11px">articles</tspan></text><text class="label" style="font-weight: lighter; " font-size="18px" font-family="PT Sans Narrow" dy="6" opacity="1" pointer-events="none" text-anchor="middle" fill="#333333" x="605.6595744680851" y="267.1684182076105"><tspan x="605.6595744680851" dy="11px">Machinery</tspan><tspan x="605.6595744680851" dy="11px">&amp;</tspan><tspan x="605.6595744680851" dy="11px">Transport</tspan><tspan x="605.6595744680851" dy="11px">Equip.</tspan></text><text class="label" style="font-weight: lighter; " font-size="18px" font-family="PT Sans Narrow" dy="6" opacity="1" pointer-events="none" text-anchor="middle" fill="#ffffff" x="619.7446808510639" y="103.41150294718904"><tspan x="619.7446808510639" dy="11px">Mineral</tspan><tspan x="619.7446808510639" dy="11px">Fuels,</tspan><tspan x="619.7446808510639" dy="11px">Lubricants</tspan><tspan x="619.7446808510639" dy="11px">&amp;</tspan><tspan x="619.7446808510639" dy="11px">Related</tspan><tspan x="619.7446808510639" dy="11px">Materials</tspan></text><text class="label" style="font-weight: lighter; " font-size="18px" font-family="PT Sans Narrow" dy="6" opacity="1" pointer-events="none" text-anchor="middle" fill="#ffffff" x="619.7446808510639" y="35.929781590370936"><tspan x="619.7446808510639" dy="11px">Manuf.</tspan><tspan x="619.7446808510639" dy="11px">Goods...</tspan></text></g></g></g></svg>