<svg width="748" height="520" style="z-index: 10; position: absolute; "><rect id="svgbg" fill="#ffffff" width="748" height="520"></rect><g class="titles"></g><clipPath id="clipping"><rect width="748" height="520"></rect></clipPath><g class="parent" width="748" height="520" clip-path="url(#clipping)" transform="translate(0,0)"><g class="axes_labels"><text class="x_axis_label" x="374" y="510" font-family="sans-serif" font-size="14px" font-weight="lighter" fill="#333" text-anchor="middle">Year</text><text class="y_axis_label" y="15" x="-242.5" transform="rotate(-90)" font-family="sans-serif" font-size="14px" font-weight="lighter" fill="#333" text-anchor="middle">Current</text></g><g class="chart" transform="translate(40.00036029629631,5)"><rect style="fill: #fafafa; " id="background" x="0" y="0" width="697.9996397037037" height="474.99973685400903" stroke-width="1" stroke="#ccc" shape-rendering="crispEdges"></rect><g transform="translate(0,475)" class="xaxis"><path class="domain" d="M0,0V0H698V0"></path></g><g class="yaxis"><path class="domain" d="M0,0H0V475H0"></path></g><clipPath id="path_clipping"><rect width="697.998453962963" height="474.9988708364412" y="1" x="1"></rect></clipPath><g class="layers" clip-path="url(#path_clipping)"><path opacity="0.85" id="path_8000" class="layer" fill="#5493c9" d="M0,448.24632126782274C2.2916666666666665,448.24632126782274,9.166666666666668,448.24632126782274,13.75,448.24632126782274S22.916666666666668,448.24632126782274,27.5,448.24632126782274S36.666666666666664,448.24632126782274,41.25,448.24632126782274S50.416666666666664,448.24632126782274,55,448.24632126782274S64.16666666666667,448.24632126782274,68.75,448.24632126782274S77.91666666666667,448.24632126782274,82.5,448.24632126782274S91.66666666666666,448.24632126782274,96.24999999999999,448.24632126782274S105.41666666666666,448.24632126782274,110,448.24632126782274S119.16666666666667,448.24632126782274,123.75,448.24632126782274S132.91666666666666,448.24632126782274,137.5,448.24632126782274S146.66666666666666,448.24632126782274,151.25,448.24632126782274S160.41666666666666,448.24632126782274,165,448.24632126782274S174.16666666666669,448.24632126782274,178.75,448.24632126782274S187.91666666666663,448.24632126782274,192.49999999999997,448.24632126782274S201.66666666666666,448.24632126782274,206.25,448.24632126782274S215.41666666666669,448.24632126782274,220,448.24632126782274S229.16666666666663,448.24632126782274,233.74999999999997,448.24632126782274S242.91666666666666,448.24632126782274,247.5,448.24632126782274S256.6666666666667,448.24632126782274,261.25,448.24632126782274S270.4166666666667,448.24632126782274,275,448.24632126782274S284.1666666666667,448.24632126782274,288.75,448.24632126782274S297.9166666666667,448.24632126782274,302.5,448.24632126782274S311.6666666666667,448.24632126782274,316.25,448.24632126782274S325.4166666666667,448.24632126782274,330,448.24632126782274S339.16666666666663,448.24632126782274,343.74999999999994,448.24632126782274S352.91666666666663,448.24632126782274,357.5,448.24632126782274S366.6666666666667,448.24632126782274,371.25,448.24632126782274S380.41666666666663,448.24632126782274,384.99999999999994,448.24632126782274S394.16666666666663,448.24632126782274,398.75,448.24632126782274S407.9166666666667,448.24632126782274,412.5,448.24632126782274S421.66666666666663,448.24632126782274,426.24999999999994,448.24632126782274S435.41666666666663,448.24632126782274,440,448.24632126782274S449.1666666666667,448.24632126782274,453.75,448.24632126782274S462.91666666666663,448.24632126782274,467.49999999999994,448.24632126782274S476.66666666666663,447.4766455045077,481.25,447.4766455045077S490.4166666666667,447.4766455045077,495,447.4766455045077S504.16666666666663,448.24632126782274,508.74999999999994,448.24632126782274S517.9166666666666,448.24632126782274,522.5,448.24632126782274S531.6666666666666,448.24632126782274,536.25,448.24632126782274S545.4166666666666,448.24632126782274,550,448.24632126782274S559.1666666666666,448.24632126782274,563.75,448.24632126782274S572.9166666666666,448.24632126782274,577.5,448.24632126782274S586.6701517043563,447.8709927906581,591.25,447.7446561612778S600.418191419127,447.4041416400439,605,447.48772467604S614.1666666666666,448.24632126782274,618.75,448.24632126782274S627.9166666666666,448.24632126782274,632.5,448.24632126782274S641.6666666666666,448.24632126782274,646.25,448.24632126782274S657.7083333333334,448.24632126782274,660,448.24632126782274L660,447.24632126782274C657.7083333333334,447.24632126782274,650.8333333333334,447.24632126782274,646.25,447.24632126782274S637.0833333333334,447.24632126782274,632.5,447.24632126782274S623.3333333333334,447.24632126782274,618.75,447.24632126782274S609.5833333333334,447.24632126782274,605,447.24632126782274S595.8333333333334,447.24632126782274,591.25,447.24632126782274S582.0833333333334,447.24632126782274,577.5,447.24632126782274S568.3333333333334,447.24632126782274,563.75,447.24632126782274S554.5833333333334,447.24632126782274,550,447.24632126782274S540.8333333333334,447.24632126782274,536.25,447.24632126782274S527.0833333333334,447.24632126782274,522.5,447.24632126782274S513.3333333333333,447.24632126782274,508.74999999999994,447.24632126782274S499.5833333333333,447.24632126782274,495,447.24632126782274S485.83333333333337,447.24632126782274,481.25,447.24632126782274S472.08333333333326,447.24632126782274,467.49999999999994,447.24632126782274S458.3333333333333,447.24632126782274,453.75,447.24632126782274S444.58333333333337,447.24632126782274,440,447.24632126782274S430.83333333333326,447.24632126782274,426.24999999999994,447.24632126782274S417.0833333333333,447.24632126782274,412.5,447.24632126782274S403.33333333333337,447.24632126782274,398.75,447.24632126782274S389.58333333333326,447.24632126782274,384.99999999999994,447.24632126782274S375.8333333333333,447.24632126782274,371.25,447.24632126782274S362.08333333333337,447.24632126782274,357.5,447.24632126782274S348.33333333333326,447.24632126782274,343.74999999999994,447.24632126782274S334.5833333333333,447.24632126782274,330,447.24632126782274S320.8333333333333,447.24632126782274,316.25,447.24632126782274S307.0833333333333,447.24632126782274,302.5,447.24632126782274S293.3333333333333,447.24632126782274,288.75,447.24632126782274S279.5833333333333,447.24632126782274,275,447.24632126782274S265.8333333333333,447.24632126782274,261.25,447.24632126782274S252.08333333333334,447.24632126782274,247.5,447.24632126782274S238.33333333333331,447.24632126782274,233.74999999999997,447.24632126782274S224.58333333333331,447.24632126782274,220,447.24632126782274S210.83333333333334,447.24632126782274,206.25,447.24632126782274S197.08333333333331,447.24632126782274,192.49999999999997,447.24632126782274S183.33333333333331,447.24632126782274,178.75,447.24632126782274S169.58333333333334,447.24632126782274,165,447.24632126782274S155.83333333333334,447.24632126782274,151.25,447.24632126782274S142.08333333333334,447.24632126782274,137.5,447.24632126782274S128.33333333333334,447.24632126782274,123.75,447.24632126782274S114.58333333333334,447.24632126782274,110,447.24632126782274S100.83333333333331,447.24632126782274,96.24999999999999,447.24632126782274S87.08333333333333,447.24632126782274,82.5,447.24632126782274S73.33333333333333,447.24632126782274,68.75,447.24632126782274S59.583333333333336,447.24632126782274,55,447.24632126782274S45.833333333333336,447.24632126782274,41.25,447.24632126782274S32.083333333333336,447.24632126782274,27.5,447.24632126782274S18.333333333333332,447.24632126782274,13.75,447.24632126782274S2.2916666666666665,447.24632126782274,0,447.24632126782274Z"></path><path opacity="0.85" id="path_7000" class="layer" fill="#9edae5" d="M0,448.24632126782274C2.2916666666666665,448.24632126782274,9.166666666666668,448.24632126782274,13.75,448.24632126782274S22.916666666666668,448.24632126782274,27.5,448.24632126782274S36.666666666666664,448.24632126782274,41.25,448.24632126782274S50.416666666666664,448.24632126782274,55,448.24632126782274S64.16666666666667,448.24632126782274,68.75,448.24632126782274S77.91666666666667,448.24632126782274,82.5,448.24632126782274S91.66666666666666,448.24632126782274,96.24999999999999,448.24632126782274S105.41666666666666,448.24632126782274,110,448.24632126782274S119.16666666666667,448.24632126782274,123.75,448.24632126782274S132.91666666666666,448.24632126782274,137.5,448.24632126782274S146.66666666666666,448.24632126782274,151.25,448.24632126782274S160.41666666666666,448.24632126782274,165,448.24632126782274S174.16666666666669,448.24632126782274,178.75,448.24632126782274S187.91666666666663,448.24632126782274,192.49999999999997,448.24632126782274S201.66666666666666,448.24632126782274,206.25,448.24632126782274S215.41666666666669,448.24632126782274,220,448.24632126782274S229.16666666666663,448.24632126782274,233.74999999999997,448.24632126782274S242.91666666666666,448.24632126782274,247.5,448.24632126782274S256.6666666666667,448.24632126782274,261.25,448.24632126782274S270.4166666666667,448.24632126782274,275,448.24632126782274S284.1666666666667,448.24632126782274,288.75,448.24632126782274S297.9166666666667,448.24632126782274,302.5,448.24632126782274S311.6666666666667,448.24632126782274,316.25,448.24632126782274S325.4166666666667,448.24632126782274,330,448.24632126782274S339.16666666666663,448.24632126782274,343.74999999999994,448.24632126782274S352.91666666666663,447.7481110413857,357.5,447.7481110413857S366.6666666666667,448.24632126782274,371.25,448.24632126782274S380.41666666666663,448.24632126782274,384.99999999999994,448.24632126782274S394.16666666666663,448.24632126782274,398.75,448.24632126782274S407.9166666666667,448.24632126782274,412.5,448.24632126782274S421.66666666666663,448.24632126782274,426.24999999999994,448.24632126782274S435.41666666666663,448.24632126782274,440,448.24632126782274S449.1666666666667,448.24632126782274,453.75,448.24632126782274S462.91666666666663,448.24632126782274,467.49999999999994,448.24632126782274S476.66666666666663,447.4766455045077,481.25,447.4766455045077S490.4166666666667,447.4766455045077,495,447.4766455045077S504.1702541641982,439.51313837745244,508.74999999999994,439.6413172637055S518.1229901260975,447.29601614884956,522.5,448.24632126782274S531.6666666666666,445.61192083204133,536.25,445.61192083204133S545.4166666666666,448.24632126782274,550,448.24632126782274S559.1666666666666,448.24632126782274,563.75,448.24632126782274S572.9166666666666,448.24632126782274,577.5,448.24632126782274S586.6701517043563,447.8709927906581,591.25,447.7446561612778S600.418191419127,447.4041416400439,605,447.48772467604S614.1666666666666,448.24632126782274,618.75,448.24632126782274S627.9166666666666,448.24632126782274,632.5,448.24632126782274S641.6666666666666,448.24632126782274,646.25,448.24632126782274S657.7083333333334,448.24632126782274,660,448.24632126782274L660,447.24632126782274C657.7083333333334,447.24632126782274,650.8333333333334,447.24632126782274,646.25,447.24632126782274S637.0833333333334,447.24632126782274,632.5,447.24632126782274S623.3333333333334,447.24632126782274,618.75,447.24632126782274S609.581808580873,446.57130771203606,605,446.48772467604S595.8298482956437,446.61831953189755,591.25,446.7446561612778S582.0833333333334,447.24632126782274,577.5,447.24632126782274S568.3333333333334,447.24632126782274,563.75,447.24632126782274S554.5833333333334,447.24632126782274,550,447.24632126782274S540.8333333333334,447.24632126782274,536.25,447.24632126782274S527.0833333333334,447.24632126782274,522.5,447.24632126782274S513.3333333333333,447.24632126782274,508.74999999999994,447.24632126782274S499.5833333333333,446.4766455045077,495,446.4766455045077S485.83333333333337,446.4766455045077,481.25,446.4766455045077S472.08333333333326,447.24632126782274,467.49999999999994,447.24632126782274S458.3333333333333,447.24632126782274,453.75,447.24632126782274S444.58333333333337,447.24632126782274,440,447.24632126782274S430.83333333333326,447.24632126782274,426.24999999999994,447.24632126782274S417.0833333333333,447.24632126782274,412.5,447.24632126782274S403.33333333333337,447.24632126782274,398.75,447.24632126782274S389.58333333333326,447.24632126782274,384.99999999999994,447.24632126782274S375.8333333333333,447.24632126782274,371.25,447.24632126782274S362.08333333333337,447.24632126782274,357.5,447.24632126782274S348.33333333333326,447.24632126782274,343.74999999999994,447.24632126782274S334.5833333333333,447.24632126782274,330,447.24632126782274S320.8333333333333,447.24632126782274,316.25,447.24632126782274S307.0833333333333,447.24632126782274,302.5,447.24632126782274S293.3333333333333,447.24632126782274,288.75,447.24632126782274S279.5833333333333,447.24632126782274,275,447.24632126782274S265.8333333333333,447.24632126782274,261.25,447.24632126782274S252.08333333333334,447.24632126782274,247.5,447.24632126782274S238.33333333333331,447.24632126782274,233.74999999999997,447.24632126782274S224.58333333333331,447.24632126782274,220,447.24632126782274S210.83333333333334,447.24632126782274,206.25,447.24632126782274S197.08333333333331,447.24632126782274,192.49999999999997,447.24632126782274S183.33333333333331,447.24632126782274,178.75,447.24632126782274S169.58333333333334,447.24632126782274,165,447.24632126782274S155.83333333333334,447.24632126782274,151.25,447.24632126782274S142.08333333333334,447.24632126782274,137.5,447.24632126782274S128.33333333333334,447.24632126782274,123.75,447.24632126782274S114.58333333333334,447.24632126782274,110,447.24632126782274S100.83333333333331,447.24632126782274,96.24999999999999,447.24632126782274S87.08333333333333,447.24632126782274,82.5,447.24632126782274S73.33333333333333,447.24632126782274,68.75,447.24632126782274S59.583333333333336,447.24632126782274,55,447.24632126782274S45.833333333333336,447.24632126782274,41.25,447.24632126782274S32.083333333333336,447.24632126782274,27.5,447.24632126782274S18.333333333333332,447.24632126782274,13.75,447.24632126782274S2.2916666666666665,447.24632126782274,0,447.24632126782274Z"></path><path opacity="0.85" id="path_9000" class="layer" fill="#9c9a87" d="M0,448.24632126782274C2.2916666666666665,448.24632126782274,9.166666666666668,448.24632126782274,13.75,448.24632126782274S22.916666666666668,448.24632126782274,27.5,448.24632126782274S36.666666666666664,448.24632126782274,41.25,448.24632126782274S50.416666666666664,448.24632126782274,55,448.24632126782274S64.16666666666667,448.24632126782274,68.75,448.24632126782274S77.91666666666667,448.24632126782274,82.5,448.24632126782274S91.66666666666666,448.24632126782274,96.24999999999999,448.24632126782274S105.41666666666666,448.24632126782274,110,448.24632126782274S119.16666666666667,448.24632126782274,123.75,448.24632126782274S132.91666666666666,448.24632126782274,137.5,448.24632126782274S146.66666666666666,448.24632126782274,151.25,448.24632126782274S160.41666666666666,448.24632126782274,165,448.24632126782274S174.16666666666669,448.24632126782274,178.75,448.24632126782274S187.91666666666663,448.24632126782274,192.49999999999997,448.24632126782274S201.66666666666666,448.24632126782274,206.25,448.24632126782274S215.41666666666669,448.24632126782274,220,448.24632126782274S229.16666666666663,448.24632126782274,233.74999999999997,448.24632126782274S242.91666666666666,448.24632126782274,247.5,448.24632126782274S256.6666666666667,448.24632126782274,261.25,448.24632126782274S270.4166666666667,448.24632126782274,275,448.24632126782274S284.1666666666667,448.24632126782274,288.75,448.24632126782274S297.9166666666667,448.24632126782274,302.5,448.24632126782274S311.6666666666667,448.24632126782274,316.25,448.24632126782274S325.4166666666667,448.24632126782274,330,448.24632126782274S339.16666666666663,448.24632126782274,343.74999999999994,448.24632126782274S352.9701899052604,448.24050326968035,357.5,447.7481110413857S368.05263448623816,445.9354246585643,371.25,443.8303247299429S381.88041927148544,431.7793915573557,384.99999999999994,429.64250259971055S395.60568165498665,422.86589568678403,398.75,424.9930348986185S407.9166666666667,448.24632126782274,412.5,448.24632126782274S421.66666666666663,448.24632126782274,426.24999999999994,448.24632126782274S435.41666666666663,448.24632126782274,440,448.24632126782274S449.1666666666667,448.24632126782274,453.75,448.24632126782274S462.9202541641982,447.28670944053255,467.49999999999994,447.1585305542795S476.66666666666663,447.4766455045077,481.25,447.4766455045077S490.4166666666667,447.4766455045077,495,447.4766455045077S504.1702541641982,439.51313837745244,508.74999999999994,439.6413172637055S518.1229901260975,447.29601614884956,522.5,448.24632126782274S531.6666666666666,445.61192083204133,536.25,445.61192083204133S545.4170503867002,448.204385965516,550,448.24632126782274S559.1873443322902,446.1707101358725,563.75,445.8635537127715S572.918531957468,445.63388702330593,577.5,445.5414436882501S586.6772817515624,445.27314043366465,591.25,445.0528229527158S600.4378594658116,444.5274114971101,605,444.21647013927566S614.2660334105394,443.8460088740805,618.75,443.17850819271075S628.1270456553968,441.08186802114795,632.5,440.12271333457187S644.6150711732994,436.08173890971443,646.25,433.8861907957648S659.8427385807776,383.80965135519705,660,383.2302899840228L660,447.24632126782274C657.7083333333334,447.24632126782274,650.8333333333334,447.24632126782274,646.25,447.24632126782274S637.0833333333334,447.24632126782274,632.5,447.24632126782274S623.3333333333334,447.24632126782274,618.75,447.24632126782274S609.581808580873,446.57130771203606,605,446.48772467604S595.8298482956437,446.61831953189755,591.25,446.7446561612778S582.0833333333334,447.24632126782274,577.5,447.24632126782274S568.3333333333334,447.24632126782274,563.75,447.24632126782274S554.5833333333334,447.24632126782274,550,447.24632126782274S540.8333333333334,444.61192083204133,536.25,444.61192083204133S526.8770098739025,448.1966263867959,522.5,447.24632126782274S513.3297458358018,438.76949614995857,508.74999999999994,438.6413172637055S499.5833333333333,446.4766455045077,495,446.4766455045077S485.83333333333337,446.4766455045077,481.25,446.4766455045077S472.08333333333326,447.24632126782274,467.49999999999994,447.24632126782274S458.3333333333333,447.24632126782274,453.75,447.24632126782274S444.58333333333337,447.24632126782274,440,447.24632126782274S430.83333333333326,447.24632126782274,426.24999999999994,447.24632126782274S417.0833333333333,447.24632126782274,412.5,447.24632126782274S403.33333333333337,447.24632126782274,398.75,447.24632126782274S389.58333333333326,447.24632126782274,384.99999999999994,447.24632126782274S375.8333333333333,447.24632126782274,371.25,447.24632126782274S362.08333333333337,446.7481110413857,357.5,446.7481110413857S348.33333333333326,447.24632126782274,343.74999999999994,447.24632126782274S334.5833333333333,447.24632126782274,330,447.24632126782274S320.8333333333333,447.24632126782274,316.25,447.24632126782274S307.0833333333333,447.24632126782274,302.5,447.24632126782274S293.3333333333333,447.24632126782274,288.75,447.24632126782274S279.5833333333333,447.24632126782274,275,447.24632126782274S265.8333333333333,447.24632126782274,261.25,447.24632126782274S252.08333333333334,447.24632126782274,247.5,447.24632126782274S238.33333333333331,447.24632126782274,233.74999999999997,447.24632126782274S224.58333333333331,447.24632126782274,220,447.24632126782274S210.83333333333334,447.24632126782274,206.25,447.24632126782274S197.08333333333331,447.24632126782274,192.49999999999997,447.24632126782274S183.33333333333331,447.24632126782274,178.75,447.24632126782274S169.58333333333334,447.24632126782274,165,447.24632126782274S155.83333333333334,447.24632126782274,151.25,447.24632126782274S142.08333333333334,447.24632126782274,137.5,447.24632126782274S128.33333333333334,447.24632126782274,123.75,447.24632126782274S114.58333333333334,447.24632126782274,110,447.24632126782274S100.83333333333331,447.24632126782274,96.24999999999999,447.24632126782274S87.08333333333333,447.24632126782274,82.5,447.24632126782274S73.33333333333333,447.24632126782274,68.75,447.24632126782274S59.583333333333336,447.24632126782274,55,447.24632126782274S45.833333333333336,447.24632126782274,41.25,447.24632126782274S32.083333333333336,447.24632126782274,27.5,447.24632126782274S18.333333333333332,447.24632126782274,13.75,447.24632126782274S2.2916666666666665,447.24632126782274,0,447.24632126782274Z"></path><path opacity="0.85" id="path_0000" class="layer" fill="#ffe999" d="M0,425.8622111613091C2.243275938599937,425.53273619120756,9.226615969001967,424.36346123898375,13.75,423.842717811898S22.919035849875968,422.59216308486447,27.5,422.6963415055997S36.715113276452186,423.999390064485,41.25,424.46811161030644S50.41674275513674,425.5573895465687,55,425.5387151514856S64.2042143474143,424.769202228533,68.75,424.3560633796814S78.0571747629067,423.8295039507914,82.5,423.0394071744461S92.17890106289828,420.9096343479722,96.24999999999999,419.46555785898505S105.43453847115607,412.9991224946822,110,413.2847674418586S119.1853008920026,420.89448675508794,123.75,421.1861365995404S132.99187869400808,421.10795344014133,137.5,420.5256606075178S149.17271618029818,408.8295293169494,151.25,406.547912323228S162.4864837292545,392.6015109496799,165,390.3206078688189S174.2310923334953,382.13246593834145,178.75,381.59289792617653S188.26669213976263,381.38314201233226,192.49999999999997,380.1658640709645S201.66791743807872,357.2136880580247,206.25,357.1379837789113S215.4172622180433,357.17774276199395,220,357.2299850417567S230.5550651124382,370.85725024039414,233.74999999999997,372.96339426021615S245.07244012671737,375.94680022441094,247.5,378.23443418715647S258.2434912325684,400.81237153984074,261.25,402.9896948695474S271.34934466268487,396.30478943882383,275,398.1500227314349S284.20792825427867,416.45672948979194,288.75,416.8896418265023S297.92064753656905,416.56739043962585,302.5,416.4323726393402S312.2428842210137,412.75364553601435,316.25,411.2341158541217S325.80905695947786,407.2865321884759,330,406.0041572952308S339.16735910584214,402.7631369068106,343.74999999999994,402.8194680712096S352.91726523572294,406.28982089960874,357.5,406.3421953516162S366.6910698910489,406.3363434106298,371.25,406.00279791989186S380.44790695316203,386.34048206787367,384.99999999999994,385.96337639178665S394.20102447529325,385.0177376255045,398.75,385.4130765061182S409.5618785787372,405.36481382529274,412.5,407.563411642396S421.93521764059733,412.25515749228026,426.24999999999994,411.1787100923035S437.5204211394663,401.2572517528913,440,398.97330229668455S451.0919641454818,388.1105475537779,453.75,385.84835619818836S464.76894745589635,377.81785377956044,467.49999999999994,375.56870368189686S476.66666666666663,363.20081401915286,481.25,363.20081401915286S490.4166666666667,363.20081401915286,495,363.20081401915286S504.9028859355746,363.5228788021811,508.74999999999994,365.2058284460852S518.8240760899812,382.09975109923323,522.5,383.9261048424435S533.3992733623656,381.0914145237178,536.25,378.86898610867877S548.9303504333222,364.4257482322025,550,362.48708624040364S562.9108743178613,330.79976701730914,563.75,329.0272375254874S573.6607504111605,306.087568362835,577.5,304.3973839912027S587.8486318412893,309.7745731019627,591.25,307.76950484634983S604.355212287828,277.5263965379194,605,275.9328075631979S618.3363764566005,241.11669388582692,618.75,239.80341929981682S627.9653954459491,189.08905870982312,632.5,188.61898877412466S641.939661837317,190.95123081173304,646.25,189.86647208174634S659.9714777295948,67.64008605831586,660,67.38601910565143L660,382.2302899840228C659.8427385807776,382.80965135519705,647.8849288267006,430.6906426818151,646.25,432.8861907957648S636.8729543446032,438.1635586479958,632.5,439.12271333457187S623.2339665894606,441.511007511341,618.75,442.17850819271075S609.5621405341884,442.9055287814412,605,443.21647013927566S595.8227182484376,443.832505471767,591.25,444.0528229527158S582.081468042532,444.4490003531943,577.5,444.5414436882501S568.3126556677098,444.55639728967043,563.75,444.8635537127715S554.5829496132998,447.2882565701295,550,447.24632126782274S540.8333333333334,444.61192083204133,536.25,444.61192083204133S526.8770098739025,448.1966263867959,522.5,447.24632126782274S513.3297458358018,438.76949614995857,508.74999999999994,438.6413172637055S499.5833333333333,446.4766455045077,495,446.4766455045077S485.83333333333337,446.4766455045077,481.25,446.4766455045077S472.0797458358017,446.0303516680264,467.49999999999994,446.1585305542795S458.3333333333333,447.24632126782274,453.75,447.24632126782274S444.58333333333337,447.24632126782274,440,447.24632126782274S430.83333333333326,447.24632126782274,426.24999999999994,447.24632126782274S417.0833333333333,447.24632126782274,412.5,447.24632126782274S401.89431834501335,426.1201741104529,398.75,423.9930348986185S388.11958072851445,426.5056136420654,384.99999999999994,428.64250259971055S374.44736551376184,440.72522480132153,371.25,442.8303247299429S362.0304750303543,446.2587510289271,357.5,446.7481110413857S348.33333333333326,447.24632126782274,343.74999999999994,447.24632126782274S334.5833333333333,447.24632126782274,330,447.24632126782274S320.8333333333333,447.24632126782274,316.25,447.24632126782274S307.0833333333333,447.24632126782274,302.5,447.24632126782274S293.3333333333333,447.24632126782274,288.75,447.24632126782274S279.5833333333333,447.24632126782274,275,447.24632126782274S265.8333333333333,447.24632126782274,261.25,447.24632126782274S252.08333333333334,447.24632126782274,247.5,447.24632126782274S238.33333333333331,447.24632126782274,233.74999999999997,447.24632126782274S224.58333333333331,447.24632126782274,220,447.24632126782274S210.83333333333334,447.24632126782274,206.25,447.24632126782274S197.08333333333331,447.24632126782274,192.49999999999997,447.24632126782274S183.33333333333331,447.24632126782274,178.75,447.24632126782274S169.58333333333334,447.24632126782274,165,447.24632126782274S155.83333333333334,447.24632126782274,151.25,447.24632126782274S142.08333333333334,447.24632126782274,137.5,447.24632126782274S128.33333333333334,447.24632126782274,123.75,447.24632126782274S114.58333333333334,447.24632126782274,110,447.24632126782274S100.83333333333331,447.24632126782274,96.24999999999999,447.24632126782274S87.08333333333333,447.24632126782274,82.5,447.24632126782274S73.33333333333333,447.24632126782274,68.75,447.24632126782274S59.583333333333336,447.24632126782274,55,447.24632126782274S45.833333333333336,447.24632126782274,41.25,447.24632126782274S32.083333333333336,447.24632126782274,27.5,447.24632126782274S18.333333333333332,447.24632126782274,13.75,447.24632126782274S2.2916666666666665,447.24632126782274,0,447.24632126782274Z"></path><path opacity="0.85" id="path_4000" class="layer" fill="#ffc41c" d="M0,425.8622111613091C2.243275938599937,425.53273619120756,9.226615969001967,424.36346123898375,13.75,423.842717811898S22.919035849875968,422.59216308486447,27.5,422.6963415055997S36.715113276452186,423.999390064485,41.25,424.46811161030644S50.41674275513674,425.5573895465687,55,425.5387151514856S64.2042143474143,424.769202228533,68.75,424.3560633796814S78.0571747629067,423.8295039507914,82.5,423.0394071744461S92.17890106289828,420.9096343479722,96.24999999999999,419.46555785898505S105.43453847115607,412.9991224946822,110,413.2847674418586S119.1853008920026,420.89448675508794,123.75,421.1861365995404S132.99187869400808,421.10795344014133,137.5,420.5256606075178S149.17271618029818,408.8295293169494,151.25,406.547912323228S162.4864837292545,392.6015109496799,165,390.3206078688189S174.2310923334953,382.13246593834145,178.75,381.59289792617653S188.26669213976263,381.38314201233226,192.49999999999997,380.1658640709645S201.66791743807872,357.2136880580247,206.25,357.1379837789113S215.4172622180433,357.17774276199395,220,357.2299850417567S230.5550651124382,370.85725024039414,233.74999999999997,372.96339426021615S245.07244012671737,375.94680022441094,247.5,378.23443418715647S258.2434912325684,400.81237153984074,261.25,402.9896948695474S271.34934466268487,396.30478943882383,275,398.1500227314349S284.20792825427867,416.45672948979194,288.75,416.8896418265023S297.92064753656905,416.56739043962585,302.5,416.4323726393402S312.2428842210137,412.75364553601435,316.25,411.2341158541217S325.80905695947786,407.2865321884759,330,406.0041572952308S339.16735910584214,402.7631369068106,343.74999999999994,402.8194680712096S352.91726523572294,406.28982089960874,357.5,406.3421953516162S366.6910698910489,406.3363434106298,371.25,406.00279791989186S380.44790695316203,386.34048206787367,384.99999999999994,385.96337639178665S394.20102447529325,385.0177376255045,398.75,385.4130765061182S409.5618785787372,405.36481382529274,412.5,407.563411642396S421.93521764059733,412.25515749228026,426.24999999999994,411.1787100923035S437.5204211394663,401.2572517528913,440,398.97330229668455S451.15907373383214,388.12039928827653,453.75,385.84835619818836S464.91714719930104,377.1310089710424,467.49999999999994,374.85791707970617S476.66666666666663,361.64642452216276,481.25,361.64642452216276S490.4166666666667,361.64642452216276,495,361.64642452216276S505.2101145477483,362.21293968434776,508.74999999999994,364.1348361369237S518.938934592814,382.01813132358143,522.5,383.9261048424435S533.3992733623656,381.0914145237178,536.25,378.86898610867877S548.9303504333222,364.4257482322025,550,362.48708624040364S562.9108743178613,330.79976701730914,563.75,329.0272375254874S573.6607504111605,306.087568362835,577.5,304.3973839912027S587.8486318412893,309.7745731019627,591.25,307.76950484634983S604.355212287828,277.5263965379194,605,275.9328075631979S618.3363764566005,241.11669388582692,618.75,239.80341929981682S627.9281104621797,188.84772392441653,632.5,188.61898877412466S641.7306686069096,188.56513038580238,646.25,188.02731445283024S659.9715157594902,65.71799555021643,660,65.4640958996768L660,66.38601910565143C659.9714777295948,66.64008605831586,650.560338162683,187.78171335175963,646.25,188.86647208174634S637.0346045540509,187.1489188384262,632.5,187.61898877412466S619.1636235433995,237.49014471380673,618.75,238.80341929981682S605.644787712172,273.3392185884764,605,274.9328075631979S594.6513681587107,304.764436590737,591.25,306.76950484634983S581.3392495888395,301.70719961957036,577.5,303.3973839912027S564.5891256821387,326.2547080336657,563.75,328.0272375254874S551.0696495666778,359.54842424860476,550,361.48708624040364S539.1007266376344,375.64655769363975,536.25,377.86898610867877S526.1759239100188,384.7524585856538,522.5,382.9261048424435S512.6028525350255,365.88345617461965,508.74999999999994,364.2058284460852S499.5833333333333,362.20081401915286,495,362.20081401915286S485.83333333333337,362.20081401915286,481.25,362.20081401915286S470.23105254410353,372.3195535842333,467.49999999999994,374.56870368189686S456.4080358545182,382.5861648425988,453.75,384.84835619818836S442.4795788605337,395.6893528404778,440,397.97330229668455S430.56478235940256,409.10226269232675,426.24999999999994,410.1787100923035S415.4381214212628,408.7620094594992,412.5,406.563411642396S403.29897552470675,384.80841538673195,398.75,384.4130765061182S389.55209304683785,384.58627071569964,384.99999999999994,384.96337639178665S375.8089301089511,404.6692524291539,371.25,405.00279791989186S362.08273476427706,405.3945698036237,357.5,405.3421953516162S348.33264089415775,401.8757992356086,343.74999999999994,401.8194680712096S334.19094304052214,403.7217824019857,330,405.0041572952308S320.2571157789863,408.714586172229,316.25,410.2341158541217S307.07935246343095,415.29735483905455,302.5,415.4323726393402S293.29207174572133,416.3225541632127,288.75,415.8896418265023S278.65065533731513,398.99525602404594,275,397.1500227314349S264.2565087674316,404.1670181992541,261.25,401.9896948695474S249.92755987328263,379.522068149902,247.5,377.23443418715647S236.94493488756174,374.06953828003816,233.74999999999997,371.96339426021615S224.5827377819567,356.2822273215195,220,356.2299850417567S210.83208256192128,356.0622794997979,206.25,356.1379837789113S196.73330786023732,377.9485861295968,192.49999999999997,379.1658640709645S183.2689076665047,380.0533299140116,178.75,380.59289792617653S167.5135162707455,387.03970478795793,165,389.3206078688189S153.32728381970182,403.2662953295066,151.25,405.547912323228S142.00812130599192,418.9433677748943,137.5,419.5256606075178S128.3146991079974,420.4777864439929,123.75,420.1861365995404S114.56546152884393,412.570412389035,110,412.2847674418586S100.3210989371017,417.0214813699979,96.24999999999999,418.46555785898505S86.9428252370933,421.2493103981009,82.5,422.0394071744461S73.2957856525857,422.9429245308298,68.75,423.3560633796814S59.58325724486326,424.52004075640247,55,424.5387151514856S45.784886723547814,423.9368331561279,41.25,423.46811161030644S32.08096415012403,421.80051992633497,27.5,421.6963415055997S18.27338403099803,422.3219743848123,13.75,422.842717811898S2.243275938599937,424.53273619120756,0,424.8622111613091Z"></path><path opacity="0.85" id="path_1000" class="layer" fill="#6e451e" d="M0,425.8622111613091C2.243275938599937,425.53273619120756,9.226615969001967,424.36346123898375,13.75,423.842717811898S22.919035849875968,422.59216308486447,27.5,422.6963415055997S36.715113276452186,423.999390064485,41.25,424.46811161030644S50.41674275513674,425.5573895465687,55,425.5387151514856S64.2042143474143,424.769202228533,68.75,424.3560633796814S78.0571747629067,423.8295039507914,82.5,423.0394071744461S92.17890106289828,420.9096343479722,96.24999999999999,419.46555785898505S105.43453847115607,412.9991224946822,110,413.2847674418586S119.1853008920026,420.89448675508794,123.75,421.1861365995404S132.99187869400808,421.10795344014133,137.5,420.5256606075178S149.17271618029818,408.8295293169494,151.25,406.547912323228S162.4864837292545,392.6015109496799,165,390.3206078688189S174.2310923334953,382.13246593834145,178.75,381.59289792617653S188.26669213976263,381.38314201233226,192.49999999999997,380.1658640709645S201.66791743807872,357.2136880580247,206.25,357.1379837789113S215.4172622180433,357.17774276199395,220,357.2299850417567S230.5550651124382,370.85725024039414,233.74999999999997,372.96339426021615S245.07244012671737,375.94680022441094,247.5,378.23443418715647S258.2434912325684,400.81237153984074,261.25,402.9896948695474S271.34934466268487,396.30478943882383,275,398.1500227314349S284.20792825427867,416.45672948979194,288.75,416.8896418265023S297.92064753656905,416.56739043962585,302.5,416.4323726393402S312.2428842210137,412.75364553601435,316.25,411.2341158541217S325.80905695947786,407.2865321884759,330,406.0041572952308S339.16735910584214,402.7631369068106,343.74999999999994,402.8194680712096S352.91726523572294,406.28982089960874,357.5,406.3421953516162S366.6910698910489,406.3363434106298,371.25,406.00279791989186S380.44790695316203,386.34048206787367,384.99999999999994,385.96337639178665S394.20102447529325,385.0177376255045,398.75,385.4130765061182S409.5618785787372,405.36481382529274,412.5,407.563411642396S421.93521764059733,412.25515749228026,426.24999999999994,411.1787100923035S437.5204211394663,401.2572517528913,440,398.97330229668455S451.15907373383214,388.12039928827653,453.75,385.84835619818836S464.91714719930104,377.1310089710424,467.49999999999994,374.85791707970617S476.66666666666663,361.64642452216276,481.25,361.64642452216276S490.4166666666667,361.64642452216276,495,361.64642452216276S505.2101145477483,362.21293968434776,508.74999999999994,364.1348361369237S518.938934592814,382.01813132358143,522.5,383.9261048424435S533.3992733623656,381.0914145237178,536.25,378.86898610867877S548.9303504333222,364.4257482322025,550,362.48708624040364S562.9108743178613,330.79976701730914,563.75,329.0272375254874S573.6607504111605,306.087568362835,577.5,304.3973839912027S587.8486318412893,309.7745731019627,591.25,307.76950484634983S604.355212287828,277.5263965379194,605,275.9328075631979S618.3425708412414,241.10779084385766,618.75,239.80341929981682S627.9172688497019,187.94496109201404,632.5,187.8924287881071S641.6700315634191,188.15145598866175,646.25,188.02731445283024S659.9715157594902,65.71799555021643,660,65.4640958996768L660,64.4640958996768C659.9715157594902,64.71799555021643,650.7693313930904,186.4894985198581,646.25,187.02731445283024S637.0718895378203,187.3902536238328,632.5,187.61898877412466S619.1636235433995,237.49014471380673,618.75,238.80341929981682S605.644787712172,273.3392185884764,605,274.9328075631979S594.6513681587107,304.764436590737,591.25,306.76950484634983S581.3392495888395,301.70719961957036,577.5,303.3973839912027S564.5891256821387,326.2547080336657,563.75,328.0272375254874S551.0696495666778,359.54842424860476,550,361.48708624040364S539.1007266376344,375.64655769363975,536.25,377.86898610867877S526.061065407186,384.8340783613056,522.5,382.9261048424435S512.299842734668,365.0502288102468,508.74999999999994,363.1348361369237S499.5833333333333,360.64642452216276,495,360.64642452216276S485.83333333333337,360.64642452216276,481.25,360.64642452216276S470.08285280069884,371.58482518836996,467.49999999999994,373.85791707970617S456.34092626616786,382.5763131081002,453.75,384.84835619818836S442.4795788605337,395.6893528404778,440,397.97330229668455S430.56478235940256,409.10226269232675,426.24999999999994,410.1787100923035S415.4381214212628,408.7620094594992,412.5,406.563411642396S403.29897552470675,384.80841538673195,398.75,384.4130765061182S389.55209304683785,384.58627071569964,384.99999999999994,384.96337639178665S375.8089301089511,404.6692524291539,371.25,405.00279791989186S362.08273476427706,405.3945698036237,357.5,405.3421953516162S348.33264089415775,401.8757992356086,343.74999999999994,401.8194680712096S334.19094304052214,403.7217824019857,330,405.0041572952308S320.2571157789863,408.714586172229,316.25,410.2341158541217S307.07935246343095,415.29735483905455,302.5,415.4323726393402S293.29207174572133,416.3225541632127,288.75,415.8896418265023S278.65065533731513,398.99525602404594,275,397.1500227314349S264.2565087674316,404.1670181992541,261.25,401.9896948695474S249.92755987328263,379.522068149902,247.5,377.23443418715647S236.94493488756174,374.06953828003816,233.74999999999997,371.96339426021615S224.5827377819567,356.2822273215195,220,356.2299850417567S210.83208256192128,356.0622794997979,206.25,356.1379837789113S196.73330786023732,377.9485861295968,192.49999999999997,379.1658640709645S183.2689076665047,380.0533299140116,178.75,380.59289792617653S167.5135162707455,387.03970478795793,165,389.3206078688189S153.32728381970182,403.2662953295066,151.25,405.547912323228S142.00812130599192,418.9433677748943,137.5,419.5256606075178S128.3146991079974,420.4777864439929,123.75,420.1861365995404S114.56546152884393,412.570412389035,110,412.2847674418586S100.3210989371017,417.0214813699979,96.24999999999999,418.46555785898505S86.9428252370933,421.2493103981009,82.5,422.0394071744461S73.2957856525857,422.9429245308298,68.75,423.3560633796814S59.58325724486326,424.52004075640247,55,424.5387151514856S45.784886723547814,423.9368331561279,41.25,423.46811161030644S32.08096415012403,421.80051992633497,27.5,421.6963415055997S18.27338403099803,422.3219743848123,13.75,422.842717811898S2.243275938599937,424.53273619120756,0,424.8622111613091Z"></path><path opacity="0.85" id="path_2000" class="layer" fill="#d66011" d="M0,417.4426040210882C2.2321729359641846,417.0781862724348,9.317393024499584,416.01520133047177,13.75,415.1978209385355S22.916670919716026,412.36714136128455,27.5,412.37155646318666S36.77070223504765,414.5416650415975,41.25,415.22431157452985S50.42325974070167,416.38885708537623,55,416.56256600100386S64.17051506451793,416.4008207070658,68.75,416.26806649814716S78.02188544822191,416.2394847843512,82.5,415.5530579806766S92.24624451831292,412.4533988248783,96.24999999999999,410.93008401808584S105.42982936119573,404.8448253411118,110,405.0900920532117S119.23224964024591,411.86159971740886,123.75,412.4059226936659S134.20685914964557,411.5456933707154,137.5,409.4844351213643S149.356842675459,391.83395077707,151.25,389.57719948032735S162.1801221626828,378.93283138886517,165,376.70286971423684S174.64664820796605,369.2335777917103,178.75,367.8301772367602S189.33055411877527,366.50782288541933,192.49999999999997,364.3909289906761S201.83505223102708,344.6487981946398,206.25,343.7865839105432S215.56525393955823,344.20163134624414,220,345.01338674233807S231.1697037571931,359.6752414812792,233.74999999999997,361.948659410057S245.78558316619217,367.0249991273727,247.5,369.24277250208337S257.88229827767196,395.4993846614577,261.25,397.52271969799983S271.0278762038104,392.67592246496963,275,394.23406236464064S284.43800434659994,412.75797030093946,288.75,413.8396388714711S297.9791655584648,413.10142618924755,302.5,412.5698745524343S312.6584196001272,407.1326426006505,316.25,405.2453269414845S326.5708063705345,400.10849685730074,330,398.1190827425381S339.22566660099,389.8081210157492,343.74999999999994,389.2914631275885S352.9243233753523,389.67561296445615,357.5,389.8627883446604S368.06457011500737,395.0150060502971,371.25,392.90481093593473S380.8684789693971,368.97203545380194,384.99999999999994,367.60577338867097S394.552029090329,368.389506643915,398.75,369.6614108243527S408.11359916558143,387.9719861654588,412.5,388.90140796290274S421.8679657003484,391.2219616677654,426.24999999999994,390.28276026759585S438.0668033156606,370.3057675402269,440,368.0423110279693S449.48102445959574,359.24320794264827,453.75,358.0847668656186S463.50388711631774,357.46399472247606,467.49999999999994,355.9321333696074S476.66666666666663,340.977448256563,481.25,340.977448256563S490.4166666666667,340.977448256563,495,340.977448256563S506.1878028144303,343.302386536104,508.74999999999994,345.57802915950805S518.602754512775,363.76667315389955,522.5,365.40186511880324S533.7443325000597,359.3980311345336,536.25,357.1163782787141S549.1249328110135,342.16183595230245,550,340.36045258640075S563.1389844482997,302.0637501314384,563.75,300.50581947159714S573.357635801632,271.59414649311935,577.5,270.24260857013473S587.069096215013,269.47617073682704,591.25,268.1790511502538S604.6244684002658,240.76048079155484,605,239.50343563867332S618.6159858207553,176.89842035920915,618.75,176.1262339473676S631.0650578931937,83.17461263284268,632.5,81.04911054165501S645.6691070218513,136.91676372912053,646.25,135.3919721047385S659.9732523507369,9.110225858515204,660,8.86409325302202L660,64.4640958996768C659.9715157594902,64.71799555021643,650.8299684365809,186.90317291699873,646.25,187.02731445283024S637.0827311502981,186.83989648420018,632.5,186.8924287881071S619.1574291587586,237.499047755776,618.75,238.80341929981682S605.644787712172,273.3392185884764,605,274.9328075631979S594.6513681587107,304.764436590737,591.25,306.76950484634983S581.3392495888395,301.70719961957036,577.5,303.3973839912027S564.5891256821387,326.2547080336657,563.75,328.0272375254874S551.0696495666778,359.54842424860476,550,361.48708624040364S539.1007266376344,375.64655769363975,536.25,377.86898610867877S526.061065407186,384.8340783613056,522.5,382.9261048424435S512.299842734668,365.0502288102468,508.74999999999994,363.1348361369237S499.5833333333333,360.64642452216276,495,360.64642452216276S485.83333333333337,360.64642452216276,481.25,360.64642452216276S470.08285280069884,371.58482518836996,467.49999999999994,373.85791707970617S456.34092626616786,382.5763131081002,453.75,384.84835619818836S442.4795788605337,395.6893528404778,440,397.97330229668455S430.56478235940256,409.10226269232675,426.24999999999994,410.1787100923035S415.4381214212628,408.7620094594992,412.5,406.563411642396S403.29897552470675,384.80841538673195,398.75,384.4130765061182S389.55209304683785,384.58627071569964,384.99999999999994,384.96337639178665S375.8089301089511,404.6692524291539,371.25,405.00279791989186S362.08273476427706,405.3945698036237,357.5,405.3421953516162S348.33264089415775,401.8757992356086,343.74999999999994,401.8194680712096S334.19094304052214,403.7217824019857,330,405.0041572952308S320.2571157789863,408.714586172229,316.25,410.2341158541217S307.07935246343095,415.29735483905455,302.5,415.4323726393402S293.29207174572133,416.3225541632127,288.75,415.8896418265023S278.65065533731513,398.99525602404594,275,397.1500227314349S264.2565087674316,404.1670181992541,261.25,401.9896948695474S249.92755987328263,379.522068149902,247.5,377.23443418715647S236.94493488756174,374.06953828003816,233.74999999999997,371.96339426021615S224.5827377819567,356.2822273215195,220,356.2299850417567S210.83208256192128,356.0622794997979,206.25,356.1379837789113S196.73330786023732,377.9485861295968,192.49999999999997,379.1658640709645S183.2689076665047,380.0533299140116,178.75,380.59289792617653S167.5135162707455,387.03970478795793,165,389.3206078688189S153.32728381970182,403.2662953295066,151.25,405.547912323228S142.00812130599192,418.9433677748943,137.5,419.5256606075178S128.3146991079974,420.4777864439929,123.75,420.1861365995404S114.56546152884393,412.570412389035,110,412.2847674418586S100.3210989371017,417.0214813699979,96.24999999999999,418.46555785898505S86.9428252370933,421.2493103981009,82.5,422.0394071744461S73.2957856525857,422.9429245308298,68.75,423.3560633796814S59.58325724486326,424.52004075640247,55,424.5387151514856S45.784886723547814,423.9368331561279,41.25,423.46811161030644S32.08096415012403,421.80051992633497,27.5,421.6963415055997S18.27338403099803,422.3219743848123,13.75,422.842717811898S2.243275938599937,424.53273619120756,0,424.8622111613091Z"></path><path opacity="0.85" id="path_6000" class="layer" fill="red" d="M0,417.4426040210882C2.2321729359641846,417.0781862724348,9.317393024499584,416.01520133047177,13.75,415.1978209385355S22.91881101922028,412.470670964091,27.5,412.37155646318666S36.731483882509984,414.06167387145695,41.25,414.60285557336385S50.42051075385658,415.79790543880523,55,415.66522553849074S64.54283329059265,415.0641205295723,68.75,413.806107931316S78.58215874325477,409.0569808228226,82.5,407.442269606012S92.10844936310704,403.82482410150516,96.24999999999999,402.47217285014324S105.47199085082019,397.9601232510309,110,398.4606314048287S119.22134502584468,405.0142999379256,123.75,405.51191366690637S134.32514392430605,404.5325214024855,137.5,402.41787897907363S149.76223489939673,383.67056128037376,151.25,381.52452344678557S162.64449558442917,365.04107681372915,165,362.7502994668606S175.4040163757236,356.8149341613596,178.75,354.7801978482203S190.7360337808719,348.2572731293581,192.49999999999997,346.0271905414752S203.2070569114806,322.1785272271493,206.25,320.01350532216094S216.4698413765751,324.5330517838126,220,326.4612306614472S229.19947115189572,334.6476891155271,233.74999999999997,335.0340539125547S243.6283739814434,331.37082985730893,247.5,333.0307890608699S258.270740588233,366.02248225283194,261.25,368.20856375359915S272.93224088203567,350.92867275024787,275,353.20937473006575S287.8771473313993,396.74094094929995,288.75,398.54058062156855S297.920994779831,409.7678459212391,302.5,409.90862394783755S314.38869240709477,401.63694191911134,316.25,399.3860471684083S328.6142131459978,378.7576673190193,330,376.65264525829923S340.78301882736423,359.8032179955836,343.74999999999994,357.61331242019025S352.9181210563191,354.30851417865983,357.5,354.2268818485186S367.62941124214274,358.4587508735217,371.25,356.5917473420155S382.1838930169714,329.69629492977646,384.99999999999994,327.4654434184281S396.21366638320376,332.5283472290095,398.75,334.80691568192583S408.03231861658554,351.4518289374889,412.5,352.1706446743841S422.33161086745446,351.75782662649624,426.24999999999994,350.143667362323S438.75022507958494,314.9439484422231,440,312.90282186599023S449.1845143841607,305.51624865288863,453.75,305.2307955087571S462.9173055986331,311.1292962464075,467.49999999999994,311.1834075201467S476.66666666666663,305.55550841725574,481.25,305.55550841725574S490.4166666666667,305.55550841725574,495,305.55550841725574S506.0186523626676,299.32217529100933,508.74999999999994,301.57126772022286S519.5517847039188,326.0044184439745,522.5,328.200023146175S532.7694235197939,325.88056686171035,536.25,323.9214268548755S548.6642937476536,313.39004549041215,550,311.30728871215797S562.8007205147863,282.89822797167886,563.75,281.04088234789697S573.0878834852753,258.37036608601966,577.5,257.5012121566254S587.2373215950381,257.064398592769,591.25,255.55117200439528S604.6225085721471,209.96517657794158,605,208.7051490916448S618.5779017583085,164.63030704709212,618.75,163.75900583456024S630.77436110249,71.69845605287857,632.5,69.47779203604608S645.6049321669434,129.96410125667808,646.25,128.37022284467014S659.9733828563957,1.774420215807823,660,1.528881729158229L660,7.86409325302202C659.9732523507369,8.110225858515204,646.8308929781487,132.86718048035647,646.25,134.3919721047385S633.9349421068063,77.92360845046734,632.5,80.04911054165501S618.8840141792447,174.35404753552606,618.75,175.1262339473676S605.3755315997342,237.2463904857918,605,238.50343563867332S595.430903784987,265.8819315636806,591.25,267.1790511502538S581.642364198368,267.8910706471501,577.5,269.24260857013473S564.3610155517003,297.9478888117559,563.75,299.50581947159714S550.8750671889865,337.55906922049905,550,339.36045258640075S538.7556674999403,353.83472542289456,536.25,356.1163782787141S526.397245487225,366.03705708370694,522.5,364.40186511880324S511.3121971855696,346.8536717829121,508.74999999999994,344.57802915950805S499.5833333333333,339.977448256563,495,339.977448256563S485.83333333333337,339.977448256563,481.25,339.977448256563S471.49611288368214,353.40027201673877,467.49999999999994,354.9321333696074S458.01897554040426,355.9263257885889,453.75,357.0847668656186S441.9331966843394,364.77885451571166,440,367.0423110279693S430.6320342996515,388.3435588674263,426.24999999999994,389.28276026759585S416.88640083441857,388.83082976034666,412.5,387.90140796290274S402.947970909671,369.93331500479036,398.75,368.6614108243527S389.1315210306028,365.23951132354,384.99999999999994,366.60577338867097S374.45691322881504,389.8038445293526,371.25,391.90481093593473S362.0754059021316,389.053238378814,357.5,388.8627883446604S348.2709189009059,387.7602658127889,343.74999999999994,388.2914631275885S333.4291936294655,395.1296686277755,330,397.1190827425381S319.8415803998728,402.3580112823185,316.25,404.2453269414845S307.0208344415352,411.0383229156211,302.5,411.5698745524343S293.06199565340006,413.9213074420027,288.75,412.8396388714711S278.9721237961896,394.79220226431164,275,393.23406236464064S264.61770172232804,398.54605473454194,261.25,396.52271969799983S249.21441683380783,370.460545876794,247.5,368.24277250208337S236.33029624280684,363.2220773388348,233.74999999999997,360.948659410057S224.43474606044177,344.825142138432,220,344.01338674233807S210.66494776897292,341.92436962644655,206.25,342.7865839105432S195.66944588122468,361.2740350959329,192.49999999999997,363.3909289906761S182.85335179203395,365.42677668181017,178.75,366.8301772367602S167.8198778373172,373.4729080396085,165,375.70286971423684S153.143157324541,386.3204481835847,151.25,388.57719948032735S140.79314085035443,406.4231768720132,137.5,408.4844351213643S128.2677503597541,411.95024566992294,123.75,411.4059226936659S114.57017063880427,404.33535876531164,110,404.0900920532117S100.25375548168705,408.40676921129335,96.24999999999999,409.93008401808584S86.97811455177809,413.86663117700203,82.5,414.5530579806766S73.32948493548207,415.1353122892285,68.75,415.26806649814716S59.57674025929833,415.7362749166315,55,415.56256600100386S45.72929776495235,414.9069581074622,41.25,414.22431157452985S32.083329080283974,411.3759715650888,27.5,411.37155646318666S18.182606975500416,413.3804405465992,13.75,414.1978209385355S2.2321729359641846,416.0781862724348,0,416.4426040210882Z"></path><path opacity="0.85" id="path_3000" class="layer" fill="#330000" d="M0,417.4426040210882C2.2321729359641846,417.0781862724348,9.317393024499584,416.01520133047177,13.75,415.1978209385355S22.91881101922028,412.470670964091,27.5,412.37155646318666S36.731483882509984,414.06167387145695,41.25,414.60285557336385S50.42051075385658,415.79790543880523,55,415.66522553849074S64.54283329059265,415.0641205295723,68.75,413.806107931316S78.58215874325477,409.0569808228226,82.5,407.442269606012S92.10844936310704,403.82482410150516,96.24999999999999,402.47217285014324S105.47199085082019,397.9601232510309,110,398.4606314048287S119.22134502584468,405.0142999379256,123.75,405.51191366690637S134.32514392430605,404.5325214024855,137.5,402.41787897907363S149.76223489939673,383.67056128037376,151.25,381.52452344678557S162.64449558442917,365.04107681372915,165,362.7502994668606S175.4040163757236,356.8149341613596,178.75,354.7801978482203S190.7360337808719,348.2572731293581,192.49999999999997,346.0271905414752S203.2070569114806,322.1785272271493,206.25,320.01350532216094S216.4698413765751,324.5330517838126,220,326.4612306614472S229.20436709313256,334.6200825377636,233.74999999999997,335.0340539125547S243.62482286492025,331.3742170861168,247.5,333.0307890608699S258.270740588233,363.6854592530555,261.25,365.8715407538227S273.0991965422692,350.9512865867437,275,353.20937473006575S287.8771473313993,396.74094094929995,288.75,398.54058062156855S297.91732260587014,409.96345056327004,302.5,409.90862394783755S314.44501904078294,400.4509650851666,316.25,398.21157384349505S328.5584567413687,377.9182658349333,330,375.7901149234091S340.7783941677126,359.80178651009084,343.74999999999994,357.61331242019025S352.91886288704666,354.3271873154243,357.5,354.2268818485186S367.18836419385593,357.3282364588937,371.25,355.8725766921869S382.1115742007832,329.67804700895874,384.99999999999994,327.4654434184281S396.21366638320376,332.5283472290095,398.75,334.80691568192583S408.02740271561225,351.46688494848473,412.5,352.1706446743841S422.3353844843957,351.7616207438651,426.24999999999994,350.143667362323S438.5251015793841,314.0266057246298,440,311.88543180751S449.1690255157883,305.3347465916674,453.75,305.2307955087571S462.9173055986331,311.1292962464075,467.49999999999994,311.1834075201467S476.66666666666663,305.55550841725574,481.25,305.55550841725574S490.4166666666667,305.55550841725574,495,305.55550841725574S506.0186523626676,299.32217529100933,508.74999999999994,301.57126772022286S519.6182991216835,325.9856167380841,522.5,328.200023146175S532.9223332758837,324.7474164253884,536.25,322.70329314337346S548.609094370146,313.41450622956603,550,311.30728871215797S562.8882913229328,282.83168000790545,563.75,281.04088234789697S574.6399284576153,256.3770150151891,577.5,254.15695825727252S589.306915838402,250.00313640872275,591.25,247.73813611109117S604.5561199483037,205.50101485458316,605,204.14549992045394S618.5679738411211,164.65407736187652,618.75,163.75900583456024S630.77436110249,71.14127564215575,632.5,68.92061162532326S645.6044702508796,129.96457831312827,646.25,128.37022284467014S659.9736009021108,1.244542471348855,660,1L660,0.5288817291582291C659.9733828563957,0.774420215807823,646.8950678330566,125.77634443266221,646.25,127.37022284467014S634.22563889751,66.2571280192136,632.5,68.47779203604608S618.9220982416915,161.88770462202837,618.75,162.75900583456024S605.3774914278529,206.44512160534805,605,207.7051490916448S595.2626784049619,253.03794541602153,591.25,254.55117200439528S581.9121165147247,255.63205822723114,577.5,256.5012121566254S564.6992794852137,278.1835367241151,563.75,280.04088234789697S551.3357062523464,308.2245319339038,550,310.30728871215797S539.7305764802061,320.96228684804066,536.25,322.9214268548755S525.4482152960812,329.3956278483755,522.5,327.200023146175S511.4813476373323,302.8203601494364,508.74999999999994,300.57126772022286S499.5833333333333,304.55550841725574,495,304.55550841725574S485.83333333333337,304.55550841725574,481.25,304.55550841725574S472.0826944013668,310.23751879388595,467.49999999999994,310.1834075201467S458.3154856158393,303.9453423646256,453.75,304.2307955087571S441.24977492041506,309.8616952897574,440,311.90282186599023S430.1683891325454,347.5295080981498,426.24999999999994,349.143667362323S416.96768138341446,351.8894604112793,412.5,351.1706446743841S401.28633361679624,336.08548413484215,398.75,333.80691568192583S387.8161069830285,324.23459190707973,384.99999999999994,326.4654434184281S374.87078883718345,353.72488624194625,371.25,355.5917473420155S362.08187715788677,353.1451994329283,357.5,353.2268818485186S346.71542116320876,354.4229263835519,343.74999999999994,356.61331242019025S331.3857868540022,373.5476231975792,330,375.65264525829923S318.11130759290523,396.1351524177053,316.25,398.3860471684083S307.079005220169,409.049401974436,302.5,408.90862394783755S289.6228526686007,399.34022029383715,288.75,397.54058062156855S277.06775911796433,354.4900767098836,275,352.20937473006575S264.229259411767,369.39464525436637,261.25,367.20856375359915S251.3716260185566,333.69074826443085,247.5,332.0307890608699S238.30052884810422,334.42041870958235,233.74999999999997,334.0340539125547S223.5301586234249,327.3894095390818,220,325.4612306614472S209.2929430885194,316.8484834171726,206.25,319.01350532216094S194.26396621912804,342.7971079535923,192.49999999999997,345.0271905414752S182.0959836242764,351.74546153508106,178.75,353.7801978482203S167.35550441557083,359.4595221199921,165,361.7502994668606S152.73776510060327,378.37848561319737,151.25,380.52452344678557S140.67485607569395,399.3032365556618,137.5,401.41787897907363S128.27865497415533,405.0095273958871,123.75,404.51191366690637S114.52800914917981,397.9611395586265,110,397.4606314048287S100.39155063689293,400.1195215987813,96.24999999999999,401.47217285014324S86.41784125674523,404.82755838920144,82.5,406.442269606012S72.95716670940735,411.5480953330597,68.75,412.806107931316S59.57948924614342,414.53254563817626,55,414.66522553849074S45.768516117490016,414.14403727527076,41.25,413.60285557336385S32.08118898077972,411.2724419622823,27.5,411.37155646318666S18.182606975500416,413.3804405465992,13.75,414.1978209385355S2.2321729359641846,416.0781862724348,0,416.4426040210882Z"></path></g><g class="text_layers"><text class="label" style="font-weight: lighter; " font-size="18px" font-family="PT Sans Narrow" dy="6" opacity="1" pointer-events="none" text-anchor="middle" fill="#333333" x="646.25" y="286.8763314387555"><tspan x="646.25" dy="11px">Food/Live</tspan><tspan x="646.25" dy="11px">Animals</tspan><tspan x="646.25" dy="11px">for</tspan><tspan x="646.25" dy="11px">Food</tspan></text><text class="label" style="font-weight: lighter; " font-size="18px" font-family="PT Sans Narrow" dy="6" opacity="1" pointer-events="none" text-anchor="middle" fill="#ffffff" x="632.5" y="103.97076966488106"><tspan x="632.5" dy="11px">Crude</tspan><tspan x="632.5" dy="11px">Materials,</tspan><tspan x="632.5" dy="11px">Inedible,</tspan><tspan x="632.5" dy="11px">exc.</tspan><tspan x="632.5" dy="11px">Fuels</tspan></text><text class="label" style="font-weight: lighter; " font-size="18px" font-family="PT Sans Narrow" dy="6" opacity="1" pointer-events="none" text-anchor="middle" fill="#ffffff" x="453.75" y="312.1577811871878"><tspan x="453.75" dy="11px">Manuf.</tspan><tspan x="453.75" dy="11px">Goods</tspan><tspan x="453.75" dy="11px">classified...</tspan></text></g></g></g></svg>