<svg width="748" height="520" style="z-index: 10; position: absolute; "><rect id="svgbg" fill="#ffffff" width="748" height="520"></rect><g class="titles"></g><clipPath id="clipping"><rect width="748" height="520"></rect></clipPath><g class="parent" width="748" height="520" clip-path="url(#clipping)" transform="translate(0,0)"><g class="axes_labels"><text class="x_axis_label" x="374" y="510" font-family="sans-serif" font-size="14px" font-weight="lighter" fill="#333" text-anchor="middle">Year</text><text class="y_axis_label" y="15" x="-242.5" transform="rotate(-90)" font-family="sans-serif" font-size="14px" font-weight="lighter" fill="#333" text-anchor="middle">Current</text></g><g class="chart" transform="translate(40,5)"><rect style="fill: #fafafa; " id="background" x="0" y="0" width="698" height="475" stroke-width="1" stroke="#ccc" shape-rendering="crispEdges"></rect><g transform="translate(0,475)" class="xaxis"><path class="domain" d="M0,0V0H698V0"></path></g><g class="yaxis"><path class="domain" d="M0,0H0V475H0"></path></g><clipPath id="path_clipping"><rect width="698" height="475" y="1" x="1"></rect></clipPath><g class="layers" clip-path="url(#path_clipping)"><path opacity="0.85" id="path_5000" class="layer" fill="#71144b" d="M0,448.24632126782274C2.2916666666666665,448.24632126782274,9.166666666666668,448.24632126782274,13.75,448.24632126782274S22.916666666666668,448.24632126782274,27.5,448.24632126782274S36.666666666666664,448.24632126782274,41.25,448.24632126782274S50.416666666666664,448.24632126782274,55,448.24632126782274S64.16666666666667,448.24632126782274,68.75,448.24632126782274S77.91666666666667,448.24632126782274,82.5,448.24632126782274S91.66666666666666,448.24632126782274,96.24999999999999,448.24632126782274S105.41666666666666,448.24632126782274,110,448.24632126782274S119.16666666666667,448.24632126782274,123.75,448.24632126782274S132.91666666666666,448.24632126782274,137.5,448.24632126782274S146.66666666666666,448.24632126782274,151.25,448.24632126782274S160.41666666666666,448.24632126782274,165,448.24632126782274S174.16666666666669,448.24632126782274,178.75,448.24632126782274S187.91666666666663,448.24632126782274,192.49999999999997,448.24632126782274S201.66666666666666,448.24632126782274,206.25,448.24632126782274S215.41666666666669,448.24632126782274,220,448.24632126782274S229.16666666666663,448.24632126782274,233.74999999999997,448.24632126782274S242.91666666666666,448.24632126782274,247.5,448.24632126782274S256.6666666666667,448.24632126782274,261.25,448.24632126782274S270.4166666666667,448.24632126782274,275,448.24632126782274S284.1666666666667,448.24632126782274,288.75,448.24632126782274S297.9166666666667,448.24632126782274,302.5,448.24632126782274S311.6666666666667,448.24632126782274,316.25,448.24632126782274S325.4166666666667,448.24632126782274,330,448.24632126782274S339.16666666666663,448.24632126782274,343.74999999999994,448.24632126782274S352.91666666666663,448.24632126782274,357.5,448.24632126782274S366.6666666666667,448.24632126782274,371.25,448.24632126782274S380.41666666666663,448.24632126782274,384.99999999999994,448.24632126782274S394.16666666666663,448.24632126782274,398.75,448.24632126782274S407.9166666666667,448.24632126782274,412.5,448.24632126782274S421.66666666666663,448.24632126782274,426.24999999999994,448.24632126782274S435.41666666666663,448.24632126782274,440,448.24632126782274S449.1666666666667,448.24632126782274,453.75,448.24632126782274S462.91666666666663,448.24632126782274,467.49999999999994,448.24632126782274S476.66666666666663,448.24632126782274,481.25,448.24632126782274S490.4166666666667,448.24632126782274,495,448.24632126782274S504.16666666666663,448.24632126782274,508.74999999999994,448.24632126782274S517.9166666666666,448.24632126782274,522.5,448.24632126782274S531.6666666666666,448.24632126782274,536.25,448.24632126782274S545.4166666666666,448.24632126782274,550,448.24632126782274S559.1666666666666,448.24632126782274,563.75,448.24632126782274S572.9166666666666,448.24632126782274,577.5,448.24632126782274S586.6666666666666,448.24632126782274,591.25,448.24632126782274S600.4166666666666,448.24632126782274,605,448.24632126782274S614.1666666666666,448.24632126782274,618.75,448.24632126782274S627.9166666666666,448.24632126782274,632.5,448.24632126782274S641.6666666666666,448.24632126782274,646.25,448.24632126782274S657.7149817566396,447.62789509160774,660,447.5046401990298L660,447.24632126782274C657.7083333333334,447.24632126782274,650.8333333333334,447.24632126782274,646.25,447.24632126782274S637.0833333333334,447.24632126782274,632.5,447.24632126782274S623.3333333333334,447.24632126782274,618.75,447.24632126782274S609.5833333333334,447.24632126782274,605,447.24632126782274S595.8333333333334,447.24632126782274,591.25,447.24632126782274S582.0833333333334,447.24632126782274,577.5,447.24632126782274S568.3333333333334,447.24632126782274,563.75,447.24632126782274S554.5833333333334,447.24632126782274,550,447.24632126782274S540.8333333333334,447.24632126782274,536.25,447.24632126782274S527.0833333333334,447.24632126782274,522.5,447.24632126782274S513.3333333333333,447.24632126782274,508.74999999999994,447.24632126782274S499.5833333333333,447.24632126782274,495,447.24632126782274S485.83333333333337,447.24632126782274,481.25,447.24632126782274S472.08333333333326,447.24632126782274,467.49999999999994,447.24632126782274S458.3333333333333,447.24632126782274,453.75,447.24632126782274S444.58333333333337,447.24632126782274,440,447.24632126782274S430.83333333333326,447.24632126782274,426.24999999999994,447.24632126782274S417.0833333333333,447.24632126782274,412.5,447.24632126782274S403.33333333333337,447.24632126782274,398.75,447.24632126782274S389.58333333333326,447.24632126782274,384.99999999999994,447.24632126782274S375.8333333333333,447.24632126782274,371.25,447.24632126782274S362.08333333333337,447.24632126782274,357.5,447.24632126782274S348.33333333333326,447.24632126782274,343.74999999999994,447.24632126782274S334.5833333333333,447.24632126782274,330,447.24632126782274S320.8333333333333,447.24632126782274,316.25,447.24632126782274S307.0833333333333,447.24632126782274,302.5,447.24632126782274S293.3333333333333,447.24632126782274,288.75,447.24632126782274S279.5833333333333,447.24632126782274,275,447.24632126782274S265.8333333333333,447.24632126782274,261.25,447.24632126782274S252.08333333333334,447.24632126782274,247.5,447.24632126782274S238.33333333333331,447.24632126782274,233.74999999999997,447.24632126782274S224.58333333333331,447.24632126782274,220,447.24632126782274S210.83333333333334,447.24632126782274,206.25,447.24632126782274S197.08333333333331,447.24632126782274,192.49999999999997,447.24632126782274S183.33333333333331,447.24632126782274,178.75,447.24632126782274S169.58333333333334,447.24632126782274,165,447.24632126782274S155.83333333333334,447.24632126782274,151.25,447.24632126782274S142.08333333333334,447.24632126782274,137.5,447.24632126782274S128.33333333333334,447.24632126782274,123.75,447.24632126782274S114.58333333333334,447.24632126782274,110,447.24632126782274S100.83333333333331,447.24632126782274,96.24999999999999,447.24632126782274S87.08333333333333,447.24632126782274,82.5,447.24632126782274S73.33333333333333,447.24632126782274,68.75,447.24632126782274S59.583333333333336,447.24632126782274,55,447.24632126782274S45.833333333333336,447.24632126782274,41.25,447.24632126782274S32.083333333333336,447.24632126782274,27.5,447.24632126782274S18.333333333333332,447.24632126782274,13.75,447.24632126782274S2.2916666666666665,447.24632126782274,0,447.24632126782274Z"></path><path opacity="0.85" id="path_8000" class="layer" fill="#5493c9" d="M0,448.24632126782274C2.2916666666666665,448.24632126782274,9.166666666666668,448.24632126782274,13.75,448.24632126782274S22.916666666666668,448.24632126782274,27.5,448.24632126782274S36.666666666666664,448.24632126782274,41.25,448.24632126782274S50.416666666666664,448.24632126782274,55,448.24632126782274S64.16666666666667,448.24632126782274,68.75,448.24632126782274S77.91666666666667,448.24632126782274,82.5,448.24632126782274S91.66666666666666,448.24632126782274,96.24999999999999,448.24632126782274S105.41666666666666,448.24632126782274,110,448.24632126782274S119.16666666666667,448.24632126782274,123.75,448.24632126782274S132.91666666666666,448.24632126782274,137.5,448.24632126782274S146.66666666666666,448.24632126782274,151.25,448.24632126782274S160.41666666666666,448.24632126782274,165,448.24632126782274S174.16666666666669,448.24632126782274,178.75,448.24632126782274S187.91666666666663,448.24632126782274,192.49999999999997,448.24632126782274S201.66666666666666,448.24632126782274,206.25,448.24632126782274S215.41666666666669,448.24632126782274,220,448.24632126782274S229.16666666666663,448.24632126782274,233.74999999999997,448.24632126782274S242.91666666666666,448.24632126782274,247.5,448.24632126782274S256.6666666666667,448.24632126782274,261.25,448.24632126782274S270.4166666666667,448.24632126782274,275,448.24632126782274S284.1666666666667,448.24632126782274,288.75,448.24632126782274S297.9166666666667,448.24632126782274,302.5,448.24632126782274S311.6666666666667,448.24632126782274,316.25,448.24632126782274S325.4166666666667,448.24632126782274,330,448.24632126782274S339.16666666666663,448.24632126782274,343.74999999999994,448.24632126782274S352.91666666666663,448.24632126782274,357.5,448.24632126782274S366.6666666666667,448.24632126782274,371.25,448.24632126782274S380.41666666666663,448.24632126782274,384.99999999999994,448.24632126782274S394.16666666666663,448.24632126782274,398.75,448.24632126782274S407.9166666666667,448.24632126782274,412.5,448.24632126782274S421.66666666666663,448.24632126782274,426.24999999999994,448.24632126782274S435.41666666666663,448.24632126782274,440,448.24632126782274S449.1666666666667,448.24632126782274,453.75,448.24632126782274S462.91666666666663,448.24632126782274,467.49999999999994,448.24632126782274S476.66666666666663,446.6243416472149,481.25,446.6243416472149S490.4166666666667,446.6243416472149,495,446.6243416472149S504.1668053364823,447.4652954351235,508.74999999999994,447.490505567197S517.9166692300537,447.4684903873615,522.5,447.4650627276862S531.6666704311913,447.3803553185313,536.25,447.3762015182416S545.417161783761,447.4877743629785,550,447.44013990547745S559.1703164336714,447.2196495403496,563.75,447.0903638954695S572.9167427777365,446.6451306648595,577.5,446.66380783302964S586.6706318101125,447.0676776921134,591.25,447.2024287654453S600.4167101743465,447.45889313494484,605,447.47301433553577S614.1669946519809,447.2483861858565,618.75,447.28715677327864S627.92223562842,447.54598799700534,632.5,447.7056545079002S641.6669115429911,448.2798218626837,646.25,448.24632126782274S657.7149817566396,447.62789509160774,660,447.5046401990298L660,446.5046401990298C657.7149817566396,446.62789509160774,650.8333333333334,447.24632126782274,646.25,447.24632126782274S637.0833333333334,447.24632126782274,632.5,447.24632126782274S623.3333333333334,447.24632126782274,618.75,447.24632126782274S609.5833333333334,447.24632126782274,605,447.24632126782274S595.8333333333334,447.24632126782274,591.25,447.24632126782274S582.0833333333334,447.24632126782274,577.5,447.24632126782274S568.3333333333334,447.24632126782274,563.75,447.24632126782274S554.5833333333334,447.24632126782274,550,447.24632126782274S540.8333333333334,447.24632126782274,536.25,447.24632126782274S527.0833333333334,447.24632126782274,522.5,447.24632126782274S513.3333333333333,447.24632126782274,508.74999999999994,447.24632126782274S499.5833333333333,447.24632126782274,495,447.24632126782274S485.83333333333337,447.24632126782274,481.25,447.24632126782274S472.08333333333326,447.24632126782274,467.49999999999994,447.24632126782274S458.3333333333333,447.24632126782274,453.75,447.24632126782274S444.58333333333337,447.24632126782274,440,447.24632126782274S430.83333333333326,447.24632126782274,426.24999999999994,447.24632126782274S417.0833333333333,447.24632126782274,412.5,447.24632126782274S403.33333333333337,447.24632126782274,398.75,447.24632126782274S389.58333333333326,447.24632126782274,384.99999999999994,447.24632126782274S375.8333333333333,447.24632126782274,371.25,447.24632126782274S362.08333333333337,447.24632126782274,357.5,447.24632126782274S348.33333333333326,447.24632126782274,343.74999999999994,447.24632126782274S334.5833333333333,447.24632126782274,330,447.24632126782274S320.8333333333333,447.24632126782274,316.25,447.24632126782274S307.0833333333333,447.24632126782274,302.5,447.24632126782274S293.3333333333333,447.24632126782274,288.75,447.24632126782274S279.5833333333333,447.24632126782274,275,447.24632126782274S265.8333333333333,447.24632126782274,261.25,447.24632126782274S252.08333333333334,447.24632126782274,247.5,447.24632126782274S238.33333333333331,447.24632126782274,233.74999999999997,447.24632126782274S224.58333333333331,447.24632126782274,220,447.24632126782274S210.83333333333334,447.24632126782274,206.25,447.24632126782274S197.08333333333331,447.24632126782274,192.49999999999997,447.24632126782274S183.33333333333331,447.24632126782274,178.75,447.24632126782274S169.58333333333334,447.24632126782274,165,447.24632126782274S155.83333333333334,447.24632126782274,151.25,447.24632126782274S142.08333333333334,447.24632126782274,137.5,447.24632126782274S128.33333333333334,447.24632126782274,123.75,447.24632126782274S114.58333333333334,447.24632126782274,110,447.24632126782274S100.83333333333331,447.24632126782274,96.24999999999999,447.24632126782274S87.08333333333333,447.24632126782274,82.5,447.24632126782274S73.33333333333333,447.24632126782274,68.75,447.24632126782274S59.583333333333336,447.24632126782274,55,447.24632126782274S45.833333333333336,447.24632126782274,41.25,447.24632126782274S32.083333333333336,447.24632126782274,27.5,447.24632126782274S18.333333333333332,447.24632126782274,13.75,447.24632126782274S2.2916666666666665,447.24632126782274,0,447.24632126782274Z"></path><path opacity="0.85" id="path_7000" class="layer" fill="#9edae5" d="M0,448.24632126782274C2.2916666666666665,448.24632126782274,9.166666666666668,448.24632126782274,13.75,448.24632126782274S22.916666666666668,448.24632126782274,27.5,448.24632126782274S36.666666666666664,448.24632126782274,41.25,448.24632126782274S50.416666666666664,448.24632126782274,55,448.24632126782274S64.16666666666667,448.24632126782274,68.75,448.24632126782274S77.91666666666667,448.24632126782274,82.5,448.24632126782274S91.66666666666666,448.24632126782274,96.24999999999999,448.24632126782274S105.41666666666666,448.24632126782274,110,448.24632126782274S119.16666666666667,448.24632126782274,123.75,448.24632126782274S132.91666666666666,448.24632126782274,137.5,448.24632126782274S146.66666666666666,448.24632126782274,151.25,448.24632126782274S160.41666666666666,448.24632126782274,165,448.24632126782274S174.16666666666669,448.24632126782274,178.75,448.24632126782274S187.91666666666663,448.24632126782274,192.49999999999997,448.24632126782274S201.66666666666666,448.24632126782274,206.25,448.24632126782274S215.41666666666669,448.24632126782274,220,448.24632126782274S229.16666666666663,448.24632126782274,233.74999999999997,448.24632126782274S242.91666666666666,448.24632126782274,247.5,448.24632126782274S256.6666666666667,448.24632126782274,261.25,448.24632126782274S270.4166666666667,448.24632126782274,275,448.24632126782274S284.1666666666667,448.24632126782274,288.75,448.24632126782274S297.9166666666667,448.24632126782274,302.5,448.24632126782274S311.6666666666667,448.24632126782274,316.25,448.24632126782274S325.4166666666667,448.24632126782274,330,448.24632126782274S339.16666666666663,448.24632126782274,343.74999999999994,448.24632126782274S352.91666666666663,447.7697725499283,357.5,447.7697725499283S366.6666666666667,448.24632126782274,371.25,448.24632126782274S380.41666666666663,448.24632126782274,384.99999999999994,448.24632126782274S394.16666666666663,448.24632126782274,398.75,448.24632126782274S407.9166666666667,448.24632126782274,412.5,448.24632126782274S421.66666666666663,448.24632126782274,426.24999999999994,448.24632126782274S435.41666666666663,444.0988406389083,440,444.0988406389083S449.40833924825193,449.2706553745684,453.75,448.24632126782274S464.3912343977147,439.75177483655364,467.49999999999994,437.6107270929192S476.66666666666663,429.3067097040996,481.25,429.3067097040996S490.4166666666667,429.3067097040996,495,429.3067097040996S505.4141987151822,433.4958103380773,508.74999999999994,435.53579048756154S518.2368495149728,444.95576772467297,522.5,446.1240945903462S531.6735204492753,444.6784543651877,536.25,444.85555940733343S545.4403622796461,447.11144033026017,550,447.44013990547745S559.1695391847375,447.20506985200404,563.75,447.0903638954695S572.916745556209,446.6828228493402,577.5,446.66380783302964S586.6670206267728,446.6680737938483,591.25,446.7083502369063S600.4166691047643,447.46967149123566,605,447.47301433553577S614.1669946519809,446.68963672595424,618.75,446.7284073133764S627.9305882686042,447.45343727769307,632.5,447.7056545079002S641.6669115429911,448.2798218626837,646.25,448.24632126782274S657.7149817566396,447.62789509160774,660,447.5046401990298L660,446.5046401990298C657.7149817566396,446.62789509160774,650.8330884570089,447.21282067296175,646.25,447.24632126782274S637.07776437158,446.86532101879504,632.5,446.7056545079002S623.3330053480191,446.3259273607008,618.75,446.28715677327864S609.5832898256535,446.4871355361267,605,446.47301433553577S595.8293681898875,446.33717983877716,591.25,446.2024287654453S582.0832572222635,445.6824850011998,577.5,445.66380783302964S568.3296835663286,445.9610782505894,563.75,446.0903638954695S554.582838216239,446.3925054479764,550,446.44013990547745S540.8333295688087,446.3720477179519,536.25,446.3762015182416S527.0833307699463,446.4616350680109,522.5,446.4650627276862S513.3331946635176,446.51571569927046,508.74999999999994,446.490505567197S499.5833333333333,445.6243416472149,495,445.6243416472149S485.83333333333337,445.6243416472149,481.25,445.6243416472149S472.08333333333326,447.24632126782274,467.49999999999994,447.24632126782274S458.3333333333333,447.24632126782274,453.75,447.24632126782274S444.58333333333337,447.24632126782274,440,447.24632126782274S430.83333333333326,447.24632126782274,426.24999999999994,447.24632126782274S417.0833333333333,447.24632126782274,412.5,447.24632126782274S403.33333333333337,447.24632126782274,398.75,447.24632126782274S389.58333333333326,447.24632126782274,384.99999999999994,447.24632126782274S375.8333333333333,447.24632126782274,371.25,447.24632126782274S362.08333333333337,447.24632126782274,357.5,447.24632126782274S348.33333333333326,447.24632126782274,343.74999999999994,447.24632126782274S334.5833333333333,447.24632126782274,330,447.24632126782274S320.8333333333333,447.24632126782274,316.25,447.24632126782274S307.0833333333333,447.24632126782274,302.5,447.24632126782274S293.3333333333333,447.24632126782274,288.75,447.24632126782274S279.5833333333333,447.24632126782274,275,447.24632126782274S265.8333333333333,447.24632126782274,261.25,447.24632126782274S252.08333333333334,447.24632126782274,247.5,447.24632126782274S238.33333333333331,447.24632126782274,233.74999999999997,447.24632126782274S224.58333333333331,447.24632126782274,220,447.24632126782274S210.83333333333334,447.24632126782274,206.25,447.24632126782274S197.08333333333331,447.24632126782274,192.49999999999997,447.24632126782274S183.33333333333331,447.24632126782274,178.75,447.24632126782274S169.58333333333334,447.24632126782274,165,447.24632126782274S155.83333333333334,447.24632126782274,151.25,447.24632126782274S142.08333333333334,447.24632126782274,137.5,447.24632126782274S128.33333333333334,447.24632126782274,123.75,447.24632126782274S114.58333333333334,447.24632126782274,110,447.24632126782274S100.83333333333331,447.24632126782274,96.24999999999999,447.24632126782274S87.08333333333333,447.24632126782274,82.5,447.24632126782274S73.33333333333333,447.24632126782274,68.75,447.24632126782274S59.583333333333336,447.24632126782274,55,447.24632126782274S45.833333333333336,447.24632126782274,41.25,447.24632126782274S32.083333333333336,447.24632126782274,27.5,447.24632126782274S18.333333333333332,447.24632126782274,13.75,447.24632126782274S2.2916666666666665,447.24632126782274,0,447.24632126782274Z"></path><path opacity="0.85" id="path_9000" class="layer" fill="#9c9a87" d="M0,448.24632126782274C2.2916666666666665,448.24632126782274,9.166666666666668,448.24632126782274,13.75,448.24632126782274S22.916666666666668,448.24632126782274,27.5,448.24632126782274S36.666666666666664,448.24632126782274,41.25,448.24632126782274S50.416666666666664,448.24632126782274,55,448.24632126782274S64.16666666666667,448.24632126782274,68.75,448.24632126782274S77.91666666666667,448.24632126782274,82.5,448.24632126782274S91.66666666666666,448.24632126782274,96.24999999999999,448.24632126782274S105.41666666666666,448.24632126782274,110,448.24632126782274S119.16666666666667,448.24632126782274,123.75,448.24632126782274S132.91666666666666,448.24632126782274,137.5,448.24632126782274S146.66666666666666,448.24632126782274,151.25,448.24632126782274S160.41666666666666,448.24632126782274,165,448.24632126782274S174.16666666666669,448.24632126782274,178.75,448.24632126782274S187.91666666666663,448.24632126782274,192.49999999999997,448.24632126782274S201.66666666666666,448.24632126782274,206.25,448.24632126782274S215.41666666666669,448.24632126782274,220,448.24632126782274S229.16666666666663,448.24632126782274,233.74999999999997,448.24632126782274S242.91666666666666,448.24632126782274,247.5,448.24632126782274S256.6666666666667,448.24632126782274,261.25,448.24632126782274S270.4166666666667,448.24632126782274,275,448.24632126782274S284.1666666666667,448.24632126782274,288.75,448.24632126782274S297.9166666666667,448.24632126782274,302.5,448.24632126782274S311.6666666666667,448.24632126782274,316.25,448.24632126782274S325.4166666666667,448.24632126782274,330,448.24632126782274S339.16666666666663,448.24632126782274,343.74999999999994,448.24632126782274S352.9656855438672,448.24122456605926,357.5,447.7697725499283S367.9682150447401,446.08876438618756,371.25,444.0220273720263S381.79326990047036,432.55241771212536,384.99999999999994,430.45137153820434S395.5193981123299,423.9135692136446,398.75,426.0040564204628S407.9166666666667,448.24632126782274,412.5,448.24632126782274S421.66666666666663,448.24632126782274,426.24999999999994,448.24632126782274S435.41666666666663,444.0988406389083,440,444.0988406389083S449.48623060013165,449.41360311930913,453.75,448.24632126782274S464.3912343977147,438.71127979576795,467.49999999999994,436.5702320521335S476.66666666666663,429.3067097040996,481.25,429.3067097040996S490.4166666666667,429.3067097040996,495,429.3067097040996S505.4141987151822,433.4958103380773,508.74999999999994,435.53579048756154S518.2368495149728,444.95576772467297,522.5,446.1240945903462S531.6735204492753,444.6784543651877,536.25,444.85555940733343S545.4166785946622,447.44753381091124,550,447.44013990547745S559.2343455695718,445.36402000649645,563.75,444.8111958592759S572.9172868386402,444.12679299059846,577.5,444.0734819198435S586.6666966395778,444.1190527163772,591.25,444.130773422184S600.4262601374694,444.55048147588695,605,444.34101061913003S614.2814303936308,442.59423203565245,618.75,441.87811074548904S628.0276634778924,440.6384997767341,632.5,439.93393246789697S644.320736068656,436.7727043613252,646.25,434.5098741934731S659.8354297921968,385.6681073652564,660,385.07645146335676L660,446.5046401990298C657.7149817566396,446.62789509160774,650.8330884570089,447.21282067296175,646.25,447.24632126782274S637.0694117313958,446.9578717381073,632.5,446.7056545079002S623.3330053480191,445.7671779007986,618.75,445.7284073133764S609.5833308952357,446.4763571798359,605,446.47301433553577S595.8329793732272,445.74862667996433,591.25,445.7083502369063S582.083254443791,445.6447928167191,577.5,445.66380783302964S568.3304608152625,445.975657938935,563.75,446.0903638954695S554.5596377203539,446.76883948069474,550,446.44013990547745S540.8264795507247,444.03266444947917,536.25,443.85555940733343S526.7631504850272,446.29242145601944,522.5,445.1240945903462S512.0858012848176,436.57577063704576,508.74999999999994,434.53579048756154S499.5833333333333,428.3067097040996,495,428.3067097040996S485.83333333333337,428.3067097040996,481.25,428.3067097040996S470.6087656022852,434.4696793492848,467.49999999999994,436.6107270929192S458.09166075174807,446.2219871610771,453.75,447.24632126782274S444.58333333333337,443.0988406389083,440,443.0988406389083S430.83333333333326,447.24632126782274,426.24999999999994,447.24632126782274S417.0833333333333,447.24632126782274,412.5,447.24632126782274S403.33333333333337,447.24632126782274,398.75,447.24632126782274S389.58333333333326,447.24632126782274,384.99999999999994,447.24632126782274S375.8333333333333,447.24632126782274,371.25,447.24632126782274S362.08333333333337,446.7697725499283,357.5,446.7697725499283S348.33333333333326,447.24632126782274,343.74999999999994,447.24632126782274S334.5833333333333,447.24632126782274,330,447.24632126782274S320.8333333333333,447.24632126782274,316.25,447.24632126782274S307.0833333333333,447.24632126782274,302.5,447.24632126782274S293.3333333333333,447.24632126782274,288.75,447.24632126782274S279.5833333333333,447.24632126782274,275,447.24632126782274S265.8333333333333,447.24632126782274,261.25,447.24632126782274S252.08333333333334,447.24632126782274,247.5,447.24632126782274S238.33333333333331,447.24632126782274,233.74999999999997,447.24632126782274S224.58333333333331,447.24632126782274,220,447.24632126782274S210.83333333333334,447.24632126782274,206.25,447.24632126782274S197.08333333333331,447.24632126782274,192.49999999999997,447.24632126782274S183.33333333333331,447.24632126782274,178.75,447.24632126782274S169.58333333333334,447.24632126782274,165,447.24632126782274S155.83333333333334,447.24632126782274,151.25,447.24632126782274S142.08333333333334,447.24632126782274,137.5,447.24632126782274S128.33333333333334,447.24632126782274,123.75,447.24632126782274S114.58333333333334,447.24632126782274,110,447.24632126782274S100.83333333333331,447.24632126782274,96.24999999999999,447.24632126782274S87.08333333333333,447.24632126782274,82.5,447.24632126782274S73.33333333333333,447.24632126782274,68.75,447.24632126782274S59.583333333333336,447.24632126782274,55,447.24632126782274S45.833333333333336,447.24632126782274,41.25,447.24632126782274S32.083333333333336,447.24632126782274,27.5,447.24632126782274S18.333333333333332,447.24632126782274,13.75,447.24632126782274S2.2916666666666665,447.24632126782274,0,447.24632126782274Z"></path><path opacity="0.85" id="path_0000" class="layer" fill="#ffe999" d="M0,426.83544207180057C2.247312716630337,426.5197251163651,9.221892711503504,425.40382302017235,13.75,424.90375356885534S22.91883440610407,423.6987781890371,27.5,423.79843145454896S36.71131645854088,425.0517880360675,41.25,425.50195608858684S50.41673628262411,426.5438737148797,55,426.5260112320768S64.20104749766617,425.79024987528345,68.75,425.3947795638725S78.04555830195692,424.89297610153835,82.5,424.135255655222S92.14007439885879,422.11177957993885,96.24999999999999,420.71690662575463S105.4330235976135,414.52867901313357,110,414.8019951627656S119.16821087430594,422.27856251498116,123.75,422.362676923791S132.92221997888026,422.3416654418326,137.5,422.1822231585371S149.10678752487644,410.6477560709394,151.25,408.36090289154106S162.3441690379382,395.10168708611764,165,392.83913974361394S174.26404376132842,385.5941181919152,178.75,384.9331874956228S188.45921685803182,384.60370812750335,192.49999999999997,383.1230570318903S201.690503732157,361.0983789275461,206.25,360.7687048291708S215.42853600821667,360.94118823710255,220,361.1741265712213S230.452810035129,374.1773083239918,233.74999999999997,376.2365943672309S244.98171444937452,378.99802242141004,247.5,381.2784565889633S258.15285021016444,403.24053917178287,261.25,405.38598389244135S271.2398470288116,398.56880026370385,275,400.3281422101552S284.20467906110815,417.8373215758689,288.75,418.2529879473643S297.92033489067904,417.9438440101015,302.5,417.81423213748667S312.1997463458288,414.3108063454524,316.25,412.84141602341714S325.7810725399473,409.07743542970786,330,407.83751529301037S339.16728315697014,404.7061610061624,343.74999999999994,404.75931362131627S352.9206825727567,408.02086375098065,357.5,408.1564738860893S367.0458569018019,408.0359183785843,371.25,406.7733139235201S380.44173051632845,388.06967259147103,384.99999999999994,387.73166699823776S394.19219780126474,386.90765459254163,398.75,387.2487790000637S409.4394283688951,405.27955308420474,412.5,407.43837713140573S422.1272066009253,412.39380317773475,426.24999999999994,411.01586595094534S437.4222826908747,398.450546401555,440,396.1768025415171S451.65451781878244,389.04201598786256,453.75,386.75876222211946S466.07236739393755,368.3351287901051,467.49999999999994,366.21258756477476S476.66666666666663,345.8729744860317,481.25,345.8729744860317S490.4166666666667,345.8729744860317,495,345.8729744860317S507.1333691559701,360.3119007547235,508.74999999999994,362.5018922499737S518.8229691299719,381.300718396096,522.5,383.1262326072584S532.7763200879568,381.6415985949245,536.25,379.6782899592624S548.929447883571,365.5111339067115,550,363.5719032947654S562.8972499407715,331.64756222792175,563.75,329.86395489783206S573.5389824025168,307.62308765023,577.5,306.053054663031S587.7987678345268,311.2220813168177,591.25,309.245431634884S604.4053323338135,277.8003782941445,605,276.26027099155783S618.3260048490029,239.35220462803392,618.75,238.02422148782927S628.1433470666458,191.12206846121268,632.5,190.12830398735423S642.8288833302129,194.9910177881564,646.25,192.99700705559692S659.9692608132261,75.33727859803906,660,75.07365183140388L660,384.07645146335676C659.8354297921968,384.6681073652564,648.179263931344,431.24704402562094,646.25,433.5098741934731S636.9723365221076,438.22936515905985,632.5,438.93393246789697S623.2185696063692,440.1619894553256,618.75,440.87811074548904S609.5738435793152,443.132672791347,605,443.34101061913003S595.8333006634492,443.14301008438025,591.25,443.130773422184S582.08264996363,443.0175208249102,577.5,443.0734819198435S568.2656544304282,443.2583717120554,563.75,443.8111958592759S554.5833214053378,446.43274600004366,550,446.44013990547745S540.8264795507247,444.03266444947917,536.25,443.85555940733343S526.7631504850272,446.29242145601944,522.5,445.1240945903462S512.0858012848176,436.57577063704576,508.74999999999994,434.53579048756154S499.5833333333333,428.3067097040996,495,428.3067097040996S485.83333333333337,428.3067097040996,481.25,428.3067097040996S470.6087656022852,433.4291843084991,467.49999999999994,435.5702320521335S458.01376939986835,446.07903941633634,453.75,447.24632126782274S444.58333333333337,443.0988406389083,440,443.0988406389083S430.83333333333326,447.24632126782274,426.24999999999994,447.24632126782274S417.0833333333333,447.24632126782274,412.5,447.24632126782274S401.9806018876701,427.094543627281,398.75,425.0040564204628S388.2067300995295,427.3503253642833,384.99999999999994,429.45137153820434S374.5317849552599,440.955290357865,371.25,443.0220273720263S362.034923945512,446.3012291773162,357.5,446.7697725499283S348.33333333333326,447.24632126782274,343.74999999999994,447.24632126782274S334.5833333333333,447.24632126782274,330,447.24632126782274S320.8333333333333,447.24632126782274,316.25,447.24632126782274S307.0833333333333,447.24632126782274,302.5,447.24632126782274S293.3333333333333,447.24632126782274,288.75,447.24632126782274S279.5833333333333,447.24632126782274,275,447.24632126782274S265.8333333333333,447.24632126782274,261.25,447.24632126782274S252.08333333333334,447.24632126782274,247.5,447.24632126782274S238.33333333333331,447.24632126782274,233.74999999999997,447.24632126782274S224.58333333333331,447.24632126782274,220,447.24632126782274S210.83333333333334,447.24632126782274,206.25,447.24632126782274S197.08333333333331,447.24632126782274,192.49999999999997,447.24632126782274S183.33333333333331,447.24632126782274,178.75,447.24632126782274S169.58333333333334,447.24632126782274,165,447.24632126782274S155.83333333333334,447.24632126782274,151.25,447.24632126782274S142.08333333333334,447.24632126782274,137.5,447.24632126782274S128.33333333333334,447.24632126782274,123.75,447.24632126782274S114.58333333333334,447.24632126782274,110,447.24632126782274S100.83333333333331,447.24632126782274,96.24999999999999,447.24632126782274S87.08333333333333,447.24632126782274,82.5,447.24632126782274S73.33333333333333,447.24632126782274,68.75,447.24632126782274S59.583333333333336,447.24632126782274,55,447.24632126782274S45.833333333333336,447.24632126782274,41.25,447.24632126782274S32.083333333333336,447.24632126782274,27.5,447.24632126782274S18.333333333333332,447.24632126782274,13.75,447.24632126782274S2.2916666666666665,447.24632126782274,0,447.24632126782274Z"></path><path opacity="0.85" id="path_4000" class="layer" fill="#ffc41c" d="M0,426.83544207180057C2.247312716630337,426.5197251163651,9.221892711503504,425.40382302017235,13.75,424.90375356885534S22.91883440610407,423.6987781890371,27.5,423.79843145454896S36.71131645854088,425.0517880360675,41.25,425.50195608858684S50.41673628262411,426.5438737148797,55,426.5260112320768S64.20104749766617,425.79024987528345,68.75,425.3947795638725S78.04555830195692,424.89297610153835,82.5,424.135255655222S92.14007439885879,422.11177957993885,96.24999999999999,420.71690662575463S105.4330235976135,414.52867901313357,110,414.8019951627656S119.16821087430594,422.27856251498116,123.75,422.362676923791S132.92221997888026,422.3416654418326,137.5,422.1822231585371S149.10678752487644,410.6477560709394,151.25,408.36090289154106S162.3441690379382,395.10168708611764,165,392.83913974361394S174.26404376132842,385.5941181919152,178.75,384.9331874956228S188.45921685803182,384.60370812750335,192.49999999999997,383.1230570318903S201.690503732157,361.0983789275461,206.25,360.7687048291708S215.42853600821667,360.94118823710255,220,361.1741265712213S230.452810035129,374.1773083239918,233.74999999999997,376.2365943672309S244.98171444937452,378.99802242141004,247.5,381.2784565889633S258.15285021016444,403.24053917178287,261.25,405.38598389244135S271.2398470288116,398.56880026370385,275,400.3281422101552S284.20467906110815,417.8373215758689,288.75,418.2529879473643S297.92033489067904,417.9438440101015,302.5,417.81423213748667S312.1997463458288,414.3108063454524,316.25,412.84141602341714S325.7810725399473,409.07743542970786,330,407.83751529301037S339.16728315697014,404.7061610061624,343.74999999999994,404.75931362131627S352.9206825727567,408.02086375098065,357.5,408.1564738860893S367.0458569018019,408.0359183785843,371.25,406.7733139235201S380.44173051632845,388.06967259147103,384.99999999999994,387.73166699823776S394.19219780126474,386.90765459254163,398.75,387.2487790000637S409.4394283688951,405.27955308420474,412.5,407.43837713140573S422.1272066009253,412.39380317773475,426.24999999999994,411.01586595094534S437.4222826908747,398.450546401555,440,396.1768025415171S451.71217236086267,389.0363271189367,453.75,386.75876222211946S466.15746528122656,367.52748261830914,467.49999999999994,365.44160518744235S476.66666666666663,344.032396529882,481.25,344.032396529882S490.4166666666667,344.032396529882,495,344.032396529882S507.18846381302546,358.91121542900476,508.74999999999994,361.08345979687306S518.5522249613325,380.7034993727642,522.5,382.2874946919808S532.3093455446304,381.2696966903716,536.25,379.6782899592624S548.9469538338582,365.4999996011751,550,363.5719032947654S562.9199923753378,331.0916234775463,563.75,329.3266053597815S573.6991211844274,306.8174577649237,577.5,305.0929245525134S588.0140451247081,310.7964296881978,591.25,308.7083550031919S604.4093135642356,277.3056714358816,605,275.76996236018056S618.3442205679214,238.51386249969175,618.75,237.2118773041044S627.9530716427092,187.94022837986736,632.5,187.5333735926095S641.8687073514791,189.5404859702243,646.25,188.59963562767723S659.9691620543273,71.13187285843539,660,70.86782870820053L660,74.07365183140388C659.9692608132261,74.33727859803906,649.6711166697871,190.00299632303745,646.25,191.99700705559692S636.8566529333542,188.13453951349578,632.5,189.12830398735423S619.1739951509971,235.69623834762461,618.75,237.02422148782927S605.5946676661865,273.7201636889712,605,275.26027099155783S594.7012321654732,306.26878195295035,591.25,308.245431634884S581.4610175974832,303.483021675832,577.5,305.053054663031S564.6027500592285,327.08034756774236,563.75,328.86395489783206S551.070552116429,360.63267268281925,550,362.5719032947654S539.7236799120432,376.7149813236002,536.25,378.6782899592624S526.1770308700281,383.95174681842076,522.5,382.1262326072584S510.36663084402977,363.6918837452239,508.74999999999994,361.5018922499737S499.5833333333333,344.8729744860317,495,344.8729744860317S485.83333333333337,344.8729744860317,481.25,344.8729744860317S468.92763260606233,363.0900463394444,467.49999999999994,365.21258756477476S455.84548218121756,383.47550845637636,453.75,385.75876222211946S442.5777173091253,392.90305868147914,440,395.1768025415171S430.37279339907457,408.6379287241559,426.24999999999994,410.01586595094534S415.5605716311049,408.5972011786067,412.5,406.43837713140573S403.30780219873526,386.5899034075857,398.75,386.2487790000637S389.55826948367144,386.3936614050045,384.99999999999994,386.73166699823776S375.4541430981981,404.5107094684559,371.25,405.7733139235201S362.0793174272433,407.292084021198,357.5,407.1564738860893S348.33271684302974,403.81246623647013,343.74999999999994,403.75931362131627S334.2189274600527,405.5975951563129,330,406.83751529301037S320.3002536541712,410.37202570138186,316.25,411.84141602341714S307.07966510932096,416.68462026487185,302.5,416.81423213748667S293.29532093889185,417.66865431885975,288.75,417.2529879473643S278.7601529711884,401.08748415660654,275,399.3281422101552S264.34714978983556,406.5314286130998,261.25,404.38598389244135S250.01828555062548,382.5588907565166,247.5,380.2784565889633S237.04718996487094,377.29588041047003,233.74999999999997,375.2365943672309S224.57146399178333,360.40706490534,220,360.1741265712213S210.809496267843,359.43903073079554,206.25,359.7687048291708S196.54078314196812,380.64240593627727,192.49999999999997,382.1230570318903S183.23595623867158,383.2722567993304,178.75,383.9331874956228S167.6558309620618,389.57659240111025,165,391.83913974361394S153.39321247512356,405.0740497121427,151.25,407.36090289154106S142.07778002111974,421.0227808752416,137.5,421.1822231585371S128.33178912569406,421.44679133260087,123.75,421.362676923791S114.5669764023865,414.0753113123976,110,413.8019951627656S100.35992560114119,418.3220336715704,96.24999999999999,419.71690662575463S86.95444169804308,422.37753520890567,82.5,423.135255655222S73.29895250233383,423.9993092524615,68.75,424.3947795638725S59.58326371737589,425.50814874927397,55,425.5260112320768S45.78868354145912,424.9521241411062,41.25,424.50195608858684S32.081165593895925,422.8980847200608,27.5,422.79843145454896S18.278107288496496,423.4036841175383,13.75,423.90375356885534S2.247312716630337,425.5197251163651,0,425.83544207180057Z"></path><path opacity="0.85" id="path_1000" class="layer" fill="#6e451e" d="M0,426.83544207180057C2.247312716630337,426.5197251163651,9.221892711503504,425.40382302017235,13.75,424.90375356885534S22.91883440610407,423.6987781890371,27.5,423.79843145454896S36.71131645854088,425.0517880360675,41.25,425.50195608858684S50.41673628262411,426.5438737148797,55,426.5260112320768S64.20104749766617,425.79024987528345,68.75,425.3947795638725S78.04555830195692,424.89297610153835,82.5,424.135255655222S92.14007439885879,422.11177957993885,96.24999999999999,420.71690662575463S105.4330235976135,414.52867901313357,110,414.8019951627656S119.16821087430594,422.27856251498116,123.75,422.362676923791S132.92221997888026,422.3416654418326,137.5,422.1822231585371S149.10678752487644,410.6477560709394,151.25,408.36090289154106S162.3441690379382,395.10168708611764,165,392.83913974361394S174.26404376132842,385.5941181919152,178.75,384.9331874956228S188.45921685803182,384.60370812750335,192.49999999999997,383.1230570318903S201.690503732157,361.0983789275461,206.25,360.7687048291708S215.42853600821667,360.94118823710255,220,361.1741265712213S230.452810035129,374.1773083239918,233.74999999999997,376.2365943672309S244.98171444937452,378.99802242141004,247.5,381.2784565889633S258.15285021016444,403.24053917178287,261.25,405.38598389244135S271.2398470288116,398.56880026370385,275,400.3281422101552S284.20467906110815,417.8373215758689,288.75,418.2529879473643S297.92033489067904,417.9438440101015,302.5,417.81423213748667S312.1997463458288,414.3108063454524,316.25,412.84141602341714S325.7810725399473,409.07743542970786,330,407.83751529301037S339.16728315697014,404.7061610061624,343.74999999999994,404.75931362131627S352.9206825727567,408.02086375098065,357.5,408.1564738860893S367.0458569018019,408.0359183785843,371.25,406.7733139235201S380.44173051632845,388.06967259147103,384.99999999999994,387.73166699823776S394.19219780126474,386.90765459254163,398.75,387.2487790000637S409.4394283688951,405.27955308420474,412.5,407.43837713140573S422.1272066009253,412.39380317773475,426.24999999999994,411.01586595094534S437.4222826908747,398.450546401555,440,396.1768025415171S451.71217236086267,389.0363271189367,453.75,386.75876222211946S466.15746528122656,367.52748261830914,467.49999999999994,365.44160518744235S476.66666666666663,344.032396529882,481.25,344.032396529882S490.4166666666667,344.032396529882,495,344.032396529882S507.18846381302546,358.91121542900476,508.74999999999994,361.08345979687306S518.5522249613325,380.7034993727642,522.5,382.2874946919808S532.3093455446304,381.2696966903716,536.25,379.6782899592624S548.9469538338582,365.4999996011751,550,363.5719032947654S562.9199923753378,331.0916234775463,563.75,329.3266053597815S573.6991211844274,306.8174577649237,577.5,305.0929245525134S588.0140451247081,310.7964296881978,591.25,308.7083550031919S604.4093135642356,277.3056714358816,605,275.76996236018056S618.3499865014875,238.50547090432175,618.75,237.2118773041044S628.0156284488132,187.50457265274125,632.5,186.83840345462943S642.1780773130452,190.04269647647703,646.25,188.59963562767723S659.9691620543273,71.13187285843539,660,70.86782870820053L660,69.86782870820053C659.9691620543273,70.13187285843539,650.6312926485209,186.65878528513016,646.25,187.59963562767723S637.0469283572908,186.12651880535165,632.5,186.5333735926095S619.1557794320786,234.90989210851706,618.75,236.2118773041044S605.5906864357644,273.2342532844795,605,274.76996236018056S594.4859548752919,305.620280318186,591.25,307.7083550031919S581.3008788155726,302.36839134010313,577.5,304.0929245525134S564.5800076246622,326.56158724201674,563.75,328.3266053597815S551.0530461661418,360.64380698835566,550,362.5719032947654S540.1906544553696,377.08688322815317,536.25,378.6782899592624S526.4477750386675,382.87149001119735,522.5,381.2874946919808S510.3115361869744,362.25570416474136,508.74999999999994,360.08345979687306S499.5833333333333,343.032396529882,495,343.032396529882S485.83333333333337,343.032396529882,481.25,343.032396529882S468.8425347187733,362.35572775657556,467.49999999999994,364.44160518744235S455.78782763913733,383.4811973253022,453.75,385.75876222211946S442.5777173091253,392.90305868147914,440,395.1768025415171S430.37279339907457,408.6379287241559,426.24999999999994,410.01586595094534S415.5605716311049,408.5972011786067,412.5,406.43837713140573S403.30780219873526,386.5899034075857,398.75,386.2487790000637S389.55826948367144,386.3936614050045,384.99999999999994,386.73166699823776S375.4541430981981,404.5107094684559,371.25,405.7733139235201S362.0793174272433,407.292084021198,357.5,407.1564738860893S348.33271684302974,403.81246623647013,343.74999999999994,403.75931362131627S334.2189274600527,405.5975951563129,330,406.83751529301037S320.3002536541712,410.37202570138186,316.25,411.84141602341714S307.07966510932096,416.68462026487185,302.5,416.81423213748667S293.29532093889185,417.66865431885975,288.75,417.2529879473643S278.7601529711884,401.08748415660654,275,399.3281422101552S264.34714978983556,406.5314286130998,261.25,404.38598389244135S250.01828555062548,382.5588907565166,247.5,380.2784565889633S237.04718996487094,377.29588041047003,233.74999999999997,375.2365943672309S224.57146399178333,360.40706490534,220,360.1741265712213S210.809496267843,359.43903073079554,206.25,359.7687048291708S196.54078314196812,380.64240593627727,192.49999999999997,382.1230570318903S183.23595623867158,383.2722567993304,178.75,383.9331874956228S167.6558309620618,389.57659240111025,165,391.83913974361394S153.39321247512356,405.0740497121427,151.25,407.36090289154106S142.07778002111974,421.0227808752416,137.5,421.1822231585371S128.33178912569406,421.44679133260087,123.75,421.362676923791S114.5669764023865,414.0753113123976,110,413.8019951627656S100.35992560114119,418.3220336715704,96.24999999999999,419.71690662575463S86.95444169804308,422.37753520890567,82.5,423.135255655222S73.29895250233383,423.9993092524615,68.75,424.3947795638725S59.58326371737589,425.50814874927397,55,425.5260112320768S45.78868354145912,424.9521241411062,41.25,424.50195608858684S32.081165593895925,422.8980847200608,27.5,422.79843145454896S18.278107288496496,423.4036841175383,13.75,423.90375356885534S2.247312716630337,425.5197251163651,0,425.83544207180057Z"></path><path opacity="0.85" id="path_2000" class="layer" fill="#d66011" d="M0,418.78190809169473C2.23711340757275,418.4325632372231,9.305457116783343,417.42012957206265,13.75,416.6347251492813S22.91805108186416,413.842680898884,27.5,413.9223258592795S36.762456937357456,416.4570999421747,41.25,417.1127392978475S50.41847072560707,417.8492189735329,55,417.9401329375219S64.17018992264168,417.78546481471125,68.75,417.6584378757594S78.01315392722323,417.6323720386956,82.5,416.97440282505323S92.16304167504862,413.97685542688583,96.24999999999999,412.55254367280793S105.42870870899696,407.15598479195893,110,407.3906072189142S119.2095884922211,413.522531331079,123.75,413.9639865957233S133.83877196532052,413.45845499222094,137.5,411.62105526152595S149.28947887885454,394.39566895856666,151.25,392.12805374897033S162.03937275139535,382.0053373613922,165,379.81348247319266S174.56501807079198,373.06001105740467,178.75,371.76885133539537S189.26999641183926,370.5730886836298,192.49999999999997,368.4823328554968S201.6894382525133,348.31789673346435,206.25,347.9956371745034S215.43272171444457,348.1476168505242,220,348.41840804515505S230.97810402622858,362.5895566179665,233.74999999999997,364.8303412849322S245.64195096369602,369.2538936987257,247.5,371.50416298522225S257.64814384271693,397.535974874108,261.25,399.41617156854966S270.87010537237296,395.21387886350317,275,396.58232837833907S284.4164092514865,414.2945822647528,288.75,415.33491017223446S297.9740174933158,414.6291492437197,302.5,414.11967025675574S312.6709204559615,409.00731072595744,316.25,407.1114457006225S326.60437978745887,401.56095464571035,330,399.55271594484276S339.21567628943114,391.31879563594237,343.74999999999994,390.84738764433916S352.9170135853855,391.29641087038914,357.5,391.33628471865455S367.05610966779307,394.01152618482905,371.25,392.73352726567083S381.06154477115274,369.94300597690807,384.99999999999994,368.3493235924342S394.7115420916763,369.37071434979896,398.75,370.8541079149668S408.35765445049503,386.85874419678805,412.5,388.21030765579667S422.175923123062,391.8557508882235,426.24999999999994,390.4153516541804S438.00448577222,369.28646020065327,440,367.01401001548913S450.6737243818631,361.2520886750241,453.75,359.09892242403834S465.7135966328843,350.0013093480964,467.49999999999994,347.7660364096753S476.66666666666663,324.6889974663671,481.25,324.6889974663671S490.4166666666667,324.6889974663671,495,324.6889974663671S507.2296479275303,341.5934193797694,508.74999999999994,343.7513836769462S518.7153478710255,361.98347342417253,522.5,363.7220735853507S533.5479154148532,358.63899810037304,536.25,356.3843821146004S549.066440777996,342.6219900864534,550,340.7761081075981S563.1176430001627,303.5905894862974,563.75,302.00994798972783S573.2053940222341,273.1505632545158,577.5,272.0370237504277S586.9906632626241,271.4767565069305,591.25,270.30201798115274S604.6399292674221,239.54262744989944,605,238.30947163714796S618.6081990118976,176.9147282339479,618.75,176.12112022287283S630.9634469476593,86.56576589847599,632.5,84.40207933601585S645.6138233360166,138.98182684672875,646.25,137.39718525882097S659.9710187475171,16.158876025053868,660,15.902798971654136L660,69.86782870820053C659.9691620543273,70.13187285843539,650.3219226869548,186.15657477887743,646.25,187.59963562767723S636.9843715511868,185.1722342565176,632.5,185.83840345462943S619.1500134985125,234.91828370388706,618.75,236.2118773041044S605.5906864357644,273.2342532844795,605,274.76996236018056S594.4859548752919,305.620280318186,591.25,307.7083550031919S581.3008788155726,302.36839134010313,577.5,304.0929245525134S564.5800076246622,326.56158724201674,563.75,328.3266053597815S551.0530461661418,360.64380698835566,550,362.5719032947654S540.1906544553696,377.08688322815317,536.25,378.6782899592624S526.4477750386675,382.87149001119735,522.5,381.2874946919808S510.3115361869744,362.25570416474136,508.74999999999994,360.08345979687306S499.5833333333333,343.032396529882,495,343.032396529882S485.83333333333337,343.032396529882,481.25,343.032396529882S468.8425347187733,362.35572775657556,467.49999999999994,364.44160518744235S455.78782763913733,383.4811973253022,453.75,385.75876222211946S442.5777173091253,392.90305868147914,440,395.1768025415171S430.37279339907457,408.6379287241559,426.24999999999994,410.01586595094534S415.5605716311049,408.5972011786067,412.5,406.43837713140573S403.30780219873526,386.5899034075857,398.75,386.2487790000637S389.55826948367144,386.3936614050045,384.99999999999994,386.73166699823776S375.4541430981981,404.5107094684559,371.25,405.7733139235201S362.0793174272433,407.292084021198,357.5,407.1564738860893S348.33271684302974,403.81246623647013,343.74999999999994,403.75931362131627S334.2189274600527,405.5975951563129,330,406.83751529301037S320.3002536541712,410.37202570138186,316.25,411.84141602341714S307.07966510932096,416.68462026487185,302.5,416.81423213748667S293.29532093889185,417.66865431885975,288.75,417.2529879473643S278.7601529711884,401.08748415660654,275,399.3281422101552S264.34714978983556,406.5314286130998,261.25,404.38598389244135S250.01828555062548,382.5588907565166,247.5,380.2784565889633S237.04718996487094,377.29588041047003,233.74999999999997,375.2365943672309S224.57146399178333,360.40706490534,220,360.1741265712213S210.809496267843,359.43903073079554,206.25,359.7687048291708S196.54078314196812,380.64240593627727,192.49999999999997,382.1230570318903S183.23595623867158,383.2722567993304,178.75,383.9331874956228S167.6558309620618,389.57659240111025,165,391.83913974361394S153.39321247512356,405.0740497121427,151.25,407.36090289154106S142.07778002111974,421.0227808752416,137.5,421.1822231585371S128.33178912569406,421.44679133260087,123.75,421.362676923791S114.5669764023865,414.0753113123976,110,413.8019951627656S100.35992560114119,418.3220336715704,96.24999999999999,419.71690662575463S86.95444169804308,422.37753520890567,82.5,423.135255655222S73.29895250233383,423.9993092524615,68.75,424.3947795638725S59.58326371737589,425.50814874927397,55,425.5260112320768S45.78868354145912,424.9521241411062,41.25,424.50195608858684S32.081165593895925,422.8980847200608,27.5,422.79843145454896S18.278107288496496,423.4036841175383,13.75,423.90375356885534S2.247312716630337,425.5197251163651,0,425.83544207180057Z"></path><path opacity="0.85" id="path_6000" class="layer" fill="red" d="M0,418.78190809169473C2.23711340757275,418.4325632372231,9.305457116783343,417.42012957206265,13.75,416.6347251492813S22.916748810841682,413.941729142193,27.5,413.9223258592795S36.725938475994674,416.0004720104224,41.25,416.51830336524654S50.42588056183487,417.28710121508425,55,417.0818076277755S64.51493825322756,416.49391450068845,68.75,415.27943861631206S78.53185915708032,410.75814010784023,82.5,409.1957155664726S92.04237953041115,405.70884928029153,96.24999999999999,404.45152786705654S105.46631872435529,400.50370983122866,110,400.97816383768253S119.20362922166974,406.91949520604146,123.75,407.32942871279397S133.93351024666072,406.75182956018295,137.5,404.84747607177866S149.69669742431273,386.5853690430916,151.25,384.41590952969585S162.50329529588842,368.72137801000616,165,366.438902267679S175.27551718712854,361.23836340356274,178.75,359.2755383794232S190.7321273700358,353.13444578266916,192.49999999999997,350.9034424392772S203.27741772056243,326.75951642638506,206.25,324.57134594870377S216.4111949999166,328.77098100681667,220,330.6602052537212S229.2052005429002,338.6294543789554,233.74999999999997,339.0479382374091S243.78863211095444,334.9876764503875,247.5,336.78661629104S258.3054248813458,369.1008814544501,261.25,371.2975713880626S272.8927329645834,355.0177251283276,275,357.30196086202625S287.81344632807287,399.2589453673118,288.75,401.10702677314845S297.9205683585948,411.43345543863734,302.5,411.56712492457393S314.3419379036762,404.169059576219,316.25,401.9097270100121S328.59659373318317,381.116946499755,330,379.0044291452299S340.69993198536855,362.6771031632719,343.74999999999994,360.5145668036894S352.9174950971961,357.3047412435635,357.5,357.2431272276033S366.7843659697921,358.7147512124006,371.25,357.9897670654231S382.0521956283642,332.12409073382486,384.99999999999994,329.92836319534723S396.0665690692525,335.2479427622767,398.75,337.50587475250586S407.94801646419796,352.6900568531371,412.5,353.0678183681345S421.88299134500545,352.9510658361864,426.24999999999994,351.979113294858S438.1644123958496,316.49773955867346,440,314.25191498853326S449.4609173983817,309.6406050093038,453.75,308.5171880368878S464.36979361219954,307.0803328511935,467.49999999999994,304.9475911304987S476.66666666666663,289.78027741409653,481.25,289.78027741409653S490.4166666666667,289.78027741409653,495,289.78027741409653S507.1582802829169,298.81803832843855,508.74999999999994,301.0001956048235S519.2389727992951,325.40466067828737,522.5,327.48121461839105S532.3599075037187,325.62173760916727,536.25,323.97955279060034S548.7245056162604,314.3013637298156,550,312.24731163638614S562.8054033946329,281.54759246396844,563.75,279.6936403715288S573.0485818164015,259.039580743339,577.5,258.27328478470315S587.2457760307071,257.88279043715215,591.25,256.3600023375359S604.6751611586952,207.90219132549402,605,206.7260431985587S618.5681904190744,157.68496323675868,618.75,156.7904023451144S630.0545026271919,73.70380537769832,632.5,71.41730756992348S645.525467799589,132.75044956319618,646.25,131.07837729329134S659.9717721056985,8.205695721287716,660,7.952926833913864L660,14.902798971654136C659.9710187475171,15.158876025053868,646.8861766639834,134.8125436709132,646.25,136.39718525882097S634.0365530523407,81.2383927735557,632.5,83.40207933601585S618.8918009881024,174.32751221179777,618.75,175.12112022287283S605.3600707325779,236.0763158243965,605,237.30947163714796S595.5093367373759,268.127279455375,591.25,269.30201798115274S581.7946059777659,269.92348424633957,577.5,271.0370237504277S564.3823569998373,299.42930649315826,563.75,301.00994798972783S550.933559222004,337.93022612874273,550,339.7761081075981S538.9520845851468,353.1297661288277,536.25,355.3843821146004S526.2846521289745,364.46067374652887,522.5,362.7220735853507S510.27035207246956,344.909347974123,508.74999999999994,342.7513836769462S499.5833333333333,323.6889974663671,495,323.6889974663671S485.83333333333337,323.6889974663671,481.25,323.6889974663671S469.2864033671156,344.53076347125415,467.49999999999994,346.7660364096753S456.8262756181369,355.9457561730526,453.75,358.09892242403834S441.99551422778,363.741559830325,440,366.01401001548913S430.3240768769379,387.97495242013736,426.24999999999994,389.4153516541804S416.64234554950497,388.5618711148053,412.5,387.21030765579667S402.7884579083237,371.3375014801346,398.75,369.8541079149668S388.93845522884715,365.7556412079603,384.99999999999994,367.3493235924342S375.44598597319,390.45865311897495,371.25,391.73352726567083S362.08297279110286,390.37693389124627,357.5,390.33628471865455S348.28212266392734,389.3656272936983,343.74999999999994,389.84738764433916S333.39562021254113,396.54447724397517,330,398.55271594484276S319.8290795440385,404.2155806752875,316.25,406.1114457006225S307.0259825066842,412.61019126979176,302.5,413.11967025675574S293.0835907485135,415.3752380797161,288.75,414.33491017223446S279.12989462762704,396.950777893175,275,395.58232837833907S264.85185615728307,400.29636826299134,261.25,398.41617156854966S249.35804903630398,372.7544322717188,247.5,370.50416298522225S236.52189597377136,366.07112595189795,233.74999999999997,363.8303412849322S224.56727828555543,347.6891992397859,220,347.41840804515505S210.8105617474867,346.6733776155424,206.25,346.9956371745034S195.73000358816068,365.3915770273638,192.49999999999997,367.4823328554968S182.93498192920802,369.47769161338607,178.75,370.76885133539537S167.96062724860465,376.6216275849931,165,378.81348247319266S153.21052112114546,388.860438539374,151.25,391.12805374897033S141.16122803467948,408.78365553083097,137.5,410.62105526152595S128.2904115077789,413.40544186036766,123.75,412.9639865957233S114.57129129100304,406.6252296458695,110,406.3906072189142S100.33695832495135,410.12823191873,96.24999999999999,411.55254367280793S86.98684607277677,415.31643361141084,82.5,415.97440282505323S73.32981007735832,416.5314109368075,68.75,416.6584378757594S59.58152927439293,417.03104690151093,55,416.9401329375219S45.737543062642544,416.7683786535203,41.25,416.1127392978475S32.081948918135836,413.001970819675,27.5,412.9223258592795S18.194542883216656,414.8493207264999,13.75,415.6347251492813S2.23711340757275,417.4325632372231,0,417.78190809169473Z"></path><path opacity="0.85" id="path_3000" class="layer" fill="#330000" d="M0,418.78190809169473C2.23711340757275,418.4325632372231,9.305457116783343,417.42012957206265,13.75,416.6347251492813S22.916748810841682,413.941729142193,27.5,413.9223258592795S36.725938475994674,416.0004720104224,41.25,416.51830336524654S50.42588056183487,417.28710121508425,55,417.0818076277755S64.51493825322756,416.49391450068845,68.75,415.27943861631206S78.53185915708032,410.75814010784023,82.5,409.1957155664726S92.04237953041115,405.70884928029153,96.24999999999999,404.45152786705654S105.46631872435529,400.50370983122866,110,400.97816383768253S119.20362922166974,406.91949520604146,123.75,407.32942871279397S133.93351024666072,406.75182956018295,137.5,404.84747607177866S149.69669742431273,386.5853690430916,151.25,384.41590952969585S162.50329529588842,368.72137801000616,165,366.438902267679S175.27551718712854,361.23836340356274,178.75,359.2755383794232S190.7321273700358,353.13444578266916,192.49999999999997,350.9034424392772S203.27741772056243,326.75951642638506,206.25,324.57134594870377S216.30798069305374,328.846163194128,220,330.6602052537212S229.20125754444422,337.6865680161872,233.74999999999997,338.0832353759761S244.00987002282375,333.5338332578663,247.5,335.48714373100506S258.43688104234246,366.8306071545329,261.25,369.0621589955914S273.05613815620313,355.03684101612413,275,357.30196086202625S287.76925850910493,399.2273429447775,288.75,401.10702677314845S297.94519035073927,410.3687559863389,302.5,410.0083118832572S314.3603679266675,401.18694480152965,316.25,398.9308188527241S328.53470864182225,379.3121752356665,330,377.1746907420079S340.14102341507834,360.69058276222177,343.74999999999994,358.8153679237624S352.9168552984605,356.44116199038,357.5,356.41175915367216S366.7070087535808,356.40695780036776,371.25,355.97885296774723S381.98983099169675,329.91451437783,384.99999999999994,327.73839616041306S396.1365024135365,333.82953457771134,398.75,336.0984904984321S407.9403019069424,351.2847433923416,412.5,351.61302613635075S421.83975754183456,351.52063300193953,426.24999999999994,350.6469209631151S437.33480109150963,313.84179304196215,440,311.58077341015235S449.2857135711758,308.3501387645732,453.75,307.62112608965356S464.5088519663005,305.4810418742499,467.49999999999994,303.29873531276843S476.66666666666663,287.5574482761164,481.25,287.5574482761164S490.4166666666667,287.5574482761164,495,287.5574482761164S506.9150361747627,293.92521981663134,508.74999999999994,296.1709176203755S519.5244473785598,319.025739518272,522.5,321.21298347173826S532.7154582944991,318.9450121270081,536.25,317.01965560185397S548.656720130296,307.84920874783506,550,305.7629924133055S562.9293001176918,276.06732173365384,563.75,274.3100531627105S573.135326894473,247.85738605245402,577.5,246.88046209658296S587.2138454600838,246.39164659889568,591.25,244.9055449296966S604.6559110906844,199.71715748071722,605,198.50940047279616S618.5819079371746,149.24164157745636,618.75,148.38015042078007S629.401319243676,59.71360661365013,632.5,57.56873730056702S645.3738858707185,131.14718946360557,646.25,129.34498328089126S659.973995840644,1.2427275198387866,660,1L660,6.952926833913864C659.9717721056985,7.205695721287716,646.974532200411,128.4063050233865,646.25,130.07837729329134S634.9454973728081,68.13080976214864,632.5,70.41730756992348S618.9318095809256,154.8958414534701,618.75,155.7904023451144S605.3248388413048,204.54989507162338,605,205.7260431985587S595.2542239692929,253.8372142379196,591.25,255.36000233753586S581.9514181835985,256.5069888260673,577.5,257.27328478470315S564.6945966053671,276.8396882790891,563.75,278.6936403715288S551.2754943837396,309.1932595429567,550,311.24731163638614S540.1400924962813,321.3373679720334,536.25,322.97955279060034S525.7610272007049,328.55776855849473,522.5,326.48121461839105S510.341719717083,302.18235288120843,508.74999999999994,300.0001956048235S499.5833333333333,288.78027741409653,495,288.78027741409653S485.83333333333337,288.78027741409653,481.25,288.78027741409653S470.63020638780034,301.81484940980397,467.49999999999994,303.9475911304987S458.0390826016183,306.39377106447176,453.75,307.5171880368878S441.8355876041504,311.00609041839306,440,313.25191498853326S430.61700865499444,350.0071607535296,426.24999999999994,350.979113294858S417.05198353580204,352.4455798831319,412.5,352.0678183681345S401.4334309307475,338.763806742735,398.75,336.50587475250586S387.9478043716357,326.7326356568696,384.99999999999994,328.92836319534723S375.71582562393303,356.26535769245123,371.25,356.9897670654231S362.08249545632196,356.18116298309394,357.5,356.2431272276033S346.78676240756715,357.3474100377855,343.74999999999994,359.5145668036894S331.40340626681683,375.8919117907048,330,378.0044291452299S318.1580620963238,398.65039444380517,316.25,400.9097270100121S307.0794316414052,410.7007944105105,302.5,410.56712492457393S289.68655367192713,401.9551081789851,288.75,400.10702677314845S277.1072670354166,358.5861965957249,275,356.30196086202625S264.1945751186542,372.4942613216751,261.25,370.2975713880626S251.21136788904556,337.5855561316925,247.5,335.78661629104S238.29479945709974,338.46642209586275,233.74999999999997,338.0479382374091S223.5888050000834,331.5494295006257,220,329.6602052537212S209.22258227943757,321.38317547102247,206.25,323.57134594870377S194.26787262996413,347.6724390958853,192.49999999999997,349.9034424392772S182.22448281287146,356.3127133552837,178.75,358.2755383794232S167.49670470411158,363.15642652535183,165,365.438902267679S152.80330257568727,381.2464500163001,151.25,383.41590952969585S141.06648975333928,401.94312258337436,137.5,403.84747607177866S128.29637077833027,406.7393622195465,123.75,406.32942871279397S114.53368127564471,400.4526178441364,110,399.97816383768253S100.45762046958882,402.19420645382155,96.24999999999999,403.45152786705654S86.46814084291968,406.63329102510494,82.5,408.1957155664726S72.98506174677244,413.0649627319357,68.75,414.27943861631206S59.57411943816513,415.87651404046676,55,416.0818076277755S45.774061524005326,416.03613472007066,41.25,415.51830336524654S32.08325118915832,412.902922576366,27.5,412.9223258592795S18.194542883216656,414.8493207264999,13.75,415.6347251492813S2.23711340757275,417.4325632372231,0,417.78190809169473Z"></path></g><g class="text_layers"><text class="label" style="font-weight: lighter; " font-size="18px" font-family="PT Sans Narrow" dy="6" opacity="1" pointer-events="none" text-anchor="middle" fill="#333333" x="646.25" y="288.753440624535"><tspan x="646.25" dy="11px">Food/Live</tspan><tspan x="646.25" dy="11px">Animals</tspan><tspan x="646.25" dy="11px">for</tspan><tspan x="646.25" dy="11px">Food</tspan></text><text class="label" style="font-weight: lighter; " font-size="18px" font-family="PT Sans Narrow" dy="6" opacity="1" pointer-events="none" text-anchor="middle" fill="#ffffff" x="632.5" y="105.12024139532264"><tspan x="632.5" dy="11px">Crude</tspan><tspan x="632.5" dy="11px">Materials,</tspan><tspan x="632.5" dy="11px">Inedible,</tspan><tspan x="632.5" dy="11px">exc.</tspan><tspan x="632.5" dy="11px">Fuels</tspan></text><text class="label" style="font-weight: lighter; " font-size="18px" font-family="PT Sans Narrow" dy="6" opacity="1" pointer-events="none" text-anchor="middle" fill="#ffffff" x="453.75" y="314.3080552304631"><tspan x="453.75" dy="11px">Manuf.</tspan><tspan x="453.75" dy="11px">Goods</tspan><tspan x="453.75" dy="11px">classified...</tspan></text></g></g></g></svg>