<?xml version="1.0" encoding="utf-8"?>
<!-- Generator: Adobe Illustrator 18.1.0, SVG Export Plug-In . SVG Version: 6.00 Build 0)  -->
<svg version="1.1" id="Layer_1" xmlns="http://www.w3.org/2000/svg" xmlns:xlink="http://www.w3.org/1999/xlink" x="0px" y="0px"
	 viewBox="0 0 212.9 83.3" enable-background="new 0 0 212.9 83.3" xml:space="preserve">
<g>
	<g>
		<rect x="0" y="61.8" fill="#99CCFF" width="12.5" height="6.2"/>
		<rect x="75.2" y="61.8" fill="#CC3232" width="12.5" height="6.2"/>
		<rect x="12.6" y="61.8" fill="#6699CC" width="12.5" height="6.2"/>
		<rect x="87.7" y="61.8" fill="#FF6666" width="12.5" height="6.2"/>
		<rect x="25.1" y="61.8" fill="#006699" width="12.5" height="6.2"/>
		<rect x="100.2" y="61.8" fill="#FF6633" width="12.5" height="6.2"/>
		<rect x="200.3" y="61.8" fill="#666699" width="12.5" height="6.2"/>
		<rect x="150.3" y="61.8" fill="#CC6666" width="12.5" height="6.2"/>
		<rect x="37.6" y="61.8" fill="#66CCCC" width="12.5" height="6.2"/>
		<rect x="112.7" y="61.8" fill="#993399" width="12.5" height="6.2"/>
		<rect x="162.8" y="61.8" fill="#996699" width="12.5" height="6.2"/>
		<rect x="50.1" y="61.8" fill="#333366" width="12.5" height="6.2"/>
		<rect x="125.2" y="61.8" fill="#330033" width="12.5" height="6.2"/>
		<rect x="175.3" y="61.8" fill="#333366" width="12.5" height="6.2"/>
		<rect x="62.6" y="61.8" fill="#6598CB" width="12.5" height="6.2"/>
		<rect x="137.8" y="61.8" fill="#660033" width="12.5" height="6.2"/>
		<rect x="187.8" y="61.8" fill="#333366" width="12.5" height="6.2"/>
	</g>
	<g>
		<path d="M13.6,6.6v50.9h-6V6.6H0V0.8h20.9v5.8H13.6z"/>
		<path d="M42.5,57.4V32.2h-9.6v25.3h-6.2V0.8h6.2v25.6h9.6V0.8h6v56.7H42.5z"/>
		<path d="M56.5,57.4V0.8h18v5.8H62.6v18.8h8.6v5.5h-8.6v20.8h11.9v5.8H56.5z"/>
		<path d="M107.1,57.4l-1.5-12.3h-7.8L96,57.4h-5.8l8.6-56.7h6.4l8.3,56.7H107.1z M101.9,14.1l-3.3,25.3h6.3L101.9,14.1z"/>
		<path d="M128.7,6.6v50.9h-6V6.6h-7.6V0.8h20.9v5.8H128.7z"/>
		<path d="M141.8,57.4V0.8h6v50.9h11.5v5.8H141.8z"/>
		<path d="M180.1,57.4l-1.5-12.3h-7.8l-1.8,12.3h-5.8l8.6-56.7h6.4l8.3,56.7H180.1z M174.8,14.1l-3.3,25.3h6.3L174.8,14.1z"/>
		<path d="M211.1,51.8c-0.7,1.6-1.5,2.8-2.5,3.8c-1,1-2.2,1.7-3.4,2.1c-1.3,0.4-2.6,0.6-3.9,0.6c-3.3,0-6-1-7.9-3.1
			c-1.9-2-2.9-4.7-2.9-8v-6.5h6V47c0,1.9,0.4,3.4,1.3,4.5c0.8,1.1,2,1.7,3.5,1.7c1.7,0,2.9-0.5,3.7-1.5c0.8-1,1.2-2.4,1.2-4.3
			c0-2.7-0.5-5.3-1.6-7.7c-1.1-2.4-2.7-5.1-4.9-8c-1-1.2-2-2.7-3.1-4.2c-1-1.6-1.9-3.2-2.8-4.9c-0.8-1.7-1.5-3.4-2-5.1
			c-0.5-1.8-0.8-3.5-0.8-5.1c0-1.8,0.2-3.4,0.6-4.9c0.4-1.5,1.1-2.8,2-3.9c0.9-1.1,2-2,3.4-2.6c1.3-0.6,2.9-0.9,4.7-0.9
			c3.1,0,5.5,1,7.4,3.1c1.8,2.1,2.8,4.8,2.8,8.1V18H206v-6.2c0-2-0.4-3.5-1.1-4.6c-0.7-1.1-1.9-1.6-3.4-1.6c-3,0-4.6,1.7-4.6,5.2
			c0,1.5,0.1,2.9,0.4,4.2c0.3,1.3,0.7,2.6,1.3,3.8c0.6,1.3,1.3,2.6,2.2,4c0.9,1.4,2,2.9,3.2,4.5c2.5,3.2,4.4,6.4,5.8,9.4
			c1.4,3,2.1,6.2,2.1,9.4C212.1,48.3,211.7,50.2,211.1,51.8z"/>
	</g>
	<g>
		<path fill="#989897" d="M3.3,83.3c-1.9,0-2.9-1-2.9-2.4v-5.3c0-1.4,1-2.4,2.9-2.4c1.9,0,2.9,1,2.9,2.4v5.3
			C6.2,82.3,5.2,83.3,3.3,83.3z M4.7,75.5c0-0.7-0.5-1.2-1.4-1.2c-0.9,0-1.4,0.5-1.4,1.2V81c0,0.7,0.4,1.2,1.4,1.2
			c0.9,0,1.4-0.5,1.4-1.2V75.5z"/>
		<path fill="#989897" d="M12.8,74.5v3.2h2.5v1.1h-2.5v4.4h-1.6v-9.8h4.8v1.1H12.8z"/>
		<path fill="#989897" d="M26.8,83.1v-9.8h4.9v1.1h-3.3v3h2.4v1.1h-2.4V82h3.3v1.1H26.8z"/>
		<path fill="#989897" d="M39.2,83.3c-1.9,0-2.9-1.1-2.9-2.3v-5.4c0-1.3,1-2.3,2.9-2.3c1.9,0,2.8,1,2.8,2.3v1.3h-1.4v-1.4
			c0-0.7-0.5-1.1-1.4-1.1c-0.9,0-1.4,0.5-1.4,1.1v5.7c0,0.6,0.5,1.1,1.4,1.1c0.9,0,1.4-0.4,1.4-1.1v-1.4h1.4v1.3
			C42.1,82.3,41.1,83.3,39.2,83.3z"/>
		<path fill="#989897" d="M49.7,83.3c-1.9,0-2.9-1-2.9-2.4v-5.3c0-1.4,1-2.4,2.9-2.4c1.9,0,2.9,1,2.9,2.4v5.3
			C52.7,82.3,51.6,83.3,49.7,83.3z M51.1,75.5c0-0.7-0.5-1.2-1.4-1.2c-0.9,0-1.4,0.5-1.4,1.2V81c0,0.7,0.4,1.2,1.4,1.2
			c0.9,0,1.4-0.5,1.4-1.2V75.5z"/>
		<path fill="#989897" d="M62.6,83.1L60,78.3l-0.8-1.6v6.5h-1.5v-9.8H59l2.4,4.9l0.8,1.7v-6.6h1.5v9.8H62.6z"/>
		<path fill="#989897" d="M71.6,83.3c-1.9,0-2.9-1-2.9-2.4v-5.3c0-1.4,1-2.4,2.9-2.4c1.9,0,2.9,1,2.9,2.4v5.3
			C74.6,82.3,73.5,83.3,71.6,83.3z M73,75.5c0-0.7-0.5-1.2-1.4-1.2c-0.9,0-1.4,0.5-1.4,1.2V81c0,0.7,0.4,1.2,1.4,1.2
			c0.9,0,1.4-0.5,1.4-1.2V75.5z"/>
		<path fill="#989897" d="M86.1,83.1v-7.5l-0.4,1.8l-1.4,5.7h-1.5l-1.4-5.7L81,75.7v7.5h-1.4v-9.8h2.2l1.4,6.1l0.4,1.8l0.4-1.8
			l1.4-6h2.2v9.8H86.1z"/>
		<path fill="#989897" d="M92.7,83.1v-9.8h1.6v9.8H92.7z"/>
		<path fill="#989897" d="M102.3,83.3c-1.9,0-2.9-1.1-2.9-2.3v-5.4c0-1.3,1-2.3,2.9-2.3c1.9,0,2.8,1,2.8,2.3v1.3h-1.4v-1.4
			c0-0.7-0.5-1.1-1.4-1.1c-0.9,0-1.4,0.5-1.4,1.1v5.7c0,0.6,0.5,1.1,1.4,1.1c0.9,0,1.4-0.4,1.4-1.1v-1.4h1.4v1.3
			C105.1,82.3,104.2,83.3,102.3,83.3z"/>
		<path fill="#989897" d="M118.8,83.3c-1.9,0-2.9-1.1-2.9-2.3v-5.4c0-1.3,1-2.3,2.9-2.3c1.9,0,2.8,1,2.8,2.3v1.3h-1.4v-1.4
			c0-0.7-0.5-1.1-1.4-1.1c-0.9,0-1.4,0.5-1.4,1.1v5.7c0,0.6,0.5,1.1,1.4,1.1c0.9,0,1.4-0.4,1.4-1.1v-1.4h1.4v1.3
			C121.7,82.3,120.7,83.3,118.8,83.3z"/>
		<path fill="#989897" d="M129.3,83.3c-1.9,0-2.9-1-2.9-2.4v-5.3c0-1.4,1-2.4,2.9-2.4c1.9,0,2.9,1,2.9,2.4v5.3
			C132.3,82.3,131.2,83.3,129.3,83.3z M130.7,75.5c0-0.7-0.5-1.2-1.4-1.2c-0.9,0-1.4,0.5-1.4,1.2V81c0,0.7,0.4,1.2,1.4,1.2
			c0.9,0,1.4-0.5,1.4-1.2V75.5z"/>
		<path fill="#989897" d="M143.8,83.1v-7.5l-0.4,1.8l-1.4,5.7h-1.5l-1.4-5.7l-0.4-1.8v7.5h-1.4v-9.8h2.2l1.4,6.1l0.4,1.8l0.4-1.8
			l1.4-6h2.2v9.8H143.8z"/>
		<path fill="#989897" d="M153.5,79.1H152v4h-1.5v-9.8h3c1.6,0,2.5,0.7,2.5,2v1.7C155.9,78.5,155,79.1,153.5,79.1z M154.4,75.3
			c0-0.6-0.3-0.8-0.9-0.8H152v3.6h1.5c0.7,0,0.9-0.3,0.9-0.9V75.3z"/>
		<path fill="#989897" d="M160.7,83.1v-9.8h1.5V82h3.2v1.1H160.7z"/>
		<path fill="#989897" d="M170.1,83.1v-9.8h4.9v1.1h-3.3v3h2.4v1.1h-2.4V82h3.3v1.1H170.1z"/>
		<path fill="#989897" d="M183.9,83.1l-1.6-3.8l-1.6,3.8h-1.6l2.4-4.9l-2.2-4.8h1.6l1.5,3.7l1.5-3.7h1.6l-2.3,4.7l2.3,5H183.9z"/>
		<path fill="#989897" d="M190,83.1v-9.8h1.6v9.8H190z"/>
		<path fill="#989897" d="M199.8,74.5v8.6h-1.5v-8.6h-2.1v-1.1h5.7v1.1H199.8z"/>
		<path fill="#989897" d="M209.6,79.3v3.9H208v-3.9l-2.4-5.9h1.6l1.7,4.5l1.7-4.5h1.5L209.6,79.3z"/>
	</g>
</g>
</svg>
