<?xml version="1.0" encoding="utf-8"?>
<!-- Generator: Adobe Illustrator 18.1.0, SVG Export Plug-In . SVG Version: 6.00 Build 0)  -->
<svg version="1.1" id="Layer_1" xmlns="http://www.w3.org/2000/svg" xmlns:xlink="http://www.w3.org/1999/xlink" x="0px" y="0px"
	 viewBox="0 0 1748.8 191.3" enable-background="new 0 0 1748.8 191.3" xml:space="preserve">
<g>
	<g>
		<path d="M239.2,83.1c-10.1,0-18.1-3.9-24.1-11c-5.7-6.9-8.7-16.2-8.7-27.2c0-9.1,1.7-16.7,5.1-23.1c5.7-10.9,16.2-17.5,28.1-17.5
			c7.4,0,14.4,2.2,18.9,5.9l-5.8,8.4c-4.1-3-8.3-4.3-13-4.3c-6.5,0-11.9,3.3-15.2,9.1c-2.6,4.6-4,11-4,20c0,9.4,1,14.6,3,18.9
			c3.3,7.3,9.6,10.8,16.9,10.8c5.4,0,9.4-1.4,13.6-4.8l5.9,8C254.1,80.9,247.4,83.1,239.2,83.1z"/>
		<path d="M271.1,57.3v0.9c0,7.7,2.9,15.8,13.8,15.8c5.2,0,9.7-1.9,13.9-5.5l4.7,7.4c-5.8,4.9-12.5,7.4-20,7.4
			c-15.7,0-25.6-11.3-25.6-29.2c0-9.8,2.1-16.3,6.9-21.8c4.5-5.2,10-7.5,17.1-7.5c5.5,0,10.6,1.4,15.3,5.7
			c4.8,4.4,7.3,11.2,7.3,24.2v2.5H271.1z M281.8,34c-6.8,0-10.6,5.4-10.6,14.4h20.6C291.8,39.4,287.8,34,281.8,34z"/>
		<path d="M343.6,81.9v-37c0-7.6-1.8-9.7-6.4-9.7c-3.5,0-8.6,2.6-12.2,6.3v40.4h-11.9V40.9c0-5.8-0.5-9.2-2.1-13.2l11-3.1
			c1.3,2.5,2,5,2,7.9c5.9-5.1,11.1-7.7,17-7.7c8.6,0,14.5,5.2,14.5,15.4v41.6H343.6z"/>
		<path d="M383.3,83.3c-10.8,0-14.5-6.4-14.5-14.3V34.6h-6.2v-8.4h6.2c0-4.7,0-9.6,0.6-13.8l12.4-3c-0.5,4.5-1,11.2-1,16.7h13.3
			l-3.2,8.4h-10.2v31.2c0,6.9,1.5,8.9,6.8,8.9c1.7,0,3.1-0.3,5.2-1.1l1.5,7.3C390.6,82.5,387.1,83.3,383.3,83.3z"/>
		<path d="M410.8,57.3v0.9c0,7.7,2.9,15.8,13.8,15.8c5.2,0,9.7-1.9,13.9-5.5l4.7,7.4c-5.8,4.9-12.5,7.4-20,7.4
			c-15.7,0-25.6-11.3-25.6-29.2c0-9.8,2.1-16.3,6.9-21.8c4.5-5.2,10-7.5,17-7.5c5.5,0,10.6,1.4,15.3,5.7c4.8,4.4,7.3,11.2,7.3,24.2
			v2.5H410.8z M421.5,34c-6.8,0-10.6,5.4-10.6,14.4h20.6C431.5,39.4,427.5,34,421.5,34z"/>
		<path d="M478.8,36.8c-1.2-0.4-2.1-0.8-3.4-0.8c-5.1,0-9.4,3.7-10.5,8.2v37.6h-12.1V42.6c0-7-0.8-11.6-2-15l11.1-2.9
			c1.3,2.5,2.1,5.7,2.1,8.8c4.4-6,8.8-8.9,14.2-8.9c1.8,0,2.9,0.2,4.3,0.9L478.8,36.8z"/>
		<path d="M530.5,11.9c-2.8-1.3-4.4-2-6.7-2c-4.2,0-6.8,2.9-6.8,7.8v8.5h14.5l-3.1,8.4h-11.3v47.3h-12V34.6h-5.2v-8.4h5.4
			c0,0-0.3-3.1-0.3-8.2C505,6.4,512,1,521.9,1c4.7,0,8.7,1,12.5,3.2L530.5,11.9z"/>
		<path d="M552.9,83.3c-15.1,0-24.5-11.3-24.5-29.2c0-17.8,9.6-29.3,24.3-29.3c15.8,0,24.9,11.8,24.9,29.4
			C577.6,72.2,568,83.3,552.9,83.3z M552.8,34c-7.7,0-11,5.8-11,19.4c0,16.2,4.1,20.9,11.3,20.9c7.2,0,11.1-5.8,11.1-19.8
			C564.3,38.7,559.9,34,552.8,34z"/>
		<path d="M610.7,36.8c-1.2-0.4-2.1-0.8-3.4-0.8c-5.1,0-9.4,3.7-10.5,8.2v37.6h-12.1V42.6c0-7-0.8-11.6-2-15l11.1-2.9
			c1.3,2.5,2.1,5.7,2.1,8.8c4.4-6,8.8-8.9,14.2-8.9c1.8,0,2.9,0.2,4.3,0.9L610.7,36.8z"/>
		<path d="M637,81.9V5.7h13v76.1H637z"/>
		<path d="M693.6,81.9v-37c0-7.6-1.8-9.7-6.4-9.7c-3.5,0-8.6,2.6-12.2,6.3v40.4h-11.9V40.9c0-5.8-0.5-9.2-2.1-13.2l11-3.1
			c1.3,2.5,2,5,2,7.9c5.9-5.1,11.1-7.7,17-7.7c8.6,0,14.5,5.2,14.5,15.4v41.6H693.6z"/>
		<path d="M731.1,83.3c-10.8,0-14.5-6.4-14.5-14.3V34.6h-6.2v-8.4h6.2c0-4.7,0-9.6,0.6-13.8l12.4-3c-0.5,4.5-1,11.2-1,16.7h13.3
			l-3.2,8.4h-10.2v31.2c0,6.9,1.5,8.9,6.8,8.9c1.7,0,3.1-0.3,5.2-1.1l1.5,7.3C738.4,82.5,734.9,83.3,731.1,83.3z"/>
		<path d="M756.4,57.3v0.9c0,7.7,2.9,15.8,13.8,15.8c5.2,0,9.7-1.9,13.9-5.5l4.7,7.4c-5.8,4.9-12.5,7.4-20,7.4
			c-15.7,0-25.6-11.3-25.6-29.2c0-9.8,2.1-16.3,6.9-21.8c4.5-5.2,10-7.5,17-7.5c5.5,0,10.6,1.4,15.3,5.7c4.8,4.4,7.3,11.2,7.3,24.2
			v2.5H756.4z M767.1,34c-6.8,0-10.6,5.4-10.6,14.4h20.6C777.1,39.4,773.1,34,767.1,34z"/>
		<path d="M822.2,36.8c-1.2-0.4-2.1-0.8-3.4-0.8c-5.1,0-9.4,3.7-10.5,8.2v37.6h-12.1V42.6c0-7-0.8-11.6-2-15l11.1-2.9
			c1.3,2.5,2.1,5.7,2.1,8.8c4.4-6,8.8-8.9,14.2-8.9c1.8,0,2.9,0.2,4.3,0.9L822.2,36.8z"/>
		<path d="M859.7,81.9v-37c0-7.6-1.8-9.7-6.4-9.7c-3.5,0-8.6,2.6-12.2,6.3v40.4h-11.9V40.9c0-5.8-0.5-9.2-2.1-13.2l11-3.1
			c1.3,2.5,2,5,2,7.9c5.9-5.1,11.1-7.7,17-7.7c8.6,0,14.5,5.2,14.5,15.4v41.6H859.7z"/>
		<path d="M920.2,84.2c-3.4-1.3-6.3-4-7.6-7.5c-4.5,5.1-9.4,6.8-15.3,6.8c-12.8,0-18.5-7-18.5-16.7c0-12.9,9.7-19.4,27.5-19.4h3.7
			v-3c0-6.4-1.1-9.8-7.7-9.8c-8,0-16.6,6.4-16.6,6.4l-5.4-8.7c8.4-5.3,15.3-7.6,23.7-7.6c8.7,0,14.5,3.2,16.9,9.2
			c1,2.4,1,5.4,0.9,13.6l-0.2,16c-0.1,7.5,0.5,9.9,4.8,12.9L920.2,84.2z M907.7,55.6c-12.1,0-15.7,3.5-15.7,10.6
			c0,5.3,2.9,8.6,7.7,8.6c3.9,0,7.6-2.3,10-5.8l0.2-13.2C909.9,55.7,908.6,55.6,907.7,55.6z"/>
		<path d="M949.5,83.3c-10.8,0-14.5-6.4-14.5-14.3V34.6h-6.2v-8.4h6.2c0-4.7,0-9.6,0.6-13.8l12.4-3c-0.5,4.5-1,11.2-1,16.7h13.3
			l-3.2,8.4h-10.2v31.2c0,6.9,1.5,8.9,6.8,8.9c1.7,0,3.1-0.3,5.2-1.1l1.5,7.3C956.7,82.5,953.2,83.3,949.5,83.3z"/>
		<path d="M973,17.9c-4.4,0-7.8-3.6-7.8-8c0-4.5,3.5-8.1,8-8.1c4.3,0,7.9,3.5,7.9,8.1C981.2,14.3,977.5,17.9,973,17.9z M967,81.9
			V27.1l12.2-2.2v57H967z"/>
		<path d="M1013,83.3c-15.1,0-24.5-11.3-24.5-29.2c0-17.8,9.6-29.3,24.3-29.3c15.8,0,24.9,11.8,24.9,29.4
			C1037.7,72.2,1028.1,83.3,1013,83.3z M1012.9,34c-7.7,0-11,5.8-11,19.4c0,16.2,4.1,20.9,11.3,20.9c7.2,0,11.1-5.8,11.1-19.8
			C1024.4,38.7,1020,34,1012.9,34z"/>
		<path d="M1075.3,81.9v-37c0-7.6-1.8-9.7-6.4-9.7c-3.5,0-8.6,2.6-12.2,6.3v40.4h-11.9V40.9c0-5.8-0.5-9.2-2.1-13.2l11-3.1
			c1.3,2.5,2,5,2,7.9c5.9-5.1,11.1-7.7,17-7.7c8.6,0,14.5,5.2,14.5,15.4v41.6H1075.3z"/>
		<path d="M1138,84.2c-3.4-1.3-6.3-4-7.6-7.5c-4.5,5.1-9.4,6.8-15.3,6.8c-12.8,0-18.5-7-18.5-16.7c0-12.9,9.7-19.4,27.5-19.4h3.7v-3
			c0-6.4-1.1-9.8-7.7-9.8c-8,0-16.6,6.4-16.6,6.4l-5.4-8.7c8.4-5.3,15.3-7.6,23.7-7.6c8.7,0,14.5,3.2,16.9,9.2c1,2.4,1,5.4,0.9,13.6
			l-0.2,16c-0.1,7.5,0.5,9.9,4.8,12.9L1138,84.2z M1125.5,55.6c-12.1,0-15.7,3.5-15.7,10.6c0,5.3,2.9,8.6,7.7,8.6
			c3.9,0,7.6-2.3,10-5.8l0.2-13.2C1127.7,55.7,1126.3,55.6,1125.5,55.6z"/>
		<path d="M1162.8,83.1c-12.2,0-12.2-11-12.2-15.7V19.9c0-7.6-0.3-11.7-1.1-16.3l12.4-2.8c0.9,3.4,1,8,1,15.3v47.2
			c0,7.5,0.3,8.7,1.2,10c0.7,1,2.5,1.5,4,0.9l2,7.5C1167.8,82.6,1165.5,83.1,1162.8,83.1z"/>
		<path d="M1241.3,71.2c-6.4,8.1-13,10.7-27.2,10.7h-18.8V5.7h15.8c14.3,0,22.8,2.6,29.9,10.8c5.6,6.5,8.2,15.6,8.2,27.5
			C1249.3,55.6,1246.5,64.6,1241.3,71.2z M1230.4,22.3c-3.5-4.8-7.5-6.6-14.3-6.6h-8v55.8h8.4c13.4,0,18.8-8.9,18.8-26.2
			C1235.2,35.5,1234.4,27.7,1230.4,22.3z"/>
		<path d="M1267,57.3v0.9c0,7.7,2.9,15.8,13.8,15.8c5.2,0,9.7-1.9,13.9-5.5l4.7,7.4c-5.8,4.9-12.5,7.4-20,7.4
			c-15.7,0-25.6-11.3-25.6-29.2c0-9.8,2.1-16.3,6.9-21.8c4.5-5.2,10-7.5,17-7.5c5.5,0,10.6,1.4,15.3,5.7c4.8,4.4,7.3,11.2,7.3,24.2
			v2.5H1267z M1277.7,34c-6.8,0-10.6,5.4-10.6,14.4h20.6C1287.7,39.4,1283.8,34,1277.7,34z"/>
		<path d="M1331.5,82.1h-10.7l-20-55.4l12.4-1.8l9.7,30c1.9,5.8,3.4,12.4,3.4,12.4h0.2c0,0,1.2-6.6,3.3-12.9l9.2-28.3h12.7
			L1331.5,82.1z"/>
		<path d="M1366.7,57.3v0.9c0,7.7,2.9,15.8,13.8,15.8c5.2,0,9.7-1.9,13.9-5.5l4.7,7.4c-5.8,4.9-12.5,7.4-20,7.4
			c-15.7,0-25.6-11.3-25.6-29.2c0-9.8,2.1-16.3,6.9-21.8c4.5-5.2,10-7.5,17-7.5c5.5,0,10.6,1.4,15.3,5.7c4.8,4.4,7.3,11.2,7.3,24.2
			v2.5H1366.7z M1377.4,34c-6.8,0-10.6,5.4-10.6,14.4h20.6C1387.4,39.4,1383.4,34,1377.4,34z"/>
		<path d="M1420.9,83.1c-12.2,0-12.2-11-12.2-15.7V19.9c0-7.6-0.3-11.7-1.1-16.3l12.4-2.8c0.9,3.4,1,8,1,15.3v47.2
			c0,7.5,0.3,8.7,1.2,10c0.7,1,2.5,1.5,4,0.9l2,7.5C1426,82.6,1423.7,83.1,1420.9,83.1z"/>
		<path d="M1452.7,83.3c-15.1,0-24.5-11.3-24.5-29.2c0-17.8,9.6-29.3,24.3-29.3c15.8,0,24.9,11.8,24.9,29.4
			C1477.4,72.2,1467.8,83.3,1452.7,83.3z M1452.6,34c-7.7,0-11,5.8-11,19.4c0,16.2,4.1,20.9,11.3,20.9c7.2,0,11.1-5.8,11.1-19.8
			C1464,38.7,1459.6,34,1452.6,34z"/>
		<path d="M1509.1,83c-4.7,0-9.3-1.5-13.2-4.5c0,0,0.2,2.4,0.2,5.5v18.6l-11.7,3V40.6c0-6.9-0.3-9.8-1.1-13.9l11.1-2
			c0.5,1.9,0.8,3.4,0.9,6.8c3.5-4.3,9-6.6,14.8-6.6c11.2,0,21,8.5,21,27.8C1531.3,71.3,1523.3,83,1509.1,83z M1507.9,35
			c-4.4,0-8.5,2-11.8,5.7v27.7c2.9,2.9,6.7,4.9,10.3,4.9c8.1,0,11.8-6,11.8-19.2C1518.3,41.7,1515.9,35,1507.9,35z"/>
		<path d="M1597.3,81.9V43.4c0-6.5-1.4-8.4-5.7-8.4c-4.1,0-7.9,2.8-11.8,6.4v40.5h-11.5V43.7c0-6.5-1.4-8.6-6-8.6
			c-3.4,0-7.4,1.8-11.4,5.5v41.2H1539V41.9c0-6.9-0.7-11.1-2-14.1l11-3.1c1.1,1.8,1.8,4.1,2,7.1c4.4-4.5,9.6-7,14.7-7
			c5,0,9.2,1.7,13.3,8.1c5.4-5.5,10.7-8.1,16.6-8.1c9.1,0,14.5,4.7,14.5,16.3v40.7H1597.3z"/>
		<path d="M1627.9,57.3v0.9c0,7.7,2.9,15.8,13.8,15.8c5.2,0,9.7-1.9,13.9-5.5l4.7,7.4c-5.8,4.9-12.5,7.4-20,7.4
			c-15.7,0-25.6-11.3-25.6-29.2c0-9.8,2.1-16.3,6.9-21.8c4.5-5.2,10-7.5,17-7.5c5.5,0,10.6,1.4,15.3,5.7c4.8,4.4,7.3,11.2,7.3,24.2
			v2.5H1627.9z M1638.6,34c-6.8,0-10.6,5.4-10.6,14.4h20.6C1648.6,39.4,1644.7,34,1638.6,34z"/>
		<path d="M1700.4,81.9v-37c0-7.6-1.8-9.7-6.4-9.7c-3.5,0-8.6,2.6-12.2,6.3v40.4H1670V40.9c0-5.8-0.5-9.2-2.1-13.2l11-3.1
			c1.3,2.5,2,5,2,7.9c5.9-5.1,11.1-7.7,17-7.7c8.6,0,14.5,5.2,14.5,15.4v41.6H1700.4z"/>
		<path d="M1737.9,83.3c-10.8,0-14.5-6.4-14.5-14.3V34.6h-6.2v-8.4h6.2c0-4.7,0-9.6,0.6-13.8l12.4-3c-0.5,4.5-1,11.2-1,16.7h13.3
			l-3.2,8.4h-10.2v31.2c0,6.9,1.5,8.9,6.8,8.9c1.7,0,3.1-0.3,5.2-1.1l1.5,7.3C1745.2,82.5,1741.7,83.3,1737.9,83.3z"/>
		<path fill="#B3525A" d="M245.2,164c-4.9,5.9-10.5,8.8-12.9,8.8c-1.7,0-3.3-1.1-2-7.7l1.1-5.3h-0.2c-2.8,4-5.9,7-8.5,9.2
			c-2.4,2-5.5,3.8-8,3.8c-2.7,0-5.1-3.1-5.1-9.3c0-7.6,3.6-15.7,8.9-20.4c3.7-3.2,10.1-6.6,16-6.6c1.6,0,3.2,0.2,4.9,0.5
			c1.6,0.3,2.8,0.5,4,0.5l0.4,0.3c-1.6,6-3.6,15.2-5.2,24.6c-0.5,2.5-0.3,3.2,0.2,3.2c0.7,0,3.4-2,5.4-3.9L245.2,164z M232.4,153.6
			c1-3.6,2.3-9.8,2.7-12.2c-1-0.5-3-1.1-4.8-1.1c-1.6,0-3,0.5-4.1,1.3c-5.1,3.7-7.8,13.2-7.8,20.2c0,3.3,0.7,4.7,1.8,4.7
			C223.1,166.5,230.6,157.4,232.4,153.6z"/>
		<path fill="#B3525A" d="M271.1,141l-7.4,0.4l-4.2,20.4c-0.8,3.6-0.4,4.6,0.4,4.6c1.2,0,4.7-2.3,6.6-4.2l1.2,1.9
			c-2.8,3.7-9.4,8.8-13.7,8.8c-2.5,0-4.1-2.6-2.4-10.8l4.4-20.7h-5.7l-0.3-0.8l2.1-2.7h4.7l1.7-7.3l8-5.4l0.9,0.6l-2.7,12h8.7
			L271.1,141z"/>
		<path fill="#B3525A" d="M349.8,123.7c-5.9,0.5-6.4,1.2-7.6,7.3l-6,31c-1.2,6.2-0.8,6.9,5.5,7.4l-0.5,2.4H319l0.5-2.4
			c6.2-0.5,6.7-1.2,7.9-7.4l2.8-15.1h-22.4l-2.8,15.1c-1.2,6.2-0.7,6.9,5.5,7.4l-0.5,2.4h-21.8l0.5-2.4c5.9-0.5,6.2-1.2,7.4-7.4
			l6.1-31c1.2-6.2,0.5-6.8-5.8-7.3l0.5-2.4h21.8l-0.6,2.4c-5.5,0.5-6.1,1.2-7.3,7.3l-2.3,12.2H331l2.3-12.2c1.2-6.2,0.7-6.8-5.3-7.3
			l0.6-2.4h21.7L349.8,123.7z"/>
		<path fill="#B3525A" d="M383.8,164c-4.9,5.9-10.5,8.8-12.9,8.8c-1.7,0-3.3-1.1-2-7.7l1.1-5.3h-0.2c-2.8,4-5.9,7-8.5,9.2
			c-2.4,2-5.5,3.8-8,3.8c-2.7,0-5.1-3.1-5.1-9.3c0-7.6,3.6-15.7,8.9-20.4c3.7-3.2,10.1-6.6,16-6.6c1.6,0,3.2,0.2,4.9,0.5
			c1.6,0.3,2.8,0.5,4,0.5l0.4,0.3c-1.6,6-3.6,15.2-5.2,24.6c-0.5,2.5-0.3,3.2,0.2,3.2c0.7,0,3.4-2,5.4-3.9L383.8,164z M371,153.6
			c1-3.6,2.3-9.8,2.7-12.2c-1-0.5-3-1.1-4.8-1.1c-1.6,0-3,0.5-4.1,1.3c-5.1,3.7-7.8,13.2-7.8,20.2c0,3.3,0.7,4.7,1.8,4.7
			C361.6,166.5,369.2,157.4,371,153.6z"/>
		<path fill="#B3525A" d="M391.1,144.6c4.4-4.6,9.4-8,12.1-8c2.3,0,2.7,2.9,1.4,9l-0.7,3.6h0.3c3.7-7.2,8-12.6,11.3-12.6
			c1.4,0,2.8,0.8,3.6,2c0.9,1.2,0.7,2.8-0.2,4.3c-0.9,1.3-1.6,2.3-2.5,2.9c-0.7,0.5-1.3,0.5-1.9,0.1c-1-0.9-2-1.4-3-1.4
			c-0.9,0-1.8,0.5-3.4,2.7c-1.9,2.7-4,6.3-4.8,9c-1,4.5-2.2,10.5-3,15.1c-2.5,0.2-5.6,0.9-7.7,1.6l-0.5-0.7c2-8.2,3.8-16.8,5.4-25.1
			c0.5-2.6,0.4-3.6-0.2-3.6c-0.7,0-3.4,1.6-5.1,3.2L391.1,144.6z"/>
		<path fill="#B3525A" d="M438.2,163.4c3.6-4.5,10.1-12.9,10.1-18.2c0-1.5-0.4-2.7-0.9-3.7c-0.2-0.5-0.2-1.2,0-1.9
			c0.5-1.7,2.1-3.1,4.2-3.1c2.1,0,3.8,1.9,3.9,4.8c0,2.5-1.2,5.4-5,10.5c-4.7,6.4-12.1,15.8-16.5,20.9h-2.8
			c-0.3-6.6-1.3-19.3-2-24.6c-0.5-3.8-0.9-4.9-1.5-4.9c-0.6,0-2.3,1.3-4.3,3.7l-1.4-2c3.4-4.6,7.8-8.3,10.7-8.3
			c2.6,0,3.7,3.1,4.2,9.2c0.4,6,0.9,12.9,1.2,17.6H438.2z"/>
		<path fill="#B3525A" d="M491.5,164c-4.9,5.9-10.5,8.8-12.9,8.8c-1.7,0-3.3-1.1-2-7.7l1.1-5.3h-0.2c-2.8,4-5.9,7-8.5,9.2
			c-2.4,2-5.5,3.8-8,3.8c-2.7,0-5.1-3.1-5.1-9.3c0-7.6,3.6-15.7,8.9-20.4c3.7-3.2,10.1-6.6,16-6.6c1.6,0,3.2,0.2,4.9,0.5
			c1.6,0.3,2.8,0.5,4,0.5l0.4,0.3c-1.6,6-3.6,15.2-5.2,24.6c-0.5,2.5-0.3,3.2,0.2,3.2c0.7,0,3.4-2,5.4-3.9L491.5,164z M478.7,153.6
			c1-3.6,2.3-9.8,2.7-12.2c-1-0.5-3-1.1-4.8-1.1c-1.6,0-3,0.5-4.1,1.3c-5.1,3.7-7.8,13.2-7.8,20.2c0,3.3,0.7,4.7,1.8,4.7
			C469.3,166.5,476.9,157.4,478.7,153.6z"/>
		<path fill="#B3525A" d="M498,144.6c4.4-4.6,9.4-8,12.1-8c2.3,0,2.7,2.9,1.4,9l-0.7,3.6h0.3c3.7-7.2,8-12.6,11.3-12.6
			c1.4,0,2.8,0.8,3.6,2c0.9,1.2,0.7,2.8-0.2,4.3c-0.9,1.3-1.6,2.3-2.5,2.9c-0.7,0.5-1.3,0.5-1.9,0.1c-1-0.9-2-1.4-3-1.4
			c-0.9,0-1.8,0.5-3.4,2.7c-1.9,2.7-4,6.3-4.8,9c-1,4.5-2.2,10.5-3,15.1c-2.5,0.2-5.6,0.9-7.7,1.6l-0.5-0.7c2-8.2,3.8-16.8,5.4-25.1
			c0.5-2.6,0.4-3.6-0.2-3.6c-0.7,0-3.4,1.6-5.1,3.2L498,144.6z"/>
		<path fill="#B3525A" d="M562,164.4c-4.8,5.8-10.4,8.4-12.7,8.4c-1.9,0-3.3-1.2-2-7.4l1.1-5.6h-0.2c-3.1,4.1-6.6,7.3-9.4,9.6
			c-2.7,2.1-5.2,3.4-7.6,3.4c-3.1,0-5.8-3.3-5.8-9.7c0-7.4,3.4-15.7,9-20.4c3.8-3.2,10.5-6.1,14-6.1c1.3,0,2.5,0,4.4,0.6l2.3-11.5
			c0.7-3.4,0.2-3.8-3.3-3.8l-1.8-0.1l0.4-2.3c7.4-0.7,12.1-2.7,13.5-2.7c0.9,0,1,0.6,0.5,2.5c-3.5,15.2-6.4,29.3-9,43.7
			c-0.5,2.2-0.4,3,0.2,3c0.8,0,3-1.5,5.1-3.6L562,164.4z M549.4,153.5l2.3-11.2c-1.4-1.3-3.9-2.2-5.8-2.2c-1.7,0-2.9,0.4-4,1.2
			c-4.9,3.6-7.6,14-7.6,20.1c0,3.4,1,5,2.3,5C540,166.5,546.9,158.1,549.4,153.5z"/>
		<path fill="#B3525A" d="M640.7,123.7c-4.7,0.2-6,1.4-7,4.8c-0.9,2.5-1.8,6.4-3,13l-1.4,7.1c-1.5,7.4-3.7,14.4-8.9,19.2
			c-3.7,3.7-8.8,5.3-13.7,5.3c-4.8,0-9.4-1.2-12.7-4.2c-3.7-3.4-5.4-9-3.6-18.9l3.6-18.8c1.2-6.2,0.7-6.9-5.3-7.5l0.6-2.4h21.5
			l-0.5,2.4c-5.5,0.5-6.2,1-7.3,7.5l-3.6,18.8c-2.5,13,2.3,18.3,9.8,18.3c8.8,0,14.1-6.8,16.7-20.6l1.2-6.2
			c1.2-6.6,1.7-10.5,1.9-13.2c0.2-3.4-1.6-4.3-7-4.6l0.6-2.4h18.9L640.7,123.7z"/>
		<path fill="#B3525A" d="M672.1,164.8c-5.5,5.7-10.1,8-12.6,8c-2.1,0-3.4-1.8-2-8.3c1.3-5.5,2.7-11.1,3.9-16.6
			c1-4.1,0.6-5.1-0.4-5.1c-2.9,0-10.7,8.7-13.8,14.2c-1.1,4.1-2.3,9.3-3.2,14.2c-2.7,0.3-5.7,0.9-7.7,1.6l-0.5-0.7
			c2-8.1,4.1-16.8,6-25.7c0.5-2.4,0.5-3-0.1-3c-0.7,0-3.3,1.6-5,3.3l-1.1-2.2c5-5.1,9.8-7.8,12.5-7.8c2,0,2.8,2.4,1.2,9.4l-1.2,4.9
			h0.2c4.3-5.9,9-9.9,12.4-12.2c2.2-1.4,4.3-2.2,6-2.2c2.4,0,4.8,1.3,2.4,11.7c-1.2,4.8-2.3,9.8-3.4,14.8c-0.5,2-0.4,2.8,0.2,2.8
			c0.6,0,2.9-1.5,4.8-3.4L672.1,164.8z"/>
		<path fill="#B3525A" d="M695.4,164.5c-4.4,5-10.4,8.3-12.9,8.3c-2,0-3.5-1.5-1.9-8.1l4.4-18.4c0.4-1.9,0.5-2.7-0.1-2.7
			c-0.6,0-2.9,1.3-4.9,3l-1-2c5.1-4.8,10.8-8,13.3-8c2,0,2.3,2.8,1.2,7.2l-4.8,19.3c-0.5,2.1-0.3,2.9,0.2,2.9c0.8,0,3-1.5,5.1-3.3
			L695.4,164.5z M696.8,125.5c0,2.9-2.3,5.5-5.3,5.5c-2.4,0-3.9-1.6-3.9-4.3c-0.1-2.3,1.8-5.4,5.2-5.4
			C695.5,121.3,696.8,123.3,696.8,125.5z"/>
		<path fill="#B3525A" d="M715.4,163.4c3.6-4.5,10.1-12.9,10.1-18.2c0-1.5-0.4-2.7-0.9-3.7c-0.2-0.5-0.2-1.2,0-1.9
			c0.5-1.7,2.1-3.1,4.2-3.1c2.1,0,3.8,1.9,3.9,4.8c0,2.5-1.2,5.4-5,10.5c-4.7,6.4-12.1,15.8-16.5,20.9h-2.8
			c-0.3-6.6-1.3-19.3-2-24.6c-0.5-3.8-0.9-4.9-1.5-4.9c-0.6,0-2.3,1.3-4.3,3.7l-1.4-2c3.4-4.6,7.8-8.3,10.7-8.3
			c2.6,0,3.7,3.1,4.2,9.2c0.4,6,0.9,12.9,1.2,17.6H715.4z"/>
		<path fill="#B3525A" d="M760.3,163.4c-6.9,7.3-12.9,9.4-17.7,9.4c-4.2,0-9.2-2.3-9.2-11.6c0-7.3,3.3-15.2,9.2-19.8
			c3.2-2.5,8.1-4.8,12-4.8c5,0,7.6,3,7.6,6.6c0,7.9-12.6,11.9-20.3,13.9c-0.1,0.9-0.1,1.6-0.1,2.3c0,4.1,1.4,7.9,5.7,7.9
			c3.1,0,7.5-2.3,11.2-5.9L760.3,163.4z M748.7,140.9c-1.9,1.2-5.2,5.2-6.4,13.4c9.4-2.7,12.4-6.1,12.4-10.1c0-3-1.9-4.2-3.3-4.2
			C750.6,140,749.5,140.3,748.7,140.9z"/>
		<path fill="#B3525A" d="M768.5,144.6c4.4-4.6,9.4-8,12.1-8c2.3,0,2.7,2.9,1.4,9l-0.7,3.6h0.3c3.7-7.2,8-12.6,11.3-12.6
			c1.4,0,2.8,0.8,3.6,2c0.9,1.2,0.7,2.8-0.2,4.3c-0.9,1.3-1.6,2.3-2.5,2.9c-0.7,0.5-1.3,0.5-1.9,0.1c-1-0.9-2-1.4-3-1.4
			c-0.9,0-1.8,0.5-3.4,2.7c-1.9,2.7-4,6.3-4.8,9c-1,4.5-2.2,10.5-3,15.1c-2.5,0.2-5.6,0.9-7.7,1.6l-0.5-0.7c2-8.2,3.8-16.8,5.4-25.1
			c0.5-2.6,0.4-3.6-0.2-3.6c-0.7,0-3.4,1.6-5.1,3.2L768.5,144.6z"/>
		<path fill="#B3525A" d="M794.8,166.7c-0.1-1.6,1.2-3.2,2.5-4c1.2-0.7,1.9-0.6,2.4,0.2c2.6,3.4,5.9,5.5,8.4,5.5
			c2.4,0,4.1-1.6,4.1-3.5c0-1.7-1-3.2-4.8-6.1c-3.4-2.6-7.5-5.5-7.5-10c0-2.7,1-5.4,4.6-8.3c2.7-2.3,6.4-3.9,9.3-3.9
			c3.9,0,6.8,2.3,6.8,4.8c0,1.5-0.9,3-2.4,3.9c-0.9,0.6-1.6,0.5-2-0.2c-1.6-2.1-3.8-4.1-6.7-4.1c-2,0-3.4,1.3-3.4,3.4
			c0.1,2.3,2.4,4.4,5.4,6.4c4.5,3.1,7.2,5.8,7.2,9.7c0,6.6-8.6,12.4-15.1,12.4C799.4,172.8,794.9,170.1,794.8,166.7z"/>
		<path fill="#B3525A" d="M843.4,164.5c-4.4,5-10.4,8.3-12.9,8.3c-2,0-3.5-1.5-1.9-8.1l4.4-18.4c0.4-1.9,0.5-2.7-0.1-2.7
			c-0.6,0-2.9,1.3-4.9,3l-1-2c5.1-4.8,10.8-8,13.3-8c2,0,2.3,2.8,1.2,7.2l-4.8,19.3c-0.5,2.1-0.3,2.9,0.2,2.9c0.8,0,3-1.5,5.1-3.3
			L843.4,164.5z M844.8,125.5c0,2.9-2.3,5.5-5.3,5.5c-2.4,0-3.9-1.6-3.9-4.3c-0.1-2.3,1.8-5.4,5.2-5.4
			C843.5,121.3,844.8,123.3,844.8,125.5z"/>
		<path fill="#B3525A" d="M870.3,141l-7.4,0.4l-4.2,20.4c-0.8,3.6-0.4,4.6,0.4,4.6c1.2,0,4.7-2.3,6.6-4.2l1.2,1.9
			c-2.8,3.7-9.4,8.8-13.7,8.8c-2.5,0-4.1-2.6-2.4-10.8l4.4-20.7h-5.7l-0.3-0.8l2.1-2.7h4.7l1.7-7.3l8-5.4l0.9,0.6l-2.7,12h8.7
			L870.3,141z"/>
		<path fill="#B3525A" d="M889.8,165c3.8-5.8,9.2-14,9.1-19.5c0-1.9-0.6-3-1-4.1c-0.3-0.8-0.2-1.6,0.2-2.4c0.8-1.5,2.3-2.4,3.8-2.4
			c1.9,0,3.7,1.7,3.8,4.9c0,2.2-0.9,5-3,8.5c-3.5,6-8.8,13.9-13.2,20c-4.5,6.6-9.4,13.1-14.4,18.9l-9.5,2.3l-0.6-2
			c8.2-5.4,13.5-10.3,17.6-15.8c0.1-6.2-1.3-19-2.7-26.1c-0.5-3.1-1.1-4-1.6-4s-2.2,1.3-4.3,4.2l-1.6-2c3-4.8,7.3-9.1,10.5-9.1
			c2.6,0,4.1,2.8,4.9,10c0.8,6.2,1.2,11.8,1.6,18.4H889.8z"/>
	</g>
	<g>
		<path d="M5,5c0,0,0,48.6,0,59.5c0,2.3,0.4,9.8,1.7,15.5c4.7,21.4,21.2,62.4,70.4,95.6c49.2-33.2,65.7-74.2,70.4-95.6
			c1.2-5.7,1.7-13.2,1.7-15.5c0-10.9,0-59.5,0-59.5H5z"/>
		<path fill="none" stroke="#000000" stroke-width="10" d="M5,5c0,0,0,48.6,0,59.5c0,2.3,0.4,9.8,1.7,15.5
			c4.7,21.4,21.2,62.4,70.4,95.6c49.2-33.2,65.7-74.2,70.4-95.6c1.2-5.7,1.7-13.2,1.7-15.5c0-10.9,0-59.5,0-59.5H5z"/>
	</g>
	<g>
		<path fill="#B3525A" d="M5,5c0,0,0,48.6,0,59.5c0,2.3,0.4,9.8,1.7,15.5c4.7,21.4,21.2,62.4,70.4,95.6
			c49.2-33.2,65.7-74.2,70.4-95.6c1.2-5.7,1.7-13.2,1.7-15.5c0-10.9,0-59.5,0-59.5H5z"/>
	</g>
	<g>
		<g>
			<path fill="#FFFFFF" d="M85,70.4c-0.3,0-0.6-0.3-0.6-0.6v-8.9l-0.3,0c-1.2,0-2.3,0-3.1-0.4c-1-0.4-1.4-1.2-1.4-2.4
				c0-2.9,2.3-2.9,4.1-2.9l0.8,0l0-20.4l-0.9,0c-1.2,0-2.1-0.1-2.7-0.4c-0.8-0.4-1.2-1.2-1.2-2.4c0-2.7,2.2-2.7,3.4-2.7
				c0.3,0,0.6,0,0.9,0c0.2,0,0.3,0,0.5,0v-6.3c0-0.3,0.3-0.6,0.6-0.6h55.4c0.3,0,0.6,0.3,0.6,0.6v6.3c0.1,0,0.9,0,1.2,0
				c1.6,0,3.7,0,3.7,2.7c0,2.9-2.3,2.9-4,2.9l-0.8,0l0,20.4c0.3,0,0.6,0,0.9,0c1.7,0,3.9,0,3.9,2.9c0,2.8-2.3,2.8-3.7,2.8
				c-0.3,0-1,0-1.2,0v8.9c0,0.3-0.3,0.6-0.6,0.6H85z"/>
			<path d="M140.4,23.1V30c0.7,0,1.3,0,1.8,0c2,0,3.1,0.2,3.1,2c0,2.1-1.3,2.2-3.4,2.2c-0.4,0-0.9,0-1.4,0l0,21.7c0.5,0,1,0,1.5,0
				c2.1,0,3.3,0.3,3.3,2.3c0,1.9-1.2,2.1-3.1,2.1c-0.5,0-1.1,0-1.8,0v9.5H85v-9.5c-0.3,0-0.7,0-1,0c-2.4,0-3.9-0.1-3.9-2.1
				c0-2.1,1.4-2.2,3.4-2.2c0.4,0,0.9,0,1.4,0l0-21.7c-0.6,0-1.1,0-1.5,0c-2.1,0-3.3-0.2-3.3-2.2c0-1.8,1.1-2.1,2.8-2.1
				c0.6,0,1.3,0,2.1,0v-6.9H140.4 M140.4,21.9H85c-0.7,0-1.2,0.6-1.2,1.2v5.6c-0.3,0-0.6,0-0.8,0c-1.2,0-4,0-4,3.3
				c0,3.5,2.9,3.5,4.5,3.5c0.1,0,0.2,0,0.3,0l0,19.1c0,0-0.1,0-0.1,0c-1.6,0-4.7,0-4.7,3.5c0,3.2,2.8,3.4,4.9,3.4v8.2
				c0,0.7,0.6,1.2,1.2,1.2h55.4c0.7,0,1.2-0.6,1.2-1.2v-8.2c0.2,0,0.4,0,0.5,0c1.4,0,4.4,0,4.4-3.4c0-3.5-3-3.5-4.6-3.5
				c-0.1,0-0.2,0-0.3,0l0-19.1c0.1,0,0.1,0,0.2,0c1.6,0,4.6,0,4.6-3.5c0-3.3-2.8-3.3-4.3-3.3c-0.2,0-0.4,0-0.5,0v-5.6
				C141.7,22.4,141.1,21.9,140.4,21.9L140.4,21.9z"/>
		</g>
		<g>
			<path fill="#FFFFFF" d="M14,70.4c-0.3,0-0.6-0.3-0.6-0.6v-8.9l-0.3,0c-1.2,0-2.3,0-3.1-0.4c-1-0.4-1.5-1.2-1.5-2.4
				c0-2.9,2.3-2.9,4-2.9l0.8,0l0-20.4l-0.9,0c-1.2,0-2.1-0.1-2.7-0.4C8.9,34,8.5,33.2,8.5,32c0-2.7,2.2-2.7,3.4-2.7
				c0.3,0,0.6,0,0.9,0c0.2,0,0.3,0,0.5,0v-6.3c0-0.3,0.3-0.6,0.6-0.6h55.4c0.3,0,0.6,0.3,0.6,0.6v6.3c0.1,0,1.1,0,1.1,0
				c1.6,0,3.7,0,3.7,2.7c0,2.9-2.4,2.9-4.1,2.9l-0.7,0l0,20.4c0.3,0,0.6,0,0.9,0c2.1,0,3.9,0.2,3.9,2.9c0,2.8-2.3,2.8-3.8,2.8
				c-0.3,0-1,0-1.1,0v8.9c0,0.3-0.3,0.6-0.6,0.6H14z"/>
			<path d="M69.3,23.1V30c0.6,0,1.2,0,1.8,0c2,0,3.1,0.2,3.1,2c0,2.1-1.4,2.2-3.4,2.2c-0.4,0-0.9,0-1.4,0l0,21.7c0.5,0,1,0,1.5,0
				c2.1,0,3.3,0.3,3.3,2.3c0,1.9-1.2,2.2-3.2,2.2c-0.5,0-1.1,0-1.7,0v9.5H14v-9.5c-0.3,0-0.6,0-0.9,0c-2.4,0-4-0.1-4-2.1
				c0-2.1,1.3-2.2,3.4-2.2c0.4,0,0.9,0,1.4,0l0-21.7c-0.6,0-1.1,0-1.5,0c-2.1,0-3.3-0.2-3.3-2.2c0-1.8,1.1-2.1,2.8-2.1
				c0.6,0,1.3,0,2.1,0v-6.9H69.3 M69.3,21.8H14c-0.7,0-1.2,0.6-1.2,1.2v5.6c-0.3,0-0.6,0-0.8,0c-1.2,0-4,0-4,3.3
				c0,3.5,2.9,3.5,4.5,3.5c0.1,0,0.2,0,0.3,0l0,19.1c-0.1,0-0.1,0-0.2,0c-1.6,0-4.7,0-4.7,3.5c0,3.2,2.8,3.4,4.9,3.4v8.2
				c0,0.7,0.6,1.2,1.2,1.2h55.4c0.7,0,1.2-0.6,1.2-1.2v-8.2c0.2,0,0.3,0,0.5,0c1.4,0,4.4,0,4.4-3.4c0-3.5-3-3.5-4.6-3.5
				c-0.1,0-0.2,0-0.2,0l0-19.1c0,0,0.1,0,0.1,0c1.6,0,4.7,0,4.7-3.5c0-3.3-2.8-3.3-4.4-3.3c-0.2,0-0.3,0-0.5,0v-5.6
				C70.6,22.4,70,21.8,69.3,21.8L69.3,21.8z"/>
		</g>
		<g>
			<path fill="#FFFFFF" d="M49.4,141c-0.3,0-0.6-0.3-0.6-0.6v-8.9l-0.3,0c-1.2,0-2.3,0-3.1-0.4c-1-0.4-1.5-1.2-1.5-2.4
				c0-2.9,2.3-2.9,4-2.9l0.8,0l0-20.4l-0.9,0c-1.2,0-2.1-0.1-2.7-0.4c-0.8-0.4-1.2-1.2-1.2-2.4c0-2.7,2.2-2.7,3.4-2.7
				c0.3,0,0.6,0,0.9,0c0.2,0,0.3,0,0.5,0v-6.3c0-0.3,0.3-0.6,0.6-0.6h55.4c0.3,0,0.6,0.3,0.6,0.6v6.3c0.1,0,0.9,0,1.2,0
				c1.6,0,3.7,0,3.7,2.7c0,2.9-2.4,2.9-4.1,2.9l-0.7,0l0,20.4c0.3,0,0.6,0,0.9,0c1.6,0,3.9,0,3.9,2.9c0,2.8-2.3,2.8-3.8,2.8
				c-0.3,0-1,0-1.1,0v8.9c0,0.3-0.3,0.6-0.6,0.6H49.4z"/>
			<path d="M104.8,93.7v6.9c0.7,0,1.3,0,1.8,0c2,0,3.1,0.2,3.1,2c0,2.1-1.4,2.2-3.4,2.2c-0.4,0-0.9,0-1.4,0l0,21.7
				c0.6,0,1.1,0,1.5,0c2.1,0,3.3,0.3,3.3,2.3c0,1.9-1.2,2.1-3.2,2.1c-0.5,0-1.1,0-1.7,0v9.5H49.4v-9.5c-0.3,0-0.6,0-0.9,0
				c-2.4,0-4-0.1-4-2.1c0-2.1,1.4-2.2,3.4-2.2c0.4,0,0.9,0,1.4,0l0-21.7c-0.6,0-1.1,0-1.5,0c-2.1,0-3.3-0.2-3.3-2.2
				c0-1.8,1.1-2.1,2.8-2.1c0.6,0,1.3,0,2.1,0v-6.9H104.8 M104.8,92.5H49.4c-0.7,0-1.2,0.6-1.2,1.2v5.6c-0.3,0-0.6,0-0.8,0
				c-1.2,0-4,0-4,3.3c0,3.5,2.9,3.5,4.5,3.5c0.1,0,0.2,0,0.3,0l0,19.1c0,0-0.1,0-0.1,0c-1.6,0-4.7,0-4.7,3.5c0,3.2,2.8,3.4,4.9,3.4
				v8.2c0,0.7,0.6,1.2,1.2,1.2h55.4c0.7,0,1.2-0.6,1.2-1.2v-8.2c0.2,0,0.3,0,0.5,0c1.4,0,4.4,0,4.4-3.4c0-3.5-3.1-3.5-4.5-3.5
				c-0.1,0-0.2,0-0.3,0l0-19.1c0,0,0.1,0,0.1,0c1.6,0,4.7,0,4.7-3.5c0-3.3-2.8-3.3-4.3-3.3c-0.2,0-0.4,0-0.5,0v-5.6
				C106,93,105.5,92.5,104.8,92.5L104.8,92.5z"/>
		</g>
	</g>
	<path fill="#FFFFFF" d="M140.4,23.1V30c3,0,4.9-0.3,4.9,2c0,2.5-1.9,2.2-4.8,2.2l0,21.7c3.1,0,4.8-0.2,4.8,2.2c0,2.5-2,2.1-4.9,2.1
		v9.5H85v-9.5c-3,0-4.9,0.1-4.9-2.1c0-2.5,2-2.2,4.8-2.2l0-21.7c-3,0-4.8,0.3-4.8-2.2c0-2.5,2-2,4.9-2v-6.9H140.4"/>
	<path fill="#FFFFFF" d="M137.2,23.4v42.9H87.7V23.4l3.3-2.9c3.3,0.7,7.8,1.7,10,0.9c3.6-1.4,9-1,11.8,1c2.8-2.1,7.5-2.4,11.1-1
		c2.1,0.8,6.7-0.2,10-0.9L137.2,23.4"/>
	
		<path fill="#FFFFFF" stroke="#000000" stroke-width="1.25" stroke-linecap="round" stroke-linejoin="round" stroke-miterlimit="3.864" d="
		M137.2,23.4v42.9H87.7V23.4l3.3-2.9c3.3,0.7,7.8,1.7,10,0.9c3.6-1.4,9-1,11.8,1c2.8-2.1,7.5-2.4,11.1-1c2.1,0.8,6.7-0.2,10-0.9
		L137.2,23.4z"/>
	
		<line fill="none" stroke="#000000" stroke-width="1.25" stroke-linejoin="round" stroke-miterlimit="3.864" x1="87.7" y1="66.5" x2="91" y2="62.9"/>
	<line fill="none" stroke="#000000" stroke-width="1.25" stroke-miterlimit="3.864" x1="136.8" y1="66.2" x2="133.8" y2="62.9"/>
	
		<path fill="#FFFFFF" stroke="#000000" stroke-width="1.25" stroke-linecap="round" stroke-linejoin="round" stroke-miterlimit="3.864" d="
		M133.8,20.5c-3.3,0.7-7.8,1.7-10,0.9c-3.6-1.4-8.4-1-11.1,1c-2.8-2.1-8.2-2.4-11.8-1c-2.1,0.8-6.7-0.2-10-0.9l0,42.4
		c3.3,0.7,4.3,1.7,6.5,1.2c3.6-0.9,12.1-1.9,14.9,0.2c2.7-2.1,11.3-1.1,14.9-0.2c2.2,0.6,3.3-0.5,6.5-1.2V20.5z"/>
	<line fill="none" stroke="#000000" stroke-width="1.25" stroke-miterlimit="3.864" x1="112.7" y1="22.4" x2="112.7" y2="63.8"/>
	<path fill="#FFFFFF" d="M69.3,23.1V30c3,0,4.9-0.3,4.9,2c0,2.5-2,2.2-4.8,2.2l0,21.7c3.1-0.1,4.8-0.2,4.8,2.2c0,2.5-2,2.1-4.9,2.1
		v9.5H14v-9.5c-3,0-4.9,0.1-4.9-2.1c0-2.5,2-2.2,4.8-2.2l0-21.7c-3,0-4.8,0.3-4.8-2.2c0-2.5,2-2,4.9-2v-6.9H69.3"/>
	<path fill="#FFFFFF" d="M66.1,23.4l0,42.9H16.6V23.4l3.3-2.9c3.3,0.7,7.8,1.7,10,0.9c3.6-1.4,9-1,11.8,1c2.7-2.1,7.5-2.4,11.1-1
		c2.1,0.8,6.7-0.2,10-0.9L66.1,23.4"/>
	
		<path fill="#FFFFFF" stroke="#000000" stroke-width="1.25" stroke-linecap="round" stroke-linejoin="round" stroke-miterlimit="3.864" d="
		M66.1,23.4l0,42.9H16.6V23.4l3.3-2.9c3.3,0.7,7.8,1.7,10,0.9c3.6-1.4,9-1,11.8,1c2.7-2.1,7.5-2.4,11.1-1c2.1,0.8,6.7-0.2,10-0.9
		L66.1,23.4z"/>
	
		<line fill="none" stroke="#000000" stroke-width="1.25" stroke-linejoin="round" stroke-miterlimit="3.864" x1="16.6" y1="66.5" x2="19.9" y2="62.9"/>
	<line fill="none" stroke="#000000" stroke-width="1.25" stroke-miterlimit="3.864" x1="65.7" y1="66.2" x2="62.7" y2="62.9"/>
	
		<path fill="#FFFFFF" stroke="#000000" stroke-width="1.25" stroke-linecap="round" stroke-linejoin="round" stroke-miterlimit="3.864" d="
		M62.8,20.5c-3.3,0.7-7.8,1.7-10,0.9c-3.6-1.4-8.4-1-11.1,1c-2.7-2.1-8.2-2.4-11.8-1c-2.1,0.8-6.7-0.2-10-0.9l0,42.4
		c3.3,0.7,4.3,1.7,6.5,1.2c3.6-0.9,12.1-1.9,14.9,0.2c2.7-2.1,11.3-1.1,14.9-0.2c2.2,0.6,3.2-0.5,6.5-1.2V20.5z"/>
	<line fill="none" stroke="#000000" stroke-width="1.25" stroke-miterlimit="3.864" x1="41.7" y1="22.4" x2="41.7" y2="63.8"/>
	<path fill="#FFFFFF" d="M104.8,93.7v6.9c3,0,4.9-0.3,4.9,2c0,2.5-2,2.2-4.8,2.2l0,21.7c3.1-0.1,4.8-0.2,4.8,2.2
		c0,2.5-2,2.1-4.9,2.1v9.5H49.4v-9.5c-3,0-4.9,0.1-4.9-2.1c0-2.5,2-2.2,4.8-2.2l0-21.7c-3,0-4.8,0.3-4.8-2.2c0-2.5,2-2,4.9-2v-6.9
		H104.8"/>
	<path fill="#FFFFFF" d="M101.5,94l0,42.9H52V94l3.3-2.9c3.3,0.7,7.8,1.7,10,0.9c3.6-1.4,9-1,11.8,1c2.7-2.1,7.5-2.4,11.1-1
		c2.2,0.8,6.7-0.2,10-0.9L101.5,94"/>
	
		<path fill="#FFFFFF" stroke="#000000" stroke-width="1.25" stroke-linecap="round" stroke-linejoin="round" stroke-miterlimit="3.864" d="
		M101.5,94l0,42.9H52V94l3.3-2.9c3.3,0.7,7.8,1.7,10,0.9c3.6-1.4,9-1,11.8,1c2.7-2.1,7.5-2.4,11.1-1c2.2,0.8,6.7-0.2,10-0.9
		L101.5,94z"/>
	
		<line fill="none" stroke="#000000" stroke-width="1.25" stroke-linejoin="round" stroke-miterlimit="3.864" x1="52" y1="137.1" x2="55.4" y2="133.5"/>
	<line fill="none" stroke="#000000" stroke-width="1.25" stroke-miterlimit="3.864" x1="101.1" y1="136.8" x2="98.1" y2="133.5"/>
	
		<path fill="#FFFFFF" stroke="#000000" stroke-width="1.25" stroke-linecap="round" stroke-linejoin="round" stroke-miterlimit="3.864" d="
		M98.2,91.1c-3.3,0.7-7.8,1.7-10,0.9c-3.6-1.4-8.4-1-11.1,1c-2.8-2.1-8.2-2.4-11.8-1c-2.1,0.8-6.7-0.2-10-0.9l0,42.4
		c3.3,0.7,4.3,1.7,6.5,1.2c3.6-0.9,12.1-1.9,14.9,0.2c2.7-2.1,11.3-1.1,14.9-0.2c2.2,0.6,3.2-0.5,6.5-1.2V91.1z"/>
	<line fill="none" stroke="#000000" stroke-width="1.25" stroke-miterlimit="3.864" x1="77.1" y1="93" x2="77.1" y2="134.4"/>
	<path fill="#FFFFFF" d="M109.7,67.2c0-2,1.3-3.6,3-3.6c1.7,0,3,1.6,3,3.6c0,2-1.3,3.6-3,3.6C111.1,70.8,109.7,69.2,109.7,67.2"/>
	<path fill="#FFFFFF" d="M38.7,67.2c0-2,1.3-3.6,3-3.6c1.6,0,3,1.6,3,3.6c0,2-1.3,3.6-3,3.6C40,70.8,38.7,69.2,38.7,67.2"/>
	<path fill="none" stroke="#000000" stroke-width="1.25" stroke-miterlimit="3.864" d="M109.7,67.2c0-2,1.3-3.6,3-3.6
		c1.7,0,3,1.6,3,3.6c0,2-1.3,3.6-3,3.6C111.1,70.8,109.7,69.2,109.7,67.2z"/>
	<path fill="none" stroke="#000000" stroke-width="1.25" stroke-miterlimit="3.864" d="M38.7,67.2c0-2,1.3-3.6,3-3.6
		c1.6,0,3,1.6,3,3.6c0,2-1.3,3.6-3,3.6C40,70.8,38.7,69.2,38.7,67.2z"/>
	<path fill="#FFFFFF" d="M74.1,137.8c0-2,1.3-3.6,3-3.6c1.6,0,3,1.6,3,3.6c0,2-1.3,3.6-3,3.6C75.4,141.4,74.1,139.8,74.1,137.8"/>
	<path fill="none" stroke="#000000" stroke-width="1.25" stroke-miterlimit="3.864" d="M74.1,137.8c0-2,1.3-3.6,3-3.6
		c1.6,0,3,1.6,3,3.6c0,2-1.3,3.6-3,3.6C75.4,141.4,74.1,139.8,74.1,137.8z"/>
	<path fill-rule="evenodd" clip-rule="evenodd" fill="#FFFFFF" d="M78,114.5h-3.3c0,0-0.1,0-0.1,0c0.1-0.2,0.1-0.4,0.1-0.4
		s1.4-3.7,1.6-4.4c0.3,0.7,1.6,4.3,1.6,4.3l0.1,0.2c0,0,0,0.2,0.1,0.4C78.1,114.5,78,114.5,78,114.5z"/>
	<path fill-rule="evenodd" clip-rule="evenodd" d="M57.1,48c0,2.4-1.1,5-2.9,5L50.6,53l-1.1,0L48.7,53l-1.5,0.1
		c-0.5,0-0.7-0.4-0.7-0.8c0-0.9,0.4-1.1,0.7-1.2c0.4-0.2,0.7-0.3,0.7-2V35.8c0-1.1-0.4-1.3-1.1-1.5c-0.4-0.2-1-0.4-1-1.2
		c0-0.5,0.2-1,0.7-1l1,0l3.8,0.1l1.8-0.1l2.3-0.1c0.4,0,0.7,0.5,0.7,1l0.1,2.9c0,0.4,0.1,1-0.2,1.4l-0.5,0.3c-0.5,0-0.6-0.8-0.7-1.3
		c-0.1-0.9-0.2-2-2.2-2c-1.9,0-1.9,0-1.9,1.5v3.9c0,0.4,0,0.7,0,0.8c0,0,0.1,0.1,0.4,0.1h1.1c0.8,0,1.1-0.9,1.4-1.7
		c0.2-0.5,0.3-0.9,0.6-0.9c0.4,0,0.6,0.4,0.6,1.2l0.1,5.1c0,0.4,0.1,1.1-0.2,1.5l-0.5,0.3c-0.4,0-0.6-0.7-0.7-1.2
		c-0.2-0.9-0.3-1.7-1.3-1.7h-1.3c-0.3,0-0.4,0.1-0.4,0.1c0,0.1,0,0.6,0,1l0,4.2c0,0.8,0,1.4,0.2,1.7c0.1,0.2,0.4,0.3,0.8,0.3
		c3,0,3.7-1.7,4.2-2.7c0.2-0.5,0.4-0.9,0.7-0.9C56.6,46.9,57.1,47,57.1,48z M38.1,32.1c-0.2-0.3-0.4-0.3-0.7-0.2h-0.1L35.7,32
		l-1.6-0.1c-0.3,0-0.7,0-0.9,0.3L33,32.8c0,0.8,0.5,0.9,0.9,1c0.6,0.2,1,0.4,1,1.5c0,0.3,0,1.2-0.6,3c0,0-2.3,7.7-2.5,8.1
		c-0.2-0.6-2.3-8.6-2.3-8.6c-0.6-2-0.7-3.1-0.7-3.6c0-0.2,0-0.3,0.4-0.5c0.3-0.1,0.7-0.3,0.7-1l-0.2-0.7c-0.2-0.2-0.4-0.2-0.8-0.2
		h-0.1l-0.4,0L26.9,32l-1.9-0.1l-0.2,0c-0.3,0-0.6-0.1-0.8,0.3l-0.2,0.7c0,0.6,0.5,0.9,0.5,0.9c0.7,0.3,0.9,0.5,1.1,1.4l4.6,16
		c0.3,1.1,0.6,1.7,1,1.7c0.5,0,0.6-0.6,0.8-1.2l5-16.5c0.2-0.8,0.6-1.1,0.8-1.3c0.2-0.2,0.5-0.5,0.5-1L38.1,32.1z M109.2,50.6
		c0,1.3-1.5,2-2.3,2c-1.6,0-2.3-1.9-2.9-3.7l-1.6-4.5c-0.4-1.1-0.6-1.2-1.4-1.2c-0.4,0-0.5,0-0.5,0.1c0,0.1,0,0.3,0,0.3l0,0.3v4.9
		c0,1.5,0.5,1.7,1,1.8c0.3,0.1,0.8,0.3,0.8,1.1c0,0.4-0.1,0.9-0.9,0.9l-0.5,0l-1.1-0.1c0,0-2.8,0.1-2.9,0.1c-0.2,0-0.5,0-0.7-0.3
		l-0.2-0.7c0-0.7,0.4-0.9,0.6-1c0.4-0.2,0.9-0.5,0.9-2.6V35.5c0-1.6-0.6-1.8-1.2-2.1c-0.4-0.1-0.9-0.3-0.9-1.1c0-0.6,0.3-1,0.7-1
		l0.9,0.1l1.2,0.1l1.9-0.1l1.9-0.1c4.5,0,4.7,4.9,4.7,5.9c0,1.7-0.4,3-1.2,4l-0.7,0.7c0,0-0.1,0.1-0.2,0.2c0.2,0.6,0.9,2.5,1.6,4.3
		l1.2,3.2c0.1,0.2,0.2,0.2,0.4,0.2l0.2-0.1l0.4-0.1C108.9,49.7,109.2,50.1,109.2,50.6z M100.5,34.9v5.8c0,0,0,0,0,0
		c0.1,0.2,0.7,0.2,0.9,0.2c2.6,0,2.6-1.3,2.6-2.8c0-2.7-1-4.4-2.6-4.4C100.8,33.7,100.5,33.7,100.5,34.9z M125.1,50.7
		c-0.6-0.1-1.2-0.3-1.2-2.1V35.5c0-1.2,0.3-1.4,0.7-1.5c0.2-0.1,0.7-0.3,0.7-1c0-0.9-0.5-0.9-1-0.9l-1.5,0.1l-0.9,0.1l-2.1-0.1
		c-0.2,0-0.6,0-0.8,0.3l-0.1,0.6c0,0.8,0.5,0.9,0.9,1.1c0.7,0.3,1.1,0.5,1.1,1.6v13.2c0,1.3-0.3,1.5-0.7,1.8
		c-0.2,0.2-0.6,0.4-0.6,1.1c0,0.5,0.2,0.8,0.5,0.8l0.8,0l1.3-0.1l1.9,0.1l0.9,0c0.2,0,0.9,0,0.9-0.9
		C125.9,50.9,125.5,50.8,125.1,50.7z M67.4,121.5c-0.7-0.2-1.4-0.5-1.4-2.4V107c0-0.7,0.1-0.8,0.1-0.9c0,0,0.1,0,0.4,0H68
		c0.9-0.1,1.1,0.6,1.3,1.6c0.1,0.6,0.3,1.3,0.8,1.3c0.2,0,0.4-0.1,0.5-0.3c0.3-0.4,0.2-1,0.1-1.5l0-0.1l-0.2-2.4
		c0-0.7-0.3-1.1-0.7-1.1l-2.1,0.1l-3.3,0.1l-3.3-0.1l-2.1-0.1c-0.4,0-0.6,0.4-0.7,1l-0.3,3.6c0,0.4-0.1,0.9,0.1,1.2l0.5,0.3
		c0.6,0,0.8-0.8,0.9-1.5c0.2-1.2,0.5-2,1.3-2h1.5c0.3,0,0.4,0,0.4,0c0,0,0.1,0.2,0.1,0.9v12.4c0,1.6-0.5,1.8-1.1,1.9
		c-0.3,0.1-0.9,0.2-0.9,1l0.2,0.8l0.8,0.3c0.1,0,1-0.1,1-0.1l1.5-0.1l1.5,0.1l0.9,0.1h0.2c0.3,0,0.6,0,0.9-0.3l0.2-0.8
		C68.3,121.7,67.8,121.6,67.4,121.5z M85.4,121.7c-0.1-0.2-0.1-0.4-0.1-0.6c0,0,0-0.1,0-0.2c0,0-0.6-3.7-0.6-3.7
		c0-0.2-0.1-0.4-0.1-0.6c0-0.2,0-0.4,0.2-0.6c0.1-0.2,0.3-0.3,0.6-0.3c0.6,0,0.8,0.6,0.8,0.9c0.5,2.1,1.6,4.5,3.6,4.5
		c1.4,0,2.3-1.1,2.3-2.8c0-1.5-0.6-1.9-3-3.2l-1.2-0.7c-1.6-0.9-3.1-2-3.1-5.1c0-3.2,1.8-5.6,4.3-5.6c1.1,0,1.9,0.4,2.4,0.7
		c0.2,0.1,0.5,0.3,0.6,0.3l0.3-0.2l0.7-0.3c0.7,0,0.7,0.7,0.7,1.1l0,0.3l0.2,3.5c0,0.4,0,0.8-0.2,1.1l-0.7,0.3
		c-0.4,0-0.6-0.4-0.8-1.2c-0.4-1.4-1.2-3.6-3.3-3.6c-1.1,0-1.8,0.8-1.8,2.2c0,1.2,0.5,1.5,2.5,2.6l1,0.6c2.1,1.2,3.7,2.4,3.7,6
		c0,3.6-2,6.2-4.8,6.2c-0.9,0-1.7-0.3-2.4-0.6c0,0-1.1-0.4-1.1-0.4c-0.3-0.1-0.5-0.3-0.6-0.5L85.4,121.7z M84.7,122
		c-0.2-0.3-0.5-0.4-0.7-0.4c-0.3-0.1-0.7-0.1-1-1l-5.5-16.2c-0.3-0.8-0.4-1.1-0.8-1.1c-0.5,0-0.7,0.6-0.8,1l-0.1,0.2l-5.5,16
		c-0.2,0.7-0.6,0.9-0.9,1.2c-0.3,0.2-0.6,0.4-0.6,1l0.2,0.5l0.7,0.2h0.1l1.8-0.1l2.2,0.1c0.3,0,0.7,0.1,1-0.2l0.2-0.6
		c0-0.6-0.5-0.8-1-1c-0.7-0.2-1.2-0.5-1.2-1.2c0-0.5,0.2-1.2,0.3-1.7l0.1-0.2c0.4-1.5,0.7-1.5,0.9-1.5h4c0.2,0,0.3,0,0.9,2
		c0.2,0.7,0.3,1.1,0.3,1.6c0,0.6-0.2,0.8-0.7,1c-0.3,0.2-0.7,0.4-0.7,1.1l0.2,0.6l0.7,0.2h0.1l0.9-0.1l1.3-0.1l1.7,0.1l0.9,0.1h0.2
		c0.3,0,0.6,0,0.8-0.2l0.2-0.7c0-0.2,0-0.3-0.1-0.4L84.7,122z M77.4,114.5h-2.9c0,0-0.1,0-0.1,0c0.1-0.2,0.1-0.4,0.1-0.4
		s1.2-3.7,1.5-4.4c0.2,0.7,1.5,4.3,1.5,4.3l0.1,0.2c0,0,0,0.2,0.1,0.4C77.5,114.5,77.4,114.5,77.4,114.5z"/>
</g>
</svg>
