<svg xmlns="http://www.w3.org/2000/svg" xmlns:xlink="http://www.w3.org/1999/xlink" viewBox="0 0 1500 625" enable-background="new 0 0 1500 625"><path opacity=".85" fill="#AF1F2B" d="M1485.9 371.6h9.4v5.5h-9.4z"/><path opacity=".85" stroke="#fff" stroke-width="1.5" fill="none" d="M1485.9 371.6h9.4v5.5h-9.4z"/><path opacity=".85" fill="#AF1F2B" d="M1492.2 380.3h3.7v3h-3.7z"/><path opacity=".85" stroke="#fff" stroke-width="1.5" fill="none" d="M1492.2 380.3h3.7v3h-3.7z"/><path opacity=".85" fill="#AF1F2B" d="M1472.3 371.6h13.6v7h-13.6z"/><path opacity=".85" stroke="#fff" stroke-width="1.5" fill="none" d="M1472.3 371.6h13.6v7h-13.6z"/><path opacity=".85" fill="#AF1F2B" d="M1485.9 377.1h6.3v3.6h-6.3z"/><path opacity=".85" stroke="#fff" stroke-width="1.5" fill="none" d="M1485.9 377.1h6.3v3.6h-6.3z"/><path opacity=".85" fill="#AF1F2B" d="M1437.2 361.2h62.6v22.1h-62.6z"/><path opacity=".85" stroke="#fff" stroke-width="1.5" fill="none" d="M1437.2 361.2h35.1v22.1h-35.1z"/><path opacity=".85" fill="#AF1F2B" d="M1485.9 380.7h6.3v2.6h-6.3z"/><path opacity=".85" stroke="#fff" stroke-width="1.5" fill="none" d="M1485.9 380.7h6.3v2.6h-6.3z"/><defs><path id="a" d="M1485.3 360.9h14.7v11.6h-14.7z"/></defs><clipPath id="b"><use xlink:href="#a" overflow="visible"/></clipPath><path opacity=".85" clip-path="url(#b)" fill="#AF1F2B" d="M1487.5 361.2h12.5v10.4h-12.5z"/><defs><path id="c" d="M1485.3 359.2h14.7v13.3h-14.7z"/></defs><clipPath id="d"><use xlink:href="#c" overflow="visible"/></clipPath><path opacity=".85" clip-path="url(#d)" stroke="#fff" stroke-width="1.5" fill="none" d="M1487.5 361.2h12.5v10.4h-12.5z"/><path opacity=".85" fill="#AF1F2B" d="M1472.3 361.2h15.2v10.4h-15.2z"/><path opacity=".85" stroke="#fff" stroke-width="1.5" fill="none" d="M1472.3 361.2h15.2v10.4h-15.2z"/><defs><path id="e" d="M1496 382.5h4v1.7h-4z"/></defs><clipPath id="f"><use xlink:href="#e" overflow="visible"/></clipPath><path opacity=".85" clip-path="url(#f)" fill="#AF1F2B" d="M1498 382.6h1.9v.7h-1.9z"/><defs><path id="g" d="M1496 380.8h4v3.3h-4z"/></defs><clipPath id="h"><use xlink:href="#g" overflow="visible"/></clipPath><path opacity=".85" clip-path="url(#h)" stroke="#fff" stroke-width="1.5" fill="none" d="M1498 382.6h1.9v.7h-1.9z"/><defs><path id="i" d="M1498.7 382.5h1.3v1.7h-1.3z"/></defs><clipPath id="j"><use xlink:href="#i" overflow="visible"/></clipPath><path opacity=".85" clip-path="url(#j)" fill="#AF1F2B" d="M1499.8 383h.2v.3h-.2z"/><defs><path id="k" d="M1498.7 380.8h1.3v3.3h-1.3z"/></defs><clipPath id="l"><use xlink:href="#k" overflow="visible"/></clipPath><path opacity=".85" clip-path="url(#l)" stroke="#fff" stroke-width="1.5" fill="none" d="M1499.8 383h.2v.3h-.2z"/><path opacity=".85" fill="#AF1F2B" d="M1472.3 378.6h13.6v4.7h-13.6z"/><path opacity=".85" stroke="#fff" stroke-width="1.5" fill="none" d="M1472.3 378.6h13.6v4.7h-13.6z"/><path opacity=".85" fill="#AF1F2B" d="M1495.9 382.6h2v.7h-2z"/><defs><path id="m" d="M1493.3 380.8h6.7v3.3h-6.7z"/></defs><clipPath id="n"><use xlink:href="#m" overflow="visible"/></clipPath><path opacity=".85" clip-path="url(#n)" stroke="#fff" stroke-width="1.5" fill="none" d="M1495.9 382.6h2v.7h-2z"/><defs><path id="o" d="M1496 375.8h4v5h-4z"/></defs><clipPath id="p"><use xlink:href="#o" overflow="visible"/></clipPath><path opacity=".85" clip-path="url(#p)" fill="#AF1F2B" d="M1496.2 377.1h3.8v3.2h-3.8z"/><defs><path id="q" d="M1493.3 375.8h6.7v6.6h-6.7z"/></defs><clipPath id="r"><use xlink:href="#q" overflow="visible"/></clipPath><path opacity=".85" clip-path="url(#r)" stroke="#fff" stroke-width="1.5" fill="none" d="M1496.2 377.1h3.8v3.2h-3.8z"/><path opacity=".85" fill="#AF1F2B" d="M1492.2 377.1h4v3.2h-4z"/><path opacity=".85" stroke="#fff" stroke-width="1.5" fill="none" d="M1492.2 377.1h4v3.2h-4z"/><defs><path id="s" d="M1493.3 370.9h6.7v6.6h-6.7z"/></defs><clipPath id="t"><use xlink:href="#s" overflow="visible"/></clipPath><path opacity=".85" clip-path="url(#t)" fill="#AF1F2B" d="M1495.3 371.6h4.7v5.5h-4.7z"/><defs><path id="u" d="M1493.3 370.9h6.7v8.3h-6.7z"/></defs><clipPath id="v"><use xlink:href="#u" overflow="visible"/></clipPath><path opacity=".85" clip-path="url(#v)" stroke="#fff" stroke-width="1.5" fill="none" d="M1495.3 371.6h4.7v5.5h-4.7z"/><defs><path id="w" d="M1496 379.2h4v5h-4z"/></defs><clipPath id="x"><use xlink:href="#w" overflow="visible"/></clipPath><path opacity=".85" clip-path="url(#x)" fill="#AF1F2B" d="M1498.3 380.3h1.7v2.3h-1.7z"/><path opacity=".85" clip-path="url(#x)" stroke="#fff" stroke-width="1.5" fill="none" d="M1498.3 380.3h1.7v2.3h-1.7z"/><path opacity=".85" fill="#AF1F2B" d="M1495.9 380.3h2.4v2.3h-2.4z"/><defs><path id="y" d="M1493.3 379.2h6.7v5h-6.7z"/></defs><clipPath id="z"><use xlink:href="#y" overflow="visible"/></clipPath><path opacity=".85" clip-path="url(#z)" stroke="#fff" stroke-width="1.5" fill="none" d="M1495.9 380.3h2.4v2.3h-2.4z"/><defs><path id="A" d="M1498.7 382.5h1.3v1.7h-1.3z"/></defs><clipPath id="B"><use xlink:href="#A" overflow="visible"/></clipPath><path opacity=".85" clip-path="url(#B)" fill="#AF1F2B" d="M1499.8 382.6h.2v.4h-.2z"/><defs><path id="C" d="M1498.7 380.8h1.3v3.3h-1.3z"/></defs><clipPath id="D"><use xlink:href="#C" overflow="visible"/></clipPath><path opacity=".85" clip-path="url(#D)" stroke="#fff" stroke-width="1.5" fill="none" d="M1499.8 382.6h.2v.4h-.2z"/><defs><path id="E" d="M1434.7 168.2h65.3V223h-65.3z"/></defs><clipPath id="F"><use xlink:href="#E" overflow="visible"/></clipPath><path opacity=".85" clip-path="url(#F)" fill="#7F142A" d="M1437.2 169.6h62.8v53.2h-62.8z"/><defs><path id="G" d="M1493.3 311.1h6.7v3.3h-6.7z"/></defs><clipPath id="H"><use xlink:href="#G" overflow="visible"/></clipPath><path opacity=".85" clip-path="url(#H)" fill="#7F142A" d="M1495.8 311.5h4.2v2.1h-4.2z"/><defs><path id="I" d="M1493.3 309.4h6.7v5h-6.7z"/></defs><clipPath id="J"><use xlink:href="#I" overflow="visible"/></clipPath><path opacity=".85" clip-path="url(#J)" stroke="#fff" stroke-width="1.5" fill="none" d="M1495.8 311.5h4.2v2.1h-4.2z"/><defs><path id="K" d="M1469.3 271.2h30.7v38.2h-30.7z"/></defs><clipPath id="L"><use xlink:href="#K" overflow="visible"/></clipPath><path opacity=".85" clip-path="url(#L)" fill="#7F142A" d="M1469.8 272.3h30.2v36h-30.2z"/><defs><path id="M" d="M1466.7 271.2h33.3v38.2h-33.3z"/></defs><clipPath id="N"><use xlink:href="#M" overflow="visible"/></clipPath><path opacity=".85" clip-path="url(#N)" stroke="#fff" stroke-width="1.5" fill="none" d="M1469.8 272.3h30.2v36h-30.2z"/><path opacity=".85" fill="#7F142A" d="M1437.2 272.3h32.6v36h-32.6z"/><path opacity=".85" stroke="#fff" stroke-width="1.5" fill="none" d="M1437.2 272.3h32.6v36h-32.6z"/><defs><path id="O" d="M1434.7 91.8h65.3v78.1h-65.3z"/></defs><clipPath id="P"><use xlink:href="#O" overflow="visible"/></clipPath><path opacity=".85" clip-path="url(#P)" fill="#7F142A" d="M1437.2 92.6h62.8v77h-62.8z"/><defs><path id="Q" d="M1434.7 91.8h65.3v79.7h-65.3z"/></defs><clipPath id="R"><use xlink:href="#Q" overflow="visible"/></clipPath><path opacity=".85" clip-path="url(#R)" stroke="#fff" stroke-width="1.5" fill="none" d="M1437.2 92.6h62.8v77h-62.8z"/><defs><path id="S" d="M1434.7 221.4h65.3v51.5h-65.3z"/></defs><clipPath id="T"><use xlink:href="#S" overflow="visible"/></clipPath><path opacity=".85" clip-path="url(#T)" fill="#7F142A" d="M1437.2 222.8h62.8v49.5h-62.8z"/><defs><path id="U" d="M1493.3 312.7h6.7v3.3h-6.7z"/></defs><clipPath id="V"><use xlink:href="#U" overflow="visible"/></clipPath><path opacity=".85" clip-path="url(#V)" fill="#7F142A" d="M1495.8 313.6h2.9v1h-2.9z"/><path opacity=".85" clip-path="url(#V)" stroke="#fff" stroke-width="1.5" fill="none" d="M1495.8 313.6h2.9v1h-2.9z"/><path opacity=".85" fill="#7F142A" d="M1463.3 308.3h22.2v6.3h-22.2z"/><path opacity=".85" stroke="#fff" stroke-width="1.5" fill="none" d="M1463.3 308.3h22.2v6.3h-22.2z"/><path opacity=".85" fill="#7F142A" d="M1485.5 308.3h10.3v6.3h-10.3z"/><path opacity=".85" stroke="#fff" stroke-width="1.5" fill="none" d="M1485.5 308.3h10.3v6.3h-10.3z"/><defs><path id="W" d="M1493.3 307.7h6.7v5h-6.7z"/></defs><clipPath id="X"><use xlink:href="#W" overflow="visible"/></clipPath><path opacity=".85" clip-path="url(#X)" fill="#7F142A" d="M1495.8 308.3h4.2v3.2h-4.2z"/><defs><path id="Y" d="M1493.3 306.1h6.7v6.6h-6.7z"/></defs><clipPath id="Z"><use xlink:href="#Y" overflow="visible"/></clipPath><path opacity=".85" clip-path="url(#Z)" stroke="#fff" stroke-width="1.5" fill="none" d="M1495.8 308.3h4.2v3.2h-4.2z"/><path opacity=".85" fill="#7F142A" d="M1437.2 308.3h26.1v6.3h-26.1z"/><path opacity=".85" stroke="#fff" stroke-width="1.5" fill="none" d="M1437.2 308.3h26.1v6.3h-26.1z"/><defs><path id="aa" d="M1434.7 0h65.3v93.5h-65.3z"/></defs><clipPath id="ab"><use xlink:href="#aa" overflow="visible"/></clipPath><path opacity=".85" clip-path="url(#ab)" fill="#7F142A" d="M1437.2 0h62.8v92.6h-62.8z"/><path opacity=".85" clip-path="url(#ab)" stroke="#fff" stroke-width="1.5" fill="none" d="M1437.2 0h62.8v92.6h-62.8z"/><defs><path id="ac" d="M1498.7 312.7h1.3v3.3h-1.3z"/></defs><clipPath id="ad"><use xlink:href="#ac" overflow="visible"/></clipPath><path opacity=".85" clip-path="url(#ad)" fill="#7F142A" d="M1498.7 313.6h1.3v1h-1.3z"/><defs><path id="ae" d="M1496 312.7h4v3.3h-4z"/></defs><clipPath id="af"><use xlink:href="#ae" overflow="visible"/></clipPath><path opacity=".85" clip-path="url(#af)" stroke="#fff" stroke-width="1.5" fill="none" d="M1498.7 313.6h1.3v1h-1.3z"/><defs><path id="ag" d="M1496 349.3h4v5h-4z"/></defs><clipPath id="ah"><use xlink:href="#ag" overflow="visible"/></clipPath><path opacity=".85" clip-path="url(#ah)" fill="#97192A" d="M1496.4 350.1h3.6v4h-3.6z"/><defs><path id="ai" d="M1493.3 349.3h6.7v6.6h-6.7z"/></defs><clipPath id="aj"><use xlink:href="#ai" overflow="visible"/></clipPath><path opacity=".85" clip-path="url(#aj)" stroke="#fff" stroke-width="1.5" fill="none" d="M1496.4 350.1h3.6v4h-3.6z"/><path opacity=".85" fill="#97192A" d="M1437.2 350.1h26.5v11.1h-26.5z"/><path opacity=".85" stroke="#fff" stroke-width="1.5" fill="none" d="M1437.2 350.1h26.5v11.1h-26.5z"/><defs><path id="ak" d="M1496 352.6h4v6.6h-4z"/></defs><clipPath id="al"><use xlink:href="#ak" overflow="visible"/></clipPath><path opacity=".85" clip-path="url(#al)" fill="#97192A" d="M1496.4 354.1h3.6v3.7h-3.6z"/><defs><path id="am" d="M1493.3 352.6h6.7v6.6h-6.7z"/></defs><clipPath id="an"><use xlink:href="#am" overflow="visible"/></clipPath><path opacity=".85" clip-path="url(#an)" stroke="#fff" stroke-width="1.5" fill="none" d="M1496.4 354.1h3.6v3.7h-3.6z"/><defs><path id="ao" d="M1496 357.6h4v5h-4z"/></defs><clipPath id="ap"><use xlink:href="#ao" overflow="visible"/></clipPath><path opacity=".85" clip-path="url(#ap)" fill="#97192A" d="M1496.4 357.8h3.6v3.4h-3.6z"/><defs><path id="aq" d="M1493.3 355.9h6.7v6.6h-6.7z"/></defs><clipPath id="ar"><use xlink:href="#aq" overflow="visible"/></clipPath><path opacity=".85" clip-path="url(#ar)" stroke="#fff" stroke-width="1.5" fill="none" d="M1496.4 357.8h3.6v3.4h-3.6z"/><defs><path id="as" d="M1434.7 314.4h65.3v36.5h-65.3z"/></defs><clipPath id="at"><use xlink:href="#as" overflow="visible"/></clipPath><path opacity=".85" clip-path="url(#at)" fill="#97192A" d="M1437.2 314.6h62.8v35.5h-62.8z"/><path opacity=".85" fill="#97192A" d="M1463.7 350.1h18.5v11.1h-18.5z"/><path opacity=".85" stroke="#fff" stroke-width="1.5" fill="none" d="M1463.7 350.1h18.5v11.1h-18.5z"/><path opacity=".85" fill="#97192A" d="M1482.2 356.8h14.2v4.4h-14.2z"/><path opacity=".85" stroke="#fff" stroke-width="1.5" fill="none" d="M1482.2 356.8h14.2v4.4h-14.2z"/><path opacity=".85" fill="#97192A" d="M1482.2 350.1h14.2v6.7h-14.2z"/><path opacity=".85" stroke="#fff" stroke-width="1.5" fill="none" d="M1482.2 350.1h14.2v6.7h-14.2z"/><path opacity=".85" fill="#C7242B" d="M1434.3 365.7h2.9v16.5h-2.9z"/><path opacity=".85" stroke="#fff" stroke-width="1.5" fill="none" d="M1434.3 365.7h2.9v16.5h-2.9z"/><path opacity=".85" fill="#C7242B" d="M868.1 315.1h566.3v68.1H868.1z"/><path opacity=".85" stroke="#fff" stroke-width="1.5" fill="none" d="M868.1 315.1h566.3v68.1H868.1z"/><path opacity=".85" fill="#C7242B" d="M1434.3 315.1h2.9v50.6h-2.9z"/><path opacity=".85" stroke="#fff" stroke-width="1.5" fill="none" d="M1434.3 315.1h2.9v50.6h-2.9z"/><path opacity=".85" fill="#C7242B" d="M868.1 0h569.1v315.1H868.1z"/><path fill="none" d="M866.7 0h570.7v316.1H866.7z"/><defs><path id="au" d="M866.7 0H1440v316.1H866.7z"/></defs><clipPath id="av"><use xlink:href="#au" overflow="visible"/></clipPath><path opacity=".85" clip-path="url(#av)" stroke="#fff" stroke-width="1.5" fill="none" d="M868.1 0h569.1v315.1H868.1z"/><path opacity=".85" fill="#C7242B" d="M1434.3 382.2h2.9v1h-2.9z"/><path opacity=".85" stroke="#fff" stroke-width="1.5" fill="none" d="M1434.3 382.2h2.9v1h-2.9z"/><path opacity=".85" fill="#2A87D3" d="M846.4 466H868v8.2h-21.6z"/><path opacity=".85" stroke="#fff" stroke-width="1.5" fill="none" d="M846.4 466H868v8.2h-21.6z"/><path opacity=".85" fill="#2A87D3" d="M783.4 462.1h63v12.1h-63z"/><path opacity=".85" stroke="#fff" stroke-width="1.5" fill="none" d="M783.4 462.1h63v12.1h-63z"/><path opacity=".85" fill="#2A87D3" d="M830.9 375.5h37.2v56.1h-37.2z"/><path opacity=".85" stroke="#fff" stroke-width="1.5" fill="none" d="M830.9 375.5h37.2v56.1h-37.2z"/><path opacity=".85" fill="#2A87D3" d="M648.8 241.6h219.3v133.9H648.8z"/><path opacity=".85" stroke="#fff" stroke-width="1.5" fill="none" d="M648.8 241.6h219.3v133.9H648.8z"/><path opacity=".85" fill="#2A87D3" d="M648.8 431.5h134.7v42.8H648.8z"/><path opacity=".85" stroke="#fff" stroke-width="1.5" fill="none" d="M648.8 431.5h134.7v42.8H648.8z"/><path opacity=".85" fill="#2A87D3" d="M783.4 431.6h63v30.6h-63z"/><path opacity=".85" stroke="#fff" stroke-width="1.5" fill="none" d="M783.4 431.6h63v30.6h-63z"/><path opacity=".85" fill="#2A87D3" d="M648.8 0h219.3v241.6H648.8z"/><path fill="none" d="M648 0h221.3v243H648z"/><defs><path id="aw" d="M645.3 0h224v243h-224z"/></defs><clipPath id="ax"><use xlink:href="#aw" overflow="visible"/></clipPath><path opacity=".85" clip-path="url(#ax)" stroke="#fff" stroke-width="1.5" fill="none" d="M648.8 0h219.3v241.6H648.8z"/><path opacity=".85" fill="#2A87D3" d="M846.4 431.6H868v34.5h-21.6z"/><path opacity=".85" stroke="#fff" stroke-width="1.5" fill="none" d="M846.4 431.6H868v34.5h-21.6z"/><path opacity=".85" fill="#2A87D3" d="M648.8 375.5h134.7v56H648.8z"/><path opacity=".85" stroke="#fff" stroke-width="1.5" fill="none" d="M648.8 375.5h134.7v56H648.8z"/><path opacity=".85" fill="#2A87D3" d="M783.4 375.5h47.4v56.1h-47.4z"/><path opacity=".85" stroke="#fff" stroke-width="1.5" fill="none" d="M783.4 375.5h47.4v56.1h-47.4z"/><path opacity=".85" fill="#88C7ED" d="M568.8 296.4h80v177.8h-80z"/><path opacity=".85" stroke="#fff" stroke-width="1.5" fill="none" d="M568.8 296.4h80v177.8h-80z"/><path opacity=".85" fill="#88C7ED" d="M0 296.4h280.1v177.8H0z"/><path opacity=".85" stroke="#fff" stroke-width="1.5" fill="none" d="M0 296.4h280.1v177.8H0z"/><path opacity=".85" fill="#88C7ED" d="M280.1 396.2h288.7v78.1H280.1z"/><path opacity=".85" stroke="#fff" stroke-width="1.5" fill="none" d="M280.1 396.2h288.7v78.1H280.1z"/><defs><path id="ay" d="M0 0h440v297.8H0z"/></defs><clipPath id="az"><use xlink:href="#ay" overflow="visible"/></clipPath><path opacity=".85" clip-path="url(#az)" fill="#88C7ED" d="M0 0h440v296.4H0z"/><path opacity=".85" fill="#88C7ED" d="M440 0h208.8v296.4H440z"/><path opacity=".85" stroke="#fff" stroke-width="1.5" fill="none" d="M440 0h208.8v296.4H440z"/><path fill="none" d="M437.3 0h213.3v297.8H437.3z"/><path opacity=".85" fill="#88C7ED" d="M280.1 296.4h288.7v99.7H280.1z"/><path opacity=".85" stroke="#fff" stroke-width="1.5" fill="none" d="M280.1 296.4h288.7v99.7H280.1z"/><path opacity=".85" fill="#165E8E" d="M805.3 560.7h62.8v50.9h-62.8z"/><path opacity=".85" stroke="#fff" stroke-width="1.5" fill="none" d="M805.3 560.7h62.8v50.9h-62.8z"/><path opacity=".85" fill="#165E8E" d="M805.3 611.7h56.1V625h-56.1z"/><path opacity=".85" stroke="#fff" stroke-width="1.5" fill="none" d="M805.3 611.7h56.1V625h-56.1z"/><path opacity=".85" fill="#165E8E" d="M807.5 474.2h60.6v86.5h-60.6z"/><path opacity=".85" stroke="#fff" stroke-width="1.5" fill="none" d="M807.5 474.2h60.6v86.5h-60.6z"/><path opacity=".85" fill="#165E8E" d="M676.7 560.7h128.6v33.4H676.7z"/><path opacity=".85" stroke="#fff" stroke-width="1.5" fill="none" d="M676.7 560.7h128.6v33.4H676.7z"/><path opacity=".85" fill="#165E8E" d="M861.5 611.7h6.6V625h-6.6z"/><path opacity=".85" stroke="#fff" stroke-width="1.5" fill="none" d="M861.5 611.7h6.6V625h-6.6z"/><path opacity=".85" fill="#165E8E" d="M478.7 474.2h198v81.3h-198z"/><path opacity=".85" stroke="#fff" stroke-width="1.5" fill="none" d="M478.7 474.2h198v81.3h-198z"/><path opacity=".85" fill="#165E8E" d="M744.3 474.2h63.2v86.5h-63.2z"/><path opacity=".85" stroke="#fff" stroke-width="1.5" fill="none" d="M744.3 474.2h63.2v86.5h-63.2z"/><path opacity=".85" fill="#165E8E" d="M478.7 555.5h198V625h-198z"/><path opacity=".85" stroke="#fff" stroke-width="1.5" fill="none" d="M478.7 555.5h198V625h-198z"/><path opacity=".85" fill="#165E8E" d="M676.7 474.2h67.6v86.5h-67.6z"/><path opacity=".85" stroke="#fff" stroke-width="1.5" fill="none" d="M676.7 474.2h67.6v86.5h-67.6z"/><path opacity=".85" fill="#165E8E" d="M676.7 594.1h128.6V625H676.7z"/><path opacity=".85" stroke="#fff" stroke-width="1.5" fill="none" d="M676.7 594.1h128.6V625H676.7z"/><path opacity=".85" fill="#1471A5" d="M393.8 474.2h84.9v79h-84.9z"/><path opacity=".85" stroke="#fff" stroke-width="1.5" fill="none" d="M393.8 474.2h84.9v79h-84.9z"/><path opacity=".85" fill="#1471A5" d="M432.6 588.2h46.1v24.9h-46.1z"/><path opacity=".85" stroke="#fff" stroke-width="1.5" fill="none" d="M432.6 588.2h46.1v24.9h-46.1z"/><path opacity=".85" fill="#1471A5" d="M273.3 474.2h120.6v79H273.3z"/><path opacity=".85" stroke="#fff" stroke-width="1.5" fill="none" d="M273.3 474.2h120.6v79H273.3z"/><path opacity=".85" fill="#1471A5" d="M0 474.2h273.3v88.1H0z"/><path opacity=".85" stroke="#fff" stroke-width="1.5" fill="none" d="M0 474.2h273.3v88.1H0z"/><path opacity=".85" fill="#1471A5" d="M363.2 598.9h69.4V625h-69.4z"/><path opacity=".85" stroke="#fff" stroke-width="1.5" fill="none" d="M363.2 598.9h69.4V625h-69.4z"/><path opacity=".85" fill="#1471A5" d="M432.6 613.1h46.1V625h-46.1z"/><path opacity=".85" stroke="#fff" stroke-width="1.5" fill="none" d="M432.6 613.1h46.1V625h-46.1z"/><path opacity=".85" fill="#1471A5" d="M363.2 553.3h69.4v45.6h-69.4z"/><path opacity=".85" stroke="#fff" stroke-width="1.5" fill="none" d="M363.2 553.3h69.4v45.6h-69.4z"/><path opacity=".85" fill="#1471A5" d="M432.6 553.3h46.1v34.9h-46.1z"/><path opacity=".85" stroke="#fff" stroke-width="1.5" fill="none" d="M432.6 553.3h46.1v34.9h-46.1z"/><path opacity=".85" fill="#1471A5" d="M273.3 553.3h89.9V625h-89.9z"/><path opacity=".85" stroke="#fff" stroke-width="1.5" fill="none" d="M273.3 553.3h89.9V625h-89.9z"/><path opacity=".85" fill="#1471A5" d="M0 562.3h273.3V625H0z"/><path opacity=".85" stroke="#fff" stroke-width="1.5" fill="none" d="M0 562.3h273.3V625H0z"/><path opacity=".85" fill="#4C8966" d="M1330.4 611.6h3.9v5.4h-3.9z"/><path opacity=".85" stroke="#fff" stroke-width="1.5" fill="none" d="M1330.4 611.6h3.9v5.4h-3.9z"/><path opacity=".85" fill="#4C8966" d="M1330.4 623.2h3.9v1h-3.9z"/><path opacity=".85" stroke="#fff" stroke-width="1.5" fill="none" d="M1330.4 623.2h3.9v1h-3.9z"/><path opacity=".85" fill="#4C8966" d="M1253 577.8h77.4V625H1253z"/><path opacity=".85" stroke="#fff" stroke-width="1.5" fill="none" d="M1253 577.8h77.4V625H1253z"/><path opacity=".85" fill="#4C8966" d="M1330.4 577.8h3.9V597h-3.9z"/><path opacity=".85" stroke="#fff" stroke-width="1.5" fill="none" d="M1330.4 577.8h3.9V597h-3.9z"/><path opacity=".85" fill="#4C8966" d="M1330.4 620.2h3.9v3h-3.9z"/><path opacity=".85" stroke="#fff" stroke-width="1.5" fill="none" d="M1330.4 620.2h3.9v3h-3.9z"/><path opacity=".85" fill="#4C8966" d="M1330.4 596.9h3.9v14.7h-3.9z"/><path opacity=".85" stroke="#fff" stroke-width="1.5" fill="none" d="M1330.4 596.9h3.9v14.7h-3.9z"/><path opacity=".85" fill="#4C8966" d="M1330.4 624.2h3.9v.8h-3.9z"/><path opacity=".85" stroke="#fff" stroke-width="1.5" fill="none" d="M1330.4 624.2h3.9v.8h-3.9z"/><path opacity=".85" fill="#4C8966" d="M1330.4 617h3.9v3.1h-3.9z"/><path opacity=".85" stroke="#fff" stroke-width="1.5" fill="none" d="M1330.4 617h3.9v3.1h-3.9z"/><path opacity=".85" fill="#6BC191" d="M1152.6 557.8h50.3v36.5h-50.3z"/><path opacity=".85" stroke="#fff" stroke-width="1.5" fill="none" d="M1152.6 557.8h50.3v36.5h-50.3z"/><path opacity=".85" fill="#6BC191" d="M1152.6 594.3h45.2v16h-45.2z"/><path opacity=".85" stroke="#fff" stroke-width="1.5" fill="none" d="M1152.6 594.3h45.2v16h-45.2z"/><path opacity=".85" fill="#6BC191" d="M1247.4 618.7h5.6v4.2h-5.6z"/><path opacity=".85" stroke="#fff" stroke-width="1.5" fill="none" d="M1247.4 618.7h5.6v4.2h-5.6z"/><path opacity=".85" fill="#6BC191" d="M1247.4 609.6h5.6v9.1h-5.6z"/><path opacity=".85" stroke="#fff" stroke-width="1.5" fill="none" d="M1247.4 609.6h5.6v9.1h-5.6z"/><path opacity=".85" fill="#6BC191" d="M1197.8 610.1h30.2V625h-30.2z"/><path opacity=".85" stroke="#fff" stroke-width="1.5" fill="none" d="M1197.8 610.1h30.2V625h-30.2z"/><path opacity=".85" fill="#6BC191" d="M1197.8 594.3h30.2v15.8h-30.2z"/><path opacity=".85" stroke="#fff" stroke-width="1.5" fill="none" d="M1197.8 594.3h30.2v15.8h-30.2z"/><path opacity=".85" fill="#6BC191" d="M1228 619.7h19.3v5.3H1228z"/><path opacity=".85" stroke="#fff" stroke-width="1.5" fill="none" d="M1228 619.7h19.3v5.3H1228z"/><path opacity=".85" fill="#6BC191" d="M868.1 596.9h141.5V625H868.1z"/><path opacity=".85" stroke="#fff" stroke-width="1.5" fill="none" d="M868.1 596.9h141.5V625H868.1z"/><path opacity=".85" fill="#6BC191" d="M1202.9 557.8h50.1v36.5h-50.1z"/><path opacity=".85" stroke="#fff" stroke-width="1.5" fill="none" d="M1202.9 557.8h50.1v36.5h-50.1z"/><path opacity=".85" fill="#6BC191" d="M1152.6 610.3h45.2V625h-45.2z"/><path opacity=".85" stroke="#fff" stroke-width="1.5" fill="none" d="M1152.6 610.3h45.2V625h-45.2z"/><path opacity=".85" fill="#6BC191" d="M1090.2 557.8h62.4v34.1h-62.4z"/><path opacity=".85" stroke="#fff" stroke-width="1.5" fill="none" d="M1090.2 557.8h62.4v34.1h-62.4z"/><path opacity=".85" fill="#6BC191" d="M1228 594.3h25v15.2h-25z"/><path opacity=".85" stroke="#fff" stroke-width="1.5" fill="none" d="M1228 594.3h25v15.2h-25z"/><path opacity=".85" fill="#6BC191" d="M1228 609.6h19.3v10.1H1228z"/><path opacity=".85" stroke="#fff" stroke-width="1.5" fill="none" d="M1228 609.6h19.3v10.1H1228z"/><path opacity=".85" fill="#6BC191" d="M868.1 557.8h141.5v39.1H868.1z"/><path opacity=".85" stroke="#fff" stroke-width="1.5" fill="none" d="M868.1 557.8h141.5v39.1H868.1z"/><path opacity=".85" fill="#6BC191" d="M1090.2 592h62.4v33h-62.4z"/><path opacity=".85" stroke="#fff" stroke-width="1.5" fill="none" d="M1090.2 592h62.4v33h-62.4z"/><path opacity=".85" fill="#6BC191" d="M1009.5 557.8h80.7v34.4h-80.7z"/><path opacity=".85" stroke="#fff" stroke-width="1.5" fill="none" d="M1009.5 557.8h80.7v34.4h-80.7z"/><path opacity=".85" fill="#6BC191" d="M1247.4 622.9h4.1v2.1h-4.1z"/><path opacity=".85" stroke="#fff" stroke-width="1.5" fill="none" d="M1247.4 622.9h4.1v2.1h-4.1z"/><path opacity=".85" fill="#6BC191" d="M1009.5 592.3h80.7V625h-80.7z"/><path opacity=".85" stroke="#fff" stroke-width="1.5" fill="none" d="M1009.5 592.3h80.7V625h-80.7z"/><path opacity=".85" fill="#6BC191" d="M1251.5 622.9h1.5v2.1h-1.5z"/><path opacity=".85" stroke="#fff" stroke-width="1.5" fill="none" d="M1251.5 622.9h1.5v2.1h-1.5z"/><path opacity=".85" fill="#3D6D51" d="M1326.5 574.1h7.7v3.6h-7.7z"/><path opacity=".85" stroke="#fff" stroke-width="1.5" fill="none" d="M1326.5 574.1h7.7v3.6h-7.7z"/><path opacity=".85" fill="#3D6D51" d="M1253 442.4h44.7v72.1H1253z"/><path opacity=".85" stroke="#fff" stroke-width="1.5" fill="none" d="M1253 442.4h44.7v72.1H1253z"/><path opacity=".85" fill="#3D6D51" d="M1326.5 564.5h11.1v9.6h-11.1z"/><path opacity=".85" stroke="#fff" stroke-width="1.5" fill="none" d="M1326.5 564.5h11.1v9.6h-11.1z"/><path opacity=".85" fill="#3D6D51" d="M1334.2 577.3h3.4v.4h-3.4z"/><path opacity=".85" stroke="#fff" stroke-width="1.5" fill="none" d="M1334.2 577.3h3.4v.4h-3.4z"/><path opacity=".85" fill="#3D6D51" d="M1334.2 574.1h3.4v3.2h-3.4z"/><path opacity=".85" stroke="#fff" stroke-width="1.5" fill="none" d="M1334.2 574.1h3.4v3.2h-3.4z"/><path opacity=".85" fill="#3D6D51" d="M1253 383.3h84.7v59.2H1253z"/><path opacity=".85" stroke="#fff" stroke-width="1.5" fill="none" d="M1253 383.3h84.7v59.2H1253z"/><path opacity=".85" fill="#3D6D51" d="M1253 514.5h45.1v50H1253z"/><path opacity=".85" stroke="#fff" stroke-width="1.5" fill="none" d="M1253 514.5h45.1v50H1253z"/><path opacity=".85" fill="#3D6D51" d="M1297.7 442.4h39.9v72.1h-39.9z"/><path opacity=".85" stroke="#fff" stroke-width="1.5" fill="none" d="M1297.7 442.4h39.9v72.1h-39.9z"/><path opacity=".85" fill="#3D6D51" d="M1298.1 514.5h39.6v50h-39.6z"/><path opacity=".85" stroke="#fff" stroke-width="1.5" fill="none" d="M1298.1 514.5h39.6v50h-39.6z"/><path opacity=".85" fill="#3D6D51" d="M1253 564.5h73.5v13.3H1253z"/><path opacity=".85" stroke="#fff" stroke-width="1.5" fill="none" d="M1253 564.5h73.5v13.3H1253z"/><path opacity=".85" fill="#2D513B" d="M1140.2 498.1h85.3v59.7h-85.3z"/><path opacity=".85" stroke="#fff" stroke-width="1.5" fill="none" d="M1140.2 498.1h85.3v59.7h-85.3z"/><path opacity=".85" fill="#2D513B" d="M1225.5 498.1h27.5v53.4h-27.5z"/><path opacity=".85" stroke="#fff" stroke-width="1.5" fill="none" d="M1225.5 498.1h27.5v53.4h-27.5z"/><path opacity=".85" fill="#2D513B" d="M868.1 383.3h272.1v174.6H868.1z"/><path opacity=".85" stroke="#fff" stroke-width="1.5" fill="none" d="M868.1 383.3h272.1v174.6H868.1z"/><path opacity=".85" fill="#2D513B" d="M1140.2 383.3H1253v114.8h-112.8z"/><path opacity=".85" stroke="#fff" stroke-width="1.5" fill="none" d="M1140.2 383.3H1253v114.8h-112.8z"/><path opacity=".85" fill="#2D513B" d="M1225.5 551.5h17.8v6.3h-17.8z"/><path opacity=".85" stroke="#fff" stroke-width="1.5" fill="none" d="M1225.5 551.5h17.8v6.3h-17.8z"/><path opacity=".85" fill="#2D513B" d="M1243.3 557.2h9.7v.6h-9.7z"/><path opacity=".85" stroke="#fff" stroke-width="1.5" fill="none" d="M1243.3 557.2h9.7v.6h-9.7z"/><path opacity=".85" fill="#2D513B" d="M1243.3 551.5h9.7v5.7h-9.7z"/><path opacity=".85" stroke="#fff" stroke-width="1.5" fill="none" d="M1243.3 551.5h9.7v5.7h-9.7z"/><path opacity=".85" fill="#5CA57C" d="M1334.3 577.8h3.4V615h-3.4z"/><path opacity=".85" stroke="#fff" stroke-width="1.5" fill="none" d="M1334.3 577.8h3.4V615h-3.4z"/><path opacity=".85" fill="#5CA57C" d="M1334.3 615h3.4v5.6h-3.4z"/><path opacity=".85" stroke="#fff" stroke-width="1.5" fill="none" d="M1334.3 615h3.4v5.6h-3.4z"/><path opacity=".85" fill="#5CA57C" d="M1337.3 623h.4v2h-.4z"/><path opacity=".85" stroke="#fff" stroke-width="1.5" fill="none" d="M1337.3 623h.4v2h-.4z"/><path opacity=".85" fill="#5CA57C" d="M1334.3 623h3v2h-3z"/><path opacity=".85" stroke="#fff" stroke-width="1.5" fill="none" d="M1334.3 623h3v2h-3z"/><path opacity=".85" fill="#5CA57C" d="M1334.3 620.6h3.4v2.4h-3.4z"/><path opacity=".85" stroke="#fff" stroke-width="1.5" fill="none" d="M1334.3 620.6h3.4v2.4h-3.4z"/><defs><path id="aA" d="M1493.3 483.8h6.7V512h-6.7z"/></defs><clipPath id="aB"><use xlink:href="#aA" overflow="visible"/></clipPath><path opacity=".85" clip-path="url(#aB)" fill="#BA4398" d="M1495.6 485.1h4.4V511h-4.4z"/><path opacity=".85" clip-path="url(#aB)" stroke="#fff" stroke-width="1.5" fill="none" d="M1495.6 485.1h4.4V511h-4.4z"/><defs><path id="aC" d="M1496 532h4v3.3h-4z"/></defs><clipPath id="aD"><use xlink:href="#aC" overflow="visible"/></clipPath><path opacity=".85" clip-path="url(#aD)" fill="#BA4398" d="M1498 533.4h2v1h-2z"/><path opacity=".85" clip-path="url(#aD)" stroke="#fff" stroke-width="1.5" fill="none" d="M1498 533.4h2v1h-2z"/><path opacity=".85" fill="#BA4398" d="M1495.6 531.5h3v1.9h-3z"/><defs><path id="aE" d="M1493.3 530.3h6.7v5h-6.7z"/></defs><clipPath id="aF"><use xlink:href="#aE" overflow="visible"/></clipPath><path opacity=".85" clip-path="url(#aF)" stroke="#fff" stroke-width="1.5" fill="none" d="M1495.6 531.5h3v1.9h-3z"/><defs><path id="aG" d="M1493.3 522h6.7v6.6h-6.7z"/></defs><clipPath id="aH"><use xlink:href="#aG" overflow="visible"/></clipPath><path opacity=".85" clip-path="url(#aH)" fill="#BA4398" d="M1495.6 523.6h4.4v4.9h-4.4z"/><defs><path id="aI" d="M1493.3 522h6.7v8.3h-6.7z"/></defs><clipPath id="aJ"><use xlink:href="#aI" overflow="visible"/></clipPath><path opacity=".85" clip-path="url(#aJ)" stroke="#fff" stroke-width="1.5" fill="none" d="M1495.6 523.6h4.4v4.9h-4.4z"/><defs><path id="aK" d="M1493.3 517h6.7v6.6h-6.7z"/></defs><clipPath id="aL"><use xlink:href="#aK" overflow="visible"/></clipPath><path opacity=".85" clip-path="url(#aL)" fill="#BA4398" d="M1495.6 518.6h4.4v5h-4.4z"/><defs><path id="aM" d="M1493.3 517h6.7v8.3h-6.7z"/></defs><clipPath id="aN"><use xlink:href="#aM" overflow="visible"/></clipPath><path opacity=".85" clip-path="url(#aN)" stroke="#fff" stroke-width="1.5" fill="none" d="M1495.6 518.6h4.4v5h-4.4z"/><defs><path id="aO" d="M1493.3 527h6.7v5h-6.7z"/></defs><clipPath id="aP"><use xlink:href="#aO" overflow="visible"/></clipPath><path opacity=".85" clip-path="url(#aP)" fill="#BA4398" d="M1495.6 528.6h4.4v2.9h-4.4z"/><defs><path id="aQ" d="M1493.3 527h6.7v6.6h-6.7z"/></defs><clipPath id="aR"><use xlink:href="#aQ" overflow="visible"/></clipPath><path opacity=".85" clip-path="url(#aR)" stroke="#fff" stroke-width="1.5" fill="none" d="M1495.6 528.6h4.4v2.9h-4.4z"/><defs><path id="aS" d="M1496 530.3h4v3.3h-4z"/></defs><clipPath id="aT"><use xlink:href="#aS" overflow="visible"/></clipPath><path opacity=".85" clip-path="url(#aT)" fill="#BA4398" d="M1498.6 531.5h1.4v1.9h-1.4z"/><defs><path id="aU" d="M1496 530.3h4v5h-4z"/></defs><clipPath id="aV"><use xlink:href="#aU" overflow="visible"/></clipPath><path opacity=".85" clip-path="url(#aV)" stroke="#fff" stroke-width="1.5" fill="none" d="M1498.6 531.5h1.4v1.9h-1.4z"/><path opacity=".85" fill="#BA4398" d="M1495.6 533.4h2.5v1h-2.5z"/><defs><path id="aW" d="M1493.3 532h6.7v3.3h-6.7z"/></defs><clipPath id="aX"><use xlink:href="#aW" overflow="visible"/></clipPath><path opacity=".85" clip-path="url(#aX)" stroke="#fff" stroke-width="1.5" fill="none" d="M1495.6 533.4h2.5v1h-2.5z"/><defs><path id="aY" d="M1493.3 510.4h6.7v8.3h-6.7z"/></defs><clipPath id="aZ"><use xlink:href="#aY" overflow="visible"/></clipPath><path opacity=".85" clip-path="url(#aZ)" fill="#BA4398" d="M1495.6 511h4.4v7.6h-4.4z"/><defs><path id="ba" d="M1493.3 510.4h6.7v10h-6.7z"/></defs><clipPath id="bb"><use xlink:href="#ba" overflow="visible"/></clipPath><path opacity=".85" clip-path="url(#bb)" stroke="#fff" stroke-width="1.5" fill="none" d="M1495.6 511h4.4v7.6h-4.4z"/><path opacity=".85" fill="#CC6DB1" d="M1495 533.2h.6v.9h-.6z"/><path opacity=".85" stroke="#fff" stroke-width="1.5" fill="none" d="M1495 533.2h.6v.9h-.6z"/><path opacity=".85" fill="#CC6DB1" d="M1486.4 529.1h5.6v2.1h-5.6z"/><path opacity=".85" stroke="#fff" stroke-width="1.5" fill="none" d="M1486.4 529.1h5.6v2.1h-5.6z"/><path opacity=".85" fill="#CC6DB1" d="M1486.4 533h5.6v1.5h-5.6z"/><path opacity=".85" stroke="#fff" stroke-width="1.5" fill="none" d="M1486.4 533h5.6v1.5h-5.6z"/><path opacity=".85" fill="#CC6DB1" d="M1492 533.2h2.9v1.2h-2.9z"/><path opacity=".85" stroke="#fff" stroke-width="1.5" fill="none" d="M1492 533.2h2.9v1.2h-2.9z"/><path opacity=".85" fill="#CC6DB1" d="M1485 522.2h6.2v6.9h-6.2z"/><path opacity=".85" stroke="#fff" stroke-width="1.5" fill="none" d="M1485 522.2h6.2v6.9h-6.2z"/><path opacity=".85" fill="#CC6DB1" d="M1455.5 515.3h22.4v19.2h-22.4z"/><path opacity=".85" stroke="#fff" stroke-width="1.5" fill="none" d="M1455.5 515.3h22.4v19.2h-22.4z"/><path opacity=".85" fill="#CC6DB1" d="M1492 529.1h3.5v2.2h-3.5z"/><path opacity=".85" stroke="#fff" stroke-width="1.5" fill="none" d="M1492 529.1h3.5v2.2h-3.5z"/><path opacity=".85" fill="#CC6DB1" d="M1477.9 522.2h7.1v6.9h-7.1z"/><path opacity=".85" stroke="#fff" stroke-width="1.5" fill="none" d="M1477.9 522.2h7.1v6.9h-7.1z"/><path opacity=".85" fill="#CC6DB1" d="M1487.7 515.3h7.9v6.9h-7.9z"/><path opacity=".85" stroke="#fff" stroke-width="1.5" fill="none" d="M1487.7 515.3h7.9v6.9h-7.9z"/><path opacity=".85" fill="#CC6DB1" d="M1486.4 531.2h5.6v1.7h-5.6z"/><path opacity=".85" stroke="#fff" stroke-width="1.5" fill="none" d="M1486.4 531.2h5.6v1.7h-5.6z"/><path opacity=".85" fill="#CC6DB1" d="M1491.2 522.2h4.4v6.9h-4.4z"/><path opacity=".85" stroke="#fff" stroke-width="1.5" fill="none" d="M1491.2 522.2h4.4v6.9h-4.4z"/><path opacity=".85" fill="#CC6DB1" d="M1495 534.2h.6v.2h-.6z"/><path opacity=".85" stroke="#fff" stroke-width="1.5" fill="none" d="M1495 534.2h.6v.2h-.6z"/><path opacity=".85" fill="#CC6DB1" d="M1492 531.3h3.5v1.9h-3.5z"/><path opacity=".85" stroke="#fff" stroke-width="1.5" fill="none" d="M1492 531.3h3.5v1.9h-3.5z"/><path opacity=".85" fill="#CC6DB1" d="M1408.8 515.3h46.7v19.2h-46.7z"/><path opacity=".85" stroke="#fff" stroke-width="1.5" fill="none" d="M1408.8 515.3h46.7v19.2h-46.7z"/><path opacity=".85" fill="#CC6DB1" d="M1477.9 515.3h9.8v6.9h-9.8z"/><path opacity=".85" stroke="#fff" stroke-width="1.5" fill="none" d="M1477.9 515.3h9.8v6.9h-9.8z"/><path opacity=".85" fill="#CC6DB1" d="M1477.9 532.3h8.5v2.1h-8.5z"/><path opacity=".85" stroke="#fff" stroke-width="1.5" fill="none" d="M1477.9 532.3h8.5v2.1h-8.5z"/><path opacity=".85" fill="#CC6DB1" d="M1477.9 529.1h8.5v3.2h-8.5z"/><path opacity=".85" stroke="#fff" stroke-width="1.5" fill="none" d="M1477.9 529.1h8.5v3.2h-8.5z"/><path opacity=".85" fill="#560D48" d="M1400.8 530h5v1.7h-5z"/><path opacity=".85" stroke="#fff" stroke-width="1.5" fill="none" d="M1400.8 530h5v1.7h-5z"/><path opacity=".85" fill="#560D48" d="M1407.3 530h1.5v2.8h-1.5z"/><path opacity=".85" stroke="#fff" stroke-width="1.5" fill="none" d="M1407.3 530h1.5v2.8h-1.5z"/><path opacity=".85" fill="#560D48" d="M1353.6 530h12.2v4.4h-12.2z"/><path opacity=".85" stroke="#fff" stroke-width="1.5" fill="none" d="M1353.6 530h12.2v4.4h-12.2z"/><path opacity=".85" fill="#560D48" d="M1337.6 530h15.9v4.4h-15.9z"/><path opacity=".85" stroke="#fff" stroke-width="1.5" fill="none" d="M1337.6 530h15.9v4.4h-15.9z"/><path opacity=".85" fill="#560D48" d="M1386.6 530h6.6v4.4h-6.6z"/><path opacity=".85" stroke="#fff" stroke-width="1.5" fill="none" d="M1386.6 530h6.6v4.4h-6.6z"/><path opacity=".85" fill="#560D48" d="M1400.8 531.7h5v1.4h-5z"/><path opacity=".85" stroke="#fff" stroke-width="1.5" fill="none" d="M1400.8 531.7h5v1.4h-5z"/><path opacity=".85" fill="#560D48" d="M1405.7 532.8h2.3v.8h-2.3z"/><path opacity=".85" stroke="#fff" stroke-width="1.5" fill="none" d="M1405.7 532.8h2.3v.8h-2.3z"/><path opacity=".85" fill="#560D48" d="M1408.1 532.8h.8v1.1h-.8z"/><path opacity=".85" stroke="#fff" stroke-width="1.5" fill="none" d="M1408.1 532.8h.8v1.1h-.8z"/><path opacity=".85" fill="#560D48" d="M1405.7 533.6h2.3v.8h-2.3z"/><path opacity=".85" stroke="#fff" stroke-width="1.5" fill="none" d="M1405.7 533.6h2.3v.8h-2.3z"/><path opacity=".85" fill="#560D48" d="M1393.1 532.4h7.6v2h-7.6z"/><path opacity=".85" stroke="#fff" stroke-width="1.5" fill="none" d="M1393.1 532.4h7.6v2h-7.6z"/><path opacity=".85" fill="#560D48" d="M1393.1 530h7.6v2.4h-7.6z"/><path opacity=".85" stroke="#fff" stroke-width="1.5" fill="none" d="M1393.1 530h7.6v2.4h-7.6z"/><path opacity=".85" fill="#560D48" d="M1405.7 530h1.6v2.8h-1.6z"/><path opacity=".85" stroke="#fff" stroke-width="1.5" fill="none" d="M1405.7 530h1.6v2.8h-1.6z"/><path opacity=".85" fill="#560D48" d="M1365.8 530h10.9v4.4h-10.9z"/><path opacity=".85" stroke="#fff" stroke-width="1.5" fill="none" d="M1365.8 530h10.9v4.4h-10.9z"/><path opacity=".85" fill="#560D48" d="M1376.7 530h9.9v4.4h-9.9z"/><path opacity=".85" stroke="#fff" stroke-width="1.5" fill="none" d="M1376.7 530h9.9v4.4h-9.9z"/><path opacity=".85" fill="#560D48" d="M1400.8 533.1h5v1.3h-5z"/><path opacity=".85" stroke="#fff" stroke-width="1.5" fill="none" d="M1400.8 533.1h5v1.3h-5z"/><path opacity=".85" fill="#560D48" d="M1337.6 485.1h71.2V530h-71.2z"/><path opacity=".85" stroke="#fff" stroke-width="1.5" fill="none" d="M1337.6 485.1h71.2V530h-71.2z"/><path opacity=".85" fill="#560D48" d="M1408.1 533.9h.8v.5h-.8z"/><path opacity=".85" stroke="#fff" stroke-width="1.5" fill="none" d="M1408.1 533.9h.8v.5h-.8z"/><path opacity=".85" fill="#99237D" d="M1337.6 383.3h120v74.8h-120z"/><path opacity=".85" stroke="#fff" stroke-width="1.5" fill="none" d="M1337.6 383.3h120v74.8h-120z"/><path opacity=".85" fill="#99237D" d="M1337.6 458.1h88.7v27h-88.7z"/><path opacity=".85" stroke="#fff" stroke-width="1.5" fill="none" d="M1337.6 458.1h88.7v27h-88.7z"/><defs><path id="bc" d="M1472 457.2h28v28.2h-28z"/></defs><clipPath id="bd"><use xlink:href="#bc" overflow="visible"/></clipPath><path opacity=".85" clip-path="url(#bd)" fill="#99237D" d="M1473.7 458.1h26.3v27h-26.3z"/><defs><path id="be" d="M1472 457.2h28v29.9h-28z"/></defs><clipPath id="bf"><use xlink:href="#be" overflow="visible"/></clipPath><path opacity=".85" clip-path="url(#bf)" stroke="#fff" stroke-width="1.5" fill="none" d="M1473.7 458.1h26.3v27h-26.3z"/><defs><path id="bg" d="M1456 382.5h44v76.4h-44z"/></defs><clipPath id="bh"><use xlink:href="#bg" overflow="visible"/></clipPath><path opacity=".85" clip-path="url(#bh)" fill="#99237D" d="M1457.7 383.3h42.3v74.8h-42.3z"/><path opacity=".85" clip-path="url(#bh)" stroke="#fff" stroke-width="1.5" fill="none" d="M1457.7 383.3h42.3v74.8h-42.3z"/><path opacity=".85" fill="#99237D" d="M1426.4 458.1h47.3v27h-47.3z"/><path opacity=".85" stroke="#fff" stroke-width="1.5" fill="none" d="M1426.4 458.1h47.3v27h-47.3z"/><path opacity=".85" fill="#771564" d="M1408.8 485.1h86.7v30.2h-86.7z"/><path opacity=".85" stroke="#fff" stroke-width="1.5" fill="none" d="M1408.8 485.1h86.7v30.2h-86.7z"/><path opacity=".85" fill="#DD9F62" d="M1337.6 534.4h138.3V625h-138.3z"/><path opacity=".85" stroke="#fff" stroke-width="1.5" fill="none" d="M1337.6 534.4h138.3V625h-138.3z"/><path opacity=".85" fill="#DD9F62" d="M1475.9 534.4h21.2v87.1h-21.2z"/><path opacity=".85" stroke="#fff" stroke-width="1.5" fill="none" d="M1475.9 534.4h21.2v87.1h-21.2z"/><path opacity=".85" fill="#DD9F62" d="M1475.9 621.5h21.1v3.5h-21.1z"/><path opacity=".85" stroke="#fff" stroke-width="1.5" fill="none" d="M1475.9 621.5h21.1v3.5h-21.1z"/><defs><path id="bi" d="M1496 581.8h4v26.6h-4z"/></defs><clipPath id="bj"><use xlink:href="#bi" overflow="visible"/></clipPath><path opacity=".85" clip-path="url(#bj)" fill="#B5763C" d="M1497.1 582.4h2.9v24.5h-2.9z"/><defs><path id="bk" d="M1496 580.2h4v28.2h-4z"/></defs><clipPath id="bl"><use xlink:href="#bk" overflow="visible"/></clipPath><path opacity=".85" clip-path="url(#bl)" stroke="#fff" stroke-width="1.5" fill="none" d="M1497.1 582.4h2.9v24.5h-2.9z"/><defs><path id="bm" d="M1496 533.6h4v49.8h-4z"/></defs><clipPath id="bn"><use xlink:href="#bm" overflow="visible"/></clipPath><path opacity=".85" clip-path="url(#bn)" fill="#B5763C" d="M1497.1 534.4h2.9v48h-2.9z"/><path opacity=".85" clip-path="url(#bn)" stroke="#fff" stroke-width="1.5" fill="none" d="M1497.1 534.4h2.9v48h-2.9z"/><defs><path id="bo" d="M1496 606.7h4v10h-4z"/></defs><clipPath id="bp"><use xlink:href="#bo" overflow="visible"/></clipPath><path opacity=".85" clip-path="url(#bp)" fill="#B5763C" d="M1497.1 606.9h2.9v9.5h-2.9z"/><defs><path id="bq" d="M1496 605.1h4v13.3h-4z"/></defs><clipPath id="br"><use xlink:href="#bq" overflow="visible"/></clipPath><path opacity=".85" clip-path="url(#br)" stroke="#fff" stroke-width="1.5" fill="none" d="M1497.1 606.9h2.9v9.5h-2.9z"/><defs><path id="bs" d="M1496 623.3h4v1.7h-4z"/></defs><clipPath id="bt"><use xlink:href="#bs" overflow="visible"/></clipPath><path opacity=".85" clip-path="url(#bt)" fill="#E57D28" d="M1497.1 623.8h1.9v1.2h-1.9z"/><defs><path id="bu" d="M1496 621.7h4v3.3h-4z"/></defs><clipPath id="bv"><use xlink:href="#bu" overflow="visible"/></clipPath><path opacity=".85" clip-path="url(#bv)" stroke="#fff" stroke-width="1.5" fill="none" d="M1497.1 623.8h1.9v1.2h-1.9z"/><defs><path id="bw" d="M1496 620h4v5h-4z"/></defs><clipPath id="bx"><use xlink:href="#bw" overflow="visible"/></clipPath><path opacity=".85" clip-path="url(#bx)" fill="#E57D28" d="M1497.1 620.9h2.9v2.9h-2.9z"/><path opacity=".85" clip-path="url(#bx)" stroke="#fff" stroke-width="1.5" fill="none" d="M1497.1 620.9h2.9v2.9h-2.9z"/><defs><path id="by" d="M1496 615h4v6.6h-4z"/></defs><clipPath id="bz"><use xlink:href="#by" overflow="visible"/></clipPath><path opacity=".85" clip-path="url(#bz)" fill="#E57D28" d="M1497.1 616.5h2.9v4.5h-2.9z"/><path opacity=".85" clip-path="url(#bz)" stroke="#fff" stroke-width="1.5" fill="none" d="M1497.1 616.5h2.9v4.5h-2.9z"/><defs><path id="bA" d="M1498.7 623.3h1.3v1.7h-1.3z"/></defs><clipPath id="bB"><use xlink:href="#bA" overflow="visible"/></clipPath><path opacity=".85" clip-path="url(#bB)" fill="#E57D28" d="M1498.9 623.8h1.1v1.2h-1.1z"/><defs><path id="bC" d="M1496 621.7h4v3.3h-4z"/></defs><clipPath id="bD"><use xlink:href="#bC" overflow="visible"/></clipPath><path opacity=".85" clip-path="url(#bD)" stroke="#fff" stroke-width="1.5" fill="none" d="M1498.9 623.8h1.1v1.2h-1.1z"/><g fill="#fff" font-family="'NHaasGroteskDSPro-65Md'" font-size="28"><text transform="translate(12 35.605)">Germany</text><text transform="translate(12 334.052)">Belgium</text><text transform="translate(12 512.096)">United Kingdom</text><text transform="translate(12 599.252)">Sweden</text><text transform="translate(490.688 590.813)">Russia</text><text transform="translate(1347.78 570.559)">Australia</text><text transform="translate(490.688 512.096)">Poland</text><text transform="translate(292.104 334.052)">Netherlands</text><text transform="translate(292.104 432.696)">Switzerland</text><text transform="translate(451.957 35.605)">France</text><text transform="translate(662.666 35.605)">Italy</text><text transform="translate(662.666 277.093)">Spain</text><text transform="translate(881.333 35.605)">United States</text><text transform="translate(881.333 352.441)">Canada</text><text transform="translate(881.333 419.512)">Japan</text></g></svg>