<svg xmlns="http://www.w3.org/2000/svg" viewBox="0 0 1500 625" enable-background="new 0 0 1500 625"><path stroke="#ccc" stroke-width="1.5" fill="none" d="M342.5 625V0M433 625V0M523.6 625V0M614.2 625V0M704.7 625V0M70.8 625V0M161.4 625V0M251.9 625V0M1248.1 625V0M1429.2 625V0M795.3 625V0M885.8 625V0M976.4 625V0M1067 625V0M1157.5 625V0M1248.1 625V0M1338.6 625V0"/><path stroke="#ccc" stroke-width="2.25" stroke-dasharray="7.5,7.5" fill="none" d="M0 286.1h1500"/><path stroke="#ccc" stroke-width="1.5" fill="none" d="M0 567h1500M0 482.2h1500M0 397.3h1500M0 312.5h1500M0 227.7h1500M0 142.8h1500M0 58h1500"/><path fill="#EBF7FA" d="M993.8 205.1c0 23.9-19.4 43.4-43.4 43.4S907 229.1 907 205.1s19.4-43.4 43.4-43.4c24 .1 43.4 19.5 43.4 43.4"/><path stroke="#9EDAE5" stroke-width=".75" d="M993.8 205.1c0 23.9-19.4 43.4-43.4 43.4S907 229.1 907 205.1s19.4-43.4 43.4-43.4c24 .1 43.4 19.5 43.4 43.4" fill="none"/><path fill="#FBEAF6" d="M971.6 201.8c0 19.7-15.9 35.6-35.6 35.6-19.7 0-35.6-15.9-35.6-35.6s16-35.6 35.6-35.6 35.6 15.9 35.6 35.6"/><path stroke="#E377C2" stroke-width=".75" d="M971.6 201.8c0 19.7-15.9 35.6-35.6 35.6-19.7 0-35.6-15.9-35.6-35.6s16-35.6 35.6-35.6 35.6 15.9 35.6 35.6" fill="none"/><path fill="#FFE5E5" d="M830.2 417.8c0 19.1-15.5 34.6-34.6 34.6S761 436.9 761 417.8s15.5-34.6 34.6-34.6c19.2 0 34.6 15.5 34.6 34.6"/><path stroke="#300" stroke-width=".75" d="M830.2 417.8c0 19.1-15.5 34.6-34.6 34.6S761 436.9 761 417.8s15.5-34.6 34.6-34.6c19.2 0 34.6 15.5 34.6 34.6" fill="none"/><path fill="#EBF7FA" d="M1021 151.4c0 19-15.4 34.4-34.4 34.4s-34.4-15.4-34.4-34.4 15.4-34.4 34.4-34.4 34.4 15.4 34.4 34.4"/><path stroke="#9EDAE5" stroke-width=".75" d="M1021 151.4c0 19-15.4 34.4-34.4 34.4s-34.4-15.4-34.4-34.4 15.4-34.4 34.4-34.4 34.4 15.4 34.4 34.4" fill="none"/><path fill="#E8FBFC" d="M1071.2 196.9c0 16.8-13.6 30.3-30.3 30.3-16.8 0-30.3-13.6-30.3-30.3 0-16.8 13.6-30.3 30.3-30.3 16.8 0 30.3 13.6 30.3 30.3"/><path stroke="#17BECF" stroke-width=".75" d="M1071.2 196.9c0 16.8-13.6 30.3-30.3 30.3-16.8 0-30.3-13.6-30.3-30.3 0-16.8 13.6-30.3 30.3-30.3 16.8 0 30.3 13.6 30.3 30.3" fill="none"/><path fill="#E8FBFC" d="M1105.3 229.1c0 16.6-13.5 30.1-30.1 30.1s-30.1-13.5-30.1-30.1 13.5-30.1 30.1-30.1 30.1 13.5 30.1 30.1"/><path stroke="#17BECF" stroke-width=".75" d="M1105.3 229.1c0 16.6-13.5 30.1-30.1 30.1s-30.1-13.5-30.1-30.1 13.5-30.1 30.1-30.1 30.1 13.5 30.1 30.1" fill="none"/><path fill="#EBF7FA" d="M1080.3 203.3c0 14.7-11.9 26.5-26.5 26.5-14.7 0-26.5-11.9-26.5-26.5 0-14.7 11.9-26.5 26.5-26.5s26.5 11.8 26.5 26.5"/><path stroke="#9EDAE5" stroke-width=".75" d="M1080.3 203.3c0 14.7-11.9 26.5-26.5 26.5-14.7 0-26.5-11.9-26.5-26.5 0-14.7 11.9-26.5 26.5-26.5s26.5 11.8 26.5 26.5" fill="none"/><path fill="#E8FBFC" d="M1151.8 91.6c0 14.4-11.7 26-26 26-14.4 0-26-11.7-26-26 0-14.4 11.7-26 26-26 14.3-.1 26 11.6 26 26"/><path stroke="#17BECF" stroke-width=".75" d="M1151.8 91.6c0 14.4-11.7 26-26 26-14.4 0-26-11.7-26-26 0-14.4 11.7-26 26-26 14.3-.1 26 11.6 26 26" fill="none"/><path fill="#EBF7FA" d="M964.4 220.5c0 14.1-11.4 25.5-25.5 25.5s-25.5-11.4-25.5-25.5 11.4-25.5 25.5-25.5 25.5 11.4 25.5 25.5"/><path stroke="#9EDAE5" stroke-width=".75" d="M964.4 220.5c0 14.1-11.4 25.5-25.5 25.5s-25.5-11.4-25.5-25.5 11.4-25.5 25.5-25.5 25.5 11.4 25.5 25.5" fill="none"/><path fill="#E8FBFC" d="M834.7 322.8c0 13.5-11 24.5-24.5 24.5s-24.5-11-24.5-24.5 11-24.5 24.5-24.5c13.6 0 24.5 11 24.5 24.5"/><path stroke="#17BECF" stroke-width=".75" d="M834.7 322.8c0 13.5-11 24.5-24.5 24.5s-24.5-11-24.5-24.5 11-24.5 24.5-24.5c13.6 0 24.5 11 24.5 24.5" fill="none"/><path fill="#E8FBFC" d="M1055.8 217.9c0 13.4-10.9 24.3-24.3 24.3s-24.3-10.9-24.3-24.3 10.9-24.3 24.3-24.3 24.3 10.9 24.3 24.3"/><path stroke="#17BECF" stroke-width=".75" d="M1055.8 217.9c0 13.4-10.9 24.3-24.3 24.3s-24.3-10.9-24.3-24.3 10.9-24.3 24.3-24.3 24.3 10.9 24.3 24.3" fill="none"/><path fill="#F2F2F2" d="M1050.3 191.2c0 13.3-10.8 24.1-24.1 24.1s-24.1-10.8-24.1-24.1 10.8-24.1 24.1-24.1c13.4 0 24.1 10.8 24.1 24.1"/><path stroke="#7F7F7F" stroke-width=".75" d="M1050.3 191.2c0 13.3-10.8 24.1-24.1 24.1s-24.1-10.8-24.1-24.1 10.8-24.1 24.1-24.1c13.4 0 24.1 10.8 24.1 24.1" fill="none"/><path fill="#E8FBFC" d="M947.8 218.7c0 13.2-10.7 23.9-23.9 23.9s-23.8-10.7-23.8-23.9 10.7-23.8 23.8-23.8c13.3-.1 23.9 10.6 23.9 23.8"/><path stroke="#17BECF" stroke-width=".75" d="M947.8 218.7c0 13.2-10.7 23.9-23.9 23.9s-23.8-10.7-23.8-23.9 10.7-23.8 23.8-23.8c13.3-.1 23.9 10.6 23.9 23.8" fill="none"/><path fill="#E8FBFC" d="M982.1 216.7c0 13.1-10.7 23.8-23.8 23.8s-23.8-10.7-23.8-23.8 10.7-23.8 23.8-23.8c13.2 0 23.8 10.7 23.8 23.8"/><path stroke="#17BECF" stroke-width=".75" d="M982.1 216.7c0 13.1-10.7 23.8-23.8 23.8s-23.8-10.7-23.8-23.8 10.7-23.8 23.8-23.8c13.2 0 23.8 10.7 23.8 23.8" fill="none"/><path fill="#FBEAF6" d="M1082.1 154.6c0 13-10.5 23.5-23.5 23.5s-23.5-10.5-23.5-23.5 10.5-23.5 23.5-23.5 23.5 10.5 23.5 23.5"/><path stroke="#E377C2" stroke-width=".75" d="M1082.1 154.6c0 13-10.5 23.5-23.5 23.5s-23.5-10.5-23.5-23.5 10.5-23.5 23.5-23.5 23.5 10.5 23.5 23.5" fill="none"/><path fill="#E8FBFC" d="M1033.9 137.6c0 12.7-10.3 22.9-22.9 22.9-12.7 0-22.9-10.3-22.9-22.9 0-12.7 10.3-22.9 22.9-22.9 12.6 0 22.9 10.3 22.9 22.9"/><path stroke="#17BECF" stroke-width=".75" d="M1033.9 137.6c0 12.7-10.3 22.9-22.9 22.9-12.7 0-22.9-10.3-22.9-22.9 0-12.7 10.3-22.9 22.9-22.9 12.6 0 22.9 10.3 22.9 22.9" fill="none"/><path fill="#FCE8F1" d="M952.9 222.4c0 12.6-10.2 22.9-22.9 22.9-12.6 0-22.9-10.2-22.9-22.9 0-12.6 10.2-22.9 22.9-22.9s22.9 10.3 22.9 22.9"/><path stroke="#F7B6D2" stroke-width=".75" d="M952.9 222.4c0 12.6-10.2 22.9-22.9 22.9-12.6 0-22.9-10.2-22.9-22.9 0-12.6 10.2-22.9 22.9-22.9s22.9 10.3 22.9 22.9" fill="none"/><path fill="#F2F2F2" d="M941.7 256.3c0 12.6-10.2 22.8-22.8 22.8s-22.8-10.2-22.8-22.8c0-12.6 10.2-22.8 22.8-22.8s22.8 10.2 22.8 22.8"/><path stroke="#7F7F7F" stroke-width=".75" d="M941.7 256.3c0 12.6-10.2 22.8-22.8 22.8s-22.8-10.2-22.8-22.8c0-12.6 10.2-22.8 22.8-22.8s22.8 10.2 22.8 22.8" fill="none"/><path fill="#FCE8F1" d="M952.7 248.4c0 12.6-10.2 22.7-22.7 22.7-12.6 0-22.7-10.2-22.7-22.7s10.2-22.7 22.7-22.7c12.6 0 22.7 10.2 22.7 22.7"/><path stroke="#F7B6D2" stroke-width=".75" d="M952.7 248.4c0 12.6-10.2 22.7-22.7 22.7-12.6 0-22.7-10.2-22.7-22.7s10.2-22.7 22.7-22.7c12.6 0 22.7 10.2 22.7 22.7" fill="none"/><path fill="#FBEAF6" d="M1117.5 160.1c0 12.5-10.1 22.6-22.5 22.6-12.5 0-22.6-10.1-22.6-22.6s10.1-22.6 22.6-22.6c12.4.1 22.5 10.2 22.5 22.6"/><path stroke="#E377C2" stroke-width=".75" d="M1117.5 160.1c0 12.5-10.1 22.6-22.5 22.6-12.5 0-22.6-10.1-22.6-22.6s10.1-22.6 22.6-22.6c12.4.1 22.5 10.2 22.5 22.6" fill="none"/><path fill="#EBF7FA" d="M1081.2 221.8c0 12.4-10.1 22.5-22.5 22.5s-22.5-10.1-22.5-22.5 10.1-22.5 22.5-22.5 22.5 10 22.5 22.5"/><path stroke="#9EDAE5" stroke-width=".75" d="M1081.2 221.8c0 12.4-10.1 22.5-22.5 22.5s-22.5-10.1-22.5-22.5 10.1-22.5 22.5-22.5 22.5 10 22.5 22.5" fill="none"/><path fill="#E8FBFC" d="M1045.3 157.2c0 12.3-10 22.3-22.3 22.3s-22.3-10-22.3-22.3 10-22.3 22.3-22.3c12.3-.1 22.3 9.9 22.3 22.3"/><path stroke="#17BECF" stroke-width=".75" d="M1045.3 157.2c0 12.3-10 22.3-22.3 22.3s-22.3-10-22.3-22.3 10-22.3 22.3-22.3c12.3-.1 22.3 9.9 22.3 22.3" fill="none"/><path fill="#E8FBFC" d="M976 181.1c0 12.2-9.9 22.1-22.1 22.1-12.2 0-22.1-9.9-22.1-22.1 0-12.2 9.9-22.1 22.1-22.1s22.1 9.9 22.1 22.1"/><path stroke="#17BECF" stroke-width=".75" d="M976 181.1c0 12.2-9.9 22.1-22.1 22.1-12.2 0-22.1-9.9-22.1-22.1 0-12.2 9.9-22.1 22.1-22.1s22.1 9.9 22.1 22.1" fill="none"/><path fill="#F2F2F2" d="M938.6 279.4c0 12.1-9.8 21.9-21.9 21.9s-21.9-9.8-21.9-21.9 9.8-21.9 21.9-21.9 21.9 9.8 21.9 21.9"/><path stroke="#7F7F7F" stroke-width=".75" d="M938.6 279.4c0 12.1-9.8 21.9-21.9 21.9s-21.9-9.8-21.9-21.9 9.8-21.9 21.9-21.9 21.9 9.8 21.9 21.9" fill="none"/><path fill="#E8FBFC" d="M971.5 230.2c0 12.1-9.8 21.8-21.8 21.8-12.1 0-21.8-9.8-21.8-21.8 0-12.1 9.8-21.8 21.8-21.8s21.8 9.7 21.8 21.8"/><path stroke="#17BECF" stroke-width=".75" d="M971.5 230.2c0 12.1-9.8 21.8-21.8 21.8-12.1 0-21.8-9.8-21.8-21.8 0-12.1 9.8-21.8 21.8-21.8s21.8 9.7 21.8 21.8" fill="none"/><path fill="#FCE8F1" d="M974.4 217c0 12-9.7 21.8-21.8 21.8-12 0-21.8-9.8-21.8-21.8s9.8-21.8 21.8-21.8 21.8 9.8 21.8 21.8"/><path stroke="#F7B6D2" stroke-width=".75" d="M974.4 217c0 12-9.7 21.8-21.8 21.8-12 0-21.8-9.8-21.8-21.8s9.8-21.8 21.8-21.8 21.8 9.8 21.8 21.8" fill="none"/><path fill="#E8FBFC" d="M1069.2 138.5c0 12-9.7 21.7-21.7 21.7s-21.7-9.7-21.7-21.7 9.7-21.7 21.7-21.7c12-.1 21.7 9.7 21.7 21.7"/><path stroke="#17BECF" stroke-width=".75" d="M1069.2 138.5c0 12-9.7 21.7-21.7 21.7s-21.7-9.7-21.7-21.7 9.7-21.7 21.7-21.7c12-.1 21.7 9.7 21.7 21.7" fill="none"/><path fill="#FCE8F1" d="M907.3 242.9c0 11.8-9.5 21.3-21.3 21.3s-21.3-9.5-21.3-21.3 9.5-21.3 21.3-21.3c11.7 0 21.3 9.5 21.3 21.3"/><path stroke="#F7B6D2" stroke-width=".75" d="M907.3 242.9c0 11.8-9.5 21.3-21.3 21.3s-21.3-9.5-21.3-21.3 9.5-21.3 21.3-21.3c11.7 0 21.3 9.5 21.3 21.3" fill="none"/><path fill="#EDFCE9" d="M941.2 383.8c0 11.8-9.5 21.3-21.3 21.3s-21.3-9.5-21.3-21.3 9.5-21.3 21.3-21.3 21.3 9.5 21.3 21.3"/><path stroke="#3AB11A" stroke-width=".75" d="M941.2 383.8c0 11.8-9.5 21.3-21.3 21.3s-21.3-9.5-21.3-21.3 9.5-21.3 21.3-21.3 21.3 9.5 21.3 21.3" fill="none"/><path fill="#EBFAEB" d="M821.5 418.3c0 11.8-9.5 21.3-21.3 21.3s-21.3-9.5-21.3-21.3 9.5-21.3 21.3-21.3c11.7 0 21.3 9.6 21.3 21.3"/><path stroke="#2CA02C" stroke-width=".75" d="M821.5 418.3c0 11.8-9.5 21.3-21.3 21.3s-21.3-9.5-21.3-21.3 9.5-21.3 21.3-21.3c11.7 0 21.3 9.6 21.3 21.3" fill="none"/><path fill="#FCE8F1" d="M1003.3 234.8c0 11.7-9.5 21.2-21.2 21.2s-21.2-9.5-21.2-21.2 9.5-21.2 21.2-21.2c11.7-.1 21.2 9.4 21.2 21.2"/><path stroke="#F7B6D2" stroke-width=".75" d="M1003.3 234.8c0 11.7-9.5 21.2-21.2 21.2s-21.2-9.5-21.2-21.2 9.5-21.2 21.2-21.2c11.7-.1 21.2 9.4 21.2 21.2" fill="none"/><path fill="#EBFAEB" d="M807.3 444.9c0 11.6-9.4 21-21 21s-21-9.4-21-21 9.4-21 21-21 21 9.4 21 21"/><path stroke="#2CA02C" stroke-width=".75" d="M807.3 444.9c0 11.6-9.4 21-21 21s-21-9.4-21-21 9.4-21 21-21 21 9.4 21 21" fill="none"/><path fill="#FFE5E5" d="M867.4 456.5c0 11.6-9.4 21-21 21s-21-9.4-21-21 9.4-21 21-21 21 9.4 21 21"/><path stroke="#300" stroke-width=".75" d="M867.4 456.5c0 11.6-9.4 21-21 21s-21-9.4-21-21 9.4-21 21-21 21 9.4 21 21" fill="none"/><path fill="#FEEDE7" d="M946 263c0 11.6-9.4 21-21 21s-21-9.4-21-21 9.4-21 21-21 21 9.4 21 21"/><path stroke="#5E1F05" stroke-width=".75" d="M946 263c0 11.6-9.4 21-21 21s-21-9.4-21-21 9.4-21 21-21 21 9.4 21 21" fill="none"/><path fill="#E8FBFC" d="M1012.7 180.1c0 11.6-9.4 21-21 21s-21-9.4-21-21 9.4-21 21-21 21 9.4 21 21"/><path stroke="#17BECF" stroke-width=".75" d="M1012.7 180.1c0 11.6-9.4 21-21 21s-21-9.4-21-21 9.4-21 21-21 21 9.4 21 21" fill="none"/><path fill="#FEEDE7" d="M861.1 310.9c0 11.6-9.4 21-21 21s-21-9.4-21-21 9.4-21 21-21 21 9.4 21 21"/><path stroke="#5E1F05" stroke-width=".75" d="M861.1 310.9c0 11.6-9.4 21-21 21s-21-9.4-21-21 9.4-21 21-21 21 9.4 21 21" fill="none"/><path fill="#FBEAF6" d="M1043.1 252.5c0 11.5-9.3 20.7-20.8 20.7s-20.7-9.3-20.7-20.7c0-11.5 9.3-20.8 20.7-20.8 11.6 0 20.8 9.3 20.8 20.8"/><path stroke="#E377C2" stroke-width=".75" d="M1043.1 252.5c0 11.5-9.3 20.7-20.8 20.7s-20.7-9.3-20.7-20.7c0-11.5 9.3-20.8 20.7-20.8 11.6 0 20.8 9.3 20.8 20.8" fill="none"/><path fill="#F2F2F2" d="M1086.9 188.2c0 11.3-9.2 20.5-20.5 20.5s-20.5-9.2-20.5-20.5 9.2-20.5 20.5-20.5 20.5 9.2 20.5 20.5"/><path stroke="#7F7F7F" stroke-width=".75" d="M1086.9 188.2c0 11.3-9.2 20.5-20.5 20.5s-20.5-9.2-20.5-20.5 9.2-20.5 20.5-20.5 20.5 9.2 20.5 20.5" fill="none"/><path fill="#FBEAF6" d="M1020.4 198c0 11.3-9.1 20.4-20.4 20.4-11.3 0-20.4-9.1-20.4-20.4 0-11.3 9.1-20.4 20.4-20.4 11.2 0 20.4 9.2 20.4 20.4"/><path stroke="#E377C2" stroke-width=".75" d="M1020.4 198c0 11.3-9.1 20.4-20.4 20.4-11.3 0-20.4-9.1-20.4-20.4 0-11.3 9.1-20.4 20.4-20.4 11.2 0 20.4 9.2 20.4 20.4" fill="none"/><path fill="#E8FBFC" d="M1043.7 149.5c0 11.1-9 20.2-20.2 20.2s-20.2-9-20.2-20.2c0-11.1 9-20.2 20.2-20.2 11.2.1 20.2 9.1 20.2 20.2"/><path stroke="#17BECF" stroke-width=".75" d="M1043.7 149.5c0 11.1-9 20.2-20.2 20.2s-20.2-9-20.2-20.2c0-11.1 9-20.2 20.2-20.2 11.2.1 20.2 9.1 20.2 20.2" fill="none"/><path fill="#FEEDE7" d="M963.2 211.1c0 11.1-9 20.1-20.1 20.1s-20.1-9-20.1-20.1 9-20.1 20.1-20.1 20.1 9 20.1 20.1"/><path stroke="#5E1F05" stroke-width=".75" d="M963.2 211.1c0 11.1-9 20.1-20.1 20.1s-20.1-9-20.1-20.1 9-20.1 20.1-20.1 20.1 9 20.1 20.1" fill="none"/><path fill="#FEEDE7" d="M869.8 242.1c0 11-8.9 19.9-19.9 19.9s-19.9-8.9-19.9-19.9 8.9-19.9 19.9-19.9c10.9-.1 19.9 8.9 19.9 19.9"/><path stroke="#5E1F05" stroke-width=".75" d="M869.8 242.1c0 11-8.9 19.9-19.9 19.9s-19.9-8.9-19.9-19.9 8.9-19.9 19.9-19.9c10.9-.1 19.9 8.9 19.9 19.9" fill="none"/><path fill="#EDFAEB" d="M1070 314.4c0 11-8.9 19.9-19.9 19.9s-19.9-8.9-19.9-19.9 8.9-19.9 19.9-19.9 19.9 8.9 19.9 19.9"/><path stroke="#98DF8A" stroke-width=".75" d="M1070 314.4c0 11-8.9 19.9-19.9 19.9s-19.9-8.9-19.9-19.9 8.9-19.9 19.9-19.9 19.9 8.9 19.9 19.9" fill="none"/><path fill="#E8FBFC" d="M957.7 227.3c0 11-8.9 19.9-19.9 19.9s-19.9-8.9-19.9-19.9 8.9-19.9 19.9-19.9c11 0 19.9 8.9 19.9 19.9"/><path stroke="#17BECF" stroke-width=".75" d="M957.7 227.3c0 11-8.9 19.9-19.9 19.9s-19.9-8.9-19.9-19.9 8.9-19.9 19.9-19.9c11 0 19.9 8.9 19.9 19.9" fill="none"/><path fill="#E8FBFC" d="M1007.7 208.4c0 10.9-8.8 19.8-19.8 19.8-10.9 0-19.8-8.8-19.8-19.8 0-10.9 8.9-19.7 19.8-19.7s19.8 8.8 19.8 19.7"/><path stroke="#17BECF" stroke-width=".75" d="M1007.7 208.4c0 10.9-8.8 19.8-19.8 19.8-10.9 0-19.8-8.8-19.8-19.8 0-10.9 8.9-19.7 19.8-19.7s19.8 8.8 19.8 19.7" fill="none"/><path fill="#EBFAEB" d="M775.5 435.3c0 10.8-8.8 19.6-19.6 19.6s-19.6-8.8-19.6-19.6 8.8-19.6 19.6-19.6 19.6 8.8 19.6 19.6"/><path stroke="#2CA02C" stroke-width=".75" d="M775.5 435.3c0 10.8-8.8 19.6-19.6 19.6s-19.6-8.8-19.6-19.6 8.8-19.6 19.6-19.6 19.6 8.8 19.6 19.6" fill="none"/><path fill="#FFE5E5" d="M1038.3 185.9c0 10.8-8.7 19.5-19.5 19.5s-19.5-8.7-19.5-19.5 8.7-19.5 19.5-19.5c10.7-.1 19.5 8.7 19.5 19.5"/><path stroke="#f00" stroke-width=".75" d="M1038.3 185.9c0 10.8-8.7 19.5-19.5 19.5s-19.5-8.7-19.5-19.5 8.7-19.5 19.5-19.5c10.7-.1 19.5 8.7 19.5 19.5" fill="none"/><path fill="#FFF8E5" d="M843.9 453.4c0 10.6-8.6 19.2-19.2 19.2s-19.2-8.6-19.2-19.2 8.6-19.2 19.2-19.2 19.2 8.6 19.2 19.2"/><path stroke="#FFC41C" stroke-width=".75" d="M843.9 453.4c0 10.6-8.6 19.2-19.2 19.2s-19.2-8.6-19.2-19.2 8.6-19.2 19.2-19.2 19.2 8.6 19.2 19.2" fill="none"/><path fill="#FEEDE7" d="M970.4 215.2c0 10.6-8.6 19.2-19.2 19.2s-19.2-8.6-19.2-19.2 8.6-19.2 19.2-19.2 19.2 8.6 19.2 19.2"/><path stroke="#5E1F05" stroke-width=".75" d="M970.4 215.2c0 10.6-8.6 19.2-19.2 19.2s-19.2-8.6-19.2-19.2 8.6-19.2 19.2-19.2 19.2 8.6 19.2 19.2" fill="none"/><path fill="#E8FBFC" d="M982.5 264.5c0 10.6-8.6 19.2-19.2 19.2s-19.2-8.6-19.2-19.2 8.6-19.2 19.2-19.2 19.2 8.6 19.2 19.2"/><path stroke="#17BECF" stroke-width=".75" d="M982.5 264.5c0 10.6-8.6 19.2-19.2 19.2s-19.2-8.6-19.2-19.2 8.6-19.2 19.2-19.2 19.2 8.6 19.2 19.2" fill="none"/><path fill="#E8FBFC" d="M1089.5 195.9c0 10.5-8.5 19.1-19.1 19.1-10.5 0-19.1-8.5-19.1-19.1 0-10.5 8.5-19.1 19.1-19.1 10.6 0 19.1 8.5 19.1 19.1"/><path stroke="#17BECF" stroke-width=".75" d="M1089.5 195.9c0 10.5-8.5 19.1-19.1 19.1-10.5 0-19.1-8.5-19.1-19.1 0-10.5 8.5-19.1 19.1-19.1 10.6 0 19.1 8.5 19.1 19.1" fill="none"/><path fill="#FDF0E7" d="M1129.3 156c0 10.5-8.5 19-19 19s-19-8.5-19-19 8.5-19 19-19c10.5.1 19 8.5 19 19"/><path stroke="#D66011" stroke-width=".75" d="M1129.3 156c0 10.5-8.5 19-19 19s-19-8.5-19-19 8.5-19 19-19c10.5.1 19 8.5 19 19" fill="none"/><path fill="#F2F2F2" d="M1043.9 166.8c0 10.5-8.5 19-19 19s-19-8.5-19-19 8.5-19 19-19c10.6 0 19 8.5 19 19"/><path stroke="#7F7F7F" stroke-width=".75" d="M1043.9 166.8c0 10.5-8.5 19-19 19s-19-8.5-19-19 8.5-19 19-19c10.6 0 19 8.5 19 19" fill="none"/><path fill="#E8FBFC" d="M986.1 202.4c0 10.4-8.4 18.8-18.8 18.8s-18.8-8.4-18.8-18.8 8.4-18.8 18.8-18.8 18.8 8.4 18.8 18.8"/><path stroke="#17BECF" stroke-width=".75" d="M986.1 202.4c0 10.4-8.4 18.8-18.8 18.8s-18.8-8.4-18.8-18.8 8.4-18.8 18.8-18.8 18.8 8.4 18.8 18.8" fill="none"/><path fill="#E8FBFC" d="M988.5 241.6c0 10.4-8.4 18.8-18.8 18.8s-18.8-8.4-18.8-18.8 8.4-18.8 18.8-18.8 18.8 8.4 18.8 18.8"/><path stroke="#17BECF" stroke-width=".75" d="M988.5 241.6c0 10.4-8.4 18.8-18.8 18.8s-18.8-8.4-18.8-18.8 8.4-18.8 18.8-18.8 18.8 8.4 18.8 18.8" fill="none"/><path fill="#FBEAF6" d="M857.2 257.2c0 10.4-8.4 18.7-18.7 18.7-10.4 0-18.7-8.4-18.7-18.7 0-10.4 8.4-18.7 18.7-18.7 10.3 0 18.7 8.4 18.7 18.7"/><path stroke="#E377C2" stroke-width=".75" d="M857.2 257.2c0 10.4-8.4 18.7-18.7 18.7-10.4 0-18.7-8.4-18.7-18.7 0-10.4 8.4-18.7 18.7-18.7 10.3 0 18.7 8.4 18.7 18.7" fill="none"/><path fill="#E8FBFC" d="M1071.1 137.2c0 10.3-8.4 18.7-18.7 18.7-10.3 0-18.7-8.4-18.7-18.7s8.4-18.7 18.7-18.7c10.3-.1 18.7 8.3 18.7 18.7"/><path stroke="#17BECF" stroke-width=".75" d="M1071.1 137.2c0 10.3-8.4 18.7-18.7 18.7-10.3 0-18.7-8.4-18.7-18.7s8.4-18.7 18.7-18.7c10.3-.1 18.7 8.3 18.7 18.7" fill="none"/><path fill="#F2F2F2" d="M1032.5 302.1c0 10.3-8.3 18.6-18.6 18.6s-18.6-8.3-18.6-18.6 8.3-18.6 18.6-18.6 18.6 8.3 18.6 18.6"/><path stroke="#7F7F7F" stroke-width=".75" d="M1032.5 302.1c0 10.3-8.3 18.6-18.6 18.6s-18.6-8.3-18.6-18.6 8.3-18.6 18.6-18.6 18.6 8.3 18.6 18.6" fill="none"/><path fill="#EDFCE9" d="M1015.4 451.2c0 10.3-8.3 18.6-18.6 18.6s-18.6-8.3-18.6-18.6 8.3-18.6 18.6-18.6c10.2 0 18.6 8.3 18.6 18.6"/><path stroke="#3AB11A" stroke-width=".75" d="M1015.4 451.2c0 10.3-8.3 18.6-18.6 18.6s-18.6-8.3-18.6-18.6 8.3-18.6 18.6-18.6c10.2 0 18.6 8.3 18.6 18.6" fill="none"/><path fill="#FEEDE7" d="M966.5 229.2c0 10.3-8.3 18.6-18.6 18.6s-18.6-8.3-18.6-18.6 8.3-18.6 18.6-18.6 18.6 8.3 18.6 18.6"/><path stroke="#5E1F05" stroke-width=".75" d="M966.5 229.2c0 10.3-8.3 18.6-18.6 18.6s-18.6-8.3-18.6-18.6 8.3-18.6 18.6-18.6 18.6 8.3 18.6 18.6" fill="none"/><path fill="#FFF8E5" d="M934.6 352.3c0 10.2-8.3 18.5-18.5 18.5s-18.5-8.3-18.5-18.5 8.3-18.6 18.5-18.6 18.5 8.3 18.5 18.6"/><path stroke="#FFC41C" stroke-width=".75" d="M934.6 352.3c0 10.2-8.3 18.5-18.5 18.5s-18.5-8.3-18.5-18.5 8.3-18.6 18.5-18.6 18.5 8.3 18.5 18.6" fill="none"/><path fill="#FAFFE5" d="M888 304.1c0 10.2-8.3 18.5-18.5 18.5s-18.5-8.3-18.5-18.5 8.3-18.5 18.5-18.5 18.5 8.3 18.5 18.5"/><path stroke="#D1FF00" stroke-width=".75" d="M888 304.1c0 10.2-8.3 18.5-18.5 18.5s-18.5-8.3-18.5-18.5 8.3-18.5 18.5-18.5 18.5 8.3 18.5 18.5" fill="none"/><path fill="#E8FBFC" d="M1020.2 232.6c0 10.1-8.2 18.3-18.3 18.3s-18.3-8.2-18.3-18.3 8.2-18.3 18.3-18.3c10.1-.1 18.3 8.1 18.3 18.3"/><path stroke="#17BECF" stroke-width=".75" d="M1020.2 232.6c0 10.1-8.2 18.3-18.3 18.3s-18.3-8.2-18.3-18.3 8.2-18.3 18.3-18.3c10.1-.1 18.3 8.1 18.3 18.3" fill="none"/><path fill="#FCE8F1" d="M985.3 191.4c0 10-8.1 18.1-18.1 18.1s-18.1-8.1-18.1-18.1 8.1-18.1 18.1-18.1c10-.1 18.1 8.1 18.1 18.1"/><path stroke="#F7B6D2" stroke-width=".75" d="M985.3 191.4c0 10-8.1 18.1-18.1 18.1s-18.1-8.1-18.1-18.1 8.1-18.1 18.1-18.1c10-.1 18.1 8.1 18.1 18.1" fill="none"/><path fill="#FBEAF6" d="M824.3 337.1c0 10-8.1 18.1-18.1 18.1s-18.1-8.1-18.1-18.1 8.1-18.1 18.1-18.1 18.1 8.1 18.1 18.1"/><path stroke="#E377C2" stroke-width=".75" d="M824.3 337.1c0 10-8.1 18.1-18.1 18.1s-18.1-8.1-18.1-18.1 8.1-18.1 18.1-18.1 18.1 8.1 18.1 18.1" fill="none"/><path fill="#FDF0E7" d="M977.9 306.6c0 10-8.1 18.1-18.1 18.1s-18.1-8.1-18.1-18.1 8.1-18.1 18.1-18.1c10 0 18.1 8.1 18.1 18.1"/><path stroke="#D66011" stroke-width=".75" d="M977.9 306.6c0 10-8.1 18.1-18.1 18.1s-18.1-8.1-18.1-18.1 8.1-18.1 18.1-18.1c10 0 18.1 8.1 18.1 18.1" fill="none"/><path fill="#FEEDE7" d="M901.7 296.3c0 9.9-8.1 18-18 18s-18-8.1-18-18 8.1-18 18-18c10 0 18 8.1 18 18"/><path stroke="#5E1F05" stroke-width=".75" d="M901.7 296.3c0 9.9-8.1 18-18 18s-18-8.1-18-18 8.1-18 18-18c10 0 18 8.1 18 18" fill="none"/><path fill="#FEEDE7" d="M939.4 264.2c0 9.9-8.1 18-18 18s-18-8.1-18-18 8.1-18 18-18 18 8 18 18"/><path stroke="#5E1F05" stroke-width=".75" d="M939.4 264.2c0 9.9-8.1 18-18 18s-18-8.1-18-18 8.1-18 18-18 18 8 18 18" fill="none"/><path fill="#EBFAEB" d="M799.1 422.1c0 9.9-8.1 18-18 18s-18-8.1-18-18 8.1-18 18-18 18 8.1 18 18"/><path stroke="#2CA02C" stroke-width=".75" d="M799.1 422.1c0 9.9-8.1 18-18 18s-18-8.1-18-18 8.1-18 18-18 18 8.1 18 18" fill="none"/><path fill="#FAFFE5" d="M795.4 365c0 9.9-8.1 18-18 18s-18-8-18-18c0-9.9 8-18 18-18 9.9 0 18 8.1 18 18"/><path stroke="#D1FF00" stroke-width=".75" d="M795.4 365c0 9.9-8.1 18-18 18s-18-8-18-18c0-9.9 8-18 18-18 9.9 0 18 8.1 18 18" fill="none"/><path fill="#E8FBFC" d="M1105.4 110.8c0 9.9-8 17.9-17.9 17.9s-17.9-8-17.9-17.9 8-17.9 17.9-17.9c9.8 0 17.9 8 17.9 17.9"/><path stroke="#17BECF" stroke-width=".75" d="M1105.4 110.8c0 9.9-8 17.9-17.9 17.9s-17.9-8-17.9-17.9 8-17.9 17.9-17.9c9.8 0 17.9 8 17.9 17.9" fill="none"/><path fill="#FAFFE5" d="M870.9 289.9c0 9.9-8 17.9-17.9 17.9s-17.9-8-17.9-17.9 8-17.9 17.9-17.9 17.9 8 17.9 17.9"/><path stroke="#D1FF00" stroke-width=".75" d="M870.9 289.9c0 9.9-8 17.9-17.9 17.9s-17.9-8-17.9-17.9 8-17.9 17.9-17.9 17.9 8 17.9 17.9" fill="none"/><path fill="#FBEAF6" d="M1065.4 223.7c0 9.8-8 17.8-17.8 17.8s-17.8-8-17.8-17.8 8-17.8 17.8-17.8 17.8 8 17.8 17.8"/><path stroke="#E377C2" stroke-width=".75" d="M1065.4 223.7c0 9.8-8 17.8-17.8 17.8s-17.8-8-17.8-17.8 8-17.8 17.8-17.8 17.8 8 17.8 17.8" fill="none"/><path fill="#E8FBFC" d="M966.5 176.7c0 9.8-8 17.8-17.8 17.8s-17.8-8-17.8-17.8 8-17.8 17.8-17.8 17.8 8 17.8 17.8"/><path stroke="#17BECF" stroke-width=".75" d="M966.5 176.7c0 9.8-8 17.8-17.8 17.8s-17.8-8-17.8-17.8 8-17.8 17.8-17.8 17.8 8 17.8 17.8" fill="none"/><path fill="#FAFFE5" d="M865.2 276.3c0 9.8-7.9 17.7-17.7 17.7s-17.7-7.9-17.7-17.7c0-9.8 7.9-17.7 17.7-17.7 9.8 0 17.7 7.9 17.7 17.7"/><path stroke="#D1FF00" stroke-width=".75" d="M865.2 276.3c0 9.8-7.9 17.7-17.7 17.7s-17.7-7.9-17.7-17.7c0-9.8 7.9-17.7 17.7-17.7 9.8 0 17.7 7.9 17.7 17.7" fill="none"/><path fill="#FBEAF6" d="M823.9 329.2c0 9.8-7.9 17.7-17.7 17.7s-17.7-7.9-17.7-17.7c0-9.8 7.9-17.7 17.7-17.7s17.7 7.9 17.7 17.7"/><path stroke="#E377C2" stroke-width=".75" d="M823.9 329.2c0 9.8-7.9 17.7-17.7 17.7s-17.7-7.9-17.7-17.7c0-9.8 7.9-17.7 17.7-17.7s17.7 7.9 17.7 17.7" fill="none"/><path fill="#FFFAE5" d="M814 370.6c0 9.8-7.9 17.7-17.7 17.7s-17.7-7.9-17.7-17.7c0-9.8 7.9-17.7 17.7-17.7s17.7 7.9 17.7 17.7"/><path stroke="#FFE999" stroke-width=".75" d="M814 370.6c0 9.8-7.9 17.7-17.7 17.7s-17.7-7.9-17.7-17.7c0-9.8 7.9-17.7 17.7-17.7s17.7 7.9 17.7 17.7" fill="none"/><path fill="#FFE5E5" d="M883.8 324.7c0 9.7-7.9 17.6-17.6 17.6-9.7 0-17.6-7.9-17.6-17.6s7.9-17.6 17.6-17.6c9.7 0 17.6 7.9 17.6 17.6"/><path stroke="#300" stroke-width=".75" d="M883.8 324.7c0 9.7-7.9 17.6-17.6 17.6-9.7 0-17.6-7.9-17.6-17.6s7.9-17.6 17.6-17.6c9.7 0 17.6 7.9 17.6 17.6" fill="none"/><path fill="#FCE8F1" d="M851.8 262.7c0 9.7-7.9 17.6-17.6 17.6-9.7 0-17.6-7.9-17.6-17.6 0-9.7 7.9-17.6 17.6-17.6 9.7-.1 17.6 7.8 17.6 17.6"/><path stroke="#F7B6D2" stroke-width=".75" d="M851.8 262.7c0 9.7-7.9 17.6-17.6 17.6-9.7 0-17.6-7.9-17.6-17.6 0-9.7 7.9-17.6 17.6-17.6 9.7-.1 17.6 7.8 17.6 17.6" fill="none"/><path fill="#FFE5E5" d="M1011.9 160.7c0 9.7-7.9 17.6-17.6 17.6-9.7 0-17.6-7.9-17.6-17.6 0-9.7 7.9-17.6 17.6-17.6 9.7 0 17.6 7.9 17.6 17.6"/><path stroke="#f00" stroke-width=".75" d="M1011.9 160.7c0 9.7-7.9 17.6-17.6 17.6-9.7 0-17.6-7.9-17.6-17.6 0-9.7 7.9-17.6 17.6-17.6 9.7 0 17.6 7.9 17.6 17.6" fill="none"/><path fill="#FFE5E5" d="M793.7 325c0 9.7-7.9 17.6-17.6 17.6-9.7 0-17.6-7.9-17.6-17.6s7.9-17.6 17.6-17.6c9.7-.1 17.6 7.8 17.6 17.6"/><path stroke="#f00" stroke-width=".75" d="M793.7 325c0 9.7-7.9 17.6-17.6 17.6-9.7 0-17.6-7.9-17.6-17.6s7.9-17.6 17.6-17.6c9.7-.1 17.6 7.8 17.6 17.6" fill="none"/><path fill="#FFFAE5" d="M830 439.3c0 9.7-7.9 17.6-17.6 17.6-9.7 0-17.6-7.9-17.6-17.6s7.9-17.6 17.6-17.6c9.7.1 17.6 7.9 17.6 17.6"/><path stroke="#FFE999" stroke-width=".75" d="M830 439.3c0 9.7-7.9 17.6-17.6 17.6-9.7 0-17.6-7.9-17.6-17.6s7.9-17.6 17.6-17.6c9.7.1 17.6 7.9 17.6 17.6" fill="none"/><path fill="#E8FBFC" d="M1077.6 194c0 9.7-7.9 17.6-17.6 17.6s-17.6-7.9-17.6-17.6c0-9.7 7.9-17.6 17.6-17.6 9.7.1 17.6 7.9 17.6 17.6"/><path stroke="#17BECF" stroke-width=".75" d="M1077.6 194c0 9.7-7.9 17.6-17.6 17.6s-17.6-7.9-17.6-17.6c0-9.7 7.9-17.6 17.6-17.6 9.7.1 17.6 7.9 17.6 17.6" fill="none"/><path fill="#FBEAF6" d="M1025.2 229.5c0 9.7-7.9 17.5-17.5 17.5-9.7 0-17.5-7.8-17.5-17.5s7.8-17.5 17.5-17.5 17.5 7.8 17.5 17.5"/><path stroke="#E377C2" stroke-width=".75" d="M1025.2 229.5c0 9.7-7.9 17.5-17.5 17.5-9.7 0-17.5-7.8-17.5-17.5s7.8-17.5 17.5-17.5 17.5 7.8 17.5 17.5" fill="none"/><path fill="#FDF0E7" d="M859.5 300.8c0 9.7-7.8 17.5-17.5 17.5s-17.5-7.8-17.5-17.5 7.8-17.5 17.5-17.5c9.6 0 17.5 7.8 17.5 17.5"/><path stroke="#D66011" stroke-width=".75" d="M859.5 300.8c0 9.7-7.8 17.5-17.5 17.5s-17.5-7.8-17.5-17.5 7.8-17.5 17.5-17.5c9.6 0 17.5 7.8 17.5 17.5" fill="none"/><path fill="#E8FBFC" d="M1059.8 162.7c0 9.6-7.8 17.4-17.4 17.4s-17.4-7.8-17.4-17.4c0-9.6 7.8-17.4 17.4-17.4s17.4 7.8 17.4 17.4"/><path stroke="#17BECF" stroke-width=".75" d="M1059.8 162.7c0 9.6-7.8 17.4-17.4 17.4s-17.4-7.8-17.4-17.4c0-9.6 7.8-17.4 17.4-17.4s17.4 7.8 17.4 17.4" fill="none"/><path fill="#EBFAEB" d="M972.1 341.3c0 9.6-7.8 17.4-17.4 17.4-9.6 0-17.4-7.8-17.4-17.4s7.8-17.4 17.4-17.4c9.7 0 17.4 7.8 17.4 17.4"/><path stroke="#2CA02C" stroke-width=".75" d="M972.1 341.3c0 9.6-7.8 17.4-17.4 17.4-9.6 0-17.4-7.8-17.4-17.4s7.8-17.4 17.4-17.4c9.7 0 17.4 7.8 17.4 17.4" fill="none"/><path fill="#EBFAEB" d="M931.5 280.3c0 9.6-7.8 17.4-17.4 17.4-9.6 0-17.4-7.8-17.4-17.4s7.8-17.4 17.4-17.4 17.4 7.8 17.4 17.4"/><path stroke="#2CA02C" stroke-width=".75" d="M931.5 280.3c0 9.6-7.8 17.4-17.4 17.4-9.6 0-17.4-7.8-17.4-17.4s7.8-17.4 17.4-17.4 17.4 7.8 17.4 17.4" fill="none"/><path fill="#FCE8F1" d="M1071.7 155.3c0 9.6-7.8 17.3-17.3 17.3-9.6 0-17.3-7.8-17.3-17.3 0-9.6 7.8-17.3 17.3-17.3 9.5-.1 17.3 7.7 17.3 17.3"/><path stroke="#F7B6D2" stroke-width=".75" d="M1071.7 155.3c0 9.6-7.8 17.3-17.3 17.3-9.6 0-17.3-7.8-17.3-17.3 0-9.6 7.8-17.3 17.3-17.3 9.5-.1 17.3 7.7 17.3 17.3" fill="none"/><path fill="#E8FBFC" d="M1054.3 204.6c0 9.5-7.7 17.2-17.2 17.2s-17.2-7.7-17.2-17.2 7.7-17.2 17.2-17.2c9.5-.1 17.2 7.6 17.2 17.2"/><path stroke="#17BECF" stroke-width=".75" d="M1054.3 204.6c0 9.5-7.7 17.2-17.2 17.2s-17.2-7.7-17.2-17.2 7.7-17.2 17.2-17.2c9.5-.1 17.2 7.6 17.2 17.2" fill="none"/><path fill="#E8FBFC" d="M1020.9 203.2c0 9.4-7.7 17.1-17.1 17.1-9.4 0-17.1-7.7-17.1-17.1 0-9.4 7.7-17.1 17.1-17.1 9.4 0 17.1 7.7 17.1 17.1"/><path stroke="#17BECF" stroke-width=".75" d="M1020.9 203.2c0 9.4-7.7 17.1-17.1 17.1-9.4 0-17.1-7.7-17.1-17.1 0-9.4 7.7-17.1 17.1-17.1 9.4 0 17.1 7.7 17.1 17.1" fill="none"/><path fill="#EBF7FA" d="M932.2 262.6c0 9.4-7.6 17-17 17s-17-7.6-17-17 7.6-17 17-17 17 7.6 17 17"/><path stroke="#9EDAE5" stroke-width=".75" d="M932.2 262.6c0 9.4-7.6 17-17 17s-17-7.6-17-17 7.6-17 17-17 17 7.6 17 17" fill="none"/><path fill="#FAFFE5" d="M743 351.5c0 9.3-7.5 16.8-16.8 16.8s-16.8-7.5-16.8-16.8 7.5-16.9 16.8-16.9c9.2 0 16.8 7.5 16.8 16.9"/><path stroke="#D1FF00" stroke-width=".75" d="M743 351.5c0 9.3-7.5 16.8-16.8 16.8s-16.8-7.5-16.8-16.8 7.5-16.9 16.8-16.9c9.2 0 16.8 7.5 16.8 16.9" fill="none"/><path fill="#FCE8F1" d="M1106.9 129.7c0 9.3-7.5 16.8-16.8 16.8s-16.8-7.5-16.8-16.8 7.5-16.8 16.8-16.8c9.3-.1 16.8 7.5 16.8 16.8"/><path stroke="#F7B6D2" stroke-width=".75" d="M1106.9 129.7c0 9.3-7.5 16.8-16.8 16.8s-16.8-7.5-16.8-16.8 7.5-16.8 16.8-16.8c9.3-.1 16.8 7.5 16.8 16.8" fill="none"/><path fill="#FFE5E5" d="M871.4 351.4c0 9.3-7.5 16.8-16.8 16.8s-16.8-7.5-16.8-16.8 7.5-16.8 16.8-16.8 16.8 7.5 16.8 16.8"/><path stroke="#f00" stroke-width=".75" d="M871.4 351.4c0 9.3-7.5 16.8-16.8 16.8s-16.8-7.5-16.8-16.8 7.5-16.8 16.8-16.8 16.8 7.5 16.8 16.8" fill="none"/><path fill="#EBFAEB" d="M854.8 419.7c0 9.3-7.5 16.8-16.8 16.8s-16.8-7.5-16.8-16.8 7.5-16.8 16.8-16.8c9.3.1 16.8 7.6 16.8 16.8"/><path stroke="#2CA02C" stroke-width=".75" d="M854.8 419.7c0 9.3-7.5 16.8-16.8 16.8s-16.8-7.5-16.8-16.8 7.5-16.8 16.8-16.8c9.3.1 16.8 7.6 16.8 16.8" fill="none"/><path fill="#E8FBFC" d="M1034.6 172.2c0 9.3-7.5 16.8-16.8 16.8s-16.8-7.5-16.8-16.8 7.5-16.8 16.8-16.8 16.8 7.5 16.8 16.8"/><path stroke="#17BECF" stroke-width=".75" d="M1034.6 172.2c0 9.3-7.5 16.8-16.8 16.8s-16.8-7.5-16.8-16.8 7.5-16.8 16.8-16.8 16.8 7.5 16.8 16.8" fill="none"/><path fill="#FAFFE5" d="M808.6 297.8c0 9.2-7.5 16.7-16.7 16.7s-16.7-7.5-16.7-16.7 7.5-16.7 16.7-16.7 16.7 7.5 16.7 16.7"/><path stroke="#D1FF00" stroke-width=".75" d="M808.6 297.8c0 9.2-7.5 16.7-16.7 16.7s-16.7-7.5-16.7-16.7 7.5-16.7 16.7-16.7 16.7 7.5 16.7 16.7" fill="none"/><path fill="#FEEDE7" d="M861.7 249.8c0 9.2-7.5 16.7-16.7 16.7s-16.7-7.5-16.7-16.7 7.5-16.7 16.7-16.7 16.7 7.5 16.7 16.7"/><path stroke="#5E1F05" stroke-width=".75" d="M861.7 249.8c0 9.2-7.5 16.7-16.7 16.7s-16.7-7.5-16.7-16.7 7.5-16.7 16.7-16.7 16.7 7.5 16.7 16.7" fill="none"/><path fill="#FAFFE5" d="M877.8 271.8c0 9.2-7.5 16.7-16.7 16.7s-16.7-7.5-16.7-16.7 7.5-16.7 16.7-16.7 16.7 7.5 16.7 16.7"/><path stroke="#D1FF00" stroke-width=".75" d="M877.8 271.8c0 9.2-7.5 16.7-16.7 16.7s-16.7-7.5-16.7-16.7 7.5-16.7 16.7-16.7 16.7 7.5 16.7 16.7" fill="none"/><path fill="#FBEAF6" d="M1064.7 191.5c0 9.2-7.5 16.6-16.6 16.6s-16.6-7.4-16.6-16.6c0-9.2 7.4-16.6 16.6-16.6s16.6 7.4 16.6 16.6"/><path stroke="#E377C2" stroke-width=".75" d="M1064.7 191.5c0 9.2-7.5 16.6-16.6 16.6s-16.6-7.4-16.6-16.6c0-9.2 7.4-16.6 16.6-16.6s16.6 7.4 16.6 16.6" fill="none"/><path fill="#FFE5E5" d="M952 238c0 9.2-7.4 16.6-16.6 16.6-9.2 0-16.6-7.4-16.6-16.6 0-9.2 7.4-16.6 16.6-16.6 9.2-.1 16.6 7.4 16.6 16.6"/><path stroke="#f00" stroke-width=".75" d="M952 238c0 9.2-7.4 16.6-16.6 16.6-9.2 0-16.6-7.4-16.6-16.6 0-9.2 7.4-16.6 16.6-16.6 9.2-.1 16.6 7.4 16.6 16.6" fill="none"/><path fill="#FAFFE5" d="M752.9 435c0 9.2-7.4 16.6-16.6 16.6-9.2 0-16.6-7.4-16.6-16.6s7.4-16.6 16.6-16.6 16.6 7.4 16.6 16.6"/><path stroke="#D1FF00" stroke-width=".75" d="M752.9 435c0 9.2-7.4 16.6-16.6 16.6-9.2 0-16.6-7.4-16.6-16.6s7.4-16.6 16.6-16.6 16.6 7.4 16.6 16.6" fill="none"/><path fill="#FEEDE7" d="M927.8 210.2c0 9.2-7.4 16.6-16.6 16.6-9.2 0-16.6-7.4-16.6-16.6 0-9.2 7.4-16.6 16.6-16.6 9.2 0 16.6 7.4 16.6 16.6"/><path stroke="#5E1F05" stroke-width=".75" d="M927.8 210.2c0 9.2-7.4 16.6-16.6 16.6-9.2 0-16.6-7.4-16.6-16.6 0-9.2 7.4-16.6 16.6-16.6 9.2 0 16.6 7.4 16.6 16.6" fill="none"/><path fill="#FBEAF6" d="M883.6 221c0 9.2-7.4 16.6-16.6 16.6-9.1 0-16.6-7.4-16.6-16.6 0-9.1 7.4-16.6 16.6-16.6 9.2.1 16.6 7.5 16.6 16.6"/><path stroke="#E377C2" stroke-width=".75" d="M883.6 221c0 9.2-7.4 16.6-16.6 16.6-9.1 0-16.6-7.4-16.6-16.6 0-9.1 7.4-16.6 16.6-16.6 9.2.1 16.6 7.5 16.6 16.6" fill="none"/><path fill="#FCE8F1" d="M803.3 356.9c0 9.2-7.4 16.6-16.6 16.6-9.2 0-16.6-7.4-16.6-16.6 0-9.1 7.4-16.6 16.6-16.6 9.2 0 16.6 7.4 16.6 16.6"/><path stroke="#F7B6D2" stroke-width=".75" d="M803.3 356.9c0 9.2-7.4 16.6-16.6 16.6-9.2 0-16.6-7.4-16.6-16.6 0-9.1 7.4-16.6 16.6-16.6 9.2 0 16.6 7.4 16.6 16.6" fill="none"/><path fill="#EBFAEB" d="M846.2 417.2c0 9.1-7.4 16.5-16.5 16.5s-16.5-7.4-16.5-16.5 7.4-16.5 16.5-16.5 16.5 7.4 16.5 16.5"/><path stroke="#2CA02C" stroke-width=".75" d="M846.2 417.2c0 9.1-7.4 16.5-16.5 16.5s-16.5-7.4-16.5-16.5 7.4-16.5 16.5-16.5 16.5 7.4 16.5 16.5" fill="none"/><path fill="#FFF8E5" d="M808.5 371.8c0 9.1-7.4 16.5-16.5 16.5s-16.5-7.4-16.5-16.5 7.4-16.5 16.5-16.5 16.5 7.3 16.5 16.5"/><path stroke="#FFC41C" stroke-width=".75" d="M808.5 371.8c0 9.1-7.4 16.5-16.5 16.5s-16.5-7.4-16.5-16.5 7.4-16.5 16.5-16.5 16.5 7.3 16.5 16.5" fill="none"/><path fill="#FCE8F1" d="M976.9 228.3c0 9.1-7.4 16.5-16.5 16.5s-16.5-7.4-16.5-16.5 7.4-16.5 16.5-16.5 16.5 7.4 16.5 16.5"/><path stroke="#F7B6D2" stroke-width=".75" d="M976.9 228.3c0 9.1-7.4 16.5-16.5 16.5s-16.5-7.4-16.5-16.5 7.4-16.5 16.5-16.5 16.5 7.4 16.5 16.5" fill="none"/><path fill="#EBFAEB" d="M949.8 209.5c0 9.1-7.4 16.5-16.5 16.5s-16.5-7.4-16.5-16.5 7.4-16.5 16.5-16.5 16.5 7.4 16.5 16.5"/><path stroke="#2CA02C" stroke-width=".75" d="M949.8 209.5c0 9.1-7.4 16.5-16.5 16.5s-16.5-7.4-16.5-16.5 7.4-16.5 16.5-16.5 16.5 7.4 16.5 16.5" fill="none"/><path fill="#EBFAEB" d="M820.3 413.4c0 9.1-7.4 16.5-16.5 16.5s-16.5-7.4-16.5-16.5 7.4-16.5 16.5-16.5 16.5 7.4 16.5 16.5"/><path stroke="#2CA02C" stroke-width=".75" d="M820.3 413.4c0 9.1-7.4 16.5-16.5 16.5s-16.5-7.4-16.5-16.5 7.4-16.5 16.5-16.5 16.5 7.4 16.5 16.5" fill="none"/><path fill="#FBEAF6" d="M1081 147.8c0 9.1-7.3 16.4-16.4 16.4-9 0-16.4-7.3-16.4-16.4 0-9 7.3-16.4 16.4-16.4 9.1 0 16.4 7.4 16.4 16.4"/><path stroke="#E377C2" stroke-width=".75" d="M1081 147.8c0 9.1-7.3 16.4-16.4 16.4-9 0-16.4-7.3-16.4-16.4 0-9 7.3-16.4 16.4-16.4 9.1 0 16.4 7.4 16.4 16.4" fill="none"/><path fill="#EBFAEB" d="M823.6 358.5c0 9-7.3 16.3-16.3 16.3s-16.3-7.3-16.3-16.3 7.3-16.3 16.3-16.3 16.3 7.3 16.3 16.3"/><path stroke="#2CA02C" stroke-width=".75" d="M823.6 358.5c0 9-7.3 16.3-16.3 16.3s-16.3-7.3-16.3-16.3 7.3-16.3 16.3-16.3 16.3 7.3 16.3 16.3" fill="none"/><path fill="#FFE5E5" d="M890.3 220.6c0 9-7.3 16.3-16.3 16.3s-16.3-7.3-16.3-16.3 7.3-16.3 16.3-16.3c9 .1 16.3 7.4 16.3 16.3"/><path stroke="#f00" stroke-width=".75" d="M890.3 220.6c0 9-7.3 16.3-16.3 16.3s-16.3-7.3-16.3-16.3 7.3-16.3 16.3-16.3c9 .1 16.3 7.4 16.3 16.3" fill="none"/><path fill="#FEEDE7" d="M940.7 204.2c0 9-7.3 16.3-16.3 16.3s-16.3-7.3-16.3-16.3 7.3-16.3 16.3-16.3c9 .1 16.3 7.4 16.3 16.3"/><path stroke="#5E1F05" stroke-width=".75" d="M940.7 204.2c0 9-7.3 16.3-16.3 16.3s-16.3-7.3-16.3-16.3 7.3-16.3 16.3-16.3c9 .1 16.3 7.4 16.3 16.3" fill="none"/><path fill="#FDF0E7" d="M965.6 199.9c0 9-7.3 16.2-16.2 16.2s-16.2-7.3-16.2-16.2c0-9 7.3-16.2 16.2-16.2s16.2 7.3 16.2 16.2"/><path stroke="#D66011" stroke-width=".75" d="M965.6 199.9c0 9-7.3 16.2-16.2 16.2s-16.2-7.3-16.2-16.2c0-9 7.3-16.2 16.2-16.2s16.2 7.3 16.2 16.2" fill="none"/><path fill="#FAFFE5" d="M798 371.1c0 9-7.3 16.2-16.2 16.2s-16.2-7.3-16.2-16.2c0-9 7.3-16.2 16.2-16.2s16.2 7.3 16.2 16.2"/><path stroke="#D1FF00" stroke-width=".75" d="M798 371.1c0 9-7.3 16.2-16.2 16.2s-16.2-7.3-16.2-16.2c0-9 7.3-16.2 16.2-16.2s16.2 7.3 16.2 16.2" fill="none"/><path fill="#FEEDE7" d="M957.4 225.2c0 8.9-7.2 16.2-16.2 16.2s-16.2-7.2-16.2-16.2c0-8.9 7.2-16.2 16.2-16.2s16.2 7.3 16.2 16.2"/><path stroke="#5E1F05" stroke-width=".75" d="M957.4 225.2c0 8.9-7.2 16.2-16.2 16.2s-16.2-7.2-16.2-16.2c0-8.9 7.2-16.2 16.2-16.2s16.2 7.3 16.2 16.2" fill="none"/><path fill="#E8FBFC" d="M957.3 247.7c0 8.9-7.2 16.2-16.2 16.2-8.9 0-16.2-7.2-16.2-16.2 0-8.9 7.2-16.2 16.2-16.2s16.2 7.3 16.2 16.2"/><path stroke="#17BECF" stroke-width=".75" d="M957.3 247.7c0 8.9-7.2 16.2-16.2 16.2-8.9 0-16.2-7.2-16.2-16.2 0-8.9 7.2-16.2 16.2-16.2s16.2 7.3 16.2 16.2" fill="none"/><path fill="#FAFFE5" d="M824.1 520.3c0 8.9-7.2 16.2-16.2 16.2-8.9 0-16.2-7.2-16.2-16.2 0-8.9 7.2-16.2 16.2-16.2s16.2 7.2 16.2 16.2"/><path stroke="#D1FF00" stroke-width=".75" d="M824.1 520.3c0 8.9-7.2 16.2-16.2 16.2-8.9 0-16.2-7.2-16.2-16.2 0-8.9 7.2-16.2 16.2-16.2s16.2 7.2 16.2 16.2" fill="none"/><path fill="#EBFAEB" d="M963.6 392.6c0 8.9-7.2 16.1-16.1 16.1-8.9 0-16.1-7.2-16.1-16.1s7.2-16.1 16.1-16.1c8.9-.1 16.1 7.1 16.1 16.1"/><path stroke="#2CA02C" stroke-width=".75" d="M963.6 392.6c0 8.9-7.2 16.1-16.1 16.1-8.9 0-16.1-7.2-16.1-16.1s7.2-16.1 16.1-16.1c8.9-.1 16.1 7.1 16.1 16.1" fill="none"/><path fill="#FFE5E5" d="M948.6 210.5c0 8.9-7.2 16.1-16.1 16.1-8.9 0-16.1-7.2-16.1-16.1 0-8.9 7.2-16.1 16.1-16.1 8.8 0 16.1 7.2 16.1 16.1"/><path stroke="#f00" stroke-width=".75" d="M948.6 210.5c0 8.9-7.2 16.1-16.1 16.1-8.9 0-16.1-7.2-16.1-16.1 0-8.9 7.2-16.1 16.1-16.1 8.8 0 16.1 7.2 16.1 16.1" fill="none"/><path fill="#FBEAF6" d="M903.2 227.8c0 8.9-7.2 16.1-16.1 16.1-8.9 0-16.1-7.2-16.1-16.1 0-8.9 7.2-16.1 16.1-16.1 8.9.1 16.1 7.3 16.1 16.1"/><path stroke="#E377C2" stroke-width=".75" d="M903.2 227.8c0 8.9-7.2 16.1-16.1 16.1-8.9 0-16.1-7.2-16.1-16.1 0-8.9 7.2-16.1 16.1-16.1 8.9.1 16.1 7.3 16.1 16.1" fill="none"/><path fill="#FDF0E7" d="M848.7 370.6c0 8.9-7.2 16.1-16.1 16.1-8.9 0-16.1-7.2-16.1-16.1s7.2-16.1 16.1-16.1 16.1 7.2 16.1 16.1"/><path stroke="#D66011" stroke-width=".75" d="M848.7 370.6c0 8.9-7.2 16.1-16.1 16.1-8.9 0-16.1-7.2-16.1-16.1s7.2-16.1 16.1-16.1 16.1 7.2 16.1 16.1" fill="none"/><path fill="#FAFFE5" d="M819.8 310.1c0 8.8-7.1 15.9-15.9 15.9s-15.9-7.1-15.9-15.9 7.1-15.9 15.9-15.9 15.9 7.1 15.9 15.9"/><path stroke="#D1FF00" stroke-width=".75" d="M819.8 310.1c0 8.8-7.1 15.9-15.9 15.9s-15.9-7.1-15.9-15.9 7.1-15.9 15.9-15.9 15.9 7.1 15.9 15.9" fill="none"/><path fill="#FBEAF6" d="M949.1 213.1c0 8.8-7.1 15.9-15.9 15.9s-15.9-7.1-15.9-15.9 7.1-15.9 15.9-15.9c8.8.1 15.9 7.2 15.9 15.9"/><path stroke="#E377C2" stroke-width=".75" d="M949.1 213.1c0 8.8-7.1 15.9-15.9 15.9s-15.9-7.1-15.9-15.9 7.1-15.9 15.9-15.9c8.8.1 15.9 7.2 15.9 15.9" fill="none"/><path fill="#EBFAEB" d="M1019.9 189.8c0 8.8-7.1 15.8-15.8 15.8s-15.8-7.1-15.8-15.8 7.1-15.8 15.8-15.8c8.7 0 15.8 7.1 15.8 15.8"/><path stroke="#2CA02C" stroke-width=".75" d="M1019.9 189.8c0 8.8-7.1 15.8-15.8 15.8s-15.8-7.1-15.8-15.8 7.1-15.8 15.8-15.8c8.7 0 15.8 7.1 15.8 15.8" fill="none"/><path fill="#FAFFE5" d="M771.2 357.4c0 8.7-7.1 15.8-15.8 15.8s-15.8-7.1-15.8-15.8c0-8.7 7.1-15.8 15.8-15.8 8.7-.1 15.8 7 15.8 15.8"/><path stroke="#D1FF00" stroke-width=".75" d="M771.2 357.4c0 8.7-7.1 15.8-15.8 15.8s-15.8-7.1-15.8-15.8c0-8.7 7.1-15.8 15.8-15.8 8.7-.1 15.8 7 15.8 15.8" fill="none"/><path fill="#FEEDE7" d="M877.9 263.4c0 8.7-7.1 15.8-15.8 15.8s-15.8-7.1-15.8-15.8c0-8.7 7.1-15.8 15.8-15.8 8.7 0 15.8 7.1 15.8 15.8"/><path stroke="#5E1F05" stroke-width=".75" d="M877.9 263.4c0 8.7-7.1 15.8-15.8 15.8s-15.8-7.1-15.8-15.8c0-8.7 7.1-15.8 15.8-15.8 8.7 0 15.8 7.1 15.8 15.8" fill="none"/><path fill="#FCE8F1" d="M877.3 240.2c0 8.7-7 15.7-15.7 15.7s-15.7-7-15.7-15.7 7-15.7 15.7-15.7c8.7-.1 15.7 7 15.7 15.7"/><path stroke="#F7B6D2" stroke-width=".75" d="M877.3 240.2c0 8.7-7 15.7-15.7 15.7s-15.7-7-15.7-15.7 7-15.7 15.7-15.7c8.7-.1 15.7 7 15.7 15.7" fill="none"/><path fill="#FAFFE5" d="M897.1 408.2c0 8.7-7 15.7-15.7 15.7s-15.7-7-15.7-15.7 7-15.7 15.7-15.7 15.7 7.1 15.7 15.7"/><path stroke="#D1FF00" stroke-width=".75" d="M897.1 408.2c0 8.7-7 15.7-15.7 15.7s-15.7-7-15.7-15.7 7-15.7 15.7-15.7 15.7 7.1 15.7 15.7" fill="none"/><path fill="#FFFAE5" d="M861.7 313.8c0 8.6-7 15.6-15.7 15.6-8.6 0-15.7-7-15.7-15.6 0-8.7 7-15.7 15.7-15.7s15.7 7 15.7 15.7"/><path stroke="#FFE999" stroke-width=".75" d="M861.7 313.8c0 8.6-7 15.6-15.7 15.6-8.6 0-15.7-7-15.7-15.6 0-8.7 7-15.7 15.7-15.7s15.7 7 15.7 15.7" fill="none"/><path fill="#EBFAEB" d="M792.9 452.5c0 8.6-7 15.6-15.6 15.6s-15.6-7-15.6-15.6 7-15.6 15.6-15.6 15.6 7 15.6 15.6"/><path stroke="#2CA02C" stroke-width=".75" d="M792.9 452.5c0 8.6-7 15.6-15.6 15.6s-15.6-7-15.6-15.6 7-15.6 15.6-15.6 15.6 7 15.6 15.6" fill="none"/><path fill="#E8FBFC" d="M1052.7 229.7c0 8.6-7 15.6-15.6 15.6s-15.6-7-15.6-15.6 7-15.6 15.6-15.6c8.7 0 15.6 6.9 15.6 15.6"/><path stroke="#17BECF" stroke-width=".75" d="M1052.7 229.7c0 8.6-7 15.6-15.6 15.6s-15.6-7-15.6-15.6 7-15.6 15.6-15.6c8.7 0 15.6 6.9 15.6 15.6" fill="none"/><path fill="#FBEAF6" d="M942.8 356.5c0 8.6-7 15.6-15.6 15.6s-15.6-7-15.6-15.6 7-15.6 15.6-15.6c8.7 0 15.6 7 15.6 15.6"/><path stroke="#E377C2" stroke-width=".75" d="M942.8 356.5c0 8.6-7 15.6-15.6 15.6s-15.6-7-15.6-15.6 7-15.6 15.6-15.6c8.7 0 15.6 7 15.6 15.6" fill="none"/><path fill="#EBFAEB" d="M958.9 294.9c0 8.6-7 15.5-15.5 15.5-8.6 0-15.5-6.9-15.5-15.5s6.9-15.5 15.5-15.5c8.5 0 15.5 7 15.5 15.5"/><path stroke="#2CA02C" stroke-width=".75" d="M958.9 294.9c0 8.6-7 15.5-15.5 15.5-8.6 0-15.5-6.9-15.5-15.5s6.9-15.5 15.5-15.5c8.5 0 15.5 7 15.5 15.5" fill="none"/><path fill="#F2F2F2" d="M896 318.7c0 8.5-6.9 15.4-15.4 15.4s-15.4-6.9-15.4-15.4 6.9-15.4 15.4-15.4 15.4 6.9 15.4 15.4"/><path stroke="#7F7F7F" stroke-width=".75" d="M896 318.7c0 8.5-6.9 15.4-15.4 15.4s-15.4-6.9-15.4-15.4 6.9-15.4 15.4-15.4 15.4 6.9 15.4 15.4" fill="none"/><path fill="#EDFCE9" d="M879.1 320.9c0 8.5-6.9 15.4-15.4 15.4s-15.4-6.9-15.4-15.4 6.9-15.4 15.4-15.4 15.4 6.9 15.4 15.4"/><path stroke="#3AB11A" stroke-width=".75" d="M879.1 320.9c0 8.5-6.9 15.4-15.4 15.4s-15.4-6.9-15.4-15.4 6.9-15.4 15.4-15.4 15.4 6.9 15.4 15.4" fill="none"/><path fill="#F2F2F2" d="M839.6 288.9c0 8.5-6.9 15.4-15.4 15.4s-15.4-6.9-15.4-15.4 6.9-15.4 15.4-15.4 15.4 6.9 15.4 15.4"/><path stroke="#7F7F7F" stroke-width=".75" d="M839.6 288.9c0 8.5-6.9 15.4-15.4 15.4s-15.4-6.9-15.4-15.4 6.9-15.4 15.4-15.4 15.4 6.9 15.4 15.4" fill="none"/><path fill="#FFE5E5" d="M929.6 225.8c0 8.5-6.9 15.4-15.4 15.4s-15.4-6.9-15.4-15.4 6.9-15.4 15.4-15.4 15.4 6.9 15.4 15.4"/><path stroke="#f00" stroke-width=".75" d="M929.6 225.8c0 8.5-6.9 15.4-15.4 15.4s-15.4-6.9-15.4-15.4 6.9-15.4 15.4-15.4 15.4 6.9 15.4 15.4" fill="none"/><path fill="#FFE5E5" d="M877.1 246.3c0 8.4-6.8 15.3-15.3 15.3-8.4 0-15.3-6.8-15.3-15.3 0-8.4 6.8-15.3 15.3-15.3 8.5.1 15.3 6.9 15.3 15.3"/><path stroke="#f00" stroke-width=".75" d="M877.1 246.3c0 8.4-6.8 15.3-15.3 15.3-8.4 0-15.3-6.8-15.3-15.3 0-8.4 6.8-15.3 15.3-15.3 8.5.1 15.3 6.9 15.3 15.3" fill="none"/><path fill="#FEEDE7" d="M988.4 215.2c0 8.4-6.8 15.3-15.3 15.3-8.4 0-15.3-6.8-15.3-15.3 0-8.4 6.8-15.3 15.3-15.3 8.5.1 15.3 6.9 15.3 15.3"/><path stroke="#5E1F05" stroke-width=".75" d="M988.4 215.2c0 8.4-6.8 15.3-15.3 15.3-8.4 0-15.3-6.8-15.3-15.3 0-8.4 6.8-15.3 15.3-15.3 8.5.1 15.3 6.9 15.3 15.3" fill="none"/><path fill="#EBFAEB" d="M790.9 437.5c0 8.4-6.8 15.2-15.2 15.2s-15.2-6.8-15.2-15.2c0-8.4 6.8-15.2 15.2-15.2 8.4-.1 15.2 6.8 15.2 15.2"/><path stroke="#2CA02C" stroke-width=".75" d="M790.9 437.5c0 8.4-6.8 15.2-15.2 15.2s-15.2-6.8-15.2-15.2c0-8.4 6.8-15.2 15.2-15.2 8.4-.1 15.2 6.8 15.2 15.2" fill="none"/><path fill="#FEEDE7" d="M785.3 366.3c0 8.4-6.8 15.2-15.2 15.2s-15.2-6.8-15.2-15.2c0-8.4 6.8-15.2 15.2-15.2 8.4 0 15.2 6.8 15.2 15.2"/><path stroke="#5E1F05" stroke-width=".75" d="M785.3 366.3c0 8.4-6.8 15.2-15.2 15.2s-15.2-6.8-15.2-15.2c0-8.4 6.8-15.2 15.2-15.2 8.4 0 15.2 6.8 15.2 15.2" fill="none"/><path fill="#FEEDE7" d="M1009.1 163.1c0 8.4-6.8 15.1-15.1 15.1-8.4 0-15.1-6.8-15.1-15.1 0-8.4 6.8-15.1 15.1-15.1 8.3-.1 15.1 6.7 15.1 15.1"/><path stroke="#5E1F05" stroke-width=".75" d="M1009.1 163.1c0 8.4-6.8 15.1-15.1 15.1-8.4 0-15.1-6.8-15.1-15.1 0-8.4 6.8-15.1 15.1-15.1 8.3-.1 15.1 6.7 15.1 15.1" fill="none"/><path fill="#FEEDE7" d="M872.7 241.7c0 8.3-6.8 15.1-15.1 15.1s-15.1-6.7-15.1-15.1c0-8.3 6.8-15.1 15.1-15.1s15.1 6.7 15.1 15.1"/><path stroke="#5E1F05" stroke-width=".75" d="M872.7 241.7c0 8.3-6.8 15.1-15.1 15.1s-15.1-6.7-15.1-15.1c0-8.3 6.8-15.1 15.1-15.1s15.1 6.7 15.1 15.1" fill="none"/><path fill="#EBFAEB" d="M785.3 426c0 8.3-6.7 15-15 15s-15-6.7-15-15 6.7-15 15-15 15 6.7 15 15"/><path stroke="#2CA02C" stroke-width=".75" d="M785.3 426c0 8.3-6.7 15-15 15s-15-6.7-15-15 6.7-15 15-15 15 6.7 15 15" fill="none"/><path fill="#EBFAEB" d="M922.8 339.6c0 8.3-6.7 15-15 15s-15-6.7-15-15 6.7-15 15-15c8.2 0 15 6.7 15 15"/><path stroke="#2CA02C" stroke-width=".75" d="M922.8 339.6c0 8.3-6.7 15-15 15s-15-6.7-15-15 6.7-15 15-15c8.2 0 15 6.7 15 15" fill="none"/><path fill="#FAFFE5" d="M916.6 309.6c0 8.3-6.7 15-15 15s-15-6.7-15-15 6.7-15 15-15 15 6.7 15 15"/><path stroke="#D1FF00" stroke-width=".75" d="M916.6 309.6c0 8.3-6.7 15-15 15s-15-6.7-15-15 6.7-15 15-15 15 6.7 15 15" fill="none"/><path fill="#E8FBFC" d="M1001.2 227.5c0 8.3-6.7 15-15 15s-15-6.7-15-15 6.7-15 15-15 15 6.8 15 15"/><path stroke="#17BECF" stroke-width=".75" d="M1001.2 227.5c0 8.3-6.7 15-15 15s-15-6.7-15-15 6.7-15 15-15 15 6.8 15 15" fill="none"/><path fill="#EDFAEB" d="M823.6 346.9c0 8.2-6.7 14.9-14.9 14.9s-14.9-6.7-14.9-14.9 6.7-14.9 14.9-14.9 14.9 6.7 14.9 14.9"/><path stroke="#98DF8A" stroke-width=".75" d="M823.6 346.9c0 8.2-6.7 14.9-14.9 14.9s-14.9-6.7-14.9-14.9 6.7-14.9 14.9-14.9 14.9 6.7 14.9 14.9" fill="none"/><path fill="#EBFAEB" d="M800.9 417.9c0 8.2-6.6 14.8-14.8 14.8s-14.8-6.6-14.8-14.8c0-8.2 6.6-14.8 14.8-14.8 8.2 0 14.8 6.6 14.8 14.8"/><path stroke="#2CA02C" stroke-width=".75" d="M800.9 417.9c0 8.2-6.6 14.8-14.8 14.8s-14.8-6.6-14.8-14.8c0-8.2 6.6-14.8 14.8-14.8 8.2 0 14.8 6.6 14.8 14.8" fill="none"/><path fill="#FAFFE5" d="M972.1 418.6c0 8.1-6.6 14.7-14.7 14.7s-14.7-6.6-14.7-14.7 6.6-14.7 14.7-14.7 14.7 6.6 14.7 14.7"/><path stroke="#D1FF00" stroke-width=".75" d="M972.1 418.6c0 8.1-6.6 14.7-14.7 14.7s-14.7-6.6-14.7-14.7 6.6-14.7 14.7-14.7 14.7 6.6 14.7 14.7" fill="none"/><path fill="#FBEAF6" d="M1068.5 156.1c0 8.1-6.6 14.7-14.7 14.7s-14.7-6.6-14.7-14.7 6.6-14.7 14.7-14.7 14.7 6.6 14.7 14.7"/><path stroke="#E377C2" stroke-width=".75" d="M1068.5 156.1c0 8.1-6.6 14.7-14.7 14.7s-14.7-6.6-14.7-14.7 6.6-14.7 14.7-14.7 14.7 6.6 14.7 14.7" fill="none"/><path fill="#FDF0E7" d="M999.5 233.6c0 8.1-6.6 14.6-14.6 14.6-8.1 0-14.6-6.6-14.6-14.6 0-8.1 6.6-14.6 14.6-14.6s14.6 6.5 14.6 14.6"/><path stroke="#D66011" stroke-width=".75" d="M999.5 233.6c0 8.1-6.6 14.6-14.6 14.6-8.1 0-14.6-6.6-14.6-14.6 0-8.1 6.6-14.6 14.6-14.6s14.6 6.5 14.6 14.6" fill="none"/><path fill="#FDF0E7" d="M984.4 287.6c0 8-6.5 14.5-14.5 14.5s-14.5-6.5-14.5-14.5 6.5-14.5 14.5-14.5 14.5 6.5 14.5 14.5"/><path stroke="#D66011" stroke-width=".75" d="M984.4 287.6c0 8-6.5 14.5-14.5 14.5s-14.5-6.5-14.5-14.5 6.5-14.5 14.5-14.5 14.5 6.5 14.5 14.5" fill="none"/><path fill="#FDF0E7" d="M1001.8 150c0 8-6.5 14.4-14.5 14.4s-14.4-6.5-14.4-14.4c0-8 6.5-14.5 14.4-14.5 8 .1 14.5 6.6 14.5 14.5"/><path stroke="#D66011" stroke-width=".75" d="M1001.8 150c0 8-6.5 14.4-14.5 14.4s-14.4-6.5-14.4-14.4c0-8 6.5-14.5 14.4-14.5 8 .1 14.5 6.6 14.5 14.5" fill="none"/><path fill="#FFF8E5" d="M956.3 282c0 7.9-6.4 14.2-14.2 14.2-7.9 0-14.2-6.4-14.2-14.2 0-7.9 6.4-14.2 14.2-14.2 7.9-.1 14.2 6.3 14.2 14.2"/><path stroke="#FFC41C" stroke-width=".75" d="M956.3 282c0 7.9-6.4 14.2-14.2 14.2-7.9 0-14.2-6.4-14.2-14.2 0-7.9 6.4-14.2 14.2-14.2 7.9-.1 14.2 6.3 14.2 14.2" fill="none"/></svg>