<svg xmlns="http://www.w3.org/2000/svg" viewBox="0 0 1500 625" enable-background="new 0 0 1500 625"><path fill="#E15E69" stroke="#fff" stroke-width="1.5" stroke-miterlimit="10" d="M357.5 33.8h-4.6c-29.4.4-59.8 3.5-88.2 6.8s-58.9 12.9-88.2 13.7c-1.5 0-3 .1-4.5.1-28 0-56.6-6.4-83.7-9.2-28.7-3-74-7.7-88.3-9.2v13.7c14 2 60.2 8.6 88.2 12.4 28 3.8 58.8 11.6 88.2 11.8h1.3c29 0 58.5-7.8 86.9-10.4 26.7-2.4 54.5-5.5 81.9-5.5 2.1 0 4.2 0 6.3.1 29.4.5 59.2 6.6 88.2 8.6 29.1 2 58.8 3.4 88.2 3.6h3.4c28.3 0 56.6-2.3 84.9-2.4h3.9c28.1 0 56.2 1.2 84.3 1.7 29.4.6 58.8 1.5 88.2 1.6h18.4c23.3 0 46.6-.1 69.8-.5 29.4-.5 58.8-5.4 88.2-5.8 6.9-.1 13.9-.1 20.8-.1 22.5 0 45 .4 67.4.6 29.4.3 58.9 2.6 88.2 3.6 29.3 1 59 1.3 88.2 2.6 29.3 1.3 58.8 5 88.2 5 22.2 0 44.5.1 66.7.1h21.6c29.4 0 73.6-3.9 88.2-4.6V45.7c-14.5 1-58.9 4.9-88.2 5.8-23.8.8-47.7 1-71.6 1h-16.6c-29.4-.1-58.8-1.1-88.2-1.7-29.4-.5-58.9-.5-88.2-1.5-29.3-1-58.9-3.6-88.2-4.6-23.4-.8-47-1.9-70.5-1.9-5.9 0-11.8.1-17.7.2-29.4.8-58.9 5.5-88.2 6.3-5.2.1-10.5.2-15.7.2-24.1 0-48.4-1.3-72.5-1.7-29.4-.5-58.8-1.1-88.2-1.7-29.4-.6-58.9-1.3-88.2-2-29.4-.7-58.9-1.4-88.2-2.4-29.3-.9-59-2-88.2-3.3-27.8-1.4-55.8-4.6-83.7-4.6"/><path fill="#B43F67" stroke="#fff" stroke-width="1.5" stroke-miterlimit="10" d="M0 51.1v14.7C13.3 68.4 61.7 78 88.2 83.4c26.6 5.4 59.1 16.1 88.2 18 3.8.3 7.6.4 11.4.4 25.5 0 51.6-5 76.8-6.7 25.6-1.8 52-6.3 77.9-6.3 3.5 0 6.9.1 10.4.3 29.2 1.5 59.8 12 88.2 15.3 26 3 53.6 5.2 80.7 5.2 2.5 0 5.1 0 7.6-.1 29.4-.5 58.9-7.2 88.2-7.9 7-.2 13.9-.2 20.9-.2 22.4 0 44.9.7 67.4 1.1 29.4.5 58.9 3.4 88.2 4.5 25.6.9 51.3 1.8 77 1.8 3.7 0 7.5 0 11.2-.1 29.2-.3 58.5-3.6 87.8-3.6h.5c29.4 0 59 2.3 88.2 3.8s59.4 2.8 88.2 5.4c28.8 2.6 59.5 7.7 88.2 10.3 28.8 2.7 58.8 5.6 88.2 6.1h5.2c27.7 0 55.4-3.3 83.1-3.3h18.3c27 0 58.1.1 70 .1V73.6c-14.6.8-58.8 4.6-88.2 4.6h-21.5c-22.2 0-44.5-.1-66.7-.1-29.4-.1-59-3.8-88.2-5-29.3-1.3-58.9-1.5-88.2-2.6-29.3-1-58.8-3.3-88.2-3.6-22.5-.2-44.9-.6-67.4-.6-6.9 0-13.9 0-20.8.1-29.4.4-58.8 5.3-88.2 5.8-23.3.4-46.5.5-69.8.5h-18.4c-29.4-.1-58.8-1.1-88.2-1.6-28.1-.5-56.2-1.7-84.3-1.7H618c-28.3.1-56.6 2.4-84.9 2.4h-3.4c-29.4-.2-59.2-1.6-88.2-3.6s-58.8-8.1-88.2-8.6c-2.1 0-4.2-.1-6.3-.1-27.3 0-55.2 3.1-81.9 5.5-28.4 2.5-57.9 10.4-86.9 10.4h-1.3c-29.4-.2-60.2-8-88.2-11.8C60.2 59.7 14 53.1 0 51.1"/><path fill="#AE42A0" stroke="#fff" stroke-width="1.5" stroke-miterlimit="10" d="M373.1 23.2c-6.7 0-13.4.1-20.1.3-29.3.9-59.9 4.1-88.2 7.4-28.4 3.4-58.9 12.7-88.2 13.4-1.5 0-3 .1-4.5.1-27.9 0-56.4-6.4-83.7-8.9-28.8-2.6-73.8-5.9-88.2-7v6.2c14.3 1.5 59.6 6.1 88.2 9.1 27 2.7 55.6 9.2 83.6 9.2 1.5 0 3 0 4.5-.1 29.4-.8 59.8-10.4 88.2-13.7s58.8-6.4 88.2-6.8h4.6c27.9 0 55.9 3.3 83.7 4.5 29.3 1.3 58.9 2.4 88.2 3.3 29.3.9 58.9 1.6 88.2 2.4 29.4.7 58.9 1.4 88.2 2 29.4.6 58.8 1.2 88.2 1.7 24.1.4 48.4 1.7 72.5 1.7 5.2 0 10.5-.1 15.7-.2 29.4-.8 58.9-5.5 88.2-6.3 5.9-.2 11.8-.2 17.7-.2 23.5 0 47.1 1.1 70.5 1.9 29.3 1 58.9 3.6 88.2 4.6 29.3 1 58.8 1 88.2 1.5 29.4.5 58.8 1.6 88.2 1.7h16.6c23.9 0 47.8-.2 71.6-1 29.3-.9 73.7-4.8 88.2-5.8V29.4c-14.5 1-58.9 5.6-88.2 6.2-3.5.1-7 .1-10.5.1-25.9 0-51.9-1.8-77.7-2.6-29.3-.8-58.8-2.4-88.2-2.5h-9.1c-11 0-22 0-33 .1-11 0-22 .1-33 .1h-13.2c-29.4-.1-58.9-2.6-88.2-3.5-25.9-.8-51.9-1.8-77.8-1.8-3.5 0-6.9 0-10.4.1-29.4.3-58.8 3.4-88.2 3.7h-8.4c-26.6 0-53.2-1.4-79.8-1.7-29.4-.3-58.8-.2-88.2-.4-29.4-.1-58.8-.4-88.2-.4s-58.8 0-88.2-.1c-29.4-.1-58.8-1.9-88.2-2.4-22.6-.2-45.4-1.1-68-1.1"/><path fill="#67BAE8" stroke="#fff" stroke-width="1.5" stroke-miterlimit="10" d="M0 88.6v220.8c13.5 2.5 60.2 12.3 88.2 16.1 28.1 3.8 58.9 6.8 88.2 7.7 3.9.1 7.9.2 11.8.2 25.4 0 51-2.2 76.4-2.4 23.2-.2 46.5-1.9 69.6-1.9 6.2 0 12.4.1 18.6.4 29.2 1.4 61.9 16.9 88.2 22.5s58.9 14.2 88.2 15c5.9.2 11.7.2 17.6.2 23.5 0 47.1-1.1 70.6-1.1 29.4 0 58.9 0 88.2.8s59.5 9.9 88.2 12.6c23.6 2.2 48.1 4.5 72.3 4.5 5.3 0 10.6-.1 15.9-.3 29.3-1.3 58.8-11.9 88.2-12.1s58.8-.2 88.2-.2c23.5 0 47.1-1 70.6-1 5.9 0 11.8.1 17.6.2 29.3.8 58.9 23.9 88.2 25 6.5.2 13 .3 19.5.3 22.9 0 45.8-1.2 68.7-1.5 29.4-.4 58.8-6.9 88.2-7.2h2.3c29.4 0 71.7 4.7 85.9 5.6V190.9c-11.7-.2-42.2-2.2-68.9-2.2-6.8 0-13.4.1-19.4.4-29.2 1.5-58.9 10.2-88.2 11.1-3.2.1-6.4.1-9.6.1-26.3 0-53.1-3.2-78.6-5.7-28.7-2.8-59-10.2-88.2-11.6-3.8-.2-7.6-.3-11.4-.3-25.5 0-51.2 3.5-76.8 3.6h-.6c-13.2 0-26.4-.8-39.6-1.6-13.2-.8-26.4-1.6-39.6-1.6-2.8 0-5.6 0-8.4.1-29.4.8-58.8 7.5-88.2 7.9h-6.3c-27.4 0-55.4-2.5-81.9-5.3-28.6-3-59.2-10.8-88.2-13s-58.8-1.8-88.2-2.2-59.1-.1-88.2-1.7c-29.2-1.6-62.1-6.4-88.2-12.1-26.1-5.7-59.4-24-88.2-26.6-23.8-2.1-48.3-2.7-72.6-2.7-5.2 0-10.4 0-15.6.1-25.1.2-50.7 5.9-75.5 5.9-4.3 0-8.5-.2-12.7-.6-28.8-2.7-63-15.4-88.2-21.8C63 105.1 12.5 91.8 0 88.6"/><path fill="#00A1E4" stroke="#fff" stroke-width="1.5" stroke-miterlimit="10" d="M0 6.9v20.3c14.5 1.1 59.4 4.4 88.2 7 27.3 2.5 55.8 8.9 83.7 8.9 1.5 0 3 0 4.5-.1 29.4-.8 59.9-10.1 88.2-13.4 28.4-3.4 58.9-6.6 88.2-7.4 6.7-.2 13.4-.3 20.1-.3 22.7 0 45.4.9 68.1 1.3 29.4.5 58.8 2.3 88.2 2.4s58.8.1 88.2.1 58.8.3 88.2.4 58.8 0 88.2.4c26.6.3 53.2 1.7 79.8 1.7h8.4c29.4-.3 58.8-3.4 88.2-3.7 3.5 0 6.9-.1 10.4-.1 25.9 0 51.9 1 77.8 1.8 29.3.9 58.8 3.4 88.2 3.5h13.2c11 0 22 0 32.9-.1 11 0 22-.1 33-.1h9.1c29.4.1 58.9 1.7 88.2 2.5 25.8.7 51.8 2.6 77.7 2.6 3.5 0 7 0 10.5-.1 29.4-.6 73.7-5.2 88.2-6.2v-5.6c-14.5 1-58.8 6-88.2 6.3h-4.8c-27.8 0-55.8-2.9-83.4-4.1-29.3-1.4-58.8-3.5-88.2-4-3.5-.1-7.1-.1-10.6-.1-11.6 0-23.3.3-35 .6s-23.3.6-34.9.6h-7.7c-29.4-.4-58.9-2-88.2-3.1-29.3-1.1-58.8-3.5-88.2-3.7-29.4-.3-58.8-.2-88.2-.3s-58.8-1-88.2-1.3-58.8-.5-88.2-.7-58.8-.7-88.2-.7h-2.5c-13.4 0-26.8.1-40.2.2-13.4.1-26.8.2-40.2.2h-5.4c-29.4-.1-58.8-.5-88.2-1-29.4-.5-58.8-1.7-88.2-2.1-23.5-.4-47-.6-70.5-.6-5.9 0-11.8 0-17.8.1-27.6.2-55.3 1.8-82.9 1.8h-5.3c-29.4-.2-58.8-2.7-88.2-3.1-29.2-.8-73.3-.8-88-.8"/><path fill="#BAE1F6" stroke="#fff" stroke-width="1.5" stroke-miterlimit="10" d="M0 310.8V625h1500V394.1c-14.2-.9-56.5-5.6-85.9-5.6h-2.3c-29.4.3-58.8 6.8-88.2 7.2-22.9.3-45.8 1.5-68.7 1.5-6.5 0-13-.1-19.5-.3-29.3-1.1-58.9-24.1-88.2-25-5.9-.2-11.8-.2-17.6-.2-23.5 0-47.1 1-70.6 1-29.4 0-58.8 0-88.2.2s-59 10.8-88.2 12.1c-5.3.2-10.6.3-15.9.3-24.2 0-48.8-2.2-72.3-4.5-28.7-2.7-58.9-11.8-88.2-12.6-29.4-.8-58.8-.8-88.2-.8-23.5 0-47.1 1.1-70.6 1.1-5.9 0-11.8-.1-17.6-.2-29.4-.8-61.9-9.4-88.2-15-26.3-5.6-59-21-88.2-22.5-6.2-.3-12.4-.4-18.6-.4-23.1 0-46.4 1.7-69.6 1.9-25.5.2-51 2.4-76.4 2.4-3.9 0-7.9-.1-11.8-.2-29.3-.9-60.2-3.9-88.2-7.7-28.6-3.7-75.3-13.6-88.8-16"/><path fill="#3FAACD" stroke="#fff" stroke-width="1.5" stroke-miterlimit="10" d="M70.2 3.3H0v2.2c14.7.1 58.8 0 88.2.5s58.8 2.9 88.2 3.1h5.3c27.6 0 55.3-1.6 82.9-1.8 5.9 0 11.8-.1 17.8-.1 23.5 0 47 .3 70.5.6 29.4.4 58.8 1.6 88.2 2.1 29.4.5 58.8.9 88.2 1h5.4c13.4 0 26.8-.1 40.2-.2 13.4-.1 26.8-.2 40.2-.2h2.5c29.4 0 58.8.4 88.2.7 29.4.2 58.8.4 88.2.7s58.8 1.2 88.2 1.3 58.8 0 88.2.3 58.9 2.6 88.2 3.7 58.8 2.8 88.2 3.1h7.7c11.6 0 23.3-.3 34.9-.6 11.7-.3 23.3-.6 35-.6 3.5 0 7.1 0 10.6.1 29.4.5 59 2.7 88.2 4 27.7 1.3 55.6 4.1 83.4 4.1h4.8c29.4-.4 73.7-5.3 88.2-6.3V6.6c-14.6.8-58.8 4.4-88.2 4.8-2.5 0-5 .1-7.6.1-26.9 0-53.8-1.8-80.7-2.4-29.4-.6-58.8-1.4-88.2-1.4h-.2c-14.3 0-28.6.3-42.9.7-14.3.3-28.6.7-42.9.7h-2.2c-29.4-.1-58.8-1.7-88.2-1.8H970.3c-27.6 0-55.3.4-82.9.4h-5.3c-29.4-.1-58.8-.5-88.2-.8s-58.8-.5-88.2-.7-58.8-.4-88.2-.4h-88.3c-23.8 0-47.6.5-71.4.5-5.6 0-11.2 0-16.9-.1-29.4-.3-58.8-2-88.2-2.3-29.4-.3-58.8-.3-88.2-.3-29.4-.1-58.8 0-88.2-.1s-58.8-.2-88.2-.2H70.2"/><path fill="#7DA790" stroke="#fff" stroke-width="1.5" stroke-miterlimit="10" d="M1500 0H0v1.9h88.2c29.4 0 58.8.2 88.2.2s58.8 0 88.2.1 58.8 0 88.2.3c29.4.3 58.8 2 88.2 2.3 5.6.1 11.2.1 16.9.1 23.8 0 47.6-.4 71.4-.5H617.6c29.4 0 58.8.2 88.2.4 29.4.2 58.8.5 88.2.7s58.8.7 88.2.8h5.3c27.6 0 55.3-.4 82.9-.4H1058.6c29.4 0 58.8 1.7 88.2 1.8h2.2c14.3 0 28.6-.3 42.9-.7 14.3-.3 28.6-.7 42.9-.7h.2c29.4 0 58.8.8 88.2 1.4 26.9.6 53.8 2.4 80.7 2.4 2.5 0 5 0 7.6-.1 29.4-.4 73.6-4 88.2-4.8V0"/><path fill="#EDC99E" stroke="#fff" stroke-width="1.5" stroke-miterlimit="10" d="M0 67.2v20.1c12.5 3.2 63 16.5 88.2 22.9s59.5 19.1 88.2 21.8c4.2.4 8.5.6 12.7.6 24.8 0 50.4-5.7 75.5-5.9 5.2 0 10.4-.1 15.6-.1 24.4 0 48.9.6 72.7 2.7 28.8 2.5 62.1 20.8 88.2 26.6 26.1 5.7 59.1 10.5 88.2 12.1 29.2 1.6 58.8 1.3 88.2 1.7s59.2.1 88.2 2.2 59.6 10.1 88.2 13c26.6 2.8 54.5 5.3 81.9 5.3h6.3c29.4-.4 58.9-7.1 88.2-7.9 2.8-.1 5.6-.1 8.4-.1 13.2 0 26.4.8 39.6 1.6s26.4 1.6 39.6 1.6h.6c25.6 0 51.3-3.6 76.8-3.6 3.8 0 7.6.1 11.4.3 29.2 1.4 59.5 8.8 88.2 11.6 25.6 2.5 52.4 5.7 78.6 5.7 3.2 0 6.4 0 9.6-.1 29.3-.9 59-9.6 88.2-11.1 6-.3 12.5-.4 19.4-.4 26.7 0 57.2 1.9 68.9 2.2v-60.9c-11.9 0-43-.1-70-.1h-18.2c-27.7.1-55.4 3.3-83.1 3.3h-5.2c-29.4-.5-59.5-3.4-88.2-6.1-28.8-2.7-59.4-7.8-88.2-10.3-28.8-2.6-59-3.9-88.2-5.4s-58.8-3.8-88.2-3.8h-.5c-29.3 0-58.5 3.3-87.8 3.6-3.7 0-7.5.1-11.2.1-25.7 0-51.4-.9-77-1.8-29.3-1-58.8-3.9-88.2-4.4-22.4-.4-44.9-1.1-67.4-1.1-7 0-13.9.1-20.9.2-29.4.7-58.8 7.5-88.2 7.9-2.5 0-5 .1-7.6.1-27 0-54.7-2.2-80.7-5.2-28.4-3.3-59-13.8-88.2-15.3-3.5-.2-6.9-.3-10.4-.3-25.9 0-52.2 4.5-77.9 6.3-25.2 1.8-51.3 6.7-76.8 6.7-3.8 0-7.6-.1-11.4-.4-29.1-1.9-61.7-12.7-88.2-18C61.7 79.4 13.3 69.8 0 67.2"/></svg>