<?xml version="1.0" encoding="utf-8"?>
<!-- Generator: Adobe Illustrator 18.1.0, SVG Export Plug-In . SVG Version: 6.00 Build 0)  -->
<svg version="1.1" id="Layer_1" xmlns="http://www.w3.org/2000/svg" xmlns:xlink="http://www.w3.org/1999/xlink" x="0px" y="0px"
	 viewBox="0 0 1500 625" enable-background="new 0 0 1500 625" xml:space="preserve">
<rect fill="#FAFAFA" width="1500" height="625"/>
<line fill="none" stroke="#CCCCCC" stroke-width="1.5" x1="342.5" y1="625" x2="342.5" y2="0"/>
<line fill="none" stroke="#CCCCCC" stroke-width="1.5" x1="433" y1="625" x2="433" y2="0"/>
<line fill="none" stroke="#CCCCCC" stroke-width="1.5" x1="523.6" y1="625" x2="523.6" y2="0"/>
<line fill="none" stroke="#CCCCCC" stroke-width="1.5" x1="614.2" y1="625" x2="614.2" y2="0"/>
<line fill="none" stroke="#CCCCCC" stroke-width="1.5" x1="704.7" y1="625" x2="704.7" y2="0"/>
<line fill="none" stroke="#CCCCCC" stroke-width="1.5" x1="70.8" y1="625" x2="70.8" y2="0"/>
<line fill="none" stroke="#CCCCCC" stroke-width="1.5" x1="161.4" y1="625" x2="161.4" y2="0"/>
<line fill="none" stroke="#CCCCCC" stroke-width="1.5" x1="251.9" y1="625" x2="251.9" y2="0"/>
<line fill="none" stroke="#CCCCCC" stroke-width="1.5" x1="1248.1" y1="625" x2="1248.1" y2="0"/>
<line fill="none" stroke="#CCCCCC" stroke-width="1.5" x1="1429.2" y1="625" x2="1429.2" y2="0"/>
<line fill="none" stroke="#CCCCCC" stroke-width="1.5" x1="795.3" y1="625" x2="795.3" y2="0"/>
<line fill="none" stroke="#CCCCCC" stroke-width="1.5" x1="885.8" y1="625" x2="885.8" y2="0"/>
<line fill="none" stroke="#CCCCCC" stroke-width="1.5" x1="976.4" y1="625" x2="976.4" y2="0"/>
<line fill="none" stroke="#CCCCCC" stroke-width="1.5" x1="1067" y1="625" x2="1067" y2="0"/>
<line fill="none" stroke="#CCCCCC" stroke-width="1.5" x1="1157.5" y1="625" x2="1157.5" y2="0"/>
<line fill="none" stroke="#CCCCCC" stroke-width="1.5" x1="1248.1" y1="625" x2="1248.1" y2="0"/>
<line fill="none" stroke="#CCCCCC" stroke-width="1.5" x1="1338.6" y1="625" x2="1338.6" y2="0"/>
<line fill="none" stroke="#CCCCCC" stroke-width="2.25" stroke-dasharray="7.5,7.5" x1="0" y1="286.1" x2="1500" y2="286.1"/>
<line fill="none" stroke="#CCCCCC" stroke-width="1.5" x1="0" y1="567" x2="1500" y2="567"/>
<line fill="none" stroke="#CCCCCC" stroke-width="1.5" x1="0" y1="482.2" x2="1500" y2="482.2"/>
<line fill="none" stroke="#CCCCCC" stroke-width="1.5" x1="0" y1="397.3" x2="1500" y2="397.3"/>
<line fill="none" stroke="#CCCCCC" stroke-width="1.5" x1="0" y1="312.5" x2="1500" y2="312.5"/>
<line fill="none" stroke="#CCCCCC" stroke-width="1.5" x1="0" y1="227.7" x2="1500" y2="227.7"/>
<line fill="none" stroke="#CCCCCC" stroke-width="1.5" x1="0" y1="142.8" x2="1500" y2="142.8"/>
<line fill="none" stroke="#CCCCCC" stroke-width="1.5" x1="0" y1="58" x2="1500" y2="58"/>
<path fill="#EBF7FA" d="M993.8,205.1c0,23.9-19.4,43.4-43.4,43.4c-24,0-43.4-19.4-43.4-43.4c0-24,19.4-43.4,43.4-43.4
	C974.4,161.8,993.8,181.2,993.8,205.1"/>
<path fill="none" stroke="#9EDAE5" stroke-width="0.75" d="M993.8,205.1c0,23.9-19.4,43.4-43.4,43.4c-24,0-43.4-19.4-43.4-43.4
	c0-24,19.4-43.4,43.4-43.4C974.4,161.8,993.8,181.2,993.8,205.1"/>
<path fill="#FBEAF6" d="M971.6,201.8c0,19.7-15.9,35.6-35.6,35.6c-19.7,0-35.6-15.9-35.6-35.6c0-19.7,16-35.6,35.6-35.6
	C955.6,166.2,971.6,182.1,971.6,201.8"/>
<path fill="none" stroke="#E377C2" stroke-width="0.75" d="M971.6,201.8c0,19.7-15.9,35.6-35.6,35.6c-19.7,0-35.6-15.9-35.6-35.6
	c0-19.7,16-35.6,35.6-35.6C955.6,166.2,971.6,182.1,971.6,201.8"/>
<path fill="#FFE5E5" d="M830.2,417.8c0,19.1-15.5,34.6-34.6,34.6c-19.1,0-34.6-15.5-34.6-34.6c0-19.1,15.5-34.6,34.6-34.6
	C814.8,383.2,830.2,398.7,830.2,417.8"/>
<path fill="none" stroke="#330000" stroke-width="0.75" d="M830.2,417.8c0,19.1-15.5,34.6-34.6,34.6c-19.1,0-34.6-15.5-34.6-34.6
	c0-19.1,15.5-34.6,34.6-34.6C814.8,383.2,830.2,398.7,830.2,417.8"/>
<path fill="#EBF7FA" d="M1021,151.4c0,19-15.4,34.4-34.4,34.4c-19,0-34.4-15.4-34.4-34.4c0-19,15.4-34.4,34.4-34.4
	C1005.6,117,1021,132.4,1021,151.4"/>
<path fill="none" stroke="#9EDAE5" stroke-width="0.75" d="M1021,151.4c0,19-15.4,34.4-34.4,34.4c-19,0-34.4-15.4-34.4-34.4
	c0-19,15.4-34.4,34.4-34.4C1005.6,117,1021,132.4,1021,151.4"/>
<path fill="#E8FBFC" d="M1071.2,196.9c0,16.8-13.6,30.3-30.3,30.3c-16.8,0-30.3-13.6-30.3-30.3c0-16.8,13.6-30.3,30.3-30.3
	C1057.7,166.6,1071.2,180.2,1071.2,196.9"/>
<path fill="none" stroke="#17BECF" stroke-width="0.75" d="M1071.2,196.9c0,16.8-13.6,30.3-30.3,30.3c-16.8,0-30.3-13.6-30.3-30.3
	c0-16.8,13.6-30.3,30.3-30.3C1057.7,166.6,1071.2,180.2,1071.2,196.9"/>
<path fill="#E8FBFC" d="M1105.3,229.1c0,16.6-13.5,30.1-30.1,30.1c-16.6,0-30.1-13.5-30.1-30.1c0-16.6,13.5-30.1,30.1-30.1
	C1091.8,199,1105.3,212.5,1105.3,229.1"/>
<path fill="none" stroke="#17BECF" stroke-width="0.75" d="M1105.3,229.1c0,16.6-13.5,30.1-30.1,30.1c-16.6,0-30.1-13.5-30.1-30.1
	c0-16.6,13.5-30.1,30.1-30.1C1091.8,199,1105.3,212.5,1105.3,229.1"/>
<path fill="#EBF7FA" d="M1080.3,203.3c0,14.7-11.9,26.5-26.5,26.5c-14.7,0-26.5-11.9-26.5-26.5c0-14.7,11.9-26.5,26.5-26.5
	C1068.4,176.8,1080.3,188.6,1080.3,203.3"/>
<path fill="none" stroke="#9EDAE5" stroke-width="0.75" d="M1080.3,203.3c0,14.7-11.9,26.5-26.5,26.5c-14.7,0-26.5-11.9-26.5-26.5
	c0-14.7,11.9-26.5,26.5-26.5C1068.4,176.8,1080.3,188.6,1080.3,203.3"/>
<path fill="#E8FBFC" d="M1151.8,91.6c0,14.4-11.7,26-26,26c-14.4,0-26-11.7-26-26c0-14.4,11.7-26,26-26
	C1140.1,65.5,1151.8,77.2,1151.8,91.6"/>
<path fill="none" stroke="#17BECF" stroke-width="0.75" d="M1151.8,91.6c0,14.4-11.7,26-26,26c-14.4,0-26-11.7-26-26
	c0-14.4,11.7-26,26-26C1140.1,65.5,1151.8,77.2,1151.8,91.6"/>
<path fill="#EBF7FA" d="M964.4,220.5c0,14.1-11.4,25.5-25.5,25.5c-14.1,0-25.5-11.4-25.5-25.5c0-14.1,11.4-25.5,25.5-25.5
	C953,195,964.4,206.4,964.4,220.5"/>
<path fill="none" stroke="#9EDAE5" stroke-width="0.75" d="M964.4,220.5c0,14.1-11.4,25.5-25.5,25.5c-14.1,0-25.5-11.4-25.5-25.5
	c0-14.1,11.4-25.5,25.5-25.5C953,195,964.4,206.4,964.4,220.5"/>
<path fill="#E8FBFC" d="M834.7,322.8c0,13.5-11,24.5-24.5,24.5c-13.5,0-24.5-11-24.5-24.5s11-24.5,24.5-24.5
	C823.8,298.3,834.7,309.3,834.7,322.8"/>
<path fill="none" stroke="#17BECF" stroke-width="0.75" d="M834.7,322.8c0,13.5-11,24.5-24.5,24.5c-13.5,0-24.5-11-24.5-24.5
	s11-24.5,24.5-24.5C823.8,298.3,834.7,309.3,834.7,322.8"/>
<path fill="#E8FBFC" d="M1055.8,217.9c0,13.4-10.9,24.3-24.3,24.3s-24.3-10.9-24.3-24.3c0-13.4,10.9-24.3,24.3-24.3
	S1055.8,204.5,1055.8,217.9"/>
<path fill="none" stroke="#17BECF" stroke-width="0.75" d="M1055.8,217.9c0,13.4-10.9,24.3-24.3,24.3s-24.3-10.9-24.3-24.3
	c0-13.4,10.9-24.3,24.3-24.3S1055.8,204.5,1055.8,217.9"/>
<path fill="#F2F2F2" d="M1050.3,191.2c0,13.3-10.8,24.1-24.1,24.1c-13.3,0-24.1-10.8-24.1-24.1c0-13.3,10.8-24.1,24.1-24.1
	C1039.6,167.1,1050.3,177.9,1050.3,191.2"/>
<path fill="none" stroke="#7F7F7F" stroke-width="0.75" d="M1050.3,191.2c0,13.3-10.8,24.1-24.1,24.1c-13.3,0-24.1-10.8-24.1-24.1
	c0-13.3,10.8-24.1,24.1-24.1C1039.6,167.1,1050.3,177.9,1050.3,191.2"/>
<path fill="#E8FBFC" d="M947.8,218.7c0,13.2-10.7,23.9-23.9,23.9c-13.2,0-23.8-10.7-23.8-23.9c0-13.2,10.7-23.8,23.8-23.8
	C937.2,194.8,947.8,205.5,947.8,218.7"/>
<path fill="none" stroke="#17BECF" stroke-width="0.75" d="M947.8,218.7c0,13.2-10.7,23.9-23.9,23.9c-13.2,0-23.8-10.7-23.8-23.9
	c0-13.2,10.7-23.8,23.8-23.8C937.2,194.8,947.8,205.5,947.8,218.7"/>
<path fill="#E8FBFC" d="M982.1,216.7c0,13.1-10.7,23.8-23.8,23.8c-13.1,0-23.8-10.7-23.8-23.8c0-13.1,10.7-23.8,23.8-23.8
	C971.5,192.9,982.1,203.6,982.1,216.7"/>
<path fill="none" stroke="#17BECF" stroke-width="0.75" d="M982.1,216.7c0,13.1-10.7,23.8-23.8,23.8c-13.1,0-23.8-10.7-23.8-23.8
	c0-13.1,10.7-23.8,23.8-23.8C971.5,192.9,982.1,203.6,982.1,216.7"/>
<path fill="#FBEAF6" d="M1082.1,154.6c0,13-10.5,23.5-23.5,23.5c-13,0-23.5-10.5-23.5-23.5c0-13,10.5-23.5,23.5-23.5
	C1071.6,131.1,1082.1,141.6,1082.1,154.6"/>
<path fill="none" stroke="#E377C2" stroke-width="0.75" d="M1082.1,154.6c0,13-10.5,23.5-23.5,23.5c-13,0-23.5-10.5-23.5-23.5
	c0-13,10.5-23.5,23.5-23.5C1071.6,131.1,1082.1,141.6,1082.1,154.6"/>
<path fill="#E8FBFC" d="M1033.9,137.6c0,12.7-10.3,22.9-22.9,22.9c-12.7,0-22.9-10.3-22.9-22.9c0-12.7,10.3-22.9,22.9-22.9
	C1023.6,114.7,1033.9,125,1033.9,137.6"/>
<path fill="none" stroke="#17BECF" stroke-width="0.75" d="M1033.9,137.6c0,12.7-10.3,22.9-22.9,22.9c-12.7,0-22.9-10.3-22.9-22.9
	c0-12.7,10.3-22.9,22.9-22.9C1023.6,114.7,1033.9,125,1033.9,137.6"/>
<path fill="#FCE8F1" d="M952.9,222.4c0,12.6-10.2,22.9-22.9,22.9c-12.6,0-22.9-10.2-22.9-22.9c0-12.6,10.2-22.9,22.9-22.9
	C942.7,199.5,952.9,209.8,952.9,222.4"/>
<path fill="none" stroke="#F7B6D2" stroke-width="0.75" d="M952.9,222.4c0,12.6-10.2,22.9-22.9,22.9c-12.6,0-22.9-10.2-22.9-22.9
	c0-12.6,10.2-22.9,22.9-22.9C942.7,199.5,952.9,209.8,952.9,222.4"/>
<path fill="#F2F2F2" d="M941.7,256.3c0,12.6-10.2,22.8-22.8,22.8s-22.8-10.2-22.8-22.8c0-12.6,10.2-22.8,22.8-22.8
	S941.7,243.7,941.7,256.3"/>
<path fill="none" stroke="#7F7F7F" stroke-width="0.75" d="M941.7,256.3c0,12.6-10.2,22.8-22.8,22.8s-22.8-10.2-22.8-22.8
	c0-12.6,10.2-22.8,22.8-22.8S941.7,243.7,941.7,256.3"/>
<path fill="#FCE8F1" d="M952.7,248.4c0,12.6-10.2,22.7-22.7,22.7c-12.6,0-22.7-10.2-22.7-22.7s10.2-22.7,22.7-22.7
	C942.6,225.7,952.7,235.9,952.7,248.4"/>
<path fill="none" stroke="#F7B6D2" stroke-width="0.75" d="M952.7,248.4c0,12.6-10.2,22.7-22.7,22.7c-12.6,0-22.7-10.2-22.7-22.7
	s10.2-22.7,22.7-22.7C942.6,225.7,952.7,235.9,952.7,248.4"/>
<path fill="#FBEAF6" d="M1117.5,160.1c0,12.5-10.1,22.6-22.5,22.6c-12.5,0-22.6-10.1-22.6-22.6c0-12.5,10.1-22.6,22.6-22.6
	C1107.4,137.6,1117.5,147.7,1117.5,160.1"/>
<path fill="none" stroke="#E377C2" stroke-width="0.75" d="M1117.5,160.1c0,12.5-10.1,22.6-22.5,22.6c-12.5,0-22.6-10.1-22.6-22.6
	c0-12.5,10.1-22.6,22.6-22.6C1107.4,137.6,1117.5,147.7,1117.5,160.1"/>
<path fill="#EBF7FA" d="M1081.2,221.8c0,12.4-10.1,22.5-22.5,22.5c-12.4,0-22.5-10.1-22.5-22.5c0-12.4,10.1-22.5,22.5-22.5
	C1071.1,199.3,1081.2,209.3,1081.2,221.8"/>
<path fill="none" stroke="#9EDAE5" stroke-width="0.75" d="M1081.2,221.8c0,12.4-10.1,22.5-22.5,22.5c-12.4,0-22.5-10.1-22.5-22.5
	c0-12.4,10.1-22.5,22.5-22.5C1071.1,199.3,1081.2,209.3,1081.2,221.8"/>
<path fill="#E8FBFC" d="M1045.3,157.2c0,12.3-10,22.3-22.3,22.3c-12.3,0-22.3-10-22.3-22.3c0-12.3,10-22.3,22.3-22.3
	C1035.3,134.8,1045.3,144.8,1045.3,157.2"/>
<path fill="none" stroke="#17BECF" stroke-width="0.75" d="M1045.3,157.2c0,12.3-10,22.3-22.3,22.3c-12.3,0-22.3-10-22.3-22.3
	c0-12.3,10-22.3,22.3-22.3C1035.3,134.8,1045.3,144.8,1045.3,157.2"/>
<path fill="#E8FBFC" d="M976,181.1c0,12.2-9.9,22.1-22.1,22.1c-12.2,0-22.1-9.9-22.1-22.1c0-12.2,9.9-22.1,22.1-22.1
	C966.1,159,976,168.9,976,181.1"/>
<path fill="none" stroke="#17BECF" stroke-width="0.75" d="M976,181.1c0,12.2-9.9,22.1-22.1,22.1c-12.2,0-22.1-9.9-22.1-22.1
	c0-12.2,9.9-22.1,22.1-22.1C966.1,159,976,168.9,976,181.1"/>
<path fill="#F2F2F2" d="M938.6,279.4c0,12.1-9.8,21.9-21.9,21.9s-21.9-9.8-21.9-21.9c0-12.1,9.8-21.9,21.9-21.9
	S938.6,267.3,938.6,279.4"/>
<path fill="none" stroke="#7F7F7F" stroke-width="0.75" d="M938.6,279.4c0,12.1-9.8,21.9-21.9,21.9s-21.9-9.8-21.9-21.9
	c0-12.1,9.8-21.9,21.9-21.9S938.6,267.3,938.6,279.4"/>
<path fill="#E8FBFC" d="M971.5,230.2c0,12.1-9.8,21.8-21.8,21.8c-12.1,0-21.8-9.8-21.8-21.8c0-12.1,9.8-21.8,21.8-21.8
	C961.7,208.4,971.5,218.1,971.5,230.2"/>
<path fill="none" stroke="#17BECF" stroke-width="0.75" d="M971.5,230.2c0,12.1-9.8,21.8-21.8,21.8c-12.1,0-21.8-9.8-21.8-21.8
	c0-12.1,9.8-21.8,21.8-21.8C961.7,208.4,971.5,218.1,971.5,230.2"/>
<path fill="#FCE8F1" d="M974.4,217c0,12-9.7,21.8-21.8,21.8c-12,0-21.8-9.8-21.8-21.8c0-12,9.8-21.8,21.8-21.8
	C964.6,195.2,974.4,205,974.4,217"/>
<path fill="none" stroke="#F7B6D2" stroke-width="0.75" d="M974.4,217c0,12-9.7,21.8-21.8,21.8c-12,0-21.8-9.8-21.8-21.8
	c0-12,9.8-21.8,21.8-21.8C964.6,195.2,974.4,205,974.4,217"/>
<path fill="#E8FBFC" d="M1069.2,138.5c0,12-9.7,21.7-21.7,21.7c-12,0-21.7-9.7-21.7-21.7c0-12,9.7-21.7,21.7-21.7
	C1059.5,116.7,1069.2,126.5,1069.2,138.5"/>
<path fill="none" stroke="#17BECF" stroke-width="0.75" d="M1069.2,138.5c0,12-9.7,21.7-21.7,21.7c-12,0-21.7-9.7-21.7-21.7
	c0-12,9.7-21.7,21.7-21.7C1059.5,116.7,1069.2,126.5,1069.2,138.5"/>
<path fill="#FCE8F1" d="M907.3,242.9c0,11.8-9.5,21.3-21.3,21.3c-11.8,0-21.3-9.5-21.3-21.3c0-11.8,9.5-21.3,21.3-21.3
	C897.7,221.6,907.3,231.1,907.3,242.9"/>
<path fill="none" stroke="#F7B6D2" stroke-width="0.75" d="M907.3,242.9c0,11.8-9.5,21.3-21.3,21.3c-11.8,0-21.3-9.5-21.3-21.3
	c0-11.8,9.5-21.3,21.3-21.3C897.7,221.6,907.3,231.1,907.3,242.9"/>
<path fill="#EDFCE9" d="M941.2,383.8c0,11.8-9.5,21.3-21.3,21.3c-11.8,0-21.3-9.5-21.3-21.3c0-11.8,9.5-21.3,21.3-21.3
	C931.7,362.5,941.2,372,941.2,383.8"/>
<path fill="none" stroke="#3AB11A" stroke-width="0.75" d="M941.2,383.8c0,11.8-9.5,21.3-21.3,21.3c-11.8,0-21.3-9.5-21.3-21.3
	c0-11.8,9.5-21.3,21.3-21.3C931.7,362.5,941.2,372,941.2,383.8"/>
<path fill="#EBFAEB" d="M821.5,418.3c0,11.8-9.5,21.3-21.3,21.3c-11.8,0-21.3-9.5-21.3-21.3c0-11.8,9.5-21.3,21.3-21.3
	C811.9,397,821.5,406.6,821.5,418.3"/>
<path fill="none" stroke="#2CA02C" stroke-width="0.75" d="M821.5,418.3c0,11.8-9.5,21.3-21.3,21.3c-11.8,0-21.3-9.5-21.3-21.3
	c0-11.8,9.5-21.3,21.3-21.3C811.9,397,821.5,406.6,821.5,418.3"/>
<path fill="#FCE8F1" d="M1003.3,234.8c0,11.7-9.5,21.2-21.2,21.2c-11.7,0-21.2-9.5-21.2-21.2c0-11.7,9.5-21.2,21.2-21.2
	C993.8,213.5,1003.3,223,1003.3,234.8"/>
<path fill="none" stroke="#F7B6D2" stroke-width="0.75" d="M1003.3,234.8c0,11.7-9.5,21.2-21.2,21.2c-11.7,0-21.2-9.5-21.2-21.2
	c0-11.7,9.5-21.2,21.2-21.2C993.8,213.5,1003.3,223,1003.3,234.8"/>
<path fill="#EBFAEB" d="M807.3,444.9c0,11.6-9.4,21-21,21c-11.6,0-21-9.4-21-21c0-11.6,9.4-21,21-21
	C797.9,423.9,807.3,433.3,807.3,444.9"/>
<path fill="none" stroke="#2CA02C" stroke-width="0.75" d="M807.3,444.9c0,11.6-9.4,21-21,21c-11.6,0-21-9.4-21-21
	c0-11.6,9.4-21,21-21C797.9,423.9,807.3,433.3,807.3,444.9"/>
<path fill="#FFE5E5" d="M867.4,456.5c0,11.6-9.4,21-21,21c-11.6,0-21-9.4-21-21c0-11.6,9.4-21,21-21
	C858,435.5,867.4,444.9,867.4,456.5"/>
<path fill="none" stroke="#330000" stroke-width="0.75" d="M867.4,456.5c0,11.6-9.4,21-21,21c-11.6,0-21-9.4-21-21
	c0-11.6,9.4-21,21-21C858,435.5,867.4,444.9,867.4,456.5"/>
<path fill="#FEEDE7" d="M946,263c0,11.6-9.4,21-21,21c-11.6,0-21-9.4-21-21c0-11.6,9.4-21,21-21C936.6,242,946,251.4,946,263"/>
<path fill="none" stroke="#5E1F05" stroke-width="0.75" d="M946,263c0,11.6-9.4,21-21,21c-11.6,0-21-9.4-21-21c0-11.6,9.4-21,21-21
	C936.6,242,946,251.4,946,263"/>
<path fill="#E8FBFC" d="M1012.7,180.1c0,11.6-9.4,21-21,21c-11.6,0-21-9.4-21-21c0-11.6,9.4-21,21-21
	C1003.3,159.1,1012.7,168.5,1012.7,180.1"/>
<path fill="none" stroke="#17BECF" stroke-width="0.75" d="M1012.7,180.1c0,11.6-9.4,21-21,21c-11.6,0-21-9.4-21-21
	c0-11.6,9.4-21,21-21C1003.3,159.1,1012.7,168.5,1012.7,180.1"/>
<path fill="#FEEDE7" d="M861.1,310.9c0,11.6-9.4,21-21,21c-11.6,0-21-9.4-21-21c0-11.6,9.4-21,21-21
	C851.7,289.9,861.1,299.3,861.1,310.9"/>
<path fill="none" stroke="#5E1F05" stroke-width="0.75" d="M861.1,310.9c0,11.6-9.4,21-21,21c-11.6,0-21-9.4-21-21
	c0-11.6,9.4-21,21-21C851.7,289.9,861.1,299.3,861.1,310.9"/>
<path fill="#FBEAF6" d="M1043.1,252.5c0,11.5-9.3,20.7-20.8,20.7c-11.5,0-20.7-9.3-20.7-20.7c0-11.5,9.3-20.8,20.7-20.8
	C1033.9,231.7,1043.1,241,1043.1,252.5"/>
<path fill="none" stroke="#E377C2" stroke-width="0.75" d="M1043.1,252.5c0,11.5-9.3,20.7-20.8,20.7c-11.5,0-20.7-9.3-20.7-20.7
	c0-11.5,9.3-20.8,20.7-20.8C1033.9,231.7,1043.1,241,1043.1,252.5"/>
<path fill="#F2F2F2" d="M1086.9,188.2c0,11.3-9.2,20.5-20.5,20.5c-11.3,0-20.5-9.2-20.5-20.5c0-11.3,9.2-20.5,20.5-20.5
	C1077.7,167.7,1086.9,176.9,1086.9,188.2"/>
<path fill="none" stroke="#7F7F7F" stroke-width="0.75" d="M1086.9,188.2c0,11.3-9.2,20.5-20.5,20.5c-11.3,0-20.5-9.2-20.5-20.5
	c0-11.3,9.2-20.5,20.5-20.5C1077.7,167.7,1086.9,176.9,1086.9,188.2"/>
<path fill="#FBEAF6" d="M1020.4,198c0,11.3-9.1,20.4-20.4,20.4c-11.3,0-20.4-9.1-20.4-20.4c0-11.3,9.1-20.4,20.4-20.4
	C1011.2,177.6,1020.4,186.8,1020.4,198"/>
<path fill="none" stroke="#E377C2" stroke-width="0.75" d="M1020.4,198c0,11.3-9.1,20.4-20.4,20.4c-11.3,0-20.4-9.1-20.4-20.4
	c0-11.3,9.1-20.4,20.4-20.4C1011.2,177.6,1020.4,186.8,1020.4,198"/>
<path fill="#E8FBFC" d="M1043.7,149.5c0,11.1-9,20.2-20.2,20.2c-11.2,0-20.2-9-20.2-20.2c0-11.1,9-20.2,20.2-20.2
	C1034.7,129.4,1043.7,138.4,1043.7,149.5"/>
<path fill="none" stroke="#17BECF" stroke-width="0.75" d="M1043.7,149.5c0,11.1-9,20.2-20.2,20.2c-11.2,0-20.2-9-20.2-20.2
	c0-11.1,9-20.2,20.2-20.2C1034.7,129.4,1043.7,138.4,1043.7,149.5"/>
<path fill="#FEEDE7" d="M963.2,211.1c0,11.1-9,20.1-20.1,20.1c-11.1,0-20.1-9-20.1-20.1c0-11.1,9-20.1,20.1-20.1
	C954.2,191,963.2,200,963.2,211.1"/>
<path fill="none" stroke="#5E1F05" stroke-width="0.75" d="M963.2,211.1c0,11.1-9,20.1-20.1,20.1c-11.1,0-20.1-9-20.1-20.1
	c0-11.1,9-20.1,20.1-20.1C954.2,191,963.2,200,963.2,211.1"/>
<path fill="#FEEDE7" d="M869.8,242.1c0,11-8.9,19.9-19.9,19.9c-11,0-19.9-8.9-19.9-19.9c0-11,8.9-19.9,19.9-19.9
	C860.8,222.1,869.8,231.1,869.8,242.1"/>
<path fill="none" stroke="#5E1F05" stroke-width="0.75" d="M869.8,242.1c0,11-8.9,19.9-19.9,19.9c-11,0-19.9-8.9-19.9-19.9
	c0-11,8.9-19.9,19.9-19.9C860.8,222.1,869.8,231.1,869.8,242.1"/>
<path fill="#EDFAEB" d="M1070,314.4c0,11-8.9,19.9-19.9,19.9c-11,0-19.9-8.9-19.9-19.9c0-11,8.9-19.9,19.9-19.9
	C1061.1,294.5,1070,303.4,1070,314.4"/>
<path fill="none" stroke="#98DF8A" stroke-width="0.75" d="M1070,314.4c0,11-8.9,19.9-19.9,19.9c-11,0-19.9-8.9-19.9-19.9
	c0-11,8.9-19.9,19.9-19.9C1061.1,294.5,1070,303.4,1070,314.4"/>
<path fill="#E8FBFC" d="M957.7,227.3c0,11-8.9,19.9-19.9,19.9c-11,0-19.9-8.9-19.9-19.9c0-11,8.9-19.9,19.9-19.9
	C948.8,207.4,957.7,216.3,957.7,227.3"/>
<path fill="none" stroke="#17BECF" stroke-width="0.75" d="M957.7,227.3c0,11-8.9,19.9-19.9,19.9c-11,0-19.9-8.9-19.9-19.9
	c0-11,8.9-19.9,19.9-19.9C948.8,207.4,957.7,216.3,957.7,227.3"/>
<path fill="#E8FBFC" d="M1007.7,208.4c0,10.9-8.8,19.8-19.8,19.8c-10.9,0-19.8-8.8-19.8-19.8c0-10.9,8.9-19.7,19.8-19.7
	C998.8,188.7,1007.7,197.5,1007.7,208.4"/>
<path fill="none" stroke="#17BECF" stroke-width="0.75" d="M1007.7,208.4c0,10.9-8.8,19.8-19.8,19.8c-10.9,0-19.8-8.8-19.8-19.8
	c0-10.9,8.9-19.7,19.8-19.7C998.8,188.7,1007.7,197.5,1007.7,208.4"/>
<path fill="#EBFAEB" d="M775.5,435.3c0,10.8-8.8,19.6-19.6,19.6c-10.8,0-19.6-8.8-19.6-19.6c0-10.8,8.8-19.6,19.6-19.6
	C766.7,415.7,775.5,424.5,775.5,435.3"/>
<path fill="none" stroke="#2CA02C" stroke-width="0.75" d="M775.5,435.3c0,10.8-8.8,19.6-19.6,19.6c-10.8,0-19.6-8.8-19.6-19.6
	c0-10.8,8.8-19.6,19.6-19.6C766.7,415.7,775.5,424.5,775.5,435.3"/>
<path fill="#FFE5E5" d="M1038.3,185.9c0,10.8-8.7,19.5-19.5,19.5c-10.8,0-19.5-8.7-19.5-19.5c0-10.8,8.7-19.5,19.5-19.5
	C1029.5,166.3,1038.3,175.1,1038.3,185.9"/>
<path fill="none" stroke="#FF0000" stroke-width="0.75" d="M1038.3,185.9c0,10.8-8.7,19.5-19.5,19.5c-10.8,0-19.5-8.7-19.5-19.5
	c0-10.8,8.7-19.5,19.5-19.5C1029.5,166.3,1038.3,175.1,1038.3,185.9"/>
<path fill="#FFF8E5" d="M843.9,453.4c0,10.6-8.6,19.2-19.2,19.2c-10.6,0-19.2-8.6-19.2-19.2c0-10.6,8.6-19.2,19.2-19.2
	C835.3,434.2,843.9,442.8,843.9,453.4"/>
<path fill="none" stroke="#FFC41C" stroke-width="0.75" d="M843.9,453.4c0,10.6-8.6,19.2-19.2,19.2c-10.6,0-19.2-8.6-19.2-19.2
	c0-10.6,8.6-19.2,19.2-19.2C835.3,434.2,843.9,442.8,843.9,453.4"/>
<path fill="#FEEDE7" d="M970.4,215.2c0,10.6-8.6,19.2-19.2,19.2s-19.2-8.6-19.2-19.2c0-10.6,8.6-19.2,19.2-19.2
	S970.4,204.6,970.4,215.2"/>
<path fill="none" stroke="#5E1F05" stroke-width="0.75" d="M970.4,215.2c0,10.6-8.6,19.2-19.2,19.2s-19.2-8.6-19.2-19.2
	c0-10.6,8.6-19.2,19.2-19.2S970.4,204.6,970.4,215.2"/>
<path fill="#E8FBFC" d="M982.5,264.5c0,10.6-8.6,19.2-19.2,19.2s-19.2-8.6-19.2-19.2c0-10.6,8.6-19.2,19.2-19.2
	S982.5,253.9,982.5,264.5"/>
<path fill="none" stroke="#17BECF" stroke-width="0.75" d="M982.5,264.5c0,10.6-8.6,19.2-19.2,19.2s-19.2-8.6-19.2-19.2
	c0-10.6,8.6-19.2,19.2-19.2S982.5,253.9,982.5,264.5"/>
<path fill="#E8FBFC" d="M1089.5,195.9c0,10.5-8.5,19.1-19.1,19.1c-10.5,0-19.1-8.5-19.1-19.1c0-10.5,8.5-19.1,19.1-19.1
	C1081,176.8,1089.5,185.3,1089.5,195.9"/>
<path fill="none" stroke="#17BECF" stroke-width="0.75" d="M1089.5,195.9c0,10.5-8.5,19.1-19.1,19.1c-10.5,0-19.1-8.5-19.1-19.1
	c0-10.5,8.5-19.1,19.1-19.1C1081,176.8,1089.5,185.3,1089.5,195.9"/>
<path fill="#FDF0E7" d="M1129.3,156c0,10.5-8.5,19-19,19c-10.5,0-19-8.5-19-19c0-10.5,8.5-19,19-19
	C1120.8,137.1,1129.3,145.5,1129.3,156"/>
<path fill="none" stroke="#D66011" stroke-width="0.75" d="M1129.3,156c0,10.5-8.5,19-19,19c-10.5,0-19-8.5-19-19
	c0-10.5,8.5-19,19-19C1120.8,137.1,1129.3,145.5,1129.3,156"/>
<path fill="#F2F2F2" d="M1043.9,166.8c0,10.5-8.5,19-19,19c-10.5,0-19-8.5-19-19c0-10.5,8.5-19,19-19
	C1035.5,147.8,1043.9,156.3,1043.9,166.8"/>
<path fill="none" stroke="#7F7F7F" stroke-width="0.75" d="M1043.9,166.8c0,10.5-8.5,19-19,19c-10.5,0-19-8.5-19-19
	c0-10.5,8.5-19,19-19C1035.5,147.8,1043.9,156.3,1043.9,166.8"/>
<path fill="#E8FBFC" d="M986.1,202.4c0,10.4-8.4,18.8-18.8,18.8c-10.4,0-18.8-8.4-18.8-18.8c0-10.4,8.4-18.8,18.8-18.8
	C977.7,183.6,986.1,192,986.1,202.4"/>
<path fill="none" stroke="#17BECF" stroke-width="0.75" d="M986.1,202.4c0,10.4-8.4,18.8-18.8,18.8c-10.4,0-18.8-8.4-18.8-18.8
	c0-10.4,8.4-18.8,18.8-18.8C977.7,183.6,986.1,192,986.1,202.4"/>
<path fill="#E8FBFC" d="M988.5,241.6c0,10.4-8.4,18.8-18.8,18.8c-10.4,0-18.8-8.4-18.8-18.8c0-10.4,8.4-18.8,18.8-18.8
	C980.1,222.8,988.5,231.2,988.5,241.6"/>
<path fill="none" stroke="#17BECF" stroke-width="0.75" d="M988.5,241.6c0,10.4-8.4,18.8-18.8,18.8c-10.4,0-18.8-8.4-18.8-18.8
	c0-10.4,8.4-18.8,18.8-18.8C980.1,222.8,988.5,231.2,988.5,241.6"/>
<path fill="#FBEAF6" d="M857.2,257.2c0,10.4-8.4,18.7-18.7,18.7c-10.4,0-18.7-8.4-18.7-18.7c0-10.4,8.4-18.7,18.7-18.7
	C848.8,238.5,857.2,246.9,857.2,257.2"/>
<path fill="none" stroke="#E377C2" stroke-width="0.75" d="M857.2,257.2c0,10.4-8.4,18.7-18.7,18.7c-10.4,0-18.7-8.4-18.7-18.7
	c0-10.4,8.4-18.7,18.7-18.7C848.8,238.5,857.2,246.9,857.2,257.2"/>
<path fill="#E8FBFC" d="M1071.1,137.2c0,10.3-8.4,18.7-18.7,18.7c-10.3,0-18.7-8.4-18.7-18.7c0-10.3,8.4-18.7,18.7-18.7
	C1062.7,118.4,1071.1,126.8,1071.1,137.2"/>
<path fill="none" stroke="#17BECF" stroke-width="0.75" d="M1071.1,137.2c0,10.3-8.4,18.7-18.7,18.7c-10.3,0-18.7-8.4-18.7-18.7
	c0-10.3,8.4-18.7,18.7-18.7C1062.7,118.4,1071.1,126.8,1071.1,137.2"/>
<path fill="#F2F2F2" d="M1032.5,302.1c0,10.3-8.3,18.6-18.6,18.6c-10.3,0-18.6-8.3-18.6-18.6s8.3-18.6,18.6-18.6
	C1024.2,283.5,1032.5,291.8,1032.5,302.1"/>
<path fill="none" stroke="#7F7F7F" stroke-width="0.75" d="M1032.5,302.1c0,10.3-8.3,18.6-18.6,18.6c-10.3,0-18.6-8.3-18.6-18.6
	s8.3-18.6,18.6-18.6C1024.2,283.5,1032.5,291.8,1032.5,302.1"/>
<path fill="#EDFCE9" d="M1015.4,451.2c0,10.3-8.3,18.6-18.6,18.6c-10.3,0-18.6-8.3-18.6-18.6s8.3-18.6,18.6-18.6
	C1007,432.6,1015.4,440.9,1015.4,451.2"/>
<path fill="none" stroke="#3AB11A" stroke-width="0.75" d="M1015.4,451.2c0,10.3-8.3,18.6-18.6,18.6c-10.3,0-18.6-8.3-18.6-18.6
	s8.3-18.6,18.6-18.6C1007,432.6,1015.4,440.9,1015.4,451.2"/>
<path fill="#FEEDE7" d="M966.5,229.2c0,10.3-8.3,18.6-18.6,18.6c-10.3,0-18.6-8.3-18.6-18.6c0-10.3,8.3-18.6,18.6-18.6
	C958.2,210.6,966.5,218.9,966.5,229.2"/>
<path fill="none" stroke="#5E1F05" stroke-width="0.75" d="M966.5,229.2c0,10.3-8.3,18.6-18.6,18.6c-10.3,0-18.6-8.3-18.6-18.6
	c0-10.3,8.3-18.6,18.6-18.6C958.2,210.6,966.5,218.9,966.5,229.2"/>
<path fill="#FFF8E5" d="M934.6,352.3c0,10.2-8.3,18.5-18.5,18.5c-10.2,0-18.5-8.3-18.5-18.5c0-10.2,8.3-18.6,18.5-18.6
	C926.3,333.7,934.6,342,934.6,352.3"/>
<path fill="none" stroke="#FFC41C" stroke-width="0.75" d="M934.6,352.3c0,10.2-8.3,18.5-18.5,18.5c-10.2,0-18.5-8.3-18.5-18.5
	c0-10.2,8.3-18.6,18.5-18.6C926.3,333.7,934.6,342,934.6,352.3"/>
<path fill="#FAFFE5" d="M888,304.1c0,10.2-8.3,18.5-18.5,18.5c-10.2,0-18.5-8.3-18.5-18.5c0-10.2,8.3-18.5,18.5-18.5
	C879.7,285.6,888,293.9,888,304.1"/>
<path fill="none" stroke="#D1FF00" stroke-width="0.75" d="M888,304.1c0,10.2-8.3,18.5-18.5,18.5c-10.2,0-18.5-8.3-18.5-18.5
	c0-10.2,8.3-18.5,18.5-18.5C879.7,285.6,888,293.9,888,304.1"/>
<path fill="#E8FBFC" d="M1020.2,232.6c0,10.1-8.2,18.3-18.3,18.3c-10.1,0-18.3-8.2-18.3-18.3c0-10.1,8.2-18.3,18.3-18.3
	C1012,214.2,1020.2,222.4,1020.2,232.6"/>
<path fill="none" stroke="#17BECF" stroke-width="0.75" d="M1020.2,232.6c0,10.1-8.2,18.3-18.3,18.3c-10.1,0-18.3-8.2-18.3-18.3
	c0-10.1,8.2-18.3,18.3-18.3C1012,214.2,1020.2,222.4,1020.2,232.6"/>
<path fill="#FCE8F1" d="M985.3,191.4c0,10-8.1,18.1-18.1,18.1c-10,0-18.1-8.1-18.1-18.1c0-10,8.1-18.1,18.1-18.1
	C977.2,173.2,985.3,181.4,985.3,191.4"/>
<path fill="none" stroke="#F7B6D2" stroke-width="0.75" d="M985.3,191.4c0,10-8.1,18.1-18.1,18.1c-10,0-18.1-8.1-18.1-18.1
	c0-10,8.1-18.1,18.1-18.1C977.2,173.2,985.3,181.4,985.3,191.4"/>
<path fill="#FBEAF6" d="M824.3,337.1c0,10-8.1,18.1-18.1,18.1c-10,0-18.1-8.1-18.1-18.1c0-10,8.1-18.1,18.1-18.1
	C816.2,319,824.3,327.1,824.3,337.1"/>
<path fill="none" stroke="#E377C2" stroke-width="0.75" d="M824.3,337.1c0,10-8.1,18.1-18.1,18.1c-10,0-18.1-8.1-18.1-18.1
	c0-10,8.1-18.1,18.1-18.1C816.2,319,824.3,327.1,824.3,337.1"/>
<path fill="#FDF0E7" d="M977.9,306.6c0,10-8.1,18.1-18.1,18.1c-10,0-18.1-8.1-18.1-18.1c0-10,8.1-18.1,18.1-18.1
	C969.8,288.5,977.9,296.6,977.9,306.6"/>
<path fill="none" stroke="#D66011" stroke-width="0.75" d="M977.9,306.6c0,10-8.1,18.1-18.1,18.1c-10,0-18.1-8.1-18.1-18.1
	c0-10,8.1-18.1,18.1-18.1C969.8,288.5,977.9,296.6,977.9,306.6"/>
<path fill="#FEEDE7" d="M901.7,296.3c0,9.9-8.1,18-18,18c-9.9,0-18-8.1-18-18c0-9.9,8.1-18,18-18
	C893.7,278.3,901.7,286.4,901.7,296.3"/>
<path fill="none" stroke="#5E1F05" stroke-width="0.75" d="M901.7,296.3c0,9.9-8.1,18-18,18c-9.9,0-18-8.1-18-18c0-9.9,8.1-18,18-18
	C893.7,278.3,901.7,286.4,901.7,296.3"/>
<path fill="#FEEDE7" d="M939.4,264.2c0,9.9-8.1,18-18,18c-9.9,0-18-8.1-18-18c0-9.9,8.1-18,18-18
	C931.3,246.2,939.4,254.2,939.4,264.2"/>
<path fill="none" stroke="#5E1F05" stroke-width="0.75" d="M939.4,264.2c0,9.9-8.1,18-18,18c-9.9,0-18-8.1-18-18c0-9.9,8.1-18,18-18
	C931.3,246.2,939.4,254.2,939.4,264.2"/>
<path fill="#EBFAEB" d="M799.1,422.1c0,9.9-8.1,18-18,18s-18-8.1-18-18c0-9.9,8.1-18,18-18S799.1,412.2,799.1,422.1"/>
<path fill="none" stroke="#2CA02C" stroke-width="0.75" d="M799.1,422.1c0,9.9-8.1,18-18,18s-18-8.1-18-18c0-9.9,8.1-18,18-18
	S799.1,412.2,799.1,422.1"/>
<path fill="#FAFFE5" d="M795.4,365c0,9.9-8.1,18-18,18c-9.9,0-18-8-18-18c0-9.9,8-18,18-18C787.3,347,795.4,355.1,795.4,365"/>
<path fill="none" stroke="#D1FF00" stroke-width="0.75" d="M795.4,365c0,9.9-8.1,18-18,18c-9.9,0-18-8-18-18c0-9.9,8-18,18-18
	C787.3,347,795.4,355.1,795.4,365"/>
<path fill="#E8FBFC" d="M1105.4,110.8c0,9.9-8,17.9-17.9,17.9c-9.9,0-17.9-8-17.9-17.9c0-9.9,8-17.9,17.9-17.9
	C1097.3,92.9,1105.4,100.9,1105.4,110.8"/>
<path fill="none" stroke="#17BECF" stroke-width="0.75" d="M1105.4,110.8c0,9.9-8,17.9-17.9,17.9c-9.9,0-17.9-8-17.9-17.9
	c0-9.9,8-17.9,17.9-17.9C1097.3,92.9,1105.4,100.9,1105.4,110.8"/>
<path fill="#FAFFE5" d="M870.9,289.9c0,9.9-8,17.9-17.9,17.9s-17.9-8-17.9-17.9c0-9.9,8-17.9,17.9-17.9S870.9,280,870.9,289.9"/>
<path fill="none" stroke="#D1FF00" stroke-width="0.75" d="M870.9,289.9c0,9.9-8,17.9-17.9,17.9s-17.9-8-17.9-17.9
	c0-9.9,8-17.9,17.9-17.9S870.9,280,870.9,289.9"/>
<path fill="#FBEAF6" d="M1065.4,223.7c0,9.8-8,17.8-17.8,17.8c-9.8,0-17.8-8-17.8-17.8c0-9.8,8-17.8,17.8-17.8
	C1057.4,205.9,1065.4,213.9,1065.4,223.7"/>
<path fill="none" stroke="#E377C2" stroke-width="0.75" d="M1065.4,223.7c0,9.8-8,17.8-17.8,17.8c-9.8,0-17.8-8-17.8-17.8
	c0-9.8,8-17.8,17.8-17.8C1057.4,205.9,1065.4,213.9,1065.4,223.7"/>
<path fill="#E8FBFC" d="M966.5,176.7c0,9.8-8,17.8-17.8,17.8c-9.8,0-17.8-8-17.8-17.8c0-9.8,8-17.8,17.8-17.8
	C958.5,158.9,966.5,166.9,966.5,176.7"/>
<path fill="none" stroke="#17BECF" stroke-width="0.75" d="M966.5,176.7c0,9.8-8,17.8-17.8,17.8c-9.8,0-17.8-8-17.8-17.8
	c0-9.8,8-17.8,17.8-17.8C958.5,158.9,966.5,166.9,966.5,176.7"/>
<path fill="#FAFFE5" d="M865.2,276.3c0,9.8-7.9,17.7-17.7,17.7c-9.8,0-17.7-7.9-17.7-17.7c0-9.8,7.9-17.7,17.7-17.7
	C857.3,258.6,865.2,266.5,865.2,276.3"/>
<path fill="none" stroke="#D1FF00" stroke-width="0.75" d="M865.2,276.3c0,9.8-7.9,17.7-17.7,17.7c-9.8,0-17.7-7.9-17.7-17.7
	c0-9.8,7.9-17.7,17.7-17.7C857.3,258.6,865.2,266.5,865.2,276.3"/>
<path fill="#FBEAF6" d="M823.9,329.2c0,9.8-7.9,17.7-17.7,17.7c-9.8,0-17.7-7.9-17.7-17.7c0-9.8,7.9-17.7,17.7-17.7
	C816,311.5,823.9,319.4,823.9,329.2"/>
<path fill="none" stroke="#E377C2" stroke-width="0.75" d="M823.9,329.2c0,9.8-7.9,17.7-17.7,17.7c-9.8,0-17.7-7.9-17.7-17.7
	c0-9.8,7.9-17.7,17.7-17.7C816,311.5,823.9,319.4,823.9,329.2"/>
<path fill="#FFFAE5" d="M814,370.6c0,9.8-7.9,17.7-17.7,17.7c-9.8,0-17.7-7.9-17.7-17.7c0-9.8,7.9-17.7,17.7-17.7
	C806.1,352.9,814,360.8,814,370.6"/>
<path fill="none" stroke="#FFE999" stroke-width="0.75" d="M814,370.6c0,9.8-7.9,17.7-17.7,17.7c-9.8,0-17.7-7.9-17.7-17.7
	c0-9.8,7.9-17.7,17.7-17.7C806.1,352.9,814,360.8,814,370.6"/>
<path fill="#FFE5E5" d="M883.8,324.7c0,9.7-7.9,17.6-17.6,17.6c-9.7,0-17.6-7.9-17.6-17.6c0-9.7,7.9-17.6,17.6-17.6
	C875.9,307.1,883.8,315,883.8,324.7"/>
<path fill="none" stroke="#330000" stroke-width="0.75" d="M883.8,324.7c0,9.7-7.9,17.6-17.6,17.6c-9.7,0-17.6-7.9-17.6-17.6
	c0-9.7,7.9-17.6,17.6-17.6C875.9,307.1,883.8,315,883.8,324.7"/>
<path fill="#FCE8F1" d="M851.8,262.7c0,9.7-7.9,17.6-17.6,17.6c-9.7,0-17.6-7.9-17.6-17.6c0-9.7,7.9-17.6,17.6-17.6
	C843.9,245,851.8,252.9,851.8,262.7"/>
<path fill="none" stroke="#F7B6D2" stroke-width="0.75" d="M851.8,262.7c0,9.7-7.9,17.6-17.6,17.6c-9.7,0-17.6-7.9-17.6-17.6
	c0-9.7,7.9-17.6,17.6-17.6C843.9,245,851.8,252.9,851.8,262.7"/>
<path fill="#FFE5E5" d="M1011.9,160.7c0,9.7-7.9,17.6-17.6,17.6c-9.7,0-17.6-7.9-17.6-17.6c0-9.7,7.9-17.6,17.6-17.6
	C1004,143.1,1011.9,151,1011.9,160.7"/>
<path fill="none" stroke="#FF0000" stroke-width="0.75" d="M1011.9,160.7c0,9.7-7.9,17.6-17.6,17.6c-9.7,0-17.6-7.9-17.6-17.6
	c0-9.7,7.9-17.6,17.6-17.6C1004,143.1,1011.9,151,1011.9,160.7"/>
<path fill="#FFE5E5" d="M793.7,325c0,9.7-7.9,17.6-17.6,17.6c-9.7,0-17.6-7.9-17.6-17.6c0-9.7,7.9-17.6,17.6-17.6
	C785.8,307.3,793.7,315.2,793.7,325"/>
<path fill="none" stroke="#FF0000" stroke-width="0.75" d="M793.7,325c0,9.7-7.9,17.6-17.6,17.6c-9.7,0-17.6-7.9-17.6-17.6
	c0-9.7,7.9-17.6,17.6-17.6C785.8,307.3,793.7,315.2,793.7,325"/>
<path fill="#FFFAE5" d="M830,439.3c0,9.7-7.9,17.6-17.6,17.6c-9.7,0-17.6-7.9-17.6-17.6c0-9.7,7.9-17.6,17.6-17.6
	C822.1,421.8,830,429.6,830,439.3"/>
<path fill="none" stroke="#FFE999" stroke-width="0.75" d="M830,439.3c0,9.7-7.9,17.6-17.6,17.6c-9.7,0-17.6-7.9-17.6-17.6
	c0-9.7,7.9-17.6,17.6-17.6C822.1,421.8,830,429.6,830,439.3"/>
<path fill="#E8FBFC" d="M1077.6,194c0,9.7-7.9,17.6-17.6,17.6c-9.7,0-17.6-7.9-17.6-17.6c0-9.7,7.9-17.6,17.6-17.6
	C1069.7,176.5,1077.6,184.3,1077.6,194"/>
<path fill="none" stroke="#17BECF" stroke-width="0.75" d="M1077.6,194c0,9.7-7.9,17.6-17.6,17.6c-9.7,0-17.6-7.9-17.6-17.6
	c0-9.7,7.9-17.6,17.6-17.6C1069.7,176.5,1077.6,184.3,1077.6,194"/>
<path fill="#FBEAF6" d="M1025.2,229.5c0,9.7-7.9,17.5-17.5,17.5c-9.7,0-17.5-7.8-17.5-17.5c0-9.7,7.8-17.5,17.5-17.5
	C1017.4,212,1025.2,219.8,1025.2,229.5"/>
<path fill="none" stroke="#E377C2" stroke-width="0.75" d="M1025.2,229.5c0,9.7-7.9,17.5-17.5,17.5c-9.7,0-17.5-7.8-17.5-17.5
	c0-9.7,7.8-17.5,17.5-17.5C1017.4,212,1025.2,219.8,1025.2,229.5"/>
<path fill="#FDF0E7" d="M859.5,300.8c0,9.7-7.8,17.5-17.5,17.5c-9.7,0-17.5-7.8-17.5-17.5c0-9.7,7.8-17.5,17.5-17.5
	C851.6,283.3,859.5,291.1,859.5,300.8"/>
<path fill="none" stroke="#D66011" stroke-width="0.75" d="M859.5,300.8c0,9.7-7.8,17.5-17.5,17.5c-9.7,0-17.5-7.8-17.5-17.5
	c0-9.7,7.8-17.5,17.5-17.5C851.6,283.3,859.5,291.1,859.5,300.8"/>
<path fill="#E8FBFC" d="M1059.8,162.7c0,9.6-7.8,17.4-17.4,17.4c-9.6,0-17.4-7.8-17.4-17.4c0-9.6,7.8-17.4,17.4-17.4
	C1052,145.3,1059.8,153.1,1059.8,162.7"/>
<path fill="none" stroke="#17BECF" stroke-width="0.75" d="M1059.8,162.7c0,9.6-7.8,17.4-17.4,17.4c-9.6,0-17.4-7.8-17.4-17.4
	c0-9.6,7.8-17.4,17.4-17.4C1052,145.3,1059.8,153.1,1059.8,162.7"/>
<path fill="#EBFAEB" d="M972.1,341.3c0,9.6-7.8,17.4-17.4,17.4c-9.6,0-17.4-7.8-17.4-17.4c0-9.6,7.8-17.4,17.4-17.4
	C964.4,323.9,972.1,331.7,972.1,341.3"/>
<path fill="none" stroke="#2CA02C" stroke-width="0.75" d="M972.1,341.3c0,9.6-7.8,17.4-17.4,17.4c-9.6,0-17.4-7.8-17.4-17.4
	c0-9.6,7.8-17.4,17.4-17.4C964.4,323.9,972.1,331.7,972.1,341.3"/>
<path fill="#EBFAEB" d="M931.5,280.3c0,9.6-7.8,17.4-17.4,17.4c-9.6,0-17.4-7.8-17.4-17.4c0-9.6,7.8-17.4,17.4-17.4
	C923.7,262.9,931.5,270.7,931.5,280.3"/>
<path fill="none" stroke="#2CA02C" stroke-width="0.75" d="M931.5,280.3c0,9.6-7.8,17.4-17.4,17.4c-9.6,0-17.4-7.8-17.4-17.4
	c0-9.6,7.8-17.4,17.4-17.4C923.7,262.9,931.5,270.7,931.5,280.3"/>
<path fill="#FCE8F1" d="M1071.7,155.3c0,9.6-7.8,17.3-17.3,17.3c-9.6,0-17.3-7.8-17.3-17.3c0-9.6,7.8-17.3,17.3-17.3
	C1063.9,137.9,1071.7,145.7,1071.7,155.3"/>
<path fill="none" stroke="#F7B6D2" stroke-width="0.75" d="M1071.7,155.3c0,9.6-7.8,17.3-17.3,17.3c-9.6,0-17.3-7.8-17.3-17.3
	c0-9.6,7.8-17.3,17.3-17.3C1063.9,137.9,1071.7,145.7,1071.7,155.3"/>
<path fill="#E8FBFC" d="M1054.3,204.6c0,9.5-7.7,17.2-17.2,17.2c-9.5,0-17.2-7.7-17.2-17.2c0-9.5,7.7-17.2,17.2-17.2
	C1046.6,187.3,1054.3,195,1054.3,204.6"/>
<path fill="none" stroke="#17BECF" stroke-width="0.75" d="M1054.3,204.6c0,9.5-7.7,17.2-17.2,17.2c-9.5,0-17.2-7.7-17.2-17.2
	c0-9.5,7.7-17.2,17.2-17.2C1046.6,187.3,1054.3,195,1054.3,204.6"/>
<path fill="#E8FBFC" d="M1020.9,203.2c0,9.4-7.7,17.1-17.1,17.1c-9.4,0-17.1-7.7-17.1-17.1c0-9.4,7.7-17.1,17.1-17.1
	C1013.2,186.1,1020.9,193.8,1020.9,203.2"/>
<path fill="none" stroke="#17BECF" stroke-width="0.75" d="M1020.9,203.2c0,9.4-7.7,17.1-17.1,17.1c-9.4,0-17.1-7.7-17.1-17.1
	c0-9.4,7.7-17.1,17.1-17.1C1013.2,186.1,1020.9,193.8,1020.9,203.2"/>
<path fill="#EBF7FA" d="M932.2,262.6c0,9.4-7.6,17-17,17c-9.4,0-17-7.6-17-17c0-9.4,7.6-17,17-17
	C924.6,245.6,932.2,253.2,932.2,262.6"/>
<path fill="none" stroke="#9EDAE5" stroke-width="0.75" d="M932.2,262.6c0,9.4-7.6,17-17,17c-9.4,0-17-7.6-17-17c0-9.4,7.6-17,17-17
	C924.6,245.6,932.2,253.2,932.2,262.6"/>
<path fill="#FAFFE5" d="M743,351.5c0,9.3-7.5,16.8-16.8,16.8c-9.3,0-16.8-7.5-16.8-16.8c0-9.3,7.5-16.9,16.8-16.9
	C735.4,334.6,743,342.1,743,351.5"/>
<path fill="none" stroke="#D1FF00" stroke-width="0.75" d="M743,351.5c0,9.3-7.5,16.8-16.8,16.8c-9.3,0-16.8-7.5-16.8-16.8
	c0-9.3,7.5-16.9,16.8-16.9C735.4,334.6,743,342.1,743,351.5"/>
<path fill="#FCE8F1" d="M1106.9,129.7c0,9.3-7.5,16.8-16.8,16.8c-9.3,0-16.8-7.5-16.8-16.8c0-9.3,7.5-16.8,16.8-16.8
	C1099.4,112.8,1106.9,120.4,1106.9,129.7"/>
<path fill="none" stroke="#F7B6D2" stroke-width="0.75" d="M1106.9,129.7c0,9.3-7.5,16.8-16.8,16.8c-9.3,0-16.8-7.5-16.8-16.8
	c0-9.3,7.5-16.8,16.8-16.8C1099.4,112.8,1106.9,120.4,1106.9,129.7"/>
<path fill="#FFE5E5" d="M871.4,351.4c0,9.3-7.5,16.8-16.8,16.8s-16.8-7.5-16.8-16.8c0-9.3,7.5-16.8,16.8-16.8
	S871.4,342.1,871.4,351.4"/>
<path fill="none" stroke="#FF0000" stroke-width="0.75" d="M871.4,351.4c0,9.3-7.5,16.8-16.8,16.8s-16.8-7.5-16.8-16.8
	c0-9.3,7.5-16.8,16.8-16.8S871.4,342.1,871.4,351.4"/>
<path fill="#EBFAEB" d="M854.8,419.7c0,9.3-7.5,16.8-16.8,16.8c-9.3,0-16.8-7.5-16.8-16.8c0-9.3,7.5-16.8,16.8-16.8
	C847.3,403,854.8,410.5,854.8,419.7"/>
<path fill="none" stroke="#2CA02C" stroke-width="0.75" d="M854.8,419.7c0,9.3-7.5,16.8-16.8,16.8c-9.3,0-16.8-7.5-16.8-16.8
	c0-9.3,7.5-16.8,16.8-16.8C847.3,403,854.8,410.5,854.8,419.7"/>
<path fill="#E8FBFC" d="M1034.6,172.2c0,9.3-7.5,16.8-16.8,16.8c-9.3,0-16.8-7.5-16.8-16.8c0-9.3,7.5-16.8,16.8-16.8
	C1027.1,155.4,1034.6,162.9,1034.6,172.2"/>
<path fill="none" stroke="#17BECF" stroke-width="0.75" d="M1034.6,172.2c0,9.3-7.5,16.8-16.8,16.8c-9.3,0-16.8-7.5-16.8-16.8
	c0-9.3,7.5-16.8,16.8-16.8C1027.1,155.4,1034.6,162.9,1034.6,172.2"/>
<path fill="#FAFFE5" d="M808.6,297.8c0,9.2-7.5,16.7-16.7,16.7c-9.2,0-16.7-7.5-16.7-16.7s7.5-16.7,16.7-16.7
	C801.1,281.1,808.6,288.6,808.6,297.8"/>
<path fill="none" stroke="#D1FF00" stroke-width="0.75" d="M808.6,297.8c0,9.2-7.5,16.7-16.7,16.7c-9.2,0-16.7-7.5-16.7-16.7
	s7.5-16.7,16.7-16.7C801.1,281.1,808.6,288.6,808.6,297.8"/>
<path fill="#FEEDE7" d="M861.7,249.8c0,9.2-7.5,16.7-16.7,16.7c-9.2,0-16.7-7.5-16.7-16.7c0-9.2,7.5-16.7,16.7-16.7
	C854.2,233.1,861.7,240.6,861.7,249.8"/>
<path fill="none" stroke="#5E1F05" stroke-width="0.75" d="M861.7,249.8c0,9.2-7.5,16.7-16.7,16.7c-9.2,0-16.7-7.5-16.7-16.7
	c0-9.2,7.5-16.7,16.7-16.7C854.2,233.1,861.7,240.6,861.7,249.8"/>
<path fill="#FAFFE5" d="M877.8,271.8c0,9.2-7.5,16.7-16.7,16.7c-9.2,0-16.7-7.5-16.7-16.7c0-9.2,7.5-16.7,16.7-16.7
	C870.3,255.1,877.8,262.6,877.8,271.8"/>
<path fill="none" stroke="#D1FF00" stroke-width="0.75" d="M877.8,271.8c0,9.2-7.5,16.7-16.7,16.7c-9.2,0-16.7-7.5-16.7-16.7
	c0-9.2,7.5-16.7,16.7-16.7C870.3,255.1,877.8,262.6,877.8,271.8"/>
<path fill="#FBEAF6" d="M1064.7,191.5c0,9.2-7.5,16.6-16.6,16.6s-16.6-7.4-16.6-16.6c0-9.2,7.4-16.6,16.6-16.6
	S1064.7,182.3,1064.7,191.5"/>
<path fill="none" stroke="#E377C2" stroke-width="0.75" d="M1064.7,191.5c0,9.2-7.5,16.6-16.6,16.6s-16.6-7.4-16.6-16.6
	c0-9.2,7.4-16.6,16.6-16.6S1064.7,182.3,1064.7,191.5"/>
<path fill="#FFE5E5" d="M952,238c0,9.2-7.4,16.6-16.6,16.6c-9.2,0-16.6-7.4-16.6-16.6c0-9.2,7.4-16.6,16.6-16.6
	C944.6,221.3,952,228.8,952,238"/>
<path fill="none" stroke="#FF0000" stroke-width="0.75" d="M952,238c0,9.2-7.4,16.6-16.6,16.6c-9.2,0-16.6-7.4-16.6-16.6
	c0-9.2,7.4-16.6,16.6-16.6C944.6,221.3,952,228.8,952,238"/>
<path fill="#FAFFE5" d="M752.9,435c0,9.2-7.4,16.6-16.6,16.6c-9.2,0-16.6-7.4-16.6-16.6c0-9.2,7.4-16.6,16.6-16.6
	C745.5,418.4,752.9,425.8,752.9,435"/>
<path fill="none" stroke="#D1FF00" stroke-width="0.75" d="M752.9,435c0,9.2-7.4,16.6-16.6,16.6c-9.2,0-16.6-7.4-16.6-16.6
	c0-9.2,7.4-16.6,16.6-16.6C745.5,418.4,752.9,425.8,752.9,435"/>
<path fill="#FEEDE7" d="M927.8,210.2c0,9.2-7.4,16.6-16.6,16.6c-9.2,0-16.6-7.4-16.6-16.6c0-9.2,7.4-16.6,16.6-16.6
	C920.4,193.6,927.8,201,927.8,210.2"/>
<path fill="none" stroke="#5E1F05" stroke-width="0.75" d="M927.8,210.2c0,9.2-7.4,16.6-16.6,16.6c-9.2,0-16.6-7.4-16.6-16.6
	c0-9.2,7.4-16.6,16.6-16.6C920.4,193.6,927.8,201,927.8,210.2"/>
<path fill="#FBEAF6" d="M883.6,221c0,9.2-7.4,16.6-16.6,16.6c-9.1,0-16.6-7.4-16.6-16.6c0-9.1,7.4-16.6,16.6-16.6
	C876.2,204.5,883.6,211.9,883.6,221"/>
<path fill="none" stroke="#E377C2" stroke-width="0.75" d="M883.6,221c0,9.2-7.4,16.6-16.6,16.6c-9.1,0-16.6-7.4-16.6-16.6
	c0-9.1,7.4-16.6,16.6-16.6C876.2,204.5,883.6,211.9,883.6,221"/>
<path fill="#FCE8F1" d="M803.3,356.9c0,9.2-7.4,16.6-16.6,16.6c-9.2,0-16.6-7.4-16.6-16.6c0-9.1,7.4-16.6,16.6-16.6
	C795.9,340.3,803.3,347.7,803.3,356.9"/>
<path fill="none" stroke="#F7B6D2" stroke-width="0.75" d="M803.3,356.9c0,9.2-7.4,16.6-16.6,16.6c-9.2,0-16.6-7.4-16.6-16.6
	c0-9.1,7.4-16.6,16.6-16.6C795.9,340.3,803.3,347.7,803.3,356.9"/>
<path fill="#EBFAEB" d="M846.2,417.2c0,9.1-7.4,16.5-16.5,16.5c-9.1,0-16.5-7.4-16.5-16.5c0-9.1,7.4-16.5,16.5-16.5
	C838.8,400.7,846.2,408.1,846.2,417.2"/>
<path fill="none" stroke="#2CA02C" stroke-width="0.75" d="M846.2,417.2c0,9.1-7.4,16.5-16.5,16.5c-9.1,0-16.5-7.4-16.5-16.5
	c0-9.1,7.4-16.5,16.5-16.5C838.8,400.7,846.2,408.1,846.2,417.2"/>
<path fill="#FFF8E5" d="M808.5,371.8c0,9.1-7.4,16.5-16.5,16.5c-9.1,0-16.5-7.4-16.5-16.5c0-9.1,7.4-16.5,16.5-16.5
	C801.1,355.3,808.5,362.6,808.5,371.8"/>
<path fill="none" stroke="#FFC41C" stroke-width="0.75" d="M808.5,371.8c0,9.1-7.4,16.5-16.5,16.5c-9.1,0-16.5-7.4-16.5-16.5
	c0-9.1,7.4-16.5,16.5-16.5C801.1,355.3,808.5,362.6,808.5,371.8"/>
<path fill="#FCE8F1" d="M976.9,228.3c0,9.1-7.4,16.5-16.5,16.5c-9.1,0-16.5-7.4-16.5-16.5s7.4-16.5,16.5-16.5
	C969.5,211.8,976.9,219.2,976.9,228.3"/>
<path fill="none" stroke="#F7B6D2" stroke-width="0.75" d="M976.9,228.3c0,9.1-7.4,16.5-16.5,16.5c-9.1,0-16.5-7.4-16.5-16.5
	s7.4-16.5,16.5-16.5C969.5,211.8,976.9,219.2,976.9,228.3"/>
<path fill="#EBFAEB" d="M949.8,209.5c0,9.1-7.4,16.5-16.5,16.5c-9.1,0-16.5-7.4-16.5-16.5c0-9.1,7.4-16.5,16.5-16.5
	C942.4,193,949.8,200.4,949.8,209.5"/>
<path fill="none" stroke="#2CA02C" stroke-width="0.75" d="M949.8,209.5c0,9.1-7.4,16.5-16.5,16.5c-9.1,0-16.5-7.4-16.5-16.5
	c0-9.1,7.4-16.5,16.5-16.5C942.4,193,949.8,200.4,949.8,209.5"/>
<path fill="#EBFAEB" d="M820.3,413.4c0,9.1-7.4,16.5-16.5,16.5s-16.5-7.4-16.5-16.5s7.4-16.5,16.5-16.5S820.3,404.3,820.3,413.4"/>
<path fill="none" stroke="#2CA02C" stroke-width="0.75" d="M820.3,413.4c0,9.1-7.4,16.5-16.5,16.5s-16.5-7.4-16.5-16.5
	s7.4-16.5,16.5-16.5S820.3,404.3,820.3,413.4"/>
<path fill="#FBEAF6" d="M1081,147.8c0,9.1-7.3,16.4-16.4,16.4c-9,0-16.4-7.3-16.4-16.4c0-9,7.3-16.4,16.4-16.4
	C1073.7,131.4,1081,138.8,1081,147.8"/>
<path fill="none" stroke="#E377C2" stroke-width="0.75" d="M1081,147.8c0,9.1-7.3,16.4-16.4,16.4c-9,0-16.4-7.3-16.4-16.4
	c0-9,7.3-16.4,16.4-16.4C1073.7,131.4,1081,138.8,1081,147.8"/>
<path fill="#EBFAEB" d="M823.6,358.5c0,9-7.3,16.3-16.3,16.3c-9,0-16.3-7.3-16.3-16.3c0-9,7.3-16.3,16.3-16.3
	C816.3,342.2,823.6,349.5,823.6,358.5"/>
<path fill="none" stroke="#2CA02C" stroke-width="0.75" d="M823.6,358.5c0,9-7.3,16.3-16.3,16.3c-9,0-16.3-7.3-16.3-16.3
	c0-9,7.3-16.3,16.3-16.3C816.3,342.2,823.6,349.5,823.6,358.5"/>
<path fill="#FFE5E5" d="M890.3,220.6c0,9-7.3,16.3-16.3,16.3c-9,0-16.3-7.3-16.3-16.3c0-9,7.3-16.3,16.3-16.3
	C883,204.4,890.3,211.7,890.3,220.6"/>
<path fill="none" stroke="#FF0000" stroke-width="0.75" d="M890.3,220.6c0,9-7.3,16.3-16.3,16.3c-9,0-16.3-7.3-16.3-16.3
	c0-9,7.3-16.3,16.3-16.3C883,204.4,890.3,211.7,890.3,220.6"/>
<path fill="#FEEDE7" d="M940.7,204.2c0,9-7.3,16.3-16.3,16.3c-9,0-16.3-7.3-16.3-16.3c0-9,7.3-16.3,16.3-16.3
	C933.4,188,940.7,195.3,940.7,204.2"/>
<path fill="none" stroke="#5E1F05" stroke-width="0.75" d="M940.7,204.2c0,9-7.3,16.3-16.3,16.3c-9,0-16.3-7.3-16.3-16.3
	c0-9,7.3-16.3,16.3-16.3C933.4,188,940.7,195.3,940.7,204.2"/>
<path fill="#FDF0E7" d="M965.6,199.9c0,9-7.3,16.2-16.2,16.2s-16.2-7.3-16.2-16.2c0-9,7.3-16.2,16.2-16.2S965.6,191,965.6,199.9"/>
<path fill="none" stroke="#D66011" stroke-width="0.75" d="M965.6,199.9c0,9-7.3,16.2-16.2,16.2s-16.2-7.3-16.2-16.2
	c0-9,7.3-16.2,16.2-16.2S965.6,191,965.6,199.9"/>
<path fill="#FAFFE5" d="M798,371.1c0,9-7.3,16.2-16.2,16.2s-16.2-7.3-16.2-16.2c0-9,7.3-16.2,16.2-16.2S798,362.2,798,371.1"/>
<path fill="none" stroke="#D1FF00" stroke-width="0.75" d="M798,371.1c0,9-7.3,16.2-16.2,16.2s-16.2-7.3-16.2-16.2
	c0-9,7.3-16.2,16.2-16.2S798,362.2,798,371.1"/>
<path fill="#FEEDE7" d="M957.4,225.2c0,8.9-7.2,16.2-16.2,16.2s-16.2-7.2-16.2-16.2c0-8.9,7.2-16.2,16.2-16.2
	S957.4,216.3,957.4,225.2"/>
<path fill="none" stroke="#5E1F05" stroke-width="0.75" d="M957.4,225.2c0,8.9-7.2,16.2-16.2,16.2s-16.2-7.2-16.2-16.2
	c0-8.9,7.2-16.2,16.2-16.2S957.4,216.3,957.4,225.2"/>
<path fill="#E8FBFC" d="M957.3,247.7c0,8.9-7.2,16.2-16.2,16.2c-8.9,0-16.2-7.2-16.2-16.2c0-8.9,7.2-16.2,16.2-16.2
	C950.1,231.5,957.3,238.8,957.3,247.7"/>
<path fill="none" stroke="#17BECF" stroke-width="0.75" d="M957.3,247.7c0,8.9-7.2,16.2-16.2,16.2c-8.9,0-16.2-7.2-16.2-16.2
	c0-8.9,7.2-16.2,16.2-16.2C950.1,231.5,957.3,238.8,957.3,247.7"/>
<path fill="#FAFFE5" d="M824.1,520.3c0,8.9-7.2,16.2-16.2,16.2c-8.9,0-16.2-7.2-16.2-16.2c0-8.9,7.2-16.2,16.2-16.2
	C816.9,504.1,824.1,511.3,824.1,520.3"/>
<path fill="none" stroke="#D1FF00" stroke-width="0.75" d="M824.1,520.3c0,8.9-7.2,16.2-16.2,16.2c-8.9,0-16.2-7.2-16.2-16.2
	c0-8.9,7.2-16.2,16.2-16.2C816.9,504.1,824.1,511.3,824.1,520.3"/>
<path fill="#EBFAEB" d="M963.6,392.6c0,8.9-7.2,16.1-16.1,16.1c-8.9,0-16.1-7.2-16.1-16.1c0-8.9,7.2-16.1,16.1-16.1
	C956.4,376.4,963.6,383.6,963.6,392.6"/>
<path fill="none" stroke="#2CA02C" stroke-width="0.75" d="M963.6,392.6c0,8.9-7.2,16.1-16.1,16.1c-8.9,0-16.1-7.2-16.1-16.1
	c0-8.9,7.2-16.1,16.1-16.1C956.4,376.4,963.6,383.6,963.6,392.6"/>
<path fill="#FFE5E5" d="M948.6,210.5c0,8.9-7.2,16.1-16.1,16.1c-8.9,0-16.1-7.2-16.1-16.1c0-8.9,7.2-16.1,16.1-16.1
	C941.3,194.4,948.6,201.6,948.6,210.5"/>
<path fill="none" stroke="#FF0000" stroke-width="0.75" d="M948.6,210.5c0,8.9-7.2,16.1-16.1,16.1c-8.9,0-16.1-7.2-16.1-16.1
	c0-8.9,7.2-16.1,16.1-16.1C941.3,194.4,948.6,201.6,948.6,210.5"/>
<path fill="#FBEAF6" d="M903.2,227.8c0,8.9-7.2,16.1-16.1,16.1c-8.9,0-16.1-7.2-16.1-16.1c0-8.9,7.2-16.1,16.1-16.1
	C896,211.8,903.2,219,903.2,227.8"/>
<path fill="none" stroke="#E377C2" stroke-width="0.75" d="M903.2,227.8c0,8.9-7.2,16.1-16.1,16.1c-8.9,0-16.1-7.2-16.1-16.1
	c0-8.9,7.2-16.1,16.1-16.1C896,211.8,903.2,219,903.2,227.8"/>
<path fill="#FDF0E7" d="M848.7,370.6c0,8.9-7.2,16.1-16.1,16.1c-8.9,0-16.1-7.2-16.1-16.1c0-8.9,7.2-16.1,16.1-16.1
	C841.5,354.5,848.7,361.7,848.7,370.6"/>
<path fill="none" stroke="#D66011" stroke-width="0.75" d="M848.7,370.6c0,8.9-7.2,16.1-16.1,16.1c-8.9,0-16.1-7.2-16.1-16.1
	c0-8.9,7.2-16.1,16.1-16.1C841.5,354.5,848.7,361.7,848.7,370.6"/>
<path fill="#FAFFE5" d="M819.8,310.1c0,8.8-7.1,15.9-15.9,15.9c-8.8,0-15.9-7.1-15.9-15.9c0-8.8,7.1-15.9,15.9-15.9
	C812.7,294.2,819.8,301.3,819.8,310.1"/>
<path fill="none" stroke="#D1FF00" stroke-width="0.75" d="M819.8,310.1c0,8.8-7.1,15.9-15.9,15.9c-8.8,0-15.9-7.1-15.9-15.9
	c0-8.8,7.1-15.9,15.9-15.9C812.7,294.2,819.8,301.3,819.8,310.1"/>
<path fill="#FBEAF6" d="M949.1,213.1c0,8.8-7.1,15.9-15.9,15.9c-8.8,0-15.9-7.1-15.9-15.9c0-8.8,7.1-15.9,15.9-15.9
	C942,197.3,949.1,204.4,949.1,213.1"/>
<path fill="none" stroke="#E377C2" stroke-width="0.75" d="M949.1,213.1c0,8.8-7.1,15.9-15.9,15.9c-8.8,0-15.9-7.1-15.9-15.9
	c0-8.8,7.1-15.9,15.9-15.9C942,197.3,949.1,204.4,949.1,213.1"/>
<path fill="#EBFAEB" d="M1019.9,189.8c0,8.8-7.1,15.8-15.8,15.8c-8.7,0-15.8-7.1-15.8-15.8c0-8.7,7.1-15.8,15.8-15.8
	C1012.8,174,1019.9,181.1,1019.9,189.8"/>
<path fill="none" stroke="#2CA02C" stroke-width="0.75" d="M1019.9,189.8c0,8.8-7.1,15.8-15.8,15.8c-8.7,0-15.8-7.1-15.8-15.8
	c0-8.7,7.1-15.8,15.8-15.8C1012.8,174,1019.9,181.1,1019.9,189.8"/>
<path fill="#FAFFE5" d="M771.2,357.4c0,8.7-7.1,15.8-15.8,15.8c-8.7,0-15.8-7.1-15.8-15.8c0-8.7,7.1-15.8,15.8-15.8
	C764.1,341.5,771.2,348.6,771.2,357.4"/>
<path fill="none" stroke="#D1FF00" stroke-width="0.75" d="M771.2,357.4c0,8.7-7.1,15.8-15.8,15.8c-8.7,0-15.8-7.1-15.8-15.8
	c0-8.7,7.1-15.8,15.8-15.8C764.1,341.5,771.2,348.6,771.2,357.4"/>
<path fill="#FEEDE7" d="M877.9,263.4c0,8.7-7.1,15.8-15.8,15.8c-8.7,0-15.8-7.1-15.8-15.8c0-8.7,7.1-15.8,15.8-15.8
	C870.8,247.6,877.9,254.7,877.9,263.4"/>
<path fill="none" stroke="#5E1F05" stroke-width="0.75" d="M877.9,263.4c0,8.7-7.1,15.8-15.8,15.8c-8.7,0-15.8-7.1-15.8-15.8
	c0-8.7,7.1-15.8,15.8-15.8C870.8,247.6,877.9,254.7,877.9,263.4"/>
<path fill="#FCE8F1" d="M877.3,240.2c0,8.7-7,15.7-15.7,15.7c-8.7,0-15.7-7-15.7-15.7c0-8.7,7-15.7,15.7-15.7
	C870.3,224.4,877.3,231.5,877.3,240.2"/>
<path fill="none" stroke="#F7B6D2" stroke-width="0.75" d="M877.3,240.2c0,8.7-7,15.7-15.7,15.7c-8.7,0-15.7-7-15.7-15.7
	c0-8.7,7-15.7,15.7-15.7C870.3,224.4,877.3,231.5,877.3,240.2"/>
<path fill="#FAFFE5" d="M897.1,408.2c0,8.7-7,15.7-15.7,15.7c-8.7,0-15.7-7-15.7-15.7c0-8.7,7-15.7,15.7-15.7
	C890.1,392.5,897.1,399.6,897.1,408.2"/>
<path fill="none" stroke="#D1FF00" stroke-width="0.75" d="M897.1,408.2c0,8.7-7,15.7-15.7,15.7c-8.7,0-15.7-7-15.7-15.7
	c0-8.7,7-15.7,15.7-15.7C890.1,392.5,897.1,399.6,897.1,408.2"/>
<path fill="#FFFAE5" d="M861.7,313.8c0,8.6-7,15.6-15.7,15.6c-8.6,0-15.7-7-15.7-15.6c0-8.7,7-15.7,15.7-15.7
	C854.7,298.1,861.7,305.1,861.7,313.8"/>
<path fill="none" stroke="#FFE999" stroke-width="0.75" d="M861.7,313.8c0,8.6-7,15.6-15.7,15.6c-8.6,0-15.7-7-15.7-15.6
	c0-8.7,7-15.7,15.7-15.7C854.7,298.1,861.7,305.1,861.7,313.8"/>
<path fill="#EBFAEB" d="M792.9,452.5c0,8.6-7,15.6-15.6,15.6c-8.6,0-15.6-7-15.6-15.6c0-8.6,7-15.6,15.6-15.6
	C785.9,436.9,792.9,443.9,792.9,452.5"/>
<path fill="none" stroke="#2CA02C" stroke-width="0.75" d="M792.9,452.5c0,8.6-7,15.6-15.6,15.6c-8.6,0-15.6-7-15.6-15.6
	c0-8.6,7-15.6,15.6-15.6C785.9,436.9,792.9,443.9,792.9,452.5"/>
<path fill="#E8FBFC" d="M1052.7,229.7c0,8.6-7,15.6-15.6,15.6c-8.6,0-15.6-7-15.6-15.6c0-8.6,7-15.6,15.6-15.6
	C1045.8,214.1,1052.7,221,1052.7,229.7"/>
<path fill="none" stroke="#17BECF" stroke-width="0.75" d="M1052.7,229.7c0,8.6-7,15.6-15.6,15.6c-8.6,0-15.6-7-15.6-15.6
	c0-8.6,7-15.6,15.6-15.6C1045.8,214.1,1052.7,221,1052.7,229.7"/>
<path fill="#FBEAF6" d="M942.8,356.5c0,8.6-7,15.6-15.6,15.6c-8.6,0-15.6-7-15.6-15.6s7-15.6,15.6-15.6
	C935.9,340.9,942.8,347.9,942.8,356.5"/>
<path fill="none" stroke="#E377C2" stroke-width="0.75" d="M942.8,356.5c0,8.6-7,15.6-15.6,15.6c-8.6,0-15.6-7-15.6-15.6
	s7-15.6,15.6-15.6C935.9,340.9,942.8,347.9,942.8,356.5"/>
<path fill="#EBFAEB" d="M958.9,294.9c0,8.6-7,15.5-15.5,15.5c-8.6,0-15.5-6.9-15.5-15.5c0-8.6,6.9-15.5,15.5-15.5
	C951.9,279.4,958.9,286.4,958.9,294.9"/>
<path fill="none" stroke="#2CA02C" stroke-width="0.75" d="M958.9,294.9c0,8.6-7,15.5-15.5,15.5c-8.6,0-15.5-6.9-15.5-15.5
	c0-8.6,6.9-15.5,15.5-15.5C951.9,279.4,958.9,286.4,958.9,294.9"/>
<path fill="#F2F2F2" d="M896,318.7c0,8.5-6.9,15.4-15.4,15.4c-8.5,0-15.4-6.9-15.4-15.4c0-8.5,6.9-15.4,15.4-15.4
	C889.1,303.3,896,310.2,896,318.7"/>
<path fill="none" stroke="#7F7F7F" stroke-width="0.75" d="M896,318.7c0,8.5-6.9,15.4-15.4,15.4c-8.5,0-15.4-6.9-15.4-15.4
	c0-8.5,6.9-15.4,15.4-15.4C889.1,303.3,896,310.2,896,318.7"/>
<path fill="#EDFCE9" d="M879.1,320.9c0,8.5-6.9,15.4-15.4,15.4c-8.5,0-15.4-6.9-15.4-15.4c0-8.5,6.9-15.4,15.4-15.4
	C872.2,305.5,879.1,312.4,879.1,320.9"/>
<path fill="none" stroke="#3AB11A" stroke-width="0.75" d="M879.1,320.9c0,8.5-6.9,15.4-15.4,15.4c-8.5,0-15.4-6.9-15.4-15.4
	c0-8.5,6.9-15.4,15.4-15.4C872.2,305.5,879.1,312.4,879.1,320.9"/>
<path fill="#F2F2F2" d="M839.6,288.9c0,8.5-6.9,15.4-15.4,15.4c-8.5,0-15.4-6.9-15.4-15.4c0-8.5,6.9-15.4,15.4-15.4
	C832.7,273.5,839.6,280.4,839.6,288.9"/>
<path fill="none" stroke="#7F7F7F" stroke-width="0.75" d="M839.6,288.9c0,8.5-6.9,15.4-15.4,15.4c-8.5,0-15.4-6.9-15.4-15.4
	c0-8.5,6.9-15.4,15.4-15.4C832.7,273.5,839.6,280.4,839.6,288.9"/>
<path fill="#FFE5E5" d="M929.6,225.8c0,8.5-6.9,15.4-15.4,15.4c-8.5,0-15.4-6.9-15.4-15.4c0-8.5,6.9-15.4,15.4-15.4
	C922.7,210.4,929.6,217.3,929.6,225.8"/>
<path fill="none" stroke="#FF0000" stroke-width="0.75" d="M929.6,225.8c0,8.5-6.9,15.4-15.4,15.4c-8.5,0-15.4-6.9-15.4-15.4
	c0-8.5,6.9-15.4,15.4-15.4C922.7,210.4,929.6,217.3,929.6,225.8"/>
<path fill="#FFE5E5" d="M877.1,246.3c0,8.4-6.8,15.3-15.3,15.3c-8.4,0-15.3-6.8-15.3-15.3c0-8.4,6.8-15.3,15.3-15.3
	C870.3,231.1,877.1,237.9,877.1,246.3"/>
<path fill="none" stroke="#FF0000" stroke-width="0.75" d="M877.1,246.3c0,8.4-6.8,15.3-15.3,15.3c-8.4,0-15.3-6.8-15.3-15.3
	c0-8.4,6.8-15.3,15.3-15.3C870.3,231.1,877.1,237.9,877.1,246.3"/>
<path fill="#FEEDE7" d="M988.4,215.2c0,8.4-6.8,15.3-15.3,15.3c-8.4,0-15.3-6.8-15.3-15.3c0-8.4,6.8-15.3,15.3-15.3
	C981.6,200,988.4,206.8,988.4,215.2"/>
<path fill="none" stroke="#5E1F05" stroke-width="0.75" d="M988.4,215.2c0,8.4-6.8,15.3-15.3,15.3c-8.4,0-15.3-6.8-15.3-15.3
	c0-8.4,6.8-15.3,15.3-15.3C981.6,200,988.4,206.8,988.4,215.2"/>
<path fill="#EBFAEB" d="M790.9,437.5c0,8.4-6.8,15.2-15.2,15.2c-8.4,0-15.2-6.8-15.2-15.2c0-8.4,6.8-15.2,15.2-15.2
	C784.1,422.2,790.9,429.1,790.9,437.5"/>
<path fill="none" stroke="#2CA02C" stroke-width="0.75" d="M790.9,437.5c0,8.4-6.8,15.2-15.2,15.2c-8.4,0-15.2-6.8-15.2-15.2
	c0-8.4,6.8-15.2,15.2-15.2C784.1,422.2,790.9,429.1,790.9,437.5"/>
<path fill="#FEEDE7" d="M785.3,366.3c0,8.4-6.8,15.2-15.2,15.2c-8.4,0-15.2-6.8-15.2-15.2c0-8.4,6.8-15.2,15.2-15.2
	C778.5,351.1,785.3,357.9,785.3,366.3"/>
<path fill="none" stroke="#5E1F05" stroke-width="0.75" d="M785.3,366.3c0,8.4-6.8,15.2-15.2,15.2c-8.4,0-15.2-6.8-15.2-15.2
	c0-8.4,6.8-15.2,15.2-15.2C778.5,351.1,785.3,357.9,785.3,366.3"/>
<path fill="#FEEDE7" d="M1009.1,163.1c0,8.4-6.8,15.1-15.1,15.1c-8.4,0-15.1-6.8-15.1-15.1c0-8.4,6.8-15.1,15.1-15.1
	C1002.3,147.9,1009.1,154.7,1009.1,163.1"/>
<path fill="none" stroke="#5E1F05" stroke-width="0.75" d="M1009.1,163.1c0,8.4-6.8,15.1-15.1,15.1c-8.4,0-15.1-6.8-15.1-15.1
	c0-8.4,6.8-15.1,15.1-15.1C1002.3,147.9,1009.1,154.7,1009.1,163.1"/>
<path fill="#FEEDE7" d="M872.7,241.7c0,8.3-6.8,15.1-15.1,15.1c-8.3,0-15.1-6.7-15.1-15.1c0-8.3,6.8-15.1,15.1-15.1
	C865.9,226.6,872.7,233.3,872.7,241.7"/>
<path fill="none" stroke="#5E1F05" stroke-width="0.75" d="M872.7,241.7c0,8.3-6.8,15.1-15.1,15.1c-8.3,0-15.1-6.7-15.1-15.1
	c0-8.3,6.8-15.1,15.1-15.1C865.9,226.6,872.7,233.3,872.7,241.7"/>
<path fill="#EBFAEB" d="M785.3,426c0,8.3-6.7,15-15,15s-15-6.7-15-15c0-8.3,6.7-15,15-15S785.3,417.7,785.3,426"/>
<path fill="none" stroke="#2CA02C" stroke-width="0.75" d="M785.3,426c0,8.3-6.7,15-15,15s-15-6.7-15-15c0-8.3,6.7-15,15-15
	S785.3,417.7,785.3,426"/>
<path fill="#EBFAEB" d="M922.8,339.6c0,8.3-6.7,15-15,15c-8.3,0-15-6.7-15-15c0-8.3,6.7-15,15-15C916,324.6,922.8,331.3,922.8,339.6
	"/>
<path fill="none" stroke="#2CA02C" stroke-width="0.75" d="M922.8,339.6c0,8.3-6.7,15-15,15c-8.3,0-15-6.7-15-15c0-8.3,6.7-15,15-15
	C916,324.6,922.8,331.3,922.8,339.6"/>
<path fill="#FAFFE5" d="M916.6,309.6c0,8.3-6.7,15-15,15c-8.3,0-15-6.7-15-15c0-8.3,6.7-15,15-15
	C909.9,294.6,916.6,301.3,916.6,309.6"/>
<path fill="none" stroke="#D1FF00" stroke-width="0.75" d="M916.6,309.6c0,8.3-6.7,15-15,15c-8.3,0-15-6.7-15-15c0-8.3,6.7-15,15-15
	C909.9,294.6,916.6,301.3,916.6,309.6"/>
<path fill="#E8FBFC" d="M1001.2,227.5c0,8.3-6.7,15-15,15c-8.3,0-15-6.7-15-15c0-8.3,6.7-15,15-15
	C994.5,212.5,1001.2,219.3,1001.2,227.5"/>
<path fill="none" stroke="#17BECF" stroke-width="0.75" d="M1001.2,227.5c0,8.3-6.7,15-15,15c-8.3,0-15-6.7-15-15
	c0-8.3,6.7-15,15-15C994.5,212.5,1001.2,219.3,1001.2,227.5"/>
<path fill="#EDFAEB" d="M823.6,346.9c0,8.2-6.7,14.9-14.9,14.9c-8.2,0-14.9-6.7-14.9-14.9c0-8.2,6.7-14.9,14.9-14.9
	C816.9,332,823.6,338.7,823.6,346.9"/>
<path fill="none" stroke="#98DF8A" stroke-width="0.75" d="M823.6,346.9c0,8.2-6.7,14.9-14.9,14.9c-8.2,0-14.9-6.7-14.9-14.9
	c0-8.2,6.7-14.9,14.9-14.9C816.9,332,823.6,338.7,823.6,346.9"/>
<path fill="#EBFAEB" d="M800.9,417.9c0,8.2-6.6,14.8-14.8,14.8c-8.2,0-14.8-6.6-14.8-14.8c0-8.2,6.6-14.8,14.8-14.8
	C794.3,403.1,800.9,409.7,800.9,417.9"/>
<path fill="none" stroke="#2CA02C" stroke-width="0.75" d="M800.9,417.9c0,8.2-6.6,14.8-14.8,14.8c-8.2,0-14.8-6.6-14.8-14.8
	c0-8.2,6.6-14.8,14.8-14.8C794.3,403.1,800.9,409.7,800.9,417.9"/>
<path fill="#FAFFE5" d="M972.1,418.6c0,8.1-6.6,14.7-14.7,14.7s-14.7-6.6-14.7-14.7s6.6-14.7,14.7-14.7S972.1,410.5,972.1,418.6"/>
<path fill="none" stroke="#D1FF00" stroke-width="0.75" d="M972.1,418.6c0,8.1-6.6,14.7-14.7,14.7s-14.7-6.6-14.7-14.7
	s6.6-14.7,14.7-14.7S972.1,410.5,972.1,418.6"/>
<path fill="#FBEAF6" d="M1068.5,156.1c0,8.1-6.6,14.7-14.7,14.7c-8.1,0-14.7-6.6-14.7-14.7c0-8.1,6.6-14.7,14.7-14.7
	C1061.9,141.4,1068.5,148,1068.5,156.1"/>
<path fill="none" stroke="#E377C2" stroke-width="0.75" d="M1068.5,156.1c0,8.1-6.6,14.7-14.7,14.7c-8.1,0-14.7-6.6-14.7-14.7
	c0-8.1,6.6-14.7,14.7-14.7C1061.9,141.4,1068.5,148,1068.5,156.1"/>
<path fill="#FDF0E7" d="M999.5,233.6c0,8.1-6.6,14.6-14.6,14.6c-8.1,0-14.6-6.6-14.6-14.6c0-8.1,6.6-14.6,14.6-14.6
	C992.9,219,999.5,225.5,999.5,233.6"/>
<path fill="none" stroke="#D66011" stroke-width="0.75" d="M999.5,233.6c0,8.1-6.6,14.6-14.6,14.6c-8.1,0-14.6-6.6-14.6-14.6
	c0-8.1,6.6-14.6,14.6-14.6C992.9,219,999.5,225.5,999.5,233.6"/>
<path fill="#FDF0E7" d="M984.4,287.6c0,8-6.5,14.5-14.5,14.5c-8,0-14.5-6.5-14.5-14.5c0-8,6.5-14.5,14.5-14.5
	C977.9,273.1,984.4,279.6,984.4,287.6"/>
<path fill="none" stroke="#D66011" stroke-width="0.75" d="M984.4,287.6c0,8-6.5,14.5-14.5,14.5c-8,0-14.5-6.5-14.5-14.5
	c0-8,6.5-14.5,14.5-14.5C977.9,273.1,984.4,279.6,984.4,287.6"/>
<path fill="#FDF0E7" d="M1001.8,150c0,8-6.5,14.4-14.5,14.4c-8,0-14.4-6.5-14.4-14.4c0-8,6.5-14.5,14.4-14.5
	C995.3,135.6,1001.8,142.1,1001.8,150"/>
<path fill="none" stroke="#D66011" stroke-width="0.75" d="M1001.8,150c0,8-6.5,14.4-14.5,14.4c-8,0-14.4-6.5-14.4-14.4
	c0-8,6.5-14.5,14.4-14.5C995.3,135.6,1001.8,142.1,1001.8,150"/>
<path fill="#FFF8E5" d="M956.3,282c0,7.9-6.4,14.2-14.2,14.2c-7.9,0-14.2-6.4-14.2-14.2c0-7.9,6.4-14.2,14.2-14.2
	C950,267.7,956.3,274.1,956.3,282"/>
<path fill="none" stroke="#FFC41C" stroke-width="0.75" d="M956.3,282c0,7.9-6.4,14.2-14.2,14.2c-7.9,0-14.2-6.4-14.2-14.2
	c0-7.9,6.4-14.2,14.2-14.2C950,267.7,956.3,274.1,956.3,282"/>
</svg>
