<?xml version="1.0" encoding="utf-8"?>
<!-- Generator: Adobe Illustrator 18.1.0, SVG Export Plug-In . SVG Version: 6.00 Build 0)  -->
<svg version="1.1" id="Layer_1" xmlns="http://www.w3.org/2000/svg" xmlns:xlink="http://www.w3.org/1999/xlink" x="0px" y="0px"
	 viewBox="0 0 1500 625" enable-background="new 0 0 1500 625" xml:space="preserve">
<path fill="#E15E69" stroke="#FFFFFF" stroke-width="1.5" stroke-miterlimit="10" d="M357.5,33.8c-1.5,0-3.1,0-4.6,0
	c-29.4,0.4-59.8,3.5-88.2,6.8s-58.9,12.9-88.2,13.7c-1.5,0-3,0.1-4.5,0.1c-28,0-56.6-6.4-83.7-9.2c-28.7-3-74-7.7-88.3-9.2v13.7
	c14,2,60.2,8.6,88.2,12.4c28,3.8,58.8,11.6,88.2,11.8c0.4,0,0.9,0,1.3,0c29,0,58.5-7.8,86.9-10.4c26.7-2.4,54.5-5.5,81.9-5.5
	c2.1,0,4.2,0,6.3,0.1c29.4,0.5,59.2,6.6,88.2,8.6c29.1,2,58.8,3.4,88.2,3.6c1.1,0,2.3,0,3.4,0c28.3,0,56.6-2.3,84.9-2.4
	c1.3,0,2.6,0,3.9,0c28.1,0,56.2,1.2,84.3,1.7c29.4,0.6,58.8,1.5,88.2,1.6c6.1,0,12.3,0,18.4,0c23.3,0,46.6-0.1,69.8-0.5
	c29.4-0.5,58.8-5.4,88.2-5.8c6.9-0.1,13.9-0.1,20.8-0.1c22.5,0,45,0.4,67.4,0.6c29.4,0.3,58.9,2.6,88.2,3.6c29.3,1,59,1.3,88.2,2.6
	c29.3,1.3,58.8,5,88.2,5c22.2,0,44.5,0.1,66.7,0.1c7.2,0,14.4,0,21.6,0c29.4,0,73.6-3.9,88.2-4.6V45.7c-14.5,1-58.9,4.9-88.2,5.8
	c-23.8,0.8-47.7,1-71.6,1c-5.5,0-11.1,0-16.6,0c-29.4-0.1-58.8-1.1-88.2-1.7c-29.4-0.5-58.9-0.5-88.2-1.5c-29.3-1-58.9-3.6-88.2-4.6
	c-23.4-0.8-47-1.9-70.5-1.9c-5.9,0-11.8,0.1-17.7,0.2c-29.4,0.8-58.9,5.5-88.2,6.3c-5.2,0.1-10.5,0.2-15.7,0.2
	c-24.1,0-48.4-1.3-72.5-1.7c-29.4-0.5-58.8-1.1-88.2-1.7c-29.4-0.6-58.9-1.3-88.2-2c-29.4-0.7-58.9-1.4-88.2-2.4
	c-29.3-0.9-59-2-88.2-3.3C413.4,37,385.4,33.8,357.5,33.8"/>
<path fill="#B43F67" stroke="#FFFFFF" stroke-width="1.5" stroke-miterlimit="10" d="M0,51.1v14.7C13.3,68.4,61.7,78,88.2,83.4
	c26.6,5.4,59.1,16.1,88.2,18c3.8,0.3,7.6,0.4,11.4,0.4c25.5,0,51.6-5,76.8-6.7c25.6-1.8,52-6.3,77.9-6.3c3.5,0,6.9,0.1,10.4,0.3
	c29.2,1.5,59.8,12,88.2,15.3c26,3,53.6,5.2,80.7,5.2c2.5,0,5.1,0,7.6-0.1c29.4-0.5,58.9-7.2,88.2-7.9c7-0.2,13.9-0.2,20.9-0.2
	c22.4,0,44.9,0.7,67.4,1.1c29.4,0.5,58.9,3.4,88.2,4.5c25.6,0.9,51.3,1.8,77,1.8c3.7,0,7.5,0,11.2-0.1c29.2-0.3,58.5-3.6,87.8-3.6
	c0.2,0,0.3,0,0.5,0c29.4,0,59,2.3,88.2,3.8s59.4,2.8,88.2,5.4c28.8,2.6,59.5,7.7,88.2,10.3c28.8,2.7,58.8,5.6,88.2,6.1
	c1.7,0,3.4,0,5.2,0c27.7,0,55.4-3.3,83.1-3.3c5.7,0,11.9,0,18.3,0c27,0,58.1,0.1,70,0.1V73.6c-14.6,0.8-58.8,4.6-88.2,4.6
	c-7.2,0-14.3,0-21.5,0c-22.2,0-44.5-0.1-66.7-0.1c-29.4-0.1-59-3.8-88.2-5c-29.3-1.3-58.9-1.5-88.2-2.6c-29.3-1-58.8-3.3-88.2-3.6
	c-22.5-0.2-44.9-0.6-67.4-0.6c-6.9,0-13.9,0-20.8,0.1c-29.4,0.4-58.8,5.3-88.2,5.8c-23.3,0.4-46.5,0.5-69.8,0.5
	c-6.1,0-12.3,0-18.4,0c-29.4-0.1-58.8-1.1-88.2-1.6c-28.1-0.5-56.2-1.7-84.3-1.7c-1.3,0-2.6,0-3.9,0c-28.3,0.1-56.6,2.4-84.9,2.4
	c-1.1,0-2.3,0-3.4,0c-29.4-0.2-59.2-1.6-88.2-3.6s-58.8-8.1-88.2-8.6c-2.1,0-4.2-0.1-6.3-0.1c-27.3,0-55.2,3.1-81.9,5.5
	c-28.4,2.5-57.9,10.4-86.9,10.4c-0.4,0-0.9,0-1.3,0c-29.4-0.2-60.2-8-88.2-11.8C60.2,59.7,14,53.1,0,51.1"/>
<path fill="#AE42A0" stroke="#FFFFFF" stroke-width="1.5" stroke-miterlimit="10" d="M373.1,23.2c-6.7,0-13.4,0.1-20.1,0.3
	c-29.3,0.9-59.9,4.1-88.2,7.4c-28.4,3.4-58.9,12.7-88.2,13.4c-1.5,0-3,0.1-4.5,0.1c-27.9,0-56.4-6.4-83.7-8.9
	c-28.8-2.6-73.8-5.9-88.2-7v6.2c14.3,1.5,59.6,6.1,88.2,9.1c27,2.7,55.6,9.2,83.6,9.2c1.5,0,3,0,4.5-0.1
	c29.4-0.8,59.8-10.4,88.2-13.7s58.8-6.4,88.2-6.8c1.5,0,3.1,0,4.6,0c27.9,0,55.9,3.3,83.7,4.5c29.3,1.3,58.9,2.4,88.2,3.3
	c29.3,0.9,58.9,1.6,88.2,2.4c29.4,0.7,58.9,1.4,88.2,2c29.4,0.6,58.8,1.2,88.2,1.7c24.1,0.4,48.4,1.7,72.5,1.7
	c5.2,0,10.5-0.1,15.7-0.2c29.4-0.8,58.9-5.5,88.2-6.3c5.9-0.2,11.8-0.2,17.7-0.2c23.5,0,47.1,1.1,70.5,1.9c29.3,1,58.9,3.6,88.2,4.6
	c29.3,1,58.8,1,88.2,1.5c29.4,0.5,58.8,1.6,88.2,1.7c5.5,0,11.1,0,16.6,0c23.9,0,47.8-0.2,71.6-1c29.3-0.9,73.7-4.8,88.2-5.8V29.4
	c-14.5,1-58.9,5.6-88.2,6.2c-3.5,0.1-7,0.1-10.5,0.1c-25.9,0-51.9-1.8-77.7-2.6c-29.3-0.8-58.8-2.4-88.2-2.5c-3,0-6.1,0-9.1,0
	c-11,0-22,0-33,0.1c-11,0-22,0.1-33,0.1c-4.4,0-8.8,0-13.2,0c-29.4-0.1-58.9-2.6-88.2-3.5c-25.9-0.8-51.9-1.8-77.8-1.8
	c-3.5,0-6.9,0-10.4,0.1c-29.4,0.3-58.8,3.4-88.2,3.7c-2.8,0-5.6,0-8.4,0c-26.6,0-53.2-1.4-79.8-1.7c-29.4-0.3-58.8-0.2-88.2-0.4
	c-29.4-0.1-58.8-0.4-88.2-0.4s-58.8,0-88.2-0.1c-29.4-0.1-58.8-1.9-88.2-2.4C418.5,24.1,395.7,23.2,373.1,23.2"/>
<path fill="#67BAE8" stroke="#FFFFFF" stroke-width="1.5" stroke-miterlimit="10" d="M0,88.6v220.8c13.5,2.5,60.2,12.3,88.2,16.1
	c28.1,3.8,58.9,6.8,88.2,7.7c3.9,0.1,7.9,0.2,11.8,0.2c25.4,0,51-2.2,76.4-2.4c23.2-0.2,46.5-1.9,69.6-1.9c6.2,0,12.4,0.1,18.6,0.4
	c29.2,1.4,61.9,16.9,88.2,22.5s58.9,14.2,88.2,15c5.9,0.2,11.7,0.2,17.6,0.2c23.5,0,47.1-1.1,70.6-1.1c29.4,0,58.9,0,88.2,0.8
	s59.5,9.9,88.2,12.6c23.6,2.2,48.1,4.5,72.3,4.5c5.3,0,10.6-0.1,15.9-0.3c29.3-1.3,58.8-11.9,88.2-12.1s58.8-0.2,88.2-0.2
	c23.5,0,47.1-1,70.6-1c5.9,0,11.8,0.1,17.6,0.2c29.3,0.8,58.9,23.9,88.2,25c6.5,0.2,13,0.3,19.5,0.3c22.9,0,45.8-1.2,68.7-1.5
	c29.4-0.4,58.8-6.9,88.2-7.2c0.8,0,1.5,0,2.3,0c29.4,0,71.7,4.7,85.9,5.6V190.9c-11.7-0.2-42.2-2.2-68.9-2.2
	c-6.8,0-13.4,0.1-19.4,0.4c-29.2,1.5-58.9,10.2-88.2,11.1c-3.2,0.1-6.4,0.1-9.6,0.1c-26.3,0-53.1-3.2-78.6-5.7
	c-28.7-2.8-59-10.2-88.2-11.6c-3.8-0.2-7.6-0.3-11.4-0.3c-25.5,0-51.2,3.5-76.8,3.6c-0.2,0-0.4,0-0.6,0c-13.2,0-26.4-0.8-39.6-1.6
	c-13.2-0.8-26.4-1.6-39.6-1.6c-2.8,0-5.6,0-8.4,0.1c-29.4,0.8-58.8,7.5-88.2,7.9c-2.1,0-4.2,0-6.3,0c-27.4,0-55.4-2.5-81.9-5.3
	c-28.6-3-59.2-10.8-88.2-13s-58.8-1.8-88.2-2.2s-59.1-0.1-88.2-1.7c-29.2-1.6-62.1-6.4-88.2-12.1c-26.1-5.7-59.4-24-88.2-26.6
	c-23.8-2.1-48.3-2.7-72.6-2.7c-5.2,0-10.4,0-15.6,0.1c-25.1,0.2-50.7,5.9-75.5,5.9c-4.3,0-8.5-0.2-12.7-0.6
	c-28.8-2.7-63-15.4-88.2-21.8C63,105.1,12.5,91.8,0,88.6"/>
<path fill="#00A1E4" stroke="#FFFFFF" stroke-width="1.5" stroke-miterlimit="10" d="M0,6.9v20.3c14.5,1.1,59.4,4.4,88.2,7
	c27.3,2.5,55.8,8.9,83.7,8.9c1.5,0,3,0,4.5-0.1c29.4-0.8,59.9-10.1,88.2-13.4c28.4-3.4,58.9-6.6,88.2-7.4c6.7-0.2,13.4-0.3,20.1-0.3
	c22.7,0,45.4,0.9,68.1,1.3c29.4,0.5,58.8,2.3,88.2,2.4s58.8,0.1,88.2,0.1s58.8,0.3,88.2,0.4s58.8,0,88.2,0.4
	c26.6,0.3,53.2,1.7,79.8,1.7c2.8,0,5.6,0,8.4,0c29.4-0.3,58.8-3.4,88.2-3.7c3.5,0,6.9-0.1,10.4-0.1c25.9,0,51.9,1,77.8,1.8
	c29.3,0.9,58.8,3.4,88.2,3.5c4.4,0,8.8,0,13.2,0c11,0,22,0,32.9-0.1c11,0,22-0.1,33-0.1c3,0,6.1,0,9.1,0c29.4,0.1,58.9,1.7,88.2,2.5
	c25.8,0.7,51.8,2.6,77.7,2.6c3.5,0,7,0,10.5-0.1c29.4-0.6,73.7-5.2,88.2-6.2v-5.6c-14.5,1-58.8,6-88.2,6.3c-1.6,0-3.2,0-4.8,0
	c-27.8,0-55.8-2.9-83.4-4.1c-29.3-1.4-58.8-3.5-88.2-4c-3.5-0.1-7.1-0.1-10.6-0.1c-11.6,0-23.3,0.3-35,0.6
	c-11.7,0.3-23.3,0.6-34.9,0.6c-2.6,0-5.2,0-7.7,0c-29.4-0.4-58.9-2-88.2-3.1c-29.3-1.1-58.8-3.5-88.2-3.7
	c-29.4-0.3-58.8-0.2-88.2-0.3s-58.8-1-88.2-1.3s-58.8-0.5-88.2-0.7s-58.8-0.7-88.2-0.7c-0.8,0-1.6,0-2.5,0
	c-13.4,0-26.8,0.1-40.2,0.2c-13.4,0.1-26.8,0.2-40.2,0.2c-1.8,0-3.6,0-5.4,0c-29.4-0.1-58.8-0.5-88.2-1c-29.4-0.5-58.8-1.7-88.2-2.1
	c-23.5-0.4-47-0.6-70.5-0.6c-5.9,0-11.8,0-17.8,0.1c-27.6,0.2-55.3,1.8-82.9,1.8c-1.8,0-3.5,0-5.3,0c-29.4-0.2-58.8-2.7-88.2-3.1
	C58.8,6.9,14.7,6.9,0,6.9"/>
<path fill="#BAE1F6" stroke="#FFFFFF" stroke-width="1.5" stroke-miterlimit="10" d="M0,310.8V625h1500V394.1
	c-14.2-0.9-56.5-5.6-85.9-5.6c-0.8,0-1.6,0-2.3,0c-29.4,0.3-58.8,6.8-88.2,7.2c-22.9,0.3-45.8,1.5-68.7,1.5c-6.5,0-13-0.1-19.5-0.3
	c-29.3-1.1-58.9-24.1-88.2-25c-5.9-0.2-11.8-0.2-17.6-0.2c-23.5,0-47.1,1-70.6,1c-29.4,0-58.8,0-88.2,0.2s-59,10.8-88.2,12.1
	c-5.3,0.2-10.6,0.3-15.9,0.3c-24.2,0-48.8-2.2-72.3-4.5c-28.7-2.7-58.9-11.8-88.2-12.6c-29.4-0.8-58.8-0.8-88.2-0.8
	c-23.5,0-47.1,1.1-70.6,1.1c-5.9,0-11.8-0.1-17.6-0.2c-29.4-0.8-61.9-9.4-88.2-15c-26.3-5.6-59-21-88.2-22.5
	c-6.2-0.3-12.4-0.4-18.6-0.4c-23.1,0-46.4,1.7-69.6,1.9c-25.5,0.2-51,2.4-76.4,2.4c-3.9,0-7.9-0.1-11.8-0.2
	c-29.3-0.9-60.2-3.9-88.2-7.7C60.2,323.1,13.5,313.2,0,310.8"/>
<path fill="#3FAACD" stroke="#FFFFFF" stroke-width="1.5" stroke-miterlimit="10" d="M70.2,3.3c-27.1,0-58.3,0-70.2,0v2.2
	c14.7,0.1,58.8,0,88.2,0.5s58.8,2.9,88.2,3.1c1.8,0,3.5,0,5.3,0c27.6,0,55.3-1.6,82.9-1.8c5.9,0,11.8-0.1,17.8-0.1
	c23.5,0,47,0.3,70.5,0.6c29.4,0.4,58.8,1.6,88.2,2.1c29.4,0.5,58.8,0.9,88.2,1c1.8,0,3.6,0,5.4,0c13.4,0,26.8-0.1,40.2-0.2
	c13.4-0.1,26.8-0.2,40.2-0.2c0.8,0,1.6,0,2.5,0c29.4,0,58.8,0.4,88.2,0.7c29.4,0.2,58.8,0.4,88.2,0.7s58.8,1.2,88.2,1.3
	s58.8,0,88.2,0.3s58.9,2.6,88.2,3.7s58.8,2.8,88.2,3.1c2.6,0,5.2,0,7.7,0c11.6,0,23.3-0.3,34.9-0.6c11.7-0.3,23.3-0.6,35-0.6
	c3.5,0,7.1,0,10.6,0.1c29.4,0.5,59,2.7,88.2,4c27.7,1.3,55.6,4.1,83.4,4.1c1.6,0,3.2,0,4.8,0c29.4-0.4,73.7-5.3,88.2-6.3V6.6
	c-14.6,0.8-58.8,4.4-88.2,4.8c-2.5,0-5,0.1-7.6,0.1c-26.9,0-53.8-1.8-80.7-2.4c-29.4-0.6-58.8-1.4-88.2-1.4c-0.1,0-0.1,0-0.2,0
	c-14.3,0-28.6,0.3-42.9,0.7c-14.3,0.3-28.6,0.7-42.9,0.7c-0.7,0-1.5,0-2.2,0c-29.4-0.1-58.8-1.7-88.2-1.8c-5.8,0-11.6,0-17.4,0
	c-23.6,0-47.2,0-70.8,0c-27.6,0-55.3,0.4-82.9,0.4c-1.8,0-3.5,0-5.3,0c-29.4-0.1-58.8-0.5-88.2-0.8s-58.8-0.5-88.2-0.7
	s-58.8-0.4-88.2-0.4c-7.7,0-15.4,0-23.2,0c-21.7,0-43.4,0-65.1,0c-23.8,0-47.6,0.5-71.4,0.5c-5.6,0-11.2,0-16.9-0.1
	c-29.4-0.3-58.8-2-88.2-2.3c-29.4-0.3-58.8-0.3-88.2-0.3c-29.4-0.1-58.8,0-88.2-0.1s-58.8-0.2-88.2-0.2C82.7,3.3,76.6,3.3,70.2,3.3"
	/>
<path fill="#7DA790" stroke="#FFFFFF" stroke-width="1.5" stroke-miterlimit="10" d="M1500,0C1500,0,14.7,0,0,0v1.9
	c11.9,0,43.2,0,70.2,0c6.3,0,12.4,0,18,0c29.4,0,58.8,0.2,88.2,0.2s58.8,0,88.2,0.1s58.8,0,88.2,0.3c29.4,0.3,58.8,2,88.2,2.3
	c5.6,0.1,11.2,0.1,16.9,0.1c23.8,0,47.6-0.4,71.4-0.5c21.7,0,43.4,0,65.2,0c7.7,0,15.4,0,23.1,0c29.4,0,58.8,0.2,88.2,0.4
	C735.2,5,764.6,5.3,794,5.5s58.8,0.7,88.2,0.8c1.8,0,3.6,0,5.3,0c27.6,0,55.3-0.4,82.9-0.4c23.4,0,46.9,0,70.3,0c6,0,11.9,0,17.9,0
	c29.4,0,58.8,1.7,88.2,1.8c0.7,0,1.5,0,2.2,0c14.3,0,28.6-0.3,42.9-0.7c14.3-0.3,28.6-0.7,42.9-0.7c0.1,0,0.1,0,0.2,0
	c29.4,0,58.8,0.8,88.2,1.4c26.9,0.6,53.8,2.4,80.7,2.4c2.5,0,5,0,7.6-0.1c29.4-0.4,73.6-4,88.2-4.8V0"/>
<path fill="#EDC99E" stroke="#FFFFFF" stroke-width="1.5" stroke-miterlimit="10" d="M0,67.2v20.1c12.5,3.2,63,16.5,88.2,22.9
	s59.5,19.1,88.2,21.8c4.2,0.4,8.5,0.6,12.7,0.6c24.8,0,50.4-5.7,75.5-5.9c5.2,0,10.4-0.1,15.6-0.1c24.4,0,48.9,0.6,72.7,2.7
	c28.8,2.5,62.1,20.8,88.2,26.6c26.1,5.7,59.1,10.5,88.2,12.1c29.2,1.6,58.8,1.3,88.2,1.7s59.2,0.1,88.2,2.2
	c29,2.1,59.6,10.1,88.2,13c26.6,2.8,54.5,5.3,81.9,5.3c2.1,0,4.2,0,6.3,0c29.4-0.4,58.9-7.1,88.2-7.9c2.8-0.1,5.6-0.1,8.4-0.1
	c13.2,0,26.4,0.8,39.6,1.6s26.4,1.6,39.6,1.6c0.2,0,0.4,0,0.6,0c25.6,0,51.3-3.6,76.8-3.6c3.8,0,7.6,0.1,11.4,0.3
	c29.2,1.4,59.5,8.8,88.2,11.6c25.6,2.5,52.4,5.7,78.6,5.7c3.2,0,6.4,0,9.6-0.1c29.3-0.9,59-9.6,88.2-11.1c6-0.3,12.5-0.4,19.4-0.4
	c26.7,0,57.2,1.9,68.9,2.2v-60.9c-11.9,0-43-0.1-70-0.1c-6.4,0-12.6,0-18.2,0c-27.7,0.1-55.4,3.3-83.1,3.3c-1.7,0-3.4,0-5.2,0
	c-29.4-0.5-59.5-3.4-88.2-6.1c-28.8-2.7-59.4-7.8-88.2-10.3c-28.8-2.6-59-3.9-88.2-5.4s-58.8-3.8-88.2-3.8c-0.2,0-0.3,0-0.5,0
	c-29.3,0-58.5,3.3-87.8,3.6c-3.7,0-7.5,0.1-11.2,0.1c-25.7,0-51.4-0.9-77-1.8c-29.3-1-58.8-3.9-88.2-4.4
	c-22.4-0.4-44.9-1.1-67.4-1.1c-7,0-13.9,0.1-20.9,0.2c-29.4,0.7-58.8,7.5-88.2,7.9c-2.5,0-5,0.1-7.6,0.1c-27,0-54.7-2.2-80.7-5.2
	c-28.4-3.3-59-13.8-88.2-15.3c-3.5-0.2-6.9-0.3-10.4-0.3c-25.9,0-52.2,4.5-77.9,6.3c-25.2,1.8-51.3,6.7-76.8,6.7
	c-3.8,0-7.6-0.1-11.4-0.4c-29.1-1.9-61.7-12.7-88.2-18C61.7,79.4,13.3,69.8,0,67.2"/>
</svg>
