<svg width="748" height="520" style="z-index: 10; position: absolute; "><rect id="svgbg" fill="#ffffff" width="748" height="520"></rect><g class="titles"><g class="total_bar" style="opacity: 1; "><text x="374" y="0" font-size="13" fill="#333" text-anchor="middle" font-family="PT Sans Narrow" style="font-weight: lighter; "><tspan x="374" dy="13px">$1.54T USD</tspan></text></g></g><clipPath id="clipping"><rect width="748" height="500"></rect></clipPath><g class="parent" width="748" height="500" clip-path="url(#clipping)" transform="translate(0,20)"><g class="axes_labels"><text class="x_axis_label" x="374" y="490" font-family="sans-serif" font-size="14px" font-weight="lighter" fill="#333" text-anchor="middle">Distance</text><text class="y_axis_label" y="15" x="-220.60556625763832" transform="rotate(-90)" font-family="sans-serif" font-size="14px" font-weight="lighter" fill="#333" text-anchor="middle">Complexity</text></g><g class="chart" transform="translate(61,5)"><rect style="fill: #fafafa; " id="background" x="0" y="0" width="677" height="431.21113251527663" stroke-width="1" stroke="#ccc" shape-rendering="crispEdges"></rect><g transform="translate(0,431.21113251527663)" class="xaxis"><g class="tick" style="opacity: 1; " transform="translate(16.777505446622957,0)"><line y2="0" x2="0"></line><text style="font-family: sans-serif; font-size: 12px; font-weight: lighter; fill: #888888; text-anchor: end; " transform="translate(-22,3)rotate(-65)" y="20" x="0" dy=".71em">0.76</text><line class="tick" x1="0" x2="0" y1="10" y2="-431.21113251527663" stroke="#ccc" stroke-width="1" shape-rendering="crispEdges" opacity="1"></line></g><g class="tick" style="opacity: 1; " transform="translate(81.12200435729844,0)"><line y2="0" x2="0"></line><text style="font-family: sans-serif; font-size: 12px; font-weight: lighter; fill: #888888; text-anchor: end; " transform="translate(-22,3)rotate(-65)" y="20" x="0" dy=".71em">0.78</text><line class="tick" x1="0" x2="0" y1="10" y2="-431.21113251527663" stroke="#ccc" stroke-width="1" shape-rendering="crispEdges" opacity="1"></line></g><g class="tick" style="opacity: 1; " transform="translate(145.46650326797393,0)"><line y2="0" x2="0"></line><text style="font-family: sans-serif; font-size: 12px; font-weight: lighter; fill: #888888; text-anchor: end; " transform="translate(-22,3)rotate(-65)" y="20" x="0" dy=".71em">0.8</text><line class="tick" x1="0" x2="0" y1="10" y2="-431.21113251527663" stroke="#ccc" stroke-width="1" shape-rendering="crispEdges" opacity="1"></line></g><g class="tick" style="opacity: 1; " transform="translate(209.81100217864903,0)"><line y2="0" x2="0"></line><text style="font-family: sans-serif; font-size: 12px; font-weight: lighter; fill: #888888; text-anchor: end; " transform="translate(-22,3)rotate(-65)" y="20" x="0" dy=".71em">0.82</text><line class="tick" x1="0" x2="0" y1="10" y2="-431.21113251527663" stroke="#ccc" stroke-width="1" shape-rendering="crispEdges" opacity="1"></line></g><g class="tick" style="opacity: 1; " transform="translate(274.15550108932456,0)"><line y2="0" x2="0"></line><text style="font-family: sans-serif; font-size: 12px; font-weight: lighter; fill: #888888; text-anchor: end; " transform="translate(-22,3)rotate(-65)" y="20" x="0" dy=".71em">0.84</text><line class="tick" x1="0" x2="0" y1="10" y2="-431.21113251527663" stroke="#ccc" stroke-width="1" shape-rendering="crispEdges" opacity="1"></line></g><g class="tick" style="opacity: 1; " transform="translate(338.5,0)"><line y2="0" x2="0"></line><text style="font-family: sans-serif; font-size: 12px; font-weight: lighter; fill: #888888; text-anchor: end; " transform="translate(-22,3)rotate(-65)" y="20" x="0" dy=".71em">0.86</text><line class="tick" x1="0" x2="0" y1="10" y2="-431.21113251527663" stroke="#ccc" stroke-width="1" shape-rendering="crispEdges" opacity="1"></line></g><g class="tick" style="opacity: 1; " transform="translate(402.8444989106755,0)"><line y2="0" x2="0"></line><text style="font-family: sans-serif; font-size: 12px; font-weight: lighter; fill: #888888; text-anchor: end; " transform="translate(-22,3)rotate(-65)" y="20" x="0" dy=".71em">0.88</text><line class="tick" x1="0" x2="0" y1="10" y2="-431.21113251527663" stroke="#ccc" stroke-width="1" shape-rendering="crispEdges" opacity="1"></line></g><g class="tick" style="opacity: 1; " transform="translate(467.188997821351,0)"><line y2="0" x2="0"></line><text style="font-family: sans-serif; font-size: 12px; font-weight: lighter; fill: #888888; text-anchor: end; " transform="translate(-22,3)rotate(-65)" y="20" x="0" dy=".71em">0.9</text><line class="tick" x1="0" x2="0" y1="10" y2="-431.21113251527663" stroke="#ccc" stroke-width="1" shape-rendering="crispEdges" opacity="1"></line></g><g class="tick" style="opacity: 1; " transform="translate(531.5334967320264,0)"><line y2="0" x2="0"></line><text style="font-family: sans-serif; font-size: 12px; font-weight: lighter; fill: #888888; text-anchor: end; " transform="translate(-22,3)rotate(-65)" y="20" x="0" dy=".71em">0.92</text><line class="tick" x1="0" x2="0" y1="10" y2="-431.21113251527663" stroke="#ccc" stroke-width="1" shape-rendering="crispEdges" opacity="1"></line></g><g class="tick" style="opacity: 1; " transform="translate(595.8779956427015,0)"><line y2="0" x2="0"></line><text style="font-family: sans-serif; font-size: 12px; font-weight: lighter; fill: #888888; text-anchor: end; " transform="translate(-22,3)rotate(-65)" y="20" x="0" dy=".71em">0.94</text><line class="tick" x1="0" x2="0" y1="10" y2="-431.21113251527663" stroke="#ccc" stroke-width="1" shape-rendering="crispEdges" opacity="1"></line></g><g class="tick" style="opacity: 1; " transform="translate(660.222494553377,0)"><line y2="0" x2="0"></line><text style="font-family: sans-serif; font-size: 12px; font-weight: lighter; fill: #888888; text-anchor: end; " transform="translate(-22,3)rotate(-65)" y="20" x="0" dy=".71em">0.96</text><line class="tick" x1="0" x2="0" y1="10" y2="-431.21113251527663" stroke="#ccc" stroke-width="1" shape-rendering="crispEdges" opacity="1"></line></g><path class="domain" d="M0,0V0H677V0"></path></g><g class="yaxis"><g class="tick" style="opacity: 1; " transform="translate(0,415.2403498295256)"><line x2="0" y2="0"></line><text style="font-family: sans-serif; font-size: 12px; font-weight: lighter; fill: #888888; text-anchor: end; " x="-15" y="0" dy=".32em">-3.5</text><line class="tick" x1="-10" x2="677" y1="0" y2="0" stroke="#ccc" stroke-width="1" shape-rendering="crispEdges" opacity="1" style="opacity: 1; " transform="translate(0,65.87947857872281)"></line></g><g class="tick" style="opacity: 1; " transform="translate(0,365.33165393655383)"><line x2="0" y2="0"></line><text style="font-family: sans-serif; font-size: 12px; font-weight: lighter; fill: #888888; text-anchor: end; " x="-15" y="0" dy=".32em">-3</text><line class="tick" x1="-10" x2="677" y1="0" y2="0" stroke="#ccc" stroke-width="1" shape-rendering="crispEdges" opacity="1"></line></g><g class="tick" style="opacity: 1; " transform="translate(0,315.42295804358196)"><line x2="0" y2="0"></line><text style="font-family: sans-serif; font-size: 12px; font-weight: lighter; fill: #888888; text-anchor: end; " x="-15" y="0" dy=".32em">-2.5</text><line class="tick" x1="-10" x2="677" y1="0" y2="0" stroke="#ccc" stroke-width="1" shape-rendering="crispEdges" opacity="1"></line></g><g class="tick" style="opacity: 1; " transform="translate(0,265.51426215061014)"><line x2="0" y2="0"></line><text style="font-family: sans-serif; font-size: 12px; font-weight: lighter; fill: #888888; text-anchor: end; " x="-15" y="0" dy=".32em">-2</text><line class="tick" x1="-10" x2="677" y1="0" y2="0" stroke="#ccc" stroke-width="1" shape-rendering="crispEdges" opacity="1"></line></g><g class="tick" style="opacity: 1; " transform="translate(0,215.60556625763832)"><line x2="0" y2="0"></line><text style="font-family: sans-serif; font-size: 12px; font-weight: lighter; fill: #888888; text-anchor: end; " x="-15" y="0" dy=".32em">-1.5</text><line class="tick" x1="-10" x2="677" y1="0" y2="0" stroke="#ccc" stroke-width="1" shape-rendering="crispEdges" opacity="1"></line></g><g class="tick" style="opacity: 1; " transform="translate(0,165.69687036466647)"><line x2="0" y2="0"></line><text style="font-family: sans-serif; font-size: 12px; font-weight: lighter; fill: #888888; text-anchor: end; " x="-15" y="0" dy=".32em">-1</text><line class="tick" x1="-10" x2="677" y1="0" y2="0" stroke="#ccc" stroke-width="1" shape-rendering="crispEdges" opacity="1"></line></g><g class="tick" style="opacity: 1; " transform="translate(0,115.78817447169466)"><line x2="0" y2="0"></line><text style="font-family: sans-serif; font-size: 12px; font-weight: lighter; fill: #888888; text-anchor: end; " x="-15" y="0" dy=".32em">-0.5</text><line class="tick" x1="-10" x2="677" y1="0" y2="0" stroke="#ccc" stroke-width="1" shape-rendering="crispEdges" opacity="1"></line></g><g class="tick" style="opacity: 1; " transform="translate(0,15.970782685750988)"><line x2="0" y2="0"></line><text style="font-family: sans-serif; font-size: 12px; font-weight: lighter; fill: #888888; text-anchor: end; " x="-15" y="0" dy=".32em">0.5</text><line class="tick" x1="-10" x2="677" y1="0" y2="0" stroke="#ccc" stroke-width="1" shape-rendering="crispEdges" opacity="1"></line></g><path class="domain" d="M0,0H0V431.21113251527663H0"></path></g><g class="circles"><g opacity="1" class="circle" transform="translate(571.36595878268,144.93058426028804)"><circle style="stroke: #330000; stroke-width: 1px; fill: #ffe5e5; " r="18.199999999999996"></circle><path style="fill: #330000; fill-opacity: 1; " d="M1.114391781978363e-15,-18.199999999999996A18.199999999999996,18.199999999999996 0 0,1 1.114391781978363e-15,-18.199999999999996L0,0Z"></path></g><g opacity="1" class="circle" transform="translate(602.9237182734206,34.52196762883563)"><circle style="stroke: #9c9a87; stroke-width: 1px; fill: #f3f3f1; " r="17.040992373209562"></circle><path style="fill: #9c9a87; fill-opacity: 1; " d="M1.043425376783555e-15,-17.040992373209562A17.040992373209562,17.040992373209562 0 0,1 1.043425376783555e-15,-17.040992373209562L0,0Z"></path></g><g opacity="1" class="circle" transform="translate(369.53013459967326,284.9796958061399)"><circle style="stroke-width: 1px; fill: #9c9a87; stroke: #333333; " r="15.520179598191966"></circle><path style="fill: #9c9a87; fill-opacity: 1; " d="M0,15.520179598191966A15.520179598191966,15.520179598191966 0 1,1 0,-15.520179598191966A15.520179598191966,15.520179598191966 0 1,1 0,15.520179598191966Z"></path></g><g opacity="1" class="circle" transform="translate(561.5309021241834,187.81823777638252)"><circle style="stroke-width: 1px; fill: #ffe5e5; stroke: #ff0000; " r="14.462304509801813"></circle><path style="fill: #ff0000; fill-opacity: 1; " d="M8.855314996808661e-16,-14.462304509801813A14.462304509801813,14.462304509801813 0 0,1 8.855314996808661e-16,-14.462304509801813L0,0Z"></path></g><g opacity="1" class="circle" transform="translate(539.6183830201528,117.45607976399647)"><circle style="stroke-width: 1px; fill: #d66011; stroke: #333333; " r="12.205169255614893"></circle><path style="fill: #d66011; fill-opacity: 1; " d="M0,12.205169255614893A12.205169255614893,12.205169255614893 0 1,1 0,-12.205169255614893A12.205169255614893,12.205169255614893 0 1,1 0,12.205169255614893Z"></path></g><g opacity="1" class="circle" transform="translate(510.4703250136166,151.65507641111523)"><circle style="stroke-width: 1px; fill: #d66011; stroke: #333333; " r="12.106119865385146"></circle><path style="fill: #d66011; fill-opacity: 1; " d="M0,12.106119865385146A12.106119865385146,12.106119865385146 0 1,1 0,-12.106119865385146A12.106119865385146,12.106119865385146 0 1,1 0,12.106119865385146Z"></path></g><g opacity="1" class="circle" transform="translate(509.69175657679756,181.19150021328204)"><circle style="stroke: #ffe999; stroke-width: 1px; fill: #fffae5; " r="11.300531279065334"></circle><path style="fill: #ffe999; fill-opacity: 1; " d="M6.919351202955962e-16,-11.300531279065334A11.300531279065334,11.300531279065334 0 0,1 6.919351202955962e-16,-11.300531279065334L0,0Z"></path></g><g opacity="1" class="circle" transform="translate(405.54375063997844,234.24100495488267)"><circle style="stroke-width: 1px; fill: #ffe999; stroke: #333333; " r="11.060978452406868"></circle><path style="fill: #ffe999; fill-opacity: 1; " d="M0,11.060978452406868A11.060978452406868,11.060978452406868 0 1,1 0,-11.060978452406868A11.060978452406868,11.060978452406868 0 1,1 0,11.060978452406868Z"></path></g><g opacity="1" class="circle" transform="translate(447.908168722767,230.88929580308059)"><circle style="stroke-width: 1px; fill: #ffe999; stroke: #333333; " r="11.040823131270505"></circle><path style="fill: #ffe999; fill-opacity: 1; " d="M0,11.040823131270505A11.040823131270505,11.040823131270505 0 1,1 0,-11.040823131270505A11.040823131270505,11.040823131270505 0 1,1 0,11.040823131270505Z"></path></g><g opacity="1" class="circle" transform="translate(536.9609552151419,138.00802582693728)"><circle style="stroke: #ffe999; stroke-width: 1px; fill: #fffae5; " r="10.956909911343743"></circle><path style="fill: #ffe999; fill-opacity: 1; " d="M6.708950747845464e-16,-10.956909911343743A10.956909911343743,10.956909911343743 0 0,1 6.708950747845464e-16,-10.956909911343743L0,0Z"></path></g><g opacity="1" class="circle" transform="translate(183.79008681917196,357.9290569344138)"><circle style="stroke-width: 1px; fill: #d66011; stroke: #333333; " r="10.93325379644929"></circle><path style="fill: #d66011; fill-opacity: 1; " d="M0,10.93325379644929A10.93325379644929,10.93325379644929 0 1,1 0,-10.93325379644929A10.93325379644929,10.93325379644929 0 1,1 0,10.93325379644929Z"></path></g><g opacity="1" class="circle" transform="translate(410.6784416530501,267.6147425208943)"><circle style="stroke: #ffe999; stroke-width: 1px; fill: #fffae5; " r="10.90608970179414"></circle><path style="fill: #ffe999; fill-opacity: 1; " d="M6.67783337208695e-16,-10.90608970179414A10.90608970179414,10.90608970179414 0 0,1 6.67783337208695e-16,-10.90608970179414L0,0Z"></path></g><g opacity="1" class="circle" transform="translate(565.3915720588238,38.18812462168259)"><circle style="stroke-width: 1px; fill: #ffe999; stroke: #333333; " r="10.434592003721377"></circle><path style="fill: #ffe999; fill-opacity: 1; " d="M0,10.434592003721377A10.434592003721377,10.434592003721377 0 1,1 0,-10.434592003721377A10.434592003721377,10.434592003721377 0 1,1 0,10.434592003721377Z"></path></g><g opacity="1" class="circle" transform="translate(422.8685069716777,315.3785983601989)"><circle style="stroke: #d66011; stroke-width: 1px; fill: #fdf0e7; " r="9.860931621417937"></circle><path style="fill: #d66011; fill-opacity: 1; " d="M6.037879759098201e-16,-9.860931621417937A9.860931621417937,9.860931621417937 0 0,1 6.037879759098201e-16,-9.860931621417937L0,0Z"></path></g><g opacity="1" class="circle" transform="translate(403.22091422930305,199.62511954547776)"><circle style="stroke-width: 1px; fill: #d66011; stroke: #333333; " r="9.734367966719972"></circle><path style="fill: #d66011; fill-opacity: 1; " d="M0,9.734367966719972A9.734367966719972,9.734367966719972 0 1,1 0,-9.734367966719972A9.734367966719972,9.734367966719972 0 1,1 0,9.734367966719972Z"></path></g><g opacity="1" class="circle" transform="translate(428.4664783769063,253.73735722519308)"><circle style="stroke-width: 1px; fill: #ffe999; stroke: #333333; " r="9.679824640149025"></circle><path style="fill: #ffe999; fill-opacity: 1; " d="M0,9.679824640149025A9.679824640149025,9.679824640149025 0 1,1 0,-9.679824640149025A9.679824640149025,9.679824640149025 0 1,1 0,9.679824640149025Z"></path></g><g opacity="1" class="circle" transform="translate(238.71133386437916,316.76739793956034)"><circle style="stroke-width: 1px; fill: #ffe999; stroke: #333333; " r="9.371012602038647"></circle><path style="fill: #ffe999; fill-opacity: 1; " d="M0,9.371012602038647A9.371012602038647,9.371012602038647 0 1,1 0,-9.371012602038647A9.371012602038647,9.371012602038647 0 1,1 0,9.371012602038647Z"></path></g><g opacity="1" class="circle" transform="translate(441.30320590958627,203.07520611139378)"><circle style="stroke-width: 1px; fill: #d66011; stroke: #333333; " r="9.362768331847066"></circle><path style="fill: #d66011; fill-opacity: 1; " d="M0,9.362768331847066A9.362768331847066,9.362768331847066 0 1,1 0,-9.362768331847066A9.362768331847066,9.362768331847066 0 1,1 0,9.362768331847066Z"></path></g><g opacity="1" class="circle" transform="translate(417.0742848447712,202.5774243666754)"><circle style="stroke-width: 1px; fill: #ffe999; stroke: #333333; " r="9.342108876029602"></circle><path style="fill: #ffe999; fill-opacity: 1; " d="M0,9.342108876029602A9.342108876029602,9.342108876029602 0 1,1 0,-9.342108876029602A9.342108876029602,9.342108876029602 0 1,1 0,9.342108876029602Z"></path></g><g opacity="1" class="circle" transform="translate(483.5067627450982,119.65653543328752)"><circle style="stroke-width: 1px; fill: #d66011; stroke: #333333; " r="9.24837905606665"></circle><path style="fill: #d66011; fill-opacity: 1; " d="M0,9.24837905606665A9.24837905606665,9.24837905606665 0 1,1 0,-9.24837905606665A9.24837905606665,9.24837905606665 0 1,1 0,9.24837905606665Z"></path></g><g opacity="1" class="circle" transform="translate(43.9051461873637,377.44321836523966)"><circle style="stroke-width: 1px; fill: #ffe999; stroke: #333333; " r="8.826529266701638"></circle><path style="fill: #ffe999; fill-opacity: 1; " d="M0,8.826529266701638A8.826529266701638,8.826529266701638 0 1,1 0,-8.826529266701638A8.826529266701638,8.826529266701638 0 1,1 0,8.826529266701638Z"></path></g><g opacity="1" class="circle" transform="translate(410.85860625000015,190.96866332899364)"><circle style="stroke-width: 1px; fill: #ff0000; stroke: #333333; " r="8.654126636324055"></circle><path style="fill: #ff0000; fill-opacity: 1; " d="M0,8.654126636324055A8.654126636324055,8.654126636324055 0 1,1 0,-8.654126636324055A8.654126636324055,8.654126636324055 0 1,1 0,8.654126636324055Z"></path></g><g opacity="1" class="circle" transform="translate(498.4218175925927,166.89472499707063)"><circle style="stroke: #ffe999; stroke-width: 1px; fill: #fffae5; " r="8.653055876316825"></circle><path style="fill: #ffe999; fill-opacity: 1; " d="M5.298293603058822e-16,-8.653055876316825A8.653055876316825,8.653055876316825 0 0,1 5.298293603058822e-16,-8.653055876316825L0,0Z"></path></g><g opacity="1" class="circle" transform="translate(435.9593952750546,226.24551207299314)"><circle style="stroke: #d66011; stroke-width: 1px; fill: #fdf0e7; " r="8.48228421136179"></circle><path style="fill: #d66011; fill-opacity: 1; " d="M5.19372957008044e-16,-8.48228421136179A8.48228421136179,8.48228421136179 0 0,1 5.19372957008044e-16,-8.48228421136179L0,0Z"></path></g><g opacity="1" class="circle" transform="translate(362.72892106481504,241.44201331288787)"><circle style="stroke-width: 1px; fill: #ffe999; stroke: #333333; " r="8.224310994512509"></circle><path style="fill: #ffe999; fill-opacity: 1; " d="M0,8.224310994512509A8.224310994512509,8.224310994512509 0 1,1 0,-8.224310994512509A8.224310994512509,8.224310994512509 0 1,1 0,8.224310994512509Z"></path></g><g opacity="1" class="circle" transform="translate(400.25785005446625,244.28663854158899)"><circle style="stroke-width: 1px; fill: #d66011; stroke: #333333; " r="8.065035655571089"></circle><path style="fill: #d66011; fill-opacity: 1; " d="M0,8.065035655571089A8.065035655571089,8.065035655571089 0 1,1 0,-8.065035655571089A8.065035655571089,8.065035655571089 0 1,1 0,8.065035655571089Z"></path></g><g opacity="1" class="circle" transform="translate(257.07203662854045,292.44478219776494)"><circle style="stroke-width: 1px; fill: #d66011; stroke: #333333; " r="7.643143313010982"></circle><path style="fill: #d66011; fill-opacity: 1; " d="M0,7.643143313010982A7.643143313010982,7.643143313010982 0 1,1 0,-7.643143313010982A7.643143313010982,7.643143313010982 0 1,1 0,7.643143313010982Z"></path></g><g opacity="1" class="circle" transform="translate(470.4448294662312,180.7946321737289)"><circle style="stroke-width: 1px; fill: #d66011; stroke: #333333; " r="7.627128079430975"></circle><path style="fill: #d66011; fill-opacity: 1; " d="M0,7.627128079430975A7.627128079430975,7.627128079430975 0 1,1 0,-7.627128079430975A7.627128079430975,7.627128079430975 0 1,1 0,7.627128079430975Z"></path></g><g opacity="1" class="circle" transform="translate(468.1252102805011,186.50051882150484)"><circle style="stroke-width: 1px; fill: #ff0000; stroke: #333333; " r="7.520943567674768"></circle><path style="fill: #ff0000; fill-opacity: 1; " d="M0,7.520943567674768A7.520943567674768,7.520943567674768 0 1,1 0,-7.520943567674768A7.520943567674768,7.520943567674768 0 1,1 0,7.520943567674768Z"></path></g><g opacity="1" class="circle" transform="translate(432.2402832380174,226.5923009914331)"><circle style="stroke-width: 1px; fill: #ffe999; stroke: #333333; " r="7.417629943542396"></circle><path style="fill: #ffe999; fill-opacity: 1; " d="M0,7.417629943542396A7.417629943542396,7.417629943542396 0 1,1 0,-7.417629943542396A7.417629943542396,7.417629943542396 0 1,1 0,7.417629943542396Z"></path></g><g opacity="1" class="circle" transform="translate(469.4217519335513,188.44659498636543)"><circle style="stroke-width: 1px; fill: #ff0000; stroke: #333333; " r="6.402879577443278"></circle><path style="fill: #ff0000; fill-opacity: 1; " d="M0,6.402879577443278A6.402879577443278,6.402879577443278 0 1,1 0,-6.402879577443278A6.402879577443278,6.402879577443278 0 1,1 0,6.402879577443278Z"></path></g><g opacity="1" class="circle" transform="translate(505.9694273148151,98.66756708448793)"><circle style="stroke-width: 1px; fill: #ffe999; stroke: #333333; " r="6.366963089195201"></circle><path style="fill: #ffe999; fill-opacity: 1; " d="M0,6.366963089195201A6.366963089195201,6.366963089195201 0 1,1 0,-6.366963089195201A6.366963089195201,6.366963089195201 0 1,1 0,6.366963089195201Z"></path></g><g opacity="1" class="circle" transform="translate(379.78986495098053,256.60936602376665)"><circle style="stroke-width: 1px; fill: #ffe999; stroke: #333333; " r="6.114922077024248"></circle><path style="fill: #ffe999; fill-opacity: 1; " d="M0,6.114922077024248A6.114922077024248,6.114922077024248 0 1,1 0,-6.114922077024248A6.114922077024248,6.114922077024248 0 1,1 0,6.114922077024248Z"></path></g><g opacity="1" class="circle" transform="translate(544.5889955610025,93.68983674424872)"><circle style="stroke-width: 1px; fill: #ff0000; stroke: #333333; " r="6.0662937944906705"></circle><path style="fill: #ff0000; fill-opacity: 1; " d="M0,6.0662937944906705A6.0662937944906705,6.0662937944906705 0 1,1 0,-6.0662937944906705A6.0662937944906705,6.0662937944906705 0 1,1 0,6.0662937944906705Z"></path></g><g opacity="1" class="circle" transform="translate(481.95927754629656,136.19461150467495)"><circle style="stroke-width: 1px; fill: #ffe999; stroke: #333333; " r="5.912640930668344"></circle><path style="fill: #ffe999; fill-opacity: 1; " d="M0,5.912640930668344A5.912640930668344,5.912640930668344 0 1,1 0,-5.912640930668344A5.912640930668344,5.912640930668344 0 1,1 0,5.912640930668344Z"></path></g><g opacity="1" class="circle" transform="translate(434.82693209422666,254.8910008472284)"><circle style="stroke-width: 1px; fill: #d66011; stroke: #333333; " r="5.379440577916387"></circle><path style="fill: #d66011; fill-opacity: 1; " d="M0,5.379440577916387A5.379440577916387,5.379440577916387 0 1,1 0,-5.379440577916387A5.379440577916387,5.379440577916387 0 1,1 0,5.379440577916387Z"></path></g><g opacity="1" class="circle" transform="translate(525.9902181508717,118.17398700630699)"><circle style="stroke-width: 1px; fill: #ffc41c; stroke: #333333; " r="5.332626352471419"></circle><path style="fill: #ffc41c; fill-opacity: 1; " d="M0,5.332626352471419A5.332626352471419,5.332626352471419 0 1,1 0,-5.332626352471419A5.332626352471419,5.332626352471419 0 1,1 0,5.332626352471419Z"></path></g><g opacity="1" class="circle" transform="translate(481.32870145697166,159.1665311298647)"><circle style="stroke-width: 1px; fill: #d66011; stroke: #333333; " r="4.674326602167431"></circle><path style="fill: #d66011; fill-opacity: 1; " d="M0,4.674326602167431A4.674326602167431,4.674326602167431 0 1,1 0,-4.674326602167431A4.674326602167431,4.674326602167431 0 1,1 0,4.674326602167431Z"></path></g><g opacity="1" class="circle" transform="translate(483.0177445533769,154.94279652472386)"><circle style="stroke-width: 1px; fill: #d66011; stroke: #333333; " r="4.065313115005653"></circle><path style="fill: #d66011; fill-opacity: 1; " d="M0,4.065313115005653A4.065313115005653,4.065313115005653 0 1,1 0,-4.065313115005653A4.065313115005653,4.065313115005653 0 1,1 0,4.065313115005653Z"></path></g><g opacity="1" class="circle" transform="translate(476.16827264433573,209.39191983617786)"><circle style="stroke-width: 1px; fill: #d66011; stroke: #333333; " r="3.6331303266843173"></circle><path style="fill: #d66011; fill-opacity: 1; " d="M0,3.6331303266843173A3.6331303266843173,3.6331303266843173 0 1,1 0,-3.6331303266843173A3.6331303266843173,3.6331303266843173 0 1,1 0,3.6331303266843173Z"></path></g><g opacity="1" class="circle" transform="translate(519.5107271105668,141.77541846977627)"><circle style="stroke-width: 1px; fill: #ffe999; stroke: #333333; " r="3.237560124669059"></circle><path style="fill: #ffe999; fill-opacity: 1; " d="M0,3.237560124669059A3.237560124669059,3.237560124669059 0 1,1 0,-3.237560124669059A3.237560124669059,3.237560124669059 0 1,1 0,3.237560124669059Z"></path></g><g opacity="1" class="circle" transform="translate(487.24196090686274,90.80619449327843)"><circle style="stroke-width: 1px; fill: #9c9a87; stroke: #333333; " r="3"></circle><path style="fill: #9c9a87; fill-opacity: 1; " d="M0,3A3,3 0 1,1 0,-3A3,3 0 1,1 0,3Z"></path></g></g><g id="data_ticks"><g class="data_tick"><line class="ytick" x1="-10" x2="0" y1="144.93058426028804" y2="144.93058426028804" stroke="#330000" stroke-width="1" shape-rendering="crispEdges"></line><line class="xtick" y1="431.21113251527663" y2="441.21113251527663" x1="571.36595878268" x2="571.36595878268" stroke="#330000" stroke-width="1" shape-rendering="crispEdges"></line></g><g class="data_tick"><line class="ytick" x1="-10" x2="0" y1="34.52196762883563" y2="34.52196762883563" stroke="#9c9a87" stroke-width="1" shape-rendering="crispEdges"></line><line class="xtick" y1="431.21113251527663" y2="441.21113251527663" x1="602.9237182734206" x2="602.9237182734206" stroke="#9c9a87" stroke-width="1" shape-rendering="crispEdges"></line></g><g class="data_tick"><line class="ytick" x1="-10" x2="0" y1="284.9796958061399" y2="284.9796958061399" stroke="#9c9a87" stroke-width="1" shape-rendering="crispEdges"></line><line class="xtick" y1="431.21113251527663" y2="441.21113251527663" x1="369.53013459967326" x2="369.53013459967326" stroke="#9c9a87" stroke-width="1" shape-rendering="crispEdges"></line></g><g class="data_tick"><line class="ytick" x1="-10" x2="0" y1="187.81823777638252" y2="187.81823777638252" stroke="red" stroke-width="1" shape-rendering="crispEdges"></line><line class="xtick" y1="431.21113251527663" y2="441.21113251527663" x1="561.5309021241834" x2="561.5309021241834" stroke="red" stroke-width="1" shape-rendering="crispEdges"></line></g><g class="data_tick"><line class="ytick" x1="-10" x2="0" y1="117.45607976399647" y2="117.45607976399647" stroke="#d66011" stroke-width="1" shape-rendering="crispEdges"></line><line class="xtick" y1="431.21113251527663" y2="441.21113251527663" x1="539.6183830201528" x2="539.6183830201528" stroke="#d66011" stroke-width="1" shape-rendering="crispEdges"></line></g><g class="data_tick"><line class="ytick" x1="-10" x2="0" y1="151.65507641111523" y2="151.65507641111523" stroke="#d66011" stroke-width="1" shape-rendering="crispEdges"></line><line class="xtick" y1="431.21113251527663" y2="441.21113251527663" x1="510.4703250136166" x2="510.4703250136166" stroke="#d66011" stroke-width="1" shape-rendering="crispEdges"></line></g><g class="data_tick"><line class="ytick" x1="-10" x2="0" y1="181.19150021328204" y2="181.19150021328204" stroke="#ffe999" stroke-width="1" shape-rendering="crispEdges"></line><line class="xtick" y1="431.21113251527663" y2="441.21113251527663" x1="509.69175657679756" x2="509.69175657679756" stroke="#ffe999" stroke-width="1" shape-rendering="crispEdges"></line></g><g class="data_tick"><line class="ytick" x1="-10" x2="0" y1="234.24100495488267" y2="234.24100495488267" stroke="#ffe999" stroke-width="1" shape-rendering="crispEdges"></line><line class="xtick" y1="431.21113251527663" y2="441.21113251527663" x1="405.54375063997844" x2="405.54375063997844" stroke="#ffe999" stroke-width="1" shape-rendering="crispEdges"></line></g><g class="data_tick"><line class="ytick" x1="-10" x2="0" y1="230.88929580308059" y2="230.88929580308059" stroke="#ffe999" stroke-width="1" shape-rendering="crispEdges"></line><line class="xtick" y1="431.21113251527663" y2="441.21113251527663" x1="447.908168722767" x2="447.908168722767" stroke="#ffe999" stroke-width="1" shape-rendering="crispEdges"></line></g><g class="data_tick"><line class="ytick" x1="-10" x2="0" y1="138.00802582693728" y2="138.00802582693728" stroke="#ffe999" stroke-width="1" shape-rendering="crispEdges"></line><line class="xtick" y1="431.21113251527663" y2="441.21113251527663" x1="536.9609552151419" x2="536.9609552151419" stroke="#ffe999" stroke-width="1" shape-rendering="crispEdges"></line></g><g class="data_tick"><line class="ytick" x1="-10" x2="0" y1="357.9290569344138" y2="357.9290569344138" stroke="#d66011" stroke-width="1" shape-rendering="crispEdges"></line><line class="xtick" y1="431.21113251527663" y2="441.21113251527663" x1="183.79008681917196" x2="183.79008681917196" stroke="#d66011" stroke-width="1" shape-rendering="crispEdges"></line></g><g class="data_tick"><line class="ytick" x1="-10" x2="0" y1="267.6147425208943" y2="267.6147425208943" stroke="#ffe999" stroke-width="1" shape-rendering="crispEdges"></line><line class="xtick" y1="431.21113251527663" y2="441.21113251527663" x1="410.6784416530501" x2="410.6784416530501" stroke="#ffe999" stroke-width="1" shape-rendering="crispEdges"></line></g><g class="data_tick"><line class="ytick" x1="-10" x2="0" y1="38.18812462168259" y2="38.18812462168259" stroke="#ffe999" stroke-width="1" shape-rendering="crispEdges"></line><line class="xtick" y1="431.21113251527663" y2="441.21113251527663" x1="565.3915720588238" x2="565.3915720588238" stroke="#ffe999" stroke-width="1" shape-rendering="crispEdges"></line></g><g class="data_tick"><line class="ytick" x1="-10" x2="0" y1="315.3785983601989" y2="315.3785983601989" stroke="#d66011" stroke-width="1" shape-rendering="crispEdges"></line><line class="xtick" y1="431.21113251527663" y2="441.21113251527663" x1="422.8685069716777" x2="422.8685069716777" stroke="#d66011" stroke-width="1" shape-rendering="crispEdges"></line></g><g class="data_tick"><line class="ytick" x1="-10" x2="0" y1="199.62511954547776" y2="199.62511954547776" stroke="#d66011" stroke-width="1" shape-rendering="crispEdges"></line><line class="xtick" y1="431.21113251527663" y2="441.21113251527663" x1="403.22091422930305" x2="403.22091422930305" stroke="#d66011" stroke-width="1" shape-rendering="crispEdges"></line></g><g class="data_tick"><line class="ytick" x1="-10" x2="0" y1="253.73735722519308" y2="253.73735722519308" stroke="#ffe999" stroke-width="1" shape-rendering="crispEdges"></line><line class="xtick" y1="431.21113251527663" y2="441.21113251527663" x1="428.4664783769063" x2="428.4664783769063" stroke="#ffe999" stroke-width="1" shape-rendering="crispEdges"></line></g><g class="data_tick"><line class="ytick" x1="-10" x2="0" y1="316.76739793956034" y2="316.76739793956034" stroke="#ffe999" stroke-width="1" shape-rendering="crispEdges"></line><line class="xtick" y1="431.21113251527663" y2="441.21113251527663" x1="238.71133386437916" x2="238.71133386437916" stroke="#ffe999" stroke-width="1" shape-rendering="crispEdges"></line></g><g class="data_tick"><line class="ytick" x1="-10" x2="0" y1="203.07520611139378" y2="203.07520611139378" stroke="#d66011" stroke-width="1" shape-rendering="crispEdges"></line><line class="xtick" y1="431.21113251527663" y2="441.21113251527663" x1="441.30320590958627" x2="441.30320590958627" stroke="#d66011" stroke-width="1" shape-rendering="crispEdges"></line></g><g class="data_tick"><line class="ytick" x1="-10" x2="0" y1="202.5774243666754" y2="202.5774243666754" stroke="#ffe999" stroke-width="1" shape-rendering="crispEdges"></line><line class="xtick" y1="431.21113251527663" y2="441.21113251527663" x1="417.0742848447712" x2="417.0742848447712" stroke="#ffe999" stroke-width="1" shape-rendering="crispEdges"></line></g><g class="data_tick"><line class="ytick" x1="-10" x2="0" y1="119.65653543328752" y2="119.65653543328752" stroke="#d66011" stroke-width="1" shape-rendering="crispEdges"></line><line class="xtick" y1="431.21113251527663" y2="441.21113251527663" x1="483.5067627450982" x2="483.5067627450982" stroke="#d66011" stroke-width="1" shape-rendering="crispEdges"></line></g><g class="data_tick"><line class="ytick" x1="-10" x2="0" y1="377.44321836523966" y2="377.44321836523966" stroke="#ffe999" stroke-width="1" shape-rendering="crispEdges"></line><line class="xtick" y1="431.21113251527663" y2="441.21113251527663" x1="43.9051461873637" x2="43.9051461873637" stroke="#ffe999" stroke-width="1" shape-rendering="crispEdges"></line></g><g class="data_tick"><line class="ytick" x1="-10" x2="0" y1="190.96866332899364" y2="190.96866332899364" stroke="red" stroke-width="1" shape-rendering="crispEdges"></line><line class="xtick" y1="431.21113251527663" y2="441.21113251527663" x1="410.85860625000015" x2="410.85860625000015" stroke="red" stroke-width="1" shape-rendering="crispEdges"></line></g><g class="data_tick"><line class="ytick" x1="-10" x2="0" y1="166.89472499707063" y2="166.89472499707063" stroke="#ffe999" stroke-width="1" shape-rendering="crispEdges"></line><line class="xtick" y1="431.21113251527663" y2="441.21113251527663" x1="498.4218175925927" x2="498.4218175925927" stroke="#ffe999" stroke-width="1" shape-rendering="crispEdges"></line></g><g class="data_tick"><line class="ytick" x1="-10" x2="0" y1="226.24551207299314" y2="226.24551207299314" stroke="#d66011" stroke-width="1" shape-rendering="crispEdges"></line><line class="xtick" y1="431.21113251527663" y2="441.21113251527663" x1="435.9593952750546" x2="435.9593952750546" stroke="#d66011" stroke-width="1" shape-rendering="crispEdges"></line></g><g class="data_tick"><line class="ytick" x1="-10" x2="0" y1="241.44201331288787" y2="241.44201331288787" stroke="#ffe999" stroke-width="1" shape-rendering="crispEdges"></line><line class="xtick" y1="431.21113251527663" y2="441.21113251527663" x1="362.72892106481504" x2="362.72892106481504" stroke="#ffe999" stroke-width="1" shape-rendering="crispEdges"></line></g><g class="data_tick"><line class="ytick" x1="-10" x2="0" y1="244.28663854158899" y2="244.28663854158899" stroke="#d66011" stroke-width="1" shape-rendering="crispEdges"></line><line class="xtick" y1="431.21113251527663" y2="441.21113251527663" x1="400.25785005446625" x2="400.25785005446625" stroke="#d66011" stroke-width="1" shape-rendering="crispEdges"></line></g><g class="data_tick"><line class="ytick" x1="-10" x2="0" y1="292.44478219776494" y2="292.44478219776494" stroke="#d66011" stroke-width="1" shape-rendering="crispEdges"></line><line class="xtick" y1="431.21113251527663" y2="441.21113251527663" x1="257.07203662854045" x2="257.07203662854045" stroke="#d66011" stroke-width="1" shape-rendering="crispEdges"></line></g><g class="data_tick"><line class="ytick" x1="-10" x2="0" y1="180.7946321737289" y2="180.7946321737289" stroke="#d66011" stroke-width="1" shape-rendering="crispEdges"></line><line class="xtick" y1="431.21113251527663" y2="441.21113251527663" x1="470.4448294662312" x2="470.4448294662312" stroke="#d66011" stroke-width="1" shape-rendering="crispEdges"></line></g><g class="data_tick"><line class="ytick" x1="-10" x2="0" y1="186.50051882150484" y2="186.50051882150484" stroke="red" stroke-width="1" shape-rendering="crispEdges"></line><line class="xtick" y1="431.21113251527663" y2="441.21113251527663" x1="468.1252102805011" x2="468.1252102805011" stroke="red" stroke-width="1" shape-rendering="crispEdges"></line></g><g class="data_tick"><line class="ytick" x1="-10" x2="0" y1="226.5923009914331" y2="226.5923009914331" stroke="#ffe999" stroke-width="1" shape-rendering="crispEdges"></line><line class="xtick" y1="431.21113251527663" y2="441.21113251527663" x1="432.2402832380174" x2="432.2402832380174" stroke="#ffe999" stroke-width="1" shape-rendering="crispEdges"></line></g><g class="data_tick"><line class="ytick" x1="-10" x2="0" y1="188.44659498636543" y2="188.44659498636543" stroke="red" stroke-width="1" shape-rendering="crispEdges"></line><line class="xtick" y1="431.21113251527663" y2="441.21113251527663" x1="469.4217519335513" x2="469.4217519335513" stroke="red" stroke-width="1" shape-rendering="crispEdges"></line></g><g class="data_tick"><line class="ytick" x1="-10" x2="0" y1="98.66756708448793" y2="98.66756708448793" stroke="#ffe999" stroke-width="1" shape-rendering="crispEdges"></line><line class="xtick" y1="431.21113251527663" y2="441.21113251527663" x1="505.9694273148151" x2="505.9694273148151" stroke="#ffe999" stroke-width="1" shape-rendering="crispEdges"></line></g><g class="data_tick"><line class="ytick" x1="-10" x2="0" y1="256.60936602376665" y2="256.60936602376665" stroke="#ffe999" stroke-width="1" shape-rendering="crispEdges"></line><line class="xtick" y1="431.21113251527663" y2="441.21113251527663" x1="379.78986495098053" x2="379.78986495098053" stroke="#ffe999" stroke-width="1" shape-rendering="crispEdges"></line></g><g class="data_tick"><line class="ytick" x1="-10" x2="0" y1="93.68983674424872" y2="93.68983674424872" stroke="red" stroke-width="1" shape-rendering="crispEdges"></line><line class="xtick" y1="431.21113251527663" y2="441.21113251527663" x1="544.5889955610025" x2="544.5889955610025" stroke="red" stroke-width="1" shape-rendering="crispEdges"></line></g><g class="data_tick"><line class="ytick" x1="-10" x2="0" y1="136.19461150467495" y2="136.19461150467495" stroke="#ffe999" stroke-width="1" shape-rendering="crispEdges"></line><line class="xtick" y1="431.21113251527663" y2="441.21113251527663" x1="481.95927754629656" x2="481.95927754629656" stroke="#ffe999" stroke-width="1" shape-rendering="crispEdges"></line></g><g class="data_tick"><line class="ytick" x1="-10" x2="0" y1="254.8910008472284" y2="254.8910008472284" stroke="#d66011" stroke-width="1" shape-rendering="crispEdges"></line><line class="xtick" y1="431.21113251527663" y2="441.21113251527663" x1="434.82693209422666" x2="434.82693209422666" stroke="#d66011" stroke-width="1" shape-rendering="crispEdges"></line></g><g class="data_tick"><line class="ytick" x1="-10" x2="0" y1="118.17398700630699" y2="118.17398700630699" stroke="#ffc41c" stroke-width="1" shape-rendering="crispEdges"></line><line class="xtick" y1="431.21113251527663" y2="441.21113251527663" x1="525.9902181508717" x2="525.9902181508717" stroke="#ffc41c" stroke-width="1" shape-rendering="crispEdges"></line></g><g class="data_tick"><line class="ytick" x1="-10" x2="0" y1="159.1665311298647" y2="159.1665311298647" stroke="#d66011" stroke-width="1" shape-rendering="crispEdges"></line><line class="xtick" y1="431.21113251527663" y2="441.21113251527663" x1="481.32870145697166" x2="481.32870145697166" stroke="#d66011" stroke-width="1" shape-rendering="crispEdges"></line></g><g class="data_tick"><line class="ytick" x1="-10" x2="0" y1="154.94279652472386" y2="154.94279652472386" stroke="#d66011" stroke-width="1" shape-rendering="crispEdges"></line><line class="xtick" y1="431.21113251527663" y2="441.21113251527663" x1="483.0177445533769" x2="483.0177445533769" stroke="#d66011" stroke-width="1" shape-rendering="crispEdges"></line></g><g class="data_tick"><line class="ytick" x1="-10" x2="0" y1="209.39191983617786" y2="209.39191983617786" stroke="#d66011" stroke-width="1" shape-rendering="crispEdges"></line><line class="xtick" y1="431.21113251527663" y2="441.21113251527663" x1="476.16827264433573" x2="476.16827264433573" stroke="#d66011" stroke-width="1" shape-rendering="crispEdges"></line></g><g class="data_tick"><line class="ytick" x1="-10" x2="0" y1="141.77541846977627" y2="141.77541846977627" stroke="#ffe999" stroke-width="1" shape-rendering="crispEdges"></line><line class="xtick" y1="431.21113251527663" y2="441.21113251527663" x1="519.5107271105668" x2="519.5107271105668" stroke="#ffe999" stroke-width="1" shape-rendering="crispEdges"></line></g><g class="data_tick"><line class="ytick" x1="-10" x2="0" y1="90.80619449327843" y2="90.80619449327843" stroke="#9c9a87" stroke-width="1" shape-rendering="crispEdges"></line><line class="xtick" y1="431.21113251527663" y2="441.21113251527663" x1="487.24196090686274" x2="487.24196090686274" stroke="#9c9a87" stroke-width="1" shape-rendering="crispEdges"></line></g></g></g></g></svg>